M48
;Layer_Color=9474304
;FILE_FORMAT=2:5
INCH,LZ
;TYPE=PLATED
T1F00S00C0.03543
%
T01
X002Y002
X003
X004
X005
X006
X007
X008
X009
X01
X011
X002Y008
Y009
Y01
Y011
Y012
Y013
Y014
Y015
Y016
X018Y012
Y011
Y01
Y009
Y008
Y007
Y006
Y005
Y004
Y003
Y002
X012
Y018
X013
X014
X015
X016
X017
X018
X011
X01
X009
X008
X002
Y017
M30
