%FSLAX25Y25*%
%MOIN*%
G70*
G01*
G75*
G04 Layer_Color=16711935*
%ADD10O,0.05512X0.01969*%
%ADD11C,0.00800*%
%ADD12C,0.05906*%
%ADD13R,0.05906X0.05906*%
%ADD14R,0.05906X0.05906*%
%ADD15C,0.00984*%
%ADD16C,0.02362*%
%ADD17C,0.00787*%
%ADD18C,0.01000*%
%ADD19O,0.06312X0.02769*%
%ADD20C,0.06706*%
%ADD21R,0.06706X0.06706*%
%ADD22R,0.06706X0.06706*%
D20*
X80000Y180000D02*
D03*
X90000D02*
D03*
X100000D02*
D03*
X110000D02*
D03*
X120000D02*
D03*
X130000D02*
D03*
X140000D02*
D03*
X150000D02*
D03*
X160000D02*
D03*
X170000D02*
D03*
X120000Y20000D02*
D03*
X110000D02*
D03*
X100000D02*
D03*
X90000D02*
D03*
X80000D02*
D03*
X70000D02*
D03*
X60000D02*
D03*
X50000D02*
D03*
X40000D02*
D03*
X30000D02*
D03*
X20000Y80000D02*
D03*
Y90000D02*
D03*
Y100000D02*
D03*
Y110000D02*
D03*
Y120000D02*
D03*
Y130000D02*
D03*
Y140000D02*
D03*
Y150000D02*
D03*
Y160000D02*
D03*
Y170000D02*
D03*
X180000Y120000D02*
D03*
Y110000D02*
D03*
Y100000D02*
D03*
Y90000D02*
D03*
Y80000D02*
D03*
Y70000D02*
D03*
Y60000D02*
D03*
Y50000D02*
D03*
Y40000D02*
D03*
Y30000D02*
D03*
D21*
Y180000D02*
D03*
X20000Y20000D02*
D03*
D22*
Y180000D02*
D03*
X180000Y20000D02*
D03*
M02*
