%FSLAX25Y25*%
%MOIN*%
G70*
G01*
G75*
G04 Layer_Physical_Order=1*
G04 Layer_Color=255*
%ADD10O,0.05512X0.01969*%
%ADD11C,0.00800*%
%ADD12C,0.05906*%
%ADD13R,0.05906X0.05906*%
%ADD14R,0.05906X0.05906*%
D10*
X77559Y133071D02*
D03*
Y129921D02*
D03*
Y126772D02*
D03*
Y123622D02*
D03*
Y120472D02*
D03*
Y117323D02*
D03*
Y114173D02*
D03*
Y111024D02*
D03*
Y107874D02*
D03*
Y104724D02*
D03*
Y101575D02*
D03*
Y98425D02*
D03*
Y95276D02*
D03*
Y92126D02*
D03*
Y88976D02*
D03*
Y85827D02*
D03*
Y82677D02*
D03*
Y79528D02*
D03*
Y76378D02*
D03*
Y73228D02*
D03*
Y70079D02*
D03*
Y66929D02*
D03*
X122441Y133071D02*
D03*
Y129921D02*
D03*
Y126772D02*
D03*
Y123622D02*
D03*
Y120472D02*
D03*
Y117323D02*
D03*
Y114173D02*
D03*
Y111024D02*
D03*
Y107874D02*
D03*
Y104724D02*
D03*
Y101575D02*
D03*
Y98425D02*
D03*
Y95276D02*
D03*
Y92126D02*
D03*
Y88976D02*
D03*
Y85827D02*
D03*
Y82677D02*
D03*
Y79528D02*
D03*
Y76378D02*
D03*
Y73228D02*
D03*
Y70079D02*
D03*
Y66929D02*
D03*
D11*
X80000Y180000D02*
X122441Y137559D01*
Y133071D02*
Y137559D01*
X91000Y180000D02*
X132500Y138500D01*
Y135000D02*
Y138500D01*
X127421Y129921D02*
X132500Y135000D01*
X122441Y129921D02*
X127421D01*
X100000Y180000D02*
X137500Y142500D01*
Y133500D02*
Y142500D01*
X130772Y126772D02*
X137500Y133500D01*
X122441Y126772D02*
X130772D01*
X143000Y134500D02*
Y147000D01*
X132122Y123622D02*
X143000Y134500D01*
X122441Y123622D02*
X132122D01*
X151000Y136500D02*
Y149000D01*
X134972Y120472D02*
X151000Y136500D01*
X122441Y120472D02*
X134972D01*
X156000Y136000D02*
Y154000D01*
X137323Y117323D02*
X156000Y136000D01*
X122441Y117323D02*
X137323D01*
X161500Y135500D02*
Y158500D01*
X140173Y114173D02*
X161500Y135500D01*
X122441Y114173D02*
X140173D01*
X166000Y134000D02*
Y164000D01*
X143024Y111024D02*
X166000Y134000D01*
X122441Y111024D02*
X143024D01*
X110000Y180000D02*
X143000Y147000D01*
X120000Y180000D02*
X151000Y149000D01*
X130000Y180000D02*
X156000Y154000D01*
X140000Y180000D02*
X161500Y158500D01*
X150000Y180000D02*
X166000Y164000D01*
X160000Y180000D02*
X170500Y169500D01*
Y132000D02*
Y169500D01*
X146374Y107874D02*
X170500Y132000D01*
X170000Y180000D02*
X175000Y175000D01*
Y131000D02*
Y175000D01*
X148724Y104724D02*
X175000Y131000D01*
X122441Y107874D02*
X146374D01*
X122441Y104724D02*
X148724D01*
X180000Y130000D02*
Y180000D01*
X151575Y101575D02*
X180000Y130000D01*
X122441Y101575D02*
X151575D01*
X158425Y98425D02*
X180000Y120000D01*
X122441Y98425D02*
X158425D01*
X165276Y95276D02*
X180000Y110000D01*
X122441Y95276D02*
X165276D01*
X172126Y92126D02*
X180000Y100000D01*
X122441Y92126D02*
X172126D01*
X178976Y88976D02*
X180000Y90000D01*
X122441Y88976D02*
X178976D01*
X158000Y80000D02*
X180000D01*
X152173Y85827D02*
X158000Y80000D01*
X122441Y85827D02*
X152173D01*
X155500Y70000D02*
X180000D01*
X142823Y82677D02*
X155500Y70000D01*
X122441Y82677D02*
X142823D01*
X159000Y60000D02*
X180000D01*
X139472Y79528D02*
X159000Y60000D01*
X122441Y79528D02*
X139472D01*
X161000Y50000D02*
X180000D01*
X134622Y76378D02*
X161000Y50000D01*
X122441Y76378D02*
X134622D01*
X163500Y40000D02*
X180000D01*
X130272Y73228D02*
X163500Y40000D01*
X122441Y73228D02*
X130272D01*
X165500Y30000D02*
X180000D01*
X125421Y70079D02*
X165500Y30000D01*
X122441Y70079D02*
X125421D01*
X169370Y20000D02*
X180000D01*
X122441Y66929D02*
X169370Y20000D01*
X48925Y98425D02*
X77559D01*
X20000Y69500D02*
X48925Y98425D01*
X20000Y20000D02*
Y69500D01*
X50776Y95276D02*
X77559D01*
X30000Y74500D02*
X50776Y95276D01*
X30000Y20000D02*
Y74500D01*
X52626Y92126D02*
X77559D01*
X35000Y74500D02*
X52626Y92126D01*
X35000Y25000D02*
Y74500D01*
X54976Y88976D02*
X77559D01*
X40000Y74000D02*
X54976Y88976D01*
X40000Y30000D02*
Y74000D01*
X57327Y85827D02*
X77559D01*
X44500Y73000D02*
X57327Y85827D01*
X44500Y35500D02*
Y73000D01*
X35000Y25000D02*
X40000Y20000D01*
Y30000D02*
X50000Y20000D01*
X44500Y35500D02*
X60000Y20000D01*
X50000Y40000D02*
X70000Y20000D01*
X50000Y40000D02*
Y73000D01*
X59677Y82677D01*
X77559D01*
X55000Y45000D02*
X80000Y20000D01*
X55000Y45000D02*
Y72000D01*
X62528Y79528D01*
X77559D01*
X60000Y50000D02*
X90000Y20000D01*
X60000Y50000D02*
Y70500D01*
X65878Y76378D01*
X77559D01*
X64500Y55500D02*
X100000Y20000D01*
X64500Y55500D02*
Y69500D01*
X68228Y73228D01*
X77559D01*
X70000Y60000D02*
X110000Y20000D01*
X70000Y60000D02*
Y68000D01*
X72079Y70079D01*
X77559D01*
Y62441D02*
X120000Y20000D01*
X77559Y62441D02*
Y66929D01*
X20000Y100000D02*
X27874Y107874D01*
X20000Y120000D02*
X46000D01*
X20000Y80000D02*
X41575Y101575D01*
X77559D01*
X20000Y90000D02*
X34724Y104724D01*
X77559D01*
X27874Y107874D02*
X77559D01*
X20000Y110000D02*
X21024Y111024D01*
X77559D01*
X46000Y120000D02*
X51827Y114173D01*
X77559D01*
X20000Y130000D02*
X42500D01*
X55177Y117323D01*
X77559D01*
X20000Y140000D02*
X39500D01*
X59028Y120472D01*
X77559D01*
X20000Y150000D02*
X36500D01*
X62878Y123622D01*
X77559D01*
X66728Y126772D02*
X77559D01*
X33500Y160000D02*
X66728Y126772D01*
X20000Y160000D02*
X33500D01*
X20000Y180000D02*
X25500D01*
X72429Y133071D01*
X77559D01*
X69579Y129921D02*
X77559D01*
X29500Y170000D02*
X69579Y129921D01*
X20000Y170000D02*
X29500D01*
D12*
X80000Y180000D02*
D03*
X90000D02*
D03*
X100000D02*
D03*
X110000D02*
D03*
X120000D02*
D03*
X130000D02*
D03*
X140000D02*
D03*
X150000D02*
D03*
X160000D02*
D03*
X170000D02*
D03*
X120000Y20000D02*
D03*
X110000D02*
D03*
X100000D02*
D03*
X90000D02*
D03*
X80000D02*
D03*
X70000D02*
D03*
X60000D02*
D03*
X50000D02*
D03*
X40000D02*
D03*
X30000D02*
D03*
X20000Y80000D02*
D03*
Y90000D02*
D03*
Y100000D02*
D03*
Y110000D02*
D03*
Y120000D02*
D03*
Y130000D02*
D03*
Y140000D02*
D03*
Y150000D02*
D03*
Y160000D02*
D03*
Y170000D02*
D03*
X180000Y120000D02*
D03*
Y110000D02*
D03*
Y100000D02*
D03*
Y90000D02*
D03*
Y80000D02*
D03*
Y70000D02*
D03*
Y60000D02*
D03*
Y50000D02*
D03*
Y40000D02*
D03*
Y30000D02*
D03*
D13*
Y180000D02*
D03*
X20000Y20000D02*
D03*
D14*
Y180000D02*
D03*
X180000Y20000D02*
D03*
M02*
