M48
;Layer_Color=9474304
;FILE_FORMAT=2:5
INCH,LZ
;TYPE=PLATED
T1F00S00C0.02800
T2F00S00C0.04331
%
T01
X02348Y0074
X02448
X03775Y0145
Y0155
X031Y0266
Y0275
Y0284
Y0293
Y0302
Y0311
X0301Y03215
X02973Y02789
X0225Y028
X0215
Y029
X02155Y0245
X0226Y02484
X0195Y0245
X0185
X02Y0238
X0205Y0225
X02135
Y0215
X0205
X0195
Y0225
Y0195
X0205
X02135
Y0205
X01988Y01852
X012Y0315
X011Y0325
Y0335
X01108Y03431
X01175Y035
X01312
X01245Y03431
X012Y0335
Y0325
X01902Y03398
X0215Y03251
X0225Y0335
T02
X0049916Y0155
Y0165
X006
Y0155
X01425
X01525
Y0165
X01425
Y0145
X01525
Y0135
X01425
X01625
X01725
Y0145
X01625
X01625Y0155
X01725
Y0165
X01625
X016Y006
X017
Y005
X018
X019
Y006
X02
Y005
X021
X022
X023
Y006
X024
Y005
X025
X026
Y006
X025
X022
X021
X018
X016Y005
X015
Y006
X027
X028
X029
Y005
X03
Y006
X031
X032
X033
X034
Y0049916
X033
X032
X031
X028Y005
X027
X03275Y0135
X03375
Y0145
X03275
X03275Y0155
X03375
Y0165
X03275
X03475
X03575
Y0155
Y0145
X03475
X03475Y0135
X03575
X03475Y0155
X0439917
Y0165
X045
Y0155
Y0175
Y0185
Y0195
Y0205
X044
Y0195
X0439917Y0185
Y0175
X044Y0215
X045
Y0225
Y0235
X044
Y0245
Y0255
Y0265
X045
Y0255
Y0245
X044Y0225
Y0275
X045
Y0285
Y0295
Y0305
X044
Y0295
Y0285
Y0315
X045
X03575
Y0305
Y0295
X03475
X03375
Y0285
Y0275
X03275
Y0285
Y0295
Y0305
Y0315
X03375
Y0305
X03475
Y0315
Y0285
X03575
Y0275
Y0265
Y0255
X03475
X03375
Y0245
X03275
Y0235
Y0225
Y0215
X03375
Y0225
Y0235
X03475
X03575
Y0245
X03475
Y0265
X03375
X03275
Y0255
X03475Y0275
Y0225
X03575
Y0215
Y0205
X03475
X03375
X03275
X03275Y0195
X03375
Y0185
X03275
X03275Y0175
X03375
X03475
X03575
Y0185
X03475
X03475Y0195
X03575
X03475Y0215
X01725
Y0205
X01625
X01525
X01425
X01425Y0215
X01525
Y0225
X01425
Y0235
Y0245
X01525
Y0235
X01625
X01725
Y0245
X01625
Y0255
X01525
Y0265
Y0275
X01425
Y0285
X01525
Y0295
Y0305
Y0315
X01425
Y0305
Y0295
X01625
X01725
Y0305
X01625
Y0315
X01725
Y0285
X01625
Y0275
Y0265
X01725
Y0275
Y0255
X01425
Y0265
X01625Y0225
X01725
X01625Y0215
Y0195
X01525
Y0185
X01425
X01425Y0175
X01525
X01625
X01725
Y0185
X01625
X01725Y0195
X01425
X006
Y0205
X005
Y0195
X0049916Y0185
Y0175
X006
Y0185
Y0215
X005
Y0225
Y0235
X006
Y0245
Y0255
Y0265
X005
Y0255
Y0245
X006Y0225
Y0275
X005
Y0285
Y0295
Y0305
X006
Y0295
Y0285
Y0315
X005
Y0325
X006
Y0335
X005
Y0345
X006
X01425
Y0335
X01525
Y0345
Y0355
Y0365
X01425
Y0355
X01625
X01725
Y0365
X01625
Y0345
X01725
Y0335
Y0325
X01625
X01525
X01425
X01625Y0335
X016Y044
X017
Y045
X018
X019
Y044
X02
Y045
X021
X022
X023
Y044
X024
Y045
X025
X026
Y044
X025
X022
X021
X018
X016Y045
X015
Y044
X027
X028
X029
Y045
X03
Y044
X031Y0439917
X032
X033
X034
Y045
X033
X032
X031
X028
X027
X03275Y0365
X03375
Y0355
Y0345
Y0335
X03275
Y0345
Y0355
X03475
X03575
Y0365
X03475
Y0345
X03575
Y0335
Y0325
X03475
X03375
X03275
X03475Y0335
X044
Y0325
X045
Y0335
Y0345
X044
M30
