%FSLAX25Y25*%
%MOIN*%
G70*
G01*
G75*
G04 Layer_Color=65535*
%ADD10C,0.00800*%
%ADD11C,0.07000*%
%ADD12C,0.05000*%
%ADD13C,0.01000*%
D13*
X336502Y410000D02*
X342500D01*
Y412999D01*
X341500Y413999D01*
X340501D01*
X339501Y412999D01*
Y410000D01*
Y412999D01*
X338501Y413999D01*
X337502D01*
X336502Y412999D01*
Y410000D01*
X342500Y419997D02*
Y415998D01*
X338501Y419997D01*
X337502D01*
X336502Y418997D01*
Y416998D01*
X337502Y415998D01*
X176502Y413999D02*
Y410000D01*
X179501D01*
Y411999D01*
Y410000D01*
X182500D01*
Y415998D02*
Y417997D01*
Y416998D01*
X176502D01*
X177502Y415998D01*
X176502Y420996D02*
Y424995D01*
X177502D01*
X181500Y420996D01*
X182500D01*
X276502Y410000D02*
X282500D01*
Y412999D01*
X281500Y413999D01*
X280501D01*
X279501Y412999D01*
Y410000D01*
Y412999D01*
X278501Y413999D01*
X277502D01*
X276502Y412999D01*
Y410000D01*
X281500Y415998D02*
X282500Y416998D01*
Y418997D01*
X281500Y419997D01*
X277502D01*
X276502Y418997D01*
Y416998D01*
X277502Y415998D01*
X278501D01*
X279501Y416998D01*
Y419997D01*
X316502Y410100D02*
X322500D01*
Y413099D01*
X321500Y414099D01*
X317502D01*
X316502Y413099D01*
Y410100D01*
Y420097D02*
X317502Y418097D01*
X319501Y416098D01*
X321500D01*
X322500Y417098D01*
Y419097D01*
X321500Y420097D01*
X320501D01*
X319501Y419097D01*
Y416098D01*
X307502Y414099D02*
X306502Y413099D01*
Y411100D01*
X307502Y410100D01*
X311500D01*
X312500Y411100D01*
Y413099D01*
X311500Y414099D01*
X306502Y416098D02*
Y420097D01*
X307502D01*
X311500Y416098D01*
X312500D01*
X296502Y410000D02*
X302500D01*
Y412999D01*
X301500Y413999D01*
X300501D01*
X299501Y412999D01*
Y410000D01*
Y412999D01*
X298501Y413999D01*
X297502D01*
X296502Y412999D01*
Y410000D01*
X297502Y415998D02*
X296502Y416998D01*
Y418997D01*
X297502Y419997D01*
X298501D01*
X299501Y418997D01*
X300501Y419997D01*
X301500D01*
X302500Y418997D01*
Y416998D01*
X301500Y415998D01*
X300501D01*
X299501Y416998D01*
X298501Y415998D01*
X297502D01*
X299501Y416998D02*
Y418997D01*
X286502Y413999D02*
Y410000D01*
X292500D01*
Y413999D01*
X289501Y410000D02*
Y411999D01*
X286502Y415998D02*
Y419997D01*
X287502D01*
X291500Y415998D01*
X292500D01*
X326502Y410000D02*
X332500D01*
Y412999D01*
X331500Y413999D01*
X330501D01*
X329501Y412999D01*
Y410000D01*
Y412999D01*
X328501Y413999D01*
X327502D01*
X326502Y412999D01*
Y410000D01*
X332500Y418997D02*
X326502D01*
X329501Y415998D01*
Y419997D01*
X267502Y413999D02*
X266502Y412999D01*
Y411000D01*
X267502Y410000D01*
X271500D01*
X272500Y411000D01*
Y412999D01*
X271500Y413999D01*
X269501D01*
Y411999D01*
X271500Y415998D02*
X272500Y416998D01*
Y418997D01*
X271500Y419997D01*
X267502D01*
X266502Y418997D01*
Y416998D01*
X267502Y415998D01*
X268501D01*
X269501Y416998D01*
Y419997D01*
X226502Y413999D02*
Y410000D01*
X229501D01*
Y411999D01*
Y410000D01*
X232500D01*
Y415998D02*
Y417997D01*
Y416998D01*
X226502D01*
X227502Y415998D01*
X232500Y424995D02*
Y420996D01*
X228501Y424995D01*
X227502D01*
X226502Y423995D01*
Y421996D01*
X227502Y420996D01*
X236502Y410000D02*
X242500D01*
Y412999D01*
X241500Y413999D01*
X240501D01*
X239501Y412999D01*
Y410000D01*
Y412999D01*
X238501Y413999D01*
X237502D01*
X236502Y412999D01*
Y410000D01*
X242500Y415998D02*
Y417997D01*
Y416998D01*
X236502D01*
X237502Y415998D01*
X242500Y424995D02*
Y420996D01*
X238501Y424995D01*
X237502D01*
X236502Y423995D01*
Y421996D01*
X237502Y420996D01*
X246502Y410100D02*
X252500D01*
Y413099D01*
X251500Y414099D01*
X247502D01*
X246502Y413099D01*
Y410100D01*
X252500Y416098D02*
Y418097D01*
Y417098D01*
X246502D01*
X247502Y416098D01*
X252500Y421096D02*
Y423096D01*
Y422096D01*
X246502D01*
X247502Y421096D01*
X256502Y410100D02*
X262500D01*
Y413099D01*
X261500Y414099D01*
X260501D01*
X259501Y413099D01*
Y410100D01*
Y413099D01*
X258501Y414099D01*
X257502D01*
X256502Y413099D01*
Y410100D01*
X262500Y416098D02*
Y418097D01*
Y417098D01*
X256502D01*
X257502Y416098D01*
X262500Y421096D02*
Y423096D01*
Y422096D01*
X256502D01*
X257502Y421096D01*
X186502Y410000D02*
X192500D01*
Y412999D01*
X191500Y413999D01*
X187502D01*
X186502Y412999D01*
Y410000D01*
X192500Y415998D02*
Y417997D01*
Y416998D01*
X186502D01*
X187502Y415998D01*
X186502Y420996D02*
Y424995D01*
X187502D01*
X191500Y420996D01*
X192500D01*
X196502Y410000D02*
X202500D01*
Y412999D01*
X201500Y413999D01*
X200501D01*
X199501Y412999D01*
Y410000D01*
Y412999D01*
X198501Y413999D01*
X197502D01*
X196502Y412999D01*
Y410000D01*
X202500Y415998D02*
Y417997D01*
Y416998D01*
X196502D01*
X197502Y415998D01*
X196502Y424995D02*
X197502Y422996D01*
X199501Y420996D01*
X201500D01*
X202500Y421996D01*
Y423995D01*
X201500Y424995D01*
X200501D01*
X199501Y423995D01*
Y420996D01*
X206602Y410000D02*
X212600D01*
Y412999D01*
X211600Y413999D01*
X207602D01*
X206602Y412999D01*
Y410000D01*
X212600Y415998D02*
Y417997D01*
Y416998D01*
X206602D01*
X207602Y415998D01*
X212600Y423995D02*
X206602D01*
X209601Y420996D01*
Y424995D01*
X216502Y413999D02*
Y410000D01*
X219501D01*
Y411999D01*
Y410000D01*
X222500D01*
Y415998D02*
Y417997D01*
Y416998D01*
X216502D01*
X217502Y415998D01*
Y420996D02*
X216502Y421996D01*
Y423995D01*
X217502Y424995D01*
X218501D01*
X219501Y423995D01*
Y422996D01*
Y423995D01*
X220501Y424995D01*
X221500D01*
X222500Y423995D01*
Y421996D01*
X221500Y420996D01*
X167502Y413999D02*
X166502Y412999D01*
Y411000D01*
X167502Y410000D01*
X171500D01*
X172500Y411000D01*
Y412999D01*
X171500Y413999D01*
X169501D01*
Y411999D01*
X172500Y415998D02*
Y417997D01*
Y416998D01*
X166502D01*
X167502Y415998D01*
X166502Y424995D02*
X167502Y422996D01*
X169501Y420996D01*
X171500D01*
X172500Y421996D01*
Y423995D01*
X171500Y424995D01*
X170501D01*
X169501Y423995D01*
Y420996D01*
X156502Y410000D02*
X162500D01*
X159501D01*
Y413999D01*
X156502D01*
X162500D01*
Y415998D02*
Y417997D01*
Y416998D01*
X156502D01*
X157502Y415998D01*
Y420996D02*
X156502Y421996D01*
Y423995D01*
X157502Y424995D01*
X158501D01*
X159501Y423995D01*
Y422996D01*
Y423995D01*
X160501Y424995D01*
X161500D01*
X162500Y423995D01*
Y421996D01*
X161500Y420996D01*
X146502Y413999D02*
Y411999D01*
Y412999D01*
X151500D01*
X152500Y411999D01*
Y411000D01*
X151500Y410000D01*
X152500Y415998D02*
Y417997D01*
Y416998D01*
X146502D01*
X147502Y415998D01*
Y420996D02*
X146502Y421996D01*
Y423995D01*
X147502Y424995D01*
X148501D01*
X149501Y423995D01*
Y422996D01*
Y423995D01*
X150501Y424995D01*
X151500D01*
X152500Y423995D01*
Y421996D01*
X151500Y420996D01*
X152500Y465000D02*
X148501D01*
X146502Y466999D01*
X148501Y468999D01*
X152500D01*
X149501D01*
Y465000D01*
X152500Y470998D02*
Y472997D01*
Y471998D01*
X146502D01*
X147502Y470998D01*
X152500Y479995D02*
Y475996D01*
X148501Y479995D01*
X147502D01*
X146502Y478996D01*
Y476996D01*
X147502Y475996D01*
X156502Y468999D02*
Y465000D01*
X162500D01*
Y468999D01*
X159501Y465000D02*
Y466999D01*
X162500Y470998D02*
Y472997D01*
Y471998D01*
X156502D01*
X157502Y470998D01*
X162500Y479995D02*
Y475996D01*
X158501Y479995D01*
X157502D01*
X156502Y478996D01*
Y476996D01*
X157502Y475996D01*
X166502Y468999D02*
Y465000D01*
X172500D01*
Y468999D01*
X169501Y465000D02*
Y466999D01*
X172500Y470998D02*
Y472997D01*
Y471998D01*
X166502D01*
X167502Y470998D01*
Y475996D02*
X166502Y476996D01*
Y478996D01*
X167502Y479995D01*
X168501D01*
X169501Y478996D01*
Y477996D01*
Y478996D01*
X170501Y479995D01*
X171500D01*
X172500Y478996D01*
Y476996D01*
X171500Y475996D01*
X217502Y468999D02*
X216502Y467999D01*
Y466000D01*
X217502Y465000D01*
X221500D01*
X222500Y466000D01*
Y467999D01*
X221500Y468999D01*
X219501D01*
Y466999D01*
X222500Y470998D02*
Y472997D01*
Y471998D01*
X216502D01*
X217502Y470998D01*
Y475996D02*
X216502Y476996D01*
Y478996D01*
X217502Y479995D01*
X218501D01*
X219501Y478996D01*
X220501Y479995D01*
X221500D01*
X222500Y478996D01*
Y476996D01*
X221500Y475996D01*
X220501D01*
X219501Y476996D01*
X218501Y475996D01*
X217502D01*
X219501Y476996D02*
Y478996D01*
X206602Y468999D02*
Y465000D01*
X209601D01*
Y466999D01*
Y465000D01*
X212600D01*
Y470998D02*
Y472997D01*
Y471998D01*
X206602D01*
X207602Y470998D01*
Y475996D02*
X206602Y476996D01*
Y478996D01*
X207602Y479995D01*
X208601D01*
X209601Y478996D01*
X210601Y479995D01*
X211600D01*
X212600Y478996D01*
Y476996D01*
X211600Y475996D01*
X210601D01*
X209601Y476996D01*
X208601Y475996D01*
X207602D01*
X209601Y476996D02*
Y478996D01*
X196502Y465000D02*
X202500D01*
Y467999D01*
X201500Y468999D01*
X197502D01*
X196502Y467999D01*
Y465000D01*
X202500Y470998D02*
Y472997D01*
Y471998D01*
X196502D01*
X197502Y470998D01*
Y475996D02*
X196502Y476996D01*
Y478996D01*
X197502Y479995D01*
X198501D01*
X199501Y478996D01*
X200501Y479995D01*
X201500D01*
X202500Y478996D01*
Y476996D01*
X201500Y475996D01*
X200501D01*
X199501Y476996D01*
X198501Y475996D01*
X197502D01*
X199501Y476996D02*
Y478996D01*
X192500Y465000D02*
X188501D01*
X186502Y466999D01*
X188501Y468999D01*
X192500D01*
X189501D01*
Y465000D01*
X192500Y470998D02*
Y472997D01*
Y471998D01*
X186502D01*
X187502Y470998D01*
X186502Y479995D02*
X187502Y477996D01*
X189501Y475996D01*
X191500D01*
X192500Y476996D01*
Y478996D01*
X191500Y479995D01*
X190501D01*
X189501Y478996D01*
Y475996D01*
X262500Y465100D02*
X258501D01*
X256502Y467099D01*
X258501Y469099D01*
X262500D01*
X259501D01*
Y465100D01*
X262500Y474097D02*
X256502D01*
X259501Y471098D01*
Y475097D01*
X252500Y465100D02*
X248501D01*
X246502Y467099D01*
X248501Y469099D01*
X252500D01*
X249501D01*
Y465100D01*
X252500Y475097D02*
Y471098D01*
X248501Y475097D01*
X247502D01*
X246502Y474097D01*
Y472098D01*
X247502Y471098D01*
X236502Y465000D02*
X242500D01*
X240501D01*
X236502Y468999D01*
X239501Y466000D01*
X242500Y468999D01*
Y470998D02*
Y472997D01*
Y471998D01*
X236502D01*
X237502Y470998D01*
X242500Y478996D02*
X236502D01*
X239501Y475996D01*
Y479995D01*
X226502Y465000D02*
X232500D01*
X229501D01*
Y468999D01*
X226502D01*
X232500D01*
Y470998D02*
Y472997D01*
Y471998D01*
X226502D01*
X227502Y470998D01*
X232500Y478996D02*
X226502D01*
X229501Y475996D01*
Y479995D01*
X267502Y468999D02*
X266502Y467999D01*
Y466000D01*
X267502Y465000D01*
X271500D01*
X272500Y466000D01*
Y467999D01*
X271500Y468999D01*
X266502Y474997D02*
X267502Y472997D01*
X269501Y470998D01*
X271500D01*
X272500Y471998D01*
Y473997D01*
X271500Y474997D01*
X270501D01*
X269501Y473997D01*
Y470998D01*
X332500Y465000D02*
X328501D01*
X326502Y466999D01*
X328501Y468999D01*
X332500D01*
X329501D01*
Y465000D01*
X332500Y470998D02*
Y472997D01*
Y471998D01*
X326502D01*
X327502Y470998D01*
X332500Y475996D02*
Y477996D01*
Y476996D01*
X326502D01*
X327502Y475996D01*
X292500Y465000D02*
X288501D01*
X286502Y466999D01*
X288501Y468999D01*
X292500D01*
X289501D01*
Y465000D01*
X287502Y470998D02*
X286502Y471998D01*
Y473997D01*
X287502Y474997D01*
X288501D01*
X289501Y473997D01*
X290501Y474997D01*
X291500D01*
X292500Y473997D01*
Y471998D01*
X291500Y470998D01*
X290501D01*
X289501Y471998D01*
X288501Y470998D01*
X287502D01*
X289501Y471998D02*
Y473997D01*
X296502Y468999D02*
Y465000D01*
X302500D01*
Y468999D01*
X299501Y465000D02*
Y466999D01*
X297502Y470998D02*
X296502Y471998D01*
Y473997D01*
X297502Y474997D01*
X298501D01*
X299501Y473997D01*
X300501Y474997D01*
X301500D01*
X302500Y473997D01*
Y471998D01*
X301500Y470998D01*
X300501D01*
X299501Y471998D01*
X298501Y470998D01*
X297502D01*
X299501Y471998D02*
Y473997D01*
X312500Y465100D02*
X308501D01*
X306502Y467099D01*
X308501Y469099D01*
X312500D01*
X309501D01*
Y465100D01*
X311500Y471098D02*
X312500Y472098D01*
Y474097D01*
X311500Y475097D01*
X307502D01*
X306502Y474097D01*
Y472098D01*
X307502Y471098D01*
X308501D01*
X309501Y472098D01*
Y475097D01*
X316502Y469099D02*
Y465100D01*
X319501D01*
Y467099D01*
Y465100D01*
X322500D01*
X321500Y471098D02*
X322500Y472098D01*
Y474097D01*
X321500Y475097D01*
X317502D01*
X316502Y474097D01*
Y472098D01*
X317502Y471098D01*
X318501D01*
X319501Y472098D01*
Y475097D01*
X282500Y465000D02*
X278501D01*
X276502Y466999D01*
X278501Y468999D01*
X282500D01*
X279501D01*
Y465000D01*
X276502Y470998D02*
Y474997D01*
X277502D01*
X281500Y470998D01*
X282500D01*
X177502Y468999D02*
X176502Y467999D01*
Y466000D01*
X177502Y465000D01*
X181500D01*
X182500Y466000D01*
Y467999D01*
X181500Y468999D01*
X182500Y470998D02*
Y472997D01*
Y471998D01*
X176502D01*
X177502Y470998D01*
X182500Y478996D02*
X176502D01*
X179501Y475996D01*
Y479995D01*
X337502Y468999D02*
X336502Y467999D01*
Y466000D01*
X337502Y465000D01*
X341500D01*
X342500Y466000D01*
Y467999D01*
X341500Y468999D01*
X342500Y470998D02*
Y472997D01*
Y471998D01*
X336502D01*
X337502Y470998D01*
X342500Y475996D02*
Y477996D01*
Y476996D01*
X336502D01*
X337502Y475996D01*
Y23999D02*
X336502Y22999D01*
Y21000D01*
X337502Y20000D01*
X341500D01*
X342500Y21000D01*
Y22999D01*
X341500Y23999D01*
X339501D01*
Y21999D01*
X342500Y25998D02*
X336502D01*
X342500Y29997D01*
X336502D01*
Y31996D02*
X342500D01*
Y34995D01*
X341500Y35995D01*
X337502D01*
X336502Y34995D01*
Y31996D01*
X176502Y20000D02*
Y23999D01*
Y21999D01*
X182500D01*
Y25998D02*
Y27997D01*
Y26998D01*
X176502D01*
X177502Y25998D01*
X182500Y30996D02*
Y32996D01*
Y31996D01*
X176502D01*
X177502Y30996D01*
X282500Y20000D02*
X276502D01*
Y22999D01*
X277502Y23999D01*
X279501D01*
X280501Y22999D01*
Y20000D01*
X276502Y29997D02*
X277502Y27997D01*
X279501Y25998D01*
X281500D01*
X282500Y26998D01*
Y28997D01*
X281500Y29997D01*
X280501D01*
X279501Y28997D01*
Y25998D01*
X317502Y24099D02*
X316502Y23099D01*
Y21100D01*
X317502Y20100D01*
X321500D01*
X322500Y21100D01*
Y23099D01*
X321500Y24099D01*
X319501D01*
Y22099D01*
X322500Y26098D02*
X316502D01*
X322500Y30097D01*
X316502D01*
Y32096D02*
X322500D01*
Y35095D01*
X321500Y36095D01*
X317502D01*
X316502Y35095D01*
Y32096D01*
X307502Y24099D02*
X306502Y23099D01*
Y21100D01*
X307502Y20100D01*
X311500D01*
X312500Y21100D01*
Y23099D01*
X311500Y24099D01*
X309501D01*
Y22099D01*
X312500Y26098D02*
X306502D01*
X312500Y30097D01*
X306502D01*
Y32096D02*
X312500D01*
Y35095D01*
X311500Y36095D01*
X307502D01*
X306502Y35095D01*
Y32096D01*
X296502Y20000D02*
Y23999D01*
Y21999D01*
X302500D01*
X297502Y25998D02*
X296502Y26998D01*
Y28997D01*
X297502Y29997D01*
X298501D01*
X299501Y28997D01*
Y27997D01*
Y28997D01*
X300501Y29997D01*
X301500D01*
X302500Y28997D01*
Y26998D01*
X301500Y25998D01*
X286502Y20000D02*
Y23999D01*
Y21999D01*
X292500D01*
X286502Y29997D02*
Y25998D01*
X289501D01*
X288501Y27997D01*
Y28997D01*
X289501Y29997D01*
X291500D01*
X292500Y28997D01*
Y26998D01*
X291500Y25998D01*
X327502Y23999D02*
X326502Y22999D01*
Y21000D01*
X327502Y20000D01*
X331500D01*
X332500Y21000D01*
Y22999D01*
X331500Y23999D01*
X329501D01*
Y21999D01*
X332500Y25998D02*
X326502D01*
X332500Y29997D01*
X326502D01*
Y31996D02*
X332500D01*
Y34995D01*
X331500Y35995D01*
X327502D01*
X326502Y34995D01*
Y31996D01*
X266502Y20000D02*
Y23999D01*
Y21999D01*
X272500D01*
X266502Y25998D02*
Y29997D01*
X267502D01*
X271500Y25998D01*
X272500D01*
X226502Y20000D02*
X232500D01*
X230501D01*
X226502Y23999D01*
X229501Y21000D01*
X232500Y23999D01*
Y25998D02*
Y27997D01*
Y26998D01*
X226502D01*
X227502Y25998D01*
X226502Y34995D02*
X227502Y32996D01*
X229501Y30996D01*
X231500D01*
X232500Y31996D01*
Y33996D01*
X231500Y34995D01*
X230501D01*
X229501Y33996D01*
Y30996D01*
X236502Y20000D02*
X242500D01*
Y23999D01*
Y25998D02*
Y27997D01*
Y26998D01*
X236502D01*
X237502Y25998D01*
Y30996D02*
X236502Y31996D01*
Y33996D01*
X237502Y34995D01*
X238501D01*
X239501Y33996D01*
Y32996D01*
Y33996D01*
X240501Y34995D01*
X241500D01*
X242500Y33996D01*
Y31996D01*
X241500Y30996D01*
X252500Y20100D02*
X246502D01*
Y23099D01*
X247502Y24099D01*
X249501D01*
X250501Y23099D01*
Y20100D01*
X247502Y26098D02*
X246502Y27098D01*
Y29097D01*
X247502Y30097D01*
X248501D01*
X249501Y29097D01*
X250501Y30097D01*
X251500D01*
X252500Y29097D01*
Y27098D01*
X251500Y26098D01*
X250501D01*
X249501Y27098D01*
X248501Y26098D01*
X247502D01*
X249501Y27098D02*
Y29097D01*
X256502Y20100D02*
X260501D01*
X262500Y22099D01*
X260501Y24099D01*
X256502D01*
Y26098D02*
Y30097D01*
X257502D01*
X261500Y26098D01*
X262500D01*
X186502Y20000D02*
X190501D01*
X192500Y21999D01*
X190501Y23999D01*
X186502D01*
X192500Y25998D02*
Y27997D01*
Y26998D01*
X186502D01*
X187502Y25998D01*
X192500Y34995D02*
Y30996D01*
X188501Y34995D01*
X187502D01*
X186502Y33996D01*
Y31996D01*
X187502Y30996D01*
X196502Y20000D02*
X200501D01*
X202500Y21999D01*
X200501Y23999D01*
X196502D01*
X202500Y25998D02*
Y27997D01*
Y26998D01*
X196502D01*
X197502Y25998D01*
X202500Y33996D02*
X196502D01*
X199501Y30996D01*
Y34995D01*
X206602Y20000D02*
X210601D01*
X212600Y21999D01*
X210601Y23999D01*
X206602D01*
X212600Y25998D02*
Y27997D01*
Y26998D01*
X206602D01*
X207602Y25998D01*
X206602Y34995D02*
X207602Y32996D01*
X209601Y30996D01*
X211600D01*
X212600Y31996D01*
Y33996D01*
X211600Y34995D01*
X210601D01*
X209601Y33996D01*
Y30996D01*
X216502Y20000D02*
Y23999D01*
Y21999D01*
X222500D01*
Y25998D02*
Y27997D01*
Y26998D01*
X216502D01*
X217502Y25998D01*
Y30996D02*
X216502Y31996D01*
Y33996D01*
X217502Y34995D01*
X218501D01*
X219501Y33996D01*
X220501Y34995D01*
X221500D01*
X222500Y33996D01*
Y31996D01*
X221500Y30996D01*
X220501D01*
X219501Y31996D01*
X218501Y30996D01*
X217502D01*
X219501Y31996D02*
Y33996D01*
X172500Y20000D02*
X166502D01*
Y22999D01*
X167502Y23999D01*
X169501D01*
X170501Y22999D01*
Y20000D01*
X172500Y25998D02*
Y27997D01*
Y26998D01*
X166502D01*
X167502Y25998D01*
X172500Y30996D02*
Y32996D01*
Y31996D01*
X166502D01*
X167502Y30996D01*
X156502Y20000D02*
Y23999D01*
Y21999D01*
X162500D01*
Y25998D02*
Y27997D01*
Y26998D01*
X156502D01*
X157502Y25998D01*
Y30996D02*
X156502Y31996D01*
Y33996D01*
X157502Y34995D01*
X161500D01*
X162500Y33996D01*
Y31996D01*
X161500Y30996D01*
X157502D01*
X146502Y20000D02*
X150501D01*
X152500Y21999D01*
X150501Y23999D01*
X146502D01*
X151500Y25998D02*
X152500Y26998D01*
Y28997D01*
X151500Y29997D01*
X147502D01*
X146502Y28997D01*
Y26998D01*
X147502Y25998D01*
X148501D01*
X149501Y26998D01*
Y29997D01*
X146502Y75000D02*
X152500D01*
Y78999D01*
Y80998D02*
Y82997D01*
Y81998D01*
X146502D01*
X147502Y80998D01*
X152500Y89995D02*
Y85996D01*
X148501Y89995D01*
X147502D01*
X146502Y88995D01*
Y86996D01*
X147502Y85996D01*
X156502Y75000D02*
X162500D01*
X160501D01*
X156502Y78999D01*
X159501Y76000D01*
X162500Y78999D01*
Y80998D02*
Y82997D01*
Y81998D01*
X156502D01*
X157502Y80998D01*
X156502Y89995D02*
Y85996D01*
X159501D01*
X158501Y87996D01*
Y88995D01*
X159501Y89995D01*
X161500D01*
X162500Y88995D01*
Y86996D01*
X161500Y85996D01*
X166502Y75000D02*
Y78999D01*
Y76999D01*
X172500D01*
Y80998D02*
Y82997D01*
Y81998D01*
X166502D01*
X167502Y80998D01*
X166502Y85996D02*
Y89995D01*
X167502D01*
X171500Y85996D01*
X172500D01*
X222500Y75000D02*
X216502D01*
X222500Y78999D01*
X216502D01*
X222500Y80998D02*
Y82997D01*
Y81998D01*
X216502D01*
X217502Y80998D01*
Y85996D02*
X216502Y86996D01*
Y88995D01*
X217502Y89995D01*
X221500D01*
X222500Y88995D01*
Y86996D01*
X221500Y85996D01*
X217502D01*
X212600Y75000D02*
X206602D01*
Y77999D01*
X207602Y78999D01*
X209601D01*
X210601Y77999D01*
Y75000D01*
Y76999D02*
X212600Y78999D01*
Y80998D02*
Y82997D01*
Y81998D01*
X206602D01*
X207602Y80998D01*
X212600Y85996D02*
Y87996D01*
Y86996D01*
X206602D01*
X207602Y85996D01*
X196502Y75000D02*
Y78999D01*
Y76999D01*
X202500D01*
Y80998D02*
Y82997D01*
Y81998D01*
X196502D01*
X197502Y80998D01*
X202500Y89995D02*
Y85996D01*
X198501Y89995D01*
X197502D01*
X196502Y88995D01*
Y86996D01*
X197502Y85996D01*
X186502Y75000D02*
Y78999D01*
Y76999D01*
X192500D01*
Y80998D02*
Y82997D01*
Y81998D01*
X186502D01*
X187502Y80998D01*
X192500Y88995D02*
X186502D01*
X189501Y85996D01*
Y89995D01*
X256502Y75100D02*
X261500D01*
X262500Y76100D01*
Y78099D01*
X261500Y79099D01*
X256502D01*
Y81098D02*
Y85097D01*
X257502D01*
X261500Y81098D01*
X262500D01*
X252500Y75100D02*
X246502D01*
X252500Y79099D01*
X246502D01*
Y81098D02*
Y85097D01*
X247502D01*
X251500Y81098D01*
X252500D01*
X236502Y75000D02*
Y78999D01*
Y76999D01*
X242500D01*
X241500Y80998D02*
X242500Y81998D01*
Y83997D01*
X241500Y84997D01*
X237502D01*
X236502Y83997D01*
Y81998D01*
X237502Y80998D01*
X238501D01*
X239501Y81998D01*
Y84997D01*
X232500Y75000D02*
X226502D01*
Y77999D01*
X227502Y78999D01*
X229501D01*
X230501Y77999D01*
Y75000D01*
Y76999D02*
X232500Y78999D01*
Y80998D02*
Y82997D01*
Y81998D01*
X226502D01*
X227502Y80998D01*
Y85996D02*
X226502Y86996D01*
Y88995D01*
X227502Y89995D01*
X231500D01*
X232500Y88995D01*
Y86996D01*
X231500Y85996D01*
X227502D01*
X272500Y75000D02*
X266502D01*
Y77999D01*
X267502Y78999D01*
X269501D01*
X270501Y77999D01*
Y75000D01*
Y76999D02*
X272500Y78999D01*
X266502Y80998D02*
Y84997D01*
X267502D01*
X271500Y80998D01*
X272500D01*
X327502Y78999D02*
X326502Y77999D01*
Y76000D01*
X327502Y75000D01*
X331500D01*
X332500Y76000D01*
Y77999D01*
X331500Y78999D01*
X329501D01*
Y76999D01*
X332500Y80998D02*
X326502D01*
X332500Y84997D01*
X326502D01*
Y86996D02*
X332500D01*
Y89995D01*
X331500Y90995D01*
X327502D01*
X326502Y89995D01*
Y86996D01*
X292500Y75000D02*
X286502D01*
Y77999D01*
X287502Y78999D01*
X289501D01*
X290501Y77999D01*
Y75000D01*
Y76999D02*
X292500Y78999D01*
X286502Y84997D02*
Y80998D01*
X289501D01*
X288501Y82997D01*
Y83997D01*
X289501Y84997D01*
X291500D01*
X292500Y83997D01*
Y81998D01*
X291500Y80998D01*
X302500Y75000D02*
X296502D01*
Y77999D01*
X297502Y78999D01*
X299501D01*
X300501Y77999D01*
Y75000D01*
Y76999D02*
X302500Y78999D01*
X297502Y80998D02*
X296502Y81998D01*
Y83997D01*
X297502Y84997D01*
X298501D01*
X299501Y83997D01*
Y82997D01*
Y83997D01*
X300501Y84997D01*
X301500D01*
X302500Y83997D01*
Y81998D01*
X301500Y80998D01*
X307502Y79099D02*
X306502Y78099D01*
Y76100D01*
X307502Y75100D01*
X311500D01*
X312500Y76100D01*
Y78099D01*
X311500Y79099D01*
X309501D01*
Y77099D01*
X312500Y81098D02*
X306502D01*
X312500Y85097D01*
X306502D01*
Y87096D02*
X312500D01*
Y90095D01*
X311500Y91095D01*
X307502D01*
X306502Y90095D01*
Y87096D01*
X317502Y79099D02*
X316502Y78099D01*
Y76100D01*
X317502Y75100D01*
X321500D01*
X322500Y76100D01*
Y78099D01*
X321500Y79099D01*
X319501D01*
Y77099D01*
X322500Y81098D02*
X316502D01*
X322500Y85097D01*
X316502D01*
Y87096D02*
X322500D01*
Y90095D01*
X321500Y91095D01*
X317502D01*
X316502Y90095D01*
Y87096D01*
X282500Y75000D02*
X276502D01*
X282500Y78999D01*
X276502D01*
Y84997D02*
Y80998D01*
X279501D01*
X278501Y82997D01*
Y83997D01*
X279501Y84997D01*
X281500D01*
X282500Y83997D01*
Y81998D01*
X281500Y80998D01*
X176502Y75000D02*
X181500D01*
X182500Y76000D01*
Y77999D01*
X181500Y78999D01*
X176502D01*
X182500Y80998D02*
Y82997D01*
Y81998D01*
X176502D01*
X177502Y80998D01*
X176502Y89995D02*
X177502Y87996D01*
X179501Y85996D01*
X181500D01*
X182500Y86996D01*
Y88995D01*
X181500Y89995D01*
X180501D01*
X179501Y88995D01*
Y85996D01*
X337502Y78999D02*
X336502Y77999D01*
Y76000D01*
X337502Y75000D01*
X341500D01*
X342500Y76000D01*
Y77999D01*
X341500Y78999D01*
X339501D01*
Y76999D01*
X342500Y80998D02*
X336502D01*
X342500Y84997D01*
X336502D01*
Y86996D02*
X342500D01*
Y89995D01*
X341500Y90995D01*
X337502D01*
X336502Y89995D01*
Y86996D01*
X20000Y59997D02*
Y50000D01*
X24998D01*
X26665Y51666D01*
Y53332D01*
X24998Y54998D01*
X20000D01*
X24998D01*
X26665Y56665D01*
Y58331D01*
X24998Y59997D01*
X20000D01*
X34995D02*
X31663D01*
X29997Y58331D01*
Y51666D01*
X31663Y50000D01*
X34995D01*
X36661Y51666D01*
Y58331D01*
X34995Y59997D01*
X39994D02*
X46658D01*
X43326D01*
Y50000D01*
X49990Y59997D02*
X56655D01*
X53323D01*
Y50000D01*
X64986Y59997D02*
X61653D01*
X59987Y58331D01*
Y51666D01*
X61653Y50000D01*
X64986D01*
X66652Y51666D01*
Y58331D01*
X64986Y59997D01*
X69984Y50000D02*
Y59997D01*
X73316Y56665D01*
X76648Y59997D01*
Y50000D01*
X89977Y59997D02*
Y50000D01*
Y54998D01*
X96642D01*
Y59997D01*
Y50000D01*
X99974Y59997D02*
Y50000D01*
X104973D01*
X106639Y51666D01*
Y58331D01*
X104973Y59997D01*
X99974D01*
X109971Y50000D02*
Y59997D01*
X114969D01*
X116635Y58331D01*
Y54998D01*
X114969Y53332D01*
X109971D01*
X113303D02*
X116635Y50000D01*
X50000Y449997D02*
X56665D01*
X53332D01*
Y440000D01*
X64995Y449997D02*
X61663D01*
X59997Y448331D01*
Y441666D01*
X61663Y440000D01*
X64995D01*
X66661Y441666D01*
Y448331D01*
X64995Y449997D01*
X69994Y440000D02*
Y449997D01*
X74992D01*
X76658Y448331D01*
Y444998D01*
X74992Y443332D01*
X69994D01*
X89987Y449997D02*
Y440000D01*
Y444998D01*
X96652D01*
Y449997D01*
Y440000D01*
X99984Y449997D02*
Y440000D01*
X104982D01*
X106648Y441666D01*
Y448331D01*
X104982Y449997D01*
X99984D01*
X109981Y440000D02*
Y449997D01*
X114979D01*
X116645Y448331D01*
Y444998D01*
X114979Y443332D01*
X109981D01*
X113313D02*
X116645Y440000D01*
X402500Y365000D02*
Y374997D01*
X407498D01*
X409164Y373331D01*
Y369998D01*
X407498Y368332D01*
X402500D01*
X405832D02*
X409164Y365000D01*
X412497Y374997D02*
X415829D01*
X414163D01*
Y365000D01*
X412497D01*
X415829D01*
X427492Y373331D02*
X425826Y374997D01*
X422494D01*
X420827Y373331D01*
Y366666D01*
X422494Y365000D01*
X425826D01*
X427492Y366666D01*
Y369998D01*
X424160D01*
X430824Y374997D02*
Y365000D01*
Y369998D01*
X437489D01*
Y374997D01*
Y365000D01*
X440821Y374997D02*
X447485D01*
X444153D01*
Y365000D01*
X460815Y374997D02*
Y365000D01*
Y369998D01*
X467479D01*
Y374997D01*
Y365000D01*
X470811Y374997D02*
Y365000D01*
X475810D01*
X477476Y366666D01*
Y373331D01*
X475810Y374997D01*
X470811D01*
X480808Y365000D02*
Y374997D01*
X485806D01*
X487472Y373331D01*
Y369998D01*
X485806Y368332D01*
X480808D01*
X484140D02*
X487472Y365000D01*
X19300Y374997D02*
Y365000D01*
X25964D01*
X35961Y374997D02*
X29297D01*
Y365000D01*
X35961D01*
X29297Y369998D02*
X32629D01*
X45958Y374997D02*
X39294D01*
Y369998D01*
X42626D01*
X39294D01*
Y365000D01*
X49290Y374997D02*
X55955D01*
X52623D01*
Y365000D01*
X69284Y374997D02*
Y365000D01*
Y369998D01*
X75948D01*
Y374997D01*
Y365000D01*
X79281Y374997D02*
Y365000D01*
X84279D01*
X85945Y366666D01*
Y373331D01*
X84279Y374997D01*
X79281D01*
X89277Y365000D02*
Y374997D01*
X94276D01*
X95942Y373331D01*
Y369998D01*
X94276Y368332D01*
X89277D01*
X92610D02*
X95942Y365000D01*
X412500Y158498D02*
Y154499D01*
X414499Y152500D01*
X416499Y154499D01*
Y158498D01*
X421497Y152500D02*
Y158498D01*
X418498Y155499D01*
X422497D01*
X412500Y312500D02*
Y318498D01*
X414499Y316499D01*
X416499Y318498D01*
Y312500D01*
X418498D02*
X420497D01*
X419498D01*
Y318498D01*
X418498Y317498D01*
X423496D02*
X424496Y318498D01*
X426496D01*
X427495Y317498D01*
Y316499D01*
X426496Y315499D01*
X425496D01*
X426496D01*
X427495Y314499D01*
Y313500D01*
X426496Y312500D01*
X424496D01*
X423496Y313500D01*
X412500Y218498D02*
X416499D01*
X414499D01*
Y212500D01*
X418498Y217498D02*
X419498Y218498D01*
X421497D01*
X422497Y217498D01*
Y216499D01*
X421497Y215499D01*
X422497Y214499D01*
Y213500D01*
X421497Y212500D01*
X419498D01*
X418498Y213500D01*
Y214499D01*
X419498Y215499D01*
X418498Y216499D01*
Y217498D01*
X419498Y215499D02*
X421497D01*
X412600Y178498D02*
Y174499D01*
X414599Y172500D01*
X416599Y174499D01*
Y178498D01*
X422597D02*
X420597Y177498D01*
X418598Y175499D01*
Y173500D01*
X419598Y172500D01*
X421597D01*
X422597Y173500D01*
Y174499D01*
X421597Y175499D01*
X418598D01*
X412600Y182500D02*
Y188498D01*
X415599D01*
X416599Y187498D01*
Y185499D01*
X415599Y184499D01*
X412600D01*
X418598Y188498D02*
X422597D01*
Y187498D01*
X418598Y183500D01*
Y182500D01*
X412500Y198498D02*
Y194499D01*
X414499Y192500D01*
X416499Y194499D01*
Y198498D01*
X418498Y197498D02*
X419498Y198498D01*
X421497D01*
X422497Y197498D01*
Y196499D01*
X421497Y195499D01*
X422497Y194499D01*
Y193500D01*
X421497Y192500D01*
X419498D01*
X418498Y193500D01*
Y194499D01*
X419498Y195499D01*
X418498Y196499D01*
Y197498D01*
X419498Y195499D02*
X421497D01*
X412500Y202500D02*
Y208498D01*
X416499Y202500D01*
Y208498D01*
X418498Y207498D02*
X419498Y208498D01*
X421497D01*
X422497Y207498D01*
Y206499D01*
X421497Y205499D01*
X422497Y204499D01*
Y203500D01*
X421497Y202500D01*
X419498D01*
X418498Y203500D01*
Y204499D01*
X419498Y205499D01*
X418498Y206499D01*
Y207498D01*
X419498Y205499D02*
X421497D01*
X412500Y168498D02*
Y164499D01*
X414499Y162500D01*
X416499Y164499D01*
Y168498D01*
X422497D02*
X418498D01*
Y165499D01*
X420497Y166499D01*
X421497D01*
X422497Y165499D01*
Y163500D01*
X421497Y162500D01*
X419498D01*
X418498Y163500D01*
X412500Y222500D02*
Y228498D01*
X416499Y222500D01*
Y228498D01*
X418498Y223500D02*
X419498Y222500D01*
X421497D01*
X422497Y223500D01*
Y227498D01*
X421497Y228498D01*
X419498D01*
X418498Y227498D01*
Y226499D01*
X419498Y225499D01*
X422497D01*
X412500Y268498D02*
Y263500D01*
X413500Y262500D01*
X415499D01*
X416499Y263500D01*
Y268498D01*
X418498Y262500D02*
X420497D01*
X419498D01*
Y268498D01*
X418498Y267498D01*
X423496D02*
X424496Y268498D01*
X426496D01*
X427495Y267498D01*
Y266499D01*
X426496Y265499D01*
X427495Y264499D01*
Y263500D01*
X426496Y262500D01*
X424496D01*
X423496Y263500D01*
Y264499D01*
X424496Y265499D01*
X423496Y266499D01*
Y267498D01*
X424496Y265499D02*
X426496D01*
X412500Y258498D02*
Y254499D01*
X414499Y252500D01*
X416499Y254499D01*
Y258498D01*
X418498Y252500D02*
X420497D01*
X419498D01*
Y258498D01*
X418498Y257498D01*
X427495Y258498D02*
X423496D01*
Y255499D01*
X425496Y256499D01*
X426496D01*
X427495Y255499D01*
Y253500D01*
X426496Y252500D01*
X424496D01*
X423496Y253500D01*
X416599Y247498D02*
X415599Y248498D01*
X413600D01*
X412600Y247498D01*
Y243500D01*
X413600Y242500D01*
X415599D01*
X416599Y243500D01*
Y245499D01*
X414599D01*
X418598Y242500D02*
Y248498D01*
X422597Y242500D01*
Y248498D01*
X424596D02*
Y242500D01*
X427595D01*
X428595Y243500D01*
Y247498D01*
X427595Y248498D01*
X424596D01*
X412600Y238498D02*
Y234499D01*
X414599Y232500D01*
X416599Y234499D01*
Y238498D01*
X418598Y232500D02*
X420597D01*
X419598D01*
Y238498D01*
X418598Y237498D01*
X423596Y232500D02*
X425596D01*
X424596D01*
Y238498D01*
X423596Y237498D01*
X412500Y302500D02*
Y308498D01*
X416499Y302500D01*
Y308498D01*
X418498Y302500D02*
X420497D01*
X419498D01*
Y308498D01*
X418498Y307498D01*
X426496Y302500D02*
Y308498D01*
X423496Y305499D01*
X427495D01*
X412500Y298498D02*
Y292500D01*
X416499D01*
X418498D02*
X420497D01*
X419498D01*
Y298498D01*
X418498Y297498D01*
X427495Y298498D02*
X425496Y297498D01*
X423496Y295499D01*
Y293500D01*
X424496Y292500D01*
X426496D01*
X427495Y293500D01*
Y294499D01*
X426496Y295499D01*
X423496D01*
X412500Y282400D02*
Y288398D01*
X416499Y282400D01*
Y288398D01*
X418498Y282400D02*
X420497D01*
X419498D01*
Y288398D01*
X418498Y287398D01*
X427495Y288398D02*
X425496Y287398D01*
X423496Y285399D01*
Y283400D01*
X424496Y282400D01*
X426496D01*
X427495Y283400D01*
Y284399D01*
X426496Y285399D01*
X423496D01*
X412500Y272500D02*
Y278498D01*
X415499D01*
X416499Y277498D01*
Y275499D01*
X415499Y274499D01*
X412500D01*
X418498Y272500D02*
X420497D01*
X419498D01*
Y278498D01*
X418498Y277498D01*
X427495Y278498D02*
X425496Y277498D01*
X423496Y275499D01*
Y273500D01*
X424496Y272500D01*
X426496D01*
X427495Y273500D01*
Y274499D01*
X426496Y275499D01*
X423496D01*
X412500Y328498D02*
Y322500D01*
Y324499D01*
X416499Y328498D01*
X413500Y325499D01*
X416499Y322500D01*
X418498D02*
X420497D01*
X419498D01*
Y328498D01*
X418498Y327498D01*
X423496D02*
X424496Y328498D01*
X426496D01*
X427495Y327498D01*
Y326499D01*
X426496Y325499D01*
X425496D01*
X426496D01*
X427495Y324499D01*
Y323500D01*
X426496Y322500D01*
X424496D01*
X423496Y323500D01*
X412500Y332500D02*
Y338498D01*
X416499Y332500D01*
Y338498D01*
X418498Y332500D02*
X420497D01*
X419498D01*
Y338498D01*
X418498Y337498D01*
X423496Y332500D02*
X425496D01*
X424496D01*
Y338498D01*
X423496Y337498D01*
X412500Y348498D02*
Y344499D01*
X414499Y342500D01*
X416499Y344499D01*
Y348498D01*
X418498Y342500D02*
X420497D01*
X419498D01*
Y348498D01*
X418498Y347498D01*
X423496D02*
X424496Y348498D01*
X426496D01*
X427495Y347498D01*
Y346499D01*
X426496Y345499D01*
X425496D01*
X426496D01*
X427495Y344499D01*
Y343500D01*
X426496Y342500D01*
X424496D01*
X423496Y343500D01*
X467500Y342500D02*
Y348498D01*
X469499Y346499D01*
X471499Y348498D01*
Y342500D01*
X473498D02*
X475497D01*
X474498D01*
Y348498D01*
X473498Y347498D01*
X478496Y342500D02*
X480496D01*
X479496D01*
Y348498D01*
X478496Y347498D01*
X467500Y338498D02*
Y333500D01*
X468500Y332500D01*
X470499D01*
X471499Y333500D01*
Y338498D01*
X473498Y332500D02*
X475497D01*
X474498D01*
Y338498D01*
X473498Y337498D01*
X478496D02*
X479496Y338498D01*
X481496D01*
X482495Y337498D01*
Y336499D01*
X481496Y335499D01*
X480496D01*
X481496D01*
X482495Y334499D01*
Y333500D01*
X481496Y332500D01*
X479496D01*
X478496Y333500D01*
X467500Y328498D02*
Y323500D01*
X468500Y322500D01*
X470499D01*
X471499Y323500D01*
Y328498D01*
X473498Y322500D02*
X475497D01*
X474498D01*
Y328498D01*
X473498Y327498D01*
X482495Y328498D02*
X478496D01*
Y325499D01*
X480496Y326499D01*
X481496D01*
X482495Y325499D01*
Y323500D01*
X481496Y322500D01*
X479496D01*
X478496Y323500D01*
X467500Y272500D02*
Y278498D01*
X469499Y276499D01*
X471499Y278498D01*
Y272500D01*
X473498D02*
X475497D01*
X474498D01*
Y278498D01*
X473498Y277498D01*
X481496Y272500D02*
Y278498D01*
X478496Y275499D01*
X482495D01*
X467500Y288398D02*
Y282400D01*
X471499D01*
X473498D02*
X475497D01*
X474498D01*
Y288398D01*
X473498Y287398D01*
X482495Y288398D02*
X478496D01*
Y285399D01*
X480496Y286399D01*
X481496D01*
X482495Y285399D01*
Y283400D01*
X481496Y282400D01*
X479496D01*
X478496Y283400D01*
X467500Y292500D02*
Y298498D01*
X471499Y292500D01*
Y298498D01*
X473498Y292500D02*
X475497D01*
X474498D01*
Y298498D01*
X473498Y297498D01*
X482495Y298498D02*
X478496D01*
Y295499D01*
X480496Y296499D01*
X481496D01*
X482495Y295499D01*
Y293500D01*
X481496Y292500D01*
X479496D01*
X478496Y293500D01*
X467500Y302500D02*
Y308498D01*
X470499D01*
X471499Y307498D01*
Y305499D01*
X470499Y304499D01*
X467500D01*
X473498Y302500D02*
X475497D01*
X474498D01*
Y308498D01*
X473498Y307498D01*
X482495Y308498D02*
X478496D01*
Y305499D01*
X480496Y306499D01*
X481496D01*
X482495Y305499D01*
Y303500D01*
X481496Y302500D01*
X479496D01*
X478496Y303500D01*
X467600Y238498D02*
Y233500D01*
X468600Y232500D01*
X470599D01*
X471599Y233500D01*
Y238498D01*
X473598Y232500D02*
X475597D01*
X474598D01*
Y238498D01*
X473598Y237498D01*
X478596Y232500D02*
X480596D01*
X479596D01*
Y238498D01*
X478596Y237498D01*
X471599Y247498D02*
X470599Y248498D01*
X468600D01*
X467600Y247498D01*
Y243500D01*
X468600Y242500D01*
X470599D01*
X471599Y243500D01*
Y245499D01*
X469599D01*
X473598Y242500D02*
Y248498D01*
X477597Y242500D01*
Y248498D01*
X479596D02*
Y242500D01*
X482595D01*
X483595Y243500D01*
Y247498D01*
X482595Y248498D01*
X479596D01*
X467500Y258498D02*
Y252500D01*
Y254499D01*
X471499Y258498D01*
X468500Y255499D01*
X471499Y252500D01*
X473498D02*
X475497D01*
X474498D01*
Y258498D01*
X473498Y257498D01*
X482495Y252500D02*
X478496D01*
X482495Y256499D01*
Y257498D01*
X481496Y258498D01*
X479496D01*
X478496Y257498D01*
X467500Y268498D02*
Y262500D01*
X471499D01*
X473498D02*
X475497D01*
X474498D01*
Y268498D01*
X473498Y267498D01*
X481496Y262500D02*
Y268498D01*
X478496Y265499D01*
X482495D01*
X467500Y222500D02*
Y228498D01*
X469499Y226499D01*
X471499Y228498D01*
Y222500D01*
X473498D02*
X475497D01*
X474498D01*
Y228498D01*
X473498Y227498D01*
X478496D02*
X479496Y228498D01*
X481496D01*
X482495Y227498D01*
Y223500D01*
X481496Y222500D01*
X479496D01*
X478496Y223500D01*
Y227498D01*
X467500Y168498D02*
Y163500D01*
X468500Y162500D01*
X470499D01*
X471499Y163500D01*
Y168498D01*
X477497D02*
X473498D01*
Y165499D01*
X475497Y166499D01*
X476497D01*
X477497Y165499D01*
Y163500D01*
X476497Y162500D01*
X474498D01*
X473498Y163500D01*
X467500Y202500D02*
Y208498D01*
X469499Y206499D01*
X471499Y208498D01*
Y202500D01*
X473498Y207498D02*
X474498Y208498D01*
X476497D01*
X477497Y207498D01*
Y206499D01*
X476497Y205499D01*
X477497Y204499D01*
Y203500D01*
X476497Y202500D01*
X474498D01*
X473498Y203500D01*
Y204499D01*
X474498Y205499D01*
X473498Y206499D01*
Y207498D01*
X474498Y205499D02*
X476497D01*
X467500Y198498D02*
Y193500D01*
X468500Y192500D01*
X470499D01*
X471499Y193500D01*
Y198498D01*
X473498Y197498D02*
X474498Y198498D01*
X476497D01*
X477497Y197498D01*
Y196499D01*
X476497Y195499D01*
X477497Y194499D01*
Y193500D01*
X476497Y192500D01*
X474498D01*
X473498Y193500D01*
Y194499D01*
X474498Y195499D01*
X473498Y196499D01*
Y197498D01*
X474498Y195499D02*
X476497D01*
X467600Y182500D02*
Y188498D01*
X471599Y182500D01*
Y188498D01*
X477597D02*
X475597Y187498D01*
X473598Y185499D01*
Y183500D01*
X474598Y182500D01*
X476597D01*
X477597Y183500D01*
Y184499D01*
X476597Y185499D01*
X473598D01*
X467600Y178498D02*
X471599D01*
X469599D01*
Y172500D01*
X477597Y178498D02*
X475597Y177498D01*
X473598Y175499D01*
Y173500D01*
X474598Y172500D01*
X476597D01*
X477597Y173500D01*
Y174499D01*
X476597Y175499D01*
X473598D01*
X467500Y212500D02*
Y218498D01*
X470499D01*
X471499Y217498D01*
Y215499D01*
X470499Y214499D01*
X467500D01*
X469499D02*
X471499Y212500D01*
X473498Y217498D02*
X474498Y218498D01*
X476497D01*
X477497Y217498D01*
Y216499D01*
X476497Y215499D01*
X477497Y214499D01*
Y213500D01*
X476497Y212500D01*
X474498D01*
X473498Y213500D01*
Y214499D01*
X474498Y215499D01*
X473498Y216499D01*
Y217498D01*
X474498Y215499D02*
X476497D01*
X467500Y318498D02*
Y313500D01*
X468500Y312500D01*
X470499D01*
X471499Y313500D01*
Y318498D01*
X473498Y312500D02*
X475497D01*
X474498D01*
Y318498D01*
X473498Y317498D01*
X478496Y318498D02*
X482495D01*
Y317498D01*
X478496Y313500D01*
Y312500D01*
X467500Y158498D02*
X471499D01*
X469499D01*
Y152500D01*
X476497D02*
Y158498D01*
X473498Y155499D01*
X477497D01*
X77500Y152500D02*
Y156499D01*
X79499Y158498D01*
X81499Y156499D01*
Y152500D01*
Y155499D01*
X77500D01*
X83498Y157498D02*
X84498Y158498D01*
X86497D01*
X87497Y157498D01*
Y156499D01*
X86497Y155499D01*
X85497D01*
X86497D01*
X87497Y154499D01*
Y153500D01*
X86497Y152500D01*
X84498D01*
X83498Y153500D01*
X81499Y318498D02*
X77500D01*
Y315499D01*
X79499D01*
X77500D01*
Y312500D01*
X83498D02*
X85497D01*
X84498D01*
Y318498D01*
X83498Y317498D01*
X92495Y318498D02*
X90496Y317498D01*
X88496Y315499D01*
Y313500D01*
X89496Y312500D01*
X91496D01*
X92495Y313500D01*
Y314499D01*
X91496Y315499D01*
X88496D01*
X81499Y217498D02*
X80499Y218498D01*
X78500D01*
X77500Y217498D01*
Y213500D01*
X78500Y212500D01*
X80499D01*
X81499Y213500D01*
X83498D02*
X84498Y212500D01*
X86497D01*
X87497Y213500D01*
Y217498D01*
X86497Y218498D01*
X84498D01*
X83498Y217498D01*
Y216499D01*
X84498Y215499D01*
X87497D01*
X77600Y172500D02*
Y176499D01*
X79599Y178498D01*
X81599Y176499D01*
Y172500D01*
Y175499D01*
X77600D01*
X87597Y178498D02*
X85597Y177498D01*
X83598Y175499D01*
Y173500D01*
X84598Y172500D01*
X86597D01*
X87597Y173500D01*
Y174499D01*
X86597Y175499D01*
X83598D01*
X81599Y188498D02*
X77600D01*
Y182500D01*
X81599D01*
X77600Y185499D02*
X79599D01*
X87597Y188498D02*
X85597Y187498D01*
X83598Y185499D01*
Y183500D01*
X84598Y182500D01*
X86597D01*
X87597Y183500D01*
Y184499D01*
X86597Y185499D01*
X83598D01*
X81499Y197498D02*
X80499Y198498D01*
X78500D01*
X77500Y197498D01*
Y193500D01*
X78500Y192500D01*
X80499D01*
X81499Y193500D01*
X83498Y197498D02*
X84498Y198498D01*
X86497D01*
X87497Y197498D01*
Y196499D01*
X86497Y195499D01*
X87497Y194499D01*
Y193500D01*
X86497Y192500D01*
X84498D01*
X83498Y193500D01*
Y194499D01*
X84498Y195499D01*
X83498Y196499D01*
Y197498D01*
X84498Y195499D02*
X86497D01*
X81499Y208498D02*
X77500D01*
Y205499D01*
X79499D01*
X77500D01*
Y202500D01*
X83498Y207498D02*
X84498Y208498D01*
X86497D01*
X87497Y207498D01*
Y206499D01*
X86497Y205499D01*
X87497Y204499D01*
Y203500D01*
X86497Y202500D01*
X84498D01*
X83498Y203500D01*
Y204499D01*
X84498Y205499D01*
X83498Y206499D01*
Y207498D01*
X84498Y205499D02*
X86497D01*
X77500Y162500D02*
Y166499D01*
X79499Y168498D01*
X81499Y166499D01*
Y162500D01*
Y165499D01*
X77500D01*
X87497Y168498D02*
X83498D01*
Y165499D01*
X85497Y166499D01*
X86497D01*
X87497Y165499D01*
Y163500D01*
X86497Y162500D01*
X84498D01*
X83498Y163500D01*
X77500Y222500D02*
Y226499D01*
X79499Y228498D01*
X81499Y226499D01*
Y222500D01*
Y225499D01*
X77500D01*
X83498Y222500D02*
X85497D01*
X84498D01*
Y228498D01*
X83498Y227498D01*
X88496D02*
X89496Y228498D01*
X91496D01*
X92495Y227498D01*
Y223500D01*
X91496Y222500D01*
X89496D01*
X88496Y223500D01*
Y227498D01*
X77500Y262500D02*
Y266499D01*
X79499Y268498D01*
X81499Y266499D01*
Y262500D01*
Y265499D01*
X77500D01*
X83498Y262500D02*
X85497D01*
X84498D01*
Y268498D01*
X83498Y267498D01*
X88496D02*
X89496Y268498D01*
X91496D01*
X92495Y267498D01*
Y266499D01*
X91496Y265499D01*
X90496D01*
X91496D01*
X92495Y264499D01*
Y263500D01*
X91496Y262500D01*
X89496D01*
X88496Y263500D01*
X81499Y257498D02*
X80499Y258498D01*
X78500D01*
X77500Y257498D01*
Y253500D01*
X78500Y252500D01*
X80499D01*
X81499Y253500D01*
X83498Y252500D02*
X85497D01*
X84498D01*
Y258498D01*
X83498Y257498D01*
X92495Y252500D02*
X88496D01*
X92495Y256499D01*
Y257498D01*
X91496Y258498D01*
X89496D01*
X88496Y257498D01*
X81599Y248498D02*
X77600D01*
Y242500D01*
X81599D01*
X77600Y245499D02*
X79599D01*
X83598Y242500D02*
X85597D01*
X84598D01*
Y248498D01*
X83598Y247498D01*
X88596Y242500D02*
X90596D01*
X89596D01*
Y248498D01*
X88596Y247498D01*
X81599Y238498D02*
X77600D01*
Y235499D01*
X79599D01*
X77600D01*
Y232500D01*
X83598D02*
X85597D01*
X84598D01*
Y238498D01*
X83598Y237498D01*
X88596D02*
X89596Y238498D01*
X91596D01*
X92595Y237498D01*
Y233500D01*
X91596Y232500D01*
X89596D01*
X88596Y233500D01*
Y237498D01*
X81499Y308498D02*
X77500D01*
Y302500D01*
X81499D01*
X77500Y305499D02*
X79499D01*
X83498Y302500D02*
X85497D01*
X84498D01*
Y308498D01*
X83498Y307498D01*
X88496D02*
X89496Y308498D01*
X91496D01*
X92495Y307498D01*
Y306499D01*
X91496Y305499D01*
X92495Y304499D01*
Y303500D01*
X91496Y302500D01*
X89496D01*
X88496Y303500D01*
Y304499D01*
X89496Y305499D01*
X88496Y306499D01*
Y307498D01*
X89496Y305499D02*
X91496D01*
X81499Y297498D02*
X80499Y298498D01*
X78500D01*
X77500Y297498D01*
Y293500D01*
X78500Y292500D01*
X80499D01*
X81499Y293500D01*
X83498Y292500D02*
X85497D01*
X84498D01*
Y298498D01*
X83498Y297498D01*
X88496D02*
X89496Y298498D01*
X91496D01*
X92495Y297498D01*
Y296499D01*
X91496Y295499D01*
X92495Y294499D01*
Y293500D01*
X91496Y292500D01*
X89496D01*
X88496Y293500D01*
Y294499D01*
X89496Y295499D01*
X88496Y296499D01*
Y297498D01*
X89496Y295499D02*
X91496D01*
X77500Y282400D02*
Y286399D01*
X79499Y288398D01*
X81499Y286399D01*
Y282400D01*
Y285399D01*
X77500D01*
X83498Y282400D02*
X85497D01*
X84498D01*
Y288398D01*
X83498Y287398D01*
X92495Y288398D02*
X88496D01*
Y285399D01*
X90496Y286399D01*
X91496D01*
X92495Y285399D01*
Y283400D01*
X91496Y282400D01*
X89496D01*
X88496Y283400D01*
X77500Y272500D02*
Y276499D01*
X79499Y278498D01*
X81499Y276499D01*
Y272500D01*
Y275499D01*
X77500D01*
X83498Y272500D02*
X85497D01*
X84498D01*
Y278498D01*
X83498Y277498D01*
X91496Y272500D02*
Y278498D01*
X88496Y275499D01*
X92495D01*
X81499Y327498D02*
X80499Y328498D01*
X78500D01*
X77500Y327498D01*
Y323500D01*
X78500Y322500D01*
X80499D01*
X81499Y323500D01*
Y325499D01*
X79499D01*
X83498Y322500D02*
X85497D01*
X84498D01*
Y328498D01*
X83498Y327498D01*
X91496Y322500D02*
Y328498D01*
X88496Y325499D01*
X92495D01*
X77500Y338498D02*
Y332500D01*
Y335499D01*
X81499D01*
Y338498D01*
Y332500D01*
X83498D02*
X85497D01*
X84498D01*
Y338498D01*
X83498Y337498D01*
X92495Y338498D02*
X90496Y337498D01*
X88496Y335499D01*
Y333500D01*
X89496Y332500D01*
X91496D01*
X92495Y333500D01*
Y334499D01*
X91496Y335499D01*
X88496D01*
X81499Y347498D02*
X80499Y348498D01*
X78500D01*
X77500Y347498D01*
Y343500D01*
X78500Y342500D01*
X80499D01*
X81499Y343500D01*
Y345499D01*
X79499D01*
X83498Y342500D02*
X85497D01*
X84498D01*
Y348498D01*
X83498Y347498D01*
X88496D02*
X89496Y348498D01*
X91496D01*
X92495Y347498D01*
Y346499D01*
X91496Y345499D01*
X90496D01*
X91496D01*
X92495Y344499D01*
Y343500D01*
X91496Y342500D01*
X89496D01*
X88496Y343500D01*
X22500Y348498D02*
Y342500D01*
X25499D01*
X26499Y343500D01*
Y347498D01*
X25499Y348498D01*
X22500D01*
X28498Y342500D02*
X30497D01*
X29498D01*
Y348498D01*
X28498Y347498D01*
X37495Y342500D02*
X33496D01*
X37495Y346499D01*
Y347498D01*
X36496Y348498D01*
X34496D01*
X33496Y347498D01*
X26499Y337498D02*
X25499Y338498D01*
X23500D01*
X22500Y337498D01*
Y333500D01*
X23500Y332500D01*
X25499D01*
X26499Y333500D01*
X28498Y332500D02*
X30497D01*
X29498D01*
Y338498D01*
X28498Y337498D01*
X33496D02*
X34496Y338498D01*
X36496D01*
X37495Y337498D01*
Y336499D01*
X36496Y335499D01*
X35496D01*
X36496D01*
X37495Y334499D01*
Y333500D01*
X36496Y332500D01*
X34496D01*
X33496Y333500D01*
X22500Y328498D02*
Y322500D01*
X25499D01*
X26499Y323500D01*
Y324499D01*
X25499Y325499D01*
X22500D01*
X25499D01*
X26499Y326499D01*
Y327498D01*
X25499Y328498D01*
X22500D01*
X28498Y322500D02*
X30497D01*
X29498D01*
Y328498D01*
X28498Y327498D01*
X36496Y322500D02*
Y328498D01*
X33496Y325499D01*
X37495D01*
X26499Y278498D02*
X22500D01*
Y275499D01*
X24499D01*
X22500D01*
Y272500D01*
X28498D02*
X30497D01*
X29498D01*
Y278498D01*
X28498Y277498D01*
X36496Y272500D02*
Y278498D01*
X33496Y275499D01*
X37495D01*
X26499Y288398D02*
X22500D01*
Y285399D01*
X24499D01*
X22500D01*
Y282400D01*
X28498D02*
X30497D01*
X29498D01*
Y288398D01*
X28498Y287398D01*
X37495Y288398D02*
X33496D01*
Y285399D01*
X35496Y286399D01*
X36496D01*
X37495Y285399D01*
Y283400D01*
X36496Y282400D01*
X34496D01*
X33496Y283400D01*
X26499Y298498D02*
X22500D01*
Y292500D01*
X26499D01*
X22500Y295499D02*
X24499D01*
X28498Y292500D02*
X30497D01*
X29498D01*
Y298498D01*
X28498Y297498D01*
X37495Y298498D02*
X35496Y297498D01*
X33496Y295499D01*
Y293500D01*
X34496Y292500D01*
X36496D01*
X37495Y293500D01*
Y294499D01*
X36496Y295499D01*
X33496D01*
X26499Y307498D02*
X25499Y308498D01*
X23500D01*
X22500Y307498D01*
Y303500D01*
X23500Y302500D01*
X25499D01*
X26499Y303500D01*
X28498Y302500D02*
X30497D01*
X29498D01*
Y308498D01*
X28498Y307498D01*
X33496Y308498D02*
X37495D01*
Y307498D01*
X33496Y303500D01*
Y302500D01*
X26599Y237498D02*
X25599Y238498D01*
X23600D01*
X22600Y237498D01*
Y233500D01*
X23600Y232500D01*
X25599D01*
X26599Y233500D01*
X32597Y238498D02*
X28598D01*
Y235499D01*
X30597Y236499D01*
X31597D01*
X32597Y235499D01*
Y233500D01*
X31597Y232500D01*
X29598D01*
X28598Y233500D01*
X22600Y248498D02*
Y242500D01*
X25599D01*
X26599Y243500D01*
Y244499D01*
X25599Y245499D01*
X22600D01*
X25599D01*
X26599Y246499D01*
Y247498D01*
X25599Y248498D01*
X22600D01*
X28598Y247498D02*
X29598Y248498D01*
X31597D01*
X32597Y247498D01*
Y246499D01*
X31597Y245499D01*
X30597D01*
X31597D01*
X32597Y244499D01*
Y243500D01*
X31597Y242500D01*
X29598D01*
X28598Y243500D01*
X22500Y258498D02*
Y252500D01*
Y255499D01*
X26499D01*
Y258498D01*
Y252500D01*
X28498D02*
X30497D01*
X29498D01*
Y258498D01*
X28498Y257498D01*
X37495Y252500D02*
X33496D01*
X37495Y256499D01*
Y257498D01*
X36496Y258498D01*
X34496D01*
X33496Y257498D01*
X22500Y268498D02*
Y262500D01*
Y265499D01*
X26499D01*
Y268498D01*
Y262500D01*
X28498D02*
X30497D01*
X29498D01*
Y268498D01*
X28498Y267498D01*
X37495Y268498D02*
X33496D01*
Y265499D01*
X35496Y266499D01*
X36496D01*
X37495Y265499D01*
Y263500D01*
X36496Y262500D01*
X34496D01*
X33496Y263500D01*
X22500Y228498D02*
Y222500D01*
X25499D01*
X26499Y223500D01*
Y224499D01*
X25499Y225499D01*
X22500D01*
X25499D01*
X26499Y226499D01*
Y227498D01*
X25499Y228498D01*
X22500D01*
X32497D02*
X30497Y227498D01*
X28498Y225499D01*
Y223500D01*
X29498Y222500D01*
X31497D01*
X32497Y223500D01*
Y224499D01*
X31497Y225499D01*
X28498D01*
X26499Y167498D02*
X25499Y168498D01*
X23500D01*
X22500Y167498D01*
Y163500D01*
X23500Y162500D01*
X25499D01*
X26499Y163500D01*
Y165499D01*
X24499D01*
X28498Y162500D02*
X30497D01*
X29498D01*
Y168498D01*
X28498Y167498D01*
X33496Y162500D02*
X35496D01*
X34496D01*
Y168498D01*
X33496Y167498D01*
X22500Y208498D02*
Y202500D01*
X25499D01*
X26499Y203500D01*
Y207498D01*
X25499Y208498D01*
X22500D01*
X28498Y207498D02*
X29498Y208498D01*
X31497D01*
X32497Y207498D01*
Y206499D01*
X31497Y205499D01*
X32497Y204499D01*
Y203500D01*
X31497Y202500D01*
X29498D01*
X28498Y203500D01*
Y204499D01*
X29498Y205499D01*
X28498Y206499D01*
Y207498D01*
X29498Y205499D02*
X31497D01*
X26499Y197498D02*
X25499Y198498D01*
X23500D01*
X22500Y197498D01*
Y193500D01*
X23500Y192500D01*
X25499D01*
X26499Y193500D01*
Y195499D01*
X24499D01*
X28498Y197498D02*
X29498Y198498D01*
X31497D01*
X32497Y197498D01*
Y196499D01*
X31497Y195499D01*
X32497Y194499D01*
Y193500D01*
X31497Y192500D01*
X29498D01*
X28498Y193500D01*
Y194499D01*
X29498Y195499D01*
X28498Y196499D01*
Y197498D01*
X29498Y195499D02*
X31497D01*
X22600Y188498D02*
Y182500D01*
X25599D01*
X26599Y183500D01*
Y187498D01*
X25599Y188498D01*
X22600D01*
X28598Y183500D02*
X29598Y182500D01*
X31597D01*
X32597Y183500D01*
Y187498D01*
X31597Y188498D01*
X29598D01*
X28598Y187498D01*
Y186499D01*
X29598Y185499D01*
X32597D01*
X26599Y177498D02*
X25599Y178498D01*
X23600D01*
X22600Y177498D01*
Y173500D01*
X23600Y172500D01*
X25599D01*
X26599Y173500D01*
X28598Y172500D02*
X30597D01*
X29598D01*
Y178498D01*
X28598Y177498D01*
X33596D02*
X34596Y178498D01*
X36595D01*
X37595Y177498D01*
Y173500D01*
X36595Y172500D01*
X34596D01*
X33596Y173500D01*
Y177498D01*
X26499Y218498D02*
X22500D01*
Y215499D01*
X24499D01*
X22500D01*
Y212500D01*
X28498Y218498D02*
X32497D01*
Y217498D01*
X28498Y213500D01*
Y212500D01*
X26499Y317498D02*
X25499Y318498D01*
X23500D01*
X22500Y317498D01*
Y313500D01*
X23500Y312500D01*
X25499D01*
X26499Y313500D01*
X28498Y312500D02*
X30497D01*
X29498D01*
Y318498D01*
X28498Y317498D01*
X37495Y318498D02*
X33496D01*
Y315499D01*
X35496Y316499D01*
X36496D01*
X37495Y315499D01*
Y313500D01*
X36496Y312500D01*
X34496D01*
X33496Y313500D01*
X26499Y158498D02*
X22500D01*
Y155499D01*
X24499D01*
X22500D01*
Y152500D01*
X28498D02*
X30497D01*
X29498D01*
Y158498D01*
X28498Y157498D01*
X33496Y152500D02*
X35496D01*
X34496D01*
Y158498D01*
X33496Y157498D01*
X315000Y362500D02*
X316999D01*
X316000D01*
Y368498D01*
X315000Y367498D01*
X367999Y362500D02*
Y368498D01*
X365000Y365499D01*
X368999D01*
X318999Y358498D02*
X315000D01*
Y355499D01*
X316999Y356499D01*
X317999D01*
X318999Y355499D01*
Y353500D01*
X317999Y352500D01*
X316000D01*
X315000Y353500D01*
X365000Y342400D02*
X366999D01*
X366000D01*
Y348398D01*
X365000Y347398D01*
X373997Y342400D02*
X369998D01*
X373997Y346399D01*
Y347398D01*
X372997Y348398D01*
X370998D01*
X369998Y347398D01*
X365000Y357398D02*
X366000Y358398D01*
X367999D01*
X368999Y357398D01*
Y356399D01*
X367999Y355399D01*
X368999Y354399D01*
Y353400D01*
X367999Y352400D01*
X366000D01*
X365000Y353400D01*
Y354399D01*
X366000Y355399D01*
X365000Y356399D01*
Y357398D01*
X366000Y355399D02*
X367999D01*
X310000Y332500D02*
X311999D01*
X311000D01*
Y338498D01*
X310000Y337498D01*
X314998D02*
X315998Y338498D01*
X317997D01*
X318997Y337498D01*
Y336499D01*
X317997Y335499D01*
X316998D01*
X317997D01*
X318997Y334499D01*
Y333500D01*
X317997Y332500D01*
X315998D01*
X314998Y333500D01*
X365000Y332500D02*
X366999D01*
X366000D01*
Y338498D01*
X365000Y337498D01*
X373997Y338498D02*
X371998Y337498D01*
X369998Y335499D01*
Y333500D01*
X370998Y332500D01*
X372997D01*
X373997Y333500D01*
Y334499D01*
X372997Y335499D01*
X369998D01*
X315000Y343500D02*
X316000Y342500D01*
X317999D01*
X318999Y343500D01*
Y347498D01*
X317999Y348498D01*
X316000D01*
X315000Y347498D01*
Y346499D01*
X316000Y345499D01*
X318999D01*
X365000Y297498D02*
X366000Y298498D01*
X367999D01*
X368999Y297498D01*
Y296499D01*
X367999Y295499D01*
X366999D01*
X367999D01*
X368999Y294499D01*
Y293500D01*
X367999Y292500D01*
X366000D01*
X365000Y293500D01*
X374997Y292500D02*
X370998D01*
X374997Y296499D01*
Y297498D01*
X373997Y298498D01*
X371998D01*
X370998Y297498D01*
X368999Y302400D02*
X365000D01*
X368999Y306399D01*
Y307398D01*
X367999Y308398D01*
X366000D01*
X365000Y307398D01*
X370998D02*
X371998Y308398D01*
X373997D01*
X374997Y307398D01*
Y306399D01*
X373997Y305399D01*
X374997Y304399D01*
Y303400D01*
X373997Y302400D01*
X371998D01*
X370998Y303400D01*
Y304399D01*
X371998Y305399D01*
X370998Y306399D01*
Y307398D01*
X371998Y305399D02*
X373997D01*
X368999Y312500D02*
X365000D01*
X368999Y316499D01*
Y317498D01*
X367999Y318498D01*
X366000D01*
X365000Y317498D01*
X373997Y312500D02*
Y318498D01*
X370998Y315499D01*
X374997D01*
X368999Y322500D02*
X365000D01*
X368999Y326499D01*
Y327498D01*
X367999Y328498D01*
X366000D01*
X365000Y327498D01*
X370998D02*
X371998Y328498D01*
X373997D01*
X374997Y327498D01*
Y323500D01*
X373997Y322500D01*
X371998D01*
X370998Y323500D01*
Y327498D01*
X368099Y252500D02*
Y258498D01*
X365100Y255499D01*
X369099D01*
X371098Y257498D02*
X372098Y258498D01*
X374097D01*
X375097Y257498D01*
Y256499D01*
X374097Y255499D01*
X375097Y254499D01*
Y253500D01*
X374097Y252500D01*
X372098D01*
X371098Y253500D01*
Y254499D01*
X372098Y255499D01*
X371098Y256499D01*
Y257498D01*
X372098Y255499D02*
X374097D01*
X368099Y262500D02*
Y268498D01*
X365100Y265499D01*
X369099D01*
X374097Y262500D02*
Y268498D01*
X371098Y265499D01*
X375097D01*
X367999Y272500D02*
Y278498D01*
X365000Y275499D01*
X368999D01*
X370998Y277498D02*
X371998Y278498D01*
X373997D01*
X374997Y277498D01*
Y273500D01*
X373997Y272500D01*
X371998D01*
X370998Y273500D01*
Y277498D01*
X365000Y287498D02*
X366000Y288498D01*
X367999D01*
X368999Y287498D01*
Y286499D01*
X367999Y285499D01*
X366999D01*
X367999D01*
X368999Y284499D01*
Y283500D01*
X367999Y282500D01*
X366000D01*
X365000Y283500D01*
X374997Y288498D02*
X372997Y287498D01*
X370998Y285499D01*
Y283500D01*
X371998Y282500D01*
X373997D01*
X374997Y283500D01*
Y284499D01*
X373997Y285499D01*
X370998D01*
X368999Y248498D02*
X365000D01*
Y245499D01*
X366999Y246499D01*
X367999D01*
X368999Y245499D01*
Y243500D01*
X367999Y242500D01*
X366000D01*
X365000Y243500D01*
X374997Y242500D02*
X370998D01*
X374997Y246499D01*
Y247498D01*
X373997Y248498D01*
X371998D01*
X370998Y247498D01*
X365000Y188498D02*
X368999D01*
Y187498D01*
X365000Y183500D01*
Y182500D01*
X374997Y188498D02*
X372997Y187498D01*
X370998Y185499D01*
Y183500D01*
X371998Y182500D01*
X373997D01*
X374997Y183500D01*
Y184499D01*
X373997Y185499D01*
X370998D01*
X368999Y228498D02*
X366999Y227498D01*
X365000Y225499D01*
Y223500D01*
X366000Y222500D01*
X367999D01*
X368999Y223500D01*
Y224499D01*
X367999Y225499D01*
X365000D01*
X370998Y227498D02*
X371998Y228498D01*
X373997D01*
X374997Y227498D01*
Y223500D01*
X373997Y222500D01*
X371998D01*
X370998Y223500D01*
Y227498D01*
X368999Y218498D02*
X366999Y217498D01*
X365000Y215499D01*
Y213500D01*
X366000Y212500D01*
X367999D01*
X368999Y213500D01*
Y214499D01*
X367999Y215499D01*
X365000D01*
X373997Y212500D02*
Y218498D01*
X370998Y215499D01*
X374997D01*
X369099Y208498D02*
X367099Y207498D01*
X365100Y205499D01*
Y203500D01*
X366100Y202500D01*
X368099D01*
X369099Y203500D01*
Y204499D01*
X368099Y205499D01*
X365100D01*
X371098Y207498D02*
X372098Y208498D01*
X374097D01*
X375097Y207498D01*
Y206499D01*
X374097Y205499D01*
X375097Y204499D01*
Y203500D01*
X374097Y202500D01*
X372098D01*
X371098Y203500D01*
Y204499D01*
X372098Y205499D01*
X371098Y206499D01*
Y207498D01*
X372098Y205499D02*
X374097D01*
X365100Y198498D02*
X369099D01*
Y197498D01*
X365100Y193500D01*
Y192500D01*
X375097D02*
X371098D01*
X375097Y196499D01*
Y197498D01*
X374097Y198498D01*
X372098D01*
X371098Y197498D01*
X368999Y238498D02*
X365000D01*
Y235499D01*
X366999Y236499D01*
X367999D01*
X368999Y235499D01*
Y233500D01*
X367999Y232500D01*
X366000D01*
X365000Y233500D01*
X374997Y238498D02*
X372997Y237498D01*
X370998Y235499D01*
Y233500D01*
X371998Y232500D01*
X373997D01*
X374997Y233500D01*
Y234499D01*
X373997Y235499D01*
X370998D01*
X365100Y143500D02*
X366100Y142500D01*
X368099D01*
X369099Y143500D01*
Y147498D01*
X368099Y148498D01*
X366100D01*
X365100Y147498D01*
Y146499D01*
X366100Y145499D01*
X369099D01*
X375097Y142500D02*
X371098D01*
X375097Y146499D01*
Y147498D01*
X374097Y148498D01*
X372098D01*
X371098Y147498D01*
X365100Y157498D02*
X366100Y158498D01*
X368099D01*
X369099Y157498D01*
Y156499D01*
X368099Y155499D01*
X369099Y154499D01*
Y153500D01*
X368099Y152500D01*
X366100D01*
X365100Y153500D01*
Y154499D01*
X366100Y155499D01*
X365100Y156499D01*
Y157498D01*
X366100Y155499D02*
X368099D01*
X371098Y157498D02*
X372098Y158498D01*
X374097D01*
X375097Y157498D01*
Y156499D01*
X374097Y155499D01*
X375097Y154499D01*
Y153500D01*
X374097Y152500D01*
X372098D01*
X371098Y153500D01*
Y154499D01*
X372098Y155499D01*
X371098Y156499D01*
Y157498D01*
X372098Y155499D02*
X374097D01*
X365000Y167498D02*
X366000Y168498D01*
X367999D01*
X368999Y167498D01*
Y166499D01*
X367999Y165499D01*
X368999Y164499D01*
Y163500D01*
X367999Y162500D01*
X366000D01*
X365000Y163500D01*
Y164499D01*
X366000Y165499D01*
X365000Y166499D01*
Y167498D01*
X366000Y165499D02*
X367999D01*
X373997Y162500D02*
Y168498D01*
X370998Y165499D01*
X374997D01*
X365000Y177498D02*
X366000Y178498D01*
X367999D01*
X368999Y177498D01*
Y176499D01*
X367999Y175499D01*
X368999Y174499D01*
Y173500D01*
X367999Y172500D01*
X366000D01*
X365000Y173500D01*
Y174499D01*
X366000Y175499D01*
X365000Y176499D01*
Y177498D01*
X366000Y175499D02*
X367999D01*
X370998Y177498D02*
X371998Y178498D01*
X373997D01*
X374997Y177498D01*
Y173500D01*
X373997Y172500D01*
X371998D01*
X370998Y173500D01*
Y177498D01*
X365000Y133500D02*
X366000Y132500D01*
X367999D01*
X368999Y133500D01*
Y137498D01*
X367999Y138498D01*
X366000D01*
X365000Y137498D01*
Y136499D01*
X366000Y135499D01*
X368999D01*
X374997Y138498D02*
X372997Y137498D01*
X370998Y135499D01*
Y133500D01*
X371998Y132500D01*
X373997D01*
X374997Y133500D01*
Y134499D01*
X373997Y135499D01*
X370998D01*
X310000Y133500D02*
X311000Y132500D01*
X312999D01*
X313999Y133500D01*
Y137498D01*
X312999Y138498D01*
X311000D01*
X310000Y137498D01*
Y136499D01*
X311000Y135499D01*
X313999D01*
X315998Y137498D02*
X316998Y138498D01*
X318997D01*
X319997Y137498D01*
Y136499D01*
X318997Y135499D01*
X317997D01*
X318997D01*
X319997Y134499D01*
Y133500D01*
X318997Y132500D01*
X316998D01*
X315998Y133500D01*
X310000Y178498D02*
X313999D01*
Y177498D01*
X310000Y173500D01*
Y172500D01*
X315998Y178498D02*
X319997D01*
Y177498D01*
X315998Y173500D01*
Y172500D01*
X310000Y167498D02*
X311000Y168498D01*
X312999D01*
X313999Y167498D01*
Y166499D01*
X312999Y165499D01*
X313999Y164499D01*
Y163500D01*
X312999Y162500D01*
X311000D01*
X310000Y163500D01*
Y164499D01*
X311000Y165499D01*
X310000Y166499D01*
Y167498D01*
X311000Y165499D02*
X312999D01*
X315998Y162500D02*
X317997D01*
X316998D01*
Y168498D01*
X315998Y167498D01*
X310100Y157498D02*
X311100Y158498D01*
X313099D01*
X314099Y157498D01*
Y156499D01*
X313099Y155499D01*
X314099Y154499D01*
Y153500D01*
X313099Y152500D01*
X311100D01*
X310100Y153500D01*
Y154499D01*
X311100Y155499D01*
X310100Y156499D01*
Y157498D01*
X311100Y155499D02*
X313099D01*
X320097Y158498D02*
X316098D01*
Y155499D01*
X318097Y156499D01*
X319097D01*
X320097Y155499D01*
Y153500D01*
X319097Y152500D01*
X317098D01*
X316098Y153500D01*
X310100Y147498D02*
X311100Y148498D01*
X313099D01*
X314099Y147498D01*
Y146499D01*
X313099Y145499D01*
X314099Y144499D01*
Y143500D01*
X313099Y142500D01*
X311100D01*
X310100Y143500D01*
Y144499D01*
X311100Y145499D01*
X310100Y146499D01*
Y147498D01*
X311100Y145499D02*
X313099D01*
X316098Y143500D02*
X317098Y142500D01*
X319097D01*
X320097Y143500D01*
Y147498D01*
X319097Y148498D01*
X317098D01*
X316098Y147498D01*
Y146499D01*
X317098Y145499D01*
X320097D01*
X313999Y238498D02*
X310000D01*
Y235499D01*
X311999Y236499D01*
X312999D01*
X313999Y235499D01*
Y233500D01*
X312999Y232500D01*
X311000D01*
X310000Y233500D01*
X315998Y237498D02*
X316998Y238498D01*
X318997D01*
X319997Y237498D01*
Y236499D01*
X318997Y235499D01*
X317997D01*
X318997D01*
X319997Y234499D01*
Y233500D01*
X318997Y232500D01*
X316998D01*
X315998Y233500D01*
X314099Y198498D02*
X312099Y197498D01*
X310100Y195499D01*
Y193500D01*
X311100Y192500D01*
X313099D01*
X314099Y193500D01*
Y194499D01*
X313099Y195499D01*
X310100D01*
X316098Y193500D02*
X317098Y192500D01*
X319097D01*
X320097Y193500D01*
Y197498D01*
X319097Y198498D01*
X317098D01*
X316098Y197498D01*
Y196499D01*
X317098Y195499D01*
X320097D01*
X314099Y208498D02*
X312099Y207498D01*
X310100Y205499D01*
Y203500D01*
X311100Y202500D01*
X313099D01*
X314099Y203500D01*
Y204499D01*
X313099Y205499D01*
X310100D01*
X320097Y208498D02*
X316098D01*
Y205499D01*
X318097Y206499D01*
X319097D01*
X320097Y205499D01*
Y203500D01*
X319097Y202500D01*
X317098D01*
X316098Y203500D01*
X313999Y218498D02*
X311999Y217498D01*
X310000Y215499D01*
Y213500D01*
X311000Y212500D01*
X312999D01*
X313999Y213500D01*
Y214499D01*
X312999Y215499D01*
X310000D01*
X315998Y212500D02*
X317997D01*
X316998D01*
Y218498D01*
X315998Y217498D01*
X313999Y228498D02*
X310000D01*
Y225499D01*
X311999Y226499D01*
X312999D01*
X313999Y225499D01*
Y223500D01*
X312999Y222500D01*
X311000D01*
X310000Y223500D01*
X315998Y228498D02*
X319997D01*
Y227498D01*
X315998Y223500D01*
Y222500D01*
X310000Y188498D02*
X313999D01*
Y187498D01*
X310000Y183500D01*
Y182500D01*
X315998Y187498D02*
X316998Y188498D01*
X318997D01*
X319997Y187498D01*
Y186499D01*
X318997Y185499D01*
X317997D01*
X318997D01*
X319997Y184499D01*
Y183500D01*
X318997Y182500D01*
X316998D01*
X315998Y183500D01*
X312999Y242500D02*
Y248498D01*
X310000Y245499D01*
X313999D01*
X315998Y243500D02*
X316998Y242500D01*
X318997D01*
X319997Y243500D01*
Y247498D01*
X318997Y248498D01*
X316998D01*
X315998Y247498D01*
Y246499D01*
X316998Y245499D01*
X319997D01*
X310000Y287498D02*
X311000Y288498D01*
X312999D01*
X313999Y287498D01*
Y286499D01*
X312999Y285499D01*
X311999D01*
X312999D01*
X313999Y284499D01*
Y283500D01*
X312999Y282500D01*
X311000D01*
X310000Y283500D01*
X315998Y287498D02*
X316998Y288498D01*
X318997D01*
X319997Y287498D01*
Y286499D01*
X318997Y285499D01*
X317997D01*
X318997D01*
X319997Y284499D01*
Y283500D01*
X318997Y282500D01*
X316998D01*
X315998Y283500D01*
X310000Y277498D02*
X311000Y278498D01*
X312999D01*
X313999Y277498D01*
Y276499D01*
X312999Y275499D01*
X311999D01*
X312999D01*
X313999Y274499D01*
Y273500D01*
X312999Y272500D01*
X311000D01*
X310000Y273500D01*
X315998Y278498D02*
X319997D01*
Y277498D01*
X315998Y273500D01*
Y272500D01*
X313099Y262500D02*
Y268498D01*
X310100Y265499D01*
X314099D01*
X316098Y262500D02*
X318097D01*
X317098D01*
Y268498D01*
X316098Y267498D01*
X313099Y252500D02*
Y258498D01*
X310100Y255499D01*
X314099D01*
X320097Y258498D02*
X316098D01*
Y255499D01*
X318097Y256499D01*
X319097D01*
X320097Y255499D01*
Y253500D01*
X319097Y252500D01*
X317098D01*
X316098Y253500D01*
X310000Y322500D02*
X311999D01*
X311000D01*
Y328498D01*
X310000Y327498D01*
X314998Y328498D02*
X318997D01*
Y327498D01*
X314998Y323500D01*
Y322500D01*
X313999Y312500D02*
X310000D01*
X313999Y316499D01*
Y317498D01*
X312999Y318498D01*
X311000D01*
X310000Y317498D01*
X315998Y312500D02*
X317997D01*
X316998D01*
Y318498D01*
X315998Y317498D01*
X313999Y302400D02*
X310000D01*
X313999Y306399D01*
Y307398D01*
X312999Y308398D01*
X311000D01*
X310000Y307398D01*
X319997Y308398D02*
X315998D01*
Y305399D01*
X317997Y306399D01*
X318997D01*
X319997Y305399D01*
Y303400D01*
X318997Y302400D01*
X316998D01*
X315998Y303400D01*
X313999Y292500D02*
X310000D01*
X313999Y296499D01*
Y297498D01*
X312999Y298498D01*
X311000D01*
X310000Y297498D01*
X315998Y293500D02*
X316998Y292500D01*
X318997D01*
X319997Y293500D01*
Y297498D01*
X318997Y298498D01*
X316998D01*
X315998Y297498D01*
Y296499D01*
X316998Y295499D01*
X319997D01*
X128999Y292500D02*
X125000D01*
X128999Y296499D01*
Y297498D01*
X127999Y298498D01*
X126000D01*
X125000Y297498D01*
X130998Y293500D02*
X131998Y292500D01*
X133997D01*
X134997Y293500D01*
Y297498D01*
X133997Y298498D01*
X131998D01*
X130998Y297498D01*
Y296499D01*
X131998Y295499D01*
X134997D01*
X128999Y302400D02*
X125000D01*
X128999Y306399D01*
Y307398D01*
X127999Y308398D01*
X126000D01*
X125000Y307398D01*
X134997Y308398D02*
X130998D01*
Y305399D01*
X132997Y306399D01*
X133997D01*
X134997Y305399D01*
Y303400D01*
X133997Y302400D01*
X131998D01*
X130998Y303400D01*
X128999Y312500D02*
X125000D01*
X128999Y316499D01*
Y317498D01*
X127999Y318498D01*
X126000D01*
X125000Y317498D01*
X130998Y312500D02*
X132997D01*
X131998D01*
Y318498D01*
X130998Y317498D01*
X125000Y322500D02*
X126999D01*
X126000D01*
Y328498D01*
X125000Y327498D01*
X129998Y328498D02*
X133997D01*
Y327498D01*
X129998Y323500D01*
Y322500D01*
X128099Y252500D02*
Y258498D01*
X125100Y255499D01*
X129099D01*
X135097Y258498D02*
X131098D01*
Y255499D01*
X133097Y256499D01*
X134097D01*
X135097Y255499D01*
Y253500D01*
X134097Y252500D01*
X132098D01*
X131098Y253500D01*
X128099Y262500D02*
Y268498D01*
X125100Y265499D01*
X129099D01*
X131098Y262500D02*
X133097D01*
X132098D01*
Y268498D01*
X131098Y267498D01*
X125000Y277498D02*
X126000Y278498D01*
X127999D01*
X128999Y277498D01*
Y276499D01*
X127999Y275499D01*
X126999D01*
X127999D01*
X128999Y274499D01*
Y273500D01*
X127999Y272500D01*
X126000D01*
X125000Y273500D01*
X130998Y278498D02*
X134997D01*
Y277498D01*
X130998Y273500D01*
Y272500D01*
X125000Y287498D02*
X126000Y288498D01*
X127999D01*
X128999Y287498D01*
Y286499D01*
X127999Y285499D01*
X126999D01*
X127999D01*
X128999Y284499D01*
Y283500D01*
X127999Y282500D01*
X126000D01*
X125000Y283500D01*
X130998Y287498D02*
X131998Y288498D01*
X133997D01*
X134997Y287498D01*
Y286499D01*
X133997Y285499D01*
X132997D01*
X133997D01*
X134997Y284499D01*
Y283500D01*
X133997Y282500D01*
X131998D01*
X130998Y283500D01*
X127999Y242500D02*
Y248498D01*
X125000Y245499D01*
X128999D01*
X130998Y243500D02*
X131998Y242500D01*
X133997D01*
X134997Y243500D01*
Y247498D01*
X133997Y248498D01*
X131998D01*
X130998Y247498D01*
Y246499D01*
X131998Y245499D01*
X134997D01*
X125000Y188498D02*
X128999D01*
Y187498D01*
X125000Y183500D01*
Y182500D01*
X130998Y187498D02*
X131998Y188498D01*
X133997D01*
X134997Y187498D01*
Y186499D01*
X133997Y185499D01*
X132997D01*
X133997D01*
X134997Y184499D01*
Y183500D01*
X133997Y182500D01*
X131998D01*
X130998Y183500D01*
X128999Y228498D02*
X125000D01*
Y225499D01*
X126999Y226499D01*
X127999D01*
X128999Y225499D01*
Y223500D01*
X127999Y222500D01*
X126000D01*
X125000Y223500D01*
X130998Y228498D02*
X134997D01*
Y227498D01*
X130998Y223500D01*
Y222500D01*
X128999Y218498D02*
X126999Y217498D01*
X125000Y215499D01*
Y213500D01*
X126000Y212500D01*
X127999D01*
X128999Y213500D01*
Y214499D01*
X127999Y215499D01*
X125000D01*
X130998Y212500D02*
X132997D01*
X131998D01*
Y218498D01*
X130998Y217498D01*
X129099Y208498D02*
X127099Y207498D01*
X125100Y205499D01*
Y203500D01*
X126100Y202500D01*
X128099D01*
X129099Y203500D01*
Y204499D01*
X128099Y205499D01*
X125100D01*
X135097Y208498D02*
X131098D01*
Y205499D01*
X133097Y206499D01*
X134097D01*
X135097Y205499D01*
Y203500D01*
X134097Y202500D01*
X132098D01*
X131098Y203500D01*
X129099Y198498D02*
X127099Y197498D01*
X125100Y195499D01*
Y193500D01*
X126100Y192500D01*
X128099D01*
X129099Y193500D01*
Y194499D01*
X128099Y195499D01*
X125100D01*
X131098Y193500D02*
X132098Y192500D01*
X134097D01*
X135097Y193500D01*
Y197498D01*
X134097Y198498D01*
X132098D01*
X131098Y197498D01*
Y196499D01*
X132098Y195499D01*
X135097D01*
X128999Y238498D02*
X125000D01*
Y235499D01*
X126999Y236499D01*
X127999D01*
X128999Y235499D01*
Y233500D01*
X127999Y232500D01*
X126000D01*
X125000Y233500D01*
X130998Y237498D02*
X131998Y238498D01*
X133997D01*
X134997Y237498D01*
Y236499D01*
X133997Y235499D01*
X132997D01*
X133997D01*
X134997Y234499D01*
Y233500D01*
X133997Y232500D01*
X131998D01*
X130998Y233500D01*
X125100Y147498D02*
X126100Y148498D01*
X128099D01*
X129099Y147498D01*
Y146499D01*
X128099Y145499D01*
X129099Y144499D01*
Y143500D01*
X128099Y142500D01*
X126100D01*
X125100Y143500D01*
Y144499D01*
X126100Y145499D01*
X125100Y146499D01*
Y147498D01*
X126100Y145499D02*
X128099D01*
X131098Y143500D02*
X132098Y142500D01*
X134097D01*
X135097Y143500D01*
Y147498D01*
X134097Y148498D01*
X132098D01*
X131098Y147498D01*
Y146499D01*
X132098Y145499D01*
X135097D01*
X125100Y157498D02*
X126100Y158498D01*
X128099D01*
X129099Y157498D01*
Y156499D01*
X128099Y155499D01*
X129099Y154499D01*
Y153500D01*
X128099Y152500D01*
X126100D01*
X125100Y153500D01*
Y154499D01*
X126100Y155499D01*
X125100Y156499D01*
Y157498D01*
X126100Y155499D02*
X128099D01*
X135097Y158498D02*
X131098D01*
Y155499D01*
X133097Y156499D01*
X134097D01*
X135097Y155499D01*
Y153500D01*
X134097Y152500D01*
X132098D01*
X131098Y153500D01*
X125000Y167498D02*
X126000Y168498D01*
X127999D01*
X128999Y167498D01*
Y166499D01*
X127999Y165499D01*
X128999Y164499D01*
Y163500D01*
X127999Y162500D01*
X126000D01*
X125000Y163500D01*
Y164499D01*
X126000Y165499D01*
X125000Y166499D01*
Y167498D01*
X126000Y165499D02*
X127999D01*
X130998Y162500D02*
X132997D01*
X131998D01*
Y168498D01*
X130998Y167498D01*
X125000Y178498D02*
X128999D01*
Y177498D01*
X125000Y173500D01*
Y172500D01*
X130998Y178498D02*
X134997D01*
Y177498D01*
X130998Y173500D01*
Y172500D01*
X125000Y133500D02*
X126000Y132500D01*
X127999D01*
X128999Y133500D01*
Y137498D01*
X127999Y138498D01*
X126000D01*
X125000Y137498D01*
Y136499D01*
X126000Y135499D01*
X128999D01*
X130998Y137498D02*
X131998Y138498D01*
X133997D01*
X134997Y137498D01*
Y136499D01*
X133997Y135499D01*
X132997D01*
X133997D01*
X134997Y134499D01*
Y133500D01*
X133997Y132500D01*
X131998D01*
X130998Y133500D01*
X180000D02*
X181000Y132500D01*
X182999D01*
X183999Y133500D01*
Y137498D01*
X182999Y138498D01*
X181000D01*
X180000Y137498D01*
Y136499D01*
X181000Y135499D01*
X183999D01*
X189997Y138498D02*
X187997Y137498D01*
X185998Y135499D01*
Y133500D01*
X186998Y132500D01*
X188997D01*
X189997Y133500D01*
Y134499D01*
X188997Y135499D01*
X185998D01*
X180000Y177498D02*
X181000Y178498D01*
X182999D01*
X183999Y177498D01*
Y176499D01*
X182999Y175499D01*
X183999Y174499D01*
Y173500D01*
X182999Y172500D01*
X181000D01*
X180000Y173500D01*
Y174499D01*
X181000Y175499D01*
X180000Y176499D01*
Y177498D01*
X181000Y175499D02*
X182999D01*
X185998Y177498D02*
X186998Y178498D01*
X188997D01*
X189997Y177498D01*
Y173500D01*
X188997Y172500D01*
X186998D01*
X185998Y173500D01*
Y177498D01*
X180000Y167498D02*
X181000Y168498D01*
X182999D01*
X183999Y167498D01*
Y166499D01*
X182999Y165499D01*
X183999Y164499D01*
Y163500D01*
X182999Y162500D01*
X181000D01*
X180000Y163500D01*
Y164499D01*
X181000Y165499D01*
X180000Y166499D01*
Y167498D01*
X181000Y165499D02*
X182999D01*
X188997Y162500D02*
Y168498D01*
X185998Y165499D01*
X189997D01*
X180100Y157498D02*
X181100Y158498D01*
X183099D01*
X184099Y157498D01*
Y156499D01*
X183099Y155499D01*
X184099Y154499D01*
Y153500D01*
X183099Y152500D01*
X181100D01*
X180100Y153500D01*
Y154499D01*
X181100Y155499D01*
X180100Y156499D01*
Y157498D01*
X181100Y155499D02*
X183099D01*
X186098Y157498D02*
X187098Y158498D01*
X189097D01*
X190097Y157498D01*
Y156499D01*
X189097Y155499D01*
X190097Y154499D01*
Y153500D01*
X189097Y152500D01*
X187098D01*
X186098Y153500D01*
Y154499D01*
X187098Y155499D01*
X186098Y156499D01*
Y157498D01*
X187098Y155499D02*
X189097D01*
X180100Y143500D02*
X181100Y142500D01*
X183099D01*
X184099Y143500D01*
Y147498D01*
X183099Y148498D01*
X181100D01*
X180100Y147498D01*
Y146499D01*
X181100Y145499D01*
X184099D01*
X190097Y142500D02*
X186098D01*
X190097Y146499D01*
Y147498D01*
X189097Y148498D01*
X187098D01*
X186098Y147498D01*
X183999Y238498D02*
X180000D01*
Y235499D01*
X181999Y236499D01*
X182999D01*
X183999Y235499D01*
Y233500D01*
X182999Y232500D01*
X181000D01*
X180000Y233500D01*
X189997Y238498D02*
X187997Y237498D01*
X185998Y235499D01*
Y233500D01*
X186998Y232500D01*
X188997D01*
X189997Y233500D01*
Y234499D01*
X188997Y235499D01*
X185998D01*
X180100Y198498D02*
X184099D01*
Y197498D01*
X180100Y193500D01*
Y192500D01*
X190097D02*
X186098D01*
X190097Y196499D01*
Y197498D01*
X189097Y198498D01*
X187098D01*
X186098Y197498D01*
X184099Y208498D02*
X182099Y207498D01*
X180100Y205499D01*
Y203500D01*
X181100Y202500D01*
X183099D01*
X184099Y203500D01*
Y204499D01*
X183099Y205499D01*
X180100D01*
X186098Y207498D02*
X187098Y208498D01*
X189097D01*
X190097Y207498D01*
Y206499D01*
X189097Y205499D01*
X190097Y204499D01*
Y203500D01*
X189097Y202500D01*
X187098D01*
X186098Y203500D01*
Y204499D01*
X187098Y205499D01*
X186098Y206499D01*
Y207498D01*
X187098Y205499D02*
X189097D01*
X183999Y218498D02*
X181999Y217498D01*
X180000Y215499D01*
Y213500D01*
X181000Y212500D01*
X182999D01*
X183999Y213500D01*
Y214499D01*
X182999Y215499D01*
X180000D01*
X188997Y212500D02*
Y218498D01*
X185998Y215499D01*
X189997D01*
X183999Y228498D02*
X181999Y227498D01*
X180000Y225499D01*
Y223500D01*
X181000Y222500D01*
X182999D01*
X183999Y223500D01*
Y224499D01*
X182999Y225499D01*
X180000D01*
X185998Y227498D02*
X186998Y228498D01*
X188997D01*
X189997Y227498D01*
Y223500D01*
X188997Y222500D01*
X186998D01*
X185998Y223500D01*
Y227498D01*
X180000Y188498D02*
X183999D01*
Y187498D01*
X180000Y183500D01*
Y182500D01*
X189997Y188498D02*
X187997Y187498D01*
X185998Y185499D01*
Y183500D01*
X186998Y182500D01*
X188997D01*
X189997Y183500D01*
Y184499D01*
X188997Y185499D01*
X185998D01*
X183999Y248498D02*
X180000D01*
Y245499D01*
X181999Y246499D01*
X182999D01*
X183999Y245499D01*
Y243500D01*
X182999Y242500D01*
X181000D01*
X180000Y243500D01*
X189997Y242500D02*
X185998D01*
X189997Y246499D01*
Y247498D01*
X188997Y248498D01*
X186998D01*
X185998Y247498D01*
X180000Y287498D02*
X181000Y288498D01*
X182999D01*
X183999Y287498D01*
Y286499D01*
X182999Y285499D01*
X181999D01*
X182999D01*
X183999Y284499D01*
Y283500D01*
X182999Y282500D01*
X181000D01*
X180000Y283500D01*
X189997Y288498D02*
X187997Y287498D01*
X185998Y285499D01*
Y283500D01*
X186998Y282500D01*
X188997D01*
X189997Y283500D01*
Y284499D01*
X188997Y285499D01*
X185998D01*
X182999Y272500D02*
Y278498D01*
X180000Y275499D01*
X183999D01*
X185998Y277498D02*
X186998Y278498D01*
X188997D01*
X189997Y277498D01*
Y273500D01*
X188997Y272500D01*
X186998D01*
X185998Y273500D01*
Y277498D01*
X183099Y262500D02*
Y268498D01*
X180100Y265499D01*
X184099D01*
X189097Y262500D02*
Y268498D01*
X186098Y265499D01*
X190097D01*
X183099Y252500D02*
Y258498D01*
X180100Y255499D01*
X184099D01*
X186098Y257498D02*
X187098Y258498D01*
X189097D01*
X190097Y257498D01*
Y256499D01*
X189097Y255499D01*
X190097Y254499D01*
Y253500D01*
X189097Y252500D01*
X187098D01*
X186098Y253500D01*
Y254499D01*
X187098Y255499D01*
X186098Y256499D01*
Y257498D01*
X187098Y255499D02*
X189097D01*
X183999Y322500D02*
X180000D01*
X183999Y326499D01*
Y327498D01*
X182999Y328498D01*
X181000D01*
X180000Y327498D01*
X185998D02*
X186998Y328498D01*
X188997D01*
X189997Y327498D01*
Y323500D01*
X188997Y322500D01*
X186998D01*
X185998Y323500D01*
Y327498D01*
X183999Y312500D02*
X180000D01*
X183999Y316499D01*
Y317498D01*
X182999Y318498D01*
X181000D01*
X180000Y317498D01*
X188997Y312500D02*
Y318498D01*
X185998Y315499D01*
X189997D01*
X183999Y302400D02*
X180000D01*
X183999Y306399D01*
Y307398D01*
X182999Y308398D01*
X181000D01*
X180000Y307398D01*
X185998D02*
X186998Y308398D01*
X188997D01*
X189997Y307398D01*
Y306399D01*
X188997Y305399D01*
X189997Y304399D01*
Y303400D01*
X188997Y302400D01*
X186998D01*
X185998Y303400D01*
Y304399D01*
X186998Y305399D01*
X185998Y306399D01*
Y307398D01*
X186998Y305399D02*
X188997D01*
X180000Y297498D02*
X181000Y298498D01*
X182999D01*
X183999Y297498D01*
Y296499D01*
X182999Y295499D01*
X181999D01*
X182999D01*
X183999Y294499D01*
Y293500D01*
X182999Y292500D01*
X181000D01*
X180000Y293500D01*
X189997Y292500D02*
X185998D01*
X189997Y296499D01*
Y297498D01*
X188997Y298498D01*
X186998D01*
X185998Y297498D01*
X130000Y343500D02*
X131000Y342500D01*
X132999D01*
X133999Y343500D01*
Y347498D01*
X132999Y348498D01*
X131000D01*
X130000Y347498D01*
Y346499D01*
X131000Y345499D01*
X133999D01*
X180000Y332500D02*
X181999D01*
X181000D01*
Y338498D01*
X180000Y337498D01*
X188997Y338498D02*
X186998Y337498D01*
X184998Y335499D01*
Y333500D01*
X185998Y332500D01*
X187997D01*
X188997Y333500D01*
Y334499D01*
X187997Y335499D01*
X184998D01*
X125000Y332500D02*
X126999D01*
X126000D01*
Y338498D01*
X125000Y337498D01*
X129998D02*
X130998Y338498D01*
X132997D01*
X133997Y337498D01*
Y336499D01*
X132997Y335499D01*
X131998D01*
X132997D01*
X133997Y334499D01*
Y333500D01*
X132997Y332500D01*
X130998D01*
X129998Y333500D01*
X180000Y357398D02*
X181000Y358398D01*
X182999D01*
X183999Y357398D01*
Y356399D01*
X182999Y355399D01*
X183999Y354399D01*
Y353400D01*
X182999Y352400D01*
X181000D01*
X180000Y353400D01*
Y354399D01*
X181000Y355399D01*
X180000Y356399D01*
Y357398D01*
X181000Y355399D02*
X182999D01*
X180000Y342400D02*
X181999D01*
X181000D01*
Y348398D01*
X180000Y347398D01*
X188997Y342400D02*
X184998D01*
X188997Y346399D01*
Y347398D01*
X187997Y348398D01*
X185998D01*
X184998Y347398D01*
X133999Y358498D02*
X130000D01*
Y355499D01*
X131999Y356499D01*
X132999D01*
X133999Y355499D01*
Y353500D01*
X132999Y352500D01*
X131000D01*
X130000Y353500D01*
X400000Y27500D02*
Y32498D01*
X403332Y27500D01*
Y32498D01*
X404998D02*
Y28333D01*
X405831Y27500D01*
X407498D01*
X408331Y28333D01*
Y32498D01*
X409997Y27500D02*
Y32498D01*
X411663Y30832D01*
X413329Y32498D01*
Y27500D01*
X414995D02*
Y30832D01*
X416661Y32498D01*
X418327Y30832D01*
Y27500D01*
Y29999D01*
X414995D01*
X419993Y32498D02*
X423326D01*
X421660D01*
Y27500D01*
X427491Y32498D02*
X425825D01*
X424992Y31665D01*
Y28333D01*
X425825Y27500D01*
X427491D01*
X428324Y28333D01*
Y31665D01*
X427491Y32498D01*
X438321Y31665D02*
X437488Y32498D01*
X435822D01*
X434989Y31665D01*
Y30832D01*
X435822Y29999D01*
X437488D01*
X438321Y29166D01*
Y28333D01*
X437488Y27500D01*
X435822D01*
X434989Y28333D01*
X439987Y32498D02*
Y27500D01*
Y29999D01*
X443319D01*
Y32498D01*
Y27500D01*
X444985Y32498D02*
X446652D01*
X445819D01*
Y27500D01*
X444985D01*
X446652D01*
X452483Y32498D02*
X449151D01*
Y27500D01*
X452483D01*
X449151Y29999D02*
X450817D01*
X454149Y32498D02*
Y27500D01*
X457481D01*
X459148Y32498D02*
Y27500D01*
X461647D01*
X462480Y28333D01*
Y31665D01*
X461647Y32498D01*
X459148D01*
X360000Y480000D02*
Y483999D01*
X361999Y485998D01*
X363999Y483999D01*
Y480000D01*
Y482999D01*
X360000D01*
X365998Y485998D02*
Y481999D01*
X367997Y480000D01*
X369997Y481999D01*
Y485998D01*
X375995Y484998D02*
X374995Y485998D01*
X372996D01*
X371996Y484998D01*
Y481000D01*
X372996Y480000D01*
X374995D01*
X375995Y481000D01*
Y482999D01*
X373995D01*
X383992Y485998D02*
X387991D01*
X385992D01*
Y480000D01*
X389990D02*
Y485998D01*
X392989D01*
X393989Y484998D01*
Y482999D01*
X392989Y481999D01*
X389990D01*
X391990D02*
X393989Y480000D01*
X395988D02*
Y483999D01*
X397988Y485998D01*
X399987Y483999D01*
Y480000D01*
Y482999D01*
X395988D01*
X405985Y484998D02*
X404985Y485998D01*
X402986D01*
X401986Y484998D01*
Y481000D01*
X402986Y480000D01*
X404985D01*
X405985Y481000D01*
X411983Y485998D02*
X407984D01*
Y480000D01*
X411983D01*
X407984Y482999D02*
X409984D01*
X419981Y485998D02*
Y480000D01*
X423979D01*
X429977Y485998D02*
X425979D01*
Y480000D01*
X429977D01*
X425979Y482999D02*
X427978D01*
X431977Y480000D02*
Y485998D01*
X435975Y480000D01*
Y485998D01*
X441973Y484998D02*
X440974Y485998D01*
X438975D01*
X437975Y484998D01*
Y481000D01*
X438975Y480000D01*
X440974D01*
X441973Y481000D01*
Y482999D01*
X439974D01*
X443973Y485998D02*
X447972D01*
X445972D01*
Y480000D01*
X449971Y485998D02*
Y480000D01*
Y482999D01*
X453970D01*
Y485998D01*
Y480000D01*
X455969Y483999D02*
X456969D01*
Y482999D01*
X455969D01*
Y483999D01*
Y481000D02*
X456969D01*
Y480000D01*
X455969D01*
Y481000D01*
X466965Y485998D02*
X470964D01*
Y484998D01*
X466965Y481000D01*
Y480000D01*
X478962Y485998D02*
X480961D01*
X479961D01*
Y480000D01*
X478962D01*
X480961D01*
X483960D02*
Y485998D01*
X487959Y480000D01*
Y485998D01*
X360000Y475998D02*
X363999D01*
X361999D01*
Y470000D01*
X368997Y475998D02*
X366998D01*
X365998Y474998D01*
Y471000D01*
X366998Y470000D01*
X368997D01*
X369997Y471000D01*
Y474998D01*
X368997Y475998D01*
X371996D02*
Y470000D01*
X375995D01*
X381993Y475998D02*
X377994D01*
Y470000D01*
X381993D01*
X377994Y472999D02*
X379994D01*
X383992Y470000D02*
Y475998D01*
X386991D01*
X387991Y474998D01*
Y472999D01*
X386991Y471999D01*
X383992D01*
X385992D02*
X387991Y470000D01*
X389990D02*
Y473999D01*
X391990Y475998D01*
X393989Y473999D01*
Y470000D01*
Y472999D01*
X389990D01*
X395988Y470000D02*
Y475998D01*
X399987Y470000D01*
Y475998D01*
X405985Y474998D02*
X404985Y475998D01*
X402986D01*
X401986Y474998D01*
Y471000D01*
X402986Y470000D01*
X404985D01*
X405985Y471000D01*
X411983Y475998D02*
X407984D01*
Y470000D01*
X411983D01*
X407984Y472999D02*
X409984D01*
X413982Y473999D02*
X414982D01*
Y472999D01*
X413982D01*
Y473999D01*
Y471000D02*
X414982D01*
Y470000D01*
X413982D01*
Y471000D01*
X428978Y470000D02*
X424979D01*
X428978Y473999D01*
Y474998D01*
X427978Y475998D01*
X425979D01*
X424979Y474998D01*
X430977D02*
X431977Y475998D01*
X433976D01*
X434976Y474998D01*
Y471000D01*
X433976Y470000D01*
X431977D01*
X430977Y471000D01*
Y474998D01*
X436975D02*
X437975Y475998D01*
X439974D01*
X440974Y474998D01*
Y471000D01*
X439974Y470000D01*
X437975D01*
X436975Y471000D01*
Y474998D01*
X448971Y470000D02*
Y475998D01*
X450971Y473999D01*
X452970Y475998D01*
Y470000D01*
X454969Y475998D02*
X456969D01*
X455969D01*
Y470000D01*
X454969D01*
X456969D01*
X459968Y475998D02*
Y470000D01*
X463966D01*
X471964Y475998D02*
X473963D01*
X472963D01*
Y470000D01*
X471964D01*
X473963D01*
X476962D02*
Y475998D01*
X480961Y470000D01*
Y475998D01*
X400000Y17498D02*
Y13333D01*
X400833Y12500D01*
X402499D01*
X403332Y13333D01*
Y17498D01*
X404998Y12500D02*
Y17498D01*
X408331Y12500D01*
Y17498D01*
X409997D02*
X411663D01*
X410830D01*
Y12500D01*
X409997D01*
X411663D01*
X414162Y17498D02*
Y14166D01*
X415828Y12500D01*
X417494Y14166D01*
Y17498D01*
X422493D02*
X419161D01*
Y12500D01*
X422493D01*
X419161Y14999D02*
X420827D01*
X424159Y12500D02*
Y17498D01*
X426658D01*
X427491Y16665D01*
Y14999D01*
X426658Y14166D01*
X424159D01*
X425825D02*
X427491Y12500D01*
X432489Y16665D02*
X431656Y17498D01*
X429990D01*
X429157Y16665D01*
Y15832D01*
X429990Y14999D01*
X431656D01*
X432489Y14166D01*
Y13333D01*
X431656Y12500D01*
X429990D01*
X429157Y13333D01*
X434156Y17498D02*
X435822D01*
X434989D01*
Y12500D01*
X434156D01*
X435822D01*
X438321Y17498D02*
X441653D01*
X439987D01*
Y12500D01*
X443319Y17498D02*
Y16665D01*
X444985Y14999D01*
X446652Y16665D01*
Y17498D01*
X444985Y14999D02*
Y12500D01*
X455815Y17498D02*
X454149D01*
X453316Y16665D01*
Y13333D01*
X454149Y12500D01*
X455815D01*
X456648Y13333D01*
Y16665D01*
X455815Y17498D01*
X461647D02*
X458314D01*
Y14999D01*
X459981D01*
X458314D01*
Y12500D01*
X468311Y17498D02*
Y13333D01*
X469144Y12500D01*
X470810D01*
X471643Y13333D01*
Y17498D01*
X473310D02*
X476642D01*
X474976D01*
Y12500D01*
X478308D02*
Y15832D01*
X479974Y17498D01*
X481640Y15832D01*
Y12500D01*
Y14999D01*
X478308D01*
X483306Y17498D02*
Y12500D01*
Y14999D01*
X486639D01*
Y17498D01*
Y12500D01*
X400000Y24998D02*
Y20000D01*
X402499D01*
X403332Y20833D01*
Y24165D01*
X402499Y24998D01*
X400000D01*
X404998Y20000D02*
Y23332D01*
X406665Y24998D01*
X408331Y23332D01*
Y20000D01*
Y22499D01*
X404998D01*
X409997Y20000D02*
Y24998D01*
X413329Y20000D01*
Y24998D01*
X414995D02*
X416661D01*
X415828D01*
Y20000D01*
X414995D01*
X416661D01*
X422493Y24998D02*
X419161D01*
Y20000D01*
X422493D01*
X419161Y22499D02*
X420827D01*
X424159Y24998D02*
Y20000D01*
X427491D01*
X434156Y24998D02*
Y20000D01*
Y21666D01*
X437488Y24998D01*
X434989Y22499D01*
X437488Y20000D01*
X439154Y24998D02*
Y20000D01*
Y22499D01*
X442486D01*
Y24998D01*
Y20000D01*
X446652Y24998D02*
X444985D01*
X444152Y24165D01*
Y20833D01*
X444985Y20000D01*
X446652D01*
X447485Y20833D01*
Y24165D01*
X446652Y24998D01*
X449151D02*
Y20833D01*
X449984Y20000D01*
X451650D01*
X452483Y20833D01*
Y24998D01*
X454149Y20000D02*
Y24998D01*
X456648D01*
X457481Y24165D01*
Y22499D01*
X456648Y21666D01*
X454149D01*
X455815D02*
X457481Y20000D01*
X459148Y24998D02*
Y24165D01*
X460814Y22499D01*
X462480Y24165D01*
Y24998D01*
X460814Y22499D02*
Y20000D01*
X132500Y109997D02*
X139164D01*
X135832D01*
Y100000D01*
X142497Y109997D02*
Y100000D01*
Y104998D01*
X149161D01*
Y109997D01*
Y100000D01*
X152494Y109997D02*
X155826D01*
X154160D01*
Y100000D01*
X152494D01*
X155826D01*
X167489Y108331D02*
X165823Y109997D01*
X162490D01*
X160824Y108331D01*
Y106665D01*
X162490Y104998D01*
X165823D01*
X167489Y103332D01*
Y101666D01*
X165823Y100000D01*
X162490D01*
X160824Y101666D01*
X187482Y108331D02*
X185816Y109997D01*
X182484D01*
X180818Y108331D01*
Y106665D01*
X182484Y104998D01*
X185816D01*
X187482Y103332D01*
Y101666D01*
X185816Y100000D01*
X182484D01*
X180818Y101666D01*
X190814Y109997D02*
X194147D01*
X192481D01*
Y100000D01*
X190814D01*
X194147D01*
X199145Y109997D02*
Y100000D01*
X204144D01*
X205810Y101666D01*
Y108331D01*
X204144Y109997D01*
X199145D01*
X215806D02*
X209142D01*
Y100000D01*
X215806D01*
X209142Y104998D02*
X212474D01*
X229135Y100000D02*
Y109997D01*
X235800Y100000D01*
Y109997D01*
X245797D02*
X239132D01*
Y100000D01*
X245797D01*
X239132Y104998D02*
X242464D01*
X249129Y100000D02*
Y106665D01*
X252461Y109997D01*
X255793Y106665D01*
Y100000D01*
Y104998D01*
X249129D01*
X259126Y100000D02*
Y109997D01*
X264124D01*
X265790Y108331D01*
Y104998D01*
X264124Y103332D01*
X259126D01*
X262458D02*
X265790Y100000D01*
X285784Y109997D02*
X282452D01*
X284118D01*
Y101666D01*
X282452Y100000D01*
X280785D01*
X279119Y101666D01*
X289116Y109997D02*
X295781D01*
X292448D01*
Y100000D01*
X299113D02*
Y106665D01*
X302445Y109997D01*
X305777Y106665D01*
Y100000D01*
Y104998D01*
X299113D01*
X315774Y108331D02*
X314108Y109997D01*
X310776D01*
X309110Y108331D01*
Y101666D01*
X310776Y100000D01*
X314108D01*
X315774Y101666D01*
Y104998D01*
X312442D01*
X329103Y100000D02*
Y109997D01*
X334102D01*
X335768Y108331D01*
Y104998D01*
X334102Y103332D01*
X329103D01*
X344098Y109997D02*
X340766D01*
X339100Y108331D01*
Y101666D01*
X340766Y100000D01*
X344098D01*
X345764Y101666D01*
Y108331D01*
X344098Y109997D01*
X349097Y100000D02*
Y109997D01*
X354095D01*
X355761Y108331D01*
Y104998D01*
X354095Y103332D01*
X349097D01*
X352429D02*
X355761Y100000D01*
X359093Y109997D02*
X365758D01*
X362426D01*
Y100000D01*
X337500Y371900D02*
Y377898D01*
X340499D01*
X341499Y376898D01*
Y374899D01*
X340499Y373899D01*
X337500D01*
X347497Y371900D02*
X343498D01*
X347497Y375899D01*
Y376898D01*
X346497Y377898D01*
X344498D01*
X343498Y376898D01*
X152500Y371900D02*
Y377898D01*
X155499D01*
X156499Y376898D01*
Y374899D01*
X155499Y373899D01*
X152500D01*
X158498Y376898D02*
X159498Y377898D01*
X161497D01*
X162497Y376898D01*
Y375899D01*
X161497Y374899D01*
X160497D01*
X161497D01*
X162497Y373899D01*
Y372900D01*
X161497Y371900D01*
X159498D01*
X158498Y372900D01*
X137500Y399997D02*
X144165D01*
X140832D01*
Y390000D01*
X147497Y399997D02*
Y390000D01*
Y394998D01*
X154161D01*
Y399997D01*
Y390000D01*
X157493Y399997D02*
X160826D01*
X159160D01*
Y390000D01*
X157493D01*
X160826D01*
X172489Y398331D02*
X170823Y399997D01*
X167490D01*
X165824Y398331D01*
Y396665D01*
X167490Y394998D01*
X170823D01*
X172489Y393332D01*
Y391666D01*
X170823Y390000D01*
X167490D01*
X165824Y391666D01*
X192482Y398331D02*
X190816Y399997D01*
X187484D01*
X185818Y398331D01*
Y396665D01*
X187484Y394998D01*
X190816D01*
X192482Y393332D01*
Y391666D01*
X190816Y390000D01*
X187484D01*
X185818Y391666D01*
X195815Y399997D02*
X199147D01*
X197481D01*
Y390000D01*
X195815D01*
X199147D01*
X204145Y399997D02*
Y390000D01*
X209143D01*
X210810Y391666D01*
Y398331D01*
X209143Y399997D01*
X204145D01*
X220806D02*
X214142D01*
Y390000D01*
X220806D01*
X214142Y394998D02*
X217474D01*
X234135Y390000D02*
Y399997D01*
X240800Y390000D01*
Y399997D01*
X250797D02*
X244132D01*
Y390000D01*
X250797D01*
X244132Y394998D02*
X247464D01*
X254129Y390000D02*
Y396665D01*
X257461Y399997D01*
X260793Y396665D01*
Y390000D01*
Y394998D01*
X254129D01*
X264126Y390000D02*
Y399997D01*
X269124D01*
X270790Y398331D01*
Y394998D01*
X269124Y393332D01*
X264126D01*
X267458D02*
X270790Y390000D01*
X284119Y399997D02*
Y391666D01*
X285785Y390000D01*
X289118D01*
X290784Y391666D01*
Y399997D01*
X300781Y398331D02*
X299114Y399997D01*
X295782D01*
X294116Y398331D01*
Y396665D01*
X295782Y394998D01*
X299114D01*
X300781Y393332D01*
Y391666D01*
X299114Y390000D01*
X295782D01*
X294116Y391666D01*
X304113Y399997D02*
Y390000D01*
X309111D01*
X310777Y391666D01*
Y393332D01*
X309111Y394998D01*
X304113D01*
X309111D01*
X310777Y396665D01*
Y398331D01*
X309111Y399997D01*
X304113D01*
X324106Y390000D02*
Y399997D01*
X329105D01*
X330771Y398331D01*
Y394998D01*
X329105Y393332D01*
X324106D01*
X339102Y399997D02*
X335769D01*
X334103Y398331D01*
Y391666D01*
X335769Y390000D01*
X339102D01*
X340768Y391666D01*
Y398331D01*
X339102Y399997D01*
X344100Y390000D02*
Y399997D01*
X349098D01*
X350764Y398331D01*
Y394998D01*
X349098Y393332D01*
X344100D01*
X347432D02*
X350764Y390000D01*
X354097Y399997D02*
X360761D01*
X357429D01*
Y390000D01*
X182999Y362500D02*
Y368498D01*
X180000Y365499D01*
X183999D01*
X130000Y362500D02*
X131999D01*
X131000D01*
Y368498D01*
X130000Y367498D01*
M02*
