%FSLAX25Y25*%
%MOIN*%
G70*
G01*
G75*
G04 Layer_Color=65535*
%ADD10C,0.00800*%
%ADD11C,0.07000*%
%ADD12C,0.05000*%
%ADD13C,0.01000*%
D13*
X437000Y357898D02*
Y351900D01*
Y354899D01*
X440999D01*
Y357898D01*
Y351900D01*
X442998Y357898D02*
Y351900D01*
X444997Y353899D01*
X446997Y351900D01*
Y357898D01*
X448996D02*
Y351900D01*
X452995D01*
X457993D02*
Y357898D01*
X454994Y354899D01*
X458993D01*
X147100Y75998D02*
Y70000D01*
Y72999D01*
X151099D01*
Y75998D01*
Y70000D01*
X153098Y75998D02*
Y70000D01*
X155097Y71999D01*
X157097Y70000D01*
Y75998D01*
X159096D02*
Y70000D01*
X163095D01*
X165094Y74998D02*
X166094Y75998D01*
X168093D01*
X169093Y74998D01*
Y73999D01*
X168093Y72999D01*
X167094D01*
X168093D01*
X169093Y71999D01*
Y71000D01*
X168093Y70000D01*
X166094D01*
X165094Y71000D01*
X147100Y462898D02*
Y456900D01*
Y459899D01*
X151099D01*
Y462898D01*
Y456900D01*
X153098Y462898D02*
Y456900D01*
X155097Y458899D01*
X157097Y456900D01*
Y462898D01*
X159096D02*
Y456900D01*
X163095D01*
X169093D02*
X165094D01*
X169093Y460899D01*
Y461898D01*
X168093Y462898D01*
X166094D01*
X165094Y461898D01*
X47000Y357898D02*
Y351900D01*
Y354899D01*
X50999D01*
Y357898D01*
Y351900D01*
X52998Y357898D02*
Y351900D01*
X54997Y353899D01*
X56997Y351900D01*
Y357898D01*
X58996D02*
Y351900D01*
X62995D01*
X64994D02*
X66993D01*
X65994D01*
Y357898D01*
X64994Y356898D01*
X344600Y377898D02*
Y371900D01*
Y374899D01*
X348599D01*
Y377898D01*
Y371900D01*
X353597D02*
Y377898D01*
X350598Y374899D01*
X354597D01*
X324600Y377898D02*
Y371900D01*
Y374899D01*
X328599D01*
Y377898D01*
Y371900D01*
X330598Y376898D02*
X331598Y377898D01*
X333597D01*
X334597Y376898D01*
Y375899D01*
X333597Y374899D01*
X332597D01*
X333597D01*
X334597Y373899D01*
Y372900D01*
X333597Y371900D01*
X331598D01*
X330598Y372900D01*
X159600Y377898D02*
Y371900D01*
Y374899D01*
X163599D01*
Y377898D01*
Y371900D01*
X169597D02*
X165598D01*
X169597Y375899D01*
Y376898D01*
X168597Y377898D01*
X166598D01*
X165598Y376898D01*
X139600Y377898D02*
Y371900D01*
Y374899D01*
X143599D01*
Y377898D01*
Y371900D01*
X145598D02*
X147597D01*
X146598D01*
Y377898D01*
X145598Y376898D01*
M02*
