M48
;Layer_Color=9474304
;FILE_FORMAT=2:5
INCH,LZ
;TYPE=PLATED
T1F00S00C0.02800
T2F00S00C0.04331
%
T01
X02348Y0074
X02448
X03775Y0145
Y0155
X031Y0266
Y0275
Y0284
Y0293
Y0302
Y0311
X0301Y03215
X02973Y02789
X0225Y028
X0215
Y029
X02155Y0245
X0226Y02484
X0195Y0245
X0185
X02Y0238
X0195Y0225
X0205
X02135
Y0215
X0205
X0195
Y0195
X0205
X02135
Y0205
X01988Y01852
X012Y0315
X011Y0325
Y0335
X01108Y03431
X01175Y035
X01312
X01245Y03431
X012Y0335
Y0325
X01902Y03398
X0215Y03251
X0225Y0335
T02
X0049916Y0155
Y0165
X006
Y0155
X01425
X01525
Y0145
X01425
X01425Y0135
X01525
X01625
X01725
Y0145
X01625
X01625Y0155
X01725
Y0165
X01625
X01525
X01425
X015Y006
Y005
X016
Y006
X017
X018
Y005
X017
X019
X02
X021
Y006
X022
Y005
X023
X024
X025
Y006
X026
Y005
X024Y006
X023
X02
X019
X027
Y005
X028
Y006
X029
X03
X031
X032
X033
X034
Y0049916
X033
X032
X031
X03Y005
X029
X03275Y0135
X03375
Y0145
X03275
X03275Y0155
X03375
Y0165
X03275
X03475
X03575
Y0155
X03475
X03475Y0145
X03575
Y0135
X03475
X0439917Y0155
Y0165
X045
Y0155
Y0175
Y0185
Y0195
X044
Y0205
Y0215
Y0225
X045
Y0215
Y0205
Y0235
Y0245
X044
Y0235
Y0255
X045
Y0265
Y0275
Y0285
X044
Y0275
Y0265
Y0295
X045
Y0305
Y0315
X044
Y0305
X0439917Y0185
Y0175
X03575
X03475
X03375
Y0185
X03275
X03275Y0195
X03375
Y0205
X03275
X03275Y0215
Y0225
Y0235
X03375
Y0245
Y0255
X03275
Y0265
X03375
Y0275
Y0285
Y0295
X03275
Y0305
X03375
Y0315
X03275
X03475
X03575
Y0305
X03475
Y0295
Y0285
Y0275
X03575
Y0285
Y0295
Y0265
X03475
Y0255
Y0245
X03575
Y0235
Y0225
Y0215
X03475
X03375
Y0225
X03475
Y0235
X03275Y0245
Y0275
Y0285
X03575Y0255
Y0205
X03475
X03475Y0195
X03575
Y0185
X03475
X03275Y0175
X01725
X01625
X01525
Y0185
X01425
X01425Y0195
X01525
Y0205
X01425
X01425Y0215
Y0225
Y0235
X01525
Y0245
Y0255
X01425
Y0265
X01525
Y0275
Y0285
Y0295
X01425
Y0305
X01525
Y0315
X01425
X01625
X01725
Y0305
X01625
Y0295
Y0285
Y0275
X01725
Y0285
Y0295
Y0265
Y0255
Y0245
X01625
Y0235
Y0225
X01525
Y0215
X01625
X01725
Y0225
Y0235
X01625Y0255
Y0265
X01425Y0275
Y0285
Y0245
X01625Y0205
X01725
Y0195
Y0185
X01625
X01625Y0195
X01425Y0175
X006
Y0185
Y0195
X005
Y0205
Y0215
Y0225
X006
Y0215
Y0205
Y0235
Y0245
X005
Y0235
Y0255
X006
Y0265
Y0275
Y0285
X005
Y0275
Y0265
Y0295
X006
Y0305
Y0315
X005
Y0305
X0049916Y0185
Y0175
X005Y0325
Y0335
Y0345
X006
Y0335
Y0325
X01425
X01525
Y0335
Y0345
Y0355
X01425
Y0365
X01525
X01625
X01725
Y0355
Y0345
Y0335
X01625
Y0345
Y0355
X01425Y0345
Y0335
X01625Y0325
X01725
X017Y044
X016
X015
Y045
X016
X017
X018
Y044
X019
X02
X021
Y045
X022
Y044
X023
X024
X025
Y045
X026
Y044
X024Y045
X023
X02
X019
X027
Y044
X028
Y045
X029
X03
X031
X032
X033
X034
Y0439917
X033
X032
X031
X03Y044
X029
X03275Y0365
Y0355
X03375
Y0365
X03475
X03575
Y0355
Y0345
Y0335
X03475
X03375
Y0325
X03275
Y0335
Y0345
X03375
X03475
Y0355
Y0325
X03575
X044
Y0335
Y0345
X045
Y0335
Y0325
M30
