M48
;Layer_Color=9474304
;FILE_FORMAT=2:5
INCH,LZ
;TYPE=PLATED
T1F00S00C0.02800
T2F00S00C0.04331
%
T01
X02348Y0074
X02448
X03775Y0145
Y0155
X031Y0266
Y0275
Y0284
Y0293
Y0302
Y0311
X0301Y03215
X02973Y02789
X0225Y028
X0215
Y029
X02155Y0245
X0226Y02484
X0195Y0245
X0185
X02Y0238
X0205Y0225
X02135
Y0215
X0205
X0195
Y0225
Y0195
X0205
X02135
Y0205
X01988Y01852
X012Y0315
X011Y0325
Y0335
X01108Y03431
X01175Y035
X01312
X01245Y03431
X012Y0335
Y0325
X01902Y03398
X0215Y03251
X0225Y0335
T02
X0049916Y0155
Y0165
X006
Y0155
X014372
X015372
Y0165
X014372
Y0145
X015372
Y0135
X014372
X0163721
X0173721
Y0145
X0163721
X0163721Y0155
X0173721
Y0165
X0163721
X016Y006
X017
Y005
X018
X019
Y006
X02
Y005
X021
X022
X023
Y006
X024
Y005
X025
X026
Y006
X025
X022
X021
X018
X016Y005
X015
Y006
X027
X028
X029
Y005
X03
Y006
X031
X032
X033
X034
Y0049916
X033
X032
X031
X028Y005
X027
X0326279Y0135
X033628
Y0145
X0326279
X0326279Y0155
X033628
Y0165
X0326279
X034628
X0356279
Y0155
Y0145
X034628
X034628Y0135
X0356279
X034628Y0155
X0439917
Y0165
X045
Y0155
Y0175
Y0185
Y0195
Y0205
X044
Y0195
X0439917Y0185
Y0175
X044Y0215
X045
Y0225
Y0235
X044
Y0245
Y0255
Y0265
X045
Y0255
Y0245
X044Y0225
Y0275
X045
Y0285
Y0295
Y0305
X044
Y0295
Y0285
Y0315
X045
X0356279
Y0305
Y0295
X034628
X033628
Y0285
Y0275
X0326279
Y0285
Y0295
Y0305
Y0315
X033628
Y0305
X034628
Y0315
Y0285
X0356279
Y0275
Y0265
Y0255
X034628
X033628
Y0245
X0326279
Y0235
Y0225
Y0215
X033628
Y0225
Y0235
X034628
X0356279
Y0245
X034628
Y0265
X033628
X0326279
Y0255
X034628Y0275
Y0225
X0356279
Y0215
Y0205
X034628
X033628
X0326279
X0326279Y0195
X033628
Y0185
X0326279
X0326279Y0175
X033628
X034628
X0356279
Y0185
X034628
X034628Y0195
X0356279
X034628Y0215
X0173721
Y0205
X0163721
X015372
X014372
X014372Y0215
X015372
Y0225
X014372
Y0235
Y0245
X015372
Y0235
X0163721
X0173721
Y0245
X0163721
Y0255
X015372
Y0265
Y0275
X014372
Y0285
X015372
Y0295
Y0305
Y0315
X014372
Y0305
Y0295
X0163721
X0173721
Y0305
X0163721
Y0315
X0173721
Y0285
X0163721
Y0275
Y0265
X0173721
Y0275
Y0255
X014372
Y0265
X0163721Y0225
X0173721
X0163721Y0215
Y0195
X015372
Y0185
X014372
X014372Y0175
X015372
X0163721
X0173721
Y0185
X0163721
X0173721Y0195
X014372
X006
Y0205
X005
Y0195
X0049916Y0185
Y0175
X006
Y0185
Y0215
X005
Y0225
Y0235
X006
Y0245
Y0255
Y0265
X005
Y0255
Y0245
X006Y0225
Y0275
X005
Y0285
Y0295
Y0305
X006
Y0295
Y0285
Y0315
X005
Y0325
X006
Y0335
X005
Y0345
X006
X014372
Y0335
X015372
Y0345
Y0355
Y0365
X014372
Y0355
X0163721
X0173721
Y0365
X0163721
Y0345
X0173721
Y0335
Y0325
X0163721
X015372
X014372
X0163721Y0335
X016Y044
X017
Y045
X018
X019
Y044
X02
Y045
X021
X022
X023
Y044
X024
Y045
X025
X026
Y044
X025
X022
X021
X018
X016Y045
X015
Y044
X027
X028
X029
Y045
X03
Y044
X031Y0439917
X032
X033
X034
Y045
X033
X032
X031
X028
X027
X0326279Y0365
X033628
Y0355
Y0345
Y0335
X0326279
Y0345
Y0355
X034628
X0356279
Y0365
X034628
Y0345
X0356279
Y0335
Y0325
X034628
X033628
X0326279
X034628Y0335
X044
Y0325
X045
Y0335
Y0345
X044
M30
