%FSLAX25Y25*%
%MOIN*%
G70*
G01*
G75*
G04 Layer_Physical_Order=1*
G04 Layer_Color=255*
%ADD10C,0.00800*%
%ADD11C,0.07000*%
%ADD12C,0.05000*%
D10*
X59000Y98600D02*
Y155000D01*
X259600Y439600D02*
X267000Y432200D01*
X259100Y440100D02*
X259600Y439600D01*
X173721Y325000D02*
X215000D01*
X375700Y154200D02*
Y155000D01*
X44600Y249600D02*
X50000Y255000D01*
X38600Y249600D02*
X44600D01*
X32300Y255900D02*
X38600Y249600D01*
X305700Y458800D02*
X309100Y455400D01*
X302200Y458800D02*
X305700D01*
X298800Y455400D02*
X302200Y458800D01*
X309100Y455400D02*
X324600D01*
X295700D02*
X298800D01*
X296800Y475700D02*
Y477900D01*
X293500Y472400D02*
X296800Y475700D01*
X293500Y481200D02*
X296800Y477900D01*
X383900Y144200D02*
Y158400D01*
X382300Y160000D02*
X383900Y158400D01*
X353600Y160000D02*
X382300D01*
X356279Y195000D02*
X389700Y161580D01*
X346280Y155000D02*
X351379Y149900D01*
X346280Y195000D02*
X351300Y189980D01*
Y162300D02*
Y189980D01*
Y162300D02*
X353600Y160000D01*
X341300Y230020D02*
X346280Y235000D01*
X341300Y142900D02*
Y230020D01*
Y142900D02*
X344100Y140100D01*
X310200Y181079D02*
X326279Y165000D01*
X314300Y196979D02*
X326279Y185000D01*
X321180Y210100D02*
X331179D01*
X291300Y239980D02*
X321180Y210100D01*
X291300Y239980D02*
Y246300D01*
X331179Y210100D02*
X336280Y205000D01*
X395700Y119900D02*
Y165579D01*
X372500Y188779D02*
X395700Y165579D01*
X372500Y188779D02*
Y218779D01*
X395800Y182600D02*
X419900D01*
X393600Y184800D02*
X395800Y182600D01*
X393600Y184800D02*
Y187700D01*
X356279Y235000D02*
X372500Y218779D01*
X316300Y235000D02*
X326279D01*
X295400Y255900D02*
X316300Y235000D01*
X295400Y255900D02*
Y269600D01*
X331300Y229979D02*
X336280Y225000D01*
X330100Y240100D02*
X331300Y238900D01*
Y229979D02*
Y238900D01*
Y289980D02*
X336280Y285000D01*
X331300Y289980D02*
Y317900D01*
X329300Y319900D02*
X331300Y317900D01*
X346280Y275000D02*
X351300Y269980D01*
Y262700D02*
Y269980D01*
Y262700D02*
X353900Y260100D01*
X346280Y315000D02*
X351300Y320021D01*
X356279Y315000D02*
X372000Y330720D01*
X321800Y319900D02*
X329300D01*
X331300Y329979D02*
X336280Y325000D01*
X356279Y355000D02*
X365500Y364220D01*
X351300Y375500D02*
X354600Y378800D01*
X351300Y320021D02*
Y375500D01*
X329700Y359900D02*
X331300Y358300D01*
Y329979D02*
Y358300D01*
X315200Y359900D02*
X329700D01*
X341200Y360080D02*
X346280Y355000D01*
X341200Y375500D02*
X344500Y378800D01*
X341200Y360080D02*
Y375500D01*
X137400Y148679D02*
X143720Y155000D01*
X153720D02*
X158700Y150021D01*
Y126800D02*
Y150021D01*
X155700Y123800D02*
X158700Y126800D01*
X148700Y189980D02*
X153720Y195000D01*
X148700Y127800D02*
Y189980D01*
X145400Y124500D02*
X148700Y127800D01*
X130600Y181879D02*
X143720Y195000D01*
X123700Y214980D02*
X143720Y235000D01*
X123700Y162800D02*
Y214980D01*
X153720Y235000D02*
X158700Y239980D01*
X156000Y259900D02*
X158700Y257200D01*
Y239980D02*
Y257200D01*
X163721Y155000D02*
X168621Y150100D01*
X163721Y195000D02*
X168621Y190100D01*
X163721Y235000D02*
X168821Y229900D01*
X163721Y275000D02*
X168700Y270021D01*
Y261900D02*
Y270021D01*
Y261900D02*
X170500Y260100D01*
X205700D01*
X148820Y319900D02*
X153720Y315000D01*
X148700Y280020D02*
X153720Y275000D01*
X148700Y280020D02*
Y308500D01*
X147300Y309900D02*
X148700Y308500D01*
X133100Y309900D02*
X147300D01*
X138620Y300100D02*
X143720Y295000D01*
X163721Y315000D02*
X168700Y319980D01*
Y368300D02*
X170300Y369900D01*
X168700Y319980D02*
Y368300D01*
X170300Y369900D02*
X185000D01*
X158700Y360020D02*
X163721Y355000D01*
X129200Y398300D02*
X158700Y368800D01*
Y360020D02*
Y368800D01*
X148700Y360020D02*
X153720Y355000D01*
X129000Y389200D02*
X148700Y369500D01*
Y360020D02*
Y369500D01*
X173721Y265000D02*
X192600D01*
X173721Y185000D02*
X198600D01*
X173721Y205000D02*
X192700D01*
X173721Y275000D02*
X183400D01*
X445100Y261800D02*
Y298100D01*
X443400Y260100D02*
X445100Y261800D01*
X353900Y260100D02*
X443400D01*
X446900Y299900D02*
X460000D01*
X445100Y298100D02*
X446900Y299900D01*
X371600Y131900D02*
X383900Y144200D01*
X371600Y56000D02*
Y131900D01*
X388100Y61200D02*
X395500Y53800D01*
Y46300D02*
X397600Y44200D01*
X395500Y46300D02*
Y53800D01*
X397600Y44200D02*
X412300D01*
X382700Y56300D02*
X389500Y49500D01*
Y42000D02*
Y49500D01*
X412300Y44200D02*
X423100Y33400D01*
X389500Y42000D02*
X391600Y39900D01*
X408200D01*
X420300Y27800D01*
X472300Y35100D02*
Y191400D01*
X468700Y195000D02*
X472300Y191400D01*
X450000Y195000D02*
X468700D01*
X470600Y33400D02*
X472300Y35100D01*
X423100Y33400D02*
X470600D01*
X420300Y27800D02*
X470600D01*
X405300Y35500D02*
X418600Y22200D01*
X470600Y27800D02*
X472300Y26100D01*
Y23900D02*
Y26100D01*
X470600Y22200D02*
X472300Y23900D01*
X418600Y22200D02*
X470600D01*
X371600Y56000D02*
X373900Y53700D01*
X379200D02*
X384500Y48400D01*
X373900Y53700D02*
X379200D01*
X387300Y35500D02*
X405300D01*
X384500Y38300D02*
X387300Y35500D01*
X384500Y38300D02*
Y48400D01*
X379300Y33600D02*
Y46100D01*
X371500D02*
X373800Y48400D01*
X377000D01*
X379300Y46100D01*
X371500Y29000D02*
Y46100D01*
Y29000D02*
X373800Y26700D01*
X415100Y19100D02*
X473900D01*
X402900Y31300D02*
X415100Y19100D01*
X381600Y31300D02*
X402900D01*
X379300Y33600D02*
X381600Y31300D01*
X373800Y26700D02*
X399200D01*
X401500Y24400D01*
Y21400D02*
Y24400D01*
X399200Y19100D02*
X401500Y21400D01*
X366300Y19100D02*
X399200D01*
X476200Y21400D02*
Y232600D01*
X473800Y235000D02*
X476200Y232600D01*
X450000Y235000D02*
X473800D01*
X364000Y21400D02*
X366300Y19100D01*
X473900D02*
X476200Y21400D01*
X364000D02*
Y137200D01*
X361100Y140100D02*
X364000Y137200D01*
X344100Y140100D02*
X361100D01*
X314300Y196979D02*
Y208700D01*
X365500Y364220D02*
Y372300D01*
X322900Y240100D02*
X330100D01*
X168621Y150100D02*
X182600D01*
X168621Y190100D02*
X218000D01*
X122900Y259900D02*
X156000D01*
X130600Y135300D02*
Y181879D01*
X137400Y129100D02*
Y148679D01*
X136400Y128100D02*
X137400Y129100D01*
X153100Y123800D02*
X155700D01*
X239100Y20400D02*
X241500Y22800D01*
X239100Y17300D02*
Y20400D01*
Y17300D02*
X241500Y14900D01*
X279000D01*
X281400Y12500D01*
Y9400D02*
Y12500D01*
X279000Y7000D02*
X281400Y9400D01*
X237300Y7000D02*
X279000D01*
X234900Y9400D02*
X237300Y7000D01*
X234900Y9400D02*
Y24200D01*
X252000Y165900D02*
X253300Y164600D01*
Y162200D02*
Y164600D01*
X216100Y125000D02*
X253300Y162200D01*
X249000Y165900D02*
X252000D01*
X212400Y129300D02*
X249000Y165900D01*
X208200Y133100D02*
X253100Y178000D01*
Y199300D01*
X263200Y209400D01*
X275700Y243900D02*
X281100Y249300D01*
X275700Y232200D02*
Y243900D01*
X263200Y219700D02*
X275700Y232200D01*
X263200Y209400D02*
Y219700D01*
X281100Y249300D02*
X288300D01*
X291300Y246300D01*
X287500Y260600D02*
Y265400D01*
X284400Y268500D02*
X287500Y265400D01*
X281700Y268500D02*
X284400D01*
X278600Y265400D02*
X281700Y268500D01*
X278600Y257900D02*
Y265400D01*
X185600Y99400D02*
X203600Y117400D01*
X185600Y85000D02*
Y99400D01*
Y85000D02*
X199500Y71100D01*
X208900D01*
X220000Y60000D01*
X203600Y117400D02*
Y136000D01*
X249300Y181700D01*
Y202100D01*
X259300Y212100D01*
Y221100D01*
X271900Y233700D01*
Y245000D01*
X287500Y260600D01*
X267600Y246900D02*
X278600Y257900D01*
X263600Y236700D02*
Y247700D01*
X252100Y225200D02*
X263600Y236700D01*
X252100Y217600D02*
Y225200D01*
X267600Y235100D02*
Y246900D01*
X255700Y223200D02*
X267600Y235100D01*
X255700Y215300D02*
Y223200D01*
X245600Y205200D02*
X255700Y215300D01*
X245600Y184800D02*
Y205200D01*
X199400Y138600D02*
X245600Y184800D01*
X199400Y133500D02*
Y138600D01*
X198500Y132600D02*
X199400Y133500D01*
X196800Y132600D02*
X198500D01*
X195700Y133700D02*
X196800Y132600D01*
X195700Y133700D02*
Y140300D01*
X241600Y186200D01*
Y207100D01*
X252100Y217600D01*
X263600Y247700D02*
X275200Y259300D01*
Y266600D01*
X280500Y271900D01*
X293100D02*
X295400Y269600D01*
X280500Y271900D02*
X293100D01*
X198500Y128600D02*
X199400Y127700D01*
X196900Y128600D02*
X198500D01*
X196000Y127700D02*
X196900Y128600D01*
X199400Y119500D02*
Y127700D01*
X196000Y122700D02*
Y127700D01*
X164600Y65400D02*
X170000Y60000D01*
X156800Y65400D02*
X164600D01*
X152500Y69700D02*
X156800Y65400D01*
X152500Y69700D02*
Y72600D01*
X199400Y119500D01*
X124000Y50700D02*
X196000Y122700D01*
X124000Y24700D02*
Y50700D01*
X121400Y22100D02*
X124000Y24700D01*
X95000Y22100D02*
X121400D01*
X93100Y24000D02*
X95000Y22100D01*
X93100Y24000D02*
Y26400D01*
X192300Y125600D01*
Y141800D01*
X238500Y188000D01*
Y209200D01*
X248700Y219400D01*
Y227100D01*
X260300Y238700D01*
Y249200D01*
X271900Y260800D01*
Y267900D01*
X284500Y280500D01*
Y307400D01*
X292400Y315300D02*
X295800D01*
X284500Y307400D02*
X292400Y315300D01*
X297400Y301300D02*
Y313700D01*
X295800Y315300D02*
X297400Y313700D01*
Y301300D02*
X305700Y293000D01*
X310000D01*
X315100Y247900D02*
X322900Y240100D01*
X305100Y319200D02*
X306400Y317900D01*
X308900D01*
X310100Y319100D01*
X305100Y319200D02*
Y329200D01*
X281400Y310600D02*
X301300Y330500D01*
X303800D01*
X305100Y329200D01*
X310100Y319100D02*
Y340300D01*
X311300Y341500D01*
X146300Y17900D02*
X150700D01*
X160000Y27200D01*
X134000Y16200D02*
X136400D01*
X138100Y17900D01*
X140500D01*
X142200Y16200D01*
X144600D02*
X146300Y17900D01*
X142200Y16200D02*
X144600D01*
X117600D02*
X120000D01*
X121700Y17900D01*
X124100D01*
X125800Y16200D01*
X132300Y17900D02*
X134000Y16200D01*
X129900Y17900D02*
X132300D01*
X128200Y16200D02*
X129900Y17900D01*
X125800Y16200D02*
X128200D01*
X101200D02*
X103600D01*
X105300Y17900D01*
X107700D01*
X109400Y16200D01*
X115900Y17900D02*
X117600Y16200D01*
X113500Y17900D02*
X115900D01*
X111800Y16200D02*
X113500Y17900D01*
X109400Y16200D02*
X111800D01*
X93000D02*
X95400D01*
X97100Y17900D01*
X99500D01*
X101200Y16200D01*
X82800Y21600D02*
X188800Y127600D01*
X91300Y17900D02*
X93000Y16200D01*
X88900Y17900D02*
X91300D01*
X87200Y16200D02*
X88900Y17900D01*
X84800Y16200D02*
X87200D01*
X160000Y27200D02*
Y50000D01*
X311300Y341500D02*
X313800D01*
X315100Y247900D02*
Y340200D01*
X82800Y18200D02*
X84800Y16200D01*
X82800Y18200D02*
Y21600D01*
X188800Y127600D02*
Y143500D01*
X235200Y189900D01*
Y210800D01*
X245700Y221300D01*
Y229300D01*
X257200Y240800D01*
Y250900D01*
X268600Y262300D01*
Y269300D01*
X281400Y282100D01*
Y310600D01*
X313800Y341500D02*
X315100Y340200D01*
X190000Y28300D02*
X200000Y38300D01*
X175000Y10000D02*
X178900Y13900D01*
Y17200D01*
X182800Y21100D01*
X186100D01*
X190000Y25000D02*
Y28300D01*
X186100Y21100D02*
X190000Y25000D01*
X317900Y352000D02*
X319700Y350200D01*
X315100Y352000D02*
X317900D01*
X278100Y315000D02*
X315100Y352000D01*
X319700Y322000D02*
Y350200D01*
X200000Y38300D02*
Y50000D01*
X83400Y12400D02*
X89700D01*
X81000Y10000D02*
X83400Y12400D01*
X89700D02*
X92100Y10000D01*
X161700D02*
X175000D01*
X144300D02*
X150600D01*
X153000Y12400D01*
X159300D01*
X161700Y10000D01*
X126900D02*
X133200D01*
X135600Y12400D01*
X141900D01*
X144300Y10000D01*
X109500D02*
X115800D01*
X118200Y12400D01*
X124500D01*
X126900Y10000D01*
X92100D02*
X98400D01*
X100800Y12400D01*
X107100D01*
X109500Y10000D01*
X72800Y16600D02*
X185600Y129400D01*
X74700Y10000D02*
X81000D01*
X72800Y11900D02*
X74700Y10000D01*
X72800Y11900D02*
Y16600D01*
X185600Y129400D02*
Y144900D01*
X232100Y191400D01*
Y212700D01*
X242600Y223200D01*
Y231400D01*
X253900Y242700D01*
Y252200D01*
X265500Y263800D01*
Y271000D01*
X278100Y283600D01*
Y315000D01*
X319700Y322000D02*
X321800Y319900D01*
X240000Y37000D02*
Y50000D01*
X210000Y7000D02*
X240000Y37000D01*
X72000Y7000D02*
X210000D01*
X68200Y10800D02*
X72000Y7000D01*
X68200Y10800D02*
Y17600D01*
X182500Y131900D01*
Y146000D01*
X228300Y191800D01*
Y213600D01*
X239300Y224600D01*
Y233300D01*
X250500Y244500D01*
Y253200D01*
X262400Y265100D01*
Y273000D01*
X274900Y285500D01*
Y319600D01*
X315200Y359900D01*
X407300Y271800D02*
Y334200D01*
X405800Y270300D02*
X407300Y271800D01*
X403100Y270300D02*
X405800D01*
X416500Y357000D02*
X420800D01*
X414100Y350300D02*
Y354600D01*
X425300Y365800D02*
X429600D01*
X435900Y390000D02*
X440200D01*
X424700Y378800D02*
X427100Y381200D01*
X424700Y374500D02*
Y378800D01*
X415900Y370000D02*
X418300Y372400D01*
X415900Y365700D02*
Y370000D01*
X397800Y366800D02*
X402100D01*
X395400Y364400D02*
X397800Y366800D01*
X402100D02*
X404200Y368900D01*
Y373200D02*
X406600Y375600D01*
X410900D02*
X413000Y377700D01*
Y382000D01*
X421800Y386500D02*
Y390800D01*
X424200Y393200D02*
X428500D01*
X430600Y395300D01*
Y399600D01*
X433000Y402000D02*
X437300D01*
X439100Y417400D02*
X441200Y419500D01*
Y423800D02*
X443600Y426200D01*
X447900D01*
X430300Y408600D02*
X432400Y410700D01*
Y415000D02*
X434800Y417400D01*
X439100D01*
X421500Y399800D02*
X423600Y401900D01*
X426000Y408600D02*
X430300D01*
X412700Y391000D02*
X414800Y393100D01*
Y397400D01*
X417200Y399800D01*
X403900Y382200D02*
X406000Y384300D01*
Y388600D01*
X408400Y391000D01*
X412700D01*
X395100Y373400D02*
X397200Y375500D01*
Y379800D01*
X399600Y382200D02*
X403900D01*
X376700Y374200D02*
X379100Y376600D01*
X383400D02*
X385500Y378700D01*
Y383000D01*
X387900Y385400D01*
X392200D01*
X401000Y394200D02*
X403100Y396300D01*
Y400600D02*
X405500Y403000D01*
X409800D02*
X411900Y405100D01*
Y409400D01*
X414300Y411800D01*
X420700Y418200D02*
X423100Y420600D01*
X429200Y440300D02*
X431600Y442700D01*
X435900D01*
X438000Y444800D01*
X422800Y433900D02*
X427100D01*
X420400Y427200D02*
Y431500D01*
X396400Y407500D02*
X400700D01*
X387600Y398700D02*
X391900D01*
X394000Y400800D02*
Y405100D01*
X385200Y392000D02*
Y396300D01*
X361000Y385200D02*
X363400Y387600D01*
X367700D01*
X419100Y289100D02*
X420700Y290700D01*
X423400D01*
X429100Y285000D01*
X419100Y272000D02*
Y289100D01*
X417500Y270400D02*
X419100Y272000D01*
X429100Y285000D02*
X440000D01*
X414800Y270400D02*
X417500D01*
X413200Y272000D02*
X414800Y270400D01*
X413200Y272000D02*
Y334200D01*
X407300D02*
X408900Y335800D01*
X411600D01*
X413200Y334200D01*
X401500Y271900D02*
X403100Y270300D01*
X401500Y271900D02*
Y350000D01*
X399900Y351600D02*
X401500Y350000D01*
X397200Y351600D02*
X399900D01*
X395600Y350000D02*
X397200Y351600D01*
X395600Y271900D02*
Y350000D01*
X394000Y270300D02*
X395600Y271900D01*
X391300Y270300D02*
X394000D01*
X389700Y271900D02*
X391300Y270300D01*
X389700Y271900D02*
Y358000D01*
X383800D02*
X385400Y359600D01*
X388100D01*
X389700Y358000D01*
X383800Y271900D02*
Y358000D01*
X377900Y271900D02*
X379500Y270300D01*
X382200D01*
X383800Y271900D01*
X377900D02*
Y360100D01*
X376300Y361700D02*
X377900Y360100D01*
X373600Y361700D02*
X376300D01*
X372000Y360100D02*
X373600Y361700D01*
X372000Y330720D02*
Y360100D01*
X431900Y354400D02*
X433500Y352800D01*
X428700Y354400D02*
X431900D01*
X421500Y347200D02*
X428700Y354400D01*
X433500Y331500D02*
Y352800D01*
Y331500D02*
X440000Y325000D01*
X414100Y350300D02*
X417200Y347200D01*
X421500D01*
X414100Y354600D02*
X416500Y357000D01*
X420800D02*
X422900Y359100D01*
Y363400D01*
X425300Y365800D01*
X429600D02*
X431700Y367900D01*
Y372200D01*
X434100Y374600D02*
X438400D01*
X431700Y372200D02*
X434100Y374600D01*
X438400D02*
X442600Y378800D01*
Y387600D01*
X440200Y390000D02*
X442600Y387600D01*
X431400Y381200D02*
X433500Y383300D01*
Y387600D01*
X435900Y390000D01*
X418300Y372400D02*
X422600D01*
X424700Y374500D01*
X427100Y381200D02*
X431400D01*
X409500Y363600D02*
X413800D01*
X415900Y365700D01*
X395400Y360100D02*
Y364400D01*
Y360100D02*
X400700Y354800D01*
X405000D01*
X407100Y356900D01*
Y361200D01*
X409500Y363600D01*
X404200Y368900D02*
Y373200D01*
X406600Y375600D02*
X410900D01*
X415400Y384400D02*
X419700D01*
X413000Y382000D02*
X415400Y384400D01*
X419700D02*
X421800Y386500D01*
Y390800D02*
X424200Y393200D01*
X430600Y399600D02*
X433000Y402000D01*
X439400Y408400D02*
X441800Y410800D01*
X446100D01*
X439400Y404100D02*
Y408400D01*
X437300Y402000D02*
X439400Y404100D01*
X447900Y426200D02*
X450300Y423800D01*
Y415000D02*
Y423800D01*
X446100Y410800D02*
X450300Y415000D01*
X441200Y419500D02*
Y423800D01*
X432400Y410700D02*
Y415000D01*
X423600Y401900D02*
Y406200D01*
X426000Y408600D01*
X417200Y399800D02*
X421500D01*
X397200Y379800D02*
X399600Y382200D01*
X390800Y373400D02*
X395100D01*
X388400Y371000D02*
X390800Y373400D01*
X388400Y366700D02*
Y371000D01*
X386300Y364600D02*
X388400Y366700D01*
X382000Y364600D02*
X386300D01*
X376700Y369900D02*
X382000Y364600D01*
X376700Y369900D02*
Y374200D01*
X379100Y376600D02*
X383400D01*
X392200Y385400D02*
X394300Y387500D01*
Y391800D01*
X396700Y394200D01*
X401000D01*
X403100Y396300D02*
Y400600D01*
X405500Y403000D02*
X409800D01*
X414300Y411800D02*
X418600D01*
X420700Y413900D01*
Y418200D01*
X423100Y420600D02*
X427400D01*
X429500Y422700D01*
Y427000D01*
X431900Y429400D01*
X445000Y438200D02*
X447100Y440300D01*
X440700Y438200D02*
X445000D01*
X438300Y435800D02*
X440700Y438200D01*
X438300Y431500D02*
Y435800D01*
X436200Y429400D02*
X438300Y431500D01*
X431900Y429400D02*
X436200D01*
X447100Y440300D02*
Y449100D01*
X444700Y451500D02*
X447100Y449100D01*
X440400Y451500D02*
X444700D01*
X438000Y449100D02*
X440400Y451500D01*
X438000Y444800D02*
Y449100D01*
X429200Y436000D02*
Y440300D01*
X427100Y433900D02*
X429200Y436000D01*
X420400Y431500D02*
X422800Y433900D01*
X418300Y425100D02*
X420400Y427200D01*
X414000Y425100D02*
X418300D01*
X411600Y422700D02*
X414000Y425100D01*
X411600Y418400D02*
Y422700D01*
X409500Y416300D02*
X411600Y418400D01*
X405200Y416300D02*
X409500D01*
X402800Y413900D02*
X405200Y416300D01*
X402800Y409600D02*
Y413900D01*
X400700Y407500D02*
X402800Y409600D01*
X394000Y405100D02*
X396400Y407500D01*
X391900Y398700D02*
X394000Y400800D01*
X385200Y396300D02*
X387600Y398700D01*
X383100Y389900D02*
X385200Y392000D01*
X378800Y389900D02*
X383100D01*
X376400Y387500D02*
X378800Y389900D01*
X376400Y383200D02*
Y387500D01*
X374300Y381100D02*
X376400Y383200D01*
X370000Y381100D02*
X374300D01*
X367600Y378700D02*
X370000Y381100D01*
X367600Y374400D02*
Y378700D01*
X365500Y372300D02*
X367600Y374400D01*
X387400Y407300D02*
Y411600D01*
X464300Y393300D02*
X480900D01*
X461500Y390500D02*
X464300Y393300D01*
X461500Y301400D02*
Y390500D01*
X454700Y335000D02*
X456100Y336400D01*
X451900Y464300D02*
X456100Y460100D01*
Y336400D02*
Y460100D01*
X451900Y464300D02*
Y467000D01*
X454600Y469700D01*
X458100D01*
X464800Y463000D01*
Y400100D02*
Y463000D01*
Y400100D02*
X467200Y397700D01*
X470900D02*
X473300Y400100D01*
X470900Y470000D02*
X473300Y467600D01*
Y400100D02*
Y467600D01*
X467200Y397700D02*
X470900D01*
X460000Y299900D02*
X461500Y301400D01*
X450000Y335000D02*
X454700D01*
X460600Y475400D02*
X463000Y477800D01*
X460600Y472500D02*
Y475400D01*
Y472400D02*
X463000Y470000D01*
X463200D02*
X470900D01*
X463000Y477800D02*
X479700D01*
X482100Y394500D02*
Y475400D01*
X479700Y477800D02*
X482100Y475400D01*
X480900Y393300D02*
X482100Y394500D01*
X473000Y349800D02*
Y351900D01*
X471300Y332900D02*
X473000Y334600D01*
Y336700D01*
X471300Y330800D02*
Y332900D01*
Y302900D02*
Y325300D01*
Y346000D02*
X473000Y344300D01*
X471300Y338400D02*
Y340500D01*
X473000Y342200D02*
Y344300D01*
X471300Y340500D02*
X473000Y342200D01*
X471300Y325300D02*
X473000Y327000D01*
X471300Y338400D02*
X473000Y336700D01*
Y327000D02*
Y329100D01*
X471300Y330800D02*
X473000Y329100D01*
X471300Y348100D02*
X473000Y349800D01*
X471300Y346000D02*
Y348100D01*
Y353600D02*
X473000Y351900D01*
X471300Y363300D02*
X473000Y365000D01*
Y367100D01*
X471300Y361200D02*
Y363300D01*
Y353600D02*
Y355700D01*
Y376400D02*
X473000Y374700D01*
X471300Y368800D02*
Y370900D01*
X473000Y372600D02*
Y374700D01*
X471300Y370900D02*
X473000Y372600D01*
X471300Y355700D02*
X473000Y357400D01*
X471300Y368800D02*
X473000Y367100D01*
Y357400D02*
Y359500D01*
X471300Y361200D02*
X473000Y359500D01*
X471300Y378500D02*
X473000Y380200D01*
X471300Y376400D02*
Y378500D01*
X463400Y295000D02*
X471300Y302900D01*
X450000Y295000D02*
X463400D01*
X473000Y380200D02*
Y384400D01*
X479300Y380200D02*
Y384400D01*
X473000D02*
X474600Y386000D01*
X477700D01*
X479300Y384400D01*
Y380200D02*
X481000Y378500D01*
X479300Y372600D02*
Y374700D01*
X481000Y376400D01*
X479300Y357400D02*
X481000Y355700D01*
Y353600D02*
Y355700D01*
X479300Y365000D02*
X481000Y363300D01*
X479300Y351900D02*
X481000Y353600D01*
X479300Y367100D02*
X481000Y368800D01*
Y370900D01*
X479300Y365000D02*
Y367100D01*
Y372600D02*
X481000Y370900D01*
X479300Y349800D02*
Y351900D01*
Y357400D02*
Y359500D01*
X481000Y361200D02*
Y363300D01*
X479300Y359500D02*
X481000Y361200D01*
Y376400D02*
Y378500D01*
X479300Y349800D02*
X481000Y348100D01*
X479300Y342200D02*
Y344300D01*
X481000Y346000D01*
X479300Y327000D02*
X481000Y325300D01*
Y323200D02*
Y325300D01*
X479300Y334600D02*
X481000Y332900D01*
X479300Y321500D02*
X481000Y323200D01*
X479300Y336700D02*
X481000Y338400D01*
Y340500D01*
X479300Y334600D02*
Y336700D01*
Y342200D02*
X481000Y340500D01*
X479300Y319400D02*
Y321500D01*
Y327000D02*
Y329100D01*
X481000Y330800D02*
Y332900D01*
X479300Y329100D02*
X481000Y330800D01*
Y346000D02*
Y348100D01*
X479300Y319400D02*
X481000Y317700D01*
X487300Y323200D02*
X489000Y321500D01*
X487300Y313500D02*
Y317700D01*
X489000Y349800D02*
Y351900D01*
X487300Y353600D02*
X489000Y351900D01*
X487300Y332900D02*
X489000Y334600D01*
Y336700D01*
X487300Y330800D02*
Y332900D01*
Y323200D02*
Y325300D01*
Y346000D02*
X489000Y344300D01*
X487300Y338400D02*
Y340500D01*
X489000Y342200D02*
Y344300D01*
X487300Y340500D02*
X489000Y342200D01*
X487300Y325300D02*
X489000Y327000D01*
X487300Y338400D02*
X489000Y336700D01*
X487300Y376400D02*
Y378500D01*
Y384000D02*
X489000Y382300D01*
Y365000D02*
Y367100D01*
X487300Y353600D02*
Y355700D01*
Y376400D02*
X489000Y374700D01*
X487300Y368800D02*
Y370900D01*
Y355700D02*
X489000Y357400D01*
X487300Y408900D02*
X489000Y410600D01*
Y412700D01*
X487300Y406800D02*
Y408900D01*
Y414400D02*
X489000Y412700D01*
Y395400D02*
Y397500D01*
X487300Y391600D02*
X489000Y389900D01*
Y387800D02*
Y389900D01*
X487300Y401300D02*
X489000Y403000D01*
X487300Y399200D02*
X489000Y397500D01*
X487300Y439300D02*
X489000Y441000D01*
Y425800D02*
Y427900D01*
X487300Y422000D02*
Y424100D01*
Y414400D02*
Y416500D01*
X489000Y418200D02*
Y420300D01*
X487300Y437200D02*
X489000Y435500D01*
Y433400D02*
Y435500D01*
X487300Y431700D02*
X489000Y433400D01*
X487300Y416500D02*
X489000Y418200D01*
X487300Y460000D02*
X489000Y458300D01*
X487300Y446900D02*
X489000Y448600D01*
X487300Y462100D02*
X489000Y463800D01*
Y465900D01*
X487300Y460000D02*
Y462100D01*
Y467600D02*
X489000Y465900D01*
X460200Y484400D02*
X485700D01*
X457800Y477700D02*
Y482000D01*
X451400Y475600D02*
X455700D01*
X457800Y477700D01*
X442600Y466800D02*
X446900D01*
X440200Y460100D02*
Y464400D01*
X446900Y466800D02*
X449000Y468900D01*
X431400Y451300D02*
Y455600D01*
X438100Y458000D02*
X440200Y460100D01*
X425000Y449200D02*
X429300D01*
X420500Y440400D02*
X422600Y442500D01*
X407400Y431600D02*
X411700D01*
X405000Y424900D02*
Y429200D01*
X411700Y431600D02*
X413800Y433700D01*
X396200Y420400D02*
X398600Y422800D01*
X402900D02*
X405000Y424900D01*
X394100Y414000D02*
X396200Y416100D01*
X389800Y414000D02*
X394100D01*
X387400Y411600D02*
X389800Y414000D01*
X381000Y405200D02*
X385300D01*
X378600Y402800D02*
X381000Y405200D01*
X385300D02*
X387400Y407300D01*
X369800Y389700D02*
Y394000D01*
X376500Y396400D02*
X378600Y398500D01*
X367700Y387600D02*
X369800Y389700D01*
X481000Y313500D02*
Y317700D01*
Y313500D02*
X482600Y311900D01*
X485700D01*
X487300Y313500D01*
X489000Y327000D02*
Y329100D01*
X487300Y330800D02*
X489000Y329100D01*
X487300Y317700D02*
X489000Y319400D01*
Y321500D01*
Y357400D02*
Y359500D01*
X487300Y361200D02*
X489000Y359500D01*
X487300Y348100D02*
X489000Y349800D01*
X487300Y346000D02*
Y348100D01*
Y378500D02*
X489000Y380200D01*
Y382300D01*
X487300Y370900D02*
X489000Y372600D01*
Y374700D01*
X487300Y363300D02*
X489000Y365000D01*
X487300Y361200D02*
Y363300D01*
Y368800D02*
X489000Y367100D01*
Y403000D02*
Y405100D01*
X487300Y399200D02*
Y401300D01*
Y406800D02*
X489000Y405100D01*
X487300Y393700D02*
X489000Y395400D01*
X487300Y391600D02*
Y393700D01*
Y386100D02*
X489000Y387800D01*
X487300Y384000D02*
Y386100D01*
Y424100D02*
X489000Y425800D01*
X487300Y429600D02*
X489000Y427900D01*
X487300Y422000D02*
X489000Y420300D01*
Y448600D02*
Y450700D01*
X487300Y444800D02*
Y446900D01*
Y452400D02*
X489000Y450700D01*
Y441000D02*
Y443100D01*
X487300Y437200D02*
Y439300D01*
Y444800D02*
X489000Y443100D01*
X487300Y429600D02*
Y431700D01*
Y452400D02*
Y454500D01*
X489000Y456200D02*
Y458300D01*
X487300Y454500D02*
X489000Y456200D01*
X487300Y475200D02*
X489000Y473500D01*
X487300Y467600D02*
Y469700D01*
X489000Y471400D02*
Y473500D01*
X487300Y469700D02*
X489000Y471400D01*
X485700Y484400D02*
X489000Y481100D01*
Y479000D02*
Y481100D01*
X487300Y477300D02*
X489000Y479000D01*
X487300Y475200D02*
Y477300D01*
X457800Y482000D02*
X460200Y484400D01*
X440200Y464400D02*
X442600Y466800D01*
X449000Y473200D02*
X451400Y475600D01*
X449000Y468900D02*
Y473200D01*
X422600Y446800D02*
X425000Y449200D01*
X422600Y442500D02*
Y446800D01*
X433800Y458000D02*
X438100D01*
X431400Y455600D02*
X433800Y458000D01*
X429300Y449200D02*
X431400Y451300D01*
X405000Y429200D02*
X407400Y431600D01*
X416200Y440400D02*
X420500D01*
X413800Y438000D02*
X416200Y440400D01*
X413800Y433700D02*
Y438000D01*
X398600Y422800D02*
X402900D01*
X396200Y416100D02*
Y420400D01*
X372200Y396400D02*
X376500D01*
X369800Y394000D02*
X372200Y396400D01*
X378600Y398500D02*
Y402800D01*
X358900Y378800D02*
X361000Y380900D01*
Y385200D01*
X354600Y378800D02*
X358900D01*
X476900Y258700D02*
Y264000D01*
X475200Y265700D02*
Y267800D01*
Y290600D02*
X476900Y292300D01*
X475200Y288500D02*
Y290600D01*
X476900Y292300D02*
Y294400D01*
X475200Y280900D02*
Y283000D01*
X476900Y269500D02*
Y271600D01*
X475200Y275400D02*
X476900Y277100D01*
X475200Y273300D02*
Y275400D01*
X476900Y277100D02*
Y279200D01*
Y284700D02*
Y286800D01*
X482600Y301900D02*
X486300Y298200D01*
Y296100D02*
Y298200D01*
X484600Y292300D02*
Y294400D01*
X486300Y280900D02*
Y283000D01*
X484600Y284700D02*
X486300Y283000D01*
Y273300D02*
Y275400D01*
X484600Y269500D02*
X486300Y267800D01*
X484600Y269500D02*
Y271600D01*
X486300Y273300D01*
X484600Y264000D02*
X486300Y265700D01*
X494000Y267800D02*
X495700Y269500D01*
X494000Y265700D02*
Y267800D01*
Y275400D02*
X495700Y277100D01*
X494000Y273300D02*
Y275400D01*
Y273300D02*
X495700Y271600D01*
X494000Y283000D02*
X495700Y284700D01*
X494000Y280900D02*
Y283000D01*
Y280900D02*
X495700Y279200D01*
Y277100D02*
Y279200D01*
X494000Y290600D02*
X495700Y292300D01*
X494000Y288500D02*
Y290600D01*
Y288500D02*
X495700Y286800D01*
Y284700D02*
Y286800D01*
X494000Y296100D02*
Y298200D01*
Y296100D02*
X495700Y294400D01*
Y292300D02*
Y294400D01*
X494000Y303700D02*
Y305800D01*
Y313400D02*
X495700Y315100D01*
X494000Y311300D02*
X495700Y309600D01*
Y307500D02*
Y309600D01*
X494000Y321000D02*
X495700Y322700D01*
X494000Y318900D02*
X495700Y317200D01*
Y315100D02*
Y317200D01*
X494000Y326500D02*
Y328600D01*
X495700Y322700D02*
Y324800D01*
Y330300D02*
Y332400D01*
X494000Y343800D02*
X495700Y345500D01*
X494000Y341700D02*
Y343800D01*
Y341700D02*
X495700Y340000D01*
Y337900D02*
Y340000D01*
X494000Y349300D02*
Y351400D01*
Y349300D02*
X495700Y347600D01*
X494000Y359000D02*
X495700Y360700D01*
X494000Y356900D02*
Y359000D01*
X495700Y353100D02*
Y355200D01*
X494000Y366600D02*
X495700Y368300D01*
X494000Y364500D02*
Y366600D01*
Y364500D02*
X495700Y362800D01*
X494000Y372100D02*
Y374200D01*
Y372100D02*
X495700Y370400D01*
Y368300D02*
Y370400D01*
X494000Y381800D02*
X495700Y383500D01*
X494000Y379700D02*
Y381800D01*
Y389400D02*
X495700Y391100D01*
X494000Y387300D02*
Y389400D01*
Y397000D02*
X495700Y398700D01*
Y391100D02*
Y393200D01*
X494000Y402500D02*
Y404600D01*
Y402500D02*
X495700Y400800D01*
X494000Y410100D02*
X495700Y408400D01*
Y406300D02*
Y408400D01*
X494000Y419800D02*
X495700Y421500D01*
X494000Y417700D02*
Y419800D01*
Y417700D02*
X495700Y416000D01*
Y413900D02*
Y416000D01*
X494000Y427400D02*
X495700Y429100D01*
X494000Y425300D02*
Y427400D01*
Y425300D02*
X495700Y423600D01*
X494000Y435000D02*
X495700Y436700D01*
X494000Y432900D02*
Y435000D01*
Y448100D02*
Y450200D01*
Y448100D02*
X495700Y446400D01*
X494000Y450200D02*
X495700Y451900D01*
X494000Y455700D02*
X495700Y454000D01*
X494000Y463300D02*
Y465400D01*
Y463300D02*
X495700Y461600D01*
X494000Y470900D02*
X495700Y469200D01*
Y467100D02*
Y469200D01*
X494000Y480600D02*
X495700Y482300D01*
Y474700D02*
Y476800D01*
X458900Y493200D02*
X463200D01*
X456500Y486500D02*
Y490800D01*
X463200Y493200D02*
X465300Y495300D01*
X456500Y490800D02*
X458900Y493200D01*
X441300Y475600D02*
X445600D01*
X438900Y468900D02*
Y473200D01*
X430100Y464400D02*
X432500Y466800D01*
X436800D01*
X447700Y477700D02*
Y482000D01*
X445600Y475600D02*
X447700Y477700D01*
X423700Y458000D02*
X428000D01*
X421300Y451300D02*
Y455600D01*
X430100Y460100D02*
Y464400D01*
X428000Y458000D02*
X430100Y460100D01*
X421300Y455600D02*
X423700Y458000D01*
X406100Y440400D02*
X410400D01*
X403700Y433700D02*
Y438000D01*
X401600Y431600D02*
X403700Y433700D01*
X412500Y442500D02*
Y446800D01*
X410400Y440400D02*
X412500Y442500D01*
X403700Y438000D02*
X406100Y440400D01*
X388500Y422800D02*
X392800D01*
X386100Y416100D02*
Y420400D01*
X377300Y411600D02*
X379700Y414000D01*
X394900Y424900D02*
Y429200D01*
X392800Y422800D02*
X394900Y424900D01*
X386100Y420400D02*
X388500Y422800D01*
X362100Y396400D02*
X366400D01*
X368500Y398500D01*
X377300Y407300D02*
Y411600D01*
X375200Y405200D02*
X377300Y407300D01*
X350900Y385200D02*
X353300Y387600D01*
X357600D02*
X359700Y389700D01*
X454400Y484400D02*
X456500Y486500D01*
X450100Y484400D02*
X454400D01*
X447700Y482000D02*
X450100Y484400D01*
X438900Y473200D02*
X441300Y475600D01*
X436800Y466800D02*
X438900Y468900D01*
X419200Y449200D02*
X421300Y451300D01*
X414900Y449200D02*
X419200D01*
X412500Y446800D02*
X414900Y449200D01*
X397300Y431600D02*
X401600D01*
X394900Y429200D02*
X397300Y431600D01*
X384000Y414000D02*
X386100Y416100D01*
X379700Y414000D02*
X384000D01*
X368500Y398500D02*
Y402800D01*
X370900Y405200D01*
X375200D01*
X359700Y389700D02*
Y394000D01*
X362100Y396400D01*
X348800Y378800D02*
X350900Y380900D01*
X344500Y378800D02*
X348800D01*
X475200Y298200D02*
X478900Y301900D01*
X475200Y296100D02*
Y298200D01*
Y296100D02*
X476900Y294400D01*
X475200Y283000D02*
X476900Y284700D01*
X475200Y288500D02*
X476900Y286800D01*
X475200Y280900D02*
X476900Y279200D01*
X473200Y255000D02*
X476900Y258700D01*
X475200Y267800D02*
X476900Y269500D01*
X475200Y265700D02*
X476900Y264000D01*
X475200Y273300D02*
X476900Y271600D01*
X478900Y301900D02*
X482600D01*
X486300Y265700D02*
Y267800D01*
X484600Y279200D02*
X486300Y280900D01*
X484600Y277100D02*
Y279200D01*
Y277100D02*
X486300Y275400D01*
Y288500D02*
Y290600D01*
X484600Y284700D02*
Y286800D01*
X486300Y288500D01*
X484600Y292300D02*
X486300Y290600D01*
X484600Y294400D02*
X486300Y296100D01*
X450000Y255000D02*
X473200D01*
X494000Y265700D02*
X495700Y264000D01*
Y269500D02*
Y271600D01*
X494000Y305800D02*
X495700Y307500D01*
X494000Y303700D02*
X495700Y302000D01*
X494000Y298200D02*
X495700Y299900D01*
Y302000D01*
X494000Y336200D02*
X495700Y337900D01*
X494000Y334100D02*
Y336200D01*
Y334100D02*
X495700Y332400D01*
X494000Y326500D02*
X495700Y324800D01*
X494000Y328600D02*
X495700Y330300D01*
X494000Y311300D02*
Y313400D01*
Y318900D02*
Y321000D01*
Y356900D02*
X495700Y355200D01*
Y360700D02*
Y362800D01*
Y345500D02*
Y347600D01*
X494000Y351400D02*
X495700Y353100D01*
Y398700D02*
Y400800D01*
X494000Y394900D02*
Y397000D01*
Y394900D02*
X495700Y393200D01*
X494000Y387300D02*
X495700Y385600D01*
Y375900D02*
Y378000D01*
X494000Y374200D02*
X495700Y375900D01*
X494000Y379700D02*
X495700Y378000D01*
Y383500D02*
Y385600D01*
Y429100D02*
Y431200D01*
Y421500D02*
Y423600D01*
X494000Y404600D02*
X495700Y406300D01*
X494000Y410100D02*
Y412200D01*
X495700Y413900D01*
Y459500D02*
Y461600D01*
X494000Y457800D02*
X495700Y459500D01*
X494000Y455700D02*
Y457800D01*
X495700Y451900D02*
Y454000D01*
Y436700D02*
Y438800D01*
X494000Y432900D02*
X495700Y431200D01*
X494000Y440500D02*
X495700Y438800D01*
X494000Y440500D02*
Y442600D01*
X495700Y444300D01*
Y446400D01*
X494000Y473000D02*
X495700Y474700D01*
X494000Y470900D02*
Y473000D01*
Y465400D02*
X495700Y467100D01*
Y482300D02*
Y484400D01*
X494000Y478500D02*
Y480600D01*
Y478500D02*
X495700Y476800D01*
X494000Y486100D02*
X495700Y484400D01*
X494000Y486100D02*
Y488200D01*
X495700Y489900D01*
Y492000D01*
X350900Y380900D02*
Y385200D01*
X353300Y387600D02*
X357600D01*
X465300Y495300D02*
X492400D01*
X495700Y492000D01*
X115300Y291000D02*
X120900Y285400D01*
Y267000D02*
Y285400D01*
Y267000D02*
X122800Y265100D01*
X125000D01*
X99000Y285000D02*
X101300Y287300D01*
Y290500D01*
X86300Y305500D02*
X101300Y290500D01*
X86300Y305500D02*
Y307800D01*
X87800Y309300D01*
X90300D01*
X108600Y291000D01*
X115300D01*
X123500Y295100D02*
X126900Y291700D01*
Y267000D02*
Y291700D01*
X125000Y265100D02*
X126900Y267000D01*
X110400Y295100D02*
X123500D01*
X87600Y317900D02*
X110400Y295100D01*
X86500Y345400D02*
X87600Y344300D01*
Y317900D02*
Y344300D01*
X83900Y345400D02*
X86500D01*
X82800Y344300D02*
X83900Y345400D01*
X82800Y294400D02*
Y344300D01*
X81500Y293100D02*
X82800Y294400D01*
X79000Y293100D02*
X81500D01*
X77800Y294300D02*
X79000Y293100D01*
X77800Y294300D02*
Y347100D01*
X79700Y349000D02*
X90900D01*
X77800Y347100D02*
X79700Y349000D01*
X72900Y293100D02*
X73800Y294000D01*
X70600Y293100D02*
X72900D01*
X69700Y294000D02*
X70600Y293100D01*
X73800Y349000D02*
X77500Y352700D01*
X73800Y294000D02*
Y349000D01*
X69700Y294000D02*
Y354200D01*
X90900Y349000D02*
X98200Y356300D01*
Y359200D01*
X97300Y360100D02*
X98200Y359200D01*
X91000Y360100D02*
X97300D01*
X83600Y352700D02*
X91000Y360100D01*
X77500Y352700D02*
X83600D01*
X93700Y345900D02*
X108100Y360300D01*
X93700Y317800D02*
Y345900D01*
Y317800D02*
X111400Y300100D01*
X138620D01*
X69700Y354200D02*
X71500Y356000D01*
X81200D01*
X89100Y363900D01*
X107000D01*
X108100Y362800D01*
Y360300D02*
Y362800D01*
X63900Y366900D02*
X65600Y365200D01*
X60000Y305000D02*
X65600Y310600D01*
Y365200D01*
X63900Y366900D02*
Y369400D01*
X65100Y370600D01*
X83000D01*
X86500Y367100D01*
X115900D01*
X116900Y368100D01*
Y369400D01*
X115900Y370400D02*
X116900Y369400D01*
X88400Y370400D02*
X115900D01*
X81700Y377100D02*
X88400Y370400D01*
X81700Y377100D02*
Y380000D01*
X79800Y381900D02*
X81700Y380000D01*
X76600Y381900D02*
X79800D01*
X74600Y379900D02*
X76600Y381900D01*
X74600Y376900D02*
Y379900D01*
X71600Y373900D02*
X74600Y376900D01*
X68900Y373900D02*
X71600D01*
X67600Y375200D02*
X68900Y373900D01*
X67600Y375200D02*
Y377100D01*
X68700Y378200D01*
Y381400D01*
X67900Y382200D02*
X68700Y381400D01*
X67900Y382200D02*
Y384700D01*
X69200Y386000D01*
Y388700D01*
X68000Y389900D02*
X69200Y388700D01*
X63100Y389900D02*
X68000D01*
X61900Y388700D02*
X63100Y389900D01*
X61900Y386000D02*
Y388700D01*
Y386000D02*
X63100Y384800D01*
Y382500D02*
Y384800D01*
X61900Y381300D02*
X63100Y382500D01*
X61900Y378900D02*
Y381300D01*
Y378900D02*
X63200Y377600D01*
Y374900D02*
Y377600D01*
X62200Y373900D02*
X63200Y374900D01*
X57500Y373900D02*
X62200D01*
X56500Y374900D02*
X57500Y373900D01*
X56500Y374900D02*
Y377600D01*
X57700Y378800D01*
Y381000D01*
X56500Y382200D02*
X57700Y381000D01*
X56500Y382200D02*
Y384900D01*
X57700Y386100D01*
Y388300D01*
X56500Y389500D02*
X57700Y388300D01*
X56500Y389500D02*
Y392200D01*
X57700Y393400D01*
Y395600D01*
X56500Y396800D02*
X57700Y395600D01*
X56500Y396800D02*
Y399500D01*
X57700Y400700D01*
Y403400D01*
X56500Y404600D02*
X57700Y403400D01*
X51600Y404600D02*
X56500D01*
X50400Y403400D02*
X51600Y404600D01*
X50400Y400700D02*
Y403400D01*
Y400700D02*
X51600Y399500D01*
Y397300D02*
Y399500D01*
X50400Y396100D02*
X51600Y397300D01*
X50400Y393400D02*
Y396100D01*
Y393400D02*
X51600Y392200D01*
Y390000D02*
Y392200D01*
X50400Y388800D02*
X51600Y390000D01*
X50400Y386100D02*
Y388800D01*
Y386100D02*
X51600Y384900D01*
Y382700D02*
Y384900D01*
X50400Y381500D02*
X51600Y382700D01*
X50400Y379000D02*
Y381500D01*
Y379000D02*
X51700Y377700D01*
Y375000D02*
Y377700D01*
X50700Y374000D02*
X51700Y375000D01*
X46000Y374000D02*
X50700D01*
X45000Y375000D02*
X46000Y374000D01*
X45000Y375000D02*
Y377700D01*
X46200Y378900D01*
Y381100D01*
X45000Y382300D02*
X46200Y381100D01*
X45000Y382300D02*
Y385000D01*
X46200Y386200D01*
Y388400D01*
X45000Y389600D02*
X46200Y388400D01*
X45000Y389600D02*
Y392300D01*
X46200Y393500D01*
Y395700D01*
X45000Y396900D02*
X46200Y395700D01*
X45000Y396900D02*
Y399600D01*
X46200Y400800D01*
Y403000D01*
X45000Y404200D02*
X46200Y403000D01*
X45000Y404200D02*
Y406900D01*
X46200Y408100D01*
Y410800D01*
X45000Y412000D02*
X46200Y410800D01*
X40100Y412000D02*
X45000D01*
X38900Y410800D02*
X40100Y412000D01*
X38900Y408100D02*
Y410800D01*
Y408100D02*
X40100Y406900D01*
Y404700D02*
Y406900D01*
X38900Y403500D02*
X40100Y404700D01*
X38900Y400800D02*
Y403500D01*
Y400800D02*
X40100Y399600D01*
Y397400D02*
Y399600D01*
X38900Y396200D02*
X40100Y397400D01*
X38900Y393500D02*
Y396200D01*
Y393500D02*
X40100Y392300D01*
Y390100D02*
Y392300D01*
X38900Y388900D02*
X40100Y390100D01*
X38900Y386200D02*
Y388900D01*
Y386200D02*
X40100Y385000D01*
Y382800D02*
Y385000D01*
X38900Y381600D02*
X40100Y382800D01*
X38900Y378900D02*
Y381600D01*
Y378900D02*
X40100Y377700D01*
Y375000D02*
Y377700D01*
X39100Y374000D02*
X40100Y375000D01*
X34400Y374000D02*
X39100D01*
X33400Y375000D02*
X34400Y374000D01*
X33400Y375000D02*
Y377700D01*
X34600Y378900D01*
Y381100D01*
X33400Y382300D02*
X34600Y381100D01*
X33400Y382300D02*
Y385000D01*
X34600Y386200D01*
Y388400D01*
X33400Y389600D02*
X34600Y388400D01*
X33400Y389600D02*
Y392300D01*
X34600Y393500D01*
Y395700D01*
X33400Y396900D02*
X34600Y395700D01*
X33400Y396900D02*
Y399600D01*
X34600Y400800D01*
Y403000D01*
X33400Y404200D02*
X34600Y403000D01*
X33400Y404200D02*
Y406900D01*
X34600Y408100D01*
Y410300D01*
X33400Y411500D02*
X34600Y410300D01*
X33400Y411500D02*
Y414200D01*
X34600Y415400D01*
Y417600D01*
X33400Y418800D02*
X34600Y417600D01*
X33400Y418800D02*
Y421500D01*
X34600Y422700D01*
Y424900D01*
X36100Y426400D01*
X41000D01*
X42600Y424800D01*
Y422300D02*
Y424800D01*
Y422300D02*
X43800Y421100D01*
X46300D01*
X47900Y419500D01*
Y417000D02*
Y419500D01*
Y417000D02*
X49100Y415800D01*
X51600D01*
X53200Y414200D01*
Y411700D02*
Y414200D01*
Y411700D02*
X54400Y410500D01*
X56900D01*
X58500Y408900D01*
Y406400D02*
Y408900D01*
Y406400D02*
X59700Y405200D01*
X62200D01*
X63800Y403600D01*
Y401100D02*
Y403600D01*
Y401100D02*
X65000Y399900D01*
X67500D01*
X69100Y398300D01*
Y395800D02*
Y398300D01*
Y395800D02*
X70300Y394600D01*
X72800D01*
X74400Y393000D01*
Y390500D02*
Y393000D01*
Y390500D02*
X75600Y389300D01*
X78100D01*
X79700Y387700D01*
Y385200D02*
Y387700D01*
Y385200D02*
X80900Y384000D01*
X83400D01*
X85000Y382400D01*
Y379900D02*
Y382400D01*
Y379900D02*
X86200Y378700D01*
X88700D01*
X90300Y377100D01*
Y374600D02*
Y377100D01*
Y374600D02*
X91500Y373400D01*
X121400D01*
X123300Y371500D01*
Y369500D02*
Y371500D01*
X98300Y344500D02*
X123300Y369500D01*
X98300Y320500D02*
Y344500D01*
Y320500D02*
X103800Y315000D01*
X120000D01*
X110800Y343100D02*
X124500D01*
X110000Y335000D02*
X120000D01*
X129300Y368300D02*
Y374500D01*
X102800Y341800D02*
X129300Y368300D01*
X102800Y322400D02*
Y341800D01*
X127200Y376600D02*
X129300Y374500D01*
X21400Y434400D02*
X23400Y436400D01*
X21400Y430500D02*
Y434400D01*
X23300Y426000D02*
Y428600D01*
X21400Y430500D02*
X23300Y428600D01*
X21400Y424100D02*
X23300Y426000D01*
X21400Y391700D02*
X23300Y393600D01*
X21400Y398100D02*
X23300Y396200D01*
Y393600D02*
Y396200D01*
X21400Y398100D02*
Y399800D01*
X23300Y401700D01*
X21400Y406200D02*
X23300Y404300D01*
Y401700D02*
Y404300D01*
X21400Y406200D02*
Y407900D01*
X23300Y409800D01*
X21400Y414300D02*
X23300Y412400D01*
Y409800D02*
Y412400D01*
X21400Y414300D02*
Y416000D01*
X23300Y417900D01*
X21400Y422400D02*
X23300Y420500D01*
Y417900D02*
Y420500D01*
X21400Y422400D02*
Y424100D01*
Y390000D02*
Y391700D01*
X23300Y385500D02*
Y388100D01*
X21400Y390000D02*
X23300Y388100D01*
X21400Y383600D02*
X23300Y385500D01*
X21400Y381900D02*
Y383600D01*
X23300Y377400D02*
Y380000D01*
X21400Y381900D02*
X23300Y380000D01*
X21400Y375500D02*
X23300Y377400D01*
X21400Y373800D02*
Y375500D01*
X23300Y369300D02*
Y371900D01*
X21400Y373800D02*
X23300Y371900D01*
X21400Y367400D02*
X23300Y369300D01*
X21400Y365700D02*
Y367400D01*
X23300Y357400D02*
Y363800D01*
X21400Y365700D02*
X23300Y363800D01*
X42200Y327200D02*
X50000Y335000D01*
X30100Y327200D02*
X42200D01*
X28700Y328600D02*
X30100Y327200D01*
X28700Y328600D02*
Y332800D01*
X30600Y334700D02*
Y337300D01*
X28700Y332800D02*
X30600Y334700D01*
Y350900D02*
Y353500D01*
X28700Y349000D02*
X30600Y350900D01*
X28700Y339200D02*
Y340900D01*
X30600Y342800D01*
X28700Y347300D02*
X30600Y345400D01*
Y342800D02*
Y345400D01*
X28700Y347300D02*
Y349000D01*
Y339200D02*
X30600Y337300D01*
Y367100D02*
Y369700D01*
X28700Y365200D02*
X30600Y367100D01*
X28700Y355400D02*
Y357100D01*
X30600Y359000D01*
X28700Y363500D02*
X30600Y361600D01*
Y359000D02*
Y361600D01*
X28700Y363500D02*
Y365200D01*
Y355400D02*
X30600Y353500D01*
Y383300D02*
Y385900D01*
X28700Y381400D02*
X30600Y383300D01*
X28700Y371600D02*
Y373300D01*
X30600Y375200D01*
X28700Y379700D02*
X30600Y377800D01*
Y375200D02*
Y377800D01*
X28700Y379700D02*
Y381400D01*
Y371600D02*
X30600Y369700D01*
Y399500D02*
Y402100D01*
X28700Y397600D02*
X30600Y399500D01*
X28700Y387800D02*
Y389500D01*
X30600Y391400D01*
X28700Y395900D02*
X30600Y394000D01*
Y391400D02*
Y394000D01*
X28700Y395900D02*
Y397600D01*
Y387800D02*
X30600Y385900D01*
Y415700D02*
Y418300D01*
X28700Y413800D02*
X30600Y415700D01*
X28700Y404000D02*
Y405700D01*
X30600Y407600D01*
X28700Y412100D02*
X30600Y410200D01*
Y407600D02*
Y410200D01*
X28700Y412100D02*
Y413800D01*
Y404000D02*
X30600Y402100D01*
X28700Y420200D02*
X30600Y418300D01*
X28700Y428300D02*
Y430000D01*
X30600Y423800D02*
Y426400D01*
X28700Y428300D02*
X30600Y426400D01*
X28700Y421900D02*
X30600Y423800D01*
X28700Y420200D02*
Y421900D01*
Y430000D02*
X30600Y431900D01*
X28700Y436400D02*
X30600Y434500D01*
Y431900D02*
Y434500D01*
X23400Y436400D02*
X28700D01*
X21700Y355800D02*
X23300Y357400D01*
X17800Y355800D02*
X21700D01*
X16200Y357400D02*
X17800Y355800D01*
X16200Y357400D02*
Y361200D01*
X14300Y363100D02*
X16200Y361200D01*
X14300Y363100D02*
Y364800D01*
X16200Y366700D01*
X14300Y371200D02*
X16200Y369300D01*
Y366700D02*
Y369300D01*
X14300Y371200D02*
Y372900D01*
X16200Y374800D01*
X14300Y379300D02*
X16200Y377400D01*
Y374800D02*
Y377400D01*
X14300Y379300D02*
Y381000D01*
X16200Y382900D01*
X14300Y387400D02*
X16200Y385500D01*
Y382900D02*
Y385500D01*
X14300Y387400D02*
Y389100D01*
X16200Y391000D01*
X14300Y395500D02*
X16200Y393600D01*
Y391000D02*
Y393600D01*
X14300Y395500D02*
Y397200D01*
X16200Y399100D01*
X14300Y403600D02*
X16200Y401700D01*
Y399100D02*
Y401700D01*
X14300Y403600D02*
Y405300D01*
X16200Y407200D01*
X14300Y411700D02*
X16200Y409800D01*
Y407200D02*
Y409800D01*
X14300Y411700D02*
Y413400D01*
X16200Y415300D01*
X14300Y419800D02*
X16200Y417900D01*
Y415300D02*
Y417900D01*
X14300Y419800D02*
Y421500D01*
X16200Y423400D01*
X14300Y427900D02*
X16200Y426000D01*
Y423400D02*
Y426000D01*
X14300Y427900D02*
Y429600D01*
X16200Y431500D01*
X14300Y436000D02*
X16200Y434100D01*
Y431500D02*
Y434100D01*
X14300Y436000D02*
Y437700D01*
X16200Y439600D01*
X14300Y444100D02*
X16200Y442200D01*
Y439600D02*
Y442200D01*
Y447700D02*
Y450300D01*
X14300Y452200D02*
X16200Y450300D01*
X14300Y445800D02*
X16200Y447700D01*
X14300Y444100D02*
Y445800D01*
Y452200D02*
Y456600D01*
X15300Y457600D01*
X19400Y452600D02*
Y456300D01*
X18100Y457600D02*
X19400Y456300D01*
X15300Y457600D02*
X18100D01*
X21200Y450800D02*
X24000D01*
X26200Y445800D02*
Y448600D01*
X24000Y450800D02*
X26200Y448600D01*
X19400Y452600D02*
X21200Y450800D01*
X28000Y444000D02*
X30800D01*
X33000Y439000D02*
Y441800D01*
X30800Y444000D02*
X33000Y441800D01*
X26200Y445800D02*
X28000Y444000D01*
X34800Y437200D02*
X37600D01*
X39800Y432200D02*
Y435000D01*
X37600Y437200D02*
X39800Y435000D01*
X33000Y439000D02*
X34800Y437200D01*
X41600Y430400D02*
X44400D01*
X46600Y425400D02*
Y428200D01*
X44400Y430400D02*
X46600Y428200D01*
X39800Y432200D02*
X41600Y430400D01*
X48400Y423600D02*
X51200D01*
X53400Y418600D02*
Y421400D01*
X51200Y423600D02*
X53400Y421400D01*
X46600Y425400D02*
X48400Y423600D01*
X55200Y416800D02*
X58000D01*
X60200Y411800D02*
Y414600D01*
X58000Y416800D02*
X60200Y414600D01*
X53400Y418600D02*
X55200Y416800D01*
X62000Y410000D02*
X64800D01*
X67000Y405000D02*
Y407800D01*
X64800Y410000D02*
X67000Y407800D01*
X60200Y411800D02*
X62000Y410000D01*
X68800Y403200D02*
X71600D01*
X73800Y398200D02*
Y401000D01*
X71600Y403200D02*
X73800Y401000D01*
X67000Y405000D02*
X68800Y403200D01*
X75600Y396400D02*
X78400D01*
X80600Y391400D02*
Y394200D01*
X78400Y396400D02*
X80600Y394200D01*
X73800Y398200D02*
X75600Y396400D01*
X82400Y389600D02*
X85200D01*
X87400Y384600D02*
Y387400D01*
X85200Y389600D02*
X87400Y387400D01*
X80600Y391400D02*
X82400Y389600D01*
X89200Y382800D02*
X92000D01*
X94200Y377800D02*
Y380600D01*
X92000Y382800D02*
X94200Y380600D01*
X87400Y384600D02*
X89200Y382800D01*
X94200Y377800D02*
X95400Y376600D01*
X127200D01*
X102800Y322400D02*
X105300Y319900D01*
X123100D01*
X133100Y309900D01*
X17300Y332300D02*
X18900Y330700D01*
Y328700D02*
Y330700D01*
X41500Y299400D02*
Y317700D01*
Y299400D02*
X45900Y295000D01*
X39900Y319300D02*
X41500Y317700D01*
X34500Y319300D02*
X39900D01*
X32900Y317700D02*
X34500Y319300D01*
X45900Y295000D02*
X50000D01*
X24300Y296700D02*
Y299500D01*
Y296700D02*
X25900Y295100D01*
X31300D02*
X32900Y296700D01*
X25900Y295100D02*
X31300D01*
X32900Y296700D02*
Y317700D01*
X24300Y304700D02*
Y307500D01*
Y312700D02*
X25900Y311100D01*
Y309100D02*
Y311100D01*
X24300Y307500D02*
X25900Y309100D01*
X24300Y304700D02*
X25900Y303100D01*
Y301100D02*
Y303100D01*
X24300Y299500D02*
X25900Y301100D01*
X24300Y312700D02*
Y315500D01*
Y320700D02*
X25900Y319100D01*
Y317100D02*
Y319100D01*
X24300Y315500D02*
X25900Y317100D01*
X24300Y320700D02*
Y323500D01*
Y344700D02*
Y347500D01*
Y352700D02*
X25900Y351100D01*
Y349100D02*
Y351100D01*
X24300Y347500D02*
X25900Y349100D01*
X24300Y339500D02*
X25900Y341100D01*
Y343100D01*
X24300Y344700D02*
X25900Y343100D01*
X24300Y336700D02*
Y339500D01*
Y323500D02*
X25900Y325100D01*
Y327100D01*
X24300Y328700D02*
X25900Y327100D01*
X24300Y331500D02*
X25900Y333100D01*
Y335100D01*
X24300Y336700D02*
X25900Y335100D01*
X24300Y328700D02*
Y331500D01*
X18900Y352700D02*
X24300D01*
X17300Y335100D02*
X18900Y336700D01*
X17300Y332300D02*
Y335100D01*
X18900Y336700D02*
Y338700D01*
X17300Y343100D02*
X18900Y344700D01*
X17300Y340300D02*
Y343100D01*
Y340300D02*
X18900Y338700D01*
Y344700D02*
Y346700D01*
X17300Y351100D02*
X18900Y352700D01*
X17300Y348300D02*
Y351100D01*
Y348300D02*
X18900Y346700D01*
X16900Y323900D02*
X18500Y322300D01*
X16900Y323900D02*
Y326700D01*
X18850Y328650D01*
X18500Y320300D02*
Y322300D01*
X16900Y315900D02*
X18500Y314300D01*
X16900Y315900D02*
Y318700D01*
X18500Y320300D01*
Y312300D02*
Y314300D01*
X16900Y307900D02*
X18500Y306300D01*
X16900Y307900D02*
Y310700D01*
X18500Y312300D01*
Y304300D02*
Y306300D01*
X16900Y299900D02*
X18500Y298300D01*
X16900Y299900D02*
Y302700D01*
X18500Y304300D01*
Y295500D02*
Y298300D01*
X11500Y293900D02*
X16900D01*
X18500Y295500D01*
X9900D02*
X11500Y293900D01*
X9900Y303500D02*
Y306300D01*
Y311500D02*
X11500Y309900D01*
Y307900D02*
Y309900D01*
X9900Y306300D02*
X11500Y307900D01*
X9900Y295500D02*
Y298300D01*
Y303500D02*
X11500Y301900D01*
Y299900D02*
Y301900D01*
X9900Y298300D02*
X11500Y299900D01*
X9900Y311500D02*
Y314300D01*
Y319500D02*
X11500Y317900D01*
Y315900D02*
Y317900D01*
X9900Y314300D02*
X11500Y315900D01*
X9900Y359500D02*
Y362300D01*
Y367500D02*
X11500Y365900D01*
Y363900D02*
Y365900D01*
X9900Y362300D02*
X11500Y363900D01*
X9900Y351500D02*
Y354300D01*
Y359500D02*
X11500Y357900D01*
Y355900D02*
Y357900D01*
X9900Y354300D02*
X11500Y355900D01*
X9900Y338300D02*
X11500Y339900D01*
Y341900D01*
X9900Y343500D02*
X11500Y341900D01*
X9900Y335500D02*
Y338300D01*
Y346300D02*
X11500Y347900D01*
Y349900D01*
X9900Y351500D02*
X11500Y349900D01*
X9900Y343500D02*
Y346300D01*
Y322300D02*
X11500Y323900D01*
Y325900D01*
X9900Y327500D02*
X11500Y325900D01*
X9900Y319500D02*
Y322300D01*
Y330300D02*
X11500Y331900D01*
Y333900D01*
X9900Y335500D02*
X11500Y333900D01*
X9900Y327500D02*
Y330300D01*
Y407500D02*
Y410300D01*
Y415500D02*
X11500Y413900D01*
Y411900D02*
Y413900D01*
X9900Y410300D02*
X11500Y411900D01*
X9900Y399500D02*
Y402300D01*
Y407500D02*
X11500Y405900D01*
Y403900D02*
Y405900D01*
X9900Y402300D02*
X11500Y403900D01*
X9900Y386300D02*
X11500Y387900D01*
Y389900D01*
X9900Y391500D02*
X11500Y389900D01*
X9900Y383500D02*
Y386300D01*
Y394300D02*
X11500Y395900D01*
Y397900D01*
X9900Y399500D02*
X11500Y397900D01*
X9900Y391500D02*
Y394300D01*
Y370300D02*
X11500Y371900D01*
Y373900D01*
X9900Y375500D02*
X11500Y373900D01*
X9900Y367500D02*
Y370300D01*
Y378300D02*
X11500Y379900D01*
Y381900D01*
X9900Y383500D02*
X11500Y381900D01*
X9900Y375500D02*
Y378300D01*
Y423500D02*
Y426300D01*
Y431500D02*
X11500Y429900D01*
Y427900D02*
Y429900D01*
X9900Y426300D02*
X11500Y427900D01*
X9900Y415500D02*
Y418300D01*
Y423500D02*
X11500Y421900D01*
Y419900D02*
Y421900D01*
X9900Y418300D02*
X11500Y419900D01*
X9900Y439500D02*
Y442300D01*
Y447500D02*
X11500Y445900D01*
Y443900D02*
Y445900D01*
X9900Y442300D02*
X11500Y443900D01*
X9900Y431500D02*
Y434300D01*
Y439500D02*
X11500Y437900D01*
Y435900D02*
Y437900D01*
X9900Y434300D02*
X11500Y435900D01*
X9900Y450300D02*
X11500Y451900D01*
Y453900D01*
X9900Y455500D02*
X11500Y453900D01*
X9900Y447500D02*
Y450300D01*
Y458300D02*
X11500Y459900D01*
Y461900D01*
X9900Y463500D02*
X11500Y461900D01*
X9900Y455500D02*
Y458300D01*
X5900Y460300D02*
Y462300D01*
X9900Y463500D02*
Y466300D01*
X11300Y467700D02*
X14800D01*
X9900Y466300D02*
X11300Y467700D01*
X17000Y462700D02*
X18800Y460900D01*
X14800Y467700D02*
X17000Y465500D01*
Y462700D02*
Y465500D01*
X32400Y447300D02*
X35200D01*
X37400Y442300D02*
Y445100D01*
X35200Y447300D02*
X37400Y445100D01*
Y442300D02*
X39200Y440500D01*
X25600Y454100D02*
X28400D01*
X30600Y449100D02*
Y451900D01*
X28400Y454100D02*
X30600Y451900D01*
Y449100D02*
X32400Y447300D01*
X18800Y460900D02*
X21600D01*
X23800Y455900D02*
Y458700D01*
X21600Y460900D02*
X23800Y458700D01*
Y455900D02*
X25600Y454100D01*
X52800Y426900D02*
X55600D01*
X57800Y421900D02*
Y424700D01*
X55600Y426900D02*
X57800Y424700D01*
Y421900D02*
X59600Y420100D01*
X46000Y433700D02*
X48800D01*
X51000Y428700D02*
Y431500D01*
X48800Y433700D02*
X51000Y431500D01*
Y428700D02*
X52800Y426900D01*
X39200Y440500D02*
X42000D01*
X44200Y435500D02*
Y438300D01*
X42000Y440500D02*
X44200Y438300D01*
Y435500D02*
X46000Y433700D01*
X73200Y406500D02*
X76000D01*
X78200Y401500D02*
Y404300D01*
X76000Y406500D02*
X78200Y404300D01*
Y401500D02*
X80000Y399700D01*
X66400Y413300D02*
X69200D01*
X71400Y408300D02*
Y411100D01*
X69200Y413300D02*
X71400Y411100D01*
Y408300D02*
X73200Y406500D01*
X59600Y420100D02*
X62400D01*
X64600Y415100D02*
Y417900D01*
X62400Y420100D02*
X64600Y417900D01*
Y415100D02*
X66400Y413300D01*
X85000Y394700D02*
X86800Y392900D01*
X82800Y399700D02*
X85000Y397500D01*
Y394700D02*
Y397500D01*
X80000Y399700D02*
X82800D01*
X91800Y387900D02*
X93600Y386100D01*
X89600Y392900D02*
X91800Y390700D01*
Y387900D02*
Y390700D01*
X86800Y392900D02*
X89600D01*
X98600Y381100D02*
X100400Y379300D01*
X96400Y386100D02*
X98600Y383900D01*
Y381100D02*
Y383900D01*
X93600Y386100D02*
X96400D01*
X118700Y379300D02*
X121400Y382000D01*
X100400Y379300D02*
X118700D01*
X137100Y348900D02*
Y372900D01*
X126800Y338600D02*
X137100Y348900D01*
X126800Y322600D02*
Y338600D01*
Y322600D02*
X129500Y319900D01*
X128000Y382000D02*
X137100Y372900D01*
X121400Y382000D02*
X128000D01*
X129500Y319900D02*
X148820D01*
X33900Y284300D02*
Y286300D01*
X32300Y279900D02*
X33900Y278300D01*
X32300Y279900D02*
Y282700D01*
Y258700D02*
X33900Y260300D01*
Y268300D02*
Y270300D01*
X32300Y287900D02*
X33900Y286300D01*
X32300Y266700D02*
X33900Y268300D01*
X32300Y274700D02*
X33900Y276300D01*
Y278300D01*
X18300Y263900D02*
Y266700D01*
X19900Y276300D02*
Y278300D01*
X18300Y274700D02*
X19900Y276300D01*
X18300Y266700D02*
X19900Y268300D01*
X18300Y271900D02*
X19900Y270300D01*
X18300Y287900D02*
X19900Y286300D01*
X26900Y279900D02*
Y281900D01*
X25300Y275500D02*
Y278300D01*
X26900Y279900D01*
X25300Y270300D02*
X26900Y271900D01*
X25300Y283500D02*
Y286300D01*
X19900Y268300D02*
Y270300D01*
X18300Y255900D02*
X19900Y254300D01*
X4300Y263900D02*
X5900Y262300D01*
X4300Y258700D02*
X5900Y260300D01*
X4300Y255900D02*
Y258700D01*
Y255900D02*
X5900Y254300D01*
Y268300D02*
Y270300D01*
X4300Y279900D02*
X5900Y278300D01*
X4300Y295900D02*
X5900Y294300D01*
Y292300D02*
Y294300D01*
X4300Y290700D02*
X5900Y292300D01*
X4300Y311900D02*
X5900Y310300D01*
Y308300D02*
Y310300D01*
X4300Y303900D02*
Y306700D01*
Y298700D02*
X5900Y300300D01*
Y316300D02*
Y318300D01*
X4300Y327900D02*
X5900Y326300D01*
Y332300D02*
Y334300D01*
X4300Y343900D02*
X5900Y342300D01*
Y340300D02*
Y342300D01*
X4300Y338700D02*
X5900Y340300D01*
X4300Y330700D02*
X5900Y332300D01*
X4300Y351900D02*
Y354700D01*
Y346700D02*
X5900Y348300D01*
X4300Y375900D02*
X5900Y374300D01*
X4300Y370700D02*
X5900Y372300D01*
X4300Y367900D02*
X5900Y366300D01*
Y380300D02*
Y382300D01*
X4300Y391900D02*
X5900Y390300D01*
X4300Y378700D02*
X5900Y380300D01*
Y404300D02*
Y406300D01*
X4300Y402700D02*
X5900Y404300D01*
X4300Y399900D02*
Y402700D01*
Y394700D02*
X5900Y396300D01*
X4300Y415900D02*
Y418700D01*
Y439900D02*
X5900Y438300D01*
X4300Y431900D02*
X5900Y430300D01*
X4300Y442700D02*
X5900Y444300D01*
X4300Y447900D02*
X5900Y446300D01*
X4300Y447900D02*
Y450700D01*
X5900Y452300D01*
Y454300D01*
X4300Y455900D02*
Y458700D01*
X26900Y287900D02*
X32300D01*
Y282700D02*
X33900Y284300D01*
X32300Y271900D02*
Y274700D01*
Y271900D02*
X33900Y270300D01*
X32300Y263900D02*
Y266700D01*
Y263900D02*
X33900Y262300D01*
Y260300D02*
Y262300D01*
X32300Y255900D02*
Y258700D01*
X25300Y283500D02*
X26900Y281900D01*
X25300Y267500D02*
Y270300D01*
Y267500D02*
X26900Y265900D01*
Y263900D02*
Y265900D01*
Y271900D02*
Y273900D01*
X25300Y275500D02*
X26900Y273900D01*
Y255900D02*
Y257900D01*
X25300Y259500D02*
X26900Y257900D01*
X25300Y259500D02*
Y262300D01*
X26900Y263900D01*
X25300Y254300D02*
X26900Y255900D01*
X25300Y286300D02*
X26900Y287900D01*
X19900Y254300D02*
X25300D01*
X18300Y255900D02*
Y258700D01*
X19900Y260300D01*
Y262300D01*
X18300Y263900D02*
X19900Y262300D01*
X18300Y279900D02*
Y282700D01*
Y279900D02*
X19900Y278300D01*
X18300Y271900D02*
Y274700D01*
Y282700D02*
X19900Y284300D01*
Y286300D01*
X12900Y287900D02*
X18300D01*
X11300Y286300D02*
X12900Y287900D01*
X11300Y283500D02*
Y286300D01*
Y270300D02*
X12900Y271900D01*
X11300Y254300D02*
X12900Y255900D01*
X11300Y262300D02*
X12900Y263900D01*
X11300Y278300D02*
X12900Y279900D01*
X11300Y259500D02*
Y262300D01*
Y259500D02*
X12900Y257900D01*
Y255900D02*
Y257900D01*
X11300Y275500D02*
Y278300D01*
Y275500D02*
X12900Y273900D01*
Y271900D02*
Y273900D01*
Y263900D02*
Y265900D01*
X11300Y267500D02*
X12900Y265900D01*
X11300Y267500D02*
Y270300D01*
X12900Y279900D02*
Y281900D01*
X11300Y283500D02*
X12900Y281900D01*
X5900Y254300D02*
X11300D01*
X5900Y348300D02*
Y350300D01*
X4300Y351900D02*
X5900Y350300D01*
X4300Y335900D02*
Y338700D01*
Y335900D02*
X5900Y334300D01*
X4300Y343900D02*
Y346700D01*
Y319900D02*
Y322700D01*
Y319900D02*
X5900Y318300D01*
X4300Y314700D02*
X5900Y316300D01*
X4300Y322700D02*
X5900Y324300D01*
Y326300D01*
X4300Y327900D02*
Y330700D01*
Y303900D02*
X5900Y302300D01*
Y300300D02*
Y302300D01*
X4300Y306700D02*
X5900Y308300D01*
X4300Y311900D02*
Y314700D01*
Y287900D02*
Y290700D01*
Y287900D02*
X5900Y286300D01*
Y284300D02*
Y286300D01*
X4300Y282700D02*
X5900Y284300D01*
X4300Y295900D02*
Y298700D01*
Y271900D02*
Y274700D01*
Y271900D02*
X5900Y270300D01*
X4300Y266700D02*
X5900Y268300D01*
X4300Y274700D02*
X5900Y276300D01*
Y278300D01*
X4300Y279900D02*
Y282700D01*
X5900Y260300D02*
Y262300D01*
X4300Y263900D02*
Y266700D01*
X10400Y477200D02*
X15800Y471800D01*
X4300Y359900D02*
Y362700D01*
Y359900D02*
X5900Y358300D01*
Y356300D02*
Y358300D01*
X4300Y354700D02*
X5900Y356300D01*
X4300Y375900D02*
Y378700D01*
X5900Y372300D02*
Y374300D01*
X4300Y362700D02*
X5900Y364300D01*
Y366300D01*
X4300Y367900D02*
Y370700D01*
Y391900D02*
Y394700D01*
X5900Y388300D02*
Y390300D01*
X4300Y386700D02*
X5900Y388300D01*
X4300Y383900D02*
X5900Y382300D01*
X4300Y383900D02*
Y386700D01*
Y407900D02*
Y410700D01*
Y407900D02*
X5900Y406300D01*
Y396300D02*
Y398300D01*
X4300Y399900D02*
X5900Y398300D01*
X4300Y410700D02*
X5900Y412300D01*
X4300Y423900D02*
Y426700D01*
Y423900D02*
X5900Y422300D01*
Y420300D02*
Y422300D01*
X4300Y418700D02*
X5900Y420300D01*
Y412300D02*
Y414300D01*
X4300Y415900D02*
X5900Y414300D01*
X4300Y439900D02*
Y442700D01*
X5900Y436300D02*
Y438300D01*
X4300Y434700D02*
X5900Y436300D01*
X4300Y426700D02*
X5900Y428300D01*
Y430300D01*
X4300Y431900D02*
Y434700D01*
Y455900D02*
X5900Y454300D01*
Y444300D02*
Y446300D01*
X4300Y463900D02*
Y466700D01*
Y463900D02*
X5900Y462300D01*
X4300Y458700D02*
X5900Y460300D01*
X4300Y466700D02*
X5900Y468300D01*
Y470300D01*
X4300Y471900D02*
X5900Y470300D01*
X4300Y471900D02*
Y474700D01*
X20800Y466800D02*
X22600Y465000D01*
X18600Y471800D02*
X20800Y469600D01*
Y466800D02*
Y469600D01*
X15800Y471800D02*
X18600D01*
X34400Y453200D02*
X36200Y451400D01*
X32200Y458200D02*
X34400Y456000D01*
Y453200D02*
Y456000D01*
X29400Y458200D02*
X32200D01*
X22600Y465000D02*
X25400D01*
X27600Y460000D02*
Y462800D01*
X25400Y465000D02*
X27600Y462800D01*
Y460000D02*
X29400Y458200D01*
X48000Y439600D02*
X49800Y437800D01*
X45800Y444600D02*
X48000Y442400D01*
Y439600D02*
Y442400D01*
X43000Y444600D02*
X45800D01*
X36200Y451400D02*
X39000D01*
X41200Y446400D02*
Y449200D01*
X39000Y451400D02*
X41200Y449200D01*
Y446400D02*
X43000Y444600D01*
X61600Y426000D02*
X63400Y424200D01*
X59400Y431000D02*
X61600Y428800D01*
Y426000D02*
Y428800D01*
X56600Y431000D02*
X59400D01*
X49800Y437800D02*
X52600D01*
X54800Y432800D02*
Y435600D01*
X52600Y437800D02*
X54800Y435600D01*
Y432800D02*
X56600Y431000D01*
X75200Y412400D02*
X77000Y410600D01*
X73000Y417400D02*
X75200Y415200D01*
Y412400D02*
Y415200D01*
X70200Y417400D02*
X73000D01*
X63400Y424200D02*
X66200D01*
X68400Y419200D02*
Y422000D01*
X66200Y424200D02*
X68400Y422000D01*
Y419200D02*
X70200Y417400D01*
X88800Y398800D02*
X90600Y397000D01*
X86600Y403800D02*
X88800Y401600D01*
Y398800D02*
Y401600D01*
X83800Y403800D02*
X86600D01*
X77000Y410600D02*
X79800D01*
X82000Y405600D02*
Y408400D01*
X79800Y410600D02*
X82000Y408400D01*
Y405600D02*
X83800Y403800D01*
X95600Y392000D02*
X97400Y390200D01*
X93400Y397000D02*
X95600Y394800D01*
Y392000D02*
Y394800D01*
X90600Y397000D02*
X93400D01*
X97400Y390200D02*
X100200D01*
X102400Y385200D02*
Y388000D01*
X100200Y390200D02*
X102400Y388000D01*
Y385200D02*
X104200Y383400D01*
X4300Y474700D02*
X6800Y477200D01*
X10400D01*
X104200Y383400D02*
X115700D01*
X121500Y389200D01*
X129000D01*
X184200Y379700D02*
X186600Y377300D01*
X185000Y369900D02*
X186600Y371500D01*
Y377300D01*
X157230Y379700D02*
X184200D01*
X132230Y404700D02*
X157230Y379700D01*
X219600Y274000D02*
Y366400D01*
X202600Y383400D02*
X219600Y366400D01*
X163700Y383400D02*
X202600D01*
X227100Y337100D02*
Y368300D01*
X207900Y387500D02*
X227100Y368300D01*
X170700Y387500D02*
X207900D01*
X203200Y453200D02*
Y484800D01*
X201000Y487000D02*
X203200Y484800D01*
X191300Y487000D02*
X201000D01*
X200000Y450000D02*
X203200Y453200D01*
X160000Y477100D02*
X178400D01*
X180500Y475000D01*
Y469800D02*
Y475000D01*
X160700Y450000D02*
X180500Y469800D01*
X160000Y450000D02*
X160700D01*
X162100Y385000D02*
Y387900D01*
X160600Y389400D02*
X162100Y387900D01*
X157700Y389400D02*
X160600D01*
X162100Y385000D02*
X163700Y383400D01*
X153800Y393300D02*
Y396200D01*
X152300Y397700D02*
X153800Y396200D01*
X149400Y397700D02*
X152300D01*
X145500Y401600D02*
X149400Y397700D01*
X153800Y393300D02*
X157700Y389400D01*
X145500Y401600D02*
Y404500D01*
X144000Y406000D02*
X145500Y404500D01*
X141100Y406000D02*
X144000D01*
X138800Y408300D02*
X141100Y406000D01*
X98500Y466900D02*
X104600D01*
X112300D02*
X115800D01*
X109800Y464400D02*
X112300Y466900D01*
X107100Y464400D02*
X109800D01*
X104600Y466900D02*
X107100Y464400D01*
X123500Y466900D02*
X127000D01*
X121000Y464400D02*
X123500Y466900D01*
X118300Y464400D02*
X121000D01*
X115800Y466900D02*
X118300Y464400D01*
X134700Y466900D02*
X138200D01*
X132200Y464400D02*
X134700Y466900D01*
X129500Y464400D02*
X132200D01*
X127000Y466900D02*
X129500Y464400D01*
X138200Y466900D02*
X140700Y464400D01*
X143400D01*
X145900Y466900D01*
X149400D01*
X151000Y468500D02*
Y471300D01*
X149400Y466900D02*
X151000Y468500D01*
X96500Y443400D02*
Y464900D01*
X98500Y466900D01*
X91700Y473400D02*
X95900D01*
X101100Y471300D02*
X103200Y473400D01*
X98000Y471300D02*
X101100D01*
X95900Y473400D02*
X98000Y471300D01*
X103200Y473400D02*
X106500D01*
X111700Y471300D02*
X113800Y473400D01*
X108600Y471300D02*
X111700D01*
X106500Y473400D02*
X108600Y471300D01*
X113800Y473400D02*
X117100D01*
X122300Y471300D02*
X124400Y473400D01*
X119200Y471300D02*
X122300D01*
X117100Y473400D02*
X119200Y471300D01*
X124400Y473400D02*
X127700D01*
X135000D02*
X138300D01*
X127700D02*
X129800Y471300D01*
X132900D01*
X135000Y473400D01*
X145600D02*
X148900D01*
X151000Y471300D01*
X138300Y473400D02*
X140400Y471300D01*
X143500D01*
X145600Y473400D01*
X87300Y449100D02*
X90900D01*
X86000Y450400D02*
X87300Y449100D01*
X86000Y450400D02*
Y465900D01*
X91900Y450100D02*
Y466600D01*
X90900Y449100D02*
X91900Y450100D01*
X89900Y468600D02*
X91900Y466600D01*
X130000Y409900D02*
X131600Y408300D01*
X138800D01*
X123300Y416600D02*
X125600Y414300D01*
X128500D01*
X130000Y412800D01*
Y409900D02*
Y412800D01*
X116600Y423300D02*
X118900Y421000D01*
X121800D01*
X123300Y419500D01*
Y416600D02*
Y419500D01*
X109900Y430000D02*
X112200Y427700D01*
X115100D01*
X116600Y426200D01*
Y423300D02*
Y426200D01*
X103200Y436700D02*
X105500Y434400D01*
X108400D01*
X109900Y432900D01*
Y430000D02*
Y432900D01*
X96500Y443400D02*
X98800Y441100D01*
X101700D01*
X103200Y439600D01*
Y436700D02*
Y439600D01*
X89900Y468600D02*
Y471600D01*
X91700Y473400D01*
X78300Y473600D02*
X86000Y465900D01*
X78300Y473600D02*
Y477100D01*
X80400Y479200D01*
X88900Y477100D02*
X91000Y479200D01*
X85800Y477100D02*
X88900D01*
X83700Y479200D02*
X85800Y477100D01*
X80400Y479200D02*
X83700D01*
X99500Y477100D02*
X101600Y479200D01*
X96400Y477100D02*
X99500D01*
X94300Y479200D02*
X96400Y477100D01*
X91000Y479200D02*
X94300D01*
X110100Y477100D02*
X112200Y479200D01*
X107000Y477100D02*
X110100D01*
X104900Y479200D02*
X107000Y477100D01*
X101600Y479200D02*
X104900D01*
X120700Y477100D02*
X122800Y479200D01*
X117600Y477100D02*
X120700D01*
X115500Y479200D02*
X117600Y477100D01*
X112200Y479200D02*
X115500D01*
X131300Y477100D02*
X133400Y479200D01*
X128200Y477100D02*
X131300D01*
X126100Y479200D02*
X128200Y477100D01*
X122800Y479200D02*
X126100D01*
X141900Y477100D02*
X144000Y479200D01*
X138800Y477100D02*
X141900D01*
X136700Y479200D02*
X138800Y477100D01*
X133400Y479200D02*
X136700D01*
X152500Y477100D02*
X154600Y479200D01*
X149400Y477100D02*
X152500D01*
X147300Y479200D02*
X149400Y477100D01*
X144000Y479200D02*
X147300D01*
X154600D02*
X157900D01*
X160000Y477100D01*
X64500Y480300D02*
X80900Y463900D01*
Y448000D02*
Y463900D01*
Y448000D02*
X82200Y446700D01*
X61800Y480300D02*
X64500D01*
X60400Y478900D02*
X61800Y480300D01*
X60400Y476500D02*
Y478900D01*
Y476500D02*
X78000Y458900D01*
Y455900D02*
Y458900D01*
X76800Y454700D02*
X78000Y455900D01*
X73800Y454700D02*
X76800D01*
X48300Y480200D02*
X73800Y454700D01*
X120100Y408800D02*
X124200Y404700D01*
X120100Y408800D02*
Y411700D01*
X118600Y413200D02*
X120100Y411700D01*
X115700Y413200D02*
X118600D01*
X113400Y415500D02*
Y418400D01*
X111900Y419900D02*
X113400Y418400D01*
X109000Y419900D02*
X111900D01*
X113400Y415500D02*
X115700Y413200D01*
X106700Y422200D02*
Y425100D01*
X105200Y426600D02*
X106700Y425100D01*
X102300Y426600D02*
X105200D01*
X106700Y422200D02*
X109000Y419900D01*
X100000Y428900D02*
Y431800D01*
X98500Y433300D02*
X100000Y431800D01*
X95600Y433300D02*
X98500D01*
X100000Y428900D02*
X102300Y426600D01*
X93300Y435600D02*
Y438500D01*
X91800Y440000D02*
X93300Y438500D01*
X88900Y440000D02*
X91800D01*
X93300Y435600D02*
X95600Y433300D01*
X86600Y442300D02*
Y445200D01*
X85100Y446700D02*
X86600Y445200D01*
X82200Y446700D02*
X85100D01*
X86600Y442300D02*
X88900Y440000D01*
X45400Y480200D02*
X48300D01*
X124200Y404700D02*
X132230D01*
X44100Y478900D02*
X45400Y480200D01*
X44100Y476000D02*
Y478900D01*
Y476000D02*
X70400Y449700D01*
Y447000D02*
Y449700D01*
X69200Y445800D02*
X70400Y447000D01*
X66300Y445800D02*
X69200D01*
X28400Y488200D02*
X34400D01*
X27000Y486800D02*
X28400Y488200D01*
X27000Y485100D02*
Y486800D01*
X34400Y488200D02*
X37700Y484900D01*
X27000Y485100D02*
X66300Y445800D01*
X40800Y484900D02*
X42900Y487000D01*
X37700Y484900D02*
X40800D01*
X51400D02*
X53500Y487000D01*
X48300Y484900D02*
X51400D01*
X46200Y487000D02*
X48300Y484900D01*
X42900Y487000D02*
X46200D01*
X58900Y484900D02*
X62000D01*
X56800Y487000D02*
X58900Y484900D01*
X53500Y487000D02*
X56800D01*
X189200Y484900D02*
X191300Y487000D01*
X186100Y484900D02*
X189200D01*
X184000Y487000D02*
X186100Y484900D01*
X180700Y487000D02*
X184000D01*
X170100D02*
X173400D01*
X175500Y484900D01*
X178600D01*
X180700Y487000D01*
X159500D02*
X162800D01*
X164900Y484900D01*
X168000D01*
X170100Y487000D01*
X148900D02*
X152200D01*
X154300Y484900D01*
X157400D01*
X159500Y487000D01*
X138300D02*
X141600D01*
X143700Y484900D01*
X146800D01*
X148900Y487000D01*
X127700D02*
X131000D01*
X133100Y484900D01*
X136200D01*
X138300Y487000D01*
X117100D02*
X120400D01*
X122500Y484900D01*
X125600D01*
X127700Y487000D01*
X106500D02*
X109800D01*
X111900Y484900D01*
X115000D01*
X117100Y487000D01*
X95900D02*
X99200D01*
X101300Y484900D01*
X104400D01*
X106500Y487000D01*
X85300D02*
X88600D01*
X90700Y484900D01*
X93800D01*
X95900Y487000D01*
X74700D02*
X78000D01*
X80100Y484900D01*
X83200D01*
X85300Y487000D01*
X64100D02*
X67400D01*
X69500Y484900D01*
X72600D01*
X74700Y487000D01*
X62000Y484900D02*
X64100Y487000D01*
X121400Y398300D02*
X129200D01*
X75800Y443900D02*
X121400Y398300D01*
X73100Y443900D02*
X75800D01*
X71900Y442700D02*
X73100Y443900D01*
X71900Y440100D02*
Y442700D01*
Y440100D02*
X117400Y394600D01*
Y390600D02*
Y394600D01*
X114500Y387700D02*
X117400Y390600D01*
X110700Y387700D02*
X114500D01*
X108400Y390000D02*
X110700Y387700D01*
X101700Y396700D02*
X104000Y394400D01*
X106900D01*
X108400Y392900D01*
Y390000D02*
Y392900D01*
X95000Y403400D02*
X97300Y401100D01*
X100200D01*
X101700Y399600D01*
Y396700D02*
Y399600D01*
X88300Y410100D02*
X90600Y407800D01*
X93500D01*
X95000Y406300D01*
Y403400D02*
Y406300D01*
X81600Y416800D02*
X83900Y414500D01*
X86800D01*
X88300Y413000D01*
Y410100D02*
Y413000D01*
X74900Y423500D02*
X77200Y421200D01*
X80100D01*
X81600Y419700D01*
Y416800D02*
Y419700D01*
X68200Y430200D02*
X70500Y427900D01*
X73400D01*
X74900Y426400D01*
Y423500D02*
Y426400D01*
X61500Y436900D02*
X63800Y434600D01*
X66700D01*
X68200Y433100D01*
Y430200D02*
Y433100D01*
X54800Y443600D02*
X57100Y441300D01*
X60000D01*
X61500Y439800D01*
Y436900D02*
Y439800D01*
X48100Y450300D02*
X50400Y448000D01*
X53300D01*
X54800Y446500D01*
Y443600D02*
Y446500D01*
X41400Y457000D02*
X43700Y454700D01*
X46600D01*
X48100Y453200D01*
Y450300D02*
Y453200D01*
X34700Y463700D02*
X37000Y461400D01*
X39900D01*
X41400Y459900D01*
Y457000D02*
Y459900D01*
X33200Y468100D02*
X34700Y466600D01*
Y463700D02*
Y466600D01*
X21300Y477000D02*
Y479900D01*
X26500Y474800D02*
X28000Y473300D01*
X14600Y483700D02*
X16900Y481400D01*
X19800D01*
X21300Y479900D01*
X14600Y483700D02*
Y486600D01*
X13100Y488100D02*
X14600Y486600D01*
X10200Y488100D02*
X13100D01*
X7900Y490400D02*
X10200Y488100D01*
X27000Y492600D02*
X29100Y494700D01*
X23900Y492600D02*
X27000D01*
X21800Y494700D02*
X23900Y492600D01*
X9800Y494700D02*
X21800D01*
X37600Y492600D02*
X39700Y494700D01*
X34500Y492600D02*
X37600D01*
X32400Y494700D02*
X34500Y492600D01*
X29100Y494700D02*
X32400D01*
X48200Y492600D02*
X50300Y494700D01*
X45100Y492600D02*
X48200D01*
X43000Y494700D02*
X45100Y492600D01*
X39700Y494700D02*
X43000D01*
X58800Y492600D02*
X60900Y494700D01*
X55700Y492600D02*
X58800D01*
X53600Y494700D02*
X55700Y492600D01*
X50300Y494700D02*
X53600D01*
X69400Y492600D02*
X71500Y494700D01*
X66300Y492600D02*
X69400D01*
X64200Y494700D02*
X66300Y492600D01*
X60900Y494700D02*
X64200D01*
X80000Y492600D02*
X82100Y494700D01*
X76900Y492600D02*
X80000D01*
X74800Y494700D02*
X76900Y492600D01*
X71500Y494700D02*
X74800D01*
X90600Y492600D02*
X92700Y494700D01*
X87500Y492600D02*
X90600D01*
X85400Y494700D02*
X87500Y492600D01*
X82100Y494700D02*
X85400D01*
X101200Y492600D02*
X103300Y494700D01*
X98100Y492600D02*
X101200D01*
X96000Y494700D02*
X98100Y492600D01*
X92700Y494700D02*
X96000D01*
X111800Y492600D02*
X113900Y494700D01*
X108700Y492600D02*
X111800D01*
X106600Y494700D02*
X108700Y492600D01*
X103300Y494700D02*
X106600D01*
X122400Y492600D02*
X124500Y494700D01*
X119300Y492600D02*
X122400D01*
X117200Y494700D02*
X119300Y492600D01*
X113900Y494700D02*
X117200D01*
X133000Y492600D02*
X135100Y494700D01*
X129900Y492600D02*
X133000D01*
X127800Y494700D02*
X129900Y492600D01*
X124500Y494700D02*
X127800D01*
X143600Y492600D02*
X145700Y494700D01*
X140500Y492600D02*
X143600D01*
X138400Y494700D02*
X140500Y492600D01*
X135100Y494700D02*
X138400D01*
X154200Y492600D02*
X156300Y494700D01*
X151100Y492600D02*
X154200D01*
X149000Y494700D02*
X151100Y492600D01*
X145700Y494700D02*
X149000D01*
X164800Y492600D02*
X166900Y494700D01*
X161700Y492600D02*
X164800D01*
X159600Y494700D02*
X161700Y492600D01*
X156300Y494700D02*
X159600D01*
X175400Y492600D02*
X177500Y494700D01*
X172300Y492600D02*
X175400D01*
X170200Y494700D02*
X172300Y492600D01*
X166900Y494700D02*
X170200D01*
X186000Y492600D02*
X188100Y494700D01*
X182900Y492600D02*
X186000D01*
X180800Y494700D02*
X182900Y492600D01*
X177500Y494700D02*
X180800D01*
X196600Y492600D02*
X198700Y494700D01*
X193500Y492600D02*
X196600D01*
X191400Y494700D02*
X193500Y492600D01*
X188100Y494700D02*
X191400D01*
X207200Y492600D02*
X209300Y494700D01*
X204100Y492600D02*
X207200D01*
X202000Y494700D02*
X204100Y492600D01*
X198700Y494700D02*
X202000D01*
X217800Y492600D02*
X219900Y494700D01*
X214700Y492600D02*
X217800D01*
X212600Y494700D02*
X214700Y492600D01*
X209300Y494700D02*
X212600D01*
X219900D02*
X223200D01*
X225300Y492600D01*
X228400D01*
X230500Y494700D01*
X233500D01*
X7900Y490400D02*
Y492800D01*
X9800Y494700D01*
X233500D02*
X240000Y488200D01*
Y450000D02*
Y488200D01*
X250000Y450000D02*
Y488300D01*
X257000Y495300D01*
X434400D02*
X437000Y492700D01*
X236200Y234700D02*
X247500Y246000D01*
Y254300D01*
X259600Y266400D02*
Y274700D01*
X247500Y254300D02*
X259600Y266400D01*
Y274700D02*
X271700Y286800D01*
Y324500D01*
X437000Y489800D01*
X257000Y495300D02*
X434400D01*
X268900Y287960D02*
Y329900D01*
X244700Y255460D02*
X256800Y267560D01*
X236200Y226400D02*
Y234700D01*
X224900Y192400D02*
Y215100D01*
X236200Y226400D01*
X221600Y215900D02*
X233400Y227700D01*
X221600Y193700D02*
Y215900D01*
X437000Y489800D02*
Y492700D01*
X429800Y492400D02*
X431300Y490900D01*
Y488100D02*
Y490900D01*
X218000Y190100D02*
X221600Y193700D01*
X182600Y150100D02*
X224900Y192400D01*
X290000Y487600D02*
X294800Y492400D01*
X429000Y485800D02*
X431300Y488100D01*
X425600Y485800D02*
X429000D01*
X423800Y484000D02*
X425600Y485800D01*
X423800Y480800D02*
Y484000D01*
X421500Y478500D02*
X423800Y480800D01*
X414000Y471200D02*
X416300Y473500D01*
Y476700D01*
X418100Y478500D01*
X421500D01*
X406500Y463900D02*
X408800Y466200D01*
Y469400D01*
X410600Y471200D01*
X414000D01*
X399000Y456600D02*
X401300Y458900D01*
Y462100D01*
X403100Y463900D01*
X406500D01*
X391500Y449300D02*
X393800Y451600D01*
Y454800D01*
X395600Y456600D01*
X399000D01*
X384000Y442000D02*
X386300Y444300D01*
Y447500D01*
X388100Y449300D01*
X391500D01*
X376500Y434700D02*
X378800Y437000D01*
Y440200D01*
X380600Y442000D01*
X384000D01*
X369000Y427400D02*
X371300Y429700D01*
Y432900D01*
X373100Y434700D01*
X376500D01*
X361500Y420100D02*
X363800Y422400D01*
Y425600D01*
X365600Y427400D01*
X369000D01*
X354000Y412800D02*
X356300Y415100D01*
Y418300D01*
X358100Y420100D01*
X361500D01*
X346500Y405500D02*
X348800Y407800D01*
Y411000D01*
X350600Y412800D02*
X354000D01*
X320600Y383600D02*
X324000D01*
X318800Y381800D02*
X320600Y383600D01*
X318800Y378600D02*
Y381800D01*
X316500Y376300D02*
X318800Y378600D01*
X328100Y390900D02*
X331500D01*
X326300Y389100D02*
X328100Y390900D01*
X326300Y385900D02*
Y389100D01*
X324000Y383600D02*
X326300Y385900D01*
X335600Y398200D02*
X339000D01*
X333800Y396400D02*
X335600Y398200D01*
X333800Y393200D02*
Y396400D01*
X331500Y390900D02*
X333800Y393200D01*
X343100Y405500D02*
X346500D01*
X341300Y403700D02*
X343100Y405500D01*
X341300Y400500D02*
Y403700D01*
X339000Y398200D02*
X341300Y400500D01*
X290600Y354400D02*
X294000D01*
X288800Y352600D02*
X290600Y354400D01*
X288800Y349400D02*
Y352600D01*
X286500Y347100D02*
X288800Y349400D01*
X298100Y361700D02*
X301500D01*
X296300Y359900D02*
X298100Y361700D01*
X296300Y356700D02*
Y359900D01*
X294000Y354400D02*
X296300Y356700D01*
X305600Y369000D02*
X309000D01*
X303800Y367200D02*
X305600Y369000D01*
X303800Y364000D02*
Y367200D01*
X301500Y361700D02*
X303800Y364000D01*
X313100Y376300D02*
X316500D01*
X311300Y374500D02*
X313100Y376300D01*
X311300Y371300D02*
Y374500D01*
X309000Y369000D02*
X311300Y371300D01*
X279000Y339800D02*
X281300Y342100D01*
Y345300D01*
X283100Y347100D01*
X286500D01*
X268900Y329900D02*
X273800Y334800D01*
Y338000D01*
X275600Y339800D01*
X279000D01*
X294800Y492400D02*
X298600D01*
X302100Y488900D01*
X305900D01*
X309400Y492400D01*
X313200D01*
X324000D02*
X327800D01*
X320500Y488900D02*
X324000Y492400D01*
X316700Y488900D02*
X320500D01*
X313200Y492400D02*
X316700Y488900D01*
X342400Y492400D02*
X345900Y488900D01*
X349700D01*
X353200Y492400D01*
X357000D01*
X338600D02*
X342400D01*
X335100Y488900D02*
X338600Y492400D01*
X331300Y488900D02*
X335100D01*
X327800Y492400D02*
X331300Y488900D01*
X371600Y492400D02*
X375100Y488900D01*
X378900D01*
X382400Y492400D01*
X386200D01*
X367800D02*
X371600D01*
X364300Y488900D02*
X367800Y492400D01*
X360500Y488900D02*
X364300D01*
X357000Y492400D02*
X360500Y488900D01*
X400800Y492400D02*
X404300Y488900D01*
X408100D01*
X411600Y492400D01*
X415400D01*
X397000D02*
X400800D01*
X393500Y488900D02*
X397000Y492400D01*
X389700Y488900D02*
X393500D01*
X386200Y492400D02*
X389700Y488900D01*
X415400Y492400D02*
X418900Y488900D01*
X425800Y492400D02*
X429800D01*
X418900Y488900D02*
X422300D01*
X425800Y492400D01*
X290000Y450000D02*
Y487600D01*
X348800Y411000D02*
X350600Y412800D01*
X382700Y485500D02*
X386200Y482000D01*
X390000D01*
X393500Y485500D01*
X404600Y482000D02*
X408100Y485500D01*
X400800Y482000D02*
X404600D01*
X397300Y485500D02*
X400800Y482000D01*
X353500Y485500D02*
X357000Y482000D01*
X360800D01*
X364300Y485500D01*
X368100D01*
X378900D02*
X382700D01*
X375400Y482000D02*
X378900Y485500D01*
X371600Y482000D02*
X375400D01*
X368100Y485500D02*
X371600Y482000D01*
X335100Y485500D02*
X338900D01*
X349700D02*
X353500D01*
X346200Y482000D02*
X349700Y485500D01*
X342400Y482000D02*
X346200D01*
X338900Y485500D02*
X342400Y482000D01*
X408100Y485500D02*
X412400D01*
X414200Y483700D01*
Y480500D02*
Y483700D01*
X412200Y478500D02*
X414200Y480500D01*
X348800Y420100D02*
X352200D01*
X356300Y427400D02*
X359700D01*
X354500Y425600D02*
X356300Y427400D01*
X354500Y422400D02*
Y425600D01*
X352200Y420100D02*
X354500Y422400D01*
X363800Y434700D02*
X367200D01*
X362000Y432900D02*
X363800Y434700D01*
X362000Y429700D02*
Y432900D01*
X359700Y427400D02*
X362000Y429700D01*
X371300Y442000D02*
X374700D01*
X369500Y440200D02*
X371300Y442000D01*
X369500Y437000D02*
Y440200D01*
X367200Y434700D02*
X369500Y437000D01*
X378800Y449300D02*
X382200D01*
X377000Y447500D02*
X378800Y449300D01*
X377000Y444300D02*
Y447500D01*
X374700Y442000D02*
X377000Y444300D01*
X386300Y456600D02*
X389700D01*
X384500Y454800D02*
X386300Y456600D01*
X384500Y451600D02*
Y454800D01*
X382200Y449300D02*
X384500Y451600D01*
X393800Y463900D02*
X397200D01*
X392000Y462100D02*
X393800Y463900D01*
X392000Y458900D02*
Y462100D01*
X389700Y456600D02*
X392000Y458900D01*
X401300Y471200D02*
X404700D01*
X399500Y469400D02*
X401300Y471200D01*
X399500Y466200D02*
Y469400D01*
X397200Y463900D02*
X399500Y466200D01*
X408800Y478500D02*
X412200D01*
X407000Y476700D02*
X408800Y478500D01*
X407000Y473500D02*
Y476700D01*
X404700Y471200D02*
X407000Y473500D01*
X296300Y369000D02*
X299700D01*
X294500Y367200D02*
X296300Y369000D01*
X294500Y364000D02*
Y367200D01*
X292200Y361700D02*
X294500Y364000D01*
X303800Y376300D02*
X307200D01*
X302000Y374500D02*
X303800Y376300D01*
X302000Y371300D02*
Y374500D01*
X299700Y369000D02*
X302000Y371300D01*
X311300Y383600D02*
X314700D01*
X309500Y381800D02*
X311300Y383600D01*
X309500Y378600D02*
Y381800D01*
X307200Y376300D02*
X309500Y378600D01*
X318800Y390900D02*
X322200D01*
X317000Y389100D02*
X318800Y390900D01*
X317000Y385900D02*
Y389100D01*
X314700Y383600D02*
X317000Y385900D01*
X326300Y398200D02*
X329700D01*
X324500Y396400D02*
X326300Y398200D01*
X324500Y393200D02*
Y396400D01*
X322200Y390900D02*
X324500Y393200D01*
X333800Y405500D02*
X337200D01*
X332000Y403700D02*
X333800Y405500D01*
X332000Y400500D02*
Y403700D01*
X329700Y398200D02*
X332000Y400500D01*
X341300Y412800D02*
X344700D01*
X339500Y411000D02*
X341300Y412800D01*
X339500Y407800D02*
Y411000D01*
X337200Y405500D02*
X339500Y407800D01*
X347000Y418300D02*
X348800Y420100D01*
X347000Y415100D02*
Y418300D01*
X344700Y412800D02*
X347000Y415100D01*
X266300Y339800D02*
X269700D01*
X273800Y347100D02*
X277200D01*
X272000Y345300D02*
X273800Y347100D01*
X272000Y342100D02*
Y345300D01*
X269700Y339800D02*
X272000Y342100D01*
X281300Y354400D02*
X284700D01*
X279500Y352600D02*
X281300Y354400D01*
X279500Y349400D02*
Y352600D01*
X277200Y347100D02*
X279500Y349400D01*
X288800Y361700D02*
X292200D01*
X287000Y359900D02*
X288800Y361700D01*
X287000Y356700D02*
Y359900D01*
X284700Y354400D02*
X287000Y356700D01*
X324300Y485500D02*
X327800Y482000D01*
X331600D01*
X335100Y485500D01*
X309700D02*
X313200Y482000D01*
X317000D01*
X320500Y485500D01*
X324300D01*
X305900D02*
X309700D01*
X256700Y280800D02*
Y285000D01*
X259400Y287700D01*
X212000Y229900D02*
X215500Y233400D01*
X218600D01*
X222000Y224200D02*
X225600D01*
X230500Y229100D01*
X206600Y233400D02*
X210100Y229900D01*
X212000D01*
X200800D02*
X204300Y233400D01*
X206600D01*
X195400D02*
X198900Y229900D01*
X200800D01*
X189200D02*
X192700Y233400D01*
X195400D01*
X186200Y229900D02*
X189200D01*
X183100Y233000D02*
X186200Y229900D01*
X180700Y233000D02*
X183100D01*
X177600Y229900D02*
X180700Y233000D01*
X168821Y229900D02*
X177600D01*
X230500Y229100D02*
Y237600D01*
X220800Y225400D02*
X222000Y224200D01*
X220800Y225400D02*
Y231200D01*
X218600Y233400D02*
X220800Y231200D01*
X302400Y482000D02*
X305900Y485500D01*
X264500Y338000D02*
X266300Y339800D01*
X264500Y333800D02*
Y338000D01*
X262000Y331300D02*
X264500Y333800D01*
X262000Y328200D02*
Y331300D01*
Y328200D02*
X264500Y325700D01*
Y322800D02*
Y325700D01*
Y311800D02*
Y314700D01*
X262000Y317200D02*
X264500Y314700D01*
X262000Y317200D02*
Y320300D01*
X264500Y322800D01*
Y300800D02*
Y303700D01*
X262000Y306200D02*
X264500Y303700D01*
X262000Y306200D02*
Y309300D01*
X264500Y311800D01*
Y289800D02*
Y292700D01*
X262000Y295200D02*
X264500Y292700D01*
X262000Y295200D02*
Y298300D01*
X264500Y300800D01*
X262400Y287700D02*
X264500Y289800D01*
X259400Y287700D02*
X262400D01*
X324600Y455400D02*
X330000Y450000D01*
X293500Y457600D02*
X295700Y455400D01*
X293500Y484300D02*
X295100Y485900D01*
X296800D01*
X300700Y482000D01*
X302400D01*
X393500Y485500D02*
X397300D01*
X230500Y237600D02*
X242200Y249300D01*
X233400Y235900D02*
X244700Y247200D01*
Y255460D01*
X233400Y227700D02*
Y235900D01*
X198600Y185000D02*
X198800Y185200D01*
X209400Y199100D02*
X213500Y195000D01*
X209400Y199100D02*
Y218300D01*
X213500Y222400D01*
Y225000D01*
X200100Y220100D02*
X205000Y225000D01*
X195000Y195000D02*
X200100Y200100D01*
Y220100D01*
X200000Y238000D02*
Y243400D01*
X290000Y440000D02*
X297100Y432900D01*
X340400D01*
X349500Y442000D01*
Y445000D01*
X352000Y447500D01*
Y453700D01*
X350800Y454900D02*
X352000Y453700D01*
X350800Y454900D02*
Y457400D01*
X352400Y459000D01*
Y462200D01*
X350300Y464300D02*
X352400Y462200D01*
X346400Y464300D02*
X350300D01*
X345400Y463300D02*
X346400Y464300D01*
X345400Y460800D02*
Y463300D01*
X344100Y459500D02*
X345400Y460800D01*
X342000Y459500D02*
X344100D01*
X339800Y461700D02*
X342000Y459500D01*
X337600Y461700D02*
X339800D01*
X335400Y459500D02*
X337600Y461700D01*
X333900Y459500D02*
X335400D01*
X331700Y461700D02*
X333900Y459500D01*
X329500Y461700D02*
X331700D01*
X327300Y459500D02*
X329500Y461700D01*
X318700Y471900D02*
Y474800D01*
X322100Y478200D01*
X325500D01*
X328100Y475600D01*
X331100D01*
X333700Y478200D01*
X337100D01*
X345300D02*
X348700D01*
X342700Y475600D02*
X345300Y478200D01*
X339700Y475600D02*
X342700D01*
X337100Y478200D02*
X339700Y475600D01*
X356900Y478200D02*
X360300D01*
X354300Y475600D02*
X356900Y478200D01*
X351300Y475600D02*
X354300D01*
X348700Y478200D02*
X351300Y475600D01*
X368500Y478200D02*
X371900D01*
X365900Y475600D02*
X368500Y478200D01*
X362900Y475600D02*
X365900D01*
X360300Y478200D02*
X362900Y475600D01*
X380100Y478200D02*
X383500D01*
X377500Y475600D02*
X380100Y478200D01*
X374500Y475600D02*
X377500D01*
X371900Y478200D02*
X374500Y475600D01*
X383500Y478200D02*
X386100Y475600D01*
X390200D01*
X392600Y478000D01*
X395900D01*
X398400Y475500D01*
Y472900D02*
Y475500D01*
X393800Y468300D02*
X398400Y472900D01*
X391800Y468300D02*
X393800D01*
X390000Y470100D02*
X391800Y468300D01*
X386600Y470100D02*
X390000D01*
X384900Y468400D02*
X386600Y470100D01*
X384900Y465400D02*
Y468400D01*
X383000Y463500D02*
X384900Y465400D01*
X380100Y463500D02*
X383000D01*
X378400Y461800D02*
X380100Y463500D01*
X378400Y458800D02*
Y461800D01*
X371900Y452200D02*
Y455200D01*
X373600Y456900D01*
X376500D01*
X378400Y458800D01*
X365400Y445600D02*
Y448600D01*
X367100Y450300D01*
X370000D01*
X371900Y452200D01*
X358900Y439000D02*
Y442000D01*
X360600Y443700D01*
X363500D01*
X365400Y445600D01*
X352400Y432400D02*
Y435400D01*
X354100Y437100D01*
X357000D01*
X358900Y439000D01*
X345900Y425800D02*
Y428800D01*
X347600Y430500D01*
X350500D01*
X352400Y432400D01*
X339400Y419200D02*
Y422200D01*
X341100Y423900D01*
X344000D01*
X345900Y425800D01*
X332900Y412600D02*
Y415600D01*
X334600Y417300D01*
X337500D01*
X339400Y419200D01*
X326400Y406000D02*
Y409000D01*
X328100Y410700D01*
X331000D01*
X332900Y412600D01*
X319900Y399400D02*
Y402400D01*
X321600Y404100D01*
X324500D01*
X326400Y406000D01*
X313400Y392800D02*
Y395800D01*
X315100Y397500D01*
X318000D01*
X319900Y399400D01*
X306900Y386200D02*
Y389200D01*
X308600Y390900D01*
X311500D01*
X313400Y392800D01*
X300400Y379600D02*
Y382600D01*
X302100Y384300D01*
X305000D01*
X306900Y386200D01*
X293900Y373000D02*
Y376000D01*
X295600Y377700D01*
X298500D01*
X300400Y379600D01*
X287400Y366400D02*
Y369400D01*
X289100Y371100D01*
X292000D01*
X293900Y373000D01*
X280900Y359800D02*
Y362800D01*
X282600Y364500D01*
X285500D01*
X287400Y366400D01*
X274400Y353200D02*
Y356200D01*
X276100Y357900D01*
X279000D01*
X280900Y359800D01*
X267900Y346600D02*
Y349600D01*
X269600Y351300D01*
X272500D01*
X274400Y353200D01*
X261400Y340000D02*
Y343000D01*
X263100Y344700D01*
X266000D01*
X267900Y346600D01*
X259000Y337600D02*
X261400Y340000D01*
X259000Y334500D02*
Y337600D01*
X256500Y332000D02*
X259000Y334500D01*
X256500Y329100D02*
Y332000D01*
Y329100D02*
X259000Y326600D01*
Y323500D02*
Y326600D01*
X256500Y321000D02*
X259000Y323500D01*
X256500Y318100D02*
Y321000D01*
Y307100D02*
Y310000D01*
X259000Y312500D01*
Y315600D01*
X256500Y318100D02*
X259000Y315600D01*
X256500Y296100D02*
Y299000D01*
X259000Y301500D01*
Y304600D01*
X256500Y307100D02*
X259000Y304600D01*
X242200Y249300D02*
Y256600D01*
X253700Y268100D01*
X254100Y281300D02*
Y285800D01*
X259000Y290700D01*
Y293600D01*
X256500Y296100D02*
X259000Y293600D01*
X256800Y267560D02*
Y275860D01*
X268900Y287960D01*
X253700Y268100D02*
Y277800D01*
X256700Y280800D01*
X240100Y254000D02*
Y257800D01*
X244500Y262200D01*
Y265300D01*
X246200Y267000D01*
X249300D01*
X251300Y269000D01*
Y270400D01*
X249800Y271900D02*
X251300Y270400D01*
X249800Y271900D02*
Y274400D01*
X251200Y275800D01*
Y278400D01*
X254100Y281300D01*
X200000Y243400D02*
X209000Y252400D01*
X238500D01*
X240100Y254000D01*
X192700Y205000D02*
X195000Y207300D01*
Y215000D01*
X229700Y255000D02*
X247500Y272800D01*
Y279500D01*
X251500Y283500D01*
Y290300D01*
Y353000D02*
Y358000D01*
X254200Y360700D01*
X257100D01*
X259000Y362600D01*
Y365600D01*
X260700Y367300D01*
X263600D01*
X265500Y369200D01*
X270100Y373900D02*
X272000Y375800D01*
X267200Y373900D02*
X270100D01*
X265500Y372200D02*
X267200Y373900D01*
X265500Y369200D02*
Y372200D01*
X276600Y380500D02*
X278500Y382400D01*
X273700Y380500D02*
X276600D01*
X272000Y378800D02*
X273700Y380500D01*
X272000Y375800D02*
Y378800D01*
X283100Y387100D02*
X285000Y389000D01*
X280200Y387100D02*
X283100D01*
X278500Y385400D02*
X280200Y387100D01*
X278500Y382400D02*
Y385400D01*
X289600Y393700D02*
X291500Y395600D01*
X286700Y393700D02*
X289600D01*
X285000Y392000D02*
X286700Y393700D01*
X285000Y389000D02*
Y392000D01*
X296100Y400300D02*
X298000Y402200D01*
X293200Y400300D02*
X296100D01*
X291500Y398600D02*
X293200Y400300D01*
X291500Y395600D02*
Y398600D01*
X299700Y406900D02*
X302600D01*
X298000Y405200D02*
X299700Y406900D01*
X298000Y402200D02*
Y405200D01*
X302600Y406900D02*
X304500Y408800D01*
X309100Y413500D02*
X311000Y415400D01*
X306200Y413500D02*
X309100D01*
X304500Y411800D02*
X306200Y413500D01*
X304500Y408800D02*
Y411800D01*
X315600Y420100D02*
X317500Y422000D01*
X312700Y420100D02*
X315600D01*
X311000Y418400D02*
X312700Y420100D01*
X311000Y415400D02*
Y418400D01*
X336900Y423800D02*
Y428100D01*
X259200Y346100D02*
X336900Y423800D01*
X256600Y346100D02*
X259200D01*
X254800Y347900D02*
X256600Y346100D01*
X254800Y347900D02*
Y350600D01*
X326400Y422200D01*
Y424500D01*
X324200Y426700D02*
X326400Y424500D01*
X319200Y426700D02*
X324200D01*
X317500Y425000D02*
X319200Y426700D01*
X317500Y422000D02*
Y425000D01*
X313600Y430200D02*
X334800D01*
X336900Y428100D01*
X185000Y245000D02*
X195000Y255000D01*
X229700D01*
X249000Y292800D02*
X251500Y290300D01*
X249000Y292800D02*
Y295700D01*
X251500Y298200D01*
Y301300D01*
X249000Y303800D02*
X251500Y301300D01*
X249000Y303800D02*
Y306700D01*
X251500Y309200D01*
Y312100D01*
X249000Y314600D02*
X251500Y312100D01*
X249000Y325600D02*
X251500Y323100D01*
X249000Y325600D02*
Y328500D01*
X251500Y331000D01*
Y334100D01*
X249000Y336600D02*
X251500Y334100D01*
X249000Y336600D02*
Y339500D01*
X251500Y342000D01*
Y345100D01*
X249000Y347600D02*
X251500Y345100D01*
X249000Y347600D02*
Y350500D01*
X251500Y353000D01*
X295500Y412100D02*
X313600Y430200D01*
X291400Y421800D02*
X300300Y430700D01*
X292200Y415100D02*
X304300Y427200D01*
X300300Y430700D02*
X302500D01*
X304300Y428900D01*
Y427200D02*
Y428900D01*
X288600Y422900D02*
Y431200D01*
Y422900D02*
X289700Y421800D01*
X291400D01*
X287600Y432200D02*
X288600Y431200D01*
X285800Y432200D02*
X287600D01*
X285100Y431500D02*
X285800Y432200D01*
X285100Y422900D02*
Y431500D01*
X283900Y421700D02*
X285100Y422900D01*
X282300Y421700D02*
X283900D01*
X281100Y422900D02*
X282300Y421700D01*
X267000Y432200D02*
X280300D01*
X281100Y431400D01*
Y422900D02*
Y431400D01*
X292200Y413400D02*
Y415100D01*
Y413400D02*
X293500Y412100D01*
X295500D01*
X249000Y314600D02*
Y317500D01*
X251500Y320000D01*
Y323100D01*
X240000Y440000D02*
X251900Y428100D01*
X275100D02*
X276300Y426900D01*
Y423300D02*
Y426900D01*
X289700Y411900D02*
X293800Y407800D01*
Y405700D02*
Y407800D01*
X248400Y360300D02*
X293800Y405700D01*
X246100Y360300D02*
X248400D01*
X276300Y423300D02*
X281300Y418300D01*
X286500D01*
X289700Y415100D01*
Y411900D02*
Y415100D01*
X244100Y362300D02*
X246100Y360300D01*
X244100Y362300D02*
Y364900D01*
X285900Y406700D01*
X281700Y410800D02*
X284200D01*
X285900Y409100D01*
Y406700D02*
Y409100D01*
X240200Y369300D02*
X281700Y410800D01*
X277700Y415700D02*
Y418100D01*
X276000Y419800D02*
X277700Y418100D01*
X273500Y419800D02*
X276000D01*
X235900Y373900D02*
X277700Y415700D01*
X235900Y371300D02*
Y373900D01*
Y371300D02*
X237900Y369300D01*
X240200D01*
X251900Y428100D02*
X275100D01*
X205700Y260100D02*
X219600Y274000D01*
X216000Y262500D02*
Y264900D01*
X225000Y273900D02*
Y280000D01*
X216000Y262500D02*
X221200Y257300D01*
X224500D01*
X216000Y264900D02*
X225000Y273900D01*
X242300Y327900D02*
Y331000D01*
X239800Y325400D02*
X242300Y327900D01*
X239800Y322500D02*
Y325400D01*
Y355500D02*
Y358400D01*
Y355500D02*
X242300Y353000D01*
Y349900D02*
Y353000D01*
X239800Y347400D02*
X242300Y349900D01*
X239800Y344500D02*
Y347400D01*
Y344500D02*
X242300Y342000D01*
Y338900D02*
Y342000D01*
X239800Y336400D02*
X242300Y338900D01*
X239800Y333500D02*
Y336400D01*
Y333500D02*
X242300Y331000D01*
X239800Y322500D02*
X242300Y320000D01*
Y317100D02*
Y320000D01*
X239800Y314600D02*
X242300Y317100D01*
X239800Y311700D02*
Y314600D01*
Y311700D02*
X242300Y309200D01*
Y306100D02*
Y309200D01*
X239800Y303600D02*
X242300Y306100D01*
X239800Y300700D02*
Y303600D01*
Y300700D02*
X242300Y298200D01*
X232000Y366200D02*
X239800Y358400D01*
Y289700D02*
X242300Y287200D01*
X239800Y289700D02*
Y292600D01*
X242300Y295100D01*
Y298200D01*
Y275100D02*
Y287200D01*
X224500Y257300D02*
X242300Y275100D01*
X268800Y424500D02*
X273500Y419800D01*
X254100Y424500D02*
X268800D01*
X252100Y422500D02*
X254100Y424500D01*
X252100Y420800D02*
Y422500D01*
Y420800D02*
X253800Y419100D01*
X267400D01*
X269000Y417500D01*
Y415700D02*
Y417500D01*
X232000Y366200D02*
Y378700D01*
X192600Y265000D02*
X195000Y267400D01*
X198500Y280000D02*
X215000D01*
X195000Y276500D02*
X198500Y280000D01*
X195000Y267400D02*
Y276500D01*
X163300Y433300D02*
X170000Y440000D01*
X147000Y433300D02*
X163300D01*
X140500Y439800D02*
X147000Y433300D01*
X140500Y439800D02*
Y444600D01*
X137400Y447700D02*
X140500Y444600D01*
X116500Y447700D02*
X137400D01*
X113300Y444500D02*
X116500Y447700D01*
X113300Y438400D02*
Y444500D01*
X142100Y414100D02*
Y415400D01*
X113300Y438400D02*
X139100Y412600D01*
X140600D01*
X142100Y414100D01*
X116900Y440600D02*
X142100Y415400D01*
X116900Y440600D02*
Y442300D01*
X118500Y443900D01*
X120000D01*
X145100Y418800D01*
X146300D01*
X147700Y420200D01*
Y421700D01*
X128900Y440500D02*
X147700Y421700D01*
X128900Y440500D02*
Y442200D01*
X130100Y443400D01*
X131700D01*
X146000Y429100D01*
X236400D01*
X250200Y415300D01*
Y407800D02*
Y415300D01*
X226800Y384400D02*
X250200Y407800D01*
X217100Y389000D02*
X221700Y384400D01*
X151700Y406500D02*
Y414100D01*
Y406500D02*
X170700Y387500D01*
X225000Y335000D02*
X227100Y337100D01*
X217100Y389000D02*
Y415100D01*
X151700Y414100D02*
X156300Y418700D01*
X213500D01*
X217100Y415100D01*
X21300Y477000D02*
X23500Y474800D01*
X26500D01*
X30300Y468100D02*
X33200D01*
X28000Y470400D02*
Y473300D01*
Y470400D02*
X30300Y468100D01*
X198400Y290000D02*
X215000D01*
X183400Y275000D02*
X198400Y290000D01*
X4800Y14400D02*
X6600Y16200D01*
Y18400D01*
X4800Y20200D02*
X6600Y18400D01*
Y24200D02*
Y26400D01*
X4800Y22400D02*
X6600Y24200D01*
X4800Y20200D02*
Y22400D01*
Y28200D02*
Y30400D01*
X6600Y48200D02*
Y50400D01*
X4800Y46400D02*
X6600Y48200D01*
X4800Y38400D02*
X6600Y40200D01*
X4800Y36200D02*
X6600Y34400D01*
X4800Y60200D02*
Y62400D01*
Y52200D02*
Y54400D01*
X6600Y56200D01*
Y58400D01*
Y80200D02*
Y82400D01*
X4800Y70400D02*
X6600Y72200D01*
Y74400D01*
Y96200D02*
Y98400D01*
Y88200D02*
Y90400D01*
Y112200D02*
Y114400D01*
X4800Y110400D02*
X6600Y112200D01*
X4800Y108200D02*
Y110400D01*
Y124200D02*
Y126400D01*
Y142400D02*
X6600Y144200D01*
X4800Y132200D02*
Y134400D01*
X6600Y136200D01*
X4800Y172200D02*
X6600Y170400D01*
Y176200D02*
Y178400D01*
X4800Y164200D02*
Y166400D01*
X6600Y168200D01*
X4800Y188200D02*
Y190400D01*
Y204200D02*
X6600Y202400D01*
X4800Y204200D02*
Y206400D01*
Y196200D02*
X6600Y194400D01*
X4800Y220200D02*
Y222400D01*
Y8700D02*
Y14400D01*
Y8700D02*
X6500Y7000D01*
X36500D01*
X6600Y247800D02*
X8700Y249900D01*
X12100D01*
X14200Y247800D01*
Y240200D02*
Y247800D01*
Y232200D02*
X16000Y230400D01*
Y236200D02*
Y238400D01*
X14200Y234400D02*
X16000Y236200D01*
X14200Y232200D02*
Y234400D01*
Y240200D02*
X16000Y238400D01*
X14200Y216200D02*
X16000Y214400D01*
Y220200D02*
Y222400D01*
X14200Y218400D02*
X16000Y220200D01*
X14200Y216200D02*
Y218400D01*
Y224200D02*
Y226400D01*
X16000Y228200D01*
Y230400D01*
X14200Y224200D02*
X16000Y222400D01*
Y214400D02*
X22500D01*
X24300Y232200D02*
Y234400D01*
X22500Y230400D02*
X24300Y232200D01*
X22500Y228200D02*
Y230400D01*
X24300Y216200D02*
Y218400D01*
X22500Y214400D02*
X24300Y216200D01*
X22500Y220200D02*
Y222400D01*
X24300Y224200D01*
Y226400D01*
X22500Y220200D02*
X24300Y218400D01*
X22500Y236200D02*
X24300Y234400D01*
X22500Y236200D02*
Y238400D01*
X31900Y240200D02*
X33700Y238400D01*
X31900Y240200D02*
Y247800D01*
X29800Y249900D02*
X31900Y247800D01*
X26400Y249900D02*
X29800D01*
X24300Y247800D02*
X26400Y249900D01*
X24300Y240200D02*
Y247800D01*
X22500Y238400D02*
X24300Y240200D01*
X31900Y232200D02*
Y234400D01*
X33700Y236200D01*
X31900Y232200D02*
X33700Y230400D01*
Y236200D02*
Y238400D01*
X22500Y228200D02*
X24300Y226400D01*
X42400Y245000D02*
X50000D01*
X41100Y243700D02*
X42400Y245000D01*
X33700Y230400D02*
X39300D01*
X41100Y232200D01*
Y243700D01*
X36500Y7000D02*
X38800Y9300D01*
Y12500D01*
X40600Y14300D02*
X44000D01*
X46300Y19800D02*
X48100Y21600D01*
X63100Y36200D02*
X66500D01*
X61300Y31200D02*
Y34400D01*
X53800Y23900D02*
Y27100D01*
X76300Y45800D02*
Y49000D01*
X70600Y43500D02*
X74000D01*
X113800Y82300D02*
Y85500D01*
X119000Y87300D02*
X121300Y89600D01*
X104000Y72700D02*
X106300Y75000D01*
X98800Y70900D02*
X100600Y72700D01*
X96500Y65400D02*
X98800Y67700D01*
X141500Y109200D02*
X143800Y111500D01*
Y114700D01*
X145600Y116500D01*
X149000D01*
X151300Y118800D01*
Y122000D01*
X153100Y123800D01*
X138100Y109200D02*
X141500D01*
X136300Y107400D02*
X138100Y109200D01*
X136300Y104200D02*
Y107400D01*
X134000Y101900D02*
X136300Y104200D01*
X130600Y101900D02*
X134000D01*
X128800Y100100D02*
X130600Y101900D01*
X128800Y96900D02*
Y100100D01*
X126500Y94600D02*
X128800Y96900D01*
X4800Y102400D02*
X6600Y104200D01*
X4800Y100200D02*
X6600Y98400D01*
X4800Y84200D02*
X6600Y82400D01*
X4800Y62400D02*
X6600Y64200D01*
X4800Y132200D02*
X6600Y130400D01*
X4800Y118400D02*
X6600Y120200D01*
X4800Y124200D02*
X6600Y122400D01*
Y104200D02*
Y106400D01*
X4800Y174400D02*
X6600Y176200D01*
X4800Y172200D02*
Y174400D01*
Y180200D02*
Y182400D01*
X6600Y160200D02*
Y162400D01*
X4800Y156200D02*
Y158400D01*
X6600Y168200D02*
Y170400D01*
X4800Y148200D02*
X6600Y146400D01*
X4800Y148200D02*
Y150400D01*
X6600Y216200D02*
Y218400D01*
X4800Y214400D02*
X6600Y216200D01*
X4800Y212200D02*
Y214400D01*
Y222400D02*
X6600Y224200D01*
X4800Y220200D02*
X6600Y218400D01*
Y200200D02*
Y202400D01*
X4800Y196200D02*
Y198400D01*
X6600Y192200D02*
Y194400D01*
Y232200D02*
Y234400D01*
X4800Y236200D02*
Y238400D01*
Y228200D02*
Y230400D01*
X123100Y94600D02*
X126500D01*
X115600Y87300D02*
X119000D01*
X121300Y89600D02*
Y92800D01*
X123100Y94600D01*
X100600Y72700D02*
X104000D01*
X106300Y75000D02*
Y78200D01*
X108100Y80000D01*
X111500D01*
X113800Y85500D02*
X115600Y87300D01*
X111500Y80000D02*
X113800Y82300D01*
X85600Y58100D02*
X89000D01*
X91300Y60400D01*
Y63600D01*
X93100Y65400D01*
X96500D01*
X98800Y67700D02*
Y70900D01*
X74000Y43500D02*
X76300Y45800D01*
Y49000D02*
X78100Y50800D01*
X81500D01*
X83800Y56300D02*
X85600Y58100D01*
X83800Y53100D02*
Y56300D01*
X81500Y50800D02*
X83800Y53100D01*
X55600Y28900D02*
X59000D01*
X61300Y31200D01*
Y34400D02*
X63100Y36200D01*
X68800Y41700D02*
X70600Y43500D01*
X68800Y38500D02*
Y41700D01*
X66500Y36200D02*
X68800Y38500D01*
X38800Y12500D02*
X40600Y14300D01*
X44000D02*
X46300Y16600D01*
Y19800D01*
X48100Y21600D02*
X51500D01*
X53800Y27100D02*
X55600Y28900D01*
X51500Y21600D02*
X53800Y23900D01*
X4800Y30400D02*
X6600Y32200D01*
Y34400D01*
X4800Y28200D02*
X6600Y26400D01*
X4800Y44200D02*
Y46400D01*
Y36200D02*
Y38400D01*
X6600Y40200D02*
Y42400D01*
X4800Y60200D02*
X6600Y58400D01*
Y64200D02*
Y66400D01*
X4800Y52200D02*
X6600Y50400D01*
X4800Y76200D02*
X6600Y74400D01*
X4800Y78400D02*
X6600Y80200D01*
X4800Y76200D02*
Y78400D01*
Y68200D02*
Y70400D01*
Y68200D02*
X6600Y66400D01*
X4800Y92200D02*
X6600Y90400D01*
X4800Y94400D02*
X6600Y96200D01*
X4800Y92200D02*
Y94400D01*
Y84200D02*
Y86400D01*
X6600Y88200D01*
X4800Y108200D02*
X6600Y106400D01*
X4800Y100200D02*
Y102400D01*
X6600Y128200D02*
Y130400D01*
X4800Y126400D02*
X6600Y128200D01*
X4800Y116200D02*
Y118400D01*
X6600Y120200D02*
Y122400D01*
X4800Y116200D02*
X6600Y114400D01*
X4800Y140200D02*
X6600Y138400D01*
Y144200D02*
Y146400D01*
X4800Y140200D02*
Y142400D01*
X6600Y136200D02*
Y138400D01*
X4800Y156200D02*
X6600Y154400D01*
X4800Y158400D02*
X6600Y160200D01*
X4800Y150400D02*
X6600Y152200D01*
Y154400D01*
X4800Y164200D02*
X6600Y162400D01*
X4800Y188200D02*
X6600Y186400D01*
X4800Y190400D02*
X6600Y192200D01*
X4800Y182400D02*
X6600Y184200D01*
Y186400D01*
X4800Y180200D02*
X6600Y178400D01*
Y208200D02*
Y210400D01*
X4800Y206400D02*
X6600Y208200D01*
X4800Y198400D02*
X6600Y200200D01*
Y224200D02*
Y226400D01*
X4800Y212200D02*
X6600Y210400D01*
X4800Y236200D02*
X6600Y234400D01*
X4800Y238400D02*
X6600Y240200D01*
X4800Y230400D02*
X6600Y232200D01*
X4800Y228200D02*
X6600Y226400D01*
X50200Y31900D02*
Y35100D01*
X57700Y39200D02*
Y42400D01*
X44500Y29600D02*
X47900D01*
X10100Y12800D02*
Y14300D01*
Y12800D02*
X11500Y11400D01*
X29300D01*
X10100Y14300D02*
X11500Y15700D01*
X28200D01*
X29600Y17100D01*
X28200Y20000D02*
X29600Y18600D01*
Y17100D02*
Y18600D01*
X11500Y20000D02*
X28200D01*
X10100Y22900D02*
X11500Y24300D01*
X10100Y21400D02*
X11500Y20000D01*
X10100Y21400D02*
Y22900D01*
X11400Y28600D02*
X28100D01*
X29500Y25700D02*
Y27200D01*
X28100Y28600D02*
X29500Y27200D01*
X28100Y24300D02*
X29500Y25700D01*
X11500Y24300D02*
X28100D01*
X28200D01*
X9600Y30400D02*
Y32600D01*
X11400Y34400D01*
Y36600D01*
X9600Y30400D02*
X11400Y28600D01*
X9600Y38400D02*
Y40600D01*
Y38400D02*
X11400Y36600D01*
X9600Y48600D02*
X11400Y50400D01*
X9600Y94400D02*
X11400Y92600D01*
X9600Y110400D02*
Y112600D01*
Y134400D02*
X11400Y132600D01*
X9600Y144600D02*
X11400Y146400D01*
X9600Y166400D02*
X11400Y164600D01*
X9600Y160600D02*
X11400Y162400D01*
X9600Y182400D02*
X11400Y180600D01*
X9600Y174400D02*
X11400Y172600D01*
Y204600D02*
X13500Y206700D01*
X15600D01*
X17700Y188600D02*
X19500Y190400D01*
X17700Y186400D02*
Y188600D01*
Y194400D02*
X19500Y192600D01*
X15600Y206700D02*
X17700Y204600D01*
Y186400D02*
X19800Y184300D01*
X24500D01*
X26600Y186400D02*
Y188600D01*
X24800Y190400D02*
X26600Y188600D01*
Y194400D02*
Y196600D01*
X24800Y192600D02*
X26600Y194400D01*
X24800Y190400D02*
Y192600D01*
X24500Y184300D02*
X26600Y186400D01*
X24800Y198400D02*
Y200600D01*
Y198400D02*
X26600Y196600D01*
X50000Y205000D02*
Y206200D01*
X31300Y224900D02*
X50000Y206200D01*
X24800Y200600D02*
X28200Y204000D01*
Y223700D01*
X29400Y224900D01*
X31300D01*
X125200Y108100D02*
X127000Y109900D01*
X137900Y117200D02*
X140200Y119500D01*
X132700Y112200D02*
Y115400D01*
X142000Y124500D02*
X145400D01*
X140200Y122700D02*
X142000Y124500D01*
X140200Y119500D02*
Y122700D01*
X132700Y115400D02*
X134500Y117200D01*
X137900D01*
X117700Y97600D02*
Y100800D01*
X89500Y73400D02*
X92900D01*
X74500Y58800D02*
X77900D01*
X55400Y36900D02*
X57700Y39200D01*
X40400Y22300D02*
X42700Y24600D01*
X35200Y17300D02*
Y20500D01*
X9600Y40600D02*
X11400Y42400D01*
X9600Y54400D02*
X11400Y52600D01*
X9600Y70400D02*
Y72600D01*
Y96600D02*
X11400Y98400D01*
Y90400D02*
Y92600D01*
Y106400D02*
Y108600D01*
X9600Y136600D02*
X11400Y138400D01*
X9600Y150400D02*
Y152600D01*
Y198400D02*
Y200600D01*
Y182400D02*
Y184600D01*
X19500Y198400D02*
Y200600D01*
X17700Y202400D02*
Y204600D01*
Y194400D02*
Y196600D01*
X19500Y190400D02*
Y192600D01*
X17700Y196600D02*
X19500Y198400D01*
X17700Y202400D02*
X19500Y200600D01*
X127000Y109900D02*
X130400D01*
X132700Y112200D01*
X119500Y102600D02*
X122900D01*
X125200Y104900D01*
X112000Y95300D02*
X115400D01*
X104500Y88000D02*
X107900D01*
X110200Y93500D02*
X112000Y95300D01*
X102700Y83000D02*
Y86200D01*
X104500Y88000D01*
X95200Y78900D02*
X97000Y80700D01*
X87700Y68400D02*
Y71600D01*
X85400Y66100D02*
X87700Y68400D01*
X80200Y64300D02*
X82000Y66100D01*
X70400Y51500D02*
X72700Y53800D01*
X59500Y44200D02*
X62900D01*
X65200Y46500D02*
Y49700D01*
X62900Y44200D02*
X65200Y46500D01*
X52000Y36900D02*
X55400D01*
X50200Y35100D02*
X52000Y36900D01*
X47900Y29600D02*
X50200Y31900D01*
X35200Y20500D02*
X37000Y22300D01*
X29300Y11400D02*
X35200Y17300D01*
X11400Y42400D02*
Y44600D01*
X9600Y62400D02*
X11400Y60600D01*
X9600Y78400D02*
Y80600D01*
X11400Y98400D02*
Y100600D01*
X9600Y88600D02*
X11400Y90400D01*
X9600Y86400D02*
Y88600D01*
Y112600D02*
X11400Y114400D01*
Y122400D02*
Y124600D01*
Y130400D02*
Y132600D01*
X9600Y118400D02*
X11400Y116600D01*
Y138400D02*
Y140600D01*
X9600Y142400D02*
X11400Y140600D01*
X9600Y134400D02*
Y136600D01*
Y152600D02*
X11400Y154400D01*
X9600Y158400D02*
X11400Y156600D01*
X9600Y174400D02*
Y176600D01*
Y168600D02*
X11400Y170400D01*
X9600Y190400D02*
Y192600D01*
Y184600D02*
X11400Y186400D01*
X9600Y190400D02*
X11400Y188600D01*
X9600Y200600D02*
X11400Y202400D01*
X9600Y198400D02*
X11400Y196600D01*
X115400Y95300D02*
X117700Y97600D01*
Y100800D02*
X119500Y102600D01*
X125200Y104900D02*
Y108100D01*
X100400Y80700D02*
X102700Y83000D01*
X97000Y80700D02*
X100400D01*
X110200Y90300D02*
Y93500D01*
X107900Y88000D02*
X110200Y90300D01*
X82000Y66100D02*
X85400D01*
X87700Y71600D02*
X89500Y73400D01*
X95200Y75700D02*
Y78900D01*
X92900Y73400D02*
X95200Y75700D01*
X67000Y51500D02*
X70400D01*
X72700Y57000D02*
X74500Y58800D01*
X80200Y61100D02*
Y64300D01*
X72700Y53800D02*
Y57000D01*
X77900Y58800D02*
X80200Y61100D01*
X57700Y42400D02*
X59500Y44200D01*
X65200Y49700D02*
X67000Y51500D01*
X37000Y22300D02*
X40400D01*
X42700Y27800D02*
X44500Y29600D01*
X42700Y24600D02*
Y27800D01*
X11400Y50400D02*
Y52600D01*
X9600Y46400D02*
X11400Y44600D01*
X9600Y46400D02*
Y48600D01*
X11400Y58400D02*
Y60600D01*
X9600Y56600D02*
X11400Y58400D01*
X9600Y54400D02*
Y56600D01*
Y80600D02*
X11400Y82400D01*
Y84600D01*
X9600Y70400D02*
X11400Y68600D01*
Y74400D02*
Y76600D01*
Y66400D02*
Y68600D01*
X9600Y78400D02*
X11400Y76600D01*
X9600Y64600D02*
X11400Y66400D01*
X9600Y72600D02*
X11400Y74400D01*
X9600Y62400D02*
Y64600D01*
Y102400D02*
Y104600D01*
X11400Y106400D01*
X9600Y94400D02*
Y96600D01*
Y102400D02*
X11400Y100600D01*
X9600Y86400D02*
X11400Y84600D01*
X9600Y126400D02*
Y128600D01*
X11400Y130400D01*
X9600Y118400D02*
Y120600D01*
X11400Y114400D02*
Y116600D01*
X9600Y126400D02*
X11400Y124600D01*
X9600Y120600D02*
X11400Y122400D01*
X9600Y110400D02*
X11400Y108600D01*
Y154400D02*
Y156600D01*
X9600Y142400D02*
Y144600D01*
X11400Y146400D02*
Y148600D01*
X9600Y150400D02*
X11400Y148600D01*
X9600Y176600D02*
X11400Y178400D01*
Y180600D01*
X9600Y166400D02*
Y168600D01*
X11400Y170400D02*
Y172600D01*
Y162400D02*
Y164600D01*
X9600Y158400D02*
Y160600D01*
X11400Y202400D02*
Y204600D01*
Y194400D02*
Y196600D01*
Y186400D02*
Y188600D01*
X9600Y192600D02*
X11400Y194400D01*
X106600Y264600D02*
X108800D01*
X104800Y266400D02*
X106600Y264600D01*
X104800Y266400D02*
Y279400D01*
X100800Y281200D02*
X103000D01*
X99000Y279400D02*
X100800Y281200D01*
X87400Y266400D02*
Y279400D01*
X93200Y266400D02*
Y279400D01*
Y266400D02*
X95000Y264600D01*
X97200D02*
X99000Y266400D01*
X75800Y279400D02*
X77600Y281200D01*
X79800D01*
X81600Y279400D01*
Y266400D02*
Y279400D01*
X83400Y264600D02*
X85600D01*
X87400Y266400D01*
X108800Y264600D02*
X110600Y266400D01*
Y279400D01*
X112400Y281200D01*
X114600D01*
X116400Y279400D01*
Y266400D02*
Y279400D01*
Y266400D02*
X122900Y259900D01*
X63400Y249900D02*
X75800Y262300D01*
X57970Y249900D02*
X63400D01*
X55100Y247030D02*
X57970Y249900D01*
X103000Y281200D02*
X104800Y279400D01*
X99000Y266400D02*
Y279400D01*
X95000Y264600D02*
X97200D01*
X91400Y281200D02*
X93200Y279400D01*
X89200Y281200D02*
X91400D01*
X87400Y279400D02*
X89200Y281200D01*
X81600Y266400D02*
X83400Y264600D01*
X75800Y262300D02*
Y279400D01*
X55100Y201300D02*
Y247030D01*
X53900Y200100D02*
X55100Y201300D01*
X35100Y200100D02*
X53900D01*
X32000Y197000D02*
X35100Y200100D01*
X32000Y185500D02*
Y197000D01*
X26900Y180400D02*
X32000Y185500D01*
X16700Y178500D02*
X18600Y180400D01*
X26900D01*
X22200Y171400D02*
X24100Y173300D01*
X25800D01*
X27700Y171400D01*
X16700Y104900D02*
Y178500D01*
X22200Y104900D02*
Y171400D01*
X27700Y104900D02*
Y171400D01*
X33200Y104900D02*
Y180400D01*
X36800Y182300D02*
X38700Y180400D01*
X35100Y182300D02*
X36800D01*
X33200Y180400D02*
X35100Y182300D01*
X38700Y167400D02*
Y180400D01*
Y167400D02*
X41100Y165000D01*
X49916D01*
X31300Y103000D02*
X33200Y104900D01*
X29600Y103000D02*
X31300D01*
X27700Y104900D02*
X29600Y103000D01*
X18500Y103100D02*
X20400D01*
X16700Y104900D02*
X18500Y103100D01*
X20400D02*
X22200Y104900D01*
X133000Y128100D02*
X136400D01*
X131200Y126300D02*
X133000Y128100D01*
X131200Y123100D02*
Y126300D01*
X128900Y120800D02*
X131200Y123100D01*
X116200Y111700D02*
X118000Y113500D01*
X116200Y108500D02*
Y111700D01*
X121400Y113500D02*
X123700Y115800D01*
X101200Y97100D02*
X103000Y98900D01*
X91400Y84300D02*
X93700Y86600D01*
X86200Y82500D02*
X88000Y84300D01*
X98900Y91600D02*
X101200Y93900D01*
X76400Y69700D02*
X78700Y72000D01*
X71200Y67900D02*
X73000Y69700D01*
X76400D01*
X78700Y72000D02*
Y75200D01*
X68900Y62400D02*
X71200Y64700D01*
X65500Y62400D02*
X68900D01*
X41200Y38700D02*
X43000Y40500D01*
X53900Y47800D02*
X56200Y50100D01*
X38900Y33200D02*
X41200Y35500D01*
X15500Y34500D02*
X16800Y33200D01*
X15500Y34500D02*
Y36700D01*
X16800Y38000D01*
X36000D01*
X37300Y39300D01*
Y41500D01*
X36000Y42800D02*
X37300Y41500D01*
X6600Y240200D02*
Y247800D01*
X4800Y44200D02*
X6600Y42400D01*
X16800Y42800D02*
X36000D01*
X15500Y46300D02*
X16800Y47600D01*
X15500Y44100D02*
Y46300D01*
Y44100D02*
X16800Y42800D01*
X36000Y57200D02*
X37300Y58500D01*
Y60700D01*
X36000Y62000D02*
X37300Y60700D01*
X15500Y53700D02*
Y55900D01*
X16800Y57200D01*
X15500Y63300D02*
X16800Y62000D01*
X15500Y63300D02*
Y65500D01*
X16800Y66800D01*
Y81200D02*
X36000D01*
X16800Y76400D02*
X36000D01*
X15500Y72900D02*
X16800Y71600D01*
X15500Y75100D02*
X16800Y76400D01*
X36000Y90800D02*
X37300Y89500D01*
X16800Y90800D02*
X36000D01*
X16800Y86000D02*
X36000D01*
X15500Y82500D02*
Y84700D01*
X36000Y95600D02*
X39000Y98600D01*
X16800Y95600D02*
X36000D01*
X15500Y92100D02*
X16800Y90800D01*
X15500Y92100D02*
Y94300D01*
X16800Y95600D01*
X39000Y98600D02*
Y131700D01*
X41800Y134500D01*
X46200D01*
X49000Y131700D01*
Y98600D02*
Y131700D01*
Y98600D02*
X51800Y95800D01*
X56200D01*
X59000Y98600D01*
X125500Y120800D02*
X128900D01*
X108700Y101200D02*
Y104400D01*
X93700Y86600D02*
Y89800D01*
X101200Y93900D02*
Y97100D01*
X103000Y98900D02*
X106400D01*
X88000Y84300D02*
X91400D01*
X61400Y55100D02*
X63700Y57400D01*
X71200Y64700D02*
Y67900D01*
X50500Y47800D02*
X53900D01*
X56200Y50100D02*
Y53300D01*
X58000Y55100D01*
X61400D01*
X16800Y33200D02*
X38900D01*
X41200Y35500D02*
Y38700D01*
X118000Y113500D02*
X121400D01*
X123700Y115800D02*
Y119000D01*
X125500Y120800D01*
X108700Y104400D02*
X110500Y106200D01*
X113900D01*
X106400Y98900D02*
X108700Y101200D01*
X113900Y106200D02*
X116200Y108500D01*
X93700Y89800D02*
X95500Y91600D01*
X98900D01*
X78700Y75200D02*
X80500Y77000D01*
X83900D01*
X86200Y79300D01*
Y82500D01*
X63700Y60600D02*
X65500Y62400D01*
X63700Y57400D02*
Y60600D01*
X48700Y46000D02*
X50500Y47800D01*
X48700Y42800D02*
Y46000D01*
X43000Y40500D02*
X46400D01*
X48700Y42800D01*
X15500Y53700D02*
X16800Y52400D01*
X36000D01*
X37300Y51100D01*
Y48900D02*
Y51100D01*
X36000Y47600D02*
X37300Y48900D01*
X16800Y47600D02*
X36000D01*
X16800Y66800D02*
X36000D01*
X16800Y62000D02*
X36000D01*
X15500Y72900D02*
Y75100D01*
X16800Y71600D02*
X36000D01*
X37300Y70300D01*
Y68100D02*
Y70300D01*
X36000Y66800D02*
X37300Y68100D01*
X15500Y82500D02*
X16800Y81200D01*
X15500Y84700D02*
X16800Y86000D01*
X36000Y81200D02*
X37300Y79900D01*
Y77700D02*
Y79900D01*
X36000Y76400D02*
X37300Y77700D01*
Y87300D02*
Y89500D01*
X36000Y86000D02*
X37300Y87300D01*
X128300Y133000D02*
X130600Y135300D01*
X123100Y128000D02*
Y131200D01*
X124900Y133000D01*
X128300D01*
X113300Y118400D02*
X115600Y120700D01*
X105800Y111100D02*
X108100Y113400D01*
X100600Y106100D02*
Y109300D01*
X102400Y111100D02*
X105800D01*
X93100Y98800D02*
Y102000D01*
X94900Y103800D01*
X85600Y91500D02*
Y94700D01*
X87400Y96500D01*
X90800D01*
X83300Y89200D02*
X85600Y91500D01*
X78100Y87400D02*
X79900Y89200D01*
X70600Y77600D02*
Y80800D01*
X72400Y82600D01*
X68300Y75300D02*
X70600Y77600D01*
X63100Y70300D02*
Y73500D01*
X64900Y75300D01*
X68300D01*
X60800Y68000D02*
X63100Y70300D01*
X57400Y68000D02*
X60800D01*
X16800Y57200D02*
X36000D01*
X55600Y66200D02*
X57400Y68000D01*
X55600Y63000D02*
Y66200D01*
X44300Y92800D02*
X46800D01*
X48700Y90900D01*
Y70900D02*
Y90900D01*
Y70900D02*
X50600Y69000D01*
X53100D01*
X59300Y92700D02*
X61200Y90800D01*
X56800Y92700D02*
X59300D01*
X61200Y85500D02*
Y90800D01*
Y85500D02*
X63100Y83600D01*
X65600D01*
X125700Y142700D02*
Y146100D01*
X123800Y148000D02*
X125700Y146100D01*
X120400Y148000D02*
X123800D01*
X118100Y145700D02*
X120400Y148000D01*
X112900Y140700D02*
Y143900D01*
X114700Y145700D01*
X118100D01*
X110600Y138400D02*
X112900Y140700D01*
X105400Y136600D02*
X107200Y138400D01*
X103100Y131800D02*
X105400Y134100D01*
X97900Y126800D02*
Y130000D01*
X99700Y131800D01*
X103100D01*
X95600Y124500D02*
X97900Y126800D01*
X90400Y122700D02*
X92200Y124500D01*
X95600D01*
X90400Y120200D02*
Y122700D01*
X88100Y117900D02*
X90400Y120200D01*
X82900Y112900D02*
Y116100D01*
X84700Y117900D01*
X88100D01*
X80600Y110600D02*
X82900Y112900D01*
X75400Y108800D02*
X77200Y110600D01*
X80600D01*
X75400Y106300D02*
Y108800D01*
X73100Y104000D02*
X75400Y106300D01*
X69700Y104000D02*
X73100D01*
X67800Y105900D02*
X69700Y104000D01*
X67800Y105900D02*
Y156700D01*
X69300Y158200D01*
X71500D01*
X73000Y156700D01*
Y118200D02*
Y156700D01*
Y118200D02*
X74500Y116700D01*
X76700D01*
X78200Y118200D01*
X85300Y127300D02*
X88200D01*
X83500Y129100D02*
X85300Y127300D01*
X83500Y225500D02*
X85900Y227900D01*
X88700D01*
X83500Y129100D02*
Y225500D01*
X88700Y227900D02*
X91100Y225500D01*
Y144100D02*
Y225500D01*
Y144100D02*
X93500Y141700D01*
X96300D01*
X98700Y144100D01*
Y225500D01*
X88200Y127300D02*
X123700Y162800D01*
X103900Y227900D02*
X106300Y225500D01*
X101100Y227900D02*
X103900D01*
X98700Y225500D02*
X101100Y227900D01*
X106300Y166000D02*
Y225500D01*
X111500Y163600D02*
X113900Y166000D01*
X108700Y163600D02*
X111500D01*
X106300Y166000D02*
X108700Y163600D01*
X113900Y166000D02*
Y224400D01*
X123600Y234100D01*
Y244500D01*
X115200Y252900D02*
X123600Y244500D01*
X106900Y252900D02*
X115200D01*
X104400Y250400D02*
X106900Y252900D01*
X104400Y235300D02*
Y250400D01*
X101900Y232800D02*
X104400Y235300D01*
X93600Y232800D02*
X101900D01*
X91100Y235300D02*
X93600Y232800D01*
X91100Y235300D02*
Y257500D01*
X60000Y235000D02*
X85100Y260100D01*
X88500D02*
X91100Y257500D01*
X85100Y260100D02*
X88500D01*
X117400Y125700D02*
X120800D01*
X115600Y123900D02*
X117400Y125700D01*
X115600Y120700D02*
Y123900D01*
X120800Y125700D02*
X123100Y128000D01*
X109900Y118400D02*
X113300D01*
X108100Y116600D02*
X109900Y118400D01*
X108100Y113400D02*
Y116600D01*
X100600Y109300D02*
X102400Y111100D01*
X94900Y103800D02*
X98300D01*
X100600Y106100D01*
X90800Y96500D02*
X93100Y98800D01*
X79900Y89200D02*
X83300D01*
X72400Y82600D02*
X76500D01*
X78100Y84200D01*
Y87400D01*
X44800Y55500D02*
X48100D01*
X55600Y63000D01*
X42400Y57900D02*
X44800Y55500D01*
X42400Y57900D02*
Y90900D01*
X44300Y92800D01*
X53100Y69000D02*
X54900Y70800D01*
Y90800D01*
X56800Y92700D01*
X65600Y83600D02*
X67400Y85400D01*
Y87900D01*
X69200Y89700D01*
X72600D01*
X75000Y92100D01*
Y95300D01*
X76800Y97100D01*
X80200D01*
X89900Y105900D02*
Y109100D01*
X91800Y111000D01*
X95200D01*
X97400Y113200D01*
Y115700D01*
X99200Y117500D01*
X102600D01*
X104900Y119800D01*
Y123000D01*
X106700Y124800D01*
X110100D01*
X112400Y127100D01*
Y129600D01*
X119900Y133700D02*
Y136900D01*
X125700Y142700D01*
X112400Y129600D02*
X114200Y131400D01*
X117600D01*
X119900Y133700D01*
X107200Y138400D02*
X110600D01*
X105400Y134100D02*
Y136600D01*
X60000Y195000D02*
X75400D01*
X78200Y192200D01*
Y118200D02*
Y192200D01*
X84200Y103600D02*
X87600D01*
X89900Y105900D01*
X80200Y97100D02*
X82400Y99300D01*
Y101800D01*
X84200Y103600D01*
X193700Y89800D02*
Y100000D01*
Y89800D02*
X209500Y74000D01*
X234800D01*
X208200Y130600D02*
Y133100D01*
Y130600D02*
X209500Y129300D01*
X212400D01*
X193700Y100000D02*
X207900Y114200D01*
X210900Y125000D02*
X216100D01*
X207900Y122000D02*
X210900Y125000D01*
X207900Y114200D02*
Y122000D01*
X244800Y74000D02*
X244900Y73900D01*
X234900Y24200D02*
X244900Y34200D01*
Y73900D01*
X267500Y30700D02*
X270500Y27700D01*
X241500Y22800D02*
X267900D01*
X270500Y25400D01*
Y27700D01*
X260000Y33600D02*
Y50000D01*
Y33600D02*
X262900Y30700D01*
X267500D01*
X286600Y236400D02*
X314300Y208700D01*
X282500Y236400D02*
X286600D01*
X279400Y233300D02*
X282500Y236400D01*
X279400Y229300D02*
Y233300D01*
X267400Y217300D02*
X279400Y229300D01*
X267400Y208300D02*
Y217300D01*
X256800Y197700D02*
X267400Y208300D01*
X256800Y157700D02*
Y197700D01*
X202900Y103800D02*
X256800Y157700D01*
X271200Y206600D02*
Y215600D01*
X284800Y229200D01*
X286500D02*
X288000Y227700D01*
X260700Y196100D02*
X271200Y206600D01*
X260700Y154300D02*
Y196100D01*
X206700Y100300D02*
X260700Y154300D01*
X284800Y229200D02*
X286500D01*
X288000Y226000D02*
Y227700D01*
X274900Y212900D02*
X288000Y226000D01*
X274900Y204800D02*
Y212900D01*
X265000Y194900D02*
X274900Y204800D01*
X265000Y152100D02*
Y194900D01*
X209800Y96900D02*
X265000Y152100D01*
X209800Y95300D02*
Y96900D01*
X246500Y83500D02*
X270000Y60000D01*
X202900Y102200D02*
Y103800D01*
Y102200D02*
X204800Y100300D01*
X206700D01*
X211700Y93400D02*
X213600D01*
X209800Y95300D02*
X211700Y93400D01*
X213600D02*
X229900Y109700D01*
X217400Y89900D02*
X233600Y106100D01*
X229900Y109700D02*
X231800D01*
X233700Y107800D01*
Y106200D02*
Y107800D01*
X217400Y87700D02*
Y89900D01*
Y87700D02*
X221600Y83500D01*
X246500D01*
X310200Y181079D02*
Y206600D01*
X294200Y222600D02*
X310200Y206600D01*
X289300Y222600D02*
X294200D01*
X277900Y211200D02*
X289300Y222600D01*
X277900Y202600D02*
Y211200D01*
X268900Y193600D02*
X277900Y202600D01*
X268900Y150500D02*
Y193600D01*
X234000Y115600D02*
X268900Y150500D01*
X234000Y113800D02*
Y115600D01*
Y113800D02*
X235600Y112200D01*
X237200D01*
X273300Y148300D01*
Y192100D01*
X281700Y200500D01*
Y208600D01*
X289400Y216300D01*
X292700D01*
X278400Y145900D02*
Y190000D01*
X225000Y92500D02*
X278400Y145900D01*
X225000Y89400D02*
Y92500D01*
Y89400D02*
X227300Y87100D01*
X262900D01*
X290000Y60000D01*
X292700Y216300D02*
X305800Y203200D01*
Y145500D02*
Y203200D01*
X278400Y190000D02*
X284500Y196100D01*
X289000D01*
X291900Y193200D01*
Y145400D02*
Y193200D01*
Y145400D02*
X294000Y143300D01*
X303600D02*
X305800Y145500D01*
X294000Y143300D02*
X303600D01*
X351379Y149900D02*
X372400D01*
X377500Y155000D01*
X385500Y61200D02*
X388100D01*
X382700Y58400D02*
X385500Y61200D01*
X382700Y56300D02*
Y58400D01*
X389700Y84900D02*
X393200Y81400D01*
X462400D01*
X463900Y82900D01*
Y85000D01*
X462300Y86600D02*
X463900Y85000D01*
X397100Y86600D02*
X462300D01*
X395600Y88100D02*
X397100Y86600D01*
X395600Y88100D02*
Y90300D01*
X397100Y91800D01*
X462400D01*
X463900Y93300D01*
Y95500D01*
X462400Y97000D02*
X463900Y95500D01*
X397100Y97000D02*
X462400D01*
X395600Y98500D02*
X397100Y97000D01*
X395600Y98500D02*
Y100700D01*
X397100Y102200D01*
X462400D01*
X463900Y103700D01*
Y105900D01*
X462400Y107400D02*
X463900Y105900D01*
X397100Y107400D02*
X462400D01*
X395600Y108900D02*
X397100Y107400D01*
X395600Y108900D02*
Y111100D01*
X397100Y112600D01*
X438500D01*
X428400Y121800D02*
Y190400D01*
X433000Y195000D01*
X440000D01*
X428400Y121800D02*
X432400Y117800D01*
X438500Y112600D02*
X439900Y114000D01*
Y116300D01*
X438400Y117800D02*
X439900Y116300D01*
X432400Y117800D02*
X438400D01*
X389700Y84900D02*
Y161580D01*
X420700Y125000D02*
X422900Y122800D01*
X402400Y125000D02*
X420700D01*
X395700Y119900D02*
X397900Y117700D01*
X420700D01*
X422900Y119900D01*
Y122800D01*
X400200Y127200D02*
X402400Y125000D01*
X400200Y127200D02*
Y130100D01*
X402400Y132300D01*
X420700D01*
X400200Y144700D02*
X402400Y146900D01*
X400200Y141800D02*
Y144700D01*
Y141800D02*
X402400Y139600D01*
X422900Y134500D02*
Y137400D01*
X420700Y132300D02*
X422900Y134500D01*
X402400Y139600D02*
X420700D01*
X422900Y137400D01*
X402400Y146900D02*
X420700D01*
X402400Y161500D02*
X420700D01*
X400200Y159300D02*
X402400Y161500D01*
X400200Y156400D02*
Y159300D01*
Y156400D02*
X402400Y154200D01*
X422900Y149100D02*
Y152000D01*
X420700Y146900D02*
X422900Y149100D01*
X402400Y154200D02*
X420700D01*
X422900Y152000D01*
X402400Y176100D02*
X420700D01*
X400200Y173900D02*
X402400Y176100D01*
X400200Y171000D02*
Y173900D01*
Y171000D02*
X402400Y168800D01*
X422900Y163700D02*
Y166600D01*
X420700Y161500D02*
X422900Y163700D01*
X402400Y168800D02*
X420700D01*
X422900Y166600D01*
X420700Y176100D02*
X422100Y177500D01*
Y180400D01*
X419900Y182600D02*
X422100Y180400D01*
X393600Y187700D02*
X395800Y189900D01*
X419900D01*
X422100Y192100D01*
Y195000D01*
X419900Y197200D02*
X422100Y195000D01*
X382900Y197200D02*
X419900D01*
X380700Y199400D02*
X382900Y197200D01*
X380700Y199400D02*
Y231000D01*
X382800Y233100D01*
X385400D01*
X387500Y231000D01*
Y203400D02*
Y231000D01*
Y203400D02*
X389600Y201300D01*
X392200D01*
X394300Y203400D01*
Y231000D01*
X407900Y203400D02*
Y225900D01*
X405800Y201300D02*
X407900Y203400D01*
X403200Y201300D02*
X405800D01*
X401100Y203400D02*
X403200Y201300D01*
X401100Y203400D02*
Y231000D01*
X399000Y233100D02*
X401100Y231000D01*
X396400Y233100D02*
X399000D01*
X394300Y231000D02*
X396400Y233100D01*
X407900Y225900D02*
X417000Y235000D01*
X440000D01*
X293500Y481200D02*
Y484300D01*
Y470100D02*
Y472400D01*
Y470100D02*
X296400Y467200D01*
X293500Y457600D02*
Y460500D01*
X296400Y463400D01*
Y467200D01*
X95700Y285000D02*
X99000D01*
X93300Y287400D02*
X95700Y285000D01*
X89500Y287400D02*
X93300D01*
X87100Y285000D02*
X89500Y287400D01*
X75200Y285000D02*
X77600Y287400D01*
X81400D01*
X83800Y285000D01*
X87100D01*
X62400Y287400D02*
X69500D01*
X71900Y285000D01*
X75200D01*
X60000D02*
X62400Y287400D01*
X232000Y378700D02*
X233900Y380600D01*
Y383100D01*
X235900Y385100D01*
X238400D01*
X221700Y384400D02*
X226800D01*
X242300Y391500D02*
X244800D01*
X240300Y389500D02*
X242300Y391500D01*
X240300Y387000D02*
Y389500D01*
X238400Y385100D02*
X240300Y387000D01*
X248700Y397900D02*
X251200D01*
X246700Y395900D02*
X248700Y397900D01*
X246700Y393400D02*
Y395900D01*
X244800Y391500D02*
X246700Y393400D01*
X255100Y404300D02*
X257600D01*
X253100Y402300D02*
X255100Y404300D01*
X253100Y399800D02*
Y402300D01*
X251200Y397900D02*
X253100Y399800D01*
X261500Y410700D02*
X264000D01*
X259500Y408700D02*
X261500Y410700D01*
X259500Y406200D02*
Y408700D01*
X257600Y404300D02*
X259500Y406200D01*
X264000Y410700D02*
X269000Y415700D01*
X320900Y461200D02*
X322600Y459500D01*
X327300D01*
X320900Y461200D02*
Y463600D01*
X322500Y465200D01*
X327400D01*
X328900Y466700D01*
Y468900D01*
X327600Y470200D02*
X328900Y468900D01*
X320400Y470200D02*
X327600D01*
X318700Y471900D02*
X320400Y470200D01*
X484600Y256800D02*
Y264000D01*
Y256800D02*
X486400Y255000D01*
X494200D01*
X495700Y256500D01*
Y264000D01*
D11*
X230000Y50000D02*
D03*
Y60000D02*
D03*
X240000D02*
D03*
Y50000D02*
D03*
X260000D02*
D03*
Y60000D02*
D03*
X250000D02*
D03*
Y50000D02*
D03*
X290000D02*
D03*
Y60000D02*
D03*
X300000D02*
D03*
Y50000D02*
D03*
X280000D02*
D03*
Y60000D02*
D03*
X270000D02*
D03*
Y50000D02*
D03*
X190000D02*
D03*
Y60000D02*
D03*
X200000D02*
D03*
Y50000D02*
D03*
X220000D02*
D03*
Y60000D02*
D03*
X210000D02*
D03*
Y50000D02*
D03*
X170000D02*
D03*
Y60000D02*
D03*
X180000D02*
D03*
Y50000D02*
D03*
X160000D02*
D03*
Y60000D02*
D03*
X150000D02*
D03*
Y50000D02*
D03*
X330000Y49916D02*
D03*
Y60000D02*
D03*
X340000D02*
D03*
Y49916D02*
D03*
X320000D02*
D03*
Y60000D02*
D03*
X310000D02*
D03*
Y49916D02*
D03*
X230000Y440000D02*
D03*
Y450000D02*
D03*
X240000D02*
D03*
Y440000D02*
D03*
X260000D02*
D03*
Y450000D02*
D03*
X250000D02*
D03*
Y440000D02*
D03*
X290000D02*
D03*
Y450000D02*
D03*
X300000D02*
D03*
Y440000D02*
D03*
X280000D02*
D03*
Y450000D02*
D03*
X270000D02*
D03*
Y440000D02*
D03*
X190000D02*
D03*
Y450000D02*
D03*
X200000D02*
D03*
Y440000D02*
D03*
X220000D02*
D03*
Y450000D02*
D03*
X210000D02*
D03*
Y440000D02*
D03*
X170000D02*
D03*
Y450000D02*
D03*
X180000D02*
D03*
Y440000D02*
D03*
X160000D02*
D03*
Y450000D02*
D03*
X150000D02*
D03*
Y440000D02*
D03*
X330000Y439917D02*
D03*
Y450000D02*
D03*
X340000D02*
D03*
Y439917D02*
D03*
X320000D02*
D03*
Y450000D02*
D03*
X310000D02*
D03*
Y439917D02*
D03*
X440000Y265000D02*
D03*
X450000D02*
D03*
Y255000D02*
D03*
X440000D02*
D03*
Y235000D02*
D03*
X450000D02*
D03*
Y245000D02*
D03*
X440000D02*
D03*
Y205000D02*
D03*
X450000D02*
D03*
Y195000D02*
D03*
X440000D02*
D03*
Y215000D02*
D03*
X450000D02*
D03*
Y225000D02*
D03*
X440000D02*
D03*
Y305000D02*
D03*
X450000D02*
D03*
Y295000D02*
D03*
X440000D02*
D03*
Y275000D02*
D03*
X450000D02*
D03*
Y285000D02*
D03*
X440000D02*
D03*
Y325000D02*
D03*
X450000D02*
D03*
Y315000D02*
D03*
X440000D02*
D03*
Y335000D02*
D03*
X450000D02*
D03*
Y345000D02*
D03*
X440000D02*
D03*
X439917Y165000D02*
D03*
X450000D02*
D03*
Y155000D02*
D03*
X439917D02*
D03*
Y175000D02*
D03*
X450000D02*
D03*
Y185000D02*
D03*
X439917D02*
D03*
X50000Y265000D02*
D03*
X60000D02*
D03*
Y255000D02*
D03*
X50000D02*
D03*
Y235000D02*
D03*
X60000D02*
D03*
Y245000D02*
D03*
X50000D02*
D03*
Y205000D02*
D03*
X60000D02*
D03*
Y195000D02*
D03*
X50000D02*
D03*
Y215000D02*
D03*
X60000D02*
D03*
Y225000D02*
D03*
X50000D02*
D03*
Y305000D02*
D03*
X60000D02*
D03*
Y295000D02*
D03*
X50000D02*
D03*
Y275000D02*
D03*
X60000D02*
D03*
Y285000D02*
D03*
X50000D02*
D03*
Y325000D02*
D03*
X60000D02*
D03*
Y315000D02*
D03*
X50000D02*
D03*
Y335000D02*
D03*
X60000D02*
D03*
Y345000D02*
D03*
X50000D02*
D03*
X49916Y165000D02*
D03*
X60000D02*
D03*
Y155000D02*
D03*
X49916D02*
D03*
Y175000D02*
D03*
X60000D02*
D03*
Y185000D02*
D03*
X49916D02*
D03*
X336280Y215000D02*
D03*
X326279D02*
D03*
Y225000D02*
D03*
X336280D02*
D03*
Y245000D02*
D03*
X326279D02*
D03*
Y235000D02*
D03*
X336280D02*
D03*
Y275000D02*
D03*
X326279D02*
D03*
Y285000D02*
D03*
X336280D02*
D03*
Y265000D02*
D03*
X326279D02*
D03*
Y255000D02*
D03*
X336280D02*
D03*
Y175000D02*
D03*
X326279D02*
D03*
X326279Y185000D02*
D03*
X336280D02*
D03*
Y205000D02*
D03*
X326279D02*
D03*
X326279Y195000D02*
D03*
X336280D02*
D03*
Y155000D02*
D03*
X326279D02*
D03*
X326279Y165000D02*
D03*
X336280D02*
D03*
Y145000D02*
D03*
X326279D02*
D03*
X326279Y135000D02*
D03*
X336280D02*
D03*
Y335000D02*
D03*
X326279D02*
D03*
Y345000D02*
D03*
X336280D02*
D03*
Y365000D02*
D03*
X326279D02*
D03*
Y355000D02*
D03*
X336280D02*
D03*
Y315000D02*
D03*
X326279D02*
D03*
Y325000D02*
D03*
X336280D02*
D03*
Y305000D02*
D03*
X326279D02*
D03*
Y295000D02*
D03*
X336280D02*
D03*
X153720Y215000D02*
D03*
X143720D02*
D03*
Y225000D02*
D03*
X153720D02*
D03*
Y245000D02*
D03*
X143720D02*
D03*
Y235000D02*
D03*
X153720D02*
D03*
Y275000D02*
D03*
X143720D02*
D03*
Y285000D02*
D03*
X153720D02*
D03*
Y265000D02*
D03*
X143720D02*
D03*
Y255000D02*
D03*
X153720D02*
D03*
Y175000D02*
D03*
X143720D02*
D03*
X143720Y185000D02*
D03*
X153720D02*
D03*
Y205000D02*
D03*
X143720D02*
D03*
X143720Y195000D02*
D03*
X153720D02*
D03*
Y155000D02*
D03*
X143720D02*
D03*
X143720Y165000D02*
D03*
X153720D02*
D03*
Y145000D02*
D03*
X143720D02*
D03*
X143720Y135000D02*
D03*
X153720D02*
D03*
Y335000D02*
D03*
X143720D02*
D03*
Y345000D02*
D03*
X153720D02*
D03*
Y365000D02*
D03*
X143720D02*
D03*
Y355000D02*
D03*
X153720D02*
D03*
Y315000D02*
D03*
X143720D02*
D03*
Y325000D02*
D03*
X153720D02*
D03*
Y305000D02*
D03*
X143720D02*
D03*
Y295000D02*
D03*
X153720D02*
D03*
X356279D02*
D03*
X346280D02*
D03*
Y305000D02*
D03*
X356279D02*
D03*
Y325000D02*
D03*
X346280D02*
D03*
Y315000D02*
D03*
X356279D02*
D03*
Y355000D02*
D03*
X346280D02*
D03*
Y365000D02*
D03*
X356279D02*
D03*
Y345000D02*
D03*
X346280D02*
D03*
Y335000D02*
D03*
X356279D02*
D03*
Y135000D02*
D03*
X346280D02*
D03*
X346280Y145000D02*
D03*
X356279D02*
D03*
Y165000D02*
D03*
X346280D02*
D03*
X346280Y155000D02*
D03*
X356279D02*
D03*
Y195000D02*
D03*
X346280D02*
D03*
X346280Y205000D02*
D03*
X356279D02*
D03*
Y185000D02*
D03*
X346280D02*
D03*
X346280Y175000D02*
D03*
X356279D02*
D03*
Y255000D02*
D03*
X346280D02*
D03*
Y265000D02*
D03*
X356279D02*
D03*
Y285000D02*
D03*
X346280D02*
D03*
Y275000D02*
D03*
X356279D02*
D03*
Y235000D02*
D03*
X346280D02*
D03*
Y245000D02*
D03*
X356279D02*
D03*
Y225000D02*
D03*
X346280D02*
D03*
Y215000D02*
D03*
X356279D02*
D03*
X173721Y295000D02*
D03*
X163721D02*
D03*
Y305000D02*
D03*
X173721D02*
D03*
Y325000D02*
D03*
X163721D02*
D03*
Y315000D02*
D03*
X173721D02*
D03*
Y355000D02*
D03*
X163721D02*
D03*
Y365000D02*
D03*
X173721D02*
D03*
Y345000D02*
D03*
X163721D02*
D03*
Y335000D02*
D03*
X173721D02*
D03*
Y135000D02*
D03*
X163721D02*
D03*
X163721Y145000D02*
D03*
X173721D02*
D03*
Y165000D02*
D03*
X163721D02*
D03*
X163721Y155000D02*
D03*
X173721D02*
D03*
Y195000D02*
D03*
X163721D02*
D03*
X163721Y205000D02*
D03*
X173721D02*
D03*
Y185000D02*
D03*
X163721D02*
D03*
X163721Y175000D02*
D03*
X173721D02*
D03*
X163721Y255000D02*
D03*
Y265000D02*
D03*
X173721D02*
D03*
Y285000D02*
D03*
X163721D02*
D03*
Y275000D02*
D03*
X173721D02*
D03*
Y235000D02*
D03*
X163721D02*
D03*
Y245000D02*
D03*
X173721D02*
D03*
Y225000D02*
D03*
X163721D02*
D03*
Y215000D02*
D03*
X173721D02*
D03*
Y255000D02*
D03*
D12*
X377500Y145000D02*
D03*
Y155000D02*
D03*
X244800Y74000D02*
D03*
X297300Y278900D02*
D03*
X310000Y266000D02*
D03*
Y275000D02*
D03*
Y284000D02*
D03*
Y293000D02*
D03*
X301000Y321500D02*
D03*
X310000Y302000D02*
D03*
Y311000D02*
D03*
X120000Y315000D02*
D03*
X124500Y343100D02*
D03*
X110800D02*
D03*
X117500Y350000D02*
D03*
X131200D02*
D03*
X120000Y335000D02*
D03*
X110000D02*
D03*
Y325000D02*
D03*
X120000D02*
D03*
X195000Y195000D02*
D03*
X205000D02*
D03*
X213500D02*
D03*
Y205000D02*
D03*
Y215000D02*
D03*
X205000D02*
D03*
X195000D02*
D03*
X213500Y225000D02*
D03*
X195000Y245000D02*
D03*
X205000Y225000D02*
D03*
X195000D02*
D03*
X215500Y245000D02*
D03*
X198800Y185200D02*
D03*
X200000Y238000D02*
D03*
X185000Y245000D02*
D03*
X226000Y248400D02*
D03*
X215000Y280000D02*
D03*
X225000D02*
D03*
Y335000D02*
D03*
X215000Y290000D02*
D03*
Y325100D02*
D03*
X190200Y339800D02*
D03*
X234800Y74000D02*
D03*
M02*
