M48
;Layer_Color=9474304
;FILE_FORMAT=2:5
INCH,LZ
;TYPE=PLATED
T1F00S00C0.01500
T2F00S00C0.03543
T3F00S00C0.04331
T4F00S00C0.04724
;TYPE=NON_PLATED
T5F00S00C0.07087
T6F00S00C0.14000
%
T01
X00703Y01373
X00882Y01494
X0107Y01545
Y01626
X02788Y01671
Y01338
X02921Y01293
X02891Y01021
X03563Y01239
X03502Y01641
X0446846Y0149409
X05587Y01557
X06158Y01588
X06397Y01495
X06559Y01537
X06597Y0159
X06615Y01657
X06684Y01486
X06529Y0131
X06493Y01054
X06613Y01068
X06702
X06684Y01147
X0666398Y00877
X06615Y00906
X0652Y0090761
X06549Y0084
X06737Y00816
X0685Y00774
X0677497Y00651
X0692Y00588
X06921Y00432
X0691657Y00338
X06856Y00329
X06976Y00323
X0703631Y0042
X0706093Y0054793
X0714195Y00478
X07223Y00436
X07286Y00593
X07299Y007275
X07352Y00715
X07323Y0078
X0735Y00304
X06169Y00443
X0612Y00408
X06052Y00419
X06097Y00707
X06081Y00834
X06333Y00872
X06336Y0098
X06317Y01156
X06249Y0117861
X06366Y00767
X07044Y01374
X07276Y01664
X07463Y01564
X07494Y01317
X07552Y01329
X07585Y01166
X07619Y0112
X07765Y01157
X07706Y01268
X07787Y01374
X07916Y01403
X07971Y01268
X08106Y01341
X0823957Y0132
X08294Y01079
X0838Y01109
X08385Y0096
X08441Y00866
X08403Y00629
X083Y0059667
X085Y0055898
X08565Y00629
X087
X0885429
X08884Y00964
X08864Y01257
X08889Y0148
X08824Y015
X08831Y0155
X08717Y01368
X08592Y01141
X08225Y00983
X08133
X08085Y00873
X07886Y00898
X07584Y00922
X07384Y00816
X07388Y00648
X07445Y0070143
X0747431Y0055831
X07495Y00502
X07426Y00504
X0759Y0061452
X07659Y00559
X07743Y0063
X07791Y00611
X0807263Y00616
X08155Y00323
X08324Y00154
X08661Y00221
X08879Y00183
X07555Y00327
X08033Y0112
X08108Y01573
X0901398Y0156402
X0895Y01322
X0899Y01028
X09122Y00865
X09067Y00625
X0899Y00629
X09153Y00585
X09518Y00537
X09631Y00659
X09584Y00776
X09687Y00852
X09776Y00994
X09766Y01069
X09707Y01068
Y01159
X09841Y01075
X10103Y00876
X1008Y00733
X10186Y00588
X10241Y00531
Y00425
X10135
X10033Y0048
X09922Y005355
X09947Y00594
X097655Y004575
X09832Y00386
X0976Y00279
X09631Y00387
X09465Y0089
X09481Y01564
X09598Y01512
X09306Y01677
X10139Y0148
X10405Y015375
Y01611
X10369Y01363
X103697Y01292
X10302Y0128
X10461
X10357Y01147
X10306Y01086
X10455Y0092
X09094Y0022
X10877Y00561
X10887Y0064596
X10918Y0106
X10705Y013285
X10734Y01693
X10677Y02484
X10889Y02601
X1036Y02496
X1045Y02395
X09926Y0245
X09665Y02463
X09497Y02516
X09467Y0255987
X09561Y0282
X09817Y02865
X09787Y03133
X09616Y03117
X0944Y03148
X0934Y03006
X09222Y02816
X0915Y02215
X09263Y021755
X09241Y02089
X0927017Y02041
X0895Y02215
X09605Y02256
X09696Y02253
X09766Y0229
X09748Y02105
X09891Y02195
X09714Y01858
X10413Y0185
X10358Y02901
X10412Y02979
X10441Y03024
X10416Y03122
X1038529Y03166
X10073Y03187
X10041Y0297074
X08752Y02793
X08486Y02836
X0836043Y02826
X0795Y02785
X08Y03006
X08108Y03118
X07399Y03018
X07442Y02862
X07591Y02803
X07661Y02534
X07616Y0243049
X07585Y02385
X07509Y0235
X0751Y022662
X07467Y02121
X07392Y02117
X07426Y02049
X07542Y02043
X07587Y01901
X07616Y01818
X07407Y01794
X07952Y01776
X08226Y01788
X08324Y0172
X0843Y01755
X0849Y0196635
X08416Y02015
X0826Y01995
X08228Y02166
X08169Y02181
X081172Y0215059
X07909Y02165
X07816Y02073
X07712Y02194
X07716Y02296
X07674Y0233
X07377Y02333
X07471Y0257549
X08725Y02146
X08788Y02164
X0882Y02095
X08886Y02106
X07239Y0213
X07109Y01995
X07286Y01882
X07303Y01779
X0701281Y01716
X06959Y0185
X06629Y01867
X06627Y0195
X06558Y02011
X06627Y02159
X0631Y02089
X0625Y02019
X06175Y0205
X06032Y0195
X05963Y01921
X06002Y01788
X065835Y0175
X0628Y02201
X0626Y0225
X06187Y0249
X06323Y02718
X06295Y0295
X06211Y02912
X06002Y02922
X06629Y0315
X066Y0321182
X0688042Y03207
X07149Y03046
X07367Y02603
X0663Y02584
X05435Y02664
X0515571Y0299409
X0498Y02926
X04847Y02793
X05288Y03198
X04762Y01688
X03851Y01891
X03841Y0196
X03655Y01955
X03797Y02218
X0384Y02478
X03587Y02838
X0332657Y0295
X03285Y02766
X0327219Y02666
X03122Y026
X03071
X03032Y0246
X02961Y0244
X02806Y02344
X02711Y025
X02794Y027
X03309Y03165
X03815Y03066
X03463Y01688
X02585Y01735
X02482Y0202
X02413Y02336
X02394Y02386
X024513Y02439
X02492Y02737
X02109Y02634
X0213Y02566
X01875Y024
X01708Y028
X0145Y0272
X0142008Y029
X01385Y0313
X01227Y02975
X01923Y03
X01857Y03066
X0145Y022
X01472Y019
X0159Y01898
X01229Y01768
X01143Y018
X0112604Y01739
X0120004Y0205104
X00823Y02034
X0083783Y02134
X00919Y0188
X00908Y02651
X01097Y032
X0035Y03248
X00293Y03061
X00339Y02979
X00278Y02848
X009Y034
X00916Y03458
X00802Y035
X01781Y03949
X02711Y03972
X02788Y04108
X03071Y04111
X02751Y03769
X03727Y03931
Y042
X03695Y03551
X03991Y03395
X04718Y03312
X05332Y03255
X05963Y0335
X06576Y03336
X06658Y03534
X06704Y03505
X0683488Y03554
X0680237Y0362013
X06804Y0368
X06812Y03768
X06772Y0384
X0650484Y03857
X0657Y03931
X0659Y03721
X0658Y03667
X06636Y03638
X06515Y0372
X06457Y03669
X07002Y03768
X07049Y03819
X07151Y03875
X0716Y04036
X0733Y04032
X07359Y04215
X07301Y04315
X07355Y0451667
X07241Y0466057
X07279Y047
X07326Y04776
X07117Y04584
X07054Y04468
X07053Y04393
X0692Y04429
X06912Y044965
X0692Y043497
X0686Y04343
X06904Y04156
X07035Y04206
X0708193Y04183
X06671Y042
X0657Y04229
X0686826Y0336
X06933
X0714057Y03284
X07308Y03277
X07243Y03469
X0718Y03529
X0745Y03537
X07572Y03575
X07565Y03718
X0765Y03748
X0767907Y036745
X07836Y03715
X0790319Y037685
X08051Y03772
X08047Y03868
X0811Y03909
X08206Y03879
X08181Y03735
X0813Y0372
X08045Y03653
X08064Y03568
X07951Y03464
X07814Y03493
X07854Y03597
X07728Y03375
X07629Y03282
X08055Y03308
X08293Y03402
X08313Y03516
X0844939Y0351
X08504Y0352
X08588Y03429
X08702Y0334
X08795Y03727
X0851398Y03732
X08383Y03743
X08426Y0366
X08634Y03888
X08685Y04115
X08739Y04371
X08745Y04428
X08874Y04441
X08872Y04688
X08611Y04436
X085Y04371
X08338Y04386
X0823167Y0439933
X08165Y0437
X080965Y04392
X08018Y04371
X07938Y04409
X07745Y0437
X07611Y04371
X07495Y04186
X07433Y04161
X07576Y03868
X07622Y04678
X07681
X07769
X07817Y047235
X0789364Y0475864
X07922Y04678
X08055Y04672
X081205Y047175
X0825Y04782
X07564Y04757
X07445Y04603
X08962Y04697
X0903Y04695
X09106Y04708
X09131Y04422
X09212Y04442
X09364Y04439
X09514Y04525
X09558Y04599
X09636Y04569
X09663Y04495
X09649Y04328
X0972Y04347
X09929Y043297
X09866Y04448
X10013Y0452
X1002Y04611
X10005Y04679
X099375Y04655
X1008Y04374
X10242Y04511
X10249Y0408
X10429
X10439Y03945
X1042Y0353
X1025676Y0351676
X1023Y03572
X09946Y03388
X09872Y03389
X09782Y03422
X0957633Y03302
X09478Y03566
X0938Y03666
X093272
X0927602
X09213Y03653
X09282Y0352
X093328Y03508
X09485Y03852
X09558Y03851
X09811Y0385462
X09736Y03956
X0984228Y04205
X09185Y03883
X10528Y03802
X10825Y04049
X10682Y04282
X10855Y03545
X0837Y04854
X08159Y04848
X08055Y0486112
X0797975Y0488575
T02
X00423Y00248
Y00348
Y00448
Y00548
Y00648
Y00748
Y00848
Y00948
Y01048
Y01148
Y01248
Y01348
Y01448
Y01548
Y01648
X00623Y01653
Y01553
Y01453
Y01353
Y01253
Y01153
Y01053
Y00953
Y00853
Y00753
Y00653
Y00553
Y00453
Y00353
Y00253
X037Y007
X038
X039
X04
X041
X042
X043
X044
X045
X046
X048
X049
X05
X051
X052
X053
X054
X055
X056
X057
X00623Y01753
Y01853
Y01953
Y02053
Y02153
X00423Y02148
Y02048
Y01948
Y01848
Y01748
Y02804
Y02904
Y03004
Y03104
Y03204
X00623
Y03104
Y03004
Y02904
Y02804
Y03304
Y03404
Y03504
Y03604
Y03704
Y03804
Y03904
Y04004
Y04104
Y04204
Y04304
Y04404
Y04504
Y04604
Y04704
X00423
Y04604
Y04504
Y04404
Y04304
Y04204
Y04104
Y04004
Y03904
Y03804
Y03704
Y03604
Y03504
Y03404
Y03304
X037Y037
X038
X039
X04
X041
X042
X043
X044
X045
X046
X048
X049
X05
X051
X052
X053
X054
X055
X056
X057
T03
X019Y0025
X021
T04
X0408909Y01
X0450091
X048Y0149409
Y0190591
X0450091Y024
X048Y0299409
X0408909Y024
X048Y0340591
T05
X0396983Y0444898
Y0462615
X0469483
Y0444898
X0545483
Y0462615
T06
X002Y002
Y048
M30
