G04 Layer_Physical_Order=2*
G04 Layer_Color=16711680*
%FSLAX25Y25*%
%MOIN*%
G70*
G01*
G75*
%ADD12R,0.05000X0.05000*%
%ADD17R,0.03937X0.07874*%
%ADD18R,0.07874X0.03937*%
%ADD22C,0.00700*%
%ADD23C,0.01000*%
%ADD24R,0.07874X0.07874*%
%ADD25C,0.07874*%
%ADD26R,0.07874X0.07874*%
%ADD27C,0.07284*%
%ADD28R,0.07284X0.07284*%
%ADD29C,0.16000*%
%ADD30C,0.05906*%
%ADD31R,0.05906X0.05906*%
%ADD32R,0.05906X0.05906*%
%ADD33C,0.09100*%
%ADD34C,0.03000*%
G36*
X1100000Y0D02*
X0D01*
Y500000D01*
X1100000D01*
Y0D01*
D02*
G37*
%LPC*%
G36*
X797975Y491124D02*
X797000Y490930D01*
X796173Y490377D01*
X795620Y489550D01*
X795426Y488575D01*
X795620Y487600D01*
X796173Y486773D01*
X797000Y486220D01*
X797975Y486026D01*
X798477Y486126D01*
X801265Y483338D01*
X801074Y482876D01*
X798820D01*
X796323Y485373D01*
X795877Y485672D01*
X795350Y485777D01*
X739400D01*
X738873Y485672D01*
X738427Y485373D01*
X733102Y480049D01*
X732600Y480149D01*
X731625Y479955D01*
X730798Y479402D01*
X730245Y478576D01*
X730051Y477600D01*
X730245Y476624D01*
X730798Y475798D01*
X731625Y475245D01*
X732600Y475051D01*
X733575Y475245D01*
X734402Y475798D01*
X734955Y476624D01*
X735149Y477600D01*
X735049Y478102D01*
X739970Y483024D01*
X761124D01*
X761315Y482562D01*
X756902Y478149D01*
X756400Y478249D01*
X755424Y478055D01*
X754598Y477502D01*
X754045Y476676D01*
X753851Y475700D01*
X754045Y474724D01*
X754598Y473898D01*
X755424Y473345D01*
X756356Y473160D01*
X756618Y472742D01*
X756628Y472724D01*
X755280Y471377D01*
X729987D01*
X729702Y471802D01*
X728875Y472355D01*
X727900Y472549D01*
X726925Y472355D01*
X726098Y471802D01*
X725545Y470975D01*
X725351Y470000D01*
X725545Y469025D01*
X725937Y468438D01*
X725576Y468078D01*
X725075Y468412D01*
X724100Y468606D01*
X723125Y468412D01*
X722298Y467860D01*
X721745Y467033D01*
X721551Y466057D01*
X721745Y465082D01*
X721788Y465017D01*
X721553Y464576D01*
X685700D01*
X685173Y464472D01*
X684727Y464173D01*
X678027Y457473D01*
X677728Y457027D01*
X677624Y456500D01*
Y410100D01*
X677728Y409573D01*
X678027Y409127D01*
X681227Y405927D01*
X681227Y405927D01*
X681673Y405628D01*
X682200Y405523D01*
X712130D01*
X713551Y404102D01*
X713451Y403600D01*
X713645Y402625D01*
X714198Y401798D01*
X715025Y401245D01*
X716000Y401051D01*
X716975Y401245D01*
X717802Y401798D01*
X718355Y402625D01*
X718549Y403600D01*
X718355Y404575D01*
X717802Y405402D01*
X716975Y405955D01*
X716000Y406149D01*
X715498Y406049D01*
X714735Y406812D01*
X714926Y407273D01*
X734630D01*
X736474Y405430D01*
Y402520D01*
X735510Y401557D01*
X735122Y401875D01*
X735355Y402224D01*
X735450Y402700D01*
X733500D01*
Y400750D01*
X733976Y400845D01*
X734325Y401078D01*
X734643Y400690D01*
X732330Y398376D01*
X714650D01*
X714650Y398376D01*
X714123Y398272D01*
X713677Y397973D01*
X713677Y397973D01*
X711027Y395323D01*
X710728Y394877D01*
X710624Y394350D01*
Y385150D01*
X710728Y384623D01*
X711027Y384177D01*
X712427Y382777D01*
X712873Y382478D01*
X713400Y382373D01*
X900880D01*
X901727Y381527D01*
X901727Y381527D01*
X902173Y381228D01*
X902700Y381123D01*
X902700Y381123D01*
X945800D01*
X946327Y381228D01*
X946773Y381527D01*
X947998Y382751D01*
X948500Y382651D01*
X949475Y382845D01*
X950302Y383398D01*
X950855Y384225D01*
X951049Y385200D01*
X950855Y386175D01*
X950783Y386283D01*
X951019Y386723D01*
X952230D01*
X953351Y385602D01*
X953251Y385100D01*
X953445Y384124D01*
X953998Y383298D01*
X954825Y382745D01*
X955800Y382551D01*
X956775Y382745D01*
X957602Y383298D01*
X958155Y384124D01*
X958349Y385100D01*
X958155Y386075D01*
X957602Y386902D01*
X956775Y387455D01*
X955800Y387649D01*
X955298Y387549D01*
X954273Y388574D01*
X954480Y389073D01*
X965791D01*
X975638Y379227D01*
X976085Y378928D01*
X976611Y378823D01*
X1050713D01*
X1050998Y378398D01*
X1051825Y377845D01*
X1052800Y377651D01*
X1053775Y377845D01*
X1054602Y378398D01*
X1055155Y379224D01*
X1055230Y379600D01*
X1055708Y379745D01*
X1064324Y371130D01*
Y347969D01*
X1055417D01*
Y346234D01*
X1055027Y345973D01*
X1055027Y345973D01*
X1054027Y344973D01*
X1053728Y344527D01*
X1053624Y344000D01*
Y338550D01*
X1053124Y338398D01*
X1053073Y338473D01*
X1053073Y338473D01*
X1049073Y342473D01*
X1048627Y342772D01*
X1048100Y342877D01*
X1034583D01*
Y347969D01*
X1024709D01*
Y346376D01*
X985570D01*
X953173Y378773D01*
X952727Y379072D01*
X952200Y379176D01*
X846961D01*
X846435Y379072D01*
X845988Y378773D01*
X841283Y374068D01*
X841117Y374157D01*
X840842Y374334D01*
X840655Y375275D01*
X840102Y376102D01*
X839275Y376655D01*
X838300Y376849D01*
X837798Y376749D01*
X835173Y379373D01*
X834727Y379672D01*
X834200Y379777D01*
X806300D01*
X806300Y379777D01*
X805773Y379672D01*
X805708Y379628D01*
X805100Y379749D01*
X804125Y379555D01*
X803298Y379002D01*
X802745Y378175D01*
X802551Y377200D01*
X802745Y376224D01*
X802783Y376167D01*
X802547Y375727D01*
X793389D01*
X792768Y376348D01*
X792868Y376850D01*
X792673Y377825D01*
X792121Y378652D01*
X791294Y379205D01*
X790319Y379399D01*
X789343Y379205D01*
X788516Y378652D01*
X787964Y377825D01*
X787770Y376850D01*
X787964Y375874D01*
X788516Y375048D01*
X789343Y374495D01*
X789437Y374477D01*
X789387Y373976D01*
X788070D01*
X783373Y378673D01*
X782927Y378972D01*
X782400Y379077D01*
X708570D01*
X707042Y380605D01*
X707255Y380925D01*
X707449Y381900D01*
X707255Y382875D01*
X706702Y383702D01*
X705875Y384255D01*
X704900Y384449D01*
X703925Y384255D01*
X703098Y383702D01*
X702545Y382875D01*
X702351Y381900D01*
X702545Y380925D01*
X703098Y380098D01*
X703925Y379545D01*
X704279Y379475D01*
X707027Y376727D01*
X707102Y376677D01*
X706950Y376177D01*
X703124D01*
X702720Y376656D01*
X702749Y376800D01*
X702555Y377776D01*
X702002Y378602D01*
X701175Y379155D01*
X700200Y379349D01*
X699225Y379155D01*
X698398Y378602D01*
X698113Y378176D01*
X683287D01*
X683002Y378602D01*
X682175Y379155D01*
X681602Y379269D01*
X681372Y379824D01*
X681472Y379973D01*
X681576Y380500D01*
X681576Y380500D01*
Y385700D01*
X681472Y386227D01*
X681173Y386673D01*
X681173Y386673D01*
X679373Y388473D01*
X678927Y388772D01*
X678400Y388877D01*
X655007D01*
X654308Y389576D01*
X653861Y389874D01*
X653334Y389979D01*
X647003D01*
X647003Y389979D01*
X646476Y389874D01*
X646029Y389576D01*
X638627Y382173D01*
X638328Y381727D01*
X638224Y381200D01*
Y347969D01*
X634709D01*
Y342032D01*
X643556D01*
Y337968D01*
X634709D01*
Y336377D01*
X598387D01*
X598102Y336802D01*
X597275Y337355D01*
X596300Y337549D01*
X595325Y337355D01*
X594498Y336802D01*
X593945Y335976D01*
X593751Y335000D01*
X593945Y334025D01*
X594311Y333476D01*
X594044Y332977D01*
X477720D01*
X475523Y335173D01*
X475077Y335472D01*
X474550Y335577D01*
X472135D01*
X471943Y336038D01*
X474812Y338907D01*
X475402Y338790D01*
X475688Y338101D01*
X476479Y337070D01*
X477510Y336278D01*
X478711Y335781D01*
X480000Y335611D01*
X481289Y335781D01*
X482490Y336278D01*
X483521Y337070D01*
X484312Y338101D01*
X484810Y339302D01*
X484980Y340591D01*
X484810Y341879D01*
X484312Y343080D01*
X483521Y344112D01*
X482490Y344903D01*
X481289Y345401D01*
X480000Y345570D01*
X478711Y345401D01*
X477510Y344903D01*
X476479Y344112D01*
X475688Y343080D01*
X475226Y341967D01*
X474549D01*
X474022Y341862D01*
X473576Y341564D01*
X473576Y341564D01*
X467588Y335577D01*
X464391D01*
X463864Y335472D01*
X463417Y335173D01*
X463417Y335173D01*
X449117Y320873D01*
X448819Y320427D01*
X448714Y319900D01*
Y316132D01*
Y244937D01*
X445154D01*
Y235063D01*
X453081D01*
X480217Y207927D01*
X480664Y207628D01*
X481191Y207523D01*
X615877D01*
X616029Y207024D01*
X615698Y206802D01*
X615145Y205976D01*
X614951Y205000D01*
X615145Y204025D01*
X615698Y203198D01*
X616525Y202645D01*
X617500Y202451D01*
X618475Y202645D01*
X619302Y203198D01*
X619587Y203624D01*
X622615D01*
X622850Y203183D01*
X622645Y202875D01*
X622451Y201900D01*
X622645Y200924D01*
X622717Y200817D01*
X622481Y200376D01*
X416970D01*
X352973Y264373D01*
X352527Y264672D01*
X352000Y264776D01*
X329608D01*
X329341Y265277D01*
X329573Y265624D01*
X329768Y266600D01*
X329573Y267576D01*
X329021Y268402D01*
X328194Y268955D01*
X327219Y269149D01*
X326243Y268955D01*
X325437Y268416D01*
X325316Y268441D01*
X324937Y268585D01*
Y272969D01*
X315063D01*
Y271376D01*
X298870D01*
X295573Y274673D01*
X295498Y274724D01*
X295650Y275223D01*
X326413D01*
X326698Y274798D01*
X327524Y274245D01*
X328500Y274051D01*
X329475Y274245D01*
X330302Y274798D01*
X330587Y275223D01*
X354630D01*
X381551Y248302D01*
X381451Y247800D01*
X381645Y246825D01*
X382198Y245998D01*
X383025Y245445D01*
X384000Y245251D01*
X384976Y245445D01*
X385802Y245998D01*
X386355Y246825D01*
X386549Y247800D01*
X386355Y248776D01*
X385802Y249602D01*
X384976Y250155D01*
X384000Y250349D01*
X383498Y250249D01*
X356173Y277573D01*
X355727Y277872D01*
X355200Y277976D01*
X330977D01*
X330889Y278123D01*
X331172Y278624D01*
X380500D01*
X381027Y278728D01*
X381473Y279027D01*
X385473Y283027D01*
X385473Y283027D01*
X385772Y283473D01*
X385876Y284000D01*
Y344400D01*
X385876Y344400D01*
X385772Y344927D01*
X385473Y345373D01*
X255073Y475773D01*
X254627Y476072D01*
X254100Y476177D01*
X56700D01*
X56700Y476177D01*
X56173Y476072D01*
X55727Y475773D01*
X55727Y475773D01*
X43949Y463995D01*
X43332Y464251D01*
X42300Y464387D01*
X41268Y464251D01*
X40307Y463853D01*
X39481Y463219D01*
X38847Y462393D01*
X38449Y461432D01*
X38313Y460400D01*
X38449Y459368D01*
X38847Y458407D01*
X39481Y457581D01*
X40307Y456947D01*
X40719Y456777D01*
X40620Y456277D01*
X29800D01*
X29273Y456172D01*
X28827Y455873D01*
X22227Y449273D01*
X21928Y448827D01*
X21824Y448300D01*
Y55100D01*
X21928Y54573D01*
X22227Y54127D01*
X37027Y39327D01*
X37473Y39028D01*
X38000Y38924D01*
X40620D01*
X40719Y38424D01*
X40307Y38253D01*
X39481Y37619D01*
X38847Y36793D01*
X38449Y35832D01*
X38313Y34800D01*
X38449Y33768D01*
X38847Y32807D01*
X39481Y31981D01*
X40307Y31347D01*
X41268Y30949D01*
X42300Y30813D01*
X43332Y30949D01*
X44293Y31347D01*
X45119Y31981D01*
X45753Y32807D01*
X46151Y33768D01*
X46287Y34800D01*
X46151Y35832D01*
X45753Y36793D01*
X45119Y37619D01*
X44293Y38253D01*
X43881Y38424D01*
X43981Y38924D01*
X51900D01*
X52427Y39028D01*
X52873Y39327D01*
X55571Y42024D01*
X55571Y42024D01*
X55869Y42470D01*
X55974Y42997D01*
X55974Y42997D01*
Y59499D01*
X56474Y59548D01*
X56528Y59273D01*
X56827Y58827D01*
X58705Y56949D01*
X58449Y56332D01*
X58313Y55300D01*
X58449Y54268D01*
X58847Y53307D01*
X59481Y52481D01*
X60307Y51847D01*
X61268Y51449D01*
X62300Y51313D01*
X63332Y51449D01*
X64293Y51847D01*
X65119Y52481D01*
X65753Y53307D01*
X66151Y54268D01*
X66287Y55300D01*
X66151Y56332D01*
X65753Y57293D01*
X65119Y58119D01*
X64293Y58753D01*
X63332Y59151D01*
X62300Y59287D01*
X61268Y59151D01*
X60651Y58895D01*
X59176Y60370D01*
Y62084D01*
X59676Y62331D01*
X60307Y61847D01*
X61268Y61449D01*
X62300Y61313D01*
X63332Y61449D01*
X64293Y61847D01*
X65119Y62481D01*
X65753Y63307D01*
X66151Y64268D01*
X66287Y65300D01*
X66151Y66332D01*
X65895Y66949D01*
X81070Y82124D01*
X180924D01*
X181115Y81662D01*
X146130Y46676D01*
X66008D01*
X65753Y47293D01*
X65119Y48119D01*
X64293Y48753D01*
X63332Y49151D01*
X62300Y49287D01*
X61268Y49151D01*
X60307Y48753D01*
X59481Y48119D01*
X58847Y47293D01*
X58449Y46332D01*
X58313Y45300D01*
X58449Y44268D01*
X58847Y43307D01*
X59481Y42481D01*
X60307Y41847D01*
X61268Y41449D01*
X62300Y41313D01*
X63332Y41449D01*
X64293Y41847D01*
X65119Y42481D01*
X65753Y43307D01*
X66008Y43924D01*
X146700D01*
X147227Y44028D01*
X147673Y44327D01*
X183770Y80424D01*
X199224D01*
X199415Y79962D01*
X183927Y64473D01*
X183628Y64027D01*
X183524Y63500D01*
Y22100D01*
X183628Y21573D01*
X183927Y21127D01*
X186127Y18927D01*
X186573Y18628D01*
X187100Y18524D01*
X204900D01*
X205427Y18628D01*
X205873Y18927D01*
X207305Y20358D01*
X214642D01*
Y29642D01*
X205358D01*
Y22305D01*
X204330Y21276D01*
X193519D01*
X193377Y21776D01*
X194054Y22659D01*
X194522Y23788D01*
X194682Y25000D01*
X194522Y26212D01*
X194123Y27176D01*
X202770Y35824D01*
X431500D01*
X432027Y35928D01*
X432473Y36227D01*
X444670Y48424D01*
X613824D01*
X614015Y47962D01*
X611027Y44973D01*
X610728Y44527D01*
X610624Y44000D01*
Y42887D01*
X610198Y42602D01*
X609645Y41776D01*
X609451Y40800D01*
X609575Y40179D01*
X609114Y39933D01*
X607649Y41398D01*
X607749Y41900D01*
X607555Y42875D01*
X607002Y43702D01*
X606176Y44255D01*
X605200Y44449D01*
X604224Y44255D01*
X603398Y43702D01*
X602845Y42875D01*
X602651Y41900D01*
X602845Y40925D01*
X603398Y40098D01*
X604224Y39545D01*
X605200Y39351D01*
X605702Y39451D01*
X609327Y35827D01*
X609773Y35528D01*
X610300Y35424D01*
X683977D01*
X684129Y34924D01*
X683798Y34702D01*
X683245Y33876D01*
X683051Y32900D01*
X683245Y31925D01*
X683798Y31098D01*
X684624Y30545D01*
X685600Y30351D01*
X686102Y30451D01*
X699227Y17327D01*
X699673Y17028D01*
X700200Y16924D01*
X700200Y16924D01*
X829881D01*
X830117Y16483D01*
X830045Y16375D01*
X829851Y15400D01*
X830045Y14424D01*
X830598Y13598D01*
X831425Y13045D01*
X832400Y12851D01*
X833375Y13045D01*
X834202Y13598D01*
X834487Y14024D01*
X1057400D01*
X1057927Y14128D01*
X1058373Y14427D01*
X1097473Y53527D01*
X1097772Y53973D01*
X1097876Y54500D01*
Y354400D01*
X1097876Y354400D01*
X1097772Y354927D01*
X1097473Y355373D01*
X1097473Y355373D01*
X1045349Y407498D01*
X1045449Y408000D01*
X1045255Y408976D01*
X1044702Y409802D01*
X1043875Y410355D01*
X1042900Y410549D01*
X1041925Y410355D01*
X1041098Y409802D01*
X1040545Y408976D01*
X1040351Y408000D01*
X1040545Y407024D01*
X1041098Y406198D01*
X1041925Y405645D01*
X1042900Y405451D01*
X1043402Y405551D01*
X1095124Y353830D01*
Y247876D01*
X1094662Y247685D01*
X1084085Y258262D01*
X1084276Y258723D01*
X1086813D01*
X1087098Y258298D01*
X1087925Y257745D01*
X1088900Y257551D01*
X1089875Y257745D01*
X1090702Y258298D01*
X1091255Y259124D01*
X1091449Y260100D01*
X1091255Y261075D01*
X1090702Y261902D01*
X1089875Y262455D01*
X1088900Y262649D01*
X1087925Y262455D01*
X1087098Y261902D01*
X1086813Y261476D01*
X1051470D01*
X1036973Y275973D01*
X1036527Y276272D01*
X1036000Y276377D01*
X1034583D01*
Y277969D01*
X1034933Y278324D01*
X1041130D01*
X1045427Y274027D01*
X1045427Y274027D01*
X1045873Y273728D01*
X1046400Y273623D01*
X1055417D01*
Y272031D01*
X1064424D01*
Y267969D01*
X1055417D01*
Y262032D01*
X1065291D01*
Y263772D01*
X1065673Y264027D01*
X1066773Y265127D01*
X1066773Y265127D01*
X1067072Y265573D01*
X1067176Y266100D01*
Y287900D01*
X1067072Y288427D01*
X1066773Y288873D01*
X1064115Y291531D01*
X1064322Y292032D01*
X1065291D01*
Y297969D01*
X1055417D01*
Y296376D01*
X1043719D01*
X1043483Y296817D01*
X1043555Y296924D01*
X1043749Y297900D01*
X1043555Y298875D01*
X1043112Y299538D01*
X1043404Y299989D01*
X1044100Y299851D01*
X1045075Y300045D01*
X1045902Y300598D01*
X1046455Y301425D01*
X1046649Y302400D01*
X1046459Y303357D01*
X1046482Y303394D01*
X1046871Y303652D01*
X1050996Y299527D01*
X1050996Y299527D01*
X1051442Y299228D01*
X1051969Y299124D01*
X1064200D01*
X1064727Y299228D01*
X1065173Y299527D01*
X1066673Y301027D01*
X1066972Y301473D01*
X1067076Y302000D01*
Y328400D01*
X1066972Y328927D01*
X1066673Y329373D01*
X1064515Y331532D01*
X1064716Y332031D01*
X1065291D01*
Y333771D01*
X1065673Y334027D01*
X1066673Y335027D01*
X1066673Y335027D01*
X1066972Y335473D01*
X1067076Y336000D01*
Y371700D01*
X1066972Y372227D01*
X1066673Y372673D01*
X1052911Y386436D01*
X1052464Y386734D01*
X1051938Y386839D01*
X983187D01*
X982902Y387265D01*
X982075Y387817D01*
X981100Y388011D01*
X980125Y387817D01*
X979298Y387265D01*
X978745Y386438D01*
X978551Y385462D01*
X978745Y384487D01*
X979298Y383660D01*
X980125Y383107D01*
X981100Y382913D01*
X982075Y383107D01*
X982902Y383660D01*
X983187Y384086D01*
X1051367D01*
X1052345Y383108D01*
X1052200Y382630D01*
X1051825Y382555D01*
X1050998Y382002D01*
X1050713Y381576D01*
X977182D01*
X967335Y391423D01*
X966888Y391722D01*
X966361Y391827D01*
X920650D01*
X920123Y391722D01*
X919677Y391423D01*
X919002Y390749D01*
X918500Y390849D01*
X917525Y390655D01*
X916698Y390102D01*
X916145Y389276D01*
X915951Y388300D01*
X916145Y387325D01*
X916698Y386498D01*
X917178Y386176D01*
X917027Y385677D01*
X908370D01*
X907123Y386923D01*
X906677Y387222D01*
X906150Y387327D01*
X865952D01*
X865717Y387767D01*
X865755Y387825D01*
X865949Y388800D01*
X865755Y389775D01*
X865202Y390602D01*
X864375Y391155D01*
X863400Y391349D01*
X862898Y391249D01*
X862273Y391873D01*
X861827Y392172D01*
X861300Y392277D01*
X813335D01*
X813175Y392524D01*
X813447Y393023D01*
X816050D01*
X816577Y393128D01*
X817023Y393427D01*
X823220Y399623D01*
X1024750D01*
X1025277Y399728D01*
X1025723Y400027D01*
X1028773Y403077D01*
X1029072Y403523D01*
X1029176Y404050D01*
Y410850D01*
X1029072Y411377D01*
X1028773Y411823D01*
X1022923Y417673D01*
X1022477Y417972D01*
X1021950Y418077D01*
X986000D01*
X985849Y418576D01*
X986030Y418698D01*
X986583Y419524D01*
X986777Y420500D01*
X986583Y421476D01*
X986030Y422302D01*
X985203Y422855D01*
X984228Y423049D01*
X983252Y422855D01*
X982425Y422302D01*
X982141Y421876D01*
X958570D01*
X945556Y434890D01*
X945721Y435433D01*
X945804Y435449D01*
X952627Y428627D01*
X953073Y428328D01*
X953600Y428224D01*
X1014050D01*
X1044917Y397357D01*
X1044671Y396896D01*
X1043900Y397049D01*
X1043168Y396903D01*
X1042800Y396976D01*
X975687D01*
X975402Y397402D01*
X974575Y397955D01*
X973600Y398149D01*
X972625Y397955D01*
X971798Y397402D01*
X971245Y396575D01*
X971051Y395600D01*
X971245Y394624D01*
X971798Y393798D01*
X972625Y393245D01*
X973600Y393051D01*
X974575Y393245D01*
X975402Y393798D01*
X975687Y394223D01*
X1041406D01*
X1041545Y393525D01*
X1042098Y392698D01*
X1042925Y392145D01*
X1043900Y391951D01*
X1044875Y392145D01*
X1045702Y392698D01*
X1046255Y393525D01*
X1046449Y394500D01*
X1046296Y395271D01*
X1046756Y395517D01*
X1084124Y358150D01*
Y356587D01*
X1083698Y356302D01*
X1083145Y355475D01*
X1082951Y354500D01*
X1083145Y353524D01*
X1083698Y352698D01*
X1084525Y352145D01*
X1085500Y351951D01*
X1086475Y352145D01*
X1087302Y352698D01*
X1087855Y353524D01*
X1088049Y354500D01*
X1087855Y355475D01*
X1087302Y356302D01*
X1086876Y356587D01*
Y358720D01*
X1086876Y358720D01*
X1086772Y359247D01*
X1086473Y359693D01*
X1015593Y430573D01*
X1015147Y430872D01*
X1014620Y430976D01*
X995176D01*
X994909Y431476D01*
X995255Y431995D01*
X995449Y432970D01*
X995255Y433946D01*
X994702Y434773D01*
X993875Y435325D01*
X992900Y435519D01*
X991925Y435325D01*
X991098Y434773D01*
X990545Y433946D01*
X990372Y433076D01*
X974452D01*
X974216Y433517D01*
X974355Y433724D01*
X974549Y434700D01*
X974449Y435202D01*
X975270Y436024D01*
X1005913D01*
X1006198Y435598D01*
X1007025Y435045D01*
X1008000Y434851D01*
X1008975Y435045D01*
X1009802Y435598D01*
X1010355Y436424D01*
X1010438Y436842D01*
X1010916Y436987D01*
X1027477Y420427D01*
X1027923Y420128D01*
X1028450Y420023D01*
X1065430D01*
X1080051Y405402D01*
X1079951Y404900D01*
X1080145Y403925D01*
X1080698Y403098D01*
X1081525Y402545D01*
X1082500Y402351D01*
X1083475Y402545D01*
X1084302Y403098D01*
X1084855Y403925D01*
X1085049Y404900D01*
X1084855Y405875D01*
X1084302Y406702D01*
X1083475Y407255D01*
X1082500Y407449D01*
X1081998Y407349D01*
X1067485Y421862D01*
X1067676Y422324D01*
X1068800D01*
X1069327Y422428D01*
X1069773Y422727D01*
X1072173Y425127D01*
X1072472Y425573D01*
X1072576Y426100D01*
Y439900D01*
X1072472Y440427D01*
X1072173Y440873D01*
X1022723Y490323D01*
X1022277Y490622D01*
X1021750Y490727D01*
X808738D01*
X808738Y490727D01*
X808212Y490622D01*
X807765Y490323D01*
X807765Y490323D01*
X806002Y488561D01*
X805500Y488661D01*
X804525Y488467D01*
X803698Y487914D01*
X803145Y487087D01*
X802974Y486229D01*
X802504Y485993D01*
X800424Y488073D01*
X800524Y488575D01*
X800330Y489550D01*
X799777Y490377D01*
X798950Y490930D01*
X797975Y491124D01*
D02*
G37*
G36*
X20000Y489044D02*
X18236Y488870D01*
X16539Y488355D01*
X14976Y487519D01*
X13605Y486395D01*
X12481Y485024D01*
X11645Y483461D01*
X11130Y481764D01*
X10956Y480000D01*
X11130Y478236D01*
X11645Y476539D01*
X12481Y474976D01*
X13605Y473605D01*
X14976Y472481D01*
X16539Y471645D01*
X18236Y471130D01*
X20000Y470957D01*
X21764Y471130D01*
X23461Y471645D01*
X25024Y472481D01*
X26395Y473605D01*
X27519Y474976D01*
X28355Y476539D01*
X28870Y478236D01*
X29043Y480000D01*
X28870Y481764D01*
X28355Y483461D01*
X27519Y485024D01*
X26395Y486395D01*
X25024Y487519D01*
X23461Y488355D01*
X21764Y488870D01*
X20000Y489044D01*
D02*
G37*
G36*
X42300Y474387D02*
X41268Y474251D01*
X40307Y473853D01*
X39481Y473219D01*
X38847Y472393D01*
X38449Y471432D01*
X38313Y470400D01*
X38449Y469368D01*
X38847Y468407D01*
X39481Y467581D01*
X40307Y466947D01*
X41268Y466549D01*
X42300Y466413D01*
X43332Y466549D01*
X44293Y466947D01*
X45119Y467581D01*
X45753Y468407D01*
X46151Y469368D01*
X46287Y470400D01*
X46151Y471432D01*
X45753Y472393D01*
X45119Y473219D01*
X44293Y473853D01*
X43332Y474251D01*
X42300Y474387D01*
D02*
G37*
G36*
X545483Y468213D02*
X544035Y468022D01*
X542685Y467463D01*
X541525Y466573D01*
X540635Y465414D01*
X540076Y464064D01*
X539886Y462615D01*
X540076Y461166D01*
X540635Y459816D01*
X541525Y458657D01*
X542685Y457767D01*
X544035Y457208D01*
X545483Y457017D01*
X546932Y457208D01*
X548282Y457767D01*
X549442Y458657D01*
X550331Y459816D01*
X550890Y461166D01*
X551081Y462615D01*
X550890Y464064D01*
X550331Y465414D01*
X549442Y466573D01*
X548282Y467463D01*
X546932Y468022D01*
X545483Y468213D01*
D02*
G37*
G36*
X469483D02*
X468035Y468022D01*
X466684Y467463D01*
X465525Y466573D01*
X464636Y465414D01*
X464076Y464064D01*
X463885Y462615D01*
X464076Y461166D01*
X464636Y459816D01*
X465525Y458657D01*
X466684Y457767D01*
X468035Y457208D01*
X469483Y457017D01*
X470932Y457208D01*
X472282Y457767D01*
X473442Y458657D01*
X474331Y459816D01*
X474891Y461166D01*
X475081Y462615D01*
X474891Y464064D01*
X474331Y465414D01*
X473442Y466573D01*
X472282Y467463D01*
X470932Y468022D01*
X469483Y468213D01*
D02*
G37*
G36*
X396983D02*
X395535Y468022D01*
X394184Y467463D01*
X393025Y466573D01*
X392136Y465414D01*
X391576Y464064D01*
X391386Y462615D01*
X391576Y461166D01*
X392136Y459816D01*
X393025Y458657D01*
X394184Y457767D01*
X395535Y457208D01*
X396983Y457017D01*
X398432Y457208D01*
X399782Y457767D01*
X400942Y458657D01*
X401831Y459816D01*
X402390Y461166D01*
X402581Y462615D01*
X402390Y464064D01*
X401831Y465414D01*
X400942Y466573D01*
X399782Y467463D01*
X398432Y468022D01*
X396983Y468213D01*
D02*
G37*
G36*
X545483Y450496D02*
X544035Y450306D01*
X542685Y449746D01*
X541525Y448857D01*
X540635Y447697D01*
X540076Y446347D01*
X539886Y444898D01*
X540076Y443450D01*
X540635Y442100D01*
X541525Y440940D01*
X542685Y440051D01*
X544035Y439491D01*
X545483Y439300D01*
X546932Y439491D01*
X548282Y440051D01*
X549442Y440940D01*
X550331Y442100D01*
X550890Y443450D01*
X551081Y444898D01*
X550890Y446347D01*
X550331Y447697D01*
X549442Y448857D01*
X548282Y449746D01*
X546932Y450306D01*
X545483Y450496D01*
D02*
G37*
G36*
X469483D02*
X468035Y450306D01*
X466684Y449746D01*
X465525Y448857D01*
X464636Y447697D01*
X464076Y446347D01*
X463885Y444898D01*
X464076Y443450D01*
X464636Y442100D01*
X465525Y440940D01*
X466684Y440051D01*
X468035Y439491D01*
X469483Y439300D01*
X470932Y439491D01*
X472282Y440051D01*
X473442Y440940D01*
X474331Y442100D01*
X474891Y443450D01*
X475081Y444898D01*
X474891Y446347D01*
X474331Y447697D01*
X473442Y448857D01*
X472282Y449746D01*
X470932Y450306D01*
X469483Y450496D01*
D02*
G37*
G36*
X396983D02*
X395535Y450306D01*
X394184Y449746D01*
X393025Y448857D01*
X392136Y447697D01*
X391576Y446347D01*
X391386Y444898D01*
X391576Y443450D01*
X392136Y442100D01*
X393025Y440940D01*
X394184Y440051D01*
X395535Y439491D01*
X396983Y439300D01*
X398432Y439491D01*
X399782Y440051D01*
X400942Y440940D01*
X401831Y442100D01*
X402390Y443450D01*
X402581Y444898D01*
X402390Y446347D01*
X401831Y447697D01*
X400942Y448857D01*
X399782Y449746D01*
X398432Y450306D01*
X396983Y450496D01*
D02*
G37*
G36*
X657000Y425449D02*
X656025Y425255D01*
X655198Y424702D01*
X654645Y423876D01*
X654451Y422900D01*
X654645Y421924D01*
X654717Y421817D01*
X654481Y421377D01*
X374787D01*
X374502Y421802D01*
X373675Y422355D01*
X372700Y422549D01*
X371725Y422355D01*
X370898Y421802D01*
X370345Y420975D01*
X370151Y420000D01*
X370345Y419025D01*
X370898Y418198D01*
X371725Y417645D01*
X372700Y417451D01*
X373675Y417645D01*
X374502Y418198D01*
X374787Y418623D01*
X655623D01*
Y395187D01*
X655198Y394902D01*
X654913Y394477D01*
X374787D01*
X374502Y394902D01*
X373675Y395455D01*
X372700Y395649D01*
X371725Y395455D01*
X370898Y394902D01*
X370345Y394075D01*
X370151Y393100D01*
X370345Y392125D01*
X370898Y391298D01*
X371725Y390745D01*
X372700Y390551D01*
X373675Y390745D01*
X374502Y391298D01*
X374787Y391723D01*
X654913D01*
X655198Y391298D01*
X656025Y390745D01*
X657000Y390551D01*
X657975Y390745D01*
X658802Y391298D01*
X659355Y392125D01*
X659549Y393100D01*
X659355Y394075D01*
X658802Y394902D01*
X658377Y395187D01*
Y418623D01*
X665013D01*
X665298Y418198D01*
X666124Y417645D01*
X667100Y417451D01*
X668076Y417645D01*
X668902Y418198D01*
X669455Y419025D01*
X669649Y420000D01*
X669455Y420975D01*
X668902Y421802D01*
X668076Y422355D01*
X667100Y422549D01*
X666124Y422355D01*
X665298Y421802D01*
X665013Y421377D01*
X659519D01*
X659283Y421817D01*
X659355Y421924D01*
X659549Y422900D01*
X659355Y423876D01*
X658802Y424702D01*
X657975Y425255D01*
X657000Y425449D01*
D02*
G37*
G36*
X733500Y405650D02*
Y403700D01*
X735450D01*
X735355Y404176D01*
X734802Y405002D01*
X733976Y405555D01*
X733500Y405650D01*
D02*
G37*
G36*
X732500D02*
X732024Y405555D01*
X731198Y405002D01*
X730645Y404176D01*
X730550Y403700D01*
X732500D01*
Y405650D01*
D02*
G37*
G36*
Y402700D02*
X730550D01*
X730645Y402224D01*
X731198Y401398D01*
X732024Y400845D01*
X732500Y400750D01*
Y402700D01*
D02*
G37*
G36*
X460000Y373987D02*
X458968Y373851D01*
X458007Y373453D01*
X457181Y372819D01*
X456547Y371993D01*
X456292Y371376D01*
X453708D01*
X453453Y371993D01*
X452819Y372819D01*
X451993Y373453D01*
X451032Y373851D01*
X450000Y373987D01*
X448968Y373851D01*
X448007Y373453D01*
X447181Y372819D01*
X446547Y371993D01*
X446292Y371376D01*
X443708D01*
X443453Y371993D01*
X442819Y372819D01*
X441993Y373453D01*
X441032Y373851D01*
X440000Y373987D01*
X438968Y373851D01*
X438007Y373453D01*
X437181Y372819D01*
X436547Y371993D01*
X436292Y371376D01*
X433708D01*
X433453Y371993D01*
X432819Y372819D01*
X431993Y373453D01*
X431032Y373851D01*
X430000Y373987D01*
X428968Y373851D01*
X428007Y373453D01*
X427181Y372819D01*
X426547Y371993D01*
X426292Y371376D01*
X423708D01*
X423453Y371993D01*
X422819Y372819D01*
X421993Y373453D01*
X421032Y373851D01*
X420000Y373987D01*
X418968Y373851D01*
X418007Y373453D01*
X417181Y372819D01*
X416547Y371993D01*
X416292Y371376D01*
X413708D01*
X413453Y371993D01*
X412819Y372819D01*
X411993Y373453D01*
X411032Y373851D01*
X410000Y373987D01*
X408968Y373851D01*
X408007Y373453D01*
X407181Y372819D01*
X406547Y371993D01*
X406292Y371376D01*
X403708D01*
X403453Y371993D01*
X402819Y372819D01*
X401993Y373453D01*
X401032Y373851D01*
X400000Y373987D01*
X398968Y373851D01*
X398007Y373453D01*
X397181Y372819D01*
X396547Y371993D01*
X396292Y371376D01*
X393708D01*
X393453Y371993D01*
X392819Y372819D01*
X391993Y373453D01*
X391032Y373851D01*
X390000Y373987D01*
X388968Y373851D01*
X388007Y373453D01*
X387181Y372819D01*
X386547Y371993D01*
X386292Y371376D01*
X383708D01*
X383453Y371993D01*
X382819Y372819D01*
X381993Y373453D01*
X381032Y373851D01*
X380000Y373987D01*
X378968Y373851D01*
X378007Y373453D01*
X377181Y372819D01*
X376547Y371993D01*
X376292Y371376D01*
X373953D01*
Y373953D01*
X366047D01*
Y366047D01*
X373953D01*
Y368623D01*
X376292D01*
X376547Y368007D01*
X377181Y367181D01*
X378007Y366547D01*
X378968Y366149D01*
X380000Y366013D01*
X381032Y366149D01*
X381993Y366547D01*
X382819Y367181D01*
X383453Y368007D01*
X383708Y368623D01*
X386292D01*
X386547Y368007D01*
X387181Y367181D01*
X388007Y366547D01*
X388968Y366149D01*
X390000Y366013D01*
X391032Y366149D01*
X391993Y366547D01*
X392819Y367181D01*
X393453Y368007D01*
X393708Y368623D01*
X396292D01*
X396547Y368007D01*
X397181Y367181D01*
X398007Y366547D01*
X398968Y366149D01*
X400000Y366013D01*
X401032Y366149D01*
X401993Y366547D01*
X402819Y367181D01*
X403453Y368007D01*
X403708Y368623D01*
X406292D01*
X406547Y368007D01*
X407181Y367181D01*
X408007Y366547D01*
X408968Y366149D01*
X410000Y366013D01*
X411032Y366149D01*
X411993Y366547D01*
X412819Y367181D01*
X413453Y368007D01*
X413708Y368623D01*
X416292D01*
X416547Y368007D01*
X417181Y367181D01*
X418007Y366547D01*
X418968Y366149D01*
X420000Y366013D01*
X421032Y366149D01*
X421993Y366547D01*
X422819Y367181D01*
X423453Y368007D01*
X423708Y368623D01*
X426292D01*
X426547Y368007D01*
X427181Y367181D01*
X428007Y366547D01*
X428968Y366149D01*
X430000Y366013D01*
X431032Y366149D01*
X431993Y366547D01*
X432819Y367181D01*
X433453Y368007D01*
X433708Y368623D01*
X436292D01*
X436547Y368007D01*
X437181Y367181D01*
X438007Y366547D01*
X438968Y366149D01*
X440000Y366013D01*
X441032Y366149D01*
X441993Y366547D01*
X442819Y367181D01*
X443453Y368007D01*
X443708Y368623D01*
X446292D01*
X446547Y368007D01*
X447181Y367181D01*
X448007Y366547D01*
X448968Y366149D01*
X450000Y366013D01*
X451032Y366149D01*
X451993Y366547D01*
X452819Y367181D01*
X453453Y368007D01*
X453708Y368623D01*
X456292D01*
X456547Y368007D01*
X457181Y367181D01*
X458007Y366547D01*
X458968Y366149D01*
X460000Y366013D01*
X461032Y366149D01*
X461993Y366547D01*
X462819Y367181D01*
X463453Y368007D01*
X463851Y368968D01*
X463987Y370000D01*
X463851Y371032D01*
X463453Y371993D01*
X462819Y372819D01*
X461993Y373453D01*
X461032Y373851D01*
X460000Y373987D01*
D02*
G37*
G36*
X570500Y373921D02*
Y370500D01*
X573921D01*
X573851Y371032D01*
X573453Y371993D01*
X572819Y372819D01*
X571993Y373453D01*
X571032Y373851D01*
X570500Y373921D01*
D02*
G37*
G36*
X569500D02*
X568968Y373851D01*
X568007Y373453D01*
X567181Y372819D01*
X566547Y371993D01*
X566149Y371032D01*
X566079Y370500D01*
X569500D01*
Y373921D01*
D02*
G37*
G36*
X560500D02*
Y370500D01*
X563921D01*
X563851Y371032D01*
X563453Y371993D01*
X562819Y372819D01*
X561993Y373453D01*
X561032Y373851D01*
X560500Y373921D01*
D02*
G37*
G36*
X559500D02*
X558968Y373851D01*
X558007Y373453D01*
X557181Y372819D01*
X556547Y371993D01*
X556149Y371032D01*
X556079Y370500D01*
X559500D01*
Y373921D01*
D02*
G37*
G36*
X550500D02*
Y370500D01*
X553921D01*
X553851Y371032D01*
X553453Y371993D01*
X552819Y372819D01*
X551993Y373453D01*
X551032Y373851D01*
X550500Y373921D01*
D02*
G37*
G36*
X549500D02*
X548968Y373851D01*
X548007Y373453D01*
X547181Y372819D01*
X546547Y371993D01*
X546149Y371032D01*
X546079Y370500D01*
X549500D01*
Y373921D01*
D02*
G37*
G36*
X540500D02*
Y370500D01*
X543921D01*
X543851Y371032D01*
X543453Y371993D01*
X542819Y372819D01*
X541993Y373453D01*
X541032Y373851D01*
X540500Y373921D01*
D02*
G37*
G36*
X539500D02*
X538968Y373851D01*
X538007Y373453D01*
X537181Y372819D01*
X536547Y371993D01*
X536149Y371032D01*
X536079Y370500D01*
X539500D01*
Y373921D01*
D02*
G37*
G36*
X530500D02*
Y370500D01*
X533921D01*
X533851Y371032D01*
X533453Y371993D01*
X532819Y372819D01*
X531993Y373453D01*
X531032Y373851D01*
X530500Y373921D01*
D02*
G37*
G36*
X529500D02*
X528968Y373851D01*
X528007Y373453D01*
X527181Y372819D01*
X526547Y371993D01*
X526149Y371032D01*
X526079Y370500D01*
X529500D01*
Y373921D01*
D02*
G37*
G36*
X520500D02*
Y370500D01*
X523921D01*
X523851Y371032D01*
X523453Y371993D01*
X522819Y372819D01*
X521993Y373453D01*
X521032Y373851D01*
X520500Y373921D01*
D02*
G37*
G36*
X519500D02*
X518968Y373851D01*
X518007Y373453D01*
X517181Y372819D01*
X516547Y371993D01*
X516149Y371032D01*
X516079Y370500D01*
X519500D01*
Y373921D01*
D02*
G37*
G36*
X510500D02*
Y370500D01*
X513921D01*
X513851Y371032D01*
X513453Y371993D01*
X512819Y372819D01*
X511993Y373453D01*
X511032Y373851D01*
X510500Y373921D01*
D02*
G37*
G36*
X509500D02*
X508968Y373851D01*
X508007Y373453D01*
X507181Y372819D01*
X506547Y371993D01*
X506149Y371032D01*
X506079Y370500D01*
X509500D01*
Y373921D01*
D02*
G37*
G36*
X500500D02*
Y370500D01*
X503921D01*
X503851Y371032D01*
X503453Y371993D01*
X502819Y372819D01*
X501993Y373453D01*
X501032Y373851D01*
X500500Y373921D01*
D02*
G37*
G36*
X499500D02*
X498968Y373851D01*
X498007Y373453D01*
X497181Y372819D01*
X496547Y371993D01*
X496149Y371032D01*
X496079Y370500D01*
X499500D01*
Y373921D01*
D02*
G37*
G36*
X490500D02*
Y370500D01*
X493921D01*
X493851Y371032D01*
X493453Y371993D01*
X492819Y372819D01*
X491993Y373453D01*
X491032Y373851D01*
X490500Y373921D01*
D02*
G37*
G36*
X489500D02*
X488968Y373851D01*
X488007Y373453D01*
X487181Y372819D01*
X486547Y371993D01*
X486149Y371032D01*
X486079Y370500D01*
X489500D01*
Y373921D01*
D02*
G37*
G36*
X483953Y373953D02*
X480500D01*
Y370500D01*
X483953D01*
Y373953D01*
D02*
G37*
G36*
X479500D02*
X476047D01*
Y370500D01*
X479500D01*
Y373953D01*
D02*
G37*
G36*
X573921Y369500D02*
X570500D01*
Y366079D01*
X571032Y366149D01*
X571993Y366547D01*
X572819Y367181D01*
X573453Y368007D01*
X573851Y368968D01*
X573921Y369500D01*
D02*
G37*
G36*
X569500D02*
X566079D01*
X566149Y368968D01*
X566547Y368007D01*
X567181Y367181D01*
X568007Y366547D01*
X568968Y366149D01*
X569500Y366079D01*
Y369500D01*
D02*
G37*
G36*
X563921D02*
X560500D01*
Y366079D01*
X561032Y366149D01*
X561993Y366547D01*
X562819Y367181D01*
X563453Y368007D01*
X563851Y368968D01*
X563921Y369500D01*
D02*
G37*
G36*
X559500D02*
X556079D01*
X556149Y368968D01*
X556547Y368007D01*
X557181Y367181D01*
X558007Y366547D01*
X558968Y366149D01*
X559500Y366079D01*
Y369500D01*
D02*
G37*
G36*
X553921D02*
X550500D01*
Y366079D01*
X551032Y366149D01*
X551993Y366547D01*
X552819Y367181D01*
X553453Y368007D01*
X553851Y368968D01*
X553921Y369500D01*
D02*
G37*
G36*
X549500D02*
X546079D01*
X546149Y368968D01*
X546547Y368007D01*
X547181Y367181D01*
X548007Y366547D01*
X548968Y366149D01*
X549500Y366079D01*
Y369500D01*
D02*
G37*
G36*
X543921D02*
X540500D01*
Y366079D01*
X541032Y366149D01*
X541993Y366547D01*
X542819Y367181D01*
X543453Y368007D01*
X543851Y368968D01*
X543921Y369500D01*
D02*
G37*
G36*
X539500D02*
X536079D01*
X536149Y368968D01*
X536547Y368007D01*
X537181Y367181D01*
X538007Y366547D01*
X538968Y366149D01*
X539500Y366079D01*
Y369500D01*
D02*
G37*
G36*
X533921D02*
X530500D01*
Y366079D01*
X531032Y366149D01*
X531993Y366547D01*
X532819Y367181D01*
X533453Y368007D01*
X533851Y368968D01*
X533921Y369500D01*
D02*
G37*
G36*
X529500D02*
X526079D01*
X526149Y368968D01*
X526547Y368007D01*
X527181Y367181D01*
X528007Y366547D01*
X528968Y366149D01*
X529500Y366079D01*
Y369500D01*
D02*
G37*
G36*
X523921D02*
X520500D01*
Y366079D01*
X521032Y366149D01*
X521993Y366547D01*
X522819Y367181D01*
X523453Y368007D01*
X523851Y368968D01*
X523921Y369500D01*
D02*
G37*
G36*
X519500D02*
X516079D01*
X516149Y368968D01*
X516547Y368007D01*
X517181Y367181D01*
X518007Y366547D01*
X518968Y366149D01*
X519500Y366079D01*
Y369500D01*
D02*
G37*
G36*
X513921D02*
X510500D01*
Y366079D01*
X511032Y366149D01*
X511993Y366547D01*
X512819Y367181D01*
X513453Y368007D01*
X513851Y368968D01*
X513921Y369500D01*
D02*
G37*
G36*
X509500D02*
X506079D01*
X506149Y368968D01*
X506547Y368007D01*
X507181Y367181D01*
X508007Y366547D01*
X508968Y366149D01*
X509500Y366079D01*
Y369500D01*
D02*
G37*
G36*
X503921D02*
X500500D01*
Y366079D01*
X501032Y366149D01*
X501993Y366547D01*
X502819Y367181D01*
X503453Y368007D01*
X503851Y368968D01*
X503921Y369500D01*
D02*
G37*
G36*
X499500D02*
X496079D01*
X496149Y368968D01*
X496547Y368007D01*
X497181Y367181D01*
X498007Y366547D01*
X498968Y366149D01*
X499500Y366079D01*
Y369500D01*
D02*
G37*
G36*
X493921D02*
X490500D01*
Y366079D01*
X491032Y366149D01*
X491993Y366547D01*
X492819Y367181D01*
X493453Y368007D01*
X493851Y368968D01*
X493921Y369500D01*
D02*
G37*
G36*
X489500D02*
X486079D01*
X486149Y368968D01*
X486547Y368007D01*
X487181Y367181D01*
X488007Y366547D01*
X488968Y366149D01*
X489500Y366079D01*
Y369500D01*
D02*
G37*
G36*
X483953D02*
X480500D01*
Y366047D01*
X483953D01*
Y369500D01*
D02*
G37*
G36*
X479500D02*
X476047D01*
Y366047D01*
X479500D01*
Y369500D01*
D02*
G37*
G36*
X1023500Y359649D02*
Y357700D01*
X1025449D01*
X1025355Y358175D01*
X1024802Y359002D01*
X1023975Y359555D01*
X1023500Y359649D01*
D02*
G37*
G36*
X1022500D02*
X1022025Y359555D01*
X1021198Y359002D01*
X1020645Y358175D01*
X1020551Y357700D01*
X1022500D01*
Y359649D01*
D02*
G37*
G36*
X1025449Y356700D02*
X1023500D01*
Y354750D01*
X1023975Y354845D01*
X1024802Y355398D01*
X1025355Y356224D01*
X1025449Y356700D01*
D02*
G37*
G36*
X1022500D02*
X1020551D01*
X1020645Y356224D01*
X1021198Y355398D01*
X1022025Y354845D01*
X1022500Y354750D01*
Y356700D01*
D02*
G37*
G36*
X1042500Y355450D02*
Y353500D01*
X1044450D01*
X1044355Y353976D01*
X1043802Y354802D01*
X1042975Y355355D01*
X1042500Y355450D01*
D02*
G37*
G36*
X1041500D02*
X1041025Y355355D01*
X1040198Y354802D01*
X1039645Y353976D01*
X1039550Y353500D01*
X1041500D01*
Y355450D01*
D02*
G37*
G36*
X1026176Y354125D02*
Y352176D01*
X1028125D01*
X1028031Y352651D01*
X1027478Y353478D01*
X1026651Y354031D01*
X1026176Y354125D01*
D02*
G37*
G36*
X1025176D02*
X1024700Y354031D01*
X1023873Y353478D01*
X1023321Y352651D01*
X1023226Y352176D01*
X1025176D01*
Y354125D01*
D02*
G37*
G36*
X1044450Y352500D02*
X1042500D01*
Y350551D01*
X1042975Y350645D01*
X1043802Y351198D01*
X1044355Y352025D01*
X1044450Y352500D01*
D02*
G37*
G36*
X1041500D02*
X1039550D01*
X1039645Y352025D01*
X1040198Y351198D01*
X1041025Y350645D01*
X1041500Y350551D01*
Y352500D01*
D02*
G37*
G36*
X1028125Y351176D02*
X1026176D01*
Y349226D01*
X1026651Y349321D01*
X1027478Y349873D01*
X1028031Y350700D01*
X1028125Y351176D01*
D02*
G37*
G36*
X1025176D02*
X1023226D01*
X1023321Y350700D01*
X1023873Y349873D01*
X1024700Y349321D01*
X1025176Y349226D01*
Y351176D01*
D02*
G37*
G36*
X399100Y342049D02*
X398125Y341855D01*
X397298Y341302D01*
X396745Y340476D01*
X396551Y339500D01*
X396745Y338525D01*
X397298Y337698D01*
X398125Y337145D01*
X399100Y336951D01*
X399602Y337051D01*
X407533Y329120D01*
Y244774D01*
X406420Y244313D01*
X405388Y243521D01*
X404597Y242490D01*
X404100Y241289D01*
X403930Y240000D01*
X404100Y238711D01*
X404597Y237510D01*
X405388Y236479D01*
X406420Y235687D01*
X407621Y235190D01*
X408909Y235020D01*
X410198Y235190D01*
X411399Y235687D01*
X412430Y236479D01*
X413222Y237510D01*
X413719Y238711D01*
X413889Y240000D01*
X413719Y241289D01*
X413222Y242490D01*
X412430Y243521D01*
X411399Y244313D01*
X410286Y244774D01*
Y329691D01*
X410286Y329691D01*
X410181Y330217D01*
X409883Y330664D01*
X409883Y330664D01*
X401549Y338998D01*
X401649Y339500D01*
X401455Y340476D01*
X400902Y341302D01*
X400075Y341855D01*
X399100Y342049D01*
D02*
G37*
G36*
X62300Y39287D02*
X61268Y39151D01*
X60307Y38753D01*
X59481Y38119D01*
X58847Y37293D01*
X58449Y36332D01*
X58313Y35300D01*
X58449Y34268D01*
X58847Y33307D01*
X59481Y32481D01*
X60307Y31847D01*
X61268Y31449D01*
X62300Y31313D01*
X63332Y31449D01*
X64293Y31847D01*
X65119Y32481D01*
X65753Y33307D01*
X66151Y34268D01*
X66287Y35300D01*
X66151Y36332D01*
X65753Y37293D01*
X65119Y38119D01*
X64293Y38753D01*
X63332Y39151D01*
X62300Y39287D01*
D02*
G37*
G36*
Y29287D02*
X61268Y29151D01*
X60307Y28753D01*
X59481Y28119D01*
X58847Y27293D01*
X58449Y26332D01*
X58313Y25300D01*
X58449Y24268D01*
X58847Y23307D01*
X59481Y22481D01*
X60307Y21847D01*
X61268Y21449D01*
X62300Y21313D01*
X63332Y21449D01*
X64293Y21847D01*
X65119Y22481D01*
X65753Y23307D01*
X66151Y24268D01*
X66287Y25300D01*
X66151Y26332D01*
X65753Y27293D01*
X65119Y28119D01*
X64293Y28753D01*
X63332Y29151D01*
X62300Y29287D01*
D02*
G37*
G36*
X46253Y28753D02*
X38347D01*
Y20847D01*
X46253D01*
Y28753D01*
D02*
G37*
G36*
X20000Y29043D02*
X18236Y28870D01*
X16539Y28355D01*
X14976Y27519D01*
X13605Y26395D01*
X12481Y25024D01*
X11645Y23461D01*
X11130Y21764D01*
X10956Y20000D01*
X11130Y18236D01*
X11645Y16539D01*
X12481Y14976D01*
X13605Y13605D01*
X14976Y12481D01*
X16539Y11645D01*
X18236Y11130D01*
X20000Y10956D01*
X21764Y11130D01*
X23461Y11645D01*
X25024Y12481D01*
X26395Y13605D01*
X27519Y14976D01*
X28355Y16539D01*
X28870Y18236D01*
X29043Y20000D01*
X28870Y21764D01*
X28355Y23461D01*
X27519Y25024D01*
X26395Y26395D01*
X25024Y27519D01*
X23461Y28355D01*
X21764Y28870D01*
X20000Y29043D01*
D02*
G37*
%LPD*%
G36*
X368962Y357992D02*
X368817Y357513D01*
X368525Y357455D01*
X367698Y356902D01*
X367145Y356076D01*
X367051Y355600D01*
X369500D01*
Y355100D01*
X370000D01*
Y352650D01*
X370476Y352745D01*
X371302Y353298D01*
X371855Y354124D01*
X371913Y354417D01*
X372392Y354562D01*
X383123Y343830D01*
Y309052D01*
X382683Y308817D01*
X382475Y308955D01*
X381500Y309149D01*
X380524Y308955D01*
X379698Y308402D01*
X379413Y307977D01*
X324937D01*
Y312968D01*
X315063D01*
Y311377D01*
X303970D01*
X299985Y315362D01*
X300176Y315824D01*
X310730D01*
X311727Y314827D01*
X312173Y314528D01*
X312700Y314423D01*
X324100D01*
X324627Y314528D01*
X325073Y314827D01*
X326273Y316027D01*
X326273Y316027D01*
X326572Y316473D01*
X326677Y317000D01*
X326677Y317000D01*
Y343400D01*
X326572Y343927D01*
X326273Y344373D01*
X325827Y344672D01*
X325300Y344777D01*
X304400D01*
X304400Y344777D01*
X303873Y344672D01*
X303427Y344373D01*
X303427Y344373D01*
X296030Y336977D01*
X294706D01*
X294228Y337032D01*
Y342969D01*
X284354D01*
Y341376D01*
X174570D01*
X158973Y356973D01*
X158527Y357272D01*
X158000Y357377D01*
X135228D01*
Y359500D01*
X130291D01*
X125354D01*
Y357377D01*
X112470D01*
X88473Y381373D01*
X88027Y381672D01*
X87500Y381776D01*
X66008D01*
X65753Y382393D01*
X65119Y383219D01*
X64293Y383853D01*
X63332Y384251D01*
X62300Y384387D01*
X61268Y384251D01*
X60307Y383853D01*
X59481Y383219D01*
X58847Y382393D01*
X58449Y381432D01*
X58313Y380400D01*
X58449Y379368D01*
X58847Y378407D01*
X59481Y377581D01*
X60307Y376947D01*
X61268Y376549D01*
X62300Y376413D01*
X63332Y376549D01*
X64293Y376947D01*
X65119Y377581D01*
X65753Y378407D01*
X66008Y379024D01*
X86930D01*
X102523Y363430D01*
X102332Y362968D01*
X100083D01*
Y360500D01*
X104520D01*
Y360780D01*
X104982Y360972D01*
X110927Y355027D01*
X111373Y354728D01*
X111900Y354624D01*
X157430D01*
X172215Y339838D01*
X172024Y339376D01*
X155070D01*
X147673Y346773D01*
X147227Y347072D01*
X146700Y347177D01*
X135228D01*
Y352969D01*
X125354D01*
Y351377D01*
X104520D01*
Y352969D01*
X94646D01*
Y351377D01*
X82287D01*
X82002Y351802D01*
X81176Y352355D01*
X80200Y352549D01*
X79224Y352355D01*
X78398Y351802D01*
X77845Y350975D01*
X77651Y350000D01*
X77845Y349025D01*
X78398Y348198D01*
X79224Y347645D01*
X80200Y347451D01*
X81176Y347645D01*
X82002Y348198D01*
X82287Y348623D01*
X90242D01*
X90303Y348540D01*
X90183Y347860D01*
X89798Y347602D01*
X89245Y346776D01*
X89051Y345800D01*
X89245Y344825D01*
X89798Y343998D01*
X90624Y343445D01*
X91600Y343251D01*
X92576Y343445D01*
X93402Y343998D01*
X93687Y344424D01*
X146130D01*
X153477Y337076D01*
X153448Y336870D01*
X153301Y336577D01*
X135337D01*
X135228Y337032D01*
X135228Y337076D01*
Y342969D01*
X125354D01*
Y341376D01*
X104520D01*
Y342969D01*
X94646D01*
Y341376D01*
X92087D01*
X91802Y341802D01*
X90975Y342355D01*
X90000Y342549D01*
X89025Y342355D01*
X88198Y341802D01*
X87645Y340975D01*
X87451Y340000D01*
X87645Y339024D01*
X88198Y338198D01*
X89025Y337645D01*
X90000Y337451D01*
X90975Y337645D01*
X91802Y338198D01*
X92087Y338623D01*
X94646D01*
Y337076D01*
X94646Y337032D01*
X94537Y336577D01*
X88070D01*
X65895Y358751D01*
X66151Y359368D01*
X66287Y360400D01*
X66151Y361432D01*
X65753Y362393D01*
X65119Y363219D01*
X64293Y363853D01*
X63332Y364251D01*
X62300Y364387D01*
X61268Y364251D01*
X60307Y363853D01*
X59481Y363219D01*
X58847Y362393D01*
X58449Y361432D01*
X58313Y360400D01*
X58449Y359368D01*
X58847Y358407D01*
X59481Y357581D01*
X59878Y357277D01*
X59708Y356776D01*
X44892D01*
X44722Y357277D01*
X45119Y357581D01*
X45753Y358407D01*
X46151Y359368D01*
X46221Y359900D01*
X42300D01*
Y360400D01*
X41800D01*
Y364321D01*
X41268Y364251D01*
X40307Y363853D01*
X39676Y363369D01*
X39176Y363616D01*
Y367184D01*
X39676Y367431D01*
X40307Y366947D01*
X41268Y366549D01*
X41800Y366479D01*
Y370400D01*
X42300D01*
Y370900D01*
X46221D01*
X46151Y371432D01*
X45753Y372393D01*
X45119Y373219D01*
X44722Y373523D01*
X44892Y374024D01*
X56730D01*
X58705Y372049D01*
X58449Y371432D01*
X58313Y370400D01*
X58449Y369368D01*
X58847Y368407D01*
X59481Y367581D01*
X60307Y366947D01*
X61268Y366549D01*
X62300Y366413D01*
X63332Y366549D01*
X64293Y366947D01*
X65119Y367581D01*
X65753Y368407D01*
X66151Y369368D01*
X66287Y370400D01*
X66151Y371432D01*
X65753Y372393D01*
X65119Y373219D01*
X64293Y373853D01*
X63332Y374251D01*
X62300Y374387D01*
X61268Y374251D01*
X60651Y373995D01*
X58273Y376373D01*
X57827Y376672D01*
X57300Y376777D01*
X44892D01*
X44722Y377276D01*
X45119Y377581D01*
X45753Y378407D01*
X46151Y379368D01*
X46287Y380400D01*
X46151Y381432D01*
X45753Y382393D01*
X45119Y383219D01*
X44293Y383853D01*
X43332Y384251D01*
X42300Y384387D01*
X41268Y384251D01*
X40651Y383995D01*
X39176Y385470D01*
Y387184D01*
X39676Y387431D01*
X40307Y386947D01*
X41268Y386549D01*
X42300Y386413D01*
X43332Y386549D01*
X44293Y386947D01*
X45119Y387581D01*
X45753Y388407D01*
X46151Y389368D01*
X46287Y390400D01*
X46151Y391432D01*
X45895Y392049D01*
X47370Y393524D01*
X59084D01*
X59331Y393023D01*
X58847Y392393D01*
X58449Y391432D01*
X58313Y390400D01*
X58449Y389368D01*
X58847Y388407D01*
X59481Y387581D01*
X60307Y386947D01*
X61268Y386549D01*
X62300Y386413D01*
X63332Y386549D01*
X64293Y386947D01*
X65119Y387581D01*
X65753Y388407D01*
X66008Y389023D01*
X188830D01*
X232227Y345627D01*
X232227Y345627D01*
X232673Y345328D01*
X233200Y345223D01*
X294200D01*
X294727Y345328D01*
X295173Y345627D01*
X298170Y348623D01*
X315063D01*
Y347031D01*
X324937D01*
Y352969D01*
X315063D01*
Y351377D01*
X297600D01*
X297600Y351377D01*
X297073Y351272D01*
X296627Y350973D01*
X296627Y350973D01*
X294690Y349037D01*
X294228Y349228D01*
Y352969D01*
X284354D01*
Y351377D01*
X249670D01*
X199673Y401373D01*
X199227Y401672D01*
X198700Y401777D01*
X66008D01*
X65753Y402393D01*
X65119Y403219D01*
X64948Y403350D01*
X65109Y403824D01*
X246230D01*
X272651Y377402D01*
X272551Y376900D01*
X272745Y375924D01*
X273298Y375098D01*
X274125Y374545D01*
X275100Y374351D01*
X276076Y374545D01*
X276902Y375098D01*
X277455Y375924D01*
X277649Y376900D01*
X277455Y377875D01*
X276902Y378702D01*
X276076Y379255D01*
X275100Y379449D01*
X274598Y379349D01*
X247773Y406173D01*
X247327Y406472D01*
X246800Y406576D01*
X64631D01*
X64462Y407077D01*
X65119Y407581D01*
X65753Y408407D01*
X66151Y409368D01*
X66287Y410400D01*
X66151Y411432D01*
X65753Y412393D01*
X65346Y412923D01*
X65592Y413423D01*
X252930D01*
X268651Y397702D01*
X268551Y397200D01*
X268745Y396224D01*
X269298Y395398D01*
X270125Y394845D01*
X271100Y394651D01*
X272076Y394845D01*
X272902Y395398D01*
X273455Y396224D01*
X273649Y397200D01*
X273455Y398176D01*
X272902Y399002D01*
X272076Y399555D01*
X271100Y399749D01*
X270598Y399649D01*
X254473Y415773D01*
X254027Y416072D01*
X253500Y416177D01*
X63739D01*
X63640Y416677D01*
X64293Y416947D01*
X65119Y417581D01*
X65753Y418407D01*
X66151Y419368D01*
X66287Y420400D01*
X66151Y421432D01*
X65753Y422393D01*
X65119Y423219D01*
X64293Y423853D01*
X63881Y424023D01*
X63981Y424523D01*
X263130D01*
X276351Y411303D01*
X276251Y410800D01*
X276445Y409825D01*
X276998Y408998D01*
X277824Y408445D01*
X278800Y408251D01*
X279776Y408445D01*
X280602Y408998D01*
X281155Y409825D01*
X281349Y410800D01*
X281155Y411775D01*
X280602Y412602D01*
X279776Y413155D01*
X278800Y413349D01*
X278298Y413249D01*
X264673Y426873D01*
X264227Y427172D01*
X263700Y427277D01*
X65516D01*
X65269Y427776D01*
X65753Y428407D01*
X66151Y429368D01*
X66287Y430400D01*
X66151Y431432D01*
X65753Y432393D01*
X65346Y432924D01*
X65592Y433424D01*
X282830D01*
X304651Y411602D01*
X304551Y411100D01*
X304745Y410124D01*
X305298Y409298D01*
X306124Y408745D01*
X307100Y408551D01*
X308075Y408745D01*
X308902Y409298D01*
X309455Y410124D01*
X309649Y411100D01*
X309455Y412076D01*
X308902Y412902D01*
X308075Y413455D01*
X307100Y413649D01*
X306598Y413549D01*
X284373Y435773D01*
X283927Y436072D01*
X283400Y436176D01*
X63739D01*
X63640Y436677D01*
X64293Y436947D01*
X65119Y437581D01*
X65753Y438407D01*
X66151Y439368D01*
X66287Y440400D01*
X66151Y441432D01*
X65753Y442393D01*
X65119Y443219D01*
X64293Y443853D01*
X63332Y444251D01*
X62300Y444387D01*
X61268Y444251D01*
X60651Y443995D01*
X48773Y455873D01*
X48327Y456172D01*
X47800Y456277D01*
X43981D01*
X43881Y456777D01*
X44293Y456947D01*
X45119Y457581D01*
X45753Y458407D01*
X46151Y459368D01*
X46287Y460400D01*
X46151Y461432D01*
X45895Y462049D01*
X57270Y473423D01*
X59008D01*
X59254Y472924D01*
X58847Y472393D01*
X58449Y471432D01*
X58313Y470400D01*
X58449Y469368D01*
X58847Y468407D01*
X59481Y467581D01*
X60307Y466947D01*
X61268Y466549D01*
X62300Y466413D01*
X63332Y466549D01*
X64293Y466947D01*
X65119Y467581D01*
X65753Y468407D01*
X66151Y469368D01*
X66287Y470400D01*
X66151Y471432D01*
X65753Y472393D01*
X65346Y472924D01*
X65592Y473423D01*
X253530D01*
X368962Y357992D01*
D02*
G37*
G36*
X39331Y453023D02*
X38847Y452393D01*
X38449Y451432D01*
X38313Y450400D01*
X38449Y449368D01*
X38705Y448751D01*
X36827Y446873D01*
X36528Y446427D01*
X36424Y445900D01*
Y428100D01*
X36528Y427573D01*
X36827Y427127D01*
X39027Y424927D01*
X39473Y424628D01*
X40000Y424523D01*
X40620D01*
X40719Y424023D01*
X40307Y423853D01*
X39481Y423219D01*
X38847Y422393D01*
X38449Y421432D01*
X38313Y420400D01*
X38449Y419368D01*
X38847Y418407D01*
X39481Y417581D01*
X40307Y416947D01*
X41268Y416549D01*
X42300Y416413D01*
X43332Y416549D01*
X44293Y416947D01*
X45119Y417581D01*
X45753Y418407D01*
X46151Y419368D01*
X46287Y420400D01*
X46151Y421432D01*
X45753Y422393D01*
X45119Y423219D01*
X44293Y423853D01*
X43881Y424023D01*
X43981Y424523D01*
X60619D01*
X60719Y424023D01*
X60307Y423853D01*
X59481Y423219D01*
X58847Y422393D01*
X58449Y421432D01*
X58313Y420400D01*
X58449Y419368D01*
X58847Y418407D01*
X59481Y417581D01*
X60307Y416947D01*
X60960Y416677D01*
X60861Y416177D01*
X46700D01*
X46173Y416072D01*
X45727Y415773D01*
X43949Y413995D01*
X43332Y414251D01*
X42300Y414387D01*
X41268Y414251D01*
X40307Y413853D01*
X39481Y413219D01*
X38847Y412393D01*
X38449Y411432D01*
X38313Y410400D01*
X38449Y409368D01*
X38847Y408407D01*
X39481Y407581D01*
X40138Y407077D01*
X40018Y406642D01*
X39975Y406571D01*
X39473Y406472D01*
X39027Y406173D01*
X36827Y403973D01*
X36528Y403527D01*
X36424Y403000D01*
Y384900D01*
X36528Y384373D01*
X36827Y383927D01*
X38705Y382049D01*
X38449Y381432D01*
X38313Y380400D01*
X38449Y379368D01*
X38847Y378407D01*
X39481Y377581D01*
X39893Y377265D01*
X39768Y376730D01*
X39473Y376672D01*
X39027Y376373D01*
X36827Y374173D01*
X36528Y373727D01*
X36424Y373200D01*
Y358100D01*
X36528Y357573D01*
X36827Y357127D01*
X39527Y354427D01*
X39527Y354427D01*
X39904Y354174D01*
X39985Y353848D01*
X39996Y353614D01*
X39481Y353219D01*
X38847Y352393D01*
X38449Y351432D01*
X38379Y350900D01*
X42300D01*
X46221D01*
X46151Y351432D01*
X45753Y352393D01*
X45119Y353219D01*
X44722Y353523D01*
X44892Y354024D01*
X59708D01*
X59878Y353523D01*
X59481Y353219D01*
X58847Y352393D01*
X58449Y351432D01*
X58313Y350400D01*
X58449Y349368D01*
X58847Y348407D01*
X59481Y347581D01*
X60307Y346947D01*
X60719Y346777D01*
X60619Y346276D01*
X43981D01*
X43881Y346777D01*
X44293Y346947D01*
X45119Y347581D01*
X45753Y348407D01*
X46151Y349368D01*
X46221Y349900D01*
X42300D01*
X38379D01*
X38449Y349368D01*
X38847Y348407D01*
X39481Y347581D01*
X40307Y346947D01*
X40719Y346777D01*
X40620Y346276D01*
X35100D01*
X35100Y346276D01*
X34573Y346172D01*
X34127Y345873D01*
X25038Y336785D01*
X24576Y336976D01*
Y447730D01*
X30370Y453523D01*
X39084D01*
X39331Y453023D01*
D02*
G37*
G36*
X59331Y343023D02*
X58847Y342393D01*
X58449Y341432D01*
X58313Y340400D01*
X58449Y339368D01*
X58847Y338407D01*
X59481Y337581D01*
X60307Y336947D01*
X61268Y336549D01*
X62300Y336413D01*
X63332Y336549D01*
X63949Y336805D01*
X75115Y325638D01*
X74924Y325177D01*
X71270D01*
X70673Y325773D01*
X70227Y326072D01*
X69700Y326177D01*
X63739D01*
X63640Y326677D01*
X64293Y326947D01*
X65119Y327581D01*
X65753Y328407D01*
X66151Y329368D01*
X66287Y330400D01*
X66151Y331432D01*
X65753Y332393D01*
X65119Y333219D01*
X64293Y333853D01*
X63332Y334251D01*
X62300Y334387D01*
X61268Y334251D01*
X60307Y333853D01*
X59481Y333219D01*
X58847Y332393D01*
X58449Y331432D01*
X58313Y330400D01*
X58449Y329368D01*
X58847Y328407D01*
X59481Y327581D01*
X60307Y326947D01*
X60960Y326677D01*
X60861Y326177D01*
X43739D01*
X43640Y326677D01*
X44293Y326947D01*
X45119Y327581D01*
X45753Y328407D01*
X46151Y329368D01*
X46221Y329900D01*
X42300D01*
X38379D01*
X38449Y329368D01*
X38847Y328407D01*
X39481Y327581D01*
X40307Y326947D01*
X40960Y326677D01*
X40861Y326177D01*
X37087D01*
X36802Y326602D01*
X35976Y327155D01*
X35000Y327349D01*
X34025Y327155D01*
X33198Y326602D01*
X32645Y325776D01*
X32451Y324800D01*
X32645Y323825D01*
X33198Y322998D01*
X34025Y322445D01*
X35000Y322251D01*
X35976Y322445D01*
X36802Y322998D01*
X37087Y323424D01*
X39007D01*
X39254Y322923D01*
X38847Y322393D01*
X38449Y321432D01*
X38379Y320900D01*
X42300D01*
X46221D01*
X46151Y321432D01*
X45753Y322393D01*
X45346Y322923D01*
X45592Y323424D01*
X59008D01*
X59254Y322923D01*
X58847Y322393D01*
X58449Y321432D01*
X58313Y320400D01*
X58449Y319368D01*
X58847Y318407D01*
X59481Y317581D01*
X60307Y316947D01*
X60719Y316776D01*
X60619Y316277D01*
X43981D01*
X43881Y316776D01*
X44293Y316947D01*
X45119Y317581D01*
X45753Y318407D01*
X46151Y319368D01*
X46221Y319900D01*
X42300D01*
X38379D01*
X38449Y319368D01*
X38847Y318407D01*
X39481Y317581D01*
X40307Y316947D01*
X40719Y316776D01*
X40620Y316277D01*
X38100D01*
X37573Y316172D01*
X37127Y315873D01*
X29802Y308549D01*
X29300Y308649D01*
X28324Y308455D01*
X27498Y307902D01*
X26945Y307076D01*
X26776Y306228D01*
X26276Y306277D01*
Y334130D01*
X35670Y343524D01*
X39084D01*
X39331Y343023D01*
X38847Y342393D01*
X38449Y341432D01*
X38379Y340900D01*
X42300D01*
X46221D01*
X46151Y341432D01*
X45753Y342393D01*
X45269Y343023D01*
X45516Y343524D01*
X59084D01*
X59331Y343023D01*
D02*
G37*
G36*
Y313023D02*
X58847Y312393D01*
X58449Y311432D01*
X58313Y310400D01*
X58449Y309368D01*
X58847Y308407D01*
X59481Y307581D01*
X60307Y306947D01*
X61268Y306549D01*
X62300Y306413D01*
X63332Y306549D01*
X63949Y306805D01*
X65127Y305627D01*
X65573Y305328D01*
X65834Y305276D01*
X65785Y304777D01*
X65300D01*
X64773Y304672D01*
X64327Y304373D01*
X63949Y303995D01*
X63332Y304251D01*
X62300Y304387D01*
X61268Y304251D01*
X60307Y303853D01*
X59481Y303219D01*
X58847Y302393D01*
X58449Y301432D01*
X58313Y300400D01*
X58449Y299368D01*
X58847Y298407D01*
X59481Y297581D01*
X60307Y296947D01*
X60719Y296777D01*
X60619Y296276D01*
X43981D01*
X43881Y296777D01*
X44293Y296947D01*
X45119Y297581D01*
X45753Y298407D01*
X46151Y299368D01*
X46221Y299900D01*
X42300D01*
X38379D01*
X38449Y299368D01*
X38847Y298407D01*
X39481Y297581D01*
X40307Y296947D01*
X40719Y296777D01*
X40620Y296276D01*
X37470D01*
X36349Y297398D01*
X36449Y297900D01*
X36255Y298875D01*
X35702Y299702D01*
X34876Y300255D01*
X33900Y300449D01*
X32925Y300255D01*
X32098Y299702D01*
X31545Y298875D01*
X31351Y297900D01*
X31545Y296924D01*
X32098Y296098D01*
X32925Y295545D01*
X33900Y295351D01*
X34402Y295451D01*
X35927Y293927D01*
X36373Y293628D01*
X36900Y293524D01*
X39084D01*
X39331Y293023D01*
X38847Y292393D01*
X38449Y291432D01*
X38379Y290900D01*
X42300D01*
X46221D01*
X46151Y291432D01*
X45753Y292393D01*
X45269Y293023D01*
X45516Y293524D01*
X59084D01*
X59331Y293023D01*
X58847Y292393D01*
X58449Y291432D01*
X58313Y290400D01*
X58449Y289368D01*
X58847Y288407D01*
X59481Y287581D01*
X60307Y286947D01*
X60719Y286776D01*
X60619Y286277D01*
X43981D01*
X43881Y286776D01*
X44293Y286947D01*
X45119Y287581D01*
X45753Y288407D01*
X46151Y289368D01*
X46221Y289900D01*
X42300D01*
X38379D01*
X38449Y289368D01*
X38847Y288407D01*
X39481Y287581D01*
X40307Y286947D01*
X40719Y286776D01*
X40620Y286277D01*
X29820D01*
X29602Y286602D01*
X28776Y287155D01*
X27800Y287349D01*
X26825Y287155D01*
X26717Y287083D01*
X26276Y287319D01*
Y305923D01*
X26776Y305972D01*
X26945Y305124D01*
X27498Y304298D01*
X28324Y303745D01*
X29300Y303551D01*
X30275Y303745D01*
X31102Y304298D01*
X31655Y305124D01*
X31849Y306100D01*
X31749Y306602D01*
X38624Y313478D01*
X39112Y313431D01*
X39314Y313002D01*
X38847Y312393D01*
X38449Y311432D01*
X38379Y310900D01*
X42300D01*
X46221D01*
X46151Y311432D01*
X45753Y312393D01*
X45269Y313023D01*
X45516Y313524D01*
X59084D01*
X59331Y313023D01*
D02*
G37*
G36*
X377715Y304762D02*
X359202Y286249D01*
X358700Y286349D01*
X357724Y286155D01*
X356898Y285602D01*
X356345Y284775D01*
X356151Y283800D01*
X356345Y282824D01*
X356898Y281998D01*
X357079Y281876D01*
X356927Y281377D01*
X324937D01*
Y282968D01*
X315063D01*
Y277976D01*
X294228D01*
Y282968D01*
X284354D01*
Y281377D01*
X172887D01*
X172602Y281802D01*
X171775Y282355D01*
X170800Y282549D01*
X169825Y282355D01*
X168998Y281802D01*
X168445Y280976D01*
X168251Y280000D01*
X168445Y279025D01*
X168998Y278198D01*
X169825Y277645D01*
X170800Y277451D01*
X171775Y277645D01*
X172602Y278198D01*
X172887Y278624D01*
X284354D01*
Y277976D01*
X183400D01*
X182873Y277872D01*
X182427Y277573D01*
X182427Y277573D01*
X175130Y270276D01*
X147385D01*
X147150Y270717D01*
X147355Y271024D01*
X147549Y272000D01*
X147355Y272975D01*
X146802Y273802D01*
X145975Y274355D01*
X145000Y274549D01*
X144498Y274449D01*
X137973Y280973D01*
X137527Y281272D01*
X137000Y281377D01*
X135228D01*
Y282968D01*
X125354D01*
Y277031D01*
X135228D01*
Y278624D01*
X136430D01*
X142551Y272502D01*
X142451Y272000D01*
X142575Y271379D01*
X142114Y271133D01*
X137273Y275973D01*
X136827Y276272D01*
X136300Y276377D01*
X109270D01*
X104673Y280973D01*
X104520Y281076D01*
Y282968D01*
X94646D01*
Y277031D01*
X104520D01*
X104520Y277031D01*
Y277031D01*
X104932Y276821D01*
X107727Y274027D01*
X108173Y273728D01*
X108700Y273623D01*
X108700Y273623D01*
X135730D01*
X141427Y267927D01*
X141873Y267628D01*
X142400Y267524D01*
X174824D01*
X175015Y267062D01*
X169330Y261377D01*
X135228D01*
Y262968D01*
X125354D01*
Y257977D01*
X123070D01*
X116847Y264200D01*
X121270Y268623D01*
X125354D01*
Y267032D01*
X135228D01*
Y272969D01*
X125354D01*
Y271376D01*
X120700D01*
X120700Y271376D01*
X120173Y271272D01*
X119727Y270973D01*
X119727Y270973D01*
X115230Y266476D01*
X92887D01*
X92602Y266902D01*
X91776Y267455D01*
X90800Y267649D01*
X89824Y267455D01*
X88998Y266902D01*
X88445Y266075D01*
X88251Y265100D01*
X88445Y264124D01*
X88998Y263298D01*
X89824Y262745D01*
X90800Y262551D01*
X90898Y262571D01*
X91145Y262110D01*
X61327Y232292D01*
X61028Y231845D01*
X60924Y231319D01*
Y219253D01*
X58347D01*
Y212176D01*
X51900D01*
X51373Y212072D01*
X50927Y211773D01*
X48441Y209288D01*
X47979Y209479D01*
Y231633D01*
X84970Y268623D01*
X94646D01*
Y267032D01*
X104520D01*
Y272969D01*
X94646D01*
Y271376D01*
X84400D01*
X83873Y271272D01*
X83427Y270973D01*
X45630Y233176D01*
X45331Y232730D01*
X45226Y232203D01*
Y218167D01*
X44726Y217920D01*
X44293Y218253D01*
X43332Y218651D01*
X42300Y218787D01*
X41268Y218651D01*
X40307Y218253D01*
X39481Y217619D01*
X38847Y216793D01*
X38449Y215832D01*
X38313Y214800D01*
X38449Y213768D01*
X38847Y212807D01*
X39481Y211981D01*
X40307Y211347D01*
X41268Y210949D01*
X42300Y210813D01*
X43332Y210949D01*
X44293Y211347D01*
X44726Y211680D01*
X45226Y211433D01*
Y208167D01*
X44726Y207921D01*
X44293Y208253D01*
X43332Y208651D01*
X42300Y208787D01*
X41268Y208651D01*
X40307Y208253D01*
X39481Y207619D01*
X38847Y206793D01*
X38449Y205832D01*
X38313Y204800D01*
X38449Y203768D01*
X38847Y202807D01*
X39481Y201981D01*
X40307Y201347D01*
X41268Y200949D01*
X42300Y200813D01*
X43332Y200949D01*
X44293Y201347D01*
X44726Y201679D01*
X45226Y201433D01*
Y198167D01*
X44726Y197921D01*
X44293Y198253D01*
X43332Y198651D01*
X42300Y198787D01*
X41268Y198651D01*
X40307Y198253D01*
X39481Y197619D01*
X38847Y196793D01*
X38449Y195832D01*
X38313Y194800D01*
X38449Y193768D01*
X38847Y192807D01*
X39481Y191981D01*
X40307Y191347D01*
X41268Y190949D01*
X42300Y190813D01*
X43332Y190949D01*
X44293Y191347D01*
X44726Y191680D01*
X45226Y191433D01*
Y188167D01*
X44726Y187920D01*
X44293Y188253D01*
X43332Y188651D01*
X42300Y188787D01*
X41268Y188651D01*
X40307Y188253D01*
X39481Y187619D01*
X38847Y186793D01*
X38449Y185832D01*
X38313Y184800D01*
X38449Y183768D01*
X38847Y182807D01*
X39481Y181981D01*
X40307Y181347D01*
X41268Y180949D01*
X42300Y180813D01*
X43332Y180949D01*
X44293Y181347D01*
X44726Y181679D01*
X45226Y181433D01*
Y178167D01*
X44726Y177920D01*
X44293Y178253D01*
X43332Y178651D01*
X42300Y178787D01*
X41268Y178651D01*
X40651Y178395D01*
X26276Y192770D01*
Y282281D01*
X26717Y282517D01*
X26825Y282445D01*
X27800Y282251D01*
X28776Y282445D01*
X29602Y282998D01*
X29954Y283524D01*
X38347D01*
Y280900D01*
X42300D01*
X46253D01*
Y283524D01*
X58347D01*
Y276447D01*
X66253D01*
Y282406D01*
X67370Y283524D01*
X300200D01*
X300727Y283628D01*
X301173Y283927D01*
X305870Y288623D01*
X315063D01*
Y287032D01*
X324937D01*
Y292969D01*
X315063D01*
Y291376D01*
X306795D01*
X306604Y291838D01*
X308389Y293623D01*
X330570D01*
X330854Y293198D01*
X331681Y292645D01*
X332657Y292451D01*
X333632Y292645D01*
X334459Y293198D01*
X335012Y294024D01*
X335206Y295000D01*
X335012Y295975D01*
X334459Y296802D01*
X333632Y297355D01*
X332657Y297549D01*
X331681Y297355D01*
X330854Y296802D01*
X330570Y296376D01*
X307819D01*
X307819Y296376D01*
X307292Y296272D01*
X306845Y295973D01*
X306845Y295973D01*
X298930Y288058D01*
X294228D01*
Y292969D01*
X284354D01*
Y291376D01*
X144095D01*
X143810Y291802D01*
X142983Y292355D01*
X142008Y292549D01*
X141032Y292355D01*
X140205Y291802D01*
X139653Y290975D01*
X139459Y290000D01*
X139653Y289024D01*
X139965Y288558D01*
X139697Y288058D01*
X135228D01*
Y292969D01*
X125878D01*
X124373Y294473D01*
X123972Y294742D01*
X123911Y294989D01*
X123890Y295289D01*
X124502Y295698D01*
X125055Y296525D01*
X125079Y296645D01*
X125354Y297031D01*
X135228D01*
Y302024D01*
X190044D01*
X190311Y301523D01*
X189945Y300975D01*
X189751Y300000D01*
X189945Y299025D01*
X190498Y298198D01*
X191324Y297645D01*
X192300Y297451D01*
X193275Y297645D01*
X194102Y298198D01*
X194387Y298623D01*
X284354D01*
Y297031D01*
X294228D01*
Y302024D01*
X300730D01*
X303727Y299027D01*
X303727Y299027D01*
X304173Y298728D01*
X304700Y298623D01*
X304700Y298623D01*
X315063D01*
Y297031D01*
X324937D01*
Y302969D01*
X315063D01*
Y301377D01*
X305270D01*
X302273Y304373D01*
X301827Y304672D01*
X301566Y304724D01*
X301615Y305223D01*
X377524D01*
X377715Y304762D01*
D02*
G37*
G36*
X1047278Y254027D02*
X1047278Y254027D01*
X1047725Y253728D01*
X1048251Y253624D01*
X1055417D01*
Y252031D01*
X1065291D01*
Y257024D01*
X1081430D01*
X1093324Y245130D01*
Y108519D01*
X1092883Y108283D01*
X1092775Y108355D01*
X1091800Y108549D01*
X1090825Y108355D01*
X1089998Y107802D01*
X1089445Y106975D01*
X1089251Y106000D01*
X1089351Y105498D01*
X1051526Y67673D01*
X1023773D01*
X1023581Y68135D01*
X1044998Y89551D01*
X1045500Y89451D01*
X1046475Y89645D01*
X1047302Y90198D01*
X1047855Y91025D01*
X1048049Y92000D01*
X1047855Y92975D01*
X1047302Y93802D01*
X1046475Y94355D01*
X1045500Y94549D01*
X1044525Y94355D01*
X1043698Y93802D01*
X1043145Y92975D01*
X1042951Y92000D01*
X1043051Y91498D01*
X1020926Y69373D01*
X1014318D01*
X1014126Y69835D01*
X1047073Y102782D01*
X1047073Y102782D01*
X1047372Y103228D01*
X1047476Y103755D01*
X1047476Y103755D01*
Y125913D01*
X1047902Y126198D01*
X1048455Y127024D01*
X1048649Y128000D01*
X1048455Y128975D01*
X1047902Y129802D01*
X1047075Y130355D01*
X1046100Y130549D01*
X1045417Y130413D01*
X1045170Y130874D01*
X1045770Y131474D01*
X1068413D01*
X1068698Y131048D01*
X1069525Y130495D01*
X1070500Y130301D01*
X1071475Y130495D01*
X1072302Y131048D01*
X1072855Y131875D01*
X1073049Y132850D01*
X1072855Y133826D01*
X1072302Y134652D01*
X1071475Y135205D01*
X1070500Y135399D01*
X1069525Y135205D01*
X1068698Y134652D01*
X1068413Y134226D01*
X1045200D01*
X1045200Y134227D01*
X1044673Y134122D01*
X1044227Y133823D01*
X1042127Y131723D01*
X1041828Y131277D01*
X1041724Y130750D01*
Y112170D01*
X1032438Y102885D01*
X1031976Y103076D01*
Y106513D01*
X1032402Y106798D01*
X1032955Y107624D01*
X1033149Y108600D01*
X1032955Y109575D01*
X1032880Y109688D01*
X1033099Y110260D01*
X1033423Y110477D01*
X1035198Y112251D01*
X1035700Y112151D01*
X1036675Y112345D01*
X1037502Y112898D01*
X1038055Y113725D01*
X1038249Y114700D01*
X1038055Y115675D01*
X1037502Y116502D01*
X1036675Y117055D01*
X1035700Y117249D01*
X1034725Y117055D01*
X1033898Y116502D01*
X1033345Y115675D01*
X1033151Y114700D01*
X1033251Y114198D01*
X1031880Y112826D01*
X1026746D01*
X1026219Y112722D01*
X1025772Y112423D01*
X977426Y64076D01*
X965490D01*
X965222Y64576D01*
X965455Y64925D01*
X965549Y65400D01*
X960651D01*
X960745Y64925D01*
X960978Y64576D01*
X960710Y64076D01*
X912600D01*
X912600Y64077D01*
X912073Y63972D01*
X911627Y63673D01*
X909586Y61633D01*
X909126Y61879D01*
X909249Y62500D01*
X909055Y63476D01*
X908502Y64302D01*
X907675Y64855D01*
X907362Y64917D01*
X907411Y65417D01*
X909500D01*
Y70354D01*
X910000D01*
Y70854D01*
X912969D01*
Y74424D01*
X917031D01*
Y70854D01*
X920000D01*
X922968D01*
Y74424D01*
X927032D01*
Y70854D01*
X930000D01*
X932969D01*
Y74424D01*
X937031D01*
Y70854D01*
X940000D01*
X942968D01*
Y74424D01*
X953287D01*
X954534Y73177D01*
X954981Y72878D01*
X955508Y72774D01*
X979920D01*
X980447Y72878D01*
X980894Y73177D01*
X1028098Y120381D01*
X1029528D01*
X1030055Y120486D01*
X1030501Y120784D01*
X1036468Y126751D01*
X1036970Y126651D01*
X1037946Y126845D01*
X1038773Y127398D01*
X1039325Y128225D01*
X1039519Y129200D01*
X1039325Y130175D01*
X1038773Y131002D01*
X1037946Y131555D01*
X1036970Y131749D01*
X1035995Y131555D01*
X1035168Y131002D01*
X1034616Y130175D01*
X1034421Y129200D01*
X1034521Y128698D01*
X1033119Y127295D01*
X1032658Y127541D01*
X1032749Y128000D01*
X1032555Y128975D01*
X1032002Y129802D01*
X1031175Y130355D01*
X1030200Y130549D01*
X1029225Y130355D01*
X1028398Y129802D01*
X1027845Y128975D01*
X1027651Y128000D01*
X1027751Y127498D01*
X978580Y78326D01*
X965020D01*
X964623Y78724D01*
X964830Y79224D01*
X973600D01*
X974127Y79328D01*
X974573Y79627D01*
X1029870Y134924D01*
X1034813D01*
X1035098Y134498D01*
X1035925Y133945D01*
X1036900Y133751D01*
X1037875Y133945D01*
X1038702Y134498D01*
X1039255Y135325D01*
X1039449Y136300D01*
X1039255Y137276D01*
X1038702Y138102D01*
X1037875Y138655D01*
X1036900Y138849D01*
X1035925Y138655D01*
X1035098Y138102D01*
X1034813Y137676D01*
X1029300D01*
X1029300Y137677D01*
X1028773Y137572D01*
X1028327Y137273D01*
X1028327Y137273D01*
X973030Y81976D01*
X972226D01*
X972035Y82438D01*
X1035320Y145724D01*
X1044100D01*
X1044627Y145828D01*
X1045073Y146127D01*
X1054955Y156009D01*
X1055417Y155817D01*
Y152032D01*
X1065291D01*
Y157968D01*
X1056767D01*
X1056440Y158346D01*
X1056966Y162031D01*
X1065291D01*
Y167924D01*
X1071313D01*
X1071598Y167498D01*
X1072425Y166945D01*
X1073400Y166751D01*
X1074375Y166945D01*
X1075202Y167498D01*
X1075755Y168324D01*
X1075949Y169300D01*
X1075755Y170275D01*
X1075202Y171102D01*
X1074375Y171655D01*
X1073400Y171849D01*
X1072425Y171655D01*
X1071598Y171102D01*
X1071313Y170676D01*
X1054400D01*
X1053873Y170572D01*
X1053427Y170273D01*
X1043386Y160233D01*
X1042925Y160479D01*
X1043049Y161100D01*
X1042855Y162075D01*
X1042545Y162540D01*
X1042384Y162997D01*
X1042614Y163268D01*
X1052970Y173624D01*
X1055417D01*
Y172031D01*
X1065291D01*
Y177969D01*
X1055652D01*
X1055364Y178445D01*
X1055480Y178624D01*
X1063400D01*
X1063927Y178728D01*
X1064373Y179027D01*
X1068473Y183127D01*
X1068473Y183127D01*
X1068772Y183573D01*
X1068876Y184100D01*
X1068876Y184100D01*
Y236000D01*
X1068876Y236000D01*
X1068772Y236527D01*
X1068473Y236973D01*
X1064973Y240473D01*
X1064527Y240772D01*
X1064000Y240877D01*
X1047087D01*
X1046802Y241302D01*
X1045975Y241855D01*
X1045000Y242049D01*
X1044025Y241855D01*
X1043198Y241302D01*
X1042645Y240476D01*
X1042451Y239500D01*
X1042645Y238525D01*
X1043198Y237698D01*
X1044025Y237145D01*
X1045000Y236951D01*
X1045975Y237145D01*
X1046802Y237698D01*
X1047087Y238123D01*
X1054982D01*
X1055417Y237968D01*
Y236377D01*
X1039070D01*
X1035173Y240273D01*
X1034727Y240572D01*
X1034200Y240676D01*
X1011600D01*
X1011073Y240572D01*
X1010627Y240273D01*
X1010627Y240273D01*
X1008530Y238176D01*
X990200D01*
X990200Y238176D01*
X989673Y238072D01*
X989227Y237773D01*
X989227Y237773D01*
X979461Y228008D01*
X979001Y228254D01*
X979149Y229000D01*
X979049Y229502D01*
X992098Y242551D01*
X992600Y242451D01*
X993575Y242645D01*
X994402Y243198D01*
X994955Y244024D01*
X995149Y245000D01*
X994955Y245975D01*
X994402Y246802D01*
X993575Y247355D01*
X992600Y247549D01*
X991625Y247355D01*
X990798Y246802D01*
X990245Y245975D01*
X990051Y245000D01*
X990151Y244498D01*
X977102Y231449D01*
X976600Y231549D01*
X975625Y231355D01*
X974798Y230802D01*
X974245Y229976D01*
X974051Y229000D01*
X974245Y228025D01*
X974798Y227198D01*
X974862Y227155D01*
X974716Y226677D01*
X971687D01*
X971402Y227102D01*
X970575Y227655D01*
X970192Y227731D01*
X970047Y228210D01*
X995461Y253624D01*
X1024709D01*
Y252031D01*
X1034239D01*
X1034391Y251532D01*
X1034198Y251402D01*
X1033645Y250575D01*
X1033451Y249600D01*
X1033645Y248624D01*
X1033789Y248410D01*
X1033553Y247969D01*
X1030146D01*
Y245500D01*
X1034583D01*
Y247010D01*
X1034918Y247189D01*
X1035083Y247234D01*
X1036000Y247051D01*
X1036975Y247245D01*
X1037802Y247798D01*
X1038355Y248624D01*
X1038549Y249600D01*
X1038355Y250575D01*
X1037802Y251402D01*
X1037376Y251687D01*
Y263221D01*
X1037564Y263358D01*
X1037857Y263448D01*
X1047278Y254027D01*
D02*
G37*
G36*
X305727Y204827D02*
X305727Y204827D01*
X306173Y204528D01*
X306700Y204423D01*
X306700Y204424D01*
X367830D01*
X382651Y189602D01*
X382551Y189100D01*
X382745Y188125D01*
X383298Y187298D01*
X384124Y186745D01*
X385100Y186551D01*
X386075Y186745D01*
X386902Y187298D01*
X387455Y188125D01*
X387649Y189100D01*
X387455Y190076D01*
X386902Y190902D01*
X386075Y191455D01*
X385100Y191649D01*
X384598Y191549D01*
X382935Y193212D01*
X382966Y193283D01*
X383229Y193624D01*
X384100Y193451D01*
X385075Y193645D01*
X385902Y194198D01*
X386455Y195025D01*
X386649Y196000D01*
X386575Y196371D01*
X387036Y196617D01*
X402427Y181227D01*
X402873Y180928D01*
X403400Y180824D01*
X403400Y180824D01*
X597944D01*
X598211Y180324D01*
X597845Y179776D01*
X597651Y178800D01*
X597845Y177824D01*
X598398Y176998D01*
X599225Y176445D01*
X600200Y176251D01*
X601175Y176445D01*
X602002Y176998D01*
X602287Y177424D01*
X634709D01*
Y176376D01*
X632000D01*
X631473Y176272D01*
X631027Y175973D01*
X616302Y161249D01*
X615800Y161349D01*
X614824Y161155D01*
X613998Y160602D01*
X613445Y159775D01*
X613251Y158800D01*
X613445Y157825D01*
X613998Y156998D01*
X614824Y156445D01*
X615800Y156251D01*
X616776Y156445D01*
X617602Y156998D01*
X618155Y157825D01*
X618349Y158800D01*
X618249Y159302D01*
X632570Y173624D01*
X634709D01*
Y172031D01*
X644583D01*
Y177424D01*
X656577D01*
X656729Y176924D01*
X656548Y176802D01*
X655995Y175976D01*
X655801Y175000D01*
X655901Y174498D01*
X655877Y174473D01*
X655578Y174027D01*
X655474Y173500D01*
Y157300D01*
X655578Y156773D01*
X655625Y156704D01*
X655395Y156148D01*
X654924Y156055D01*
X654098Y155502D01*
X653545Y154675D01*
X653450Y154200D01*
X655900D01*
Y153700D01*
X656400D01*
Y151251D01*
X656876Y151345D01*
X656933Y151383D01*
X657374Y151147D01*
Y150170D01*
X648927Y141723D01*
X648628Y141277D01*
X648524Y140750D01*
Y126700D01*
X648628Y126173D01*
X648927Y125727D01*
X653523Y121130D01*
Y93281D01*
X653083Y93045D01*
X652976Y93116D01*
X652000Y93310D01*
X651498Y93210D01*
X632089Y112619D01*
X632254Y113161D01*
X632676Y113245D01*
X633502Y113798D01*
X633787Y114224D01*
X638530D01*
X646851Y105902D01*
X646751Y105400D01*
X646945Y104425D01*
X647498Y103598D01*
X648324Y103045D01*
X649300Y102851D01*
X650276Y103045D01*
X651102Y103598D01*
X651655Y104425D01*
X651849Y105400D01*
X651655Y106376D01*
X651102Y107202D01*
X650276Y107755D01*
X649300Y107949D01*
X648798Y107849D01*
X640073Y116573D01*
X639627Y116872D01*
X639100Y116976D01*
X633787D01*
X633502Y117402D01*
X632676Y117955D01*
X631700Y118149D01*
X630724Y117955D01*
X629898Y117402D01*
X629345Y116576D01*
X629261Y116154D01*
X628719Y115989D01*
X627349Y117359D01*
X627449Y117861D01*
X627255Y118837D01*
X626702Y119664D01*
X625876Y120216D01*
X624900Y120410D01*
X623924Y120216D01*
X623717Y120078D01*
X623277Y120314D01*
Y124130D01*
X646073Y146927D01*
X646073Y146927D01*
X646372Y147373D01*
X646477Y147900D01*
Y163900D01*
X646372Y164427D01*
X646073Y164873D01*
X646073Y164873D01*
X644973Y165973D01*
X644583Y166234D01*
Y167968D01*
X634709D01*
Y162031D01*
X643723D01*
Y157968D01*
X634709D01*
Y152032D01*
X638089D01*
X638240Y151532D01*
X637898Y151302D01*
X637613Y150876D01*
X616600D01*
X616073Y150772D01*
X615627Y150473D01*
X615627Y150473D01*
X546430Y81276D01*
X310176D01*
X309985Y81738D01*
X329773Y101527D01*
X330072Y101973D01*
X330176Y102500D01*
Y173100D01*
X330176Y173100D01*
X330072Y173627D01*
X329773Y174073D01*
X326973Y176873D01*
X326527Y177172D01*
X326000Y177276D01*
X324937D01*
Y182968D01*
X315063D01*
Y181376D01*
X312100D01*
X311573Y181272D01*
X311127Y180973D01*
X311127Y180973D01*
X308238Y178085D01*
X307776Y178276D01*
Y183830D01*
X312570Y188624D01*
X315063D01*
Y187031D01*
X324937D01*
Y192968D01*
X315063D01*
Y191376D01*
X312000D01*
X312000Y191376D01*
X311473Y191272D01*
X311027Y190973D01*
X311027Y190973D01*
X306538Y186485D01*
X306077Y186676D01*
Y195430D01*
X309270Y198624D01*
X315063D01*
Y197031D01*
X324937D01*
Y202969D01*
X315063D01*
Y201376D01*
X308700D01*
X308173Y201272D01*
X307727Y200973D01*
X307727Y200973D01*
X303727Y196973D01*
X303428Y196527D01*
X303324Y196000D01*
Y170370D01*
X299530Y166576D01*
X294337D01*
X294228Y167032D01*
X294228Y167077D01*
Y172968D01*
X284354D01*
Y171376D01*
X281700D01*
X281173Y171272D01*
X280727Y170973D01*
X279302Y169549D01*
X278800Y169649D01*
X277824Y169455D01*
X276998Y168902D01*
X276445Y168076D01*
X276251Y167100D01*
X276445Y166124D01*
X276998Y165298D01*
X277824Y164745D01*
X278800Y164551D01*
X279510Y164692D01*
X279756Y164231D01*
X246001Y130476D01*
X79070D01*
X72749Y136798D01*
X72849Y137300D01*
X72655Y138276D01*
X72102Y139102D01*
X71276Y139655D01*
X70300Y139849D01*
X69324Y139655D01*
X69277Y139623D01*
X68958Y140011D01*
X93170Y164224D01*
X104548D01*
X104783Y163783D01*
X104645Y163575D01*
X104614Y163421D01*
X104520Y162969D01*
X104520Y162969D01*
X94646D01*
Y157032D01*
X104520D01*
Y158647D01*
X104927Y158728D01*
X105373Y159027D01*
X106498Y160151D01*
X107000Y160051D01*
X107975Y160245D01*
X108802Y160798D01*
X109355Y161625D01*
X109549Y162600D01*
X109355Y163575D01*
X109217Y163783D01*
X109452Y164224D01*
X141024D01*
X141551Y164328D01*
X141997Y164627D01*
X165994Y188624D01*
X284354D01*
Y187031D01*
X293524D01*
Y182968D01*
X284354D01*
Y177032D01*
X293026D01*
X293278Y176532D01*
X293163Y176376D01*
X269900D01*
X269373Y176272D01*
X268927Y175973D01*
X228830Y135876D01*
X94270D01*
X89576Y140570D01*
Y147313D01*
X90002Y147598D01*
X90555Y148424D01*
X90749Y149400D01*
X90555Y150375D01*
X90002Y151202D01*
X89175Y151755D01*
X88200Y151949D01*
X87225Y151755D01*
X86398Y151202D01*
X85845Y150375D01*
X85651Y149400D01*
X85845Y148424D01*
X86398Y147598D01*
X86824Y147313D01*
Y140000D01*
X86928Y139473D01*
X87227Y139027D01*
X92727Y133527D01*
X92727Y133527D01*
X93173Y133228D01*
X93700Y133124D01*
X229400D01*
X229927Y133228D01*
X230373Y133527D01*
X270470Y173624D01*
X294000D01*
X294527Y173728D01*
X294973Y174027D01*
X297573Y176627D01*
X297573Y176627D01*
X297872Y177073D01*
X297976Y177600D01*
X297976Y177600D01*
Y208100D01*
X297976Y208100D01*
X297872Y208627D01*
X297573Y209073D01*
X297573Y209073D01*
X295673Y210973D01*
X295227Y211272D01*
X294700Y211377D01*
X294228D01*
Y211942D01*
X298611D01*
X305727Y204827D01*
D02*
G37*
G36*
X637898Y147698D02*
X638725Y147145D01*
X639100Y147070D01*
X639245Y146592D01*
X602627Y109973D01*
X602328Y109527D01*
X602223Y109000D01*
Y81150D01*
X602328Y80623D01*
X602627Y80177D01*
X609204Y73600D01*
X609058Y73121D01*
X608724Y73055D01*
X607898Y72502D01*
X607345Y71675D01*
X607151Y70700D01*
X607345Y69725D01*
X607898Y68898D01*
X608724Y68345D01*
X609700Y68151D01*
X610202Y68251D01*
X610227Y68227D01*
X610673Y67928D01*
X611200Y67824D01*
X676173D01*
X676325Y67324D01*
X675695Y66902D01*
X675410Y66476D01*
X572722D01*
X572553Y66976D01*
X572819Y67181D01*
X573453Y68007D01*
X573851Y68968D01*
X573921Y69500D01*
X566079D01*
X566149Y68968D01*
X566547Y68007D01*
X567181Y67181D01*
X567447Y66976D01*
X567277Y66476D01*
X562722D01*
X562553Y66976D01*
X562819Y67181D01*
X563453Y68007D01*
X563851Y68968D01*
X563921Y69500D01*
X556079D01*
X556149Y68968D01*
X556547Y68007D01*
X557181Y67181D01*
X557447Y66976D01*
X557277Y66476D01*
X552723D01*
X552553Y66976D01*
X552819Y67181D01*
X553453Y68007D01*
X553851Y68968D01*
X553921Y69500D01*
X546079D01*
X546149Y68968D01*
X546547Y68007D01*
X547181Y67181D01*
X547447Y66976D01*
X547277Y66476D01*
X542723D01*
X542553Y66976D01*
X542819Y67181D01*
X543453Y68007D01*
X543851Y68968D01*
X543921Y69500D01*
X536079D01*
X536149Y68968D01*
X536547Y68007D01*
X537181Y67181D01*
X537447Y66976D01*
X537278Y66476D01*
X532723D01*
X532553Y66976D01*
X532819Y67181D01*
X533453Y68007D01*
X533851Y68968D01*
X533921Y69500D01*
X526079D01*
X526149Y68968D01*
X526547Y68007D01*
X527181Y67181D01*
X527447Y66976D01*
X527278Y66476D01*
X522722D01*
X522553Y66976D01*
X522819Y67181D01*
X523453Y68007D01*
X523851Y68968D01*
X523921Y69500D01*
X516079D01*
X516149Y68968D01*
X516547Y68007D01*
X517181Y67181D01*
X517447Y66976D01*
X517277Y66476D01*
X512722D01*
X512553Y66976D01*
X512819Y67181D01*
X513453Y68007D01*
X513851Y68968D01*
X513921Y69500D01*
X506079D01*
X506149Y68968D01*
X506547Y68007D01*
X507181Y67181D01*
X507447Y66976D01*
X507277Y66476D01*
X502723D01*
X502553Y66976D01*
X502819Y67181D01*
X503453Y68007D01*
X503851Y68968D01*
X503921Y69500D01*
X496079D01*
X496149Y68968D01*
X496547Y68007D01*
X497181Y67181D01*
X497447Y66976D01*
X497277Y66476D01*
X492723D01*
X492553Y66976D01*
X492819Y67181D01*
X493453Y68007D01*
X493851Y68968D01*
X493921Y69500D01*
X486079D01*
X486149Y68968D01*
X486547Y68007D01*
X487181Y67181D01*
X487447Y66976D01*
X487278Y66476D01*
X483953D01*
Y69500D01*
X476047D01*
Y66476D01*
X465470D01*
X463595Y68351D01*
X463851Y68968D01*
X463987Y70000D01*
X463851Y71032D01*
X463453Y71993D01*
X462819Y72819D01*
X461993Y73453D01*
X461032Y73851D01*
X460000Y73987D01*
X458968Y73851D01*
X458007Y73453D01*
X457181Y72819D01*
X456547Y71993D01*
X456292Y71376D01*
X453708D01*
X453453Y71993D01*
X452819Y72819D01*
X451993Y73453D01*
X451032Y73851D01*
X450000Y73987D01*
X448968Y73851D01*
X448007Y73453D01*
X447181Y72819D01*
X446547Y71993D01*
X446292Y71376D01*
X443708D01*
X443453Y71993D01*
X442819Y72819D01*
X441993Y73453D01*
X441032Y73851D01*
X440000Y73987D01*
X438968Y73851D01*
X438007Y73453D01*
X437181Y72819D01*
X436547Y71993D01*
X436292Y71376D01*
X433708D01*
X433453Y71993D01*
X432819Y72819D01*
X431993Y73453D01*
X431032Y73851D01*
X430000Y73987D01*
X428968Y73851D01*
X428007Y73453D01*
X427181Y72819D01*
X426547Y71993D01*
X426292Y71376D01*
X423708D01*
X423453Y71993D01*
X422819Y72819D01*
X421993Y73453D01*
X421032Y73851D01*
X420000Y73987D01*
X418968Y73851D01*
X418007Y73453D01*
X417181Y72819D01*
X416547Y71993D01*
X416292Y71376D01*
X413708D01*
X413453Y71993D01*
X412819Y72819D01*
X411993Y73453D01*
X411032Y73851D01*
X410000Y73987D01*
X408968Y73851D01*
X408007Y73453D01*
X407181Y72819D01*
X406547Y71993D01*
X406292Y71376D01*
X403708D01*
X403453Y71993D01*
X402819Y72819D01*
X401993Y73453D01*
X401032Y73851D01*
X400000Y73987D01*
X398968Y73851D01*
X398007Y73453D01*
X397181Y72819D01*
X396547Y71993D01*
X396292Y71376D01*
X393708D01*
X393453Y71993D01*
X392819Y72819D01*
X391993Y73453D01*
X391032Y73851D01*
X390000Y73987D01*
X388968Y73851D01*
X388007Y73453D01*
X387181Y72819D01*
X386547Y71993D01*
X386292Y71376D01*
X383708D01*
X383453Y71993D01*
X382819Y72819D01*
X381993Y73453D01*
X381032Y73851D01*
X380000Y73987D01*
X378968Y73851D01*
X378007Y73453D01*
X377181Y72819D01*
X376547Y71993D01*
X376292Y71376D01*
X373953D01*
Y73953D01*
X366047D01*
Y66047D01*
X373953D01*
Y68624D01*
X376292D01*
X376547Y68007D01*
X377181Y67181D01*
X378007Y66547D01*
X378968Y66149D01*
X380000Y66013D01*
X381032Y66149D01*
X381993Y66547D01*
X382819Y67181D01*
X383453Y68007D01*
X383708Y68624D01*
X386292D01*
X386547Y68007D01*
X387181Y67181D01*
X388007Y66547D01*
X388968Y66149D01*
X390000Y66013D01*
X391032Y66149D01*
X391993Y66547D01*
X392819Y67181D01*
X393453Y68007D01*
X393708Y68624D01*
X396292D01*
X396547Y68007D01*
X397181Y67181D01*
X398007Y66547D01*
X398968Y66149D01*
X400000Y66013D01*
X401032Y66149D01*
X401993Y66547D01*
X402819Y67181D01*
X403453Y68007D01*
X403708Y68624D01*
X406292D01*
X406547Y68007D01*
X407181Y67181D01*
X408007Y66547D01*
X408968Y66149D01*
X410000Y66013D01*
X411032Y66149D01*
X411993Y66547D01*
X412819Y67181D01*
X413453Y68007D01*
X413708Y68624D01*
X416292D01*
X416547Y68007D01*
X417181Y67181D01*
X418007Y66547D01*
X418968Y66149D01*
X420000Y66013D01*
X421032Y66149D01*
X421993Y66547D01*
X422819Y67181D01*
X423453Y68007D01*
X423708Y68624D01*
X426292D01*
X426547Y68007D01*
X427181Y67181D01*
X428007Y66547D01*
X428968Y66149D01*
X430000Y66013D01*
X431032Y66149D01*
X431993Y66547D01*
X432819Y67181D01*
X433453Y68007D01*
X433708Y68624D01*
X436292D01*
X436547Y68007D01*
X437181Y67181D01*
X438007Y66547D01*
X438968Y66149D01*
X440000Y66013D01*
X441032Y66149D01*
X441993Y66547D01*
X442819Y67181D01*
X443453Y68007D01*
X443708Y68624D01*
X446292D01*
X446547Y68007D01*
X447181Y67181D01*
X448007Y66547D01*
X448968Y66149D01*
X450000Y66013D01*
X451032Y66149D01*
X451993Y66547D01*
X452819Y67181D01*
X453453Y68007D01*
X453708Y68624D01*
X456292D01*
X456547Y68007D01*
X457181Y67181D01*
X458007Y66547D01*
X458968Y66149D01*
X460000Y66013D01*
X461032Y66149D01*
X461649Y66404D01*
X463927Y64127D01*
X463927Y64127D01*
X464373Y63828D01*
X464900Y63723D01*
X464900Y63724D01*
X675410D01*
X675695Y63298D01*
X676522Y62745D01*
X677497Y62551D01*
X678473Y62745D01*
X679299Y63298D01*
X679852Y64125D01*
X680046Y65100D01*
X679852Y66075D01*
X679299Y66902D01*
X678669Y67324D01*
X678821Y67824D01*
X709124D01*
X709315Y67362D01*
X702130Y60176D01*
X694087D01*
X693802Y60602D01*
X692976Y61155D01*
X692000Y61349D01*
X691024Y61155D01*
X690198Y60602D01*
X689645Y59776D01*
X689451Y58800D01*
X689645Y57824D01*
X690198Y56998D01*
X691024Y56445D01*
X692000Y56251D01*
X692976Y56445D01*
X693802Y56998D01*
X694087Y57424D01*
X701524D01*
X701715Y56962D01*
X695930Y51176D01*
X444100D01*
X443573Y51072D01*
X443127Y50773D01*
X430930Y38576D01*
X202200D01*
X202200Y38576D01*
X201673Y38472D01*
X201227Y38173D01*
X201227Y38173D01*
X192176Y29123D01*
X191212Y29522D01*
X190000Y29682D01*
X188788Y29522D01*
X187659Y29054D01*
X186776Y28377D01*
X186276Y28519D01*
Y62930D01*
X201870Y78524D01*
X547000D01*
X547527Y78628D01*
X547973Y78927D01*
X617170Y148124D01*
X637613D01*
X637898Y147698D01*
D02*
G37*
G36*
X883315Y48862D02*
X879036Y44583D01*
X877032D01*
Y34709D01*
X882969D01*
Y44583D01*
X882969Y44583D01*
X882969D01*
X883280Y44933D01*
X885895Y47549D01*
X889649D01*
X889840Y47087D01*
X889027Y46273D01*
X888728Y45827D01*
X888624Y45300D01*
Y44583D01*
X887031D01*
Y34709D01*
X892968D01*
Y44583D01*
X891936D01*
X891729Y45083D01*
X892470Y45824D01*
X899224D01*
X899415Y45362D01*
X899027Y44973D01*
X898766Y44583D01*
X897031D01*
Y34709D01*
X902969D01*
Y43624D01*
X907032D01*
Y40146D01*
X910000D01*
X912969D01*
Y43624D01*
X917031D01*
Y40146D01*
X920000D01*
X922968D01*
Y43624D01*
X927032D01*
Y40146D01*
X930000D01*
X932969D01*
Y43624D01*
X937031D01*
Y40146D01*
X940000D01*
X942968D01*
Y43624D01*
X971030D01*
X973227Y41427D01*
X973227Y41427D01*
X973673Y41128D01*
X974200Y41023D01*
X974200Y41024D01*
X981427D01*
X981579Y40524D01*
X981398Y40402D01*
X980845Y39575D01*
X980651Y38600D01*
X980751Y38098D01*
X976688Y34035D01*
X876295D01*
X876269Y34063D01*
X876073Y34535D01*
X876272Y34832D01*
X876376Y35358D01*
Y45630D01*
X880070Y49324D01*
X883124D01*
X883315Y48862D01*
D02*
G37*
%LPC*%
G36*
X62300Y464387D02*
X61268Y464251D01*
X60307Y463853D01*
X59481Y463219D01*
X58847Y462393D01*
X58449Y461432D01*
X58313Y460400D01*
X58449Y459368D01*
X58847Y458407D01*
X59481Y457581D01*
X60307Y456947D01*
X61268Y456549D01*
X62300Y456413D01*
X63332Y456549D01*
X64293Y456947D01*
X65119Y457581D01*
X65753Y458407D01*
X66151Y459368D01*
X66287Y460400D01*
X66151Y461432D01*
X65753Y462393D01*
X65119Y463219D01*
X64293Y463853D01*
X63332Y464251D01*
X62300Y464387D01*
D02*
G37*
G36*
Y454387D02*
X61268Y454251D01*
X60307Y453853D01*
X59481Y453219D01*
X58847Y452393D01*
X58449Y451432D01*
X58313Y450400D01*
X58449Y449368D01*
X58847Y448407D01*
X59481Y447581D01*
X60307Y446947D01*
X61268Y446549D01*
X62300Y446413D01*
X63332Y446549D01*
X64293Y446947D01*
X65119Y447581D01*
X65753Y448407D01*
X66151Y449368D01*
X66287Y450400D01*
X66151Y451432D01*
X65753Y452393D01*
X65119Y453219D01*
X64293Y453853D01*
X63332Y454251D01*
X62300Y454387D01*
D02*
G37*
G36*
X46221Y369900D02*
X42800D01*
Y366479D01*
X43332Y366549D01*
X44293Y366947D01*
X45119Y367581D01*
X45753Y368407D01*
X46151Y369368D01*
X46221Y369900D01*
D02*
G37*
G36*
X42800Y364321D02*
Y360900D01*
X46221D01*
X46151Y361432D01*
X45753Y362393D01*
X45119Y363219D01*
X44293Y363853D01*
X43332Y364251D01*
X42800Y364321D01*
D02*
G37*
G36*
X294228Y362968D02*
X289791D01*
Y360500D01*
X294228D01*
Y362968D01*
D02*
G37*
G36*
X288791D02*
X284354D01*
Y360500D01*
X288791D01*
Y362968D01*
D02*
G37*
G36*
X324937D02*
X320500D01*
Y360500D01*
X324937D01*
Y362968D01*
D02*
G37*
G36*
X135228D02*
X130791D01*
Y360500D01*
X135228D01*
Y362968D01*
D02*
G37*
G36*
X319500D02*
X315063D01*
Y360500D01*
X319500D01*
Y362968D01*
D02*
G37*
G36*
X129791D02*
X125354D01*
Y360500D01*
X129791D01*
Y362968D01*
D02*
G37*
G36*
X99083D02*
X94646D01*
Y360500D01*
X99083D01*
Y362968D01*
D02*
G37*
G36*
X324937Y359500D02*
X320500D01*
Y357031D01*
X324937D01*
Y359500D01*
D02*
G37*
G36*
X319500D02*
X315063D01*
Y357031D01*
X319500D01*
Y359500D01*
D02*
G37*
G36*
X294228Y359500D02*
X289791D01*
Y357031D01*
X294228D01*
Y359500D01*
D02*
G37*
G36*
X288791D02*
X284354D01*
Y357031D01*
X288791D01*
Y359500D01*
D02*
G37*
G36*
X104520Y359500D02*
X100083D01*
Y357031D01*
X104520D01*
Y359500D01*
D02*
G37*
G36*
X99083D02*
X94646D01*
Y357031D01*
X99083D01*
Y359500D01*
D02*
G37*
G36*
X369000Y354600D02*
X367051D01*
X367145Y354124D01*
X367698Y353298D01*
X368525Y352745D01*
X369000Y352650D01*
Y354600D01*
D02*
G37*
G36*
X331400Y318950D02*
Y317000D01*
X333349D01*
X333255Y317476D01*
X332702Y318302D01*
X331875Y318855D01*
X331400Y318950D01*
D02*
G37*
G36*
X330400D02*
X329925Y318855D01*
X329098Y318302D01*
X328545Y317476D01*
X328450Y317000D01*
X330400D01*
Y318950D01*
D02*
G37*
G36*
X333349Y316000D02*
X331400D01*
Y314051D01*
X331875Y314145D01*
X332702Y314698D01*
X333255Y315525D01*
X333349Y316000D01*
D02*
G37*
G36*
X330400D02*
X328450D01*
X328545Y315525D01*
X329098Y314698D01*
X329925Y314145D01*
X330400Y314051D01*
Y316000D01*
D02*
G37*
G36*
X46221Y339900D02*
X42800D01*
Y336479D01*
X43332Y336549D01*
X44293Y336947D01*
X45119Y337581D01*
X45753Y338407D01*
X46151Y339368D01*
X46221Y339900D01*
D02*
G37*
G36*
X41800D02*
X38379D01*
X38449Y339368D01*
X38847Y338407D01*
X39481Y337581D01*
X40307Y336947D01*
X41268Y336549D01*
X41800Y336479D01*
Y339900D01*
D02*
G37*
G36*
X42800Y334321D02*
Y330900D01*
X46221D01*
X46151Y331432D01*
X45753Y332393D01*
X45119Y333219D01*
X44293Y333853D01*
X43332Y334251D01*
X42800Y334321D01*
D02*
G37*
G36*
X41800D02*
X41268Y334251D01*
X40307Y333853D01*
X39481Y333219D01*
X38847Y332393D01*
X38449Y331432D01*
X38379Y330900D01*
X41800D01*
Y334321D01*
D02*
G37*
G36*
X46221Y309900D02*
X42800D01*
Y306479D01*
X43332Y306549D01*
X44293Y306947D01*
X45119Y307581D01*
X45753Y308407D01*
X46151Y309368D01*
X46221Y309900D01*
D02*
G37*
G36*
X41800D02*
X38379D01*
X38449Y309368D01*
X38847Y308407D01*
X39481Y307581D01*
X40307Y306947D01*
X41268Y306549D01*
X41800Y306479D01*
Y309900D01*
D02*
G37*
G36*
X42800Y304321D02*
Y300900D01*
X46221D01*
X46151Y301432D01*
X45753Y302393D01*
X45119Y303219D01*
X44293Y303853D01*
X43332Y304251D01*
X42800Y304321D01*
D02*
G37*
G36*
X41800D02*
X41268Y304251D01*
X40307Y303853D01*
X39481Y303219D01*
X38847Y302393D01*
X38449Y301432D01*
X38379Y300900D01*
X41800D01*
Y304321D01*
D02*
G37*
G36*
X46253Y279900D02*
X42800D01*
Y276447D01*
X46253D01*
Y279900D01*
D02*
G37*
G36*
X41800D02*
X38347D01*
Y276447D01*
X41800D01*
Y279900D01*
D02*
G37*
G36*
X1068200Y250850D02*
Y248900D01*
X1070150D01*
X1070055Y249376D01*
X1069502Y250202D01*
X1068675Y250755D01*
X1068200Y250850D01*
D02*
G37*
G36*
X1070150Y247900D02*
X1068200D01*
Y245951D01*
X1068675Y246045D01*
X1069502Y246598D01*
X1070055Y247425D01*
X1070150Y247900D01*
D02*
G37*
G36*
X1067200Y250850D02*
X1066725Y250755D01*
X1065898Y250202D01*
X1065345Y249376D01*
X1065151Y248400D01*
X1065160Y248355D01*
X1064843Y247969D01*
X1060854D01*
Y245500D01*
X1065291D01*
Y246605D01*
X1065791Y246757D01*
X1065898Y246598D01*
X1066725Y246045D01*
X1067200Y245951D01*
Y248400D01*
Y250850D01*
D02*
G37*
G36*
X1059854Y247969D02*
X1055417D01*
Y245500D01*
X1059854D01*
Y247969D01*
D02*
G37*
G36*
X1029146D02*
X1024709D01*
Y245500D01*
X1029146D01*
Y247969D01*
D02*
G37*
G36*
X1065291Y244500D02*
X1060854D01*
Y242032D01*
X1065291D01*
Y244500D01*
D02*
G37*
G36*
X1059854D02*
X1055417D01*
Y242032D01*
X1059854D01*
Y244500D01*
D02*
G37*
G36*
X1034583D02*
X1030146D01*
Y242032D01*
X1034583D01*
Y244500D01*
D02*
G37*
G36*
X1029146D02*
X1024709D01*
Y242032D01*
X1029146D01*
Y244500D01*
D02*
G37*
G36*
X963600Y68349D02*
Y66400D01*
X965549D01*
X965455Y66875D01*
X964902Y67702D01*
X964075Y68255D01*
X963600Y68349D01*
D02*
G37*
G36*
X962600D02*
X962125Y68255D01*
X961298Y67702D01*
X960745Y66875D01*
X960651Y66400D01*
X962600D01*
Y68349D01*
D02*
G37*
G36*
X942968Y69854D02*
X940500D01*
Y65417D01*
X942968D01*
Y69854D01*
D02*
G37*
G36*
X939500D02*
X937031D01*
Y65417D01*
X939500D01*
Y69854D01*
D02*
G37*
G36*
X932969D02*
X930500D01*
Y65417D01*
X932969D01*
Y69854D01*
D02*
G37*
G36*
X929500D02*
X927032D01*
Y65417D01*
X929500D01*
Y69854D01*
D02*
G37*
G36*
X922968D02*
X920500D01*
Y65417D01*
X922968D01*
Y69854D01*
D02*
G37*
G36*
X919500D02*
X917031D01*
Y65417D01*
X919500D01*
Y69854D01*
D02*
G37*
G36*
X912969D02*
X910500D01*
Y65417D01*
X912969D01*
Y69854D01*
D02*
G37*
G36*
X365500Y198049D02*
X364525Y197855D01*
X363698Y197302D01*
X363145Y196476D01*
X362951Y195500D01*
X363051Y194998D01*
X342327Y174273D01*
X342028Y173827D01*
X341923Y173300D01*
Y166800D01*
X342028Y166273D01*
X342327Y165827D01*
X345027Y163127D01*
X345027Y163127D01*
X345473Y162828D01*
X346000Y162724D01*
X346000Y162724D01*
X348113D01*
X348398Y162298D01*
X349224Y161745D01*
X350200Y161551D01*
X350702Y161651D01*
X354924Y157430D01*
Y125987D01*
X354498Y125702D01*
X353945Y124875D01*
X353751Y123900D01*
X353945Y122924D01*
X354498Y122098D01*
X355325Y121545D01*
X356300Y121351D01*
X357276Y121545D01*
X358102Y122098D01*
X358655Y122924D01*
X358849Y123900D01*
X358655Y124875D01*
X358102Y125702D01*
X357677Y125987D01*
Y158000D01*
X357572Y158527D01*
X357273Y158973D01*
X352649Y163598D01*
X352749Y164100D01*
X352555Y165076D01*
X352002Y165902D01*
X351175Y166455D01*
X350200Y166649D01*
X349224Y166455D01*
X348398Y165902D01*
X348113Y165476D01*
X346600D01*
X346299Y165848D01*
X346473Y166285D01*
X347275Y166445D01*
X348102Y166998D01*
X348387Y167424D01*
X474113D01*
X474398Y166998D01*
X475224Y166445D01*
X476200Y166251D01*
X477176Y166445D01*
X478002Y166998D01*
X478555Y167824D01*
X478749Y168800D01*
X478555Y169775D01*
X478002Y170602D01*
X477176Y171155D01*
X476200Y171349D01*
X475224Y171155D01*
X474398Y170602D01*
X474113Y170176D01*
X348387D01*
X348102Y170602D01*
X347275Y171155D01*
X346300Y171349D01*
X345324Y171155D01*
X345117Y171017D01*
X344676Y171252D01*
Y172730D01*
X364998Y193051D01*
X365500Y192951D01*
X366476Y193145D01*
X367302Y193698D01*
X367855Y194525D01*
X368049Y195500D01*
X367855Y196476D01*
X367302Y197302D01*
X366476Y197855D01*
X365500Y198049D01*
D02*
G37*
G36*
X259000Y175950D02*
Y174000D01*
X260949D01*
X260855Y174476D01*
X260302Y175302D01*
X259475Y175855D01*
X259000Y175950D01*
D02*
G37*
G36*
X258000D02*
X257524Y175855D01*
X256698Y175302D01*
X256145Y174476D01*
X256050Y174000D01*
X258000D01*
Y175950D01*
D02*
G37*
G36*
X260949Y173000D02*
X259000D01*
Y171051D01*
X259475Y171145D01*
X260302Y171698D01*
X260855Y172524D01*
X260949Y173000D01*
D02*
G37*
G36*
X258000D02*
X256050D01*
X256145Y172524D01*
X256698Y171698D01*
X257524Y171145D01*
X258000Y171051D01*
Y173000D01*
D02*
G37*
G36*
X135228Y162969D02*
X125354D01*
Y161376D01*
X112500D01*
X111973Y161272D01*
X111527Y160973D01*
X111527Y160973D01*
X107502Y156949D01*
X107000Y157049D01*
X106025Y156855D01*
X105198Y156302D01*
X104645Y155475D01*
X104451Y154500D01*
X104645Y153524D01*
X104745Y153375D01*
X104415Y152969D01*
X104084Y152969D01*
X100083D01*
Y150500D01*
X104520D01*
Y152500D01*
X104520Y152812D01*
X105020Y152964D01*
X105198Y152698D01*
X106025Y152145D01*
X107000Y151951D01*
X107975Y152145D01*
X108802Y152698D01*
X109355Y153524D01*
X109549Y154500D01*
X109449Y155002D01*
X113070Y158624D01*
X125354D01*
Y157032D01*
X135228D01*
Y162969D01*
D02*
G37*
G36*
X559200Y158150D02*
Y156200D01*
X561150D01*
X561055Y156676D01*
X560502Y157502D01*
X559676Y158055D01*
X559200Y158150D01*
D02*
G37*
G36*
X558200D02*
X557725Y158055D01*
X556898Y157502D01*
X556345Y156676D01*
X556250Y156200D01*
X558200D01*
Y158150D01*
D02*
G37*
G36*
X561150Y155200D02*
X559200D01*
Y153251D01*
X559676Y153345D01*
X560502Y153898D01*
X561055Y154725D01*
X561150Y155200D01*
D02*
G37*
G36*
X558200D02*
X556250D01*
X556345Y154725D01*
X556898Y153898D01*
X557725Y153345D01*
X558200Y153251D01*
Y155200D01*
D02*
G37*
G36*
X655400Y153200D02*
X653450D01*
X653545Y152725D01*
X654098Y151898D01*
X654924Y151345D01*
X655400Y151251D01*
Y153200D01*
D02*
G37*
G36*
X484937Y154346D02*
X475063D01*
Y150786D01*
X448933D01*
X448648Y151212D01*
X447821Y151764D01*
X446846Y151958D01*
X445870Y151764D01*
X445043Y151212D01*
X444491Y150385D01*
X444297Y149409D01*
X444491Y148434D01*
X445043Y147607D01*
X445870Y147054D01*
X446846Y146860D01*
X447821Y147054D01*
X448648Y147607D01*
X448933Y148033D01*
X475063D01*
Y144472D01*
X484937D01*
Y154346D01*
D02*
G37*
G36*
X135228Y152969D02*
X130791D01*
Y150500D01*
X135228D01*
Y152969D01*
D02*
G37*
G36*
X129791D02*
X125354D01*
Y150500D01*
X129791D01*
Y152969D01*
D02*
G37*
G36*
X99083D02*
X94646D01*
Y150500D01*
X99083D01*
Y152969D01*
D02*
G37*
G36*
X135228Y149500D02*
X130791D01*
Y147031D01*
X135228D01*
Y149500D01*
D02*
G37*
G36*
X129791D02*
X125354D01*
Y147031D01*
X129791D01*
Y149500D01*
D02*
G37*
G36*
X104520D02*
X100083D01*
Y147031D01*
X104520D01*
Y149500D01*
D02*
G37*
G36*
X99083D02*
X94646D01*
Y147031D01*
X99083D01*
Y149500D01*
D02*
G37*
G36*
X135228Y142968D02*
X130791D01*
Y140500D01*
X135228D01*
Y142968D01*
D02*
G37*
G36*
X104520D02*
X100083D01*
Y140500D01*
X104520D01*
Y142968D01*
D02*
G37*
G36*
X129791D02*
X125354D01*
Y140500D01*
X129791D01*
Y142968D01*
D02*
G37*
G36*
X99083D02*
X94646D01*
Y140500D01*
X99083D01*
Y142968D01*
D02*
G37*
G36*
X135228Y139500D02*
X130791D01*
Y137031D01*
X135228D01*
Y139500D01*
D02*
G37*
G36*
X129791D02*
X125354D01*
Y137031D01*
X129791D01*
Y139500D01*
D02*
G37*
G36*
X104520D02*
X100083D01*
Y137031D01*
X104520D01*
Y139500D01*
D02*
G37*
G36*
X99083D02*
X94646D01*
Y137031D01*
X99083D01*
Y139500D01*
D02*
G37*
G36*
X455028Y104937D02*
X445154D01*
Y95063D01*
X455028D01*
Y104937D01*
D02*
G37*
G36*
X408909Y104980D02*
X407621Y104810D01*
X406420Y104313D01*
X405388Y103521D01*
X404597Y102490D01*
X404100Y101289D01*
X403930Y100000D01*
X404100Y98711D01*
X404597Y97510D01*
X405388Y96479D01*
X406420Y95688D01*
X407621Y95190D01*
X408909Y95020D01*
X410198Y95190D01*
X411399Y95688D01*
X412430Y96479D01*
X413222Y97510D01*
X413719Y98711D01*
X413889Y100000D01*
X413719Y101289D01*
X413222Y102490D01*
X412430Y103521D01*
X411399Y104313D01*
X410198Y104810D01*
X408909Y104980D01*
D02*
G37*
G36*
X570500Y73921D02*
Y70500D01*
X573921D01*
X573851Y71032D01*
X573453Y71993D01*
X572819Y72819D01*
X571993Y73453D01*
X571032Y73851D01*
X570500Y73921D01*
D02*
G37*
G36*
X569500D02*
X568968Y73851D01*
X568007Y73453D01*
X567181Y72819D01*
X566547Y71993D01*
X566149Y71032D01*
X566079Y70500D01*
X569500D01*
Y73921D01*
D02*
G37*
G36*
X560500D02*
Y70500D01*
X563921D01*
X563851Y71032D01*
X563453Y71993D01*
X562819Y72819D01*
X561993Y73453D01*
X561032Y73851D01*
X560500Y73921D01*
D02*
G37*
G36*
X559500D02*
X558968Y73851D01*
X558007Y73453D01*
X557181Y72819D01*
X556547Y71993D01*
X556149Y71032D01*
X556079Y70500D01*
X559500D01*
Y73921D01*
D02*
G37*
G36*
X550500D02*
Y70500D01*
X553921D01*
X553851Y71032D01*
X553453Y71993D01*
X552819Y72819D01*
X551993Y73453D01*
X551032Y73851D01*
X550500Y73921D01*
D02*
G37*
G36*
X549500D02*
X548968Y73851D01*
X548007Y73453D01*
X547181Y72819D01*
X546547Y71993D01*
X546149Y71032D01*
X546079Y70500D01*
X549500D01*
Y73921D01*
D02*
G37*
G36*
X540500D02*
Y70500D01*
X543921D01*
X543851Y71032D01*
X543453Y71993D01*
X542819Y72819D01*
X541993Y73453D01*
X541032Y73851D01*
X540500Y73921D01*
D02*
G37*
G36*
X539500D02*
X538968Y73851D01*
X538007Y73453D01*
X537181Y72819D01*
X536547Y71993D01*
X536149Y71032D01*
X536079Y70500D01*
X539500D01*
Y73921D01*
D02*
G37*
G36*
X530500D02*
Y70500D01*
X533921D01*
X533851Y71032D01*
X533453Y71993D01*
X532819Y72819D01*
X531993Y73453D01*
X531032Y73851D01*
X530500Y73921D01*
D02*
G37*
G36*
X529500D02*
X528968Y73851D01*
X528007Y73453D01*
X527181Y72819D01*
X526547Y71993D01*
X526149Y71032D01*
X526079Y70500D01*
X529500D01*
Y73921D01*
D02*
G37*
G36*
X520500D02*
Y70500D01*
X523921D01*
X523851Y71032D01*
X523453Y71993D01*
X522819Y72819D01*
X521993Y73453D01*
X521032Y73851D01*
X520500Y73921D01*
D02*
G37*
G36*
X519500D02*
X518968Y73851D01*
X518007Y73453D01*
X517181Y72819D01*
X516547Y71993D01*
X516149Y71032D01*
X516079Y70500D01*
X519500D01*
Y73921D01*
D02*
G37*
G36*
X510500D02*
Y70500D01*
X513921D01*
X513851Y71032D01*
X513453Y71993D01*
X512819Y72819D01*
X511993Y73453D01*
X511032Y73851D01*
X510500Y73921D01*
D02*
G37*
G36*
X509500D02*
X508968Y73851D01*
X508007Y73453D01*
X507181Y72819D01*
X506547Y71993D01*
X506149Y71032D01*
X506079Y70500D01*
X509500D01*
Y73921D01*
D02*
G37*
G36*
X500500D02*
Y70500D01*
X503921D01*
X503851Y71032D01*
X503453Y71993D01*
X502819Y72819D01*
X501993Y73453D01*
X501032Y73851D01*
X500500Y73921D01*
D02*
G37*
G36*
X499500D02*
X498968Y73851D01*
X498007Y73453D01*
X497181Y72819D01*
X496547Y71993D01*
X496149Y71032D01*
X496079Y70500D01*
X499500D01*
Y73921D01*
D02*
G37*
G36*
X490500D02*
Y70500D01*
X493921D01*
X493851Y71032D01*
X493453Y71993D01*
X492819Y72819D01*
X491993Y73453D01*
X491032Y73851D01*
X490500Y73921D01*
D02*
G37*
G36*
X489500D02*
X488968Y73851D01*
X488007Y73453D01*
X487181Y72819D01*
X486547Y71993D01*
X486149Y71032D01*
X486079Y70500D01*
X489500D01*
Y73921D01*
D02*
G37*
G36*
X483953Y73953D02*
X480500D01*
Y70500D01*
X483953D01*
Y73953D01*
D02*
G37*
G36*
X479500D02*
X476047D01*
Y70500D01*
X479500D01*
Y73953D01*
D02*
G37*
G36*
X963600Y41150D02*
Y39200D01*
X965549D01*
X965455Y39676D01*
X964902Y40502D01*
X964075Y41055D01*
X963600Y41150D01*
D02*
G37*
G36*
X962600D02*
X962125Y41055D01*
X961298Y40502D01*
X960745Y39676D01*
X960651Y39200D01*
X962600D01*
Y41150D01*
D02*
G37*
G36*
X965549Y38200D02*
X963600D01*
Y36250D01*
X964075Y36345D01*
X964902Y36898D01*
X965455Y37725D01*
X965549Y38200D01*
D02*
G37*
G36*
X962600D02*
X960651D01*
X960745Y37725D01*
X961298Y36898D01*
X962125Y36345D01*
X962600Y36250D01*
Y38200D01*
D02*
G37*
G36*
X942968Y39146D02*
X940500D01*
Y34709D01*
X942968D01*
Y39146D01*
D02*
G37*
G36*
X939500D02*
X937031D01*
Y34709D01*
X939500D01*
Y39146D01*
D02*
G37*
G36*
X932969D02*
X930500D01*
Y34709D01*
X932969D01*
Y39146D01*
D02*
G37*
G36*
X929500D02*
X927032D01*
Y34709D01*
X929500D01*
Y39146D01*
D02*
G37*
G36*
X922968D02*
X920500D01*
Y34709D01*
X922968D01*
Y39146D01*
D02*
G37*
G36*
X919500D02*
X917031D01*
Y34709D01*
X919500D01*
Y39146D01*
D02*
G37*
G36*
X912969D02*
X910500D01*
Y34709D01*
X912969D01*
Y39146D01*
D02*
G37*
G36*
X909500D02*
X907032D01*
Y34709D01*
X909500D01*
Y39146D01*
D02*
G37*
%LPD*%
D12*
X830000Y226500D02*
D03*
Y233500D02*
D03*
X930000Y226500D02*
D03*
Y233500D02*
D03*
X890000Y226500D02*
D03*
Y233500D02*
D03*
X810000Y273500D02*
D03*
Y266500D02*
D03*
X870000Y226500D02*
D03*
Y233500D02*
D03*
X850000Y226500D02*
D03*
Y233500D02*
D03*
X810000Y226500D02*
D03*
Y233500D02*
D03*
X790000Y226500D02*
D03*
Y233500D02*
D03*
X930000Y273500D02*
D03*
Y266500D02*
D03*
X910000Y273500D02*
D03*
Y266500D02*
D03*
Y226500D02*
D03*
Y233500D02*
D03*
X890000Y273500D02*
D03*
Y266500D02*
D03*
X870000Y273500D02*
D03*
Y266500D02*
D03*
X850000Y273500D02*
D03*
Y266500D02*
D03*
X830000Y273500D02*
D03*
Y266500D02*
D03*
X790000Y273500D02*
D03*
Y266500D02*
D03*
D17*
Y70354D02*
D03*
X770000D02*
D03*
X760000D02*
D03*
X750000D02*
D03*
X780000D02*
D03*
X830000D02*
D03*
X800000D02*
D03*
X810000D02*
D03*
X820000D02*
D03*
X840000D02*
D03*
X880000D02*
D03*
X850000D02*
D03*
X860000D02*
D03*
X870000D02*
D03*
X890000D02*
D03*
X930000D02*
D03*
X900000D02*
D03*
X910000D02*
D03*
X920000D02*
D03*
X940000D02*
D03*
Y39646D02*
D03*
X920000D02*
D03*
X910000D02*
D03*
X900000D02*
D03*
X930000D02*
D03*
X890000D02*
D03*
X870000D02*
D03*
X860000D02*
D03*
X850000D02*
D03*
X880000D02*
D03*
X840000D02*
D03*
X820000D02*
D03*
X810000D02*
D03*
X800000D02*
D03*
X830000D02*
D03*
X780000D02*
D03*
X750000D02*
D03*
X760000D02*
D03*
X770000D02*
D03*
X790000D02*
D03*
X900000Y429646D02*
D03*
X920000D02*
D03*
X930000D02*
D03*
X940000D02*
D03*
X910000D02*
D03*
X860000D02*
D03*
X890000D02*
D03*
X880000D02*
D03*
X870000D02*
D03*
X850000D02*
D03*
X810000D02*
D03*
X840000D02*
D03*
X830000D02*
D03*
X820000D02*
D03*
X800000D02*
D03*
X760000D02*
D03*
X790000D02*
D03*
X780000D02*
D03*
X770000D02*
D03*
X750000D02*
D03*
Y460354D02*
D03*
X770000D02*
D03*
X780000D02*
D03*
X790000D02*
D03*
X760000D02*
D03*
X800000D02*
D03*
X820000D02*
D03*
X830000D02*
D03*
X840000D02*
D03*
X810000D02*
D03*
X850000D02*
D03*
X870000D02*
D03*
X880000D02*
D03*
X890000D02*
D03*
X860000D02*
D03*
X910000D02*
D03*
X940000D02*
D03*
X930000D02*
D03*
X920000D02*
D03*
X900000D02*
D03*
D18*
X130291Y140000D02*
D03*
Y150000D02*
D03*
X99583Y210000D02*
D03*
Y190000D02*
D03*
Y180000D02*
D03*
Y170000D02*
D03*
Y200000D02*
D03*
Y250000D02*
D03*
Y220000D02*
D03*
Y230000D02*
D03*
Y240000D02*
D03*
Y260000D02*
D03*
Y300000D02*
D03*
Y270000D02*
D03*
Y280000D02*
D03*
Y290000D02*
D03*
Y310000D02*
D03*
Y350000D02*
D03*
Y320000D02*
D03*
Y330000D02*
D03*
Y340000D02*
D03*
Y360000D02*
D03*
X130291D02*
D03*
Y340000D02*
D03*
Y330000D02*
D03*
Y320000D02*
D03*
Y350000D02*
D03*
Y310000D02*
D03*
Y290000D02*
D03*
Y280000D02*
D03*
Y270000D02*
D03*
Y300000D02*
D03*
Y260000D02*
D03*
Y240000D02*
D03*
Y230000D02*
D03*
Y220000D02*
D03*
Y250000D02*
D03*
Y200000D02*
D03*
Y170000D02*
D03*
Y180000D02*
D03*
Y190000D02*
D03*
Y210000D02*
D03*
X289291D02*
D03*
Y190000D02*
D03*
Y180000D02*
D03*
Y170000D02*
D03*
Y200000D02*
D03*
Y250000D02*
D03*
Y220000D02*
D03*
Y230000D02*
D03*
Y240000D02*
D03*
Y260000D02*
D03*
Y300000D02*
D03*
Y270000D02*
D03*
Y280000D02*
D03*
Y290000D02*
D03*
Y310000D02*
D03*
Y350000D02*
D03*
Y320000D02*
D03*
Y330000D02*
D03*
Y340000D02*
D03*
Y360000D02*
D03*
X320000D02*
D03*
Y340000D02*
D03*
Y330000D02*
D03*
Y320000D02*
D03*
Y350000D02*
D03*
Y310000D02*
D03*
Y290000D02*
D03*
Y280000D02*
D03*
Y270000D02*
D03*
Y300000D02*
D03*
Y260000D02*
D03*
Y240000D02*
D03*
Y230000D02*
D03*
Y220000D02*
D03*
Y250000D02*
D03*
Y200000D02*
D03*
Y170000D02*
D03*
Y180000D02*
D03*
Y190000D02*
D03*
Y210000D02*
D03*
X130291Y160000D02*
D03*
X99583Y140000D02*
D03*
Y150000D02*
D03*
Y160000D02*
D03*
X320000D02*
D03*
Y150000D02*
D03*
Y140000D02*
D03*
X289291D02*
D03*
Y150000D02*
D03*
Y160000D02*
D03*
X1060354Y305000D02*
D03*
Y325000D02*
D03*
Y335000D02*
D03*
Y345000D02*
D03*
Y315000D02*
D03*
Y265000D02*
D03*
Y295000D02*
D03*
Y285000D02*
D03*
Y275000D02*
D03*
Y255000D02*
D03*
Y215000D02*
D03*
Y245000D02*
D03*
Y235000D02*
D03*
Y225000D02*
D03*
Y205000D02*
D03*
Y165000D02*
D03*
Y195000D02*
D03*
Y185000D02*
D03*
Y175000D02*
D03*
Y155000D02*
D03*
X1029646D02*
D03*
Y175000D02*
D03*
Y185000D02*
D03*
Y195000D02*
D03*
Y165000D02*
D03*
Y205000D02*
D03*
Y225000D02*
D03*
Y235000D02*
D03*
Y245000D02*
D03*
Y215000D02*
D03*
Y255000D02*
D03*
Y275000D02*
D03*
Y285000D02*
D03*
Y295000D02*
D03*
Y265000D02*
D03*
Y315000D02*
D03*
Y345000D02*
D03*
Y335000D02*
D03*
Y325000D02*
D03*
Y305000D02*
D03*
X639646Y195000D02*
D03*
Y175000D02*
D03*
Y165000D02*
D03*
Y155000D02*
D03*
Y185000D02*
D03*
Y235000D02*
D03*
Y205000D02*
D03*
Y215000D02*
D03*
Y225000D02*
D03*
Y245000D02*
D03*
Y285000D02*
D03*
Y255000D02*
D03*
Y265000D02*
D03*
Y275000D02*
D03*
Y295000D02*
D03*
Y335000D02*
D03*
Y305000D02*
D03*
Y315000D02*
D03*
Y325000D02*
D03*
Y345000D02*
D03*
X670354D02*
D03*
Y325000D02*
D03*
Y315000D02*
D03*
Y305000D02*
D03*
Y335000D02*
D03*
Y295000D02*
D03*
Y275000D02*
D03*
Y265000D02*
D03*
Y255000D02*
D03*
Y285000D02*
D03*
Y245000D02*
D03*
Y225000D02*
D03*
Y215000D02*
D03*
Y205000D02*
D03*
Y235000D02*
D03*
Y185000D02*
D03*
Y155000D02*
D03*
Y165000D02*
D03*
Y175000D02*
D03*
Y195000D02*
D03*
D22*
X282400Y148700D02*
X283700Y150000D01*
X282400Y102800D02*
Y148700D01*
X280000Y100400D02*
X282400Y102800D01*
X287700Y130500D02*
X289291Y132091D01*
X287700Y103500D02*
Y130500D01*
Y103500D02*
X289100Y102100D01*
X870000Y274100D02*
X875200Y279300D01*
X870000Y273500D02*
Y274100D01*
X959800Y151200D02*
X1037950D01*
X702200Y374800D02*
X743000Y334000D01*
X701041Y375959D02*
X702200Y374800D01*
X700200Y376800D02*
X701041Y375959D01*
X814800Y334000D02*
X870200D01*
X743000D02*
X814800D01*
X145000Y220000D02*
X165400D01*
X130291D02*
X145000D01*
X468158Y334200D02*
X474550D01*
X464391D02*
X468158D01*
X474549Y340591D01*
X450091Y316132D02*
X468158Y334200D01*
X450091Y316132D02*
Y319900D01*
X659872Y390200D02*
X668422Y398750D01*
X659772Y390100D02*
X659872Y390200D01*
X940000Y70400D02*
X979385D01*
X940000Y38700D02*
X963100D01*
X324300Y360000D02*
X326900D01*
X83500D02*
X85700D01*
X1058400Y221900D02*
Y225000D01*
X760000Y36200D02*
X762200D01*
X738400Y80500D02*
X825500D01*
X797700Y68400D02*
X800000D01*
X746000Y68143D02*
X750000D01*
X670400Y345000D02*
Y350500D01*
X814350Y222650D02*
X818900Y218100D01*
X639600Y345000D02*
Y381200D01*
X635400Y265000D02*
Y268700D01*
X642600Y148000D02*
Y155000D01*
X910000Y457800D02*
X913900D01*
X766633Y458400D02*
X770000D01*
X757260Y461700D02*
X760000D01*
X744500Y460300D02*
X750000D01*
X741300Y425800D02*
X750000D01*
X928300Y283600D02*
X930300Y281600D01*
X934000Y229500D02*
X937900Y225600D01*
X930000Y233500D02*
X934000Y229500D01*
X917100Y217600D02*
X922000Y222500D01*
X910100Y210600D02*
X917100Y217600D01*
X657000Y420000D02*
Y422900D01*
Y393100D02*
Y420000D01*
X667100D01*
X372700D02*
X657000D01*
X720200Y128100D02*
X721500Y129400D01*
X543500Y286000D02*
Y315200D01*
X528800Y300700D02*
Y319800D01*
Y281100D02*
Y300700D01*
X543500Y286000D01*
X524000Y305500D02*
X528800Y300700D01*
X1056000Y165000D02*
X1060354D01*
X1055000Y158000D02*
X1056000Y165000D01*
X1044100Y147100D02*
X1055000Y158000D01*
X1034750Y147100D02*
X1044100D01*
X969950Y82300D02*
X1034750Y147100D01*
X965900Y82300D02*
X969950D01*
X956300Y91900D02*
X965900Y82300D01*
X907338Y91900D02*
X956300D01*
X904013Y88575D02*
X907338Y91900D01*
X854625Y88575D02*
X904013D01*
X850300Y92900D02*
X854625Y88575D01*
X839600Y92900D02*
X850300D01*
X829300Y82600D02*
X839600Y92900D01*
X803900Y82600D02*
X829300D01*
X802008Y84492D02*
X803900Y82600D01*
X731192Y84492D02*
X802008D01*
X696500Y49800D02*
X731192Y84492D01*
X444100Y49800D02*
X696500D01*
X431500Y37200D02*
X444100Y49800D01*
X202200Y37200D02*
X431500D01*
X190000Y25000D02*
X202200Y37200D01*
X971400Y185800D02*
X1001800D01*
X1007200Y191200D01*
X1065700D01*
Y204000D01*
X1060354Y205000D02*
X1065700Y204000D01*
X124900Y210000D02*
X130291D01*
X120004Y205104D02*
X124900Y210000D01*
X42300Y64800D02*
X50003Y72503D01*
Y193103D01*
X57200Y200300D01*
X65600D01*
X95300Y230000D01*
X99583D01*
Y160000D02*
X104400D01*
X107000Y162600D01*
X130291Y190000D02*
X147200D01*
X126100Y180000D02*
X130291D01*
X122900Y176800D02*
X126100Y180000D01*
X99583D02*
X114300D01*
X91200Y170000D02*
X99583D01*
X72000Y150800D02*
X91200Y170000D01*
X58800Y150800D02*
X72000D01*
X54597Y146597D02*
X58800Y150800D01*
X54597Y42997D02*
Y146597D01*
X51900Y40300D02*
X54597Y42997D01*
X38000Y40300D02*
X51900D01*
X23200Y55100D02*
X38000Y40300D01*
X23200Y55100D02*
Y448300D01*
X29800Y454900D01*
X47800D01*
X62300Y440400D01*
X80200Y350000D02*
X99583D01*
X69600Y310000D02*
X99583D01*
X64700Y314900D02*
X69600Y310000D01*
X38100Y314900D02*
X64700D01*
X29300Y306100D02*
X38100Y314900D01*
X82427Y330000D02*
X99583D01*
X67527Y344900D02*
X82427Y330000D01*
X35100Y344900D02*
X67527D01*
X24900Y334700D02*
X35100Y344900D01*
X24900Y192200D02*
Y334700D01*
Y192200D02*
X42300Y174800D01*
X62300Y390400D02*
X189400D01*
X233200Y346600D01*
X294200D01*
X297600Y350000D01*
X320000D01*
X62300Y400400D02*
X198700D01*
X249100Y350000D01*
X289291D01*
X312200Y260000D02*
X320000D01*
X42300Y410400D02*
X46700Y414800D01*
X253500D01*
X271100Y397200D01*
Y250000D02*
X289291D01*
X174000Y340000D02*
X289291D01*
X158000Y356000D02*
X174000Y340000D01*
X111900Y356000D02*
X158000D01*
X87500Y380400D02*
X111900Y356000D01*
X62300Y380400D02*
X87500D01*
X42300Y390400D02*
X46800Y394900D01*
X178100D01*
X245130Y243900D02*
X249030Y240000D01*
X289291D01*
X42300Y430400D02*
X46700Y434800D01*
X283400D01*
X307100Y411100D01*
X289291Y260000D02*
X307100D01*
X194200Y220000D02*
X289291D01*
X180800Y233400D02*
X194200Y220000D01*
X125000Y233400D02*
X180800D01*
X105000Y213400D02*
X125000Y233400D01*
X83783Y213400D02*
X105000D01*
X304958Y210000D02*
X320000D01*
X299940Y215019D02*
X304958Y210000D01*
X173181Y215019D02*
X299940D01*
X164800Y223400D02*
X173181Y215019D01*
X122400Y223400D02*
X164800D01*
X102400Y203400D02*
X122400Y223400D01*
X82300Y203400D02*
X102400D01*
X88200Y140000D02*
Y149400D01*
Y140000D02*
X93700Y134500D01*
X229400D01*
X269900Y175000D01*
X294000D01*
X296600Y177600D01*
Y208100D01*
X294700Y210000D02*
X296600Y208100D01*
X289291Y210000D02*
X294700D01*
X62300Y125300D02*
X245900D01*
X284000Y163400D01*
X301800D01*
X306400Y168000D01*
Y184400D01*
X312000Y190000D01*
X320000D01*
X289291Y180000D02*
X294000D01*
X294900Y180900D01*
Y193000D01*
X293900Y194000D02*
X294900Y193000D01*
X277700Y194000D02*
X293900D01*
X276375Y192675D02*
X277700Y194000D01*
X154516Y192675D02*
X276375D01*
X135741Y173900D02*
X154516Y192675D01*
X112604Y173900D02*
X135741D01*
X320000Y170000D02*
X324300D01*
X325400Y168900D01*
Y133000D02*
Y168900D01*
X290300Y97900D02*
X325400Y133000D01*
X74900Y97900D02*
X290300D01*
X62300Y85300D02*
X74900Y97900D01*
X281700Y170000D02*
X289291D01*
X278800Y167100D02*
X281700Y170000D01*
X247600Y102600D02*
X278800Y133800D01*
X69600Y102600D02*
X247600D01*
X62300Y95300D02*
X69600Y102600D01*
X315700Y160000D02*
X320000D01*
X314600Y161100D02*
X315700Y160000D01*
X314600Y161100D02*
Y173300D01*
X325900Y173500D01*
X327100Y172300D01*
Y106500D02*
Y172300D01*
X304100Y83500D02*
X327100Y106500D01*
X80500Y83500D02*
X304100D01*
X62300Y65300D02*
X80500Y83500D01*
X320000Y220000D02*
X324300D01*
X325300Y221000D01*
Y233100D01*
X324000Y234400D02*
X325300Y233100D01*
X280600Y234400D02*
X324000D01*
X242400Y196200D02*
X248200Y202000D01*
X73200Y196200D02*
X242400D01*
X62300Y185300D02*
X73200Y196200D01*
X84400Y270000D02*
X99583D01*
X46603Y232203D02*
X84400Y270000D01*
X46603Y99103D02*
Y232203D01*
X42300Y94800D02*
X46603Y99103D01*
X91600Y345800D02*
X146700D01*
X154500Y338000D01*
X275100D01*
X277500Y335600D01*
X296600D01*
X304400Y343400D01*
X325300D01*
Y317000D02*
Y343400D01*
X324100Y315800D02*
X325300Y317000D01*
X312700Y315800D02*
X324100D01*
X311300Y317200D02*
X312700Y315800D01*
X298000Y317200D02*
X311300D01*
X295200Y320000D02*
X298000Y317200D01*
X289291Y320000D02*
X295200D01*
X37800Y384900D02*
X42300Y380400D01*
X37800Y384900D02*
Y403000D01*
X40000Y405200D01*
X246800D01*
X275100Y376900D01*
X296100Y244000D02*
X300100Y240000D01*
X320000D01*
X77200Y300000D02*
X99583D01*
X72100Y294900D02*
X77200Y300000D01*
X36900Y294900D02*
X72100D01*
X33900Y297900D02*
X36900Y294900D01*
X142008Y290000D02*
X289291D01*
X283000Y310000D02*
X289291D01*
X280000Y313000D02*
X283000Y310000D01*
X138500Y313000D02*
X280000D01*
X170800Y280000D02*
X289291D01*
X292100Y129300D02*
X302800Y140000D01*
X320000D01*
X130291Y310000D02*
X278900D01*
X282300Y306600D01*
X381500D01*
X702200Y374800D02*
X765000D01*
X732300Y177900D02*
X733685Y176515D01*
X1005300Y316700D02*
X1007300Y318700D01*
X975600Y316700D02*
X1005300D01*
X966500Y307600D02*
X975600Y316700D01*
X841200Y307600D02*
X966500D01*
X814800Y334000D02*
X841200Y307600D01*
X883100Y155000D02*
X897300D01*
X1037950Y151200D02*
X1040500Y153750D01*
X730300Y177900D02*
X732300D01*
X733685Y176515D02*
X742427D01*
X743512Y177600D01*
X795200D01*
X99583Y280000D02*
X103700D01*
X108700Y275000D01*
X136300D01*
X142400Y268900D01*
X175700D01*
X183400Y276600D01*
X328500D01*
X165400Y220000D02*
X172081Y213319D01*
X299181D01*
X306700Y205800D01*
X368400D01*
X385100Y189100D01*
X976600Y229000D02*
X992600Y245000D01*
X1041600Y304900D02*
Y312200D01*
Y304900D02*
X1044100Y302400D01*
X686826Y336000D02*
X693300D01*
X770600Y126800D02*
X797100D01*
X887100Y17500D02*
X887900Y18300D01*
X862350Y17500D02*
X887100D01*
X861550Y18300D02*
X862350Y17500D01*
X700200Y18300D02*
X861550D01*
X685600Y32900D02*
X700200Y18300D01*
X691657Y33800D02*
X704657Y20800D01*
X861700D01*
X863250Y19250D01*
X868950D01*
X871700Y22000D01*
X909400D01*
X865642Y22558D02*
X866100Y22100D01*
X707342Y22558D02*
X865642D01*
X697600Y32300D02*
X707342Y22558D01*
X827047Y56714D02*
X830000Y59667D01*
X787429Y56714D02*
X827047D01*
X785315Y54600D02*
X787429Y56714D01*
X772114Y54600D02*
X785315D01*
X767914Y58800D02*
X772114Y54600D01*
X764000Y58800D02*
X767914D01*
X759550Y54350D02*
X764000Y58800D01*
X753500Y54350D02*
X759550D01*
X749050Y58800D02*
X753500Y54350D01*
X743300Y58800D02*
X749050D01*
X739500Y55000D02*
X743300Y58800D01*
X723350Y55000D02*
X739500D01*
X717050Y48700D02*
X723350Y55000D01*
X717050Y46000D02*
Y48700D01*
X713050Y42000D02*
X717050Y46000D01*
X703631Y42000D02*
X713050D01*
X888400Y96400D02*
X978900D01*
X980600Y98100D01*
Y102900D01*
X976600Y106900D02*
X980600Y102900D01*
X963800Y99900D02*
X970700Y106800D01*
X893500Y99900D02*
X963800D01*
X891150Y102250D02*
X893500Y99900D01*
X826450Y102250D02*
X891150D01*
X822500Y98300D02*
X826450Y102250D01*
X897800Y115900D02*
X970700D01*
X889600Y107700D02*
X897800Y115900D01*
X834500Y107700D02*
X889600D01*
X830100Y112100D02*
X834500Y107700D01*
X827100Y112100D02*
X830100D01*
X813300Y98300D02*
X827100Y112100D01*
X968700Y85200D02*
Y89200D01*
X964200Y93700D02*
X968700Y89200D01*
X905100Y93700D02*
X964200D01*
X903400Y92000D02*
X905100Y93700D01*
X855225Y92000D02*
X903400D01*
X850375Y96850D02*
X855225Y92000D01*
X842000Y96850D02*
X850375D01*
X840000Y98850D02*
X842000Y96850D01*
X832919Y98850D02*
X840000D01*
X824069Y90000D02*
X832919Y98850D01*
X811200Y90000D02*
X824069D01*
X808500Y87300D02*
X811200Y90000D01*
X788600Y89800D02*
X790600Y91800D01*
X821404D01*
X830154Y100550D01*
X841900D01*
X843050Y99400D01*
X891200D01*
X892400Y98200D01*
X976400D01*
X977600Y99400D01*
X977258Y32658D02*
X983200Y38600D01*
X872350Y32658D02*
X977258D01*
X870592Y30900D02*
X872350Y32658D01*
X818242Y30900D02*
X870592D01*
X816742Y29400D02*
X818242Y30900D01*
X812600Y29400D02*
X816742D01*
X809342Y32658D02*
X812600Y29400D01*
X778342Y32658D02*
X809342D01*
X775000Y36000D02*
X778342Y32658D01*
X775000Y36000D02*
Y46800D01*
X765900Y55900D02*
X775000Y46800D01*
X841050Y367550D02*
X842600Y366000D01*
X833750Y367550D02*
X841050D01*
X830800Y370500D02*
X833750Y367550D01*
X814500Y370500D02*
X830800D01*
X813000Y372000D02*
X814500Y370500D01*
X797975Y488575D02*
X803350Y483200D01*
X809600D01*
X814050Y487650D01*
X829015D01*
X834200Y482465D01*
X840120D01*
X842355Y484700D01*
X974550D01*
X993750Y465500D01*
X1000500Y465327D02*
Y467900D01*
X997073Y461900D02*
X1000500Y465327D01*
X978973Y461900D02*
X997073D01*
X957973Y482900D02*
X978973Y461900D01*
X843955Y482900D02*
X957973D01*
X841820Y480765D02*
X843955Y482900D01*
X832500Y480765D02*
X841820D01*
X828465Y484800D02*
X832500Y480765D01*
X815900Y484800D02*
X828465D01*
X805500Y486112D02*
X808738Y489350D01*
X1021750D01*
X1071200Y439900D01*
Y426100D02*
Y439900D01*
X1068800Y423700D02*
X1071200Y426100D01*
X1031045Y423700D02*
X1068800D01*
X1009945Y444800D02*
X1031045Y423700D01*
X986600Y444800D02*
X1009945D01*
X913100Y442200D02*
X916100Y439200D01*
X972314D01*
X985114Y452000D01*
X1001300D01*
X926404Y453896D02*
X936400Y443900D01*
X926404Y453896D02*
Y466396D01*
X918550Y474250D02*
X926404Y466396D01*
X893400Y474250D02*
X918550D01*
X890950Y471800D02*
X893400Y474250D01*
X819300Y471800D02*
X890950D01*
X815000Y476100D02*
X819300Y471800D01*
X794100Y476100D02*
X815000D01*
X791000Y479200D02*
X794100Y476100D01*
X767550Y479200D02*
X791000D01*
X755750Y467400D02*
X767550Y479200D01*
X746324Y467400D02*
X755750D01*
X744981Y466057D02*
X746324Y467400D01*
X724100Y466057D02*
X744981D01*
X887400Y444100D02*
X896500Y435000D01*
X903400D01*
Y421500D02*
Y435000D01*
X899458Y417558D02*
X903400Y421500D01*
X755342Y417558D02*
X899458D01*
X751400Y421500D02*
X755342Y417558D01*
X746700Y421500D02*
X751400D01*
X743300Y418100D02*
X746700Y421500D01*
X743300Y416100D02*
Y418100D01*
X730100Y431500D02*
X740250Y441650D01*
X773399D01*
X775549Y443800D01*
X860900D01*
X861100Y443600D01*
X735500Y451667D02*
X913733D01*
X921200Y444200D01*
X951400Y452500D02*
Y459500D01*
X934950Y475950D02*
X951400Y459500D01*
X891248Y475950D02*
X934950D01*
X888948Y473650D02*
X891248Y475950D01*
X820796Y473650D02*
X888948D01*
X816584Y477862D02*
X820796Y473650D01*
X796467Y477862D02*
X816584D01*
X793350Y480978D02*
X796467Y477862D01*
X766828Y480978D02*
X793350D01*
X755850Y470000D02*
X766828Y480978D01*
X727900Y470000D02*
X755850D01*
X399100Y339500D02*
X408909Y329691D01*
Y240000D02*
Y329691D01*
X918500Y388300D02*
X920650Y390450D01*
X966361D01*
X976611Y380200D01*
X1052800D01*
X976550Y45750D02*
X994900Y64100D01*
X1008300D01*
X1012196Y67996D01*
X1021496D01*
X1045500Y92000D01*
X450091Y240000D02*
X481191Y208900D01*
X631000D01*
X714900Y304600D02*
X766100Y253400D01*
X1060354Y245000D02*
X1076700D01*
X1081700Y240000D01*
Y158900D02*
Y240000D01*
X1059700Y136900D02*
X1081700Y158900D01*
X1046100Y136900D02*
X1059700D01*
X1041200Y132000D02*
X1046100Y136900D01*
X1041200Y125623D02*
Y132000D01*
X1028727Y113150D02*
X1041200Y125623D01*
X1022135Y113150D02*
X1028727D01*
X979385Y70400D02*
X1022135Y113150D01*
X940000Y70354D02*
Y70400D01*
Y65900D02*
Y70354D01*
Y65900D02*
X963100D01*
X940000Y38700D02*
Y39646D01*
X78300Y365200D02*
X83500Y360000D01*
X47100Y365200D02*
X78300D01*
X42300Y360400D02*
X47100Y365200D01*
X977550Y357200D02*
X1023000D01*
X954241Y380509D02*
X977550Y357200D01*
X710945Y380509D02*
X954241D01*
X701254Y390200D02*
X710945Y380509D01*
X659872Y390200D02*
X701254D01*
X655237Y390100D02*
X659772D01*
X655034Y390303D02*
X655237Y390100D01*
X1048251Y255000D02*
X1060354D01*
X1034933Y268319D02*
X1048251Y255000D01*
X1024300Y268319D02*
X1034933D01*
X1013281Y257300D02*
X1024300Y268319D01*
X977500Y257300D02*
X1013281D01*
X966500Y246300D02*
X977500Y257300D01*
X978700Y313300D02*
X1015200D01*
X1017100Y311400D01*
X1032200D01*
X1035100Y308500D01*
Y295579D02*
Y308500D01*
Y295579D02*
X1039879Y290800D01*
X1062900D01*
X1065800Y287900D01*
Y266100D02*
Y287900D01*
X1064700Y265000D02*
X1065800Y266100D01*
X1060354Y265000D02*
X1064700D01*
X1046400Y275000D02*
X1060354D01*
X1041700Y279700D02*
X1046400Y275000D01*
X1022900Y279700D02*
X1041700D01*
X1010900Y291700D02*
X1022900Y279700D01*
X1010900Y291700D02*
Y300700D01*
X1009200Y302400D02*
X1010900Y300700D01*
X1003600Y302400D02*
X1009200D01*
X1001100Y299900D02*
X1003600Y302400D01*
X1001100Y272600D02*
Y299900D01*
X989500Y261000D02*
X1001100Y272600D01*
X975700Y261000D02*
X989500D01*
X962200Y247500D02*
X975700Y261000D01*
X949300Y247500D02*
X962200D01*
X946700Y250100D02*
X949300Y247500D01*
X946700Y250100D02*
Y255987D01*
X944000Y314800D02*
X950750Y321550D01*
X1008581D01*
X1010231Y319900D01*
X1034081D01*
X1035500Y318481D01*
Y313800D02*
Y318481D01*
Y313800D02*
X1036829Y312471D01*
Y297521D02*
Y312471D01*
Y297521D02*
X1039350Y295000D01*
X1060354D01*
X1056000Y305000D02*
X1060354D01*
X1052000Y309000D02*
X1056000Y305000D01*
X1052000Y309000D02*
Y314400D01*
X1036200Y330200D02*
X1052000Y314400D01*
X957633Y330200D02*
X1036200D01*
X994600Y338800D02*
X1036000D01*
X1040000Y334800D01*
Y329200D02*
Y334800D01*
Y329200D02*
X1054200Y315000D01*
X1060354D01*
X978200Y342200D02*
X1023800D01*
X1024500Y341500D01*
X1048100D01*
X1052100Y337500D01*
Y326000D02*
Y337500D01*
Y326000D02*
X1053100Y325000D01*
X1060354D01*
X981100Y385462D02*
X1051938D01*
X1065700Y371700D01*
Y336000D02*
Y371700D01*
X1064700Y335000D02*
X1065700Y336000D01*
X1060354Y335000D02*
X1064700D01*
X750000Y39646D02*
Y49700D01*
X749500Y50200D02*
X750000Y49700D01*
X759100Y280300D02*
X765300Y286500D01*
X981700D01*
X760000Y36200D02*
Y39646D01*
X762200Y36200D02*
X767500Y30900D01*
X807677D01*
X810918Y27658D01*
X820050D01*
X821246Y28855D01*
X871946D01*
X873992Y30900D01*
X997200D01*
X1022400Y56100D01*
X1031100D01*
X1034400Y52800D01*
X1088500D01*
X1094700Y59000D01*
Y245700D01*
X1082000Y258400D02*
X1094700Y245700D01*
X1049319Y258400D02*
X1082000D01*
X1037619Y270100D02*
X1049319Y258400D01*
X1018600Y270100D02*
X1037619D01*
X1008100Y280600D02*
X1018600Y270100D01*
X1008100Y280600D02*
Y293074D01*
X1004100Y297074D02*
X1008100Y293074D01*
X770000Y39646D02*
Y45100D01*
X768000Y47100D02*
X770000Y45100D01*
X758000Y47100D02*
X768000D01*
X755500Y44600D02*
X758000Y47100D01*
X755500Y32700D02*
Y44600D01*
X690400Y415600D02*
X695650Y410350D01*
X736550D01*
X741650Y405250D01*
X1022150D01*
X1024900Y408000D01*
X946150Y89350D02*
X946500Y89000D01*
X908950Y89350D02*
X946150D01*
X904000Y84400D02*
X908950Y89350D01*
X854250Y84400D02*
X904000D01*
X847500Y91150D02*
X854250Y84400D01*
X841137Y91150D02*
X847500D01*
X833900Y83913D02*
X841137Y91150D01*
X833900Y59100D02*
Y83913D01*
X829600Y54800D02*
X833900Y59100D01*
X788915Y54800D02*
X829600D01*
X780000Y45885D02*
X788915Y54800D01*
X780000Y39646D02*
Y45885D01*
X906700Y60500D02*
Y62500D01*
X904400Y58200D02*
X906700Y60500D01*
X878858Y58200D02*
X904400D01*
X863400Y42742D02*
X878858Y58200D01*
X863400Y34500D02*
Y42742D01*
X863258Y34358D02*
X863400Y34500D01*
X827242Y34358D02*
X863258D01*
X826411Y35189D02*
X827242Y34358D01*
X826411Y35189D02*
Y41089D01*
X822500Y45000D02*
X826411Y41089D01*
X791000Y45000D02*
X822500D01*
X790000Y44000D02*
X791000Y45000D01*
X790000Y39646D02*
Y44000D01*
X912200Y84900D02*
Y86500D01*
X910000Y82700D02*
X912200Y84900D01*
X852250Y82700D02*
X910000D01*
X845500Y89450D02*
X852250Y82700D01*
X842700Y89450D02*
X845500D01*
X838300Y85050D02*
X842700Y89450D01*
X838300Y77700D02*
Y85050D01*
X836500Y75900D02*
X838300Y77700D01*
X836500Y54860D02*
Y75900D01*
X831540Y49900D02*
X836500Y54860D01*
X792000Y49900D02*
X831540D01*
X786600Y44500D02*
X792000Y49900D01*
X786600Y34358D02*
Y44500D01*
Y34358D02*
X799000D01*
X800000Y39646D01*
X979150Y76950D02*
X1030200Y128000D01*
X964450Y76950D02*
X979150D01*
X960600Y80800D02*
X964450Y76950D01*
X957008Y80800D02*
X960600D01*
X955508Y79300D02*
X957008Y80800D01*
X878200Y79300D02*
X955508D01*
X873400Y74500D02*
X878200Y79300D01*
X873400Y61450D02*
Y74500D01*
X871950Y60000D02*
X873400Y61450D01*
X848400Y60000D02*
X871950D01*
X840000Y51600D02*
X848400Y60000D01*
X840000Y39646D02*
Y51600D01*
X1005300Y87600D02*
X1010300D01*
X976200Y58500D02*
X1005300Y87600D01*
X915300Y58500D02*
X976200D01*
X850000Y39646D02*
Y55898D01*
X1029528Y121758D02*
X1036970Y129200D01*
X1027528Y121758D02*
X1029528D01*
X979920Y74150D02*
X1027528Y121758D01*
X955508Y74150D02*
X979920D01*
X953858Y75800D02*
X955508Y74150D01*
X906200Y75800D02*
X953858D01*
X906200Y67700D02*
Y75800D01*
X903800Y65300D02*
X906200Y67700D01*
X903800Y62000D02*
Y65300D01*
X901850Y60050D02*
X903800Y62000D01*
X877301Y60050D02*
X901850D01*
X863206Y45955D02*
X877301Y60050D01*
X860000Y43955D02*
X863206Y45955D01*
X860000Y39646D02*
Y43955D01*
X870000Y39646D02*
Y44021D01*
X878479Y52500D01*
X902400D01*
X912600Y62700D01*
X977996D01*
X1026746Y111450D01*
X1032450D01*
X1035700Y114700D01*
X1030600Y102200D02*
Y108600D01*
X1012850Y84450D02*
X1030600Y102200D01*
X1005087Y84450D02*
X1012850D01*
X969562Y48925D02*
X1005087Y84450D01*
X885325Y48925D02*
X969562D01*
X880000Y43600D02*
X885325Y48925D01*
X880000Y39646D02*
Y43600D01*
X1046100Y103755D02*
Y128000D01*
X1012041Y69696D02*
X1046100Y103755D01*
X999296Y69696D02*
X1012041D01*
X995600Y66000D02*
X999296Y69696D01*
X991946Y66000D02*
X995600D01*
X973146Y47200D02*
X991946Y66000D01*
X891900Y47200D02*
X973146D01*
X890000Y45300D02*
X891900Y47200D01*
X890000Y39646D02*
Y45300D01*
Y64900D02*
Y70354D01*
X888000Y62900D02*
X890000Y64900D01*
X885429Y62900D02*
X888000D01*
X857600Y115700D02*
X859200Y114100D01*
X776500Y115700D02*
X857600D01*
X758500Y111100D02*
Y116600D01*
Y111100D02*
X774600Y95000D01*
X815550D01*
X818900Y98350D01*
Y100000D01*
X822900Y104000D01*
X897800D01*
X899000Y102800D01*
X895000Y66900D02*
X899000Y62900D01*
X895000Y66900D02*
Y74700D01*
X894000Y75700D02*
X895000Y74700D01*
X881000Y75700D02*
X894000D01*
X880000Y74700D02*
X881000Y75700D01*
X880000Y70354D02*
Y74700D01*
X870000Y62900D02*
Y70354D01*
X840500Y202600D02*
X841600Y201500D01*
X755900Y202600D02*
X840500D01*
X754200Y204300D02*
X755900Y202600D01*
X860000Y66400D02*
Y70354D01*
X856500Y62900D02*
X860000Y66400D01*
X764950Y196635D02*
X849000D01*
X764785Y196800D02*
X764950Y196635D01*
X713600Y196800D02*
X764785D01*
X710900Y199500D02*
X713600Y196800D01*
X736700Y260300D02*
X758500Y238500D01*
X758700Y190100D02*
X828400D01*
X843000Y175500D01*
X840000Y82500D02*
X844100Y86600D01*
X840000Y70354D02*
Y82500D01*
X747100Y257549D02*
X761600Y243049D01*
X759200Y179400D02*
X761600Y181800D01*
X740700Y179400D02*
X759200D01*
X738400Y80500D02*
Y81600D01*
X825500Y80500D02*
X830000Y76000D01*
Y70354D02*
Y76000D01*
X729900Y72750D02*
X732150Y75000D01*
X738258D01*
X738958Y75700D01*
X819000D01*
X820000Y74700D01*
Y70354D02*
Y74700D01*
X810000Y67100D02*
Y70354D01*
Y67100D02*
X813000Y64100D01*
X822000D01*
X823500Y65600D01*
Y75200D01*
X820700Y78000D02*
X823500Y75200D01*
X732300Y78000D02*
X820700D01*
X800000Y68400D02*
Y70354D01*
X792700Y63400D02*
X797700Y68400D01*
X787315Y63400D02*
X792700D01*
X782029Y58114D02*
X787315Y63400D01*
X774886Y58114D02*
X782029D01*
X770200Y62800D02*
X774886Y58114D01*
X760348Y62800D02*
X770200D01*
X759000Y61452D02*
X760348Y62800D01*
X757324Y233000D02*
X767400D01*
X752002Y233898D02*
X757324Y233000D01*
X750900Y235000D02*
X752002Y233898D01*
X780000Y66700D02*
Y70354D01*
X776300Y63000D02*
X780000Y66700D01*
X774300Y63000D02*
X776300D01*
X771200Y219400D02*
Y221400D01*
X755770Y221850D02*
X771200Y221400D01*
X751000Y226620D02*
X755770Y221850D01*
X739600Y212100D02*
X746700D01*
X739200Y211700D02*
X739600Y212100D01*
X735200Y71500D02*
X736500D01*
X742933Y65067D01*
X753319D01*
Y68000D01*
X755673Y70354D01*
X760000D01*
X670354Y165000D02*
X674400D01*
X677500Y161900D01*
Y98802D02*
Y161900D01*
X666398Y87700D02*
X677500Y98802D01*
X664600Y185000D02*
X670354D01*
X662900Y186700D02*
X664600Y185000D01*
X661500Y165700D02*
X662800Y164400D01*
Y108300D02*
Y164400D01*
X661300Y106800D02*
X662800Y108300D01*
X649519Y205000D02*
X670354D01*
X646119Y201600D02*
X649519Y205000D01*
X625300Y201600D02*
X646119D01*
X625000Y201900D02*
X625300Y201600D01*
X624900Y117861D02*
X652000Y90761D01*
X663900Y225000D02*
X670354D01*
X659000Y220100D02*
X663900Y225000D01*
X628000Y220100D02*
X659000D01*
X631700Y115600D02*
X639100D01*
X649300Y105400D01*
X655933Y235000D02*
X670354D01*
X650933Y240000D02*
X655933Y235000D01*
X650933Y240000D02*
Y251700D01*
X644033Y258600D02*
X650933Y251700D01*
X634800Y258600D02*
X644033D01*
X629300Y264100D02*
X634800Y258600D01*
X629300Y264100D02*
Y276200D01*
X632000Y278900D01*
X641700D01*
X646700Y283900D01*
Y354500D01*
X656000Y363800D01*
X663600D01*
X663000Y256000D02*
Y258400D01*
Y256000D02*
X670354Y255000D01*
X664000Y265000D02*
X670354D01*
X651550Y277450D02*
X664000Y265000D01*
X651550Y277450D02*
Y351350D01*
X661100Y360900D01*
X664800D01*
X667900Y364000D01*
X665200Y366700D02*
X667900Y364000D01*
X658000Y366700D02*
X665200D01*
X664000Y275000D02*
X670354D01*
X658350Y280650D02*
X664000Y275000D01*
X658350Y280650D02*
Y312050D01*
X654950Y315450D02*
X658350Y312050D01*
X654950Y315450D02*
Y325500D01*
X660500Y331050D01*
Y357250D01*
X662300Y359050D01*
X668650D01*
X669700Y360100D01*
Y367900D01*
X665500Y372100D02*
X669700Y367900D01*
X659000Y372100D02*
X665500D01*
X670354Y285000D02*
X674300D01*
X676248Y283052D01*
Y273048D02*
Y283052D01*
X674000Y270800D02*
X676248Y273048D01*
X662000Y270800D02*
X674000D01*
X656600Y276200D02*
X662000Y270800D01*
X656600Y276200D02*
Y310500D01*
X653250Y313850D02*
X656600Y310500D01*
X653250Y313850D02*
Y329250D01*
X657600Y333600D01*
X650484Y385700D02*
X669100D01*
X674300Y380500D01*
Y355018D02*
Y380500D01*
Y355018D02*
X678100Y351218D01*
Y308400D02*
Y351218D01*
X674700Y305000D02*
X678100Y308400D01*
X670354Y305000D02*
X674700D01*
X662900Y315000D02*
X670354D01*
X688042Y320700D02*
X782750Y225992D01*
Y219250D02*
Y225992D01*
Y219250D02*
X785500Y216500D01*
X790900D01*
X670354Y325000D02*
Y327154D01*
X675642Y332442D01*
Y349758D01*
X672000Y353400D02*
X675642Y349758D01*
X665800Y353400D02*
X672000D01*
X680400Y368000D02*
X681950Y366450D01*
X692050D01*
X730800Y327700D01*
X727600Y165700D02*
Y166400D01*
Y165700D02*
X732000Y161300D01*
X783400D01*
X810600Y134100D01*
X798000Y170100D02*
X810800Y157300D01*
X702781Y170100D02*
X798000D01*
X701281Y171600D02*
X702781Y170100D01*
X660000Y321182D02*
X665000Y326182D01*
Y334000D01*
X670354Y335000D01*
X816900Y218100D02*
X818900D01*
X786150Y222650D02*
X814350D01*
X786150D02*
Y227946D01*
X784400Y229696D02*
X786150Y227946D01*
X784400Y229696D02*
Y245638D01*
X769207Y260831D02*
X784400Y245638D01*
X765469Y260831D02*
X769207D01*
X733800Y292500D02*
X765469Y260831D01*
X733800Y292500D02*
Y330865D01*
X728769Y335896D02*
X733800Y330865D01*
X725465Y335896D02*
X728769D01*
X688961Y372400D02*
X725465Y335896D01*
X679900Y372400D02*
X688961D01*
X678200Y374100D02*
X679900Y372400D01*
X678200Y374100D02*
Y378500D01*
X680200Y380500D01*
Y385700D01*
X678400Y387500D02*
X680200Y385700D01*
X654437Y387500D02*
X678400D01*
X653334Y388603D02*
X654437Y387500D01*
X647003Y388603D02*
X653334D01*
X639600Y381200D02*
X647003Y388603D01*
X639600Y345000D02*
X639646D01*
X816132Y185268D02*
X822600Y178800D01*
X745764Y185268D02*
X816132D01*
X739431Y191600D02*
X745764Y185268D01*
X596800Y191600D02*
X739431D01*
X596300Y192100D02*
X596800Y191600D01*
X596300Y335000D02*
X639646D01*
X713400Y140300D02*
X791600D01*
X674900Y178800D02*
X713400Y140300D01*
X600200Y178800D02*
X674900D01*
X600200Y292200D02*
X633000Y325000D01*
X639646D01*
X635100Y315000D02*
X639646D01*
X614000Y293900D02*
X635100Y315000D01*
X614000Y216100D02*
Y293900D01*
Y216100D02*
X616800Y213300D01*
X632400D01*
X637300Y208400D01*
X676500D01*
X682000Y202900D01*
X738000D01*
X741400Y199500D01*
X826000D01*
X882000Y209500D02*
Y217650D01*
X880400Y219250D02*
X882000Y217650D01*
X848950Y219250D02*
X880400D01*
X841630Y211930D02*
X848950Y219250D01*
X809941Y211930D02*
X841630D01*
X808220Y213650D02*
X809941Y211930D01*
X784950Y213650D02*
X808220D01*
X781000Y217600D02*
X784950Y213650D01*
X781000Y217600D02*
Y224801D01*
X769706Y236095D02*
X781000Y224801D01*
X761797Y236095D02*
X769706D01*
X761300Y235598D02*
X761797Y236095D01*
X756652Y235598D02*
X761300D01*
X753750Y238500D02*
X756652Y235598D01*
X662946Y238500D02*
X753750D01*
X657446Y244000D02*
X662946Y238500D01*
X657446Y244000D02*
Y262154D01*
X644600Y275000D02*
X657446Y262154D01*
X639646Y275000D02*
X644600D01*
X824100Y136800D02*
X871700D01*
X816700Y129400D02*
X824100Y136800D01*
X803100Y129400D02*
X816700D01*
X800200Y132300D02*
X803100Y129400D01*
X775145Y132300D02*
X800200D01*
X771169Y136276D02*
X775145Y132300D01*
X719805Y136276D02*
X771169D01*
X666369Y82840D02*
X719805Y136276D01*
X659440Y82840D02*
X666369D01*
X657750Y81150D02*
X659440Y82840D01*
X652050Y81150D02*
X657750D01*
X635200Y98000D02*
X652050Y81150D01*
X633600Y98000D02*
X635200D01*
X632300Y271800D02*
X635400Y268700D01*
Y265000D02*
X639646D01*
Y255000D02*
X643933D01*
X644933Y254000D01*
Y238167D02*
Y254000D01*
Y238167D02*
X651500Y231600D01*
X734400D01*
X736100Y229900D01*
X751979D01*
X757621Y224258D01*
X771067D01*
X783425Y211900D01*
X805500D01*
X807200Y210200D01*
X868100D01*
X872500Y214600D01*
X622700Y245000D02*
X639646D01*
X618700Y249000D02*
X622700Y245000D01*
X633300Y87200D02*
X642800Y77700D01*
X674800D01*
X721050Y123950D01*
X863750D01*
X878609Y138809D01*
Y157767D01*
X878742Y157900D01*
X899900D01*
X901398Y156402D01*
X878800Y216000D02*
Y216400D01*
X871300Y208500D02*
X878800Y216000D01*
X805500Y208500D02*
X871300D01*
X804000Y210000D02*
X805500Y208500D01*
X782600Y210000D02*
X804000D01*
X776200Y216400D02*
X782600Y210000D01*
X752600Y216400D02*
X776200D01*
X745400Y223600D02*
X752600Y216400D01*
X729400Y223600D02*
X745400D01*
X724500Y228500D02*
X729400Y223600D01*
X648100Y228500D02*
X724500D01*
X641600Y235000D02*
X648100Y228500D01*
X639646Y235000D02*
X641600D01*
X683600Y76000D02*
X685000Y77400D01*
X637300Y76000D02*
X683600D01*
X636600Y76700D02*
X637300Y76000D01*
X626000Y225000D02*
X639646D01*
X686000Y204900D02*
X742600D01*
X680800Y210100D02*
X686000Y204900D01*
X650500Y210100D02*
X680800D01*
X645600Y215000D02*
X650500Y210100D01*
X639646Y215000D02*
X645600D01*
X712447Y46052D02*
X714195Y47800D01*
X618652Y46052D02*
X712447D01*
X616900Y44300D02*
X618652Y46052D01*
X617500Y205000D02*
X639646D01*
Y185000D02*
X654900D01*
X659500Y189600D01*
X675419D01*
X708619Y156400D01*
X746300D01*
X753524Y134576D02*
X755200Y132900D01*
X746581Y134576D02*
X753524D01*
X744906Y132900D02*
X746581Y134576D01*
X720000Y132900D02*
X744906D01*
X667700Y80600D02*
X720000Y132900D01*
X660600Y80600D02*
X667700D01*
X659450Y79450D02*
X660600Y80600D01*
X650350Y79450D02*
X659450D01*
X649200Y80600D02*
X650350Y79450D01*
X645887Y80600D02*
X649200D01*
X621900Y104587D02*
X645887Y80600D01*
X621900Y104587D02*
Y124700D01*
X645100Y147900D01*
Y163900D01*
X644000Y165000D02*
X645100Y163900D01*
X639646Y165000D02*
X644000D01*
X1008000Y73300D02*
Y76500D01*
X1043100Y111600D01*
Y130750D01*
X1045200Y132850D01*
X1070500D01*
X1014965Y451100D02*
X1024200D01*
X1007815Y458250D02*
X1014965Y451100D01*
X980712Y458250D02*
X1007815D01*
X969112Y446650D02*
X980712Y458250D01*
X950117Y446650D02*
X969112D01*
X940000Y456767D02*
X950117Y446650D01*
X940000Y456767D02*
Y460354D01*
X910000Y457800D02*
Y460354D01*
X913900Y457800D02*
X924200Y447500D01*
Y442800D02*
Y447500D01*
X922600Y441200D02*
X924200Y442800D01*
X920050Y441200D02*
X922600D01*
X916050Y445200D02*
X920050Y441200D01*
X905900Y445200D02*
X916050D01*
X904800Y444100D02*
X905900Y445200D01*
X904800Y444100D02*
X911800Y437100D01*
X946100D01*
X953600Y429600D01*
X1014620D01*
X1085500Y358720D01*
Y354500D02*
Y358720D01*
X900000Y460354D02*
X902154D01*
X910600Y468800D01*
Y470800D01*
X890000Y460354D02*
Y467650D01*
X894900Y472550D01*
X899050D01*
X902100Y469500D01*
X903000D01*
X1052096Y66296D02*
X1091800Y106000D01*
X1013196Y66296D02*
X1052096D01*
X1006300Y59400D02*
X1013196Y66296D01*
X994700Y59400D02*
X1006300D01*
X992200Y53550D02*
X1003600D01*
X1014646Y64596D01*
X1088700D01*
X896200Y457267D02*
Y469700D01*
X893933Y455000D02*
X896200Y457267D01*
X883400Y455000D02*
X893933D01*
X880000Y458400D02*
X883400Y455000D01*
X880000Y458400D02*
Y460354D01*
X870000D02*
Y465000D01*
X873800Y468800D01*
X887200D01*
X1037107Y56100D02*
X1087700D01*
X1030807Y62400D02*
X1037107Y56100D01*
X1017700Y62400D02*
X1030807D01*
X1003300Y48000D02*
X1017700Y62400D01*
X931900Y372700D02*
X938000Y366600D01*
X879500Y372700D02*
X931900D01*
X861300Y390900D02*
X863400Y388800D01*
X811000Y390900D02*
X861300D01*
X801800Y437100D02*
X803400Y435500D01*
Y424358D02*
Y435500D01*
X776000Y424358D02*
X803400D01*
X774500Y425858D02*
X776000Y424358D01*
X774500Y425858D02*
Y437000D01*
X768100Y467800D02*
X770600D01*
X773400Y465000D01*
Y458367D02*
Y465000D01*
Y458367D02*
X776700Y455067D01*
X836611D01*
X837611Y456067D01*
X840000D01*
Y460354D01*
X830000D02*
Y465800D01*
X827638Y468162D02*
X830000Y465800D01*
X811538Y468162D02*
X827638D01*
X805650Y474050D02*
X811538Y468162D01*
X791178Y474050D02*
X805650D01*
X789364Y475864D02*
X791178Y474050D01*
X781400Y349300D02*
X822500D01*
X824750Y347050D01*
X835850D01*
X836400Y347600D01*
X930080D01*
X933280Y350800D01*
X929820Y369500D02*
X932720Y366600D01*
X854050Y369500D02*
X929820D01*
X846000Y361450D02*
X854050Y369500D01*
X840050Y361450D02*
X846000D01*
X837350Y364150D02*
X840050Y361450D01*
X828650Y364150D02*
X837350D01*
X827000Y365800D02*
X828650Y364150D01*
X810100Y365800D02*
X827000D01*
X806400Y369500D02*
X810100Y365800D01*
X785600Y369500D02*
X806400D01*
X783600Y371500D02*
X785600Y369500D01*
X781700Y472350D02*
X804946D01*
X810996Y466300D01*
X818100D01*
X820000Y464400D01*
Y460354D02*
Y464400D01*
X810000Y460354D02*
Y464700D01*
X808000D02*
X810000D01*
X805500Y467200D02*
X808000Y464700D01*
X818100Y373500D02*
X830500D01*
X834750Y369250D01*
X842900D01*
X849700Y376050D01*
X936850D01*
X941000Y371900D01*
Y364800D02*
Y371900D01*
X928200Y352000D02*
X941000Y364800D01*
X770000Y458400D02*
Y460354D01*
X763300Y455067D02*
X766633Y458400D01*
X742833Y455067D02*
X763300D01*
X739500Y458400D02*
X742833Y455067D01*
X711700Y458400D02*
X739500D01*
X704900Y380800D02*
Y381900D01*
Y380800D02*
X708000Y377700D01*
X782400D01*
X787500Y372600D01*
X806570D01*
X811570Y367600D01*
X829750D01*
X831500Y365850D01*
X838300D01*
X841000Y363150D01*
X844000D01*
X845450Y364600D01*
Y368600D01*
X850050Y373200D01*
X851398D01*
X760000Y460354D02*
Y461700D01*
X753319Y465642D02*
X757260Y461700D01*
X747342Y465642D02*
X753319D01*
X744900Y463200D02*
X747342Y465642D01*
X685700Y463200D02*
X744900D01*
X679000Y456500D02*
X685700Y463200D01*
X679000Y410100D02*
Y456500D01*
Y410100D02*
X682200Y406900D01*
X712700D01*
X716000Y403600D01*
X757200Y357500D02*
X759200Y359500D01*
X780900D01*
X789300Y351100D01*
X825350D01*
X827700Y348750D01*
X834150D01*
X836400Y351000D01*
X844939D01*
X868500Y411500D02*
Y414700D01*
X867400Y415800D02*
X868500Y414700D01*
X752300Y415800D02*
X867400D01*
X749500Y418600D02*
X752300Y415800D01*
X750000Y460300D02*
Y460354D01*
X832300Y342900D02*
X858800D01*
X832150Y343050D02*
X832300Y342900D01*
X759250Y343050D02*
X832150D01*
X754200Y348100D02*
X759250Y343050D01*
X754200Y348100D02*
Y369500D01*
X756500Y371800D01*
X735900Y421500D02*
X737000D01*
X741300Y425800D01*
X750000D02*
Y429646D01*
X760000D02*
Y436000D01*
X761100Y437100D01*
X757600Y386800D02*
X804700D01*
X805100Y377200D02*
X806300Y378400D01*
X834200D01*
X838300Y374300D01*
X770000Y429646D02*
Y435900D01*
X765950Y439950D02*
X770000Y435900D01*
X743650Y439950D02*
X765950D01*
X732200Y428500D02*
X743650Y439950D01*
X711400Y428500D02*
X732200D01*
X703500Y420600D02*
X711400Y428500D01*
X745000Y353700D02*
X758000Y340700D01*
X828800D01*
X829300Y340200D01*
X826100Y356800D02*
X831300Y351600D01*
X806400Y356800D02*
X826100D01*
X786400Y440900D02*
X793800D01*
X780000Y434500D02*
X786400Y440900D01*
X780000Y429646D02*
Y434500D01*
X807150Y441700D02*
X809650Y439200D01*
X798950Y441700D02*
X807150D01*
X791550Y434300D02*
X798950Y441700D01*
X790000Y434300D02*
X791550D01*
X790000Y429646D02*
Y434300D01*
X800000Y429646D02*
Y434233D01*
X798900Y435333D02*
X800000Y434233D01*
X798900Y435333D02*
Y438850D01*
X800000Y439950D01*
X804650D01*
X808855Y435745D01*
X810693D01*
X814881Y439933D01*
X823167D01*
X820000Y429646D02*
Y435000D01*
X818000Y437000D02*
X820000Y435000D01*
X816500Y437000D02*
X818000D01*
X837000Y485400D02*
X838000Y486400D01*
X975521D01*
X977121Y484800D01*
X1002900D01*
X1003500Y462600D01*
X1002000Y461100D02*
X1003500Y462600D01*
X974700Y437400D02*
X1008000D01*
X972000Y434700D02*
X974700Y437400D01*
X958000Y420500D02*
X984228D01*
X943500Y435000D02*
X958000Y420500D01*
X917000Y435000D02*
X943500D01*
X913400Y431400D02*
X917000Y435000D01*
X913400Y424300D02*
Y431400D01*
X906800Y424300D02*
X913400D01*
X905200Y425900D02*
X906800Y424300D01*
X905200Y425900D02*
Y436600D01*
X894700Y447100D02*
X905200Y436600D01*
X885650Y447100D02*
X894700D01*
X884550Y446000D02*
X885650Y447100D01*
X884550Y442650D02*
Y446000D01*
Y442650D02*
X888600Y438600D01*
X890100D01*
X894500Y434200D01*
Y426000D02*
Y434200D01*
X889458Y420958D02*
X894500Y426000D01*
X843281Y420958D02*
X889458D01*
X840000Y424240D02*
X843281Y420958D01*
X840000Y424240D02*
Y429646D01*
X867900Y442800D02*
X874500D01*
X860000Y434900D02*
X867900Y442800D01*
X860000Y429646D02*
Y434900D01*
X705400Y446800D02*
X708850Y443350D01*
X760633D01*
X763737Y446454D01*
X876846D01*
X880000Y443300D01*
Y429646D02*
Y443300D01*
X691200Y449650D02*
X708250D01*
X712800Y445100D01*
X758983D01*
X762037Y448154D01*
X878696D01*
X882800Y444050D01*
Y440950D02*
Y444050D01*
Y440950D02*
X890000Y433750D01*
Y429646D02*
Y433750D01*
X692000Y426793D02*
Y434970D01*
Y426793D02*
X703343Y415450D01*
X737250D01*
X745000Y423200D01*
X752300D01*
X756242Y419258D01*
X895320D01*
X900000Y423938D01*
Y429646D01*
X704900Y439700D02*
X705300Y439300D01*
X691088Y439700D02*
X704900D01*
X688000Y442788D02*
X691088Y439700D01*
X688000Y442788D02*
Y451650D01*
X688950Y452600D01*
X722400D01*
X726633Y448367D01*
X758850D01*
X760383Y449900D01*
X895700D01*
X910000Y435600D01*
Y429646D02*
Y435600D01*
X686000Y429995D02*
Y434300D01*
Y429995D02*
X702245Y413750D01*
X739950D01*
X745050Y408650D01*
X903950D01*
X920000Y424700D01*
Y429646D01*
X1054400Y169300D02*
X1073400D01*
X1043400Y158300D02*
X1054400Y169300D01*
X1043400Y151050D02*
Y158300D01*
X1041550Y149200D02*
X1043400Y151050D01*
X1015100Y149200D02*
X1041550D01*
X1013900Y148000D02*
X1015100Y149200D01*
X998100Y132200D02*
X1013900Y148000D01*
X895000Y132200D02*
X998100D01*
X460000Y70000D02*
X464900Y65100D01*
X677497D01*
X778100Y138000D02*
X778700Y137400D01*
X705000Y138000D02*
X778100D01*
X704400Y137400D02*
X705000Y138000D01*
X1056100Y185000D02*
X1060354D01*
X1052100Y189000D02*
X1056100Y185000D01*
X1025300Y189000D02*
X1052100D01*
X1024300Y188000D02*
X1025300Y189000D01*
X1024300Y172000D02*
Y188000D01*
Y172000D02*
X1025500Y170800D01*
X1032200D01*
X1035000Y168000D01*
Y161400D02*
Y168000D01*
X1034000Y160400D02*
X1035000Y161400D01*
X844400Y160400D02*
X1034000D01*
X815143Y131143D02*
X844400Y160400D01*
X808457Y131143D02*
X815143D01*
X788100Y151500D02*
X808457Y131143D01*
X710200Y151500D02*
X788100D01*
X680200Y181500D02*
X710200Y151500D01*
X623600Y181500D02*
X680200D01*
X622900Y182200D02*
X623600Y181500D01*
X403400Y182200D02*
X622900D01*
X332100Y253500D02*
X403400Y182200D01*
X269000Y253500D02*
X332100D01*
X265500Y250000D02*
X269000Y253500D01*
X130291Y250000D02*
X265500D01*
X1038400Y195000D02*
X1060354D01*
X1035000Y198400D02*
X1038400Y195000D01*
X933817Y198400D02*
X1035000D01*
X927317Y191900D02*
X933817Y198400D01*
X763000Y191900D02*
X927317D01*
X761600Y193300D02*
X763000Y191900D01*
X703540Y193300D02*
X761600D01*
X698340Y198500D02*
X703540Y193300D01*
X659600Y198500D02*
X698340D01*
X659200Y198100D02*
X659600Y198500D01*
X645100Y198100D02*
X659200D01*
X644200Y199000D02*
X645100Y198100D01*
X416400Y199000D02*
X644200D01*
X352000Y263400D02*
X416400Y199000D01*
X210900Y263400D02*
X352000D01*
X130291Y240000D02*
X187500D01*
X232400Y245600D02*
X239400Y238600D01*
X95800Y245600D02*
X232400D01*
X93415Y247985D02*
X95800Y245600D01*
X93415Y247985D02*
Y258015D01*
X95400Y260000D01*
X99583D01*
X1036000Y249600D02*
Y263300D01*
X1034300Y265000D02*
X1036000Y263300D01*
X1029646Y265000D02*
X1034300D01*
X350200Y164100D02*
X356300Y158000D01*
Y123900D02*
Y158000D01*
X343300Y173300D02*
X365500Y195500D01*
X343300Y166800D02*
Y173300D01*
Y166800D02*
X346000Y164100D01*
X350200D01*
X933900Y270400D02*
Y278000D01*
X848600Y283600D02*
X928300D01*
X1013500Y42500D02*
X1024100Y53100D01*
X1006650Y25050D02*
X1024100Y42500D01*
X825892Y25050D02*
X1006650D01*
X825100Y24258D02*
X825892Y25050D01*
X748942Y24258D02*
X825100D01*
X739700Y33500D02*
X748942Y24258D01*
X739700Y33500D02*
Y51950D01*
X743581Y55831D01*
X747431D01*
X673700Y81600D02*
X720200Y128100D01*
X765400D01*
X769000Y131700D01*
X772300D01*
X773500Y130500D01*
X799000D01*
X801900Y127600D01*
X819557D01*
X823957Y132000D01*
X721500Y129400D02*
X747100D01*
X749400Y131700D01*
X934000Y222700D02*
Y229500D01*
X922000Y222500D02*
X933800D01*
X888600Y210600D02*
X910100D01*
X372700Y393100D02*
X657000D01*
X471800Y331200D02*
X497500Y305500D01*
X524000D01*
X543500Y266400D02*
Y286000D01*
X805500Y330800D02*
X830550Y305750D01*
X991999D01*
X997829Y311580D01*
X1014170D01*
X1020750Y305000D01*
X1029646D01*
X987611Y225000D02*
X1029646D01*
X979411Y216800D02*
X987611Y225000D01*
X939717Y216800D02*
X979411D01*
X927017Y204100D02*
X939717Y216800D01*
X790319Y376850D02*
X792819Y374350D01*
X807950D01*
X810200Y376600D01*
X830850D01*
X836500Y370950D01*
X840111D01*
X846961Y377800D01*
X952200D01*
X985000Y345000D01*
X1029646D01*
X923800Y325000D02*
X1029646D01*
X911454Y337346D02*
X923800Y325000D01*
X772954Y337346D02*
X911454D01*
X772800Y337500D02*
X772954Y337346D01*
X1025700Y295000D02*
X1029646D01*
X1010900Y309800D02*
X1025700Y295000D01*
X1002936Y309800D02*
X1010900D01*
X997136Y304000D02*
X1002936Y309800D01*
X818600Y304000D02*
X997136D01*
X810800Y311800D02*
X818600Y304000D01*
X1029646Y155000D02*
X1034400D01*
X1040500Y161100D01*
X1053800Y215000D02*
X1060354D01*
X1049300Y210500D02*
X1053800Y215000D01*
X974800Y210500D02*
X1049300D01*
X93586Y240000D02*
X99583D01*
X89586Y236000D02*
X93586Y240000D01*
X89586Y233886D02*
Y236000D01*
X66500Y210800D02*
X89586Y233886D01*
X51900Y210800D02*
X66500D01*
X48303Y207203D02*
X51900Y210800D01*
X48303Y80803D02*
Y207203D01*
X42300Y74800D02*
X48303Y80803D01*
X112500Y160000D02*
X130291D01*
X107000Y154500D02*
X112500Y160000D01*
X91900Y188000D02*
X93900Y190000D01*
X99583D01*
X74100Y200000D02*
X99583D01*
X64900Y190800D02*
X74100Y200000D01*
X59300Y190800D02*
X64900D01*
X51703Y183203D02*
X59300Y190800D01*
X51703Y54203D02*
Y183203D01*
X42300Y44800D02*
X51703Y54203D01*
X130291Y170000D02*
X139200D01*
X159000Y189800D01*
X99583Y340000D02*
X130291D01*
X90000D02*
X99583D01*
Y350000D02*
X130291D01*
X125800Y320000D02*
X130291D01*
X122000Y323800D02*
X125800Y320000D01*
X70700Y323800D02*
X122000D01*
X69700Y324800D02*
X70700Y323800D01*
X35000Y324800D02*
X69700D01*
X99583Y330000D02*
X130291D01*
X99583Y320000D02*
X109700D01*
X57300Y375400D02*
X62300Y370400D01*
X40000Y375400D02*
X57300D01*
X37800Y373200D02*
X40000Y375400D01*
X37800Y358100D02*
Y373200D01*
Y358100D02*
X40500Y355400D01*
X64100D01*
X86100Y333400D01*
X266900D01*
X272400Y327900D01*
X282781D01*
X284000Y326681D01*
X300000D01*
X304700Y331381D01*
Y336000D01*
X308700Y340000D01*
X320000D01*
X307200Y250000D02*
X320000D01*
X303200Y246000D02*
X307200Y250000D01*
X249200Y273700D02*
X294600D01*
X298300Y270000D01*
X320000D01*
X62300Y215300D02*
Y231319D01*
X94300Y263319D01*
X115781D01*
X122500Y256600D01*
X213000D01*
X241300Y233600D02*
X244900Y230000D01*
X289291D01*
X308944D02*
X320000D01*
X304700Y225756D02*
X308944Y230000D01*
X242661Y225756D02*
X304700D01*
X225017Y243400D02*
X242661Y225756D01*
X125081Y243400D02*
X225017D01*
X116681Y235000D02*
X125081Y243400D01*
X94770Y235000D02*
X116681D01*
X68685Y208915D02*
X94770Y235000D01*
X65915Y208915D02*
X68685D01*
X62300Y205300D02*
X65915Y208915D01*
X281100Y200000D02*
X289291D01*
X275500Y194400D02*
X281100Y200000D01*
X75050Y194400D02*
X275500D01*
X66700Y186050D02*
X75050Y194400D01*
X66700Y159700D02*
Y186050D01*
X62300Y155300D02*
X66700Y159700D01*
X165424Y190000D02*
X289291D01*
X141024Y165600D02*
X165424Y190000D01*
X92600Y165600D02*
X141024D01*
X62300Y135300D02*
X92600Y165600D01*
X308700Y200000D02*
X320000D01*
X304700Y196000D02*
X308700Y200000D01*
X304700Y169800D02*
Y196000D01*
X300100Y165200D02*
X304700Y169800D01*
X282671Y165200D02*
X300100D01*
X246571Y129100D02*
X282671Y165200D01*
X78500Y129100D02*
X246571D01*
X70300Y137300D02*
X78500Y129100D01*
X62300Y105300D02*
X235900D01*
X284100Y153500D01*
X304000D01*
X308100Y157600D01*
Y176000D01*
X312100Y180000D01*
X320000D01*
X286100Y160000D02*
X289291D01*
X236400Y110300D02*
X286100Y160000D01*
X60000Y110300D02*
X236400D01*
X57900Y108200D02*
X60000Y110300D01*
X57900Y92906D02*
Y108200D01*
X56297Y91303D02*
X57900Y92906D01*
X56297Y81303D02*
Y91303D01*
Y81303D02*
X62300Y75300D01*
Y45300D02*
X146700D01*
X183200Y81800D01*
X308100D01*
X328800Y102500D01*
Y173100D01*
X326000Y175900D02*
X328800Y173100D01*
X314200Y175900D02*
X326000D01*
X312900Y174600D02*
X314200Y175900D01*
X312900Y152100D02*
Y174600D01*
Y152100D02*
X315000Y150000D01*
X320000D01*
X283700D02*
X289291D01*
X74100Y100400D02*
X280000D01*
X64000Y90300D02*
X74100Y100400D01*
X60500Y90300D02*
X64000D01*
X57997Y87797D02*
X60500Y90300D01*
X57997Y83000D02*
Y87797D01*
Y83000D02*
X60097Y80900D01*
X64097D01*
X66800Y78197D01*
Y73700D02*
Y78197D01*
X63900Y70800D02*
X66800Y73700D01*
X59900Y70800D02*
X63900D01*
X57800Y68700D02*
X59900Y70800D01*
X57800Y59800D02*
Y68700D01*
Y59800D02*
X62300Y55300D01*
X289291Y132091D02*
Y140000D01*
X120700Y270000D02*
X130291D01*
X115800Y265100D02*
X120700Y270000D01*
X90800Y265100D02*
X115800D01*
X300200Y320000D02*
X320000D01*
X295300Y324900D02*
X300200Y320000D01*
X275900Y324900D02*
X295300D01*
X275000Y325800D02*
X275900Y324900D01*
X76900Y325800D02*
X275000D01*
X62300Y340400D02*
X76900Y325800D01*
X62300Y360400D02*
X87500Y335200D01*
X269400D01*
X274600Y330000D01*
X289291D01*
X42300Y460400D02*
X56700Y474800D01*
X254100D01*
X384500Y344400D01*
Y284000D02*
Y344400D01*
X380500Y280000D02*
X384500Y284000D01*
X320000Y280000D02*
X380500D01*
X305300Y290000D02*
X320000D01*
X300200Y284900D02*
X305300Y290000D01*
X66800Y284900D02*
X300200D01*
X62300Y280400D02*
X66800Y284900D01*
X62300Y320400D02*
X66500Y316200D01*
X271000D01*
X272200Y315000D01*
X298400D01*
X303400Y310000D01*
X320000D01*
X304700Y300000D02*
X320000D01*
X301300Y303400D02*
X304700Y300000D01*
X65300Y303400D02*
X301300D01*
X62300Y300400D02*
X65300Y303400D01*
X192300Y300000D02*
X289291D01*
X66100Y306600D02*
X185700D01*
X62300Y310400D02*
X66100Y306600D01*
X279400Y270000D02*
X289291D01*
X263700Y425900D02*
X278800Y410800D01*
X40000Y425900D02*
X263700D01*
X37800Y428100D02*
X40000Y425900D01*
X37800Y428100D02*
Y445900D01*
X42300Y450400D01*
X27800Y284800D02*
X27900Y284900D01*
X63100D01*
X65000Y286800D01*
X68000D01*
X74700Y293500D01*
X123400D01*
X126900Y290000D01*
X130291D01*
X125200Y300000D02*
X130291D01*
X122700Y297500D02*
X125200Y300000D01*
X358700Y283800D02*
X381500Y306600D01*
X681200Y376800D02*
X700200D01*
X1007300Y316700D02*
Y318700D01*
Y316700D02*
X1009000Y315000D01*
X1029646D01*
X947800Y356500D02*
Y356600D01*
Y356500D02*
X949000Y355300D01*
X957300D01*
X973700Y338900D01*
X987200D01*
X901100Y151200D02*
X959800D01*
X897300Y155000D02*
X901100Y151200D01*
X355200Y276600D02*
X384000Y247800D01*
X328500Y276600D02*
X355200D01*
X130291Y280000D02*
X137000D01*
X145000Y272000D01*
X130291Y260000D02*
X169900D01*
X176500Y266600D01*
X327219D01*
X99583Y250000D02*
X113800D01*
X117400Y253600D01*
X233712D01*
X236112Y256000D01*
X345500D01*
X379700Y221800D01*
X99583Y290000D02*
X121681D01*
X125000Y286681D01*
X299500D01*
X307819Y295000D01*
X332657D01*
X683488Y355400D02*
X687057D01*
X714057Y328400D01*
X659700Y159000D02*
X660500Y158200D01*
Y138600D02*
Y158200D01*
X652900Y131000D02*
X660500Y138600D01*
X668400Y114700D02*
Y148600D01*
X761900Y112000D02*
X803300D01*
X871600Y110900D02*
X886400Y125700D01*
X838000Y110900D02*
X871600D01*
X692100Y43200D02*
X696300Y39000D01*
X715800D01*
X718800Y42000D01*
Y46300D01*
X720000Y47500D01*
X728000D01*
X735000Y40500D01*
Y30400D02*
Y40500D01*
X830500Y88000D02*
X838500Y96000D01*
X814900Y88000D02*
X830500D01*
X811250Y84350D02*
X814900Y88000D01*
X805550Y84350D02*
X811250D01*
X803708Y86192D02*
X805550Y84350D01*
X730092Y86192D02*
X803708D01*
X702700Y58800D02*
X730092Y86192D01*
X692000Y58800D02*
X702700D01*
X981800Y109800D02*
X984100Y107500D01*
X941100Y109800D02*
X981800D01*
X937200Y105900D02*
X941100Y109800D01*
X831400Y105900D02*
X937200D01*
X829400Y107900D02*
X831400Y105900D01*
X742600Y50400D02*
X744200D01*
X746600Y48000D01*
Y34000D02*
Y48000D01*
Y34000D02*
X754642Y25958D01*
X821750D01*
X822850Y27058D01*
X975158D01*
X976000Y27900D01*
X991630Y431700D02*
X992900Y432970D01*
X966000Y431700D02*
X991630D01*
X964900Y432800D02*
X966000Y431700D01*
X938050Y477650D02*
X955800Y459900D01*
X888250Y477650D02*
X938050D01*
X885950Y475350D02*
X888250Y477650D01*
X822523Y475350D02*
X885950D01*
X818273Y479600D02*
X822523Y475350D01*
X797400Y479600D02*
X818273D01*
X794322Y482678D02*
X797400Y479600D01*
X763378Y482678D02*
X794322D01*
X756400Y475700D02*
X763378Y482678D01*
X732600Y477600D02*
X739400Y484400D01*
X795350D01*
X798250Y481500D01*
X819773D01*
X820208Y481065D01*
X828801D01*
X830800Y479065D01*
X843300D01*
X845299Y481065D01*
X943435D01*
X963600Y460900D01*
Y456900D02*
Y460900D01*
X480000Y299409D02*
X515571D01*
X446846Y149409D02*
X480000D01*
X484700Y279300D02*
X498000Y292600D01*
X346300Y168800D02*
X476200D01*
X788186Y61600D02*
X807263D01*
X783000Y56414D02*
X788186Y61600D01*
X774036Y56414D02*
X783000D01*
X769850Y60600D02*
X774036Y56414D01*
X762400Y60600D02*
X769850D01*
X759800Y58000D02*
X762400Y60600D01*
X755900Y58000D02*
X759800D01*
X753300Y60600D02*
X755900Y58000D01*
X735500Y60600D02*
X753300D01*
X733053Y63047D02*
X735500Y60600D01*
X714347Y63047D02*
X733053D01*
X706093Y54793D02*
X714347Y63047D01*
X370000Y370000D02*
X380000D01*
X390000D01*
X400000D01*
X450091Y319900D02*
X464391Y334200D01*
X474550D02*
X477150Y331600D01*
X644933D01*
Y366133D01*
X645700Y366900D01*
X450091Y240000D02*
Y316132D01*
X474549Y340591D02*
X480000D01*
X450000Y370000D02*
X460000D01*
X400000D02*
X410000D01*
X420000D01*
X440000D02*
X450000D01*
X420000D02*
X430000D01*
X440000D01*
X1029646Y245000D02*
X1060354D01*
X1025676Y351676D02*
X1027000Y353000D01*
X1042000D01*
X1060354Y245000D02*
Y247000D01*
X1061754Y248400D01*
X1067700D01*
X910000Y39646D02*
X920000D01*
X930000D01*
X940000D01*
X930000Y70354D02*
X940000D01*
X920000D02*
X930000D01*
X910000D02*
X920000D01*
X130291Y140000D02*
Y150000D01*
X99583Y140000D02*
X130291D01*
X99583D02*
Y150000D01*
X130291Y140000D02*
X225000D01*
X258500Y173500D01*
X115032Y360000D02*
X130291D01*
X90132Y384900D02*
X115032Y360000D01*
X60100Y384900D02*
X90132D01*
X57800Y382600D02*
X60100Y384900D01*
X57800Y378400D02*
Y382600D01*
Y378400D02*
X61100Y375100D01*
X70600D01*
X85700Y360000D01*
X99583D01*
X723300Y403200D02*
X733000D01*
X718850Y398750D02*
X723300Y403200D01*
X668422Y398750D02*
X718850D01*
X590303Y390303D02*
X655034D01*
X570000Y370000D02*
X590303Y390303D01*
X560000Y370000D02*
X570000D01*
X500000D02*
X510000D01*
X490000D02*
X500000D01*
X480000D02*
X490000D01*
X510000D02*
X520000D01*
X550000D02*
X560000D01*
X540000D02*
X550000D01*
X520000D02*
X530000D01*
X540000D01*
X655100Y154500D02*
X655900Y153700D01*
X655100Y154500D02*
Y158200D01*
X644500Y168800D02*
X655100Y158200D01*
X633900Y168800D02*
X644500D01*
X620800Y155700D02*
X633900Y168800D01*
X558700Y155700D02*
X620800D01*
X480000Y70000D02*
X490000D01*
X560000D02*
X570000D01*
X550000D02*
X560000D01*
X530000D02*
X540000D01*
X550000D01*
X520000D02*
X530000D01*
X510000D02*
X520000D01*
X490000D02*
X500000D01*
X510000D01*
X130291Y360000D02*
X208600D01*
X223900Y344700D01*
X296300D01*
X298200Y346600D01*
X325300D01*
Y359000D01*
X324300Y360000D02*
X325300Y359000D01*
X320000Y360000D02*
X324300D01*
X289291D02*
X320000D01*
X330900Y316500D02*
X369500Y355100D01*
X330900Y316500D02*
Y356000D01*
X326900Y360000D02*
X330900Y356000D01*
X1058400Y225000D02*
X1060354D01*
X1056000Y219500D02*
X1058400Y221900D01*
X989100Y219500D02*
X1056000D01*
X1038500Y235000D02*
X1060354D01*
X1034200Y239300D02*
X1038500Y235000D01*
X1011600Y239300D02*
X1034200D01*
X1009100Y236800D02*
X1011600Y239300D01*
X990200Y236800D02*
X1009100D01*
X978700Y225300D02*
X990200Y236800D01*
X969600Y225300D02*
X978700D01*
X1038000Y285000D02*
X1060354D01*
X1034600Y281600D02*
X1038000Y285000D01*
X1024440Y281600D02*
X1034600D01*
X1024358Y281681D02*
X1024440Y281600D01*
X1024358Y281681D02*
Y292402D01*
X1008760Y308000D02*
X1024358Y292402D01*
X1004044Y308000D02*
X1008760D01*
X996644Y300600D02*
X1004044Y308000D01*
X934000Y300600D02*
X996644D01*
X942400Y311700D02*
X961600D01*
X941100Y313000D02*
X942400Y311700D01*
X941100Y313000D02*
Y320000D01*
X944400Y323300D01*
X1011800D01*
X1013419Y321681D01*
X1039400D01*
X1044500Y316581D01*
Y307969D02*
Y316581D01*
Y307969D02*
X1051969Y300500D01*
X1064200D01*
X1065700Y302000D01*
Y328400D01*
X1063400Y330700D02*
X1065700Y328400D01*
X1056000Y330700D02*
X1063400D01*
X1055000Y331700D02*
X1056000Y330700D01*
X1055000Y331700D02*
Y344000D01*
X1056000Y345000D01*
X1060354D01*
X1042900Y408000D02*
X1096500Y354400D01*
Y54500D02*
Y354400D01*
X1057400Y15400D02*
X1096500Y54500D01*
X832400Y15400D02*
X1057400D01*
X813200Y32300D02*
X815500D01*
X810000Y35500D02*
X813200Y32300D01*
X810000Y35500D02*
Y39646D01*
X820000Y34658D02*
Y39646D01*
Y34658D02*
X822000Y32658D01*
X864958D01*
X866658Y34358D01*
X874000D01*
X875000Y35358D01*
Y46200D01*
X879500Y50700D01*
X948800D01*
X951800Y53700D01*
X973600Y395600D02*
X1042800D01*
X1043900Y394500D01*
X1029300Y136300D02*
X1036900D01*
X973600Y80600D02*
X1029300Y136300D01*
X964200Y80600D02*
X973600D01*
X961891Y82909D02*
X964200Y80600D01*
X917759Y82909D02*
X961891D01*
X915850Y81000D02*
X917759Y82909D01*
X861900Y81000D02*
X915850D01*
X853400Y72500D02*
X861900Y81000D01*
X853400Y63900D02*
Y72500D01*
X851850Y62350D02*
X853400Y63900D01*
X846394Y62350D02*
X851850D01*
X830000Y45956D02*
X846394Y62350D01*
X830000Y39646D02*
Y45956D01*
X1002200Y42400D02*
X1018600Y58800D01*
X974200Y42400D02*
X1002200D01*
X971600Y45000D02*
X974200Y42400D01*
X901000Y45000D02*
X971600D01*
X900000Y44000D02*
X901000Y45000D01*
X900000Y39646D02*
Y44000D01*
X762900Y328200D02*
X801100Y290000D01*
X984300D01*
X986300Y288000D01*
Y270600D02*
Y288000D01*
X980000Y264300D02*
X986300Y270600D01*
X962400Y264300D02*
X980000D01*
X949700Y251600D02*
X962400Y264300D01*
X904500Y77600D02*
X958400D01*
X901800Y74900D02*
X904500Y77600D01*
X900000Y74900D02*
X901800D01*
X900000Y70354D02*
Y74900D01*
X850000Y66000D02*
Y70354D01*
X849000Y65000D02*
X850000Y66000D01*
X842400Y65000D02*
X849000D01*
X840300Y62900D02*
X842400Y65000D01*
X829800Y174600D02*
X832400Y172000D01*
X728800Y174600D02*
X829800D01*
X727400Y176000D02*
X728800Y174600D01*
X727400Y176000D02*
Y187000D01*
X728600Y188200D01*
X737700Y233300D02*
X739200Y231800D01*
X752700D01*
X754900Y229600D01*
X771600D01*
X779100Y61100D02*
X784067Y66067D01*
X790000D01*
Y70354D01*
X770000Y65600D02*
Y70354D01*
X769100Y64700D02*
X770000Y65600D01*
X756351Y64700D02*
X769100D01*
X754951Y63300D02*
X756351Y64700D01*
X740300Y63300D02*
X754951D01*
X738800Y64800D02*
X740300Y63300D01*
X744500Y69643D02*
Y70143D01*
Y69643D02*
X746000Y68143D01*
X750000D02*
Y70354D01*
X665500Y155000D02*
X670354D01*
X664769Y154269D02*
X665500Y155000D01*
X664769Y93869D02*
Y154269D01*
X661500Y90600D02*
X664769Y93869D01*
X670200Y106800D02*
X675700Y112300D01*
Y158000D01*
X674600Y159100D02*
X675700Y158000D01*
X667900Y159100D02*
X674600D01*
X665000Y162000D02*
X667900Y159100D01*
X665000Y162000D02*
Y174000D01*
X666000Y175000D01*
X670354D01*
X654900Y84000D02*
Y121700D01*
X649900Y126700D02*
X654900Y121700D01*
X649900Y126700D02*
Y140750D01*
X658750Y149600D01*
Y155400D01*
X656850Y157300D02*
X658750Y155400D01*
X656850Y157300D02*
Y173500D01*
X658350Y175000D01*
X662700Y195000D02*
X670354D01*
Y215000D02*
X721900D01*
X723900Y213000D01*
X670354Y245000D02*
X675300D01*
X679900Y249600D01*
Y353955D01*
X676300Y357555D02*
X679900Y353955D01*
X676300Y357555D02*
Y383100D01*
X677200Y384000D01*
X651500Y372000D02*
X655700Y376200D01*
X668200D01*
X671400Y373000D01*
Y357700D02*
Y373000D01*
X671050Y357350D02*
X671400Y357700D01*
X664000Y357350D02*
X671050D01*
X662900Y356250D02*
X664000Y357350D01*
X662900Y329750D02*
Y356250D01*
X656650Y323500D02*
X662900Y329750D01*
X656650Y318500D02*
Y323500D01*
Y318500D02*
X660050Y315100D01*
Y303350D02*
Y315100D01*
Y303350D02*
X668400Y295000D01*
X670354D01*
Y345000D02*
X670400D01*
X680237Y362013D02*
X682000Y360250D01*
X693250D01*
X720400Y333100D01*
Y302137D02*
Y333100D01*
Y302137D02*
X765745Y256792D01*
X768000D01*
X769492Y255300D01*
Y241654D02*
Y255300D01*
Y241654D02*
X784450Y226696D01*
Y220950D02*
Y226696D01*
Y220950D02*
X805830D01*
X811720Y215059D01*
X634900Y305000D02*
X639646D01*
X621100Y291200D02*
X634900Y305000D01*
X609700Y70700D02*
X611200Y69200D01*
X709800D01*
X729500Y88900D01*
X760200D01*
X761400Y90100D01*
Y96000D01*
X755500Y101900D02*
X761400Y96000D01*
X755500Y101900D02*
Y118400D01*
X757600Y120500D01*
X875600D01*
X891900Y136800D01*
Y149900D01*
X889400Y152400D02*
X891900Y149900D01*
X884800Y152400D02*
X889400D01*
X882400Y150000D02*
X884800Y152400D01*
X888900Y143814D02*
Y148000D01*
X867336Y122250D02*
X888900Y143814D01*
X737350Y122250D02*
X867336D01*
X688000Y72900D02*
X737350Y122250D01*
X618600Y72900D02*
X688000D01*
X608100Y83400D02*
X618600Y72900D01*
X629500Y295000D02*
X639646D01*
X775771Y213129D02*
X781600Y207300D01*
X751421Y213129D02*
X775771D01*
X743050Y221500D02*
X751421Y213129D01*
X664200Y221500D02*
X743050D01*
X661100Y218400D02*
X664200Y221500D01*
X633381Y218400D02*
X661100D01*
X630331Y215350D02*
X633381Y218400D01*
X619850Y215350D02*
X630331D01*
X615800Y219400D02*
X619850Y215350D01*
X615800Y219400D02*
Y269081D01*
X631719Y285000D01*
X639646D01*
X603200Y195000D02*
X639646D01*
X605200Y41900D02*
X610300Y36800D01*
X718358D01*
X722300Y40742D01*
Y43600D01*
X715685Y59300D02*
X728600D01*
X704385Y48000D02*
X715685Y59300D01*
X616000Y48000D02*
X704385D01*
X612000Y44000D02*
X616000Y48000D01*
X612000Y40800D02*
Y44000D01*
X615800Y158800D02*
X632000Y175000D01*
X639646D01*
X728500Y92200D02*
X758400D01*
X707367Y71067D02*
X728500Y92200D01*
X613683Y71067D02*
X707367D01*
X603600Y81150D02*
X613683Y71067D01*
X603600Y81150D02*
Y109000D01*
X642600Y148000D01*
X639646Y155000D02*
X642600D01*
X1032350Y428200D02*
X1068200D01*
X1004000Y456550D02*
X1032350Y428200D01*
X982412Y456550D02*
X1004000D01*
X970762Y444900D02*
X982412Y456550D01*
X941100Y444900D02*
X970762D01*
X930000Y456000D02*
X941100Y444900D01*
X930000Y456000D02*
Y460354D01*
X1066000Y421400D02*
X1082500Y404900D01*
X1028450Y421400D02*
X1066000D01*
X1009517Y440333D02*
X1028450Y421400D01*
X985967Y440333D02*
X1009517D01*
X983700Y442600D02*
X985967Y440333D01*
X983700Y442600D02*
Y446350D01*
X985050Y447700D01*
X1002200D01*
X1004500Y450000D01*
Y453600D01*
X1003250Y454850D02*
X1004500Y453600D01*
X983850Y454850D02*
X1003250D01*
X970050Y441050D02*
X983850Y454850D01*
X934850Y441050D02*
X970050D01*
X920000Y455900D02*
X934850Y441050D01*
X920000Y455900D02*
Y460354D01*
X945800Y382500D02*
X948500Y385200D01*
X902700Y382500D02*
X945800D01*
X901450Y383750D02*
X902700Y382500D01*
X713400Y383750D02*
X901450D01*
X712000Y385150D02*
X713400Y383750D01*
X712000Y385150D02*
Y394350D01*
X714650Y397000D01*
X732900D01*
X737850Y401950D01*
Y406000D01*
X735200Y408650D02*
X737850Y406000D01*
X684150Y408650D02*
X735200D01*
X680800Y412000D02*
X684150Y408650D01*
X680800Y412000D02*
Y452000D01*
X684000Y455200D01*
X739597D01*
X741430Y453367D01*
X837529D01*
X838361Y454200D01*
X858325D01*
X860000Y455875D01*
Y460354D01*
X850000D02*
Y468000D01*
X848000Y470000D02*
X850000Y468000D01*
X813800Y470000D02*
X848000D01*
X812050Y471750D02*
X813800Y470000D01*
X820600Y387900D02*
X822550Y385950D01*
X906150D01*
X907800Y384300D01*
X939900D01*
X943700Y388100D01*
X952800D01*
X955800Y385100D01*
X800000Y460354D02*
Y465100D01*
X794450Y470650D02*
X800000Y465100D01*
X790150Y470650D02*
X794450D01*
X787454Y467954D02*
X790150Y470650D01*
X781268Y467954D02*
X787454D01*
X778572Y470650D02*
X781268Y467954D01*
X765050Y470650D02*
X778572D01*
X762200Y467800D02*
X765050Y470650D01*
X767907Y367450D02*
X792650D01*
X798600Y361500D01*
X825200D01*
X825950Y360750D01*
X832300D01*
X835050Y358000D01*
X919002D01*
X927602Y366600D01*
X790000Y460354D02*
Y465600D01*
X792200Y467800D01*
X804500Y365300D02*
X805800Y364000D01*
X825400D01*
X826950Y362450D01*
X833650D01*
X836350Y359750D01*
X915750D01*
X921300Y365300D01*
X846100Y356300D02*
X850400Y352000D01*
X833000Y356300D02*
X846100D01*
X830300Y359000D02*
X833000Y356300D01*
X823600Y359000D02*
X830300D01*
X822900Y359700D02*
X823600Y359000D01*
X785400Y359700D02*
X822900D01*
X776900Y467800D02*
X780000Y464700D01*
Y460354D02*
Y464700D01*
X810000Y425358D02*
Y429646D01*
Y425358D02*
X811000Y424358D01*
X824000D01*
X826500Y426858D01*
Y438200D01*
X830400Y442100D01*
X842981D01*
X846681Y438400D01*
Y424358D02*
Y438400D01*
Y424358D02*
X863319D01*
X863400Y424440D01*
Y432500D01*
X868000Y437100D01*
X873900D01*
X830000Y429646D02*
Y434800D01*
X833800Y438600D01*
X958800Y457000D02*
X966300Y449500D01*
X958800Y457000D02*
Y462700D01*
X942150Y479350D02*
X958800Y462700D01*
X846150Y479350D02*
X942150D01*
X844100Y477300D02*
X846150Y479350D01*
X825900Y477300D02*
X844100D01*
X825000Y478200D02*
X825900Y477300D01*
X850000Y429646D02*
Y437100D01*
X708193Y418300D02*
X712869Y422976D01*
X731293D01*
X743317Y435000D01*
X753933D01*
X756300Y432632D01*
Y424000D02*
Y432632D01*
Y424000D02*
X757700Y422600D01*
X834942D01*
X836198Y423856D01*
Y434398D01*
X836800Y435000D01*
X843000D01*
X844000Y434000D01*
Y423658D02*
Y434000D01*
Y423658D02*
X845000Y422658D01*
X865019D01*
X867719Y425358D01*
X870000D01*
Y429646D01*
X692000Y442900D02*
X706100D01*
X708300Y440700D01*
Y437700D02*
Y440700D01*
X706900Y436300D02*
X708300Y437700D01*
X697100Y436300D02*
X706900D01*
X695538Y437862D02*
X697100Y436300D01*
X683332Y437862D02*
X695538D01*
X682600Y437130D02*
X683332Y437862D01*
X682600Y429087D02*
Y437130D01*
Y429087D02*
X699637Y412050D01*
X738250D01*
X743350Y406950D01*
X913850D01*
X930000Y423100D01*
Y429646D01*
X940000Y420000D02*
Y429646D01*
Y420000D02*
X943300Y416700D01*
X1021950D01*
X1027800Y410850D01*
Y404050D02*
Y410850D01*
X1024750Y401000D02*
X1027800Y404050D01*
X822650Y401000D02*
X1024750D01*
X816050Y394400D02*
X822650Y401000D01*
X722000Y394400D02*
X816050D01*
X715100Y387500D02*
X722000Y394400D01*
X370000Y70000D02*
X380000D01*
X390000D01*
X400000D01*
X450000D02*
X460000D01*
X440000D02*
X450000D01*
X430000D02*
X440000D01*
X420000D02*
X430000D01*
X400000D02*
X410000D01*
X420000D01*
X790000Y273500D02*
X810000D01*
X830000D02*
X850000D01*
X810000D02*
X830000D01*
X790000D02*
X795000Y278500D01*
X910000Y273500D02*
X930000D01*
X890000D02*
X910000D01*
X850000D02*
X870000D01*
X890000D01*
X786100Y269600D02*
X790000Y273500D01*
X786100Y230400D02*
Y269600D01*
Y230400D02*
X790000Y226500D01*
X910000D02*
X915000Y221500D01*
X910000Y226500D02*
X930000D01*
X890000D02*
X910000D01*
X850000D02*
X870000D01*
X890000D01*
X769400Y331200D02*
X800000Y300600D01*
X743200Y331200D02*
X769400D01*
X727500Y346900D02*
X743200Y331200D01*
X724300Y346900D02*
X727500D01*
X830000Y226500D02*
X850000D01*
X810000D02*
X830000D01*
X790000D02*
X810000D01*
X890000D02*
X895000Y221500D01*
X99583Y220000D02*
X105700D01*
X120900Y235200D01*
X194800D01*
X206600Y223400D01*
X295700D01*
X305100Y214000D01*
X369196D01*
X384100Y199096D01*
Y196000D02*
Y199096D01*
X930000Y266500D02*
X933900Y270400D01*
X930300Y281600D02*
X933900Y278000D01*
X922200Y281600D02*
X930300D01*
X830000Y266500D02*
X850000D01*
X810000D02*
X830000D01*
X790000D02*
X810000D01*
X940600D02*
X956100Y282000D01*
X930000Y266500D02*
X940600D01*
X910000D02*
X930000D01*
X850000D02*
X870000D01*
X890000D02*
X910000D01*
X870000D02*
X890000D01*
X870000Y233500D02*
X890000D01*
X937900Y225600D02*
X960500D01*
X890000Y233500D02*
X910000D01*
X930000D01*
X739900Y301800D02*
Y331000D01*
X727663Y343237D02*
X739900Y331000D01*
X723000Y343237D02*
X727663D01*
X721300Y344937D02*
X723000Y343237D01*
X721300Y344937D02*
Y349600D01*
X718000Y352900D02*
X721300Y349600D01*
X933800Y222500D02*
X934000Y222700D01*
X889600Y217600D02*
X917100D01*
X885300Y221900D02*
X889600Y217600D01*
X828100Y221900D02*
X885300D01*
X822800Y216600D02*
X828100Y221900D01*
X850000Y233500D02*
Y266500D01*
Y233500D02*
X870000D01*
X830000D02*
X850000D01*
X744200Y286200D02*
X753000Y277400D01*
X776550D01*
X781750Y282600D01*
X836043D01*
X810000Y233500D02*
X830000D01*
X790000D02*
X810000D01*
X528800Y281100D02*
X543500Y266400D01*
X533200Y325500D02*
X543500Y315200D01*
X616600Y149500D02*
X639700D01*
X547000Y79900D02*
X616600Y149500D01*
X201300Y79900D02*
X547000D01*
X184900Y63500D02*
X201300Y79900D01*
X184900Y22100D02*
Y63500D01*
Y22100D02*
X187100Y19900D01*
X204900D01*
X210000Y25000D01*
X957900Y195000D02*
X1029646D01*
X930600Y167700D02*
X957900Y195000D01*
X1016750Y165000D02*
X1029646D01*
X1014600Y162850D02*
X1016750Y165000D01*
X835750Y162850D02*
X1014600D01*
X826700Y171900D02*
X835750Y162850D01*
X709000Y171900D02*
X826700D01*
X695900Y185000D02*
X709000Y171900D01*
X948100Y156400D02*
X950200Y158500D01*
X1035200D01*
X1036800Y160100D01*
Y162000D01*
X1038800Y164000D01*
X1041400D01*
X1052400Y175000D01*
X1060354D01*
X994000Y235000D02*
X1029646D01*
X977500Y218500D02*
X994000Y235000D01*
X933700Y218500D02*
X977500D01*
X924100Y208900D02*
X933700Y218500D01*
X943617Y215000D02*
X1029646D01*
X929817Y201200D02*
X943617Y215000D01*
X923281Y201200D02*
X929817D01*
X920031Y204450D02*
X923281Y201200D01*
X764269Y204450D02*
X920031D01*
X759919Y208800D02*
X764269Y204450D01*
X735735Y208800D02*
X759919D01*
X724935Y219600D02*
X735735Y208800D01*
X666400Y219600D02*
X724935D01*
X662700Y215900D02*
X666400Y219600D01*
X1029646Y185000D02*
X1041300D01*
X1038529Y300571D02*
X1041200Y297900D01*
X1038529Y300571D02*
Y316600D01*
X1029646Y285000D02*
X1033700D01*
X1034700Y286000D01*
Y289000D01*
X1035800Y290100D01*
X973350Y335000D02*
X1029646D01*
X962600Y345750D02*
X973350Y335000D01*
X845750Y345750D02*
X962600D01*
X845300Y345300D02*
X845750Y345750D01*
X796200Y345300D02*
X845300D01*
X795100Y346400D02*
X796200Y345300D01*
X994891Y255000D02*
X1029646D01*
X960191Y220300D02*
X994891Y255000D01*
X929050Y220300D02*
X960191D01*
X926300Y217550D02*
X929050Y220300D01*
X937017Y205000D02*
X1029646D01*
X925717Y193700D02*
X937017Y205000D01*
X764450Y193700D02*
X925717D01*
X763100Y195050D02*
X764450Y193700D01*
X707612Y195050D02*
X763100D01*
X702162Y200500D02*
X707612Y195050D01*
X656400Y200500D02*
X702162D01*
X655800Y201100D02*
X656400Y200500D01*
X1045000Y239500D02*
X1064000D01*
X1067500Y236000D01*
Y184100D02*
Y236000D01*
X1063400Y180000D02*
X1067500Y184100D01*
X1054800Y180000D02*
X1063400D01*
X1049800Y175000D02*
X1054800Y180000D01*
X1029646Y175000D02*
X1049800D01*
X1050900Y260100D02*
X1088900D01*
X1036000Y275000D02*
X1050900Y260100D01*
X1029646Y275000D02*
X1036000D01*
D23*
X0Y0D02*
Y500000D01*
X1100000D01*
Y0D02*
Y500000D01*
X0Y0D02*
X1100000D01*
D24*
X480000Y299409D02*
D03*
Y149409D02*
D03*
D25*
Y340591D02*
D03*
Y190591D02*
D03*
X408909Y240000D02*
D03*
Y100000D02*
D03*
D26*
X450091Y240000D02*
D03*
Y100000D02*
D03*
D27*
X190000Y25000D02*
D03*
D28*
X210000D02*
D03*
D29*
X20000Y20000D02*
D03*
Y480000D02*
D03*
D30*
X42300Y214800D02*
D03*
Y204800D02*
D03*
Y194800D02*
D03*
Y184800D02*
D03*
Y174800D02*
D03*
Y164800D02*
D03*
Y154800D02*
D03*
Y144800D02*
D03*
Y134800D02*
D03*
Y124800D02*
D03*
Y114800D02*
D03*
Y104800D02*
D03*
Y94800D02*
D03*
Y84800D02*
D03*
Y74800D02*
D03*
Y64800D02*
D03*
Y54800D02*
D03*
Y44800D02*
D03*
Y34800D02*
D03*
X62300Y25300D02*
D03*
Y35300D02*
D03*
Y45300D02*
D03*
Y55300D02*
D03*
Y65300D02*
D03*
Y75300D02*
D03*
Y85300D02*
D03*
Y95300D02*
D03*
Y105300D02*
D03*
Y115300D02*
D03*
Y125300D02*
D03*
Y135300D02*
D03*
Y145300D02*
D03*
Y155300D02*
D03*
Y165300D02*
D03*
Y175300D02*
D03*
Y185300D02*
D03*
Y195300D02*
D03*
Y205300D02*
D03*
Y470400D02*
D03*
Y460400D02*
D03*
Y450400D02*
D03*
Y440400D02*
D03*
Y430400D02*
D03*
Y420400D02*
D03*
Y410400D02*
D03*
Y400400D02*
D03*
Y390400D02*
D03*
Y380400D02*
D03*
Y370400D02*
D03*
Y360400D02*
D03*
Y350400D02*
D03*
Y340400D02*
D03*
Y330400D02*
D03*
Y320400D02*
D03*
Y310400D02*
D03*
Y300400D02*
D03*
Y290400D02*
D03*
X42300Y470400D02*
D03*
Y460400D02*
D03*
Y450400D02*
D03*
Y440400D02*
D03*
Y430400D02*
D03*
Y420400D02*
D03*
Y410400D02*
D03*
Y400400D02*
D03*
Y390400D02*
D03*
Y380400D02*
D03*
Y370400D02*
D03*
Y360400D02*
D03*
Y350400D02*
D03*
Y340400D02*
D03*
Y330400D02*
D03*
Y320400D02*
D03*
Y310400D02*
D03*
Y300400D02*
D03*
Y290400D02*
D03*
X380000Y370000D02*
D03*
X400000D02*
D03*
X410000D02*
D03*
X420000D02*
D03*
X430000D02*
D03*
X440000D02*
D03*
X450000D02*
D03*
X460000D02*
D03*
X390000D02*
D03*
X380000Y70000D02*
D03*
X400000D02*
D03*
X410000D02*
D03*
X420000D02*
D03*
X430000D02*
D03*
X440000D02*
D03*
X450000D02*
D03*
X460000D02*
D03*
X390000D02*
D03*
X490000Y370000D02*
D03*
X510000D02*
D03*
X520000D02*
D03*
X530000D02*
D03*
X540000D02*
D03*
X550000D02*
D03*
X560000D02*
D03*
X570000D02*
D03*
X500000D02*
D03*
X490000Y70000D02*
D03*
X510000D02*
D03*
X520000D02*
D03*
X530000D02*
D03*
X540000D02*
D03*
X550000D02*
D03*
X560000D02*
D03*
X570000D02*
D03*
X500000D02*
D03*
D31*
X42300Y24800D02*
D03*
X62300Y215300D02*
D03*
Y280400D02*
D03*
X42300D02*
D03*
D32*
X370000Y370000D02*
D03*
Y70000D02*
D03*
X480000Y370000D02*
D03*
Y70000D02*
D03*
D33*
X469483Y462615D02*
D03*
Y444898D02*
D03*
X396983Y462615D02*
D03*
Y444898D02*
D03*
X545483Y462615D02*
D03*
Y444898D02*
D03*
D34*
X971400Y185800D02*
D03*
X120004Y205104D02*
D03*
X107000Y162600D02*
D03*
X147200Y190000D02*
D03*
X122900Y176800D02*
D03*
X114300Y180000D02*
D03*
X80200Y350000D02*
D03*
X29300Y306100D02*
D03*
X312200Y260000D02*
D03*
X271100Y397200D02*
D03*
Y250000D02*
D03*
X178100Y394900D02*
D03*
X245130Y243900D02*
D03*
X307100Y411100D02*
D03*
Y260000D02*
D03*
X83783Y213400D02*
D03*
X82300Y203400D02*
D03*
X88200Y149400D02*
D03*
X112604Y173900D02*
D03*
X278800Y167100D02*
D03*
Y133800D02*
D03*
X280600Y234400D02*
D03*
X248200Y202000D02*
D03*
X91600Y345800D02*
D03*
X275100Y376900D02*
D03*
X296100Y244000D02*
D03*
X33900Y297900D02*
D03*
X142008Y290000D02*
D03*
X138500Y313000D02*
D03*
X170800Y280000D02*
D03*
X292100Y129300D02*
D03*
X765000Y374800D02*
D03*
X795200Y177600D02*
D03*
X1007300Y318700D02*
D03*
X1040500Y153750D02*
D03*
X730300Y177900D02*
D03*
X328500Y276600D02*
D03*
X385100Y189100D02*
D03*
X976600Y229000D02*
D03*
X992600Y245000D02*
D03*
X1041600Y312200D02*
D03*
X1044100Y302400D02*
D03*
X693300Y336000D02*
D03*
X686826D02*
D03*
X797100Y126800D02*
D03*
X770600D02*
D03*
X887900Y18300D02*
D03*
X685600Y32900D02*
D03*
X691657Y33800D02*
D03*
X909400Y22000D02*
D03*
X866100Y22100D02*
D03*
X697600Y32300D02*
D03*
X830000Y59667D02*
D03*
X703631Y42000D02*
D03*
X888400Y96400D02*
D03*
X976600Y106900D02*
D03*
X970700Y106800D02*
D03*
X822500Y98300D02*
D03*
X970700Y115900D02*
D03*
X813300Y98300D02*
D03*
X968700Y85200D02*
D03*
X808500Y87300D02*
D03*
X788600Y89800D02*
D03*
X977600Y99400D02*
D03*
X983200Y38600D02*
D03*
X765900Y55900D02*
D03*
X842600Y366000D02*
D03*
X813000Y372000D02*
D03*
X797975Y488575D02*
D03*
X993750Y465500D02*
D03*
X1000500Y467900D02*
D03*
X815900Y484800D02*
D03*
X805500Y486112D02*
D03*
X986600Y444800D02*
D03*
X913100Y442200D02*
D03*
X1001300Y452000D02*
D03*
X936400Y443900D02*
D03*
X724100Y466057D02*
D03*
X887400Y444100D02*
D03*
X743300Y416100D02*
D03*
X730100Y431500D02*
D03*
X861100Y443600D02*
D03*
X735500Y451667D02*
D03*
X921200Y444200D02*
D03*
X951400Y452500D02*
D03*
X727900Y470000D02*
D03*
X399100Y339500D02*
D03*
X918500Y388300D02*
D03*
X1052800Y380200D02*
D03*
X976550Y45750D02*
D03*
X1045500Y92000D02*
D03*
X631000Y208900D02*
D03*
X714900Y304600D02*
D03*
X766100Y253400D02*
D03*
X963100Y65900D02*
D03*
Y38700D02*
D03*
X1023000Y357200D02*
D03*
X966500Y246300D02*
D03*
X978700Y313300D02*
D03*
X946700Y255987D02*
D03*
X944000Y314800D02*
D03*
X957633Y330200D02*
D03*
X994600Y338800D02*
D03*
X978200Y342200D02*
D03*
X981100Y385462D02*
D03*
X749500Y50200D02*
D03*
X759100Y280300D02*
D03*
X981700Y286500D02*
D03*
X1004100Y297074D02*
D03*
X755500Y32700D02*
D03*
X690400Y415600D02*
D03*
X1024900Y408000D02*
D03*
X946500Y89000D02*
D03*
X906700Y62500D02*
D03*
X912200Y86500D02*
D03*
X1030200Y128000D02*
D03*
X1010300Y87600D02*
D03*
X915300Y58500D02*
D03*
X850000Y55898D02*
D03*
X1036970Y129200D02*
D03*
X1035700Y114700D02*
D03*
X1030600Y108600D02*
D03*
X1046100Y128000D02*
D03*
X885429Y62900D02*
D03*
X859200Y114100D02*
D03*
X776500Y115700D02*
D03*
X758500Y116600D02*
D03*
X899000Y102800D02*
D03*
Y62900D02*
D03*
X870000D02*
D03*
X841600Y201500D02*
D03*
X754200Y204300D02*
D03*
X856500Y62900D02*
D03*
X849000Y196635D02*
D03*
X710900Y199500D02*
D03*
X736700Y260300D02*
D03*
X758500Y238500D02*
D03*
X758700Y190100D02*
D03*
X843000Y175500D02*
D03*
X844100Y86600D02*
D03*
X747100Y257549D02*
D03*
X761600Y243049D02*
D03*
Y181800D02*
D03*
X740700Y179400D02*
D03*
X738400Y81600D02*
D03*
X729900Y72750D02*
D03*
X732300Y78000D02*
D03*
X759000Y61452D02*
D03*
X767400Y233000D02*
D03*
X750900Y235000D02*
D03*
X774300Y63000D02*
D03*
X771200Y219400D02*
D03*
X751000Y226620D02*
D03*
X746700Y212100D02*
D03*
X739200Y211700D02*
D03*
X735200Y71500D02*
D03*
X666398Y87700D02*
D03*
X662900Y186700D02*
D03*
X661500Y165700D02*
D03*
X661300Y106800D02*
D03*
X625000Y201900D02*
D03*
X624900Y117861D02*
D03*
X652000Y90761D02*
D03*
X628000Y220100D02*
D03*
X631700Y115600D02*
D03*
X649300Y105400D02*
D03*
X663600Y363800D02*
D03*
X663000Y258400D02*
D03*
X658000Y366700D02*
D03*
X659000Y372100D02*
D03*
X657600Y333600D02*
D03*
X650484Y385700D02*
D03*
X662900Y315000D02*
D03*
X688042Y320700D02*
D03*
X790900Y216500D02*
D03*
X665800Y353400D02*
D03*
X680400Y368000D02*
D03*
X730800Y327700D02*
D03*
X727600Y166400D02*
D03*
X810600Y134100D02*
D03*
X810800Y157300D02*
D03*
X701281Y171600D02*
D03*
X660000Y321182D02*
D03*
X816900Y218100D02*
D03*
X822600Y178800D02*
D03*
X596300Y192100D02*
D03*
Y335000D02*
D03*
X791600Y140300D02*
D03*
X600200Y178800D02*
D03*
Y292200D02*
D03*
X826000Y199500D02*
D03*
X882000Y209500D02*
D03*
X871700Y136800D02*
D03*
X633600Y98000D02*
D03*
X632300Y271800D02*
D03*
X872500Y214600D02*
D03*
X618700Y249000D02*
D03*
X633300Y87200D02*
D03*
X901398Y156402D02*
D03*
X878800Y216400D02*
D03*
X685000Y77400D02*
D03*
X636600Y76700D02*
D03*
X626000Y225000D02*
D03*
X742600Y204900D02*
D03*
X714195Y47800D02*
D03*
X616900Y44300D02*
D03*
X617500Y205000D02*
D03*
X746300Y156400D02*
D03*
X755200Y132900D02*
D03*
X1008000Y73300D02*
D03*
X1070500Y132850D02*
D03*
X1024200Y451100D02*
D03*
X1085500Y354500D02*
D03*
X910600Y470800D02*
D03*
X903000Y469500D02*
D03*
X1091800Y106000D02*
D03*
X994700Y59400D02*
D03*
X992200Y53550D02*
D03*
X1088700Y64596D02*
D03*
X896200Y469700D02*
D03*
X887200Y468800D02*
D03*
X1087700Y56100D02*
D03*
X1003300Y48000D02*
D03*
X938000Y366600D02*
D03*
X879500Y372700D02*
D03*
X863400Y388800D02*
D03*
X811000Y390900D02*
D03*
X801800Y437100D02*
D03*
X774500Y437000D02*
D03*
X768100Y467800D02*
D03*
X789364Y475864D02*
D03*
X781400Y349300D02*
D03*
X933280Y350800D02*
D03*
X932720Y366600D02*
D03*
X783600Y371500D02*
D03*
X781700Y472350D02*
D03*
X805500Y467200D02*
D03*
X818100Y373500D02*
D03*
X928200Y352000D02*
D03*
X711700Y458400D02*
D03*
X704900Y381900D02*
D03*
X851398Y373200D02*
D03*
X716000Y403600D02*
D03*
X757200Y357500D02*
D03*
X844939Y351000D02*
D03*
X868500Y411500D02*
D03*
X749500Y418600D02*
D03*
X744500Y460300D02*
D03*
X858800Y342900D02*
D03*
X756500Y371800D02*
D03*
X735900Y421500D02*
D03*
X761100Y437100D02*
D03*
X757600Y386800D02*
D03*
X804700D02*
D03*
X805100Y377200D02*
D03*
X838300Y374300D02*
D03*
X703500Y420600D02*
D03*
X745000Y353700D02*
D03*
X829300Y340200D02*
D03*
X831300Y351600D02*
D03*
X806400Y356800D02*
D03*
X793800Y440900D02*
D03*
X809650Y439200D02*
D03*
X823167Y439933D02*
D03*
X816500Y437000D02*
D03*
X837000Y485400D02*
D03*
X1002000Y461100D02*
D03*
X1008000Y437400D02*
D03*
X972000Y434700D02*
D03*
X984228Y420500D02*
D03*
X874500Y442800D02*
D03*
X705400Y446800D02*
D03*
X691200Y449650D02*
D03*
X692000Y434970D02*
D03*
X705300Y439300D02*
D03*
X686000Y434300D02*
D03*
X1073400Y169300D02*
D03*
X1013900Y148000D02*
D03*
X895000Y132200D02*
D03*
X677497Y65100D02*
D03*
X778700Y137400D02*
D03*
X704400D02*
D03*
X210900Y263400D02*
D03*
X187500Y240000D02*
D03*
X239400Y238600D02*
D03*
X1036000Y249600D02*
D03*
X350200Y164100D02*
D03*
X356300Y123900D02*
D03*
X365500Y195500D02*
D03*
X848600Y283600D02*
D03*
X1013500Y42500D02*
D03*
X1024100Y53100D02*
D03*
Y42500D02*
D03*
X747431Y55831D02*
D03*
X673700Y81600D02*
D03*
X823957Y132000D02*
D03*
X749400Y131700D02*
D03*
X657000Y422900D02*
D03*
X888600Y210600D02*
D03*
X657000Y393100D02*
D03*
X372700D02*
D03*
X471800Y331200D02*
D03*
X805500Y330800D02*
D03*
X927017Y204100D02*
D03*
X790319Y376850D02*
D03*
X772800Y337500D02*
D03*
X810800Y311800D02*
D03*
X1040500Y161100D02*
D03*
X974800Y210500D02*
D03*
X107000Y154500D02*
D03*
X91900Y188000D02*
D03*
X159000Y189800D02*
D03*
X90000Y340000D02*
D03*
X35000Y324800D02*
D03*
X109700Y320000D02*
D03*
X303200Y246000D02*
D03*
X249200Y273700D02*
D03*
X213000Y256600D02*
D03*
X241300Y233600D02*
D03*
X70300Y137300D02*
D03*
X289100Y102100D02*
D03*
X90800Y265100D02*
D03*
X192300Y300000D02*
D03*
X185700Y306600D02*
D03*
X279400Y270000D02*
D03*
X278800Y410800D02*
D03*
X27800Y284800D02*
D03*
X122700Y297500D02*
D03*
X358700Y283800D02*
D03*
X381500Y306600D02*
D03*
X700200Y376800D02*
D03*
X870200Y334000D02*
D03*
X681200Y376800D02*
D03*
X947800Y356600D02*
D03*
X987200Y338900D02*
D03*
X959800Y151200D02*
D03*
X883100Y155000D02*
D03*
X384000Y247800D02*
D03*
X145000Y272000D02*
D03*
Y220000D02*
D03*
X327219Y266600D02*
D03*
X379700Y221800D02*
D03*
X332657Y295000D02*
D03*
X683488Y355400D02*
D03*
X714057Y328400D02*
D03*
X659700Y159000D02*
D03*
X652900Y131000D02*
D03*
X668400Y114700D02*
D03*
Y148600D02*
D03*
X761900Y112000D02*
D03*
X803300D02*
D03*
X886400Y125700D02*
D03*
X838000Y110900D02*
D03*
X692100Y43200D02*
D03*
X735000Y30400D02*
D03*
X838500Y96000D02*
D03*
X692000Y58800D02*
D03*
X984100Y107500D02*
D03*
X829400Y107900D02*
D03*
X742600Y50400D02*
D03*
X976000Y27900D02*
D03*
X992900Y432970D02*
D03*
X964900Y432800D02*
D03*
X955800Y459900D02*
D03*
X756400Y475700D02*
D03*
X732600Y477600D02*
D03*
X963600Y456900D02*
D03*
X515571Y299409D02*
D03*
X446846Y149409D02*
D03*
X498000Y292600D02*
D03*
X484700Y279300D02*
D03*
X346300Y168800D02*
D03*
X476200D02*
D03*
X807263Y61600D02*
D03*
X706093Y54793D02*
D03*
X645700Y366900D02*
D03*
X1025676Y351676D02*
D03*
X1042000Y353000D02*
D03*
X1067700Y248400D02*
D03*
X258500Y173500D02*
D03*
X733000Y403200D02*
D03*
X655900Y153700D02*
D03*
X558700Y155700D02*
D03*
X330900Y316500D02*
D03*
X369500Y355100D02*
D03*
X989100Y219500D02*
D03*
X969600Y225300D02*
D03*
X934000Y300600D02*
D03*
X961600Y311700D02*
D03*
X1042900Y408000D02*
D03*
X832400Y15400D02*
D03*
X815500Y32300D02*
D03*
X951800Y53700D02*
D03*
X973600Y395600D02*
D03*
X1043900Y394500D02*
D03*
X1036900Y136300D02*
D03*
X1018600Y58800D02*
D03*
X762900Y328200D02*
D03*
X949700Y251600D02*
D03*
X958400Y77600D02*
D03*
X840300Y62900D02*
D03*
X832400Y172000D02*
D03*
X728600Y188200D02*
D03*
X737700Y233300D02*
D03*
X771600Y229600D02*
D03*
X779100Y61100D02*
D03*
X738800Y64800D02*
D03*
X744500Y70143D02*
D03*
X661500Y90600D02*
D03*
X670200Y106800D02*
D03*
X654900Y84000D02*
D03*
X658350Y175000D02*
D03*
X662700Y195000D02*
D03*
X723900Y213000D02*
D03*
X677200Y384000D02*
D03*
X651500Y372000D02*
D03*
X670400Y350500D02*
D03*
X680237Y362013D02*
D03*
X811720Y215059D02*
D03*
X621100Y291200D02*
D03*
X609700Y70700D02*
D03*
X882400Y150000D02*
D03*
X888900Y148000D02*
D03*
X608100Y83400D02*
D03*
X629500Y295000D02*
D03*
X781600Y207300D02*
D03*
X603200Y195000D02*
D03*
X605200Y41900D02*
D03*
X722300Y43600D02*
D03*
X728600Y59300D02*
D03*
X612000Y40800D02*
D03*
X615800Y158800D02*
D03*
X758400Y92200D02*
D03*
X1068200Y428200D02*
D03*
X1082500Y404900D02*
D03*
X948500Y385200D02*
D03*
X812050Y471750D02*
D03*
X820600Y387900D02*
D03*
X955800Y385100D02*
D03*
X762200Y467800D02*
D03*
X767907Y367450D02*
D03*
X927602Y366600D02*
D03*
X792200Y467800D02*
D03*
X804500Y365300D02*
D03*
X921300D02*
D03*
X850400Y352000D02*
D03*
X785400Y359700D02*
D03*
X776900Y467800D02*
D03*
X873900Y437100D02*
D03*
X833800Y438600D02*
D03*
X966300Y449500D02*
D03*
X825000Y478200D02*
D03*
X850000Y437100D02*
D03*
X708193Y418300D02*
D03*
X692000Y442900D02*
D03*
X715100Y387500D02*
D03*
X795000Y278500D02*
D03*
X875200Y279300D02*
D03*
X915000Y221500D02*
D03*
X800000Y300600D02*
D03*
X724300Y346900D02*
D03*
X895000Y221500D02*
D03*
X384100Y196000D02*
D03*
X922200Y281600D02*
D03*
X956100Y282000D02*
D03*
X960500Y225600D02*
D03*
X739900Y301800D02*
D03*
X718000Y352900D02*
D03*
X667100Y420000D02*
D03*
X372700D02*
D03*
X822800Y216600D02*
D03*
X744200Y286200D02*
D03*
X836043Y282600D02*
D03*
X528800Y319800D02*
D03*
X543500Y266400D02*
D03*
X533200Y325500D02*
D03*
X639700Y149500D02*
D03*
X930600Y167700D02*
D03*
X695900Y185000D02*
D03*
X948100Y156400D02*
D03*
X924100Y208900D02*
D03*
X662700Y215900D02*
D03*
X1041300Y185000D02*
D03*
X1041200Y297900D02*
D03*
X1038529Y316600D02*
D03*
X1035800Y290100D02*
D03*
X795100Y346400D02*
D03*
X926300Y217550D02*
D03*
X655800Y201100D02*
D03*
X1045000Y239500D02*
D03*
X1088900Y260100D02*
D03*
M02*
