G04 Layer_Color=65535*
%FSLAX25Y25*%
%MOIN*%
G70*
G01*
G75*
%ADD23C,0.01000*%
%ADD35C,0.00984*%
%ADD36C,0.02362*%
%ADD37C,0.00787*%
%ADD38R,0.11024X0.03150*%
%ADD39R,0.03150X0.11024*%
G36*
X569096Y32379D02*
X568364D01*
Y32955D01*
X568354Y32945D01*
X568345Y32926D01*
X568315Y32896D01*
X568276Y32847D01*
X568237Y32799D01*
X568179Y32740D01*
X568110Y32682D01*
X568032Y32613D01*
X567944Y32555D01*
X567847Y32486D01*
X567739Y32428D01*
X567632Y32379D01*
X567505Y32330D01*
X567369Y32301D01*
X567222Y32281D01*
X567066Y32272D01*
X567007D01*
X566968Y32281D01*
X566861Y32291D01*
X566734Y32311D01*
X566568Y32350D01*
X566402Y32399D01*
X566217Y32477D01*
X566041Y32574D01*
X566032D01*
X566022Y32584D01*
X565963Y32633D01*
X565885Y32701D01*
X565778Y32799D01*
X565670Y32916D01*
X565544Y33062D01*
X565436Y33228D01*
X565329Y33423D01*
Y33433D01*
X565319Y33453D01*
X565309Y33482D01*
X565290Y33521D01*
X565270Y33570D01*
X565251Y33638D01*
X565202Y33794D01*
X565153Y33980D01*
X565114Y34194D01*
X565085Y34429D01*
X565075Y34692D01*
Y34702D01*
Y34721D01*
Y34760D01*
Y34809D01*
X565085Y34868D01*
Y34946D01*
X565104Y35112D01*
X565134Y35307D01*
X565173Y35512D01*
X565221Y35736D01*
X565300Y35951D01*
Y35961D01*
X565309Y35980D01*
X565329Y36010D01*
X565348Y36049D01*
X565397Y36146D01*
X565475Y36273D01*
X565573Y36420D01*
X565690Y36566D01*
X565827Y36703D01*
X565992Y36830D01*
X566002D01*
X566012Y36839D01*
X566071Y36878D01*
X566168Y36927D01*
X566295Y36986D01*
X566451Y37034D01*
X566627Y37083D01*
X566822Y37122D01*
X567027Y37132D01*
X567095D01*
X567173Y37122D01*
X567281Y37113D01*
X567388Y37083D01*
X567515Y37054D01*
X567642Y37005D01*
X567769Y36947D01*
X567788Y36937D01*
X567827Y36917D01*
X567886Y36878D01*
X567964Y36820D01*
X568042Y36761D01*
X568140Y36683D01*
X568227Y36586D01*
X568306Y36488D01*
Y38791D01*
X569096D01*
Y32379D01*
D02*
G37*
G36*
X485599Y37122D02*
X485697Y37113D01*
X485814Y37093D01*
X485951Y37064D01*
X486078Y37025D01*
X486214Y36976D01*
X486234Y36966D01*
X486273Y36947D01*
X486331Y36917D01*
X486409Y36869D01*
X486497Y36810D01*
X486585Y36742D01*
X486673Y36664D01*
X486741Y36576D01*
X486751Y36566D01*
X486771Y36537D01*
X486800Y36478D01*
X486839Y36410D01*
X486878Y36332D01*
X486917Y36234D01*
X486956Y36117D01*
X486985Y36000D01*
Y35990D01*
X486995Y35961D01*
X487005Y35902D01*
X487015Y35824D01*
Y35717D01*
X487024Y35580D01*
X487034Y35424D01*
Y35229D01*
Y32379D01*
X486243D01*
Y35200D01*
Y35209D01*
Y35219D01*
Y35278D01*
Y35366D01*
X486234Y35473D01*
X486224Y35580D01*
X486204Y35707D01*
X486175Y35814D01*
X486146Y35912D01*
Y35922D01*
X486126Y35951D01*
X486107Y36000D01*
X486078Y36049D01*
X486029Y36117D01*
X485970Y36176D01*
X485902Y36244D01*
X485824Y36303D01*
X485814Y36312D01*
X485785Y36322D01*
X485736Y36351D01*
X485668Y36381D01*
X485590Y36400D01*
X485492Y36429D01*
X485394Y36439D01*
X485277Y36449D01*
X485189D01*
X485102Y36429D01*
X484975Y36410D01*
X484838Y36371D01*
X484701Y36312D01*
X484545Y36234D01*
X484409Y36127D01*
X484389Y36107D01*
X484350Y36059D01*
X484292Y35980D01*
X484262Y35922D01*
X484233Y35854D01*
X484194Y35776D01*
X484165Y35688D01*
X484135Y35590D01*
X484106Y35483D01*
X484077Y35356D01*
X484067Y35219D01*
X484048Y35073D01*
Y34917D01*
Y32379D01*
X483257D01*
Y37025D01*
X483969D01*
Y36361D01*
X483979Y36371D01*
X483989Y36390D01*
X484018Y36429D01*
X484067Y36478D01*
X484116Y36537D01*
X484184Y36605D01*
X484253Y36673D01*
X484340Y36751D01*
X484448Y36820D01*
X484555Y36888D01*
X484672Y36956D01*
X484809Y37015D01*
X484945Y37064D01*
X485102Y37103D01*
X485267Y37122D01*
X485443Y37132D01*
X485511D01*
X485599Y37122D01*
D02*
G37*
G36*
X564236D02*
X564343Y37103D01*
X564460Y37064D01*
X564597Y37025D01*
X564743Y36956D01*
X564899Y36869D01*
X564616Y36146D01*
X564607Y36156D01*
X564568Y36176D01*
X564509Y36205D01*
X564441Y36234D01*
X564353Y36263D01*
X564255Y36293D01*
X564148Y36312D01*
X564041Y36322D01*
X564001D01*
X563953Y36312D01*
X563884Y36303D01*
X563816Y36283D01*
X563738Y36254D01*
X563660Y36215D01*
X563582Y36166D01*
X563572Y36156D01*
X563553Y36137D01*
X563513Y36098D01*
X563474Y36049D01*
X563426Y35990D01*
X563377Y35912D01*
X563338Y35824D01*
X563299Y35727D01*
X563289Y35707D01*
X563279Y35658D01*
X563260Y35570D01*
X563240Y35453D01*
X563211Y35317D01*
X563191Y35161D01*
X563182Y34995D01*
X563172Y34809D01*
Y32379D01*
X562381D01*
Y37025D01*
X563094D01*
Y36332D01*
X563103Y36342D01*
X563143Y36400D01*
X563191Y36488D01*
X563250Y36586D01*
X563328Y36693D01*
X563416Y36800D01*
X563494Y36898D01*
X563582Y36966D01*
X563591Y36976D01*
X563621Y36996D01*
X563670Y37015D01*
X563738Y37054D01*
X563806Y37083D01*
X563894Y37103D01*
X563992Y37122D01*
X564089Y37132D01*
X564158D01*
X564236Y37122D01*
D02*
G37*
G36*
X510643D02*
X510712D01*
X510780Y37113D01*
X510956Y37083D01*
X511151Y37034D01*
X511366Y36966D01*
X511571Y36869D01*
X511756Y36742D01*
X511766D01*
X511776Y36722D01*
X511834Y36673D01*
X511912Y36586D01*
X512010Y36468D01*
X512117Y36312D01*
X512215Y36127D01*
X512303Y35902D01*
X512371Y35658D01*
X511610Y35541D01*
Y35551D01*
X511600Y35561D01*
X511590Y35619D01*
X511561Y35697D01*
X511522Y35805D01*
X511463Y35922D01*
X511395Y36039D01*
X511317Y36146D01*
X511219Y36244D01*
X511210Y36254D01*
X511171Y36283D01*
X511112Y36322D01*
X511034Y36371D01*
X510936Y36410D01*
X510829Y36449D01*
X510692Y36478D01*
X510556Y36488D01*
X510497D01*
X510458Y36478D01*
X510351Y36468D01*
X510214Y36439D01*
X510058Y36381D01*
X509902Y36303D01*
X509736Y36205D01*
X509658Y36137D01*
X509589Y36059D01*
X509570Y36039D01*
X509560Y36010D01*
X509531Y35980D01*
X509502Y35932D01*
X509472Y35873D01*
X509443Y35805D01*
X509414Y35727D01*
X509375Y35639D01*
X509345Y35541D01*
X509316Y35424D01*
X509287Y35307D01*
X509258Y35170D01*
X509248Y35024D01*
X509228Y34868D01*
Y34702D01*
Y34692D01*
Y34663D01*
Y34614D01*
X509238Y34546D01*
Y34468D01*
X509248Y34380D01*
X509277Y34185D01*
X509316Y33960D01*
X509375Y33726D01*
X509463Y33521D01*
X509521Y33423D01*
X509580Y33336D01*
X509599Y33316D01*
X509648Y33267D01*
X509726Y33199D01*
X509833Y33130D01*
X509960Y33052D01*
X510126Y32984D01*
X510302Y32935D01*
X510399Y32926D01*
X510507Y32916D01*
X510585D01*
X510673Y32935D01*
X510780Y32955D01*
X510897Y32984D01*
X511034Y33033D01*
X511161Y33101D01*
X511278Y33199D01*
X511288Y33209D01*
X511327Y33257D01*
X511385Y33316D01*
X511444Y33414D01*
X511512Y33540D01*
X511581Y33687D01*
X511639Y33872D01*
X511678Y34077D01*
X512449Y33970D01*
Y33960D01*
X512439Y33931D01*
X512430Y33892D01*
X512420Y33843D01*
X512400Y33775D01*
X512381Y33697D01*
X512322Y33511D01*
X512234Y33316D01*
X512117Y33101D01*
X511971Y32906D01*
X511795Y32721D01*
X511785D01*
X511776Y32701D01*
X511746Y32682D01*
X511707Y32652D01*
X511649Y32613D01*
X511590Y32574D01*
X511444Y32496D01*
X511258Y32418D01*
X511034Y32340D01*
X510790Y32291D01*
X510653Y32281D01*
X510517Y32272D01*
X510429D01*
X510360Y32281D01*
X510282Y32291D01*
X510185Y32301D01*
X510087Y32320D01*
X509970Y32350D01*
X509726Y32418D01*
X509599Y32477D01*
X509472Y32535D01*
X509345Y32603D01*
X509228Y32682D01*
X509111Y32779D01*
X508994Y32886D01*
X508984Y32896D01*
X508965Y32916D01*
X508945Y32955D01*
X508906Y33004D01*
X508857Y33072D01*
X508809Y33150D01*
X508760Y33238D01*
X508711Y33345D01*
X508652Y33462D01*
X508604Y33599D01*
X508555Y33745D01*
X508506Y33911D01*
X508467Y34077D01*
X508448Y34272D01*
X508428Y34468D01*
X508418Y34682D01*
Y34692D01*
Y34712D01*
Y34760D01*
Y34809D01*
X508428Y34878D01*
Y34946D01*
X508448Y35131D01*
X508477Y35336D01*
X508526Y35551D01*
X508584Y35785D01*
X508662Y36000D01*
Y36010D01*
X508672Y36029D01*
X508692Y36059D01*
X508711Y36098D01*
X508770Y36195D01*
X508848Y36322D01*
X508955Y36459D01*
X509082Y36595D01*
X509238Y36732D01*
X509414Y36849D01*
X509423D01*
X509433Y36859D01*
X509463Y36878D01*
X509502Y36898D01*
X509609Y36937D01*
X509746Y36996D01*
X509902Y37044D01*
X510097Y37093D01*
X510302Y37122D01*
X510517Y37132D01*
X510595D01*
X510643Y37122D01*
D02*
G37*
G36*
X559570D02*
X559707Y37113D01*
X559863Y37093D01*
X560029Y37074D01*
X560185Y37034D01*
X560332Y36986D01*
X560351Y36976D01*
X560390Y36966D01*
X560459Y36927D01*
X560537Y36888D01*
X560625Y36839D01*
X560722Y36781D01*
X560800Y36712D01*
X560878Y36634D01*
X560888Y36625D01*
X560908Y36595D01*
X560937Y36556D01*
X560976Y36488D01*
X561015Y36410D01*
X561054Y36322D01*
X561093Y36215D01*
X561122Y36098D01*
Y36088D01*
X561132Y36059D01*
X561142Y36010D01*
X561152Y35932D01*
Y35834D01*
X561161Y35707D01*
X561171Y35561D01*
Y35375D01*
Y34321D01*
Y34312D01*
Y34272D01*
Y34214D01*
Y34146D01*
Y34058D01*
Y33960D01*
X561181Y33736D01*
Y33492D01*
X561191Y33267D01*
X561200Y33160D01*
Y33072D01*
X561210Y32994D01*
X561220Y32926D01*
Y32916D01*
X561230Y32877D01*
X561239Y32818D01*
X561259Y32750D01*
X561288Y32672D01*
X561327Y32574D01*
X561415Y32379D01*
X560595D01*
X560585Y32389D01*
X560576Y32418D01*
X560556Y32477D01*
X560527Y32545D01*
X560498Y32633D01*
X560478Y32730D01*
X560459Y32838D01*
X560439Y32965D01*
X560420Y32945D01*
X560361Y32906D01*
X560283Y32838D01*
X560166Y32760D01*
X560039Y32662D01*
X559893Y32574D01*
X559746Y32496D01*
X559590Y32428D01*
X559570Y32418D01*
X559522Y32408D01*
X559444Y32379D01*
X559336Y32350D01*
X559199Y32320D01*
X559053Y32301D01*
X558897Y32281D01*
X558721Y32272D01*
X558653D01*
X558594Y32281D01*
X558536D01*
X558458Y32291D01*
X558292Y32320D01*
X558097Y32359D01*
X557911Y32428D01*
X557716Y32516D01*
X557550Y32642D01*
X557531Y32662D01*
X557482Y32711D01*
X557423Y32789D01*
X557345Y32906D01*
X557267Y33043D01*
X557208Y33199D01*
X557160Y33394D01*
X557140Y33599D01*
Y33619D01*
Y33658D01*
X557150Y33726D01*
X557160Y33804D01*
X557179Y33902D01*
X557199Y34009D01*
X557238Y34116D01*
X557287Y34224D01*
X557296Y34233D01*
X557316Y34272D01*
X557345Y34321D01*
X557394Y34390D01*
X557452Y34458D01*
X557531Y34536D01*
X557609Y34604D01*
X557696Y34673D01*
X557706Y34682D01*
X557745Y34702D01*
X557794Y34731D01*
X557862Y34770D01*
X557950Y34819D01*
X558038Y34858D01*
X558145Y34897D01*
X558263Y34936D01*
X558272D01*
X558311Y34946D01*
X558360Y34956D01*
X558438Y34975D01*
X558536Y34995D01*
X558663Y35014D01*
X558799Y35034D01*
X558965Y35053D01*
X558975D01*
X559004Y35063D01*
X559053D01*
X559121Y35073D01*
X559199Y35083D01*
X559287Y35092D01*
X559502Y35131D01*
X559727Y35170D01*
X559961Y35209D01*
X560185Y35268D01*
X560283Y35297D01*
X560371Y35326D01*
Y35336D01*
Y35356D01*
X560381Y35414D01*
Y35483D01*
Y35512D01*
Y35531D01*
Y35541D01*
Y35551D01*
Y35610D01*
X560371Y35697D01*
X560351Y35795D01*
X560322Y35902D01*
X560283Y36020D01*
X560234Y36117D01*
X560156Y36205D01*
X560146Y36215D01*
X560097Y36244D01*
X560029Y36293D01*
X559932Y36342D01*
X559805Y36390D01*
X559649Y36439D01*
X559463Y36468D01*
X559258Y36478D01*
X559170D01*
X559073Y36468D01*
X558946Y36459D01*
X558809Y36429D01*
X558682Y36400D01*
X558546Y36351D01*
X558438Y36283D01*
X558428Y36273D01*
X558399Y36244D01*
X558350Y36195D01*
X558292Y36127D01*
X558223Y36029D01*
X558165Y35912D01*
X558097Y35766D01*
X558048Y35600D01*
X557277Y35707D01*
Y35717D01*
X557287Y35727D01*
X557296Y35785D01*
X557326Y35873D01*
X557355Y35990D01*
X557404Y36117D01*
X557462Y36244D01*
X557531Y36381D01*
X557618Y36498D01*
X557628Y36507D01*
X557667Y36546D01*
X557716Y36605D01*
X557794Y36673D01*
X557892Y36742D01*
X558019Y36820D01*
X558155Y36898D01*
X558311Y36966D01*
X558321D01*
X558331Y36976D01*
X558360Y36986D01*
X558389Y36996D01*
X558487Y37015D01*
X558614Y37054D01*
X558770Y37083D01*
X558946Y37103D01*
X559151Y37122D01*
X559365Y37132D01*
X559463D01*
X559570Y37122D01*
D02*
G37*
G36*
X549108Y38782D02*
X549176D01*
X549342Y38772D01*
X549527Y38743D01*
X549723Y38713D01*
X549918Y38664D01*
X550093Y38596D01*
X550103D01*
X550113Y38586D01*
X550172Y38557D01*
X550250Y38508D01*
X550347Y38450D01*
X550464Y38362D01*
X550581Y38254D01*
X550689Y38137D01*
X550796Y37991D01*
X550806Y37971D01*
X550835Y37923D01*
X550874Y37835D01*
X550923Y37727D01*
X550972Y37601D01*
X551011Y37464D01*
X551040Y37308D01*
X551050Y37142D01*
Y37122D01*
Y37074D01*
X551040Y36996D01*
X551021Y36888D01*
X550991Y36771D01*
X550952Y36644D01*
X550904Y36498D01*
X550825Y36361D01*
X550816Y36342D01*
X550786Y36303D01*
X550728Y36234D01*
X550660Y36156D01*
X550562Y36059D01*
X550445Y35971D01*
X550308Y35873D01*
X550142Y35785D01*
X550152D01*
X550172Y35776D01*
X550201Y35766D01*
X550240Y35756D01*
X550347Y35707D01*
X550474Y35649D01*
X550621Y35561D01*
X550767Y35463D01*
X550913Y35346D01*
X551040Y35200D01*
X551050Y35180D01*
X551089Y35131D01*
X551138Y35043D01*
X551206Y34926D01*
X551265Y34780D01*
X551313Y34624D01*
X551353Y34438D01*
X551362Y34233D01*
Y34214D01*
Y34155D01*
X551353Y34067D01*
X551343Y33960D01*
X551313Y33833D01*
X551284Y33687D01*
X551235Y33540D01*
X551167Y33394D01*
X551157Y33375D01*
X551138Y33326D01*
X551089Y33257D01*
X551040Y33170D01*
X550972Y33072D01*
X550894Y32974D01*
X550796Y32877D01*
X550699Y32789D01*
X550689Y32779D01*
X550650Y32760D01*
X550591Y32721D01*
X550503Y32672D01*
X550406Y32623D01*
X550279Y32574D01*
X550142Y32525D01*
X549996Y32477D01*
X549976D01*
X549918Y32457D01*
X549830Y32447D01*
X549713Y32428D01*
X549557Y32408D01*
X549381Y32399D01*
X549186Y32379D01*
X546521D01*
Y38791D01*
X549039D01*
X549108Y38782D01*
D02*
G37*
G36*
X537669D02*
X537737D01*
X537903Y38772D01*
X538089Y38743D01*
X538284Y38713D01*
X538479Y38664D01*
X538655Y38596D01*
X538664D01*
X538674Y38586D01*
X538733Y38557D01*
X538811Y38508D01*
X538908Y38450D01*
X539026Y38362D01*
X539143Y38254D01*
X539250Y38137D01*
X539357Y37991D01*
X539367Y37971D01*
X539396Y37923D01*
X539435Y37835D01*
X539484Y37727D01*
X539533Y37601D01*
X539572Y37464D01*
X539601Y37308D01*
X539611Y37142D01*
Y37122D01*
Y37074D01*
X539601Y36996D01*
X539582Y36888D01*
X539553Y36771D01*
X539514Y36644D01*
X539465Y36498D01*
X539387Y36361D01*
X539377Y36342D01*
X539348Y36303D01*
X539289Y36234D01*
X539221Y36156D01*
X539123Y36059D01*
X539006Y35971D01*
X538869Y35873D01*
X538703Y35785D01*
X538713D01*
X538733Y35776D01*
X538762Y35766D01*
X538801Y35756D01*
X538908Y35707D01*
X539035Y35649D01*
X539182Y35561D01*
X539328Y35463D01*
X539475Y35346D01*
X539601Y35200D01*
X539611Y35180D01*
X539650Y35131D01*
X539699Y35043D01*
X539767Y34926D01*
X539826Y34780D01*
X539875Y34624D01*
X539914Y34438D01*
X539923Y34233D01*
Y34214D01*
Y34155D01*
X539914Y34067D01*
X539904Y33960D01*
X539875Y33833D01*
X539845Y33687D01*
X539797Y33540D01*
X539728Y33394D01*
X539719Y33375D01*
X539699Y33326D01*
X539650Y33257D01*
X539601Y33170D01*
X539533Y33072D01*
X539455Y32974D01*
X539357Y32877D01*
X539260Y32789D01*
X539250Y32779D01*
X539211Y32760D01*
X539152Y32721D01*
X539065Y32672D01*
X538967Y32623D01*
X538840Y32574D01*
X538703Y32525D01*
X538557Y32477D01*
X538538D01*
X538479Y32457D01*
X538391Y32447D01*
X538274Y32428D01*
X538118Y32408D01*
X537942Y32399D01*
X537747Y32379D01*
X535083D01*
Y38791D01*
X537601D01*
X537669Y38782D01*
D02*
G37*
G36*
X531696D02*
X531764D01*
X531930Y38772D01*
X532116Y38743D01*
X532311Y38713D01*
X532506Y38664D01*
X532682Y38596D01*
X532691D01*
X532701Y38586D01*
X532760Y38557D01*
X532838Y38508D01*
X532935Y38450D01*
X533052Y38362D01*
X533170Y38254D01*
X533277Y38137D01*
X533384Y37991D01*
X533394Y37971D01*
X533423Y37923D01*
X533462Y37835D01*
X533511Y37727D01*
X533560Y37601D01*
X533599Y37464D01*
X533628Y37308D01*
X533638Y37142D01*
Y37122D01*
Y37074D01*
X533628Y36996D01*
X533609Y36888D01*
X533579Y36771D01*
X533540Y36644D01*
X533492Y36498D01*
X533414Y36361D01*
X533404Y36342D01*
X533375Y36303D01*
X533316Y36234D01*
X533248Y36156D01*
X533150Y36059D01*
X533033Y35971D01*
X532896Y35873D01*
X532730Y35785D01*
X532740D01*
X532760Y35776D01*
X532789Y35766D01*
X532828Y35756D01*
X532935Y35707D01*
X533062Y35649D01*
X533209Y35561D01*
X533355Y35463D01*
X533501Y35346D01*
X533628Y35200D01*
X533638Y35180D01*
X533677Y35131D01*
X533726Y35043D01*
X533794Y34926D01*
X533853Y34780D01*
X533902Y34624D01*
X533941Y34438D01*
X533950Y34233D01*
Y34214D01*
Y34155D01*
X533941Y34067D01*
X533931Y33960D01*
X533902Y33833D01*
X533872Y33687D01*
X533823Y33540D01*
X533755Y33394D01*
X533745Y33375D01*
X533726Y33326D01*
X533677Y33257D01*
X533628Y33170D01*
X533560Y33072D01*
X533482Y32974D01*
X533384Y32877D01*
X533287Y32789D01*
X533277Y32779D01*
X533238Y32760D01*
X533179Y32721D01*
X533091Y32672D01*
X532994Y32623D01*
X532867Y32574D01*
X532730Y32525D01*
X532584Y32477D01*
X532564D01*
X532506Y32457D01*
X532418Y32447D01*
X532301Y32428D01*
X532145Y32408D01*
X531969Y32399D01*
X531774Y32379D01*
X529109D01*
Y38791D01*
X531628D01*
X531696Y38782D01*
D02*
G37*
G36*
X525723D02*
X525791D01*
X525957Y38772D01*
X526142Y38743D01*
X526338Y38713D01*
X526533Y38664D01*
X526709Y38596D01*
X526718D01*
X526728Y38586D01*
X526787Y38557D01*
X526865Y38508D01*
X526962Y38450D01*
X527079Y38362D01*
X527197Y38254D01*
X527304Y38137D01*
X527411Y37991D01*
X527421Y37971D01*
X527450Y37923D01*
X527489Y37835D01*
X527538Y37727D01*
X527587Y37601D01*
X527626Y37464D01*
X527655Y37308D01*
X527665Y37142D01*
Y37122D01*
Y37074D01*
X527655Y36996D01*
X527636Y36888D01*
X527606Y36771D01*
X527567Y36644D01*
X527519Y36498D01*
X527441Y36361D01*
X527431Y36342D01*
X527401Y36303D01*
X527343Y36234D01*
X527275Y36156D01*
X527177Y36059D01*
X527060Y35971D01*
X526923Y35873D01*
X526757Y35785D01*
X526767D01*
X526787Y35776D01*
X526816Y35766D01*
X526855Y35756D01*
X526962Y35707D01*
X527089Y35649D01*
X527236Y35561D01*
X527382Y35463D01*
X527528Y35346D01*
X527655Y35200D01*
X527665Y35180D01*
X527704Y35131D01*
X527753Y35043D01*
X527821Y34926D01*
X527880Y34780D01*
X527928Y34624D01*
X527968Y34438D01*
X527977Y34233D01*
Y34214D01*
Y34155D01*
X527968Y34067D01*
X527958Y33960D01*
X527928Y33833D01*
X527899Y33687D01*
X527850Y33540D01*
X527782Y33394D01*
X527772Y33375D01*
X527753Y33326D01*
X527704Y33257D01*
X527655Y33170D01*
X527587Y33072D01*
X527509Y32974D01*
X527411Y32877D01*
X527314Y32789D01*
X527304Y32779D01*
X527265Y32760D01*
X527206Y32721D01*
X527118Y32672D01*
X527021Y32623D01*
X526894Y32574D01*
X526757Y32525D01*
X526611Y32477D01*
X526591D01*
X526533Y32457D01*
X526445Y32447D01*
X526328Y32428D01*
X526172Y32408D01*
X525996Y32399D01*
X525801Y32379D01*
X523136D01*
Y38791D01*
X525654D01*
X525723Y38782D01*
D02*
G37*
G36*
X513913Y35141D02*
X515777Y37025D01*
X516802D01*
X515026Y35297D01*
X516978Y32379D01*
X516002D01*
X514460Y34751D01*
X513913Y34224D01*
Y32379D01*
X513123D01*
Y38791D01*
X513913D01*
Y35141D01*
D02*
G37*
G36*
X505832Y37122D02*
X505969Y37113D01*
X506125Y37093D01*
X506291Y37074D01*
X506447Y37034D01*
X506593Y36986D01*
X506613Y36976D01*
X506652Y36966D01*
X506720Y36927D01*
X506798Y36888D01*
X506886Y36839D01*
X506984Y36781D01*
X507062Y36712D01*
X507140Y36634D01*
X507149Y36625D01*
X507169Y36595D01*
X507198Y36556D01*
X507237Y36488D01*
X507276Y36410D01*
X507315Y36322D01*
X507354Y36215D01*
X507384Y36098D01*
Y36088D01*
X507393Y36059D01*
X507403Y36010D01*
X507413Y35932D01*
Y35834D01*
X507423Y35707D01*
X507433Y35561D01*
Y35375D01*
Y34321D01*
Y34312D01*
Y34272D01*
Y34214D01*
Y34146D01*
Y34058D01*
Y33960D01*
X507442Y33736D01*
Y33492D01*
X507452Y33267D01*
X507462Y33160D01*
Y33072D01*
X507472Y32994D01*
X507481Y32926D01*
Y32916D01*
X507491Y32877D01*
X507501Y32818D01*
X507520Y32750D01*
X507550Y32672D01*
X507589Y32574D01*
X507677Y32379D01*
X506857D01*
X506847Y32389D01*
X506837Y32418D01*
X506818Y32477D01*
X506788Y32545D01*
X506759Y32633D01*
X506740Y32730D01*
X506720Y32838D01*
X506701Y32965D01*
X506681Y32945D01*
X506622Y32906D01*
X506544Y32838D01*
X506427Y32760D01*
X506300Y32662D01*
X506154Y32574D01*
X506007Y32496D01*
X505851Y32428D01*
X505832Y32418D01*
X505783Y32408D01*
X505705Y32379D01*
X505598Y32350D01*
X505461Y32320D01*
X505315Y32301D01*
X505158Y32281D01*
X504983Y32272D01*
X504914D01*
X504856Y32281D01*
X504797D01*
X504719Y32291D01*
X504553Y32320D01*
X504358Y32359D01*
X504173Y32428D01*
X503977Y32516D01*
X503812Y32642D01*
X503792Y32662D01*
X503743Y32711D01*
X503685Y32789D01*
X503607Y32906D01*
X503528Y33043D01*
X503470Y33199D01*
X503421Y33394D01*
X503402Y33599D01*
Y33619D01*
Y33658D01*
X503411Y33726D01*
X503421Y33804D01*
X503441Y33902D01*
X503460Y34009D01*
X503499Y34116D01*
X503548Y34224D01*
X503558Y34233D01*
X503577Y34272D01*
X503607Y34321D01*
X503655Y34390D01*
X503714Y34458D01*
X503792Y34536D01*
X503870Y34604D01*
X503958Y34673D01*
X503968Y34682D01*
X504007Y34702D01*
X504056Y34731D01*
X504124Y34770D01*
X504212Y34819D01*
X504299Y34858D01*
X504407Y34897D01*
X504524Y34936D01*
X504534D01*
X504573Y34946D01*
X504622Y34956D01*
X504700Y34975D01*
X504797Y34995D01*
X504924Y35014D01*
X505061Y35034D01*
X505227Y35053D01*
X505236D01*
X505266Y35063D01*
X505315D01*
X505383Y35073D01*
X505461Y35083D01*
X505549Y35092D01*
X505763Y35131D01*
X505988Y35170D01*
X506222Y35209D01*
X506447Y35268D01*
X506544Y35297D01*
X506632Y35326D01*
Y35336D01*
Y35356D01*
X506642Y35414D01*
Y35483D01*
Y35512D01*
Y35531D01*
Y35541D01*
Y35551D01*
Y35610D01*
X506632Y35697D01*
X506613Y35795D01*
X506583Y35902D01*
X506544Y36020D01*
X506496Y36117D01*
X506417Y36205D01*
X506408Y36215D01*
X506359Y36244D01*
X506291Y36293D01*
X506193Y36342D01*
X506066Y36390D01*
X505910Y36439D01*
X505724Y36468D01*
X505519Y36478D01*
X505432D01*
X505334Y36468D01*
X505207Y36459D01*
X505071Y36429D01*
X504944Y36400D01*
X504807Y36351D01*
X504700Y36283D01*
X504690Y36273D01*
X504661Y36244D01*
X504612Y36195D01*
X504553Y36127D01*
X504485Y36029D01*
X504426Y35912D01*
X504358Y35766D01*
X504309Y35600D01*
X503538Y35707D01*
Y35717D01*
X503548Y35727D01*
X503558Y35785D01*
X503587Y35873D01*
X503616Y35990D01*
X503665Y36117D01*
X503724Y36244D01*
X503792Y36381D01*
X503880Y36498D01*
X503890Y36507D01*
X503929Y36546D01*
X503977Y36605D01*
X504056Y36673D01*
X504153Y36742D01*
X504280Y36820D01*
X504417Y36898D01*
X504573Y36966D01*
X504583D01*
X504592Y36976D01*
X504622Y36986D01*
X504651Y36996D01*
X504748Y37015D01*
X504875Y37054D01*
X505031Y37083D01*
X505207Y37103D01*
X505412Y37122D01*
X505627Y37132D01*
X505724D01*
X505832Y37122D01*
D02*
G37*
G36*
X502455Y32379D02*
X501664D01*
Y38791D01*
X502455D01*
Y32379D01*
D02*
G37*
G36*
X498356Y38782D02*
X498424D01*
X498590Y38772D01*
X498775Y38743D01*
X498971Y38713D01*
X499166Y38664D01*
X499341Y38596D01*
X499351D01*
X499361Y38586D01*
X499419Y38557D01*
X499498Y38508D01*
X499595Y38450D01*
X499712Y38362D01*
X499829Y38254D01*
X499937Y38137D01*
X500044Y37991D01*
X500054Y37971D01*
X500083Y37923D01*
X500122Y37835D01*
X500171Y37727D01*
X500220Y37601D01*
X500259Y37464D01*
X500288Y37308D01*
X500298Y37142D01*
Y37122D01*
Y37074D01*
X500288Y36996D01*
X500269Y36888D01*
X500239Y36771D01*
X500200Y36644D01*
X500151Y36498D01*
X500073Y36361D01*
X500064Y36342D01*
X500034Y36303D01*
X499976Y36234D01*
X499907Y36156D01*
X499810Y36059D01*
X499693Y35971D01*
X499556Y35873D01*
X499390Y35785D01*
X499400D01*
X499419Y35776D01*
X499449Y35766D01*
X499488Y35756D01*
X499595Y35707D01*
X499722Y35649D01*
X499868Y35561D01*
X500015Y35463D01*
X500161Y35346D01*
X500288Y35200D01*
X500298Y35180D01*
X500337Y35131D01*
X500386Y35043D01*
X500454Y34926D01*
X500513Y34780D01*
X500561Y34624D01*
X500600Y34438D01*
X500610Y34233D01*
Y34214D01*
Y34155D01*
X500600Y34067D01*
X500591Y33960D01*
X500561Y33833D01*
X500532Y33687D01*
X500483Y33540D01*
X500415Y33394D01*
X500405Y33375D01*
X500386Y33326D01*
X500337Y33257D01*
X500288Y33170D01*
X500220Y33072D01*
X500142Y32974D01*
X500044Y32877D01*
X499947Y32789D01*
X499937Y32779D01*
X499898Y32760D01*
X499839Y32721D01*
X499751Y32672D01*
X499654Y32623D01*
X499527Y32574D01*
X499390Y32525D01*
X499244Y32477D01*
X499224D01*
X499166Y32457D01*
X499078Y32447D01*
X498961Y32428D01*
X498805Y32408D01*
X498629Y32399D01*
X498434Y32379D01*
X495769D01*
Y38791D01*
X498287D01*
X498356Y38782D01*
D02*
G37*
G36*
X474961D02*
X475029D01*
X475195Y38772D01*
X475381Y38743D01*
X475576Y38713D01*
X475771Y38664D01*
X475947Y38596D01*
X475956D01*
X475966Y38586D01*
X476025Y38557D01*
X476103Y38508D01*
X476200Y38450D01*
X476318Y38362D01*
X476435Y38254D01*
X476542Y38137D01*
X476649Y37991D01*
X476659Y37971D01*
X476688Y37923D01*
X476727Y37835D01*
X476776Y37727D01*
X476825Y37601D01*
X476864Y37464D01*
X476893Y37308D01*
X476903Y37142D01*
Y37122D01*
Y37074D01*
X476893Y36996D01*
X476874Y36888D01*
X476845Y36771D01*
X476806Y36644D01*
X476757Y36498D01*
X476679Y36361D01*
X476669Y36342D01*
X476640Y36303D01*
X476581Y36234D01*
X476513Y36156D01*
X476415Y36059D01*
X476298Y35971D01*
X476161Y35873D01*
X475995Y35785D01*
X476005D01*
X476025Y35776D01*
X476054Y35766D01*
X476093Y35756D01*
X476200Y35707D01*
X476327Y35649D01*
X476474Y35561D01*
X476620Y35463D01*
X476767Y35346D01*
X476893Y35200D01*
X476903Y35180D01*
X476942Y35131D01*
X476991Y35043D01*
X477059Y34926D01*
X477118Y34780D01*
X477167Y34624D01*
X477206Y34438D01*
X477215Y34233D01*
Y34214D01*
Y34155D01*
X477206Y34067D01*
X477196Y33960D01*
X477167Y33833D01*
X477137Y33687D01*
X477089Y33540D01*
X477020Y33394D01*
X477011Y33375D01*
X476991Y33326D01*
X476942Y33257D01*
X476893Y33170D01*
X476825Y33072D01*
X476747Y32974D01*
X476649Y32877D01*
X476552Y32789D01*
X476542Y32779D01*
X476503Y32760D01*
X476444Y32721D01*
X476357Y32672D01*
X476259Y32623D01*
X476132Y32574D01*
X475995Y32525D01*
X475849Y32477D01*
X475830D01*
X475771Y32457D01*
X475683Y32447D01*
X475566Y32428D01*
X475410Y32408D01*
X475234Y32399D01*
X475039Y32379D01*
X472375D01*
Y38791D01*
X474893D01*
X474961Y38782D01*
D02*
G37*
G36*
X466118Y32379D02*
X465328D01*
Y38791D01*
X466118D01*
Y32379D01*
D02*
G37*
G36*
X457549Y37122D02*
X457686Y37113D01*
X457842Y37093D01*
X458008Y37074D01*
X458164Y37034D01*
X458310Y36986D01*
X458330Y36976D01*
X458369Y36966D01*
X458437Y36927D01*
X458515Y36888D01*
X458603Y36839D01*
X458701Y36781D01*
X458779Y36712D01*
X458857Y36634D01*
X458867Y36625D01*
X458886Y36595D01*
X458916Y36556D01*
X458955Y36488D01*
X458994Y36410D01*
X459033Y36322D01*
X459072Y36215D01*
X459101Y36098D01*
Y36088D01*
X459111Y36059D01*
X459121Y36010D01*
X459130Y35932D01*
Y35834D01*
X459140Y35707D01*
X459150Y35561D01*
Y35375D01*
Y34321D01*
Y34312D01*
Y34272D01*
Y34214D01*
Y34146D01*
Y34058D01*
Y33960D01*
X459160Y33736D01*
Y33492D01*
X459169Y33267D01*
X459179Y33160D01*
Y33072D01*
X459189Y32994D01*
X459199Y32926D01*
Y32916D01*
X459208Y32877D01*
X459218Y32818D01*
X459238Y32750D01*
X459267Y32672D01*
X459306Y32574D01*
X459394Y32379D01*
X458574D01*
X458564Y32389D01*
X458554Y32418D01*
X458535Y32477D01*
X458506Y32545D01*
X458476Y32633D01*
X458457Y32730D01*
X458437Y32838D01*
X458418Y32965D01*
X458398Y32945D01*
X458340Y32906D01*
X458262Y32838D01*
X458145Y32760D01*
X458018Y32662D01*
X457871Y32574D01*
X457725Y32496D01*
X457569Y32428D01*
X457549Y32418D01*
X457500Y32408D01*
X457422Y32379D01*
X457315Y32350D01*
X457178Y32320D01*
X457032Y32301D01*
X456876Y32281D01*
X456700Y32272D01*
X456632D01*
X456573Y32281D01*
X456515D01*
X456436Y32291D01*
X456271Y32320D01*
X456075Y32359D01*
X455890Y32428D01*
X455695Y32516D01*
X455529Y32642D01*
X455509Y32662D01*
X455461Y32711D01*
X455402Y32789D01*
X455324Y32906D01*
X455246Y33043D01*
X455187Y33199D01*
X455138Y33394D01*
X455119Y33599D01*
Y33619D01*
Y33658D01*
X455129Y33726D01*
X455138Y33804D01*
X455158Y33902D01*
X455177Y34009D01*
X455217Y34116D01*
X455265Y34224D01*
X455275Y34233D01*
X455295Y34272D01*
X455324Y34321D01*
X455373Y34390D01*
X455431Y34458D01*
X455509Y34536D01*
X455587Y34604D01*
X455675Y34673D01*
X455685Y34682D01*
X455724Y34702D01*
X455773Y34731D01*
X455841Y34770D01*
X455929Y34819D01*
X456017Y34858D01*
X456124Y34897D01*
X456241Y34936D01*
X456251D01*
X456290Y34946D01*
X456339Y34956D01*
X456417Y34975D01*
X456515Y34995D01*
X456641Y35014D01*
X456778Y35034D01*
X456944Y35053D01*
X456954D01*
X456983Y35063D01*
X457032D01*
X457100Y35073D01*
X457178Y35083D01*
X457266Y35092D01*
X457481Y35131D01*
X457705Y35170D01*
X457939Y35209D01*
X458164Y35268D01*
X458262Y35297D01*
X458349Y35326D01*
Y35336D01*
Y35356D01*
X458359Y35414D01*
Y35483D01*
Y35512D01*
Y35531D01*
Y35541D01*
Y35551D01*
Y35610D01*
X458349Y35697D01*
X458330Y35795D01*
X458301Y35902D01*
X458262Y36020D01*
X458213Y36117D01*
X458135Y36205D01*
X458125Y36215D01*
X458076Y36244D01*
X458008Y36293D01*
X457910Y36342D01*
X457783Y36390D01*
X457627Y36439D01*
X457442Y36468D01*
X457237Y36478D01*
X457149D01*
X457051Y36468D01*
X456924Y36459D01*
X456788Y36429D01*
X456661Y36400D01*
X456524Y36351D01*
X456417Y36283D01*
X456407Y36273D01*
X456378Y36244D01*
X456329Y36195D01*
X456271Y36127D01*
X456202Y36029D01*
X456144Y35912D01*
X456075Y35766D01*
X456027Y35600D01*
X455256Y35707D01*
Y35717D01*
X455265Y35727D01*
X455275Y35785D01*
X455304Y35873D01*
X455334Y35990D01*
X455382Y36117D01*
X455441Y36244D01*
X455509Y36381D01*
X455597Y36498D01*
X455607Y36507D01*
X455646Y36546D01*
X455695Y36605D01*
X455773Y36673D01*
X455870Y36742D01*
X455997Y36820D01*
X456134Y36898D01*
X456290Y36966D01*
X456300D01*
X456310Y36976D01*
X456339Y36986D01*
X456368Y36996D01*
X456466Y37015D01*
X456593Y37054D01*
X456749Y37083D01*
X456924Y37103D01*
X457129Y37122D01*
X457344Y37132D01*
X457442D01*
X457549Y37122D01*
D02*
G37*
G36*
X447086Y38782D02*
X447155D01*
X447321Y38772D01*
X447506Y38743D01*
X447701Y38713D01*
X447896Y38664D01*
X448072Y38596D01*
X448082D01*
X448092Y38586D01*
X448150Y38557D01*
X448228Y38508D01*
X448326Y38450D01*
X448443Y38362D01*
X448560Y38254D01*
X448667Y38137D01*
X448775Y37991D01*
X448785Y37971D01*
X448814Y37923D01*
X448853Y37835D01*
X448902Y37727D01*
X448951Y37601D01*
X448990Y37464D01*
X449019Y37308D01*
X449029Y37142D01*
Y37122D01*
Y37074D01*
X449019Y36996D01*
X448999Y36888D01*
X448970Y36771D01*
X448931Y36644D01*
X448882Y36498D01*
X448804Y36361D01*
X448794Y36342D01*
X448765Y36303D01*
X448707Y36234D01*
X448638Y36156D01*
X448541Y36059D01*
X448423Y35971D01*
X448287Y35873D01*
X448121Y35785D01*
X448131D01*
X448150Y35776D01*
X448179Y35766D01*
X448219Y35756D01*
X448326Y35707D01*
X448453Y35649D01*
X448599Y35561D01*
X448746Y35463D01*
X448892Y35346D01*
X449019Y35200D01*
X449029Y35180D01*
X449068Y35131D01*
X449117Y35043D01*
X449185Y34926D01*
X449243Y34780D01*
X449292Y34624D01*
X449331Y34438D01*
X449341Y34233D01*
Y34214D01*
Y34155D01*
X449331Y34067D01*
X449321Y33960D01*
X449292Y33833D01*
X449263Y33687D01*
X449214Y33540D01*
X449146Y33394D01*
X449136Y33375D01*
X449117Y33326D01*
X449068Y33257D01*
X449019Y33170D01*
X448951Y33072D01*
X448873Y32974D01*
X448775Y32877D01*
X448677Y32789D01*
X448667Y32779D01*
X448629Y32760D01*
X448570Y32721D01*
X448482Y32672D01*
X448385Y32623D01*
X448258Y32574D01*
X448121Y32525D01*
X447975Y32477D01*
X447955D01*
X447896Y32457D01*
X447809Y32447D01*
X447691Y32428D01*
X447535Y32408D01*
X447360Y32399D01*
X447164Y32379D01*
X444500D01*
Y38791D01*
X447018D01*
X447086Y38782D01*
D02*
G37*
G36*
X554466Y37122D02*
X554554Y37113D01*
X554642Y37103D01*
X554749Y37083D01*
X554866Y37054D01*
X555110Y36976D01*
X555237Y36927D01*
X555374Y36869D01*
X555501Y36790D01*
X555627Y36703D01*
X555754Y36605D01*
X555871Y36498D01*
X555881Y36488D01*
X555901Y36468D01*
X555930Y36429D01*
X555969Y36381D01*
X556018Y36322D01*
X556067Y36244D01*
X556125Y36146D01*
X556184Y36049D01*
X556233Y35932D01*
X556291Y35795D01*
X556340Y35658D01*
X556389Y35502D01*
X556428Y35336D01*
X556457Y35151D01*
X556476Y34965D01*
X556486Y34760D01*
Y34751D01*
Y34721D01*
Y34673D01*
Y34614D01*
X556476Y34536D01*
Y34448D01*
X556467Y34350D01*
X556457Y34243D01*
X556418Y34019D01*
X556369Y33784D01*
X556301Y33550D01*
X556213Y33345D01*
Y33336D01*
X556203Y33326D01*
X556164Y33257D01*
X556096Y33170D01*
X556008Y33052D01*
X555901Y32926D01*
X555764Y32799D01*
X555608Y32672D01*
X555422Y32555D01*
X555413D01*
X555403Y32545D01*
X555374Y32525D01*
X555335Y32516D01*
X555227Y32467D01*
X555091Y32418D01*
X554925Y32359D01*
X554739Y32320D01*
X554534Y32281D01*
X554310Y32272D01*
X554212D01*
X554144Y32281D01*
X554066Y32291D01*
X553968Y32301D01*
X553861Y32320D01*
X553744Y32350D01*
X553500Y32428D01*
X553363Y32477D01*
X553236Y32535D01*
X553099Y32603D01*
X552973Y32691D01*
X552846Y32789D01*
X552729Y32896D01*
X552719Y32906D01*
X552699Y32926D01*
X552670Y32965D01*
X552641Y33013D01*
X552592Y33082D01*
X552543Y33160D01*
X552485Y33248D01*
X552436Y33355D01*
X552377Y33482D01*
X552319Y33609D01*
X552270Y33765D01*
X552231Y33921D01*
X552192Y34097D01*
X552163Y34282D01*
X552143Y34487D01*
X552133Y34702D01*
Y34721D01*
Y34760D01*
X552143Y34829D01*
Y34917D01*
X552153Y35024D01*
X552172Y35141D01*
X552192Y35278D01*
X552221Y35424D01*
X552260Y35580D01*
X552309Y35736D01*
X552367Y35893D01*
X552436Y36049D01*
X552514Y36205D01*
X552611Y36351D01*
X552719Y36488D01*
X552846Y36615D01*
X552855Y36625D01*
X552875Y36634D01*
X552904Y36664D01*
X552953Y36693D01*
X553012Y36732D01*
X553080Y36781D01*
X553158Y36830D01*
X553256Y36878D01*
X553353Y36917D01*
X553461Y36966D01*
X553714Y37054D01*
X553997Y37113D01*
X554154Y37122D01*
X554310Y37132D01*
X554398D01*
X554466Y37122D01*
D02*
G37*
G36*
X490294D02*
X490372Y37113D01*
X490470Y37103D01*
X490567Y37083D01*
X490684Y37054D01*
X490919Y36976D01*
X491045Y36927D01*
X491172Y36859D01*
X491299Y36790D01*
X491426Y36703D01*
X491543Y36605D01*
X491660Y36488D01*
X491670Y36478D01*
X491690Y36459D01*
X491719Y36420D01*
X491758Y36371D01*
X491797Y36303D01*
X491846Y36224D01*
X491904Y36137D01*
X491963Y36029D01*
X492012Y35902D01*
X492070Y35776D01*
X492119Y35629D01*
X492168Y35463D01*
X492197Y35297D01*
X492226Y35112D01*
X492246Y34917D01*
X492256Y34702D01*
Y34692D01*
Y34653D01*
Y34585D01*
X492246Y34497D01*
X488791D01*
Y34487D01*
Y34468D01*
X488801Y34419D01*
Y34370D01*
X488810Y34302D01*
X488820Y34233D01*
X488859Y34058D01*
X488918Y33872D01*
X488986Y33677D01*
X489093Y33482D01*
X489220Y33316D01*
X489240Y33296D01*
X489289Y33257D01*
X489376Y33189D01*
X489484Y33121D01*
X489630Y33043D01*
X489796Y32974D01*
X489982Y32935D01*
X490187Y32916D01*
X490265D01*
X490343Y32926D01*
X490440Y32945D01*
X490557Y32974D01*
X490684Y33013D01*
X490811Y33062D01*
X490928Y33140D01*
X490938Y33150D01*
X490977Y33189D01*
X491036Y33238D01*
X491104Y33326D01*
X491182Y33423D01*
X491260Y33550D01*
X491338Y33706D01*
X491416Y33882D01*
X492226Y33775D01*
Y33765D01*
X492217Y33745D01*
X492207Y33706D01*
X492187Y33658D01*
X492168Y33599D01*
X492139Y33531D01*
X492061Y33365D01*
X491963Y33189D01*
X491846Y33004D01*
X491690Y32818D01*
X491514Y32662D01*
X491504D01*
X491494Y32642D01*
X491465Y32623D01*
X491416Y32603D01*
X491367Y32574D01*
X491309Y32535D01*
X491241Y32506D01*
X491153Y32467D01*
X490967Y32399D01*
X490733Y32330D01*
X490479Y32291D01*
X490187Y32272D01*
X490089D01*
X490021Y32281D01*
X489933Y32291D01*
X489835Y32301D01*
X489728Y32320D01*
X489601Y32350D01*
X489347Y32428D01*
X489211Y32477D01*
X489084Y32535D01*
X488947Y32603D01*
X488820Y32691D01*
X488693Y32789D01*
X488576Y32896D01*
X488566Y32906D01*
X488547Y32926D01*
X488518Y32965D01*
X488488Y33013D01*
X488440Y33072D01*
X488391Y33150D01*
X488332Y33248D01*
X488283Y33355D01*
X488225Y33472D01*
X488166Y33599D01*
X488117Y33745D01*
X488078Y33902D01*
X488039Y34067D01*
X488010Y34253D01*
X487991Y34448D01*
X487981Y34653D01*
Y34663D01*
Y34702D01*
Y34770D01*
X487991Y34848D01*
X488000Y34946D01*
X488010Y35063D01*
X488030Y35190D01*
X488059Y35326D01*
X488127Y35619D01*
X488176Y35766D01*
X488235Y35922D01*
X488303Y36068D01*
X488381Y36215D01*
X488469Y36351D01*
X488576Y36478D01*
X488586Y36488D01*
X488605Y36507D01*
X488635Y36537D01*
X488684Y36586D01*
X488742Y36634D01*
X488820Y36683D01*
X488898Y36742D01*
X488996Y36810D01*
X489103Y36869D01*
X489220Y36927D01*
X489347Y36976D01*
X489494Y37034D01*
X489640Y37074D01*
X489796Y37103D01*
X489962Y37122D01*
X490138Y37132D01*
X490226D01*
X490294Y37122D01*
D02*
G37*
G36*
X480319D02*
X480407Y37113D01*
X480495Y37103D01*
X480602Y37083D01*
X480719Y37054D01*
X480963Y36976D01*
X481090Y36927D01*
X481227Y36869D01*
X481354Y36790D01*
X481481Y36703D01*
X481607Y36605D01*
X481725Y36498D01*
X481734Y36488D01*
X481754Y36468D01*
X481783Y36429D01*
X481822Y36381D01*
X481871Y36322D01*
X481920Y36244D01*
X481978Y36146D01*
X482037Y36049D01*
X482086Y35932D01*
X482144Y35795D01*
X482193Y35658D01*
X482242Y35502D01*
X482281Y35336D01*
X482310Y35151D01*
X482330Y34965D01*
X482339Y34760D01*
Y34751D01*
Y34721D01*
Y34673D01*
Y34614D01*
X482330Y34536D01*
Y34448D01*
X482320Y34350D01*
X482310Y34243D01*
X482271Y34019D01*
X482222Y33784D01*
X482154Y33550D01*
X482066Y33345D01*
Y33336D01*
X482057Y33326D01*
X482017Y33257D01*
X481949Y33170D01*
X481861Y33052D01*
X481754Y32926D01*
X481617Y32799D01*
X481461Y32672D01*
X481276Y32555D01*
X481266D01*
X481256Y32545D01*
X481227Y32525D01*
X481188Y32516D01*
X481080Y32467D01*
X480944Y32418D01*
X480778Y32359D01*
X480592Y32320D01*
X480387Y32281D01*
X480163Y32272D01*
X480065D01*
X479997Y32281D01*
X479919Y32291D01*
X479821Y32301D01*
X479714Y32320D01*
X479597Y32350D01*
X479353Y32428D01*
X479216Y32477D01*
X479089Y32535D01*
X478953Y32603D01*
X478826Y32691D01*
X478699Y32789D01*
X478582Y32896D01*
X478572Y32906D01*
X478553Y32926D01*
X478523Y32965D01*
X478494Y33013D01*
X478445Y33082D01*
X478397Y33160D01*
X478338Y33248D01*
X478289Y33355D01*
X478231Y33482D01*
X478172Y33609D01*
X478123Y33765D01*
X478084Y33921D01*
X478045Y34097D01*
X478016Y34282D01*
X477996Y34487D01*
X477987Y34702D01*
Y34721D01*
Y34760D01*
X477996Y34829D01*
Y34917D01*
X478006Y35024D01*
X478026Y35141D01*
X478045Y35278D01*
X478074Y35424D01*
X478113Y35580D01*
X478162Y35736D01*
X478221Y35893D01*
X478289Y36049D01*
X478367Y36205D01*
X478465Y36351D01*
X478572Y36488D01*
X478699Y36615D01*
X478709Y36625D01*
X478728Y36634D01*
X478758Y36664D01*
X478806Y36693D01*
X478865Y36732D01*
X478933Y36781D01*
X479011Y36830D01*
X479109Y36878D01*
X479207Y36917D01*
X479314Y36966D01*
X479568Y37054D01*
X479851Y37113D01*
X480007Y37122D01*
X480163Y37132D01*
X480251D01*
X480319Y37122D01*
D02*
G37*
G36*
X469388D02*
X469466Y37113D01*
X469564Y37103D01*
X469661Y37083D01*
X469778Y37054D01*
X470013Y36976D01*
X470140Y36927D01*
X470266Y36859D01*
X470393Y36790D01*
X470520Y36703D01*
X470637Y36605D01*
X470754Y36488D01*
X470764Y36478D01*
X470784Y36459D01*
X470813Y36420D01*
X470852Y36371D01*
X470891Y36303D01*
X470940Y36224D01*
X470998Y36137D01*
X471057Y36029D01*
X471106Y35902D01*
X471164Y35776D01*
X471213Y35629D01*
X471262Y35463D01*
X471291Y35297D01*
X471320Y35112D01*
X471340Y34917D01*
X471350Y34702D01*
Y34692D01*
Y34653D01*
Y34585D01*
X471340Y34497D01*
X467885D01*
Y34487D01*
Y34468D01*
X467895Y34419D01*
Y34370D01*
X467905Y34302D01*
X467914Y34233D01*
X467953Y34058D01*
X468012Y33872D01*
X468080Y33677D01*
X468188Y33482D01*
X468314Y33316D01*
X468334Y33296D01*
X468383Y33257D01*
X468471Y33189D01*
X468578Y33121D01*
X468724Y33043D01*
X468890Y32974D01*
X469076Y32935D01*
X469281Y32916D01*
X469359D01*
X469437Y32926D01*
X469534Y32945D01*
X469652Y32974D01*
X469778Y33013D01*
X469905Y33062D01*
X470022Y33140D01*
X470032Y33150D01*
X470071Y33189D01*
X470130Y33238D01*
X470198Y33326D01*
X470276Y33423D01*
X470354Y33550D01*
X470432Y33706D01*
X470510Y33882D01*
X471320Y33775D01*
Y33765D01*
X471311Y33745D01*
X471301Y33706D01*
X471281Y33658D01*
X471262Y33599D01*
X471233Y33531D01*
X471155Y33365D01*
X471057Y33189D01*
X470940Y33004D01*
X470784Y32818D01*
X470608Y32662D01*
X470598D01*
X470588Y32642D01*
X470559Y32623D01*
X470510Y32603D01*
X470462Y32574D01*
X470403Y32535D01*
X470335Y32506D01*
X470247Y32467D01*
X470061Y32399D01*
X469827Y32330D01*
X469573Y32291D01*
X469281Y32272D01*
X469183D01*
X469115Y32281D01*
X469027Y32291D01*
X468929Y32301D01*
X468822Y32320D01*
X468695Y32350D01*
X468441Y32428D01*
X468305Y32477D01*
X468178Y32535D01*
X468041Y32603D01*
X467914Y32691D01*
X467787Y32789D01*
X467670Y32896D01*
X467661Y32906D01*
X467641Y32926D01*
X467612Y32965D01*
X467582Y33013D01*
X467534Y33072D01*
X467485Y33150D01*
X467426Y33248D01*
X467377Y33355D01*
X467319Y33472D01*
X467260Y33599D01*
X467211Y33745D01*
X467172Y33902D01*
X467133Y34067D01*
X467104Y34253D01*
X467085Y34448D01*
X467075Y34653D01*
Y34663D01*
Y34702D01*
Y34770D01*
X467085Y34848D01*
X467094Y34946D01*
X467104Y35063D01*
X467124Y35190D01*
X467153Y35326D01*
X467221Y35619D01*
X467270Y35766D01*
X467329Y35922D01*
X467397Y36068D01*
X467475Y36215D01*
X467563Y36351D01*
X467670Y36478D01*
X467680Y36488D01*
X467699Y36507D01*
X467729Y36537D01*
X467778Y36586D01*
X467836Y36634D01*
X467914Y36683D01*
X467992Y36742D01*
X468090Y36810D01*
X468197Y36869D01*
X468314Y36927D01*
X468441Y36976D01*
X468588Y37034D01*
X468734Y37074D01*
X468890Y37103D01*
X469056Y37122D01*
X469232Y37132D01*
X469320D01*
X469388Y37122D01*
D02*
G37*
G36*
X452464D02*
X452542Y37113D01*
X452640Y37103D01*
X452737Y37083D01*
X452855Y37054D01*
X453089Y36976D01*
X453216Y36927D01*
X453343Y36859D01*
X453469Y36790D01*
X453596Y36703D01*
X453713Y36605D01*
X453831Y36488D01*
X453840Y36478D01*
X453860Y36459D01*
X453889Y36420D01*
X453928Y36371D01*
X453967Y36303D01*
X454016Y36224D01*
X454075Y36137D01*
X454133Y36029D01*
X454182Y35902D01*
X454241Y35776D01*
X454289Y35629D01*
X454338Y35463D01*
X454367Y35297D01*
X454397Y35112D01*
X454416Y34917D01*
X454426Y34702D01*
Y34692D01*
Y34653D01*
Y34585D01*
X454416Y34497D01*
X450961D01*
Y34487D01*
Y34468D01*
X450971Y34419D01*
Y34370D01*
X450981Y34302D01*
X450990Y34233D01*
X451029Y34058D01*
X451088Y33872D01*
X451156Y33677D01*
X451264Y33482D01*
X451391Y33316D01*
X451410Y33296D01*
X451459Y33257D01*
X451547Y33189D01*
X451654Y33121D01*
X451800Y33043D01*
X451966Y32974D01*
X452152Y32935D01*
X452357Y32916D01*
X452435D01*
X452513Y32926D01*
X452611Y32945D01*
X452728Y32974D01*
X452855Y33013D01*
X452981Y33062D01*
X453099Y33140D01*
X453108Y33150D01*
X453147Y33189D01*
X453206Y33238D01*
X453274Y33326D01*
X453352Y33423D01*
X453430Y33550D01*
X453509Y33706D01*
X453587Y33882D01*
X454397Y33775D01*
Y33765D01*
X454387Y33745D01*
X454377Y33706D01*
X454358Y33658D01*
X454338Y33599D01*
X454309Y33531D01*
X454231Y33365D01*
X454133Y33189D01*
X454016Y33004D01*
X453860Y32818D01*
X453684Y32662D01*
X453674D01*
X453665Y32642D01*
X453635Y32623D01*
X453587Y32603D01*
X453538Y32574D01*
X453479Y32535D01*
X453411Y32506D01*
X453323Y32467D01*
X453138Y32399D01*
X452903Y32330D01*
X452650Y32291D01*
X452357Y32272D01*
X452259D01*
X452191Y32281D01*
X452103Y32291D01*
X452005Y32301D01*
X451898Y32320D01*
X451771Y32350D01*
X451517Y32428D01*
X451381Y32477D01*
X451254Y32535D01*
X451117Y32603D01*
X450990Y32691D01*
X450864Y32789D01*
X450746Y32896D01*
X450737Y32906D01*
X450717Y32926D01*
X450688Y32965D01*
X450659Y33013D01*
X450610Y33072D01*
X450561Y33150D01*
X450502Y33248D01*
X450454Y33355D01*
X450395Y33472D01*
X450337Y33599D01*
X450288Y33745D01*
X450249Y33902D01*
X450210Y34067D01*
X450180Y34253D01*
X450161Y34448D01*
X450151Y34653D01*
Y34663D01*
Y34702D01*
Y34770D01*
X450161Y34848D01*
X450171Y34946D01*
X450180Y35063D01*
X450200Y35190D01*
X450229Y35326D01*
X450297Y35619D01*
X450346Y35766D01*
X450405Y35922D01*
X450473Y36068D01*
X450551Y36215D01*
X450639Y36351D01*
X450746Y36478D01*
X450756Y36488D01*
X450776Y36507D01*
X450805Y36537D01*
X450854Y36586D01*
X450912Y36634D01*
X450990Y36683D01*
X451068Y36742D01*
X451166Y36810D01*
X451273Y36869D01*
X451391Y36927D01*
X451517Y36976D01*
X451664Y37034D01*
X451810Y37074D01*
X451966Y37103D01*
X452132Y37122D01*
X452308Y37132D01*
X452396D01*
X452464Y37122D01*
D02*
G37*
G36*
X462205D02*
X462273Y37113D01*
X462361Y37093D01*
X462546Y37044D01*
X462654Y37015D01*
X462761Y36966D01*
X462878Y36917D01*
X462995Y36849D01*
X463103Y36771D01*
X463220Y36683D01*
X463327Y36576D01*
X463425Y36459D01*
Y37025D01*
X464147D01*
Y33004D01*
Y32994D01*
Y32955D01*
Y32906D01*
Y32828D01*
X464137Y32740D01*
Y32642D01*
X464127Y32525D01*
X464118Y32408D01*
X464088Y32164D01*
X464049Y31910D01*
X464001Y31676D01*
X463961Y31569D01*
X463922Y31481D01*
Y31471D01*
X463913Y31462D01*
X463883Y31403D01*
X463825Y31325D01*
X463757Y31218D01*
X463659Y31100D01*
X463542Y30983D01*
X463395Y30866D01*
X463229Y30759D01*
X463220D01*
X463210Y30749D01*
X463181Y30739D01*
X463142Y30720D01*
X463044Y30671D01*
X462907Y30632D01*
X462732Y30583D01*
X462527Y30534D01*
X462302Y30505D01*
X462048Y30495D01*
X461970D01*
X461912Y30505D01*
X461843D01*
X461756Y30515D01*
X461570Y30544D01*
X461355Y30593D01*
X461131Y30652D01*
X460907Y30749D01*
X460702Y30876D01*
X460692D01*
X460682Y30896D01*
X460624Y30944D01*
X460545Y31032D01*
X460448Y31159D01*
X460360Y31315D01*
X460282Y31510D01*
X460233Y31735D01*
X460214Y31862D01*
Y31998D01*
X460975Y31891D01*
Y31872D01*
X460985Y31832D01*
X461004Y31774D01*
X461024Y31696D01*
X461063Y31608D01*
X461111Y31520D01*
X461170Y31442D01*
X461248Y31374D01*
X461258Y31364D01*
X461307Y31335D01*
X461365Y31305D01*
X461463Y31266D01*
X461570Y31218D01*
X461707Y31188D01*
X461873Y31159D01*
X462048Y31149D01*
X462136D01*
X462234Y31159D01*
X462361Y31179D01*
X462497Y31208D01*
X462634Y31247D01*
X462771Y31296D01*
X462888Y31374D01*
X462898Y31383D01*
X462937Y31413D01*
X462985Y31462D01*
X463054Y31530D01*
X463122Y31618D01*
X463181Y31715D01*
X463239Y31842D01*
X463288Y31979D01*
Y31989D01*
X463298Y32028D01*
X463308Y32096D01*
X463317Y32194D01*
X463337Y32330D01*
Y32418D01*
X463347Y32506D01*
Y32613D01*
Y32721D01*
Y32847D01*
Y32984D01*
X463337Y32974D01*
X463327Y32955D01*
X463298Y32926D01*
X463259Y32886D01*
X463200Y32847D01*
X463142Y32789D01*
X462995Y32682D01*
X462810Y32574D01*
X462585Y32477D01*
X462468Y32438D01*
X462341Y32408D01*
X462205Y32389D01*
X462068Y32379D01*
X461980D01*
X461912Y32389D01*
X461834Y32399D01*
X461736Y32418D01*
X461639Y32438D01*
X461521Y32467D01*
X461404Y32496D01*
X461287Y32545D01*
X461160Y32603D01*
X461043Y32672D01*
X460916Y32750D01*
X460799Y32838D01*
X460692Y32945D01*
X460584Y33062D01*
X460575Y33072D01*
X460565Y33092D01*
X460536Y33130D01*
X460506Y33189D01*
X460467Y33257D01*
X460419Y33336D01*
X460370Y33423D01*
X460321Y33531D01*
X460272Y33648D01*
X460223Y33775D01*
X460184Y33911D01*
X460136Y34058D01*
X460077Y34370D01*
X460067Y34546D01*
X460057Y34721D01*
Y34731D01*
Y34751D01*
Y34790D01*
Y34839D01*
X460067Y34897D01*
Y34965D01*
X460087Y35122D01*
X460116Y35317D01*
X460155Y35522D01*
X460214Y35736D01*
X460292Y35951D01*
Y35961D01*
X460301Y35980D01*
X460321Y36010D01*
X460340Y36049D01*
X460389Y36146D01*
X460467Y36273D01*
X460575Y36410D01*
X460692Y36556D01*
X460828Y36693D01*
X460994Y36820D01*
X461004D01*
X461014Y36830D01*
X461043Y36849D01*
X461072Y36869D01*
X461170Y36917D01*
X461297Y36976D01*
X461463Y37034D01*
X461639Y37083D01*
X461843Y37122D01*
X462068Y37132D01*
X462146D01*
X462205Y37122D01*
D02*
G37*
G36*
X541514Y38889D02*
X541544Y38850D01*
X541583Y38791D01*
X541641Y38713D01*
X541710Y38606D01*
X541788Y38489D01*
X541876Y38362D01*
X541963Y38206D01*
X542061Y38050D01*
X542159Y37874D01*
X542364Y37503D01*
X542549Y37103D01*
X542637Y36898D01*
X542715Y36693D01*
Y36683D01*
X542734Y36654D01*
X542744Y36595D01*
X542773Y36527D01*
X542793Y36439D01*
X542822Y36332D01*
X542851Y36215D01*
X542891Y36088D01*
X542920Y35941D01*
X542949Y35785D01*
X543008Y35444D01*
X543047Y35083D01*
X543056Y34692D01*
Y34682D01*
Y34643D01*
Y34575D01*
X543047Y34497D01*
Y34390D01*
X543037Y34263D01*
X543017Y34126D01*
X542998Y33970D01*
X542978Y33804D01*
X542949Y33619D01*
X542861Y33238D01*
X542754Y32828D01*
X542676Y32623D01*
X542598Y32418D01*
X542588Y32408D01*
X542578Y32369D01*
X542549Y32311D01*
X542520Y32233D01*
X542471Y32135D01*
X542422Y32028D01*
X542364Y31901D01*
X542295Y31764D01*
X542129Y31471D01*
X541944Y31149D01*
X541739Y30817D01*
X541505Y30495D01*
X540939D01*
Y30505D01*
X540958Y30515D01*
X540968Y30554D01*
X540997Y30593D01*
X541026Y30642D01*
X541056Y30700D01*
X541095Y30778D01*
X541144Y30856D01*
X541241Y31042D01*
X541349Y31266D01*
X541475Y31520D01*
X541593Y31803D01*
X541719Y32116D01*
X541837Y32438D01*
X541944Y32789D01*
X542041Y33150D01*
X542129Y33531D01*
X542188Y33911D01*
X542237Y34302D01*
X542246Y34692D01*
Y34702D01*
Y34731D01*
Y34770D01*
Y34829D01*
X542237Y34907D01*
Y34995D01*
X542227Y35092D01*
Y35200D01*
X542198Y35453D01*
X542168Y35727D01*
X542120Y36020D01*
X542051Y36322D01*
Y36332D01*
X542041Y36351D01*
X542032Y36390D01*
X542022Y36429D01*
X542012Y36488D01*
X541993Y36566D01*
X541944Y36722D01*
X541885Y36917D01*
X541817Y37132D01*
X541739Y37357D01*
X541641Y37581D01*
X541632Y37601D01*
X541622Y37620D01*
X541602Y37659D01*
X541583Y37698D01*
X541553Y37757D01*
X541524Y37815D01*
X541485Y37893D01*
X541446Y37981D01*
X541397Y38079D01*
X541339Y38186D01*
X541270Y38303D01*
X541202Y38430D01*
X541124Y38577D01*
X541036Y38733D01*
X540939Y38899D01*
X541505D01*
X541514Y38889D01*
D02*
G37*
G36*
X522160D02*
X522151Y38860D01*
X522121Y38811D01*
X522082Y38752D01*
X522043Y38674D01*
X521994Y38586D01*
X521877Y38391D01*
X521760Y38176D01*
X521643Y37962D01*
X521545Y37757D01*
X521506Y37669D01*
X521467Y37591D01*
Y37581D01*
X521458Y37562D01*
X521438Y37532D01*
X521419Y37484D01*
X521399Y37435D01*
X521370Y37366D01*
X521311Y37210D01*
X521243Y37025D01*
X521175Y36810D01*
X521106Y36576D01*
X521048Y36332D01*
Y36322D01*
X521038Y36293D01*
X521028Y36254D01*
X521018Y36195D01*
X521009Y36117D01*
X520989Y36029D01*
X520970Y35932D01*
X520960Y35824D01*
X520921Y35580D01*
X520892Y35297D01*
X520872Y35004D01*
X520862Y34692D01*
Y34682D01*
Y34673D01*
Y34643D01*
Y34595D01*
X520872Y34546D01*
Y34487D01*
Y34409D01*
X520882Y34331D01*
X520901Y34146D01*
X520931Y33921D01*
X520970Y33667D01*
X521028Y33384D01*
X521097Y33072D01*
X521184Y32750D01*
X521292Y32399D01*
X521419Y32037D01*
X521565Y31666D01*
X521741Y31276D01*
X521936Y30886D01*
X522170Y30495D01*
X521604D01*
X521594Y30505D01*
X521575Y30534D01*
X521545Y30583D01*
X521497Y30642D01*
X521438Y30720D01*
X521370Y30817D01*
X521301Y30925D01*
X521223Y31052D01*
X521136Y31179D01*
X521048Y31325D01*
X520960Y31491D01*
X520862Y31657D01*
X520677Y32018D01*
X520501Y32418D01*
Y32428D01*
X520482Y32467D01*
X520462Y32525D01*
X520433Y32613D01*
X520394Y32711D01*
X520355Y32828D01*
X520316Y32965D01*
X520277Y33121D01*
X520238Y33277D01*
X520199Y33462D01*
X520159Y33648D01*
X520120Y33843D01*
X520072Y34263D01*
X520062Y34477D01*
X520052Y34692D01*
Y34702D01*
Y34741D01*
Y34800D01*
X520062Y34868D01*
Y34965D01*
X520072Y35073D01*
X520081Y35200D01*
X520091Y35336D01*
X520111Y35483D01*
X520130Y35639D01*
X520189Y35980D01*
X520277Y36332D01*
X520384Y36693D01*
X520394Y36703D01*
X520403Y36742D01*
X520423Y36800D01*
X520462Y36878D01*
X520501Y36986D01*
X520550Y37103D01*
X520609Y37230D01*
X520687Y37386D01*
X520765Y37542D01*
X520853Y37718D01*
X520950Y37903D01*
X521067Y38089D01*
X521184Y38284D01*
X521311Y38489D01*
X521458Y38694D01*
X521604Y38899D01*
X522170D01*
X522160Y38889D01*
D02*
G37*
G36*
X491846Y29203D02*
X491953Y29193D01*
X492080Y29174D01*
X492217Y29154D01*
X492363Y29125D01*
X492246Y28442D01*
X492236D01*
X492207Y28452D01*
X492158Y28461D01*
X492100Y28471D01*
X492021D01*
X491943Y28481D01*
X491777Y28491D01*
X491719D01*
X491660Y28481D01*
X491582Y28471D01*
X491504Y28452D01*
X491416Y28422D01*
X491338Y28383D01*
X491270Y28335D01*
X491260Y28325D01*
X491250Y28305D01*
X491221Y28266D01*
X491202Y28208D01*
X491172Y28130D01*
X491143Y28022D01*
X491133Y27905D01*
X491123Y27759D01*
Y27339D01*
X492031D01*
Y26724D01*
X491133D01*
Y22693D01*
X490343D01*
Y26724D01*
X489650D01*
Y27339D01*
X490343D01*
Y27827D01*
Y27837D01*
Y27847D01*
Y27905D01*
X490352Y27983D01*
Y28091D01*
X490362Y28198D01*
X490382Y28315D01*
X490401Y28422D01*
X490431Y28520D01*
X490440Y28530D01*
X490450Y28569D01*
X490479Y28627D01*
X490518Y28696D01*
X490577Y28783D01*
X490645Y28861D01*
X490723Y28940D01*
X490821Y29018D01*
X490831Y29027D01*
X490879Y29047D01*
X490938Y29076D01*
X491036Y29115D01*
X491143Y29154D01*
X491289Y29184D01*
X491446Y29203D01*
X491631Y29213D01*
X491758D01*
X491846Y29203D01*
D02*
G37*
G36*
X489357D02*
X489464Y29193D01*
X489591Y29174D01*
X489728Y29154D01*
X489874Y29125D01*
X489757Y28442D01*
X489747D01*
X489718Y28452D01*
X489669Y28461D01*
X489611Y28471D01*
X489533D01*
X489455Y28481D01*
X489289Y28491D01*
X489230D01*
X489172Y28481D01*
X489093Y28471D01*
X489015Y28452D01*
X488928Y28422D01*
X488849Y28383D01*
X488781Y28335D01*
X488771Y28325D01*
X488762Y28305D01*
X488732Y28266D01*
X488713Y28208D01*
X488684Y28130D01*
X488654Y28022D01*
X488645Y27905D01*
X488635Y27759D01*
Y27339D01*
X489542D01*
Y26724D01*
X488645D01*
Y22693D01*
X487854D01*
Y26724D01*
X487161D01*
Y27339D01*
X487854D01*
Y27827D01*
Y27837D01*
Y27847D01*
Y27905D01*
X487864Y27983D01*
Y28091D01*
X487873Y28198D01*
X487893Y28315D01*
X487913Y28422D01*
X487942Y28520D01*
X487952Y28530D01*
X487961Y28569D01*
X487991Y28627D01*
X488030Y28696D01*
X488088Y28783D01*
X488157Y28861D01*
X488235Y28940D01*
X488332Y29018D01*
X488342Y29027D01*
X488391Y29047D01*
X488449Y29076D01*
X488547Y29115D01*
X488654Y29154D01*
X488801Y29184D01*
X488957Y29203D01*
X489142Y29213D01*
X489269D01*
X489357Y29203D01*
D02*
G37*
G36*
X486478Y28208D02*
X485687D01*
Y29105D01*
X486478D01*
Y28208D01*
D02*
G37*
G36*
X481988Y29203D02*
X482066D01*
X482232Y29184D01*
X482418Y29154D01*
X482632Y29115D01*
X482847Y29057D01*
X483062Y28979D01*
X483072D01*
X483091Y28969D01*
X483120Y28959D01*
X483159Y28940D01*
X483257Y28891D01*
X483384Y28813D01*
X483530Y28725D01*
X483677Y28618D01*
X483823Y28500D01*
X483950Y28354D01*
X483960Y28335D01*
X483999Y28286D01*
X484057Y28198D01*
X484135Y28071D01*
X484213Y27924D01*
X484292Y27749D01*
X484370Y27544D01*
X484438Y27310D01*
X483667Y27095D01*
Y27105D01*
X483657Y27114D01*
X483647Y27173D01*
X483608Y27261D01*
X483569Y27378D01*
X483521Y27495D01*
X483462Y27622D01*
X483394Y27749D01*
X483316Y27866D01*
X483306Y27876D01*
X483277Y27915D01*
X483228Y27964D01*
X483159Y28032D01*
X483072Y28100D01*
X482964Y28178D01*
X482847Y28247D01*
X482701Y28315D01*
X482681Y28325D01*
X482632Y28344D01*
X482545Y28374D01*
X482437Y28403D01*
X482310Y28432D01*
X482164Y28461D01*
X481998Y28481D01*
X481822Y28491D01*
X481725D01*
X481617Y28481D01*
X481481Y28471D01*
X481324Y28442D01*
X481149Y28413D01*
X480983Y28364D01*
X480817Y28305D01*
X480797Y28295D01*
X480749Y28276D01*
X480671Y28237D01*
X480573Y28178D01*
X480466Y28110D01*
X480348Y28032D01*
X480241Y27944D01*
X480134Y27837D01*
X480124Y27827D01*
X480095Y27788D01*
X480046Y27729D01*
X479987Y27651D01*
X479919Y27554D01*
X479851Y27446D01*
X479792Y27329D01*
X479734Y27202D01*
Y27193D01*
X479724Y27173D01*
X479714Y27144D01*
X479695Y27095D01*
X479675Y27046D01*
X479656Y26978D01*
X479616Y26822D01*
X479568Y26627D01*
X479529Y26412D01*
X479499Y26168D01*
X479490Y25914D01*
Y25904D01*
Y25875D01*
Y25836D01*
X479499Y25768D01*
Y25699D01*
X479509Y25611D01*
X479519Y25514D01*
X479529Y25416D01*
X479558Y25182D01*
X479616Y24938D01*
X479685Y24704D01*
X479782Y24469D01*
Y24460D01*
X479792Y24440D01*
X479812Y24411D01*
X479841Y24372D01*
X479909Y24274D01*
X479997Y24147D01*
X480114Y24011D01*
X480261Y23864D01*
X480436Y23728D01*
X480631Y23611D01*
X480641D01*
X480661Y23601D01*
X480690Y23581D01*
X480729Y23572D01*
X480778Y23552D01*
X480846Y23523D01*
X480993Y23474D01*
X481178Y23425D01*
X481373Y23376D01*
X481598Y23347D01*
X481832Y23337D01*
X481930D01*
X482037Y23347D01*
X482174Y23367D01*
X482330Y23386D01*
X482515Y23425D01*
X482710Y23474D01*
X482906Y23542D01*
X482915D01*
X482925Y23552D01*
X482954Y23562D01*
X482993Y23581D01*
X483091Y23620D01*
X483208Y23679D01*
X483335Y23747D01*
X483462Y23825D01*
X483589Y23913D01*
X483706Y24001D01*
Y25211D01*
X481822D01*
Y25963D01*
X484536D01*
Y23581D01*
X484526Y23572D01*
X484506Y23562D01*
X484477Y23532D01*
X484428Y23503D01*
X484370Y23455D01*
X484301Y23415D01*
X484135Y23298D01*
X483940Y23181D01*
X483725Y23054D01*
X483481Y22937D01*
X483237Y22830D01*
X483228D01*
X483208Y22820D01*
X483169Y22810D01*
X483120Y22791D01*
X483062Y22771D01*
X482993Y22752D01*
X482906Y22732D01*
X482818Y22713D01*
X482613Y22664D01*
X482388Y22625D01*
X482135Y22596D01*
X481881Y22586D01*
X481793D01*
X481725Y22596D01*
X481637D01*
X481539Y22605D01*
X481432Y22615D01*
X481315Y22635D01*
X481041Y22683D01*
X480758Y22752D01*
X480456Y22849D01*
X480163Y22986D01*
X480153Y22996D01*
X480134Y23006D01*
X480085Y23025D01*
X480036Y23064D01*
X479968Y23103D01*
X479900Y23152D01*
X479734Y23279D01*
X479538Y23445D01*
X479353Y23650D01*
X479168Y23884D01*
X479002Y24147D01*
Y24157D01*
X478982Y24186D01*
X478963Y24226D01*
X478943Y24284D01*
X478914Y24352D01*
X478875Y24440D01*
X478845Y24538D01*
X478806Y24655D01*
X478767Y24772D01*
X478738Y24909D01*
X478670Y25201D01*
X478631Y25524D01*
X478611Y25865D01*
Y25875D01*
Y25904D01*
Y25953D01*
X478621Y26021D01*
Y26109D01*
X478631Y26207D01*
X478641Y26314D01*
X478660Y26431D01*
X478709Y26704D01*
X478777Y26997D01*
X478875Y27310D01*
X479002Y27612D01*
Y27622D01*
X479021Y27651D01*
X479041Y27690D01*
X479070Y27749D01*
X479119Y27817D01*
X479168Y27885D01*
X479285Y28071D01*
X479451Y28266D01*
X479636Y28461D01*
X479870Y28647D01*
X479987Y28735D01*
X480124Y28813D01*
X480134D01*
X480153Y28832D01*
X480202Y28852D01*
X480251Y28871D01*
X480319Y28910D01*
X480407Y28940D01*
X480505Y28979D01*
X480612Y29018D01*
X480729Y29047D01*
X480856Y29086D01*
X481149Y29154D01*
X481461Y29193D01*
X481812Y29213D01*
X481930D01*
X481988Y29203D01*
D02*
G37*
G36*
X504339Y22693D02*
X503607D01*
Y23269D01*
X503597Y23259D01*
X503587Y23240D01*
X503558Y23211D01*
X503519Y23162D01*
X503480Y23113D01*
X503421Y23054D01*
X503353Y22996D01*
X503275Y22927D01*
X503187Y22869D01*
X503089Y22801D01*
X502982Y22742D01*
X502875Y22693D01*
X502748Y22644D01*
X502611Y22615D01*
X502465Y22596D01*
X502309Y22586D01*
X502250D01*
X502211Y22596D01*
X502104Y22605D01*
X501977Y22625D01*
X501811Y22664D01*
X501645Y22713D01*
X501459Y22791D01*
X501284Y22888D01*
X501274D01*
X501264Y22898D01*
X501206Y22947D01*
X501127Y23015D01*
X501020Y23113D01*
X500913Y23230D01*
X500786Y23376D01*
X500679Y23542D01*
X500571Y23738D01*
Y23747D01*
X500561Y23767D01*
X500552Y23796D01*
X500532Y23835D01*
X500513Y23884D01*
X500493Y23952D01*
X500444Y24108D01*
X500395Y24294D01*
X500356Y24509D01*
X500327Y24743D01*
X500317Y25006D01*
Y25016D01*
Y25036D01*
Y25075D01*
Y25123D01*
X500327Y25182D01*
Y25260D01*
X500347Y25426D01*
X500376Y25621D01*
X500415Y25826D01*
X500464Y26051D01*
X500542Y26265D01*
Y26275D01*
X500552Y26295D01*
X500571Y26324D01*
X500591Y26363D01*
X500639Y26460D01*
X500718Y26587D01*
X500815Y26734D01*
X500932Y26880D01*
X501069Y27017D01*
X501235Y27144D01*
X501245D01*
X501254Y27154D01*
X501313Y27193D01*
X501411Y27241D01*
X501537Y27300D01*
X501694Y27349D01*
X501869Y27398D01*
X502065Y27437D01*
X502269Y27446D01*
X502338D01*
X502416Y27437D01*
X502523Y27427D01*
X502631Y27398D01*
X502757Y27368D01*
X502884Y27319D01*
X503011Y27261D01*
X503031Y27251D01*
X503070Y27232D01*
X503128Y27193D01*
X503206Y27134D01*
X503285Y27075D01*
X503382Y26997D01*
X503470Y26900D01*
X503548Y26802D01*
Y29105D01*
X504339D01*
Y22693D01*
D02*
G37*
G36*
X473595Y27437D02*
X473692Y27427D01*
X473809Y27407D01*
X473946Y27378D01*
X474073Y27339D01*
X474209Y27290D01*
X474229Y27280D01*
X474268Y27261D01*
X474327Y27232D01*
X474405Y27183D01*
X474493Y27124D01*
X474580Y27056D01*
X474668Y26978D01*
X474736Y26890D01*
X474746Y26880D01*
X474766Y26851D01*
X474795Y26792D01*
X474834Y26724D01*
X474873Y26646D01*
X474912Y26548D01*
X474951Y26431D01*
X474980Y26314D01*
Y26304D01*
X474990Y26275D01*
X475000Y26217D01*
X475010Y26138D01*
Y26031D01*
X475020Y25894D01*
X475029Y25738D01*
Y25543D01*
Y22693D01*
X474239D01*
Y25514D01*
Y25524D01*
Y25533D01*
Y25592D01*
Y25680D01*
X474229Y25787D01*
X474219Y25894D01*
X474200Y26021D01*
X474170Y26129D01*
X474141Y26226D01*
Y26236D01*
X474122Y26265D01*
X474102Y26314D01*
X474073Y26363D01*
X474024Y26431D01*
X473965Y26490D01*
X473897Y26558D01*
X473819Y26617D01*
X473809Y26627D01*
X473780Y26636D01*
X473731Y26665D01*
X473663Y26695D01*
X473585Y26714D01*
X473487Y26744D01*
X473390Y26753D01*
X473273Y26763D01*
X473185D01*
X473097Y26744D01*
X472970Y26724D01*
X472833Y26685D01*
X472697Y26627D01*
X472541Y26548D01*
X472404Y26441D01*
X472384Y26421D01*
X472345Y26373D01*
X472287Y26295D01*
X472257Y26236D01*
X472228Y26168D01*
X472189Y26090D01*
X472160Y26002D01*
X472131Y25904D01*
X472101Y25797D01*
X472072Y25670D01*
X472062Y25533D01*
X472043Y25387D01*
Y25231D01*
Y22693D01*
X471252D01*
Y27339D01*
X471965D01*
Y26675D01*
X471974Y26685D01*
X471984Y26704D01*
X472013Y26744D01*
X472062Y26792D01*
X472111Y26851D01*
X472179Y26919D01*
X472248Y26988D01*
X472335Y27066D01*
X472443Y27134D01*
X472550Y27202D01*
X472667Y27271D01*
X472804Y27329D01*
X472941Y27378D01*
X473097Y27417D01*
X473263Y27437D01*
X473438Y27446D01*
X473507D01*
X473595Y27437D01*
D02*
G37*
G36*
X499478D02*
X499585Y27417D01*
X499703Y27378D01*
X499839Y27339D01*
X499986Y27271D01*
X500142Y27183D01*
X499859Y26460D01*
X499849Y26470D01*
X499810Y26490D01*
X499751Y26519D01*
X499683Y26548D01*
X499595Y26578D01*
X499498Y26607D01*
X499390Y26627D01*
X499283Y26636D01*
X499244D01*
X499195Y26627D01*
X499127Y26617D01*
X499058Y26597D01*
X498980Y26568D01*
X498902Y26529D01*
X498824Y26480D01*
X498814Y26470D01*
X498795Y26451D01*
X498756Y26412D01*
X498717Y26363D01*
X498668Y26304D01*
X498619Y26226D01*
X498580Y26138D01*
X498541Y26041D01*
X498531Y26021D01*
X498522Y25973D01*
X498502Y25885D01*
X498483Y25768D01*
X498453Y25631D01*
X498434Y25475D01*
X498424Y25309D01*
X498414Y25123D01*
Y22693D01*
X497624D01*
Y27339D01*
X498336D01*
Y26646D01*
X498346Y26656D01*
X498385Y26714D01*
X498434Y26802D01*
X498492Y26900D01*
X498570Y27007D01*
X498658Y27114D01*
X498736Y27212D01*
X498824Y27280D01*
X498834Y27290D01*
X498863Y27310D01*
X498912Y27329D01*
X498980Y27368D01*
X499049Y27398D01*
X499136Y27417D01*
X499234Y27437D01*
X499332Y27446D01*
X499400D01*
X499478Y27437D01*
D02*
G37*
G36*
X457695D02*
X457803Y27417D01*
X457920Y27378D01*
X458057Y27339D01*
X458203Y27271D01*
X458359Y27183D01*
X458076Y26460D01*
X458066Y26470D01*
X458027Y26490D01*
X457969Y26519D01*
X457900Y26548D01*
X457813Y26578D01*
X457715Y26607D01*
X457608Y26627D01*
X457500Y26636D01*
X457461D01*
X457412Y26627D01*
X457344Y26617D01*
X457276Y26597D01*
X457198Y26568D01*
X457120Y26529D01*
X457042Y26480D01*
X457032Y26470D01*
X457012Y26451D01*
X456973Y26412D01*
X456934Y26363D01*
X456885Y26304D01*
X456837Y26226D01*
X456798Y26138D01*
X456759Y26041D01*
X456749Y26021D01*
X456739Y25973D01*
X456719Y25885D01*
X456700Y25768D01*
X456671Y25631D01*
X456651Y25475D01*
X456641Y25309D01*
X456632Y25123D01*
Y22693D01*
X455841D01*
Y27339D01*
X456554D01*
Y26646D01*
X456563Y26656D01*
X456602Y26714D01*
X456651Y26802D01*
X456710Y26900D01*
X456788Y27007D01*
X456876Y27114D01*
X456954Y27212D01*
X457042Y27280D01*
X457051Y27290D01*
X457081Y27310D01*
X457129Y27329D01*
X457198Y27368D01*
X457266Y27398D01*
X457354Y27417D01*
X457451Y27437D01*
X457549Y27446D01*
X457617D01*
X457695Y27437D01*
D02*
G37*
G36*
X463805D02*
X463864D01*
X463932Y27427D01*
X464079Y27398D01*
X464254Y27349D01*
X464430Y27280D01*
X464596Y27183D01*
X464752Y27056D01*
X464772Y27036D01*
X464811Y26988D01*
X464869Y26890D01*
X464947Y26763D01*
X465016Y26597D01*
X465074Y26402D01*
X465113Y26158D01*
X465133Y26021D01*
Y25875D01*
Y22693D01*
X464342D01*
Y25611D01*
Y25621D01*
Y25631D01*
Y25690D01*
Y25777D01*
X464332Y25875D01*
X464313Y26099D01*
X464293Y26207D01*
X464264Y26295D01*
Y26304D01*
X464245Y26334D01*
X464225Y26373D01*
X464196Y26421D01*
X464157Y26470D01*
X464108Y26529D01*
X464049Y26587D01*
X463981Y26636D01*
X463971Y26646D01*
X463942Y26656D01*
X463903Y26675D01*
X463854Y26704D01*
X463786Y26724D01*
X463698Y26744D01*
X463610Y26753D01*
X463513Y26763D01*
X463434D01*
X463337Y26744D01*
X463229Y26724D01*
X463103Y26685D01*
X462966Y26627D01*
X462819Y26539D01*
X462693Y26431D01*
X462683Y26412D01*
X462644Y26373D01*
X462595Y26295D01*
X462536Y26177D01*
X462468Y26031D01*
X462419Y25855D01*
X462380Y25641D01*
X462371Y25387D01*
Y22693D01*
X461580D01*
Y25709D01*
Y25719D01*
Y25728D01*
Y25758D01*
Y25797D01*
X461570Y25894D01*
X461560Y26002D01*
X461531Y26138D01*
X461502Y26265D01*
X461453Y26392D01*
X461385Y26500D01*
X461375Y26509D01*
X461346Y26539D01*
X461307Y26587D01*
X461238Y26636D01*
X461151Y26675D01*
X461043Y26724D01*
X460916Y26753D01*
X460760Y26763D01*
X460702D01*
X460643Y26753D01*
X460555Y26744D01*
X460467Y26724D01*
X460360Y26685D01*
X460253Y26646D01*
X460145Y26587D01*
X460136Y26578D01*
X460097Y26558D01*
X460048Y26509D01*
X459989Y26460D01*
X459921Y26382D01*
X459853Y26295D01*
X459794Y26187D01*
X459735Y26070D01*
X459726Y26051D01*
X459716Y26012D01*
X459696Y25934D01*
X459677Y25826D01*
X459648Y25690D01*
X459628Y25524D01*
X459618Y25328D01*
X459609Y25104D01*
Y22693D01*
X458818D01*
Y27339D01*
X459521D01*
Y26685D01*
X459530Y26704D01*
X459560Y26744D01*
X459609Y26802D01*
X459677Y26880D01*
X459755Y26968D01*
X459853Y27056D01*
X459970Y27154D01*
X460097Y27232D01*
X460116Y27241D01*
X460165Y27261D01*
X460243Y27300D01*
X460340Y27339D01*
X460467Y27378D01*
X460604Y27417D01*
X460770Y27437D01*
X460936Y27446D01*
X461024D01*
X461121Y27437D01*
X461238Y27417D01*
X461365Y27398D01*
X461512Y27358D01*
X461648Y27300D01*
X461775Y27232D01*
X461795Y27222D01*
X461834Y27193D01*
X461892Y27144D01*
X461961Y27075D01*
X462039Y26988D01*
X462117Y26890D01*
X462185Y26763D01*
X462244Y26627D01*
X462253Y26636D01*
X462273Y26665D01*
X462302Y26704D01*
X462341Y26753D01*
X462400Y26822D01*
X462468Y26890D01*
X462546Y26958D01*
X462634Y27036D01*
X462732Y27114D01*
X462839Y27183D01*
X463093Y27319D01*
X463229Y27368D01*
X463376Y27407D01*
X463522Y27437D01*
X463688Y27446D01*
X463757D01*
X463805Y27437D01*
D02*
G37*
G36*
X449546Y22693D02*
X448677D01*
X445310Y27729D01*
Y22693D01*
X444500D01*
Y29105D01*
X445359D01*
X448736Y24069D01*
Y29105D01*
X449546D01*
Y22693D01*
D02*
G37*
G36*
X486478D02*
X485687D01*
Y27339D01*
X486478D01*
Y22693D01*
D02*
G37*
G36*
X468441Y27437D02*
X468578Y27427D01*
X468734Y27407D01*
X468900Y27388D01*
X469056Y27349D01*
X469203Y27300D01*
X469222Y27290D01*
X469261Y27280D01*
X469329Y27241D01*
X469408Y27202D01*
X469495Y27154D01*
X469593Y27095D01*
X469671Y27027D01*
X469749Y26948D01*
X469759Y26939D01*
X469778Y26910D01*
X469808Y26871D01*
X469847Y26802D01*
X469886Y26724D01*
X469925Y26636D01*
X469964Y26529D01*
X469993Y26412D01*
Y26402D01*
X470003Y26373D01*
X470013Y26324D01*
X470022Y26246D01*
Y26148D01*
X470032Y26021D01*
X470042Y25875D01*
Y25690D01*
Y24635D01*
Y24626D01*
Y24587D01*
Y24528D01*
Y24460D01*
Y24372D01*
Y24274D01*
X470052Y24050D01*
Y23806D01*
X470061Y23581D01*
X470071Y23474D01*
Y23386D01*
X470081Y23308D01*
X470091Y23240D01*
Y23230D01*
X470100Y23191D01*
X470110Y23132D01*
X470130Y23064D01*
X470159Y22986D01*
X470198Y22888D01*
X470286Y22693D01*
X469466D01*
X469456Y22703D01*
X469447Y22732D01*
X469427Y22791D01*
X469398Y22859D01*
X469369Y22947D01*
X469349Y23044D01*
X469329Y23152D01*
X469310Y23279D01*
X469290Y23259D01*
X469232Y23220D01*
X469154Y23152D01*
X469037Y23074D01*
X468910Y22976D01*
X468763Y22888D01*
X468617Y22810D01*
X468461Y22742D01*
X468441Y22732D01*
X468393Y22723D01*
X468314Y22693D01*
X468207Y22664D01*
X468070Y22635D01*
X467924Y22615D01*
X467768Y22596D01*
X467592Y22586D01*
X467524D01*
X467465Y22596D01*
X467407D01*
X467329Y22605D01*
X467163Y22635D01*
X466967Y22674D01*
X466782Y22742D01*
X466587Y22830D01*
X466421Y22957D01*
X466401Y22976D01*
X466353Y23025D01*
X466294Y23103D01*
X466216Y23220D01*
X466138Y23357D01*
X466079Y23513D01*
X466031Y23708D01*
X466011Y23913D01*
Y23933D01*
Y23972D01*
X466021Y24040D01*
X466031Y24118D01*
X466050Y24216D01*
X466070Y24323D01*
X466109Y24430D01*
X466157Y24538D01*
X466167Y24548D01*
X466187Y24587D01*
X466216Y24635D01*
X466265Y24704D01*
X466323Y24772D01*
X466401Y24850D01*
X466479Y24918D01*
X466567Y24987D01*
X466577Y24996D01*
X466616Y25016D01*
X466665Y25045D01*
X466733Y25084D01*
X466821Y25133D01*
X466909Y25172D01*
X467016Y25211D01*
X467133Y25250D01*
X467143D01*
X467182Y25260D01*
X467231Y25270D01*
X467309Y25289D01*
X467407Y25309D01*
X467534Y25328D01*
X467670Y25348D01*
X467836Y25367D01*
X467846D01*
X467875Y25377D01*
X467924D01*
X467992Y25387D01*
X468070Y25397D01*
X468158Y25407D01*
X468373Y25446D01*
X468597Y25484D01*
X468832Y25524D01*
X469056Y25582D01*
X469154Y25611D01*
X469242Y25641D01*
Y25651D01*
Y25670D01*
X469251Y25728D01*
Y25797D01*
Y25826D01*
Y25846D01*
Y25855D01*
Y25865D01*
Y25924D01*
X469242Y26012D01*
X469222Y26109D01*
X469193Y26217D01*
X469154Y26334D01*
X469105Y26431D01*
X469027Y26519D01*
X469017Y26529D01*
X468968Y26558D01*
X468900Y26607D01*
X468802Y26656D01*
X468676Y26704D01*
X468519Y26753D01*
X468334Y26783D01*
X468129Y26792D01*
X468041D01*
X467943Y26783D01*
X467817Y26773D01*
X467680Y26744D01*
X467553Y26714D01*
X467416Y26665D01*
X467309Y26597D01*
X467299Y26587D01*
X467270Y26558D01*
X467221Y26509D01*
X467163Y26441D01*
X467094Y26343D01*
X467036Y26226D01*
X466967Y26080D01*
X466919Y25914D01*
X466148Y26021D01*
Y26031D01*
X466157Y26041D01*
X466167Y26099D01*
X466196Y26187D01*
X466226Y26304D01*
X466275Y26431D01*
X466333Y26558D01*
X466401Y26695D01*
X466489Y26812D01*
X466499Y26822D01*
X466538Y26861D01*
X466587Y26919D01*
X466665Y26988D01*
X466763Y27056D01*
X466889Y27134D01*
X467026Y27212D01*
X467182Y27280D01*
X467192D01*
X467202Y27290D01*
X467231Y27300D01*
X467260Y27310D01*
X467358Y27329D01*
X467485Y27368D01*
X467641Y27398D01*
X467817Y27417D01*
X468022Y27437D01*
X468236Y27446D01*
X468334D01*
X468441Y27437D01*
D02*
G37*
G36*
X494686D02*
X494774Y27427D01*
X494862Y27417D01*
X494969Y27398D01*
X495086Y27368D01*
X495330Y27290D01*
X495457Y27241D01*
X495594Y27183D01*
X495720Y27105D01*
X495847Y27017D01*
X495974Y26919D01*
X496091Y26812D01*
X496101Y26802D01*
X496121Y26783D01*
X496150Y26744D01*
X496189Y26695D01*
X496238Y26636D01*
X496287Y26558D01*
X496345Y26460D01*
X496404Y26363D01*
X496453Y26246D01*
X496511Y26109D01*
X496560Y25973D01*
X496609Y25816D01*
X496648Y25651D01*
X496677Y25465D01*
X496697Y25280D01*
X496706Y25075D01*
Y25065D01*
Y25036D01*
Y24987D01*
Y24928D01*
X496697Y24850D01*
Y24762D01*
X496687Y24665D01*
X496677Y24557D01*
X496638Y24333D01*
X496589Y24099D01*
X496521Y23864D01*
X496433Y23659D01*
Y23650D01*
X496423Y23640D01*
X496384Y23572D01*
X496316Y23484D01*
X496228Y23367D01*
X496121Y23240D01*
X495984Y23113D01*
X495828Y22986D01*
X495642Y22869D01*
X495633D01*
X495623Y22859D01*
X495594Y22840D01*
X495555Y22830D01*
X495447Y22781D01*
X495311Y22732D01*
X495145Y22674D01*
X494959Y22635D01*
X494754Y22596D01*
X494530Y22586D01*
X494432D01*
X494364Y22596D01*
X494286Y22605D01*
X494188Y22615D01*
X494081Y22635D01*
X493964Y22664D01*
X493720Y22742D01*
X493583Y22791D01*
X493456Y22849D01*
X493320Y22918D01*
X493193Y23006D01*
X493066Y23103D01*
X492949Y23211D01*
X492939Y23220D01*
X492919Y23240D01*
X492890Y23279D01*
X492861Y23328D01*
X492812Y23396D01*
X492763Y23474D01*
X492705Y23562D01*
X492656Y23669D01*
X492597Y23796D01*
X492539Y23923D01*
X492490Y24079D01*
X492451Y24235D01*
X492412Y24411D01*
X492383Y24596D01*
X492363Y24801D01*
X492353Y25016D01*
Y25036D01*
Y25075D01*
X492363Y25143D01*
Y25231D01*
X492373Y25338D01*
X492392Y25455D01*
X492412Y25592D01*
X492441Y25738D01*
X492480Y25894D01*
X492529Y26051D01*
X492588Y26207D01*
X492656Y26363D01*
X492734Y26519D01*
X492832Y26665D01*
X492939Y26802D01*
X493066Y26929D01*
X493076Y26939D01*
X493095Y26948D01*
X493124Y26978D01*
X493173Y27007D01*
X493232Y27046D01*
X493300Y27095D01*
X493378Y27144D01*
X493476Y27193D01*
X493573Y27232D01*
X493681Y27280D01*
X493934Y27368D01*
X494217Y27427D01*
X494374Y27437D01*
X494530Y27446D01*
X494618D01*
X494686Y27437D01*
D02*
G37*
G36*
X452903D02*
X452991Y27427D01*
X453079Y27417D01*
X453186Y27398D01*
X453303Y27368D01*
X453547Y27290D01*
X453674Y27241D01*
X453811Y27183D01*
X453938Y27105D01*
X454065Y27017D01*
X454192Y26919D01*
X454309Y26812D01*
X454319Y26802D01*
X454338Y26783D01*
X454367Y26744D01*
X454406Y26695D01*
X454455Y26636D01*
X454504Y26558D01*
X454563Y26460D01*
X454621Y26363D01*
X454670Y26246D01*
X454729Y26109D01*
X454777Y25973D01*
X454826Y25816D01*
X454865Y25651D01*
X454894Y25465D01*
X454914Y25280D01*
X454924Y25075D01*
Y25065D01*
Y25036D01*
Y24987D01*
Y24928D01*
X454914Y24850D01*
Y24762D01*
X454904Y24665D01*
X454894Y24557D01*
X454855Y24333D01*
X454807Y24099D01*
X454738Y23864D01*
X454650Y23659D01*
Y23650D01*
X454641Y23640D01*
X454602Y23572D01*
X454533Y23484D01*
X454445Y23367D01*
X454338Y23240D01*
X454201Y23113D01*
X454045Y22986D01*
X453860Y22869D01*
X453850D01*
X453840Y22859D01*
X453811Y22840D01*
X453772Y22830D01*
X453665Y22781D01*
X453528Y22732D01*
X453362Y22674D01*
X453177Y22635D01*
X452972Y22596D01*
X452747Y22586D01*
X452650D01*
X452581Y22596D01*
X452503Y22605D01*
X452406Y22615D01*
X452298Y22635D01*
X452181Y22664D01*
X451937Y22742D01*
X451800Y22791D01*
X451674Y22849D01*
X451537Y22918D01*
X451410Y23006D01*
X451283Y23103D01*
X451166Y23211D01*
X451156Y23220D01*
X451137Y23240D01*
X451108Y23279D01*
X451078Y23328D01*
X451029Y23396D01*
X450981Y23474D01*
X450922Y23562D01*
X450873Y23669D01*
X450815Y23796D01*
X450756Y23923D01*
X450707Y24079D01*
X450668Y24235D01*
X450629Y24411D01*
X450600Y24596D01*
X450581Y24801D01*
X450571Y25016D01*
Y25036D01*
Y25075D01*
X450581Y25143D01*
Y25231D01*
X450590Y25338D01*
X450610Y25455D01*
X450629Y25592D01*
X450659Y25738D01*
X450698Y25894D01*
X450746Y26051D01*
X450805Y26207D01*
X450873Y26363D01*
X450951Y26519D01*
X451049Y26665D01*
X451156Y26802D01*
X451283Y26929D01*
X451293Y26939D01*
X451312Y26948D01*
X451342Y26978D01*
X451391Y27007D01*
X451449Y27046D01*
X451517Y27095D01*
X451595Y27144D01*
X451693Y27193D01*
X451791Y27232D01*
X451898Y27280D01*
X452152Y27368D01*
X452435Y27427D01*
X452591Y27437D01*
X452747Y27446D01*
X452835D01*
X452903Y27437D01*
D02*
G37*
G36*
X492841Y21294D02*
X492949Y21284D01*
X493076Y21264D01*
X493212Y21245D01*
X493359Y21215D01*
X493241Y20532D01*
X493232D01*
X493202Y20542D01*
X493154Y20552D01*
X493095Y20562D01*
X493017D01*
X492939Y20571D01*
X492773Y20581D01*
X492714D01*
X492656Y20571D01*
X492578Y20562D01*
X492500Y20542D01*
X492412Y20513D01*
X492334Y20474D01*
X492265Y20425D01*
X492256Y20415D01*
X492246Y20396D01*
X492217Y20357D01*
X492197Y20298D01*
X492168Y20220D01*
X492139Y20113D01*
X492129Y19996D01*
X492119Y19849D01*
Y19429D01*
X493027D01*
Y18815D01*
X492129D01*
Y14784D01*
X491338D01*
Y18815D01*
X490645D01*
Y19429D01*
X491338D01*
Y19917D01*
Y19927D01*
Y19937D01*
Y19996D01*
X491348Y20074D01*
Y20181D01*
X491358Y20288D01*
X491377Y20405D01*
X491397Y20513D01*
X491426Y20610D01*
X491436Y20620D01*
X491446Y20659D01*
X491475Y20718D01*
X491514Y20786D01*
X491573Y20874D01*
X491641Y20952D01*
X491719Y21030D01*
X491817Y21108D01*
X491826Y21118D01*
X491875Y21137D01*
X491934Y21167D01*
X492031Y21206D01*
X492139Y21245D01*
X492285Y21274D01*
X492441Y21294D01*
X492627Y21303D01*
X492753D01*
X492841Y21294D01*
D02*
G37*
G36*
X475527Y20298D02*
X474736D01*
Y21196D01*
X475527D01*
Y20298D01*
D02*
G37*
G36*
X456622D02*
X455831D01*
Y21196D01*
X456622D01*
Y20298D01*
D02*
G37*
G36*
X453186Y19527D02*
X453284Y19517D01*
X453401Y19498D01*
X453538Y19468D01*
X453665Y19429D01*
X453801Y19381D01*
X453821Y19371D01*
X453860Y19351D01*
X453918Y19322D01*
X453997Y19273D01*
X454084Y19215D01*
X454172Y19146D01*
X454260Y19068D01*
X454328Y18981D01*
X454338Y18971D01*
X454358Y18941D01*
X454387Y18883D01*
X454426Y18815D01*
X454465Y18736D01*
X454504Y18639D01*
X454543Y18522D01*
X454572Y18405D01*
Y18395D01*
X454582Y18366D01*
X454592Y18307D01*
X454602Y18229D01*
Y18122D01*
X454611Y17985D01*
X454621Y17829D01*
Y17634D01*
Y14784D01*
X453831D01*
Y17604D01*
Y17614D01*
Y17624D01*
Y17682D01*
Y17770D01*
X453821Y17878D01*
X453811Y17985D01*
X453792Y18112D01*
X453762Y18219D01*
X453733Y18317D01*
Y18327D01*
X453713Y18356D01*
X453694Y18405D01*
X453665Y18453D01*
X453616Y18522D01*
X453557Y18580D01*
X453489Y18649D01*
X453411Y18707D01*
X453401Y18717D01*
X453372Y18727D01*
X453323Y18756D01*
X453255Y18785D01*
X453177Y18805D01*
X453079Y18834D01*
X452981Y18844D01*
X452864Y18854D01*
X452776D01*
X452689Y18834D01*
X452562Y18815D01*
X452425Y18776D01*
X452288Y18717D01*
X452132Y18639D01*
X451996Y18531D01*
X451976Y18512D01*
X451937Y18463D01*
X451879Y18385D01*
X451849Y18327D01*
X451820Y18258D01*
X451781Y18180D01*
X451752Y18092D01*
X451722Y17995D01*
X451693Y17887D01*
X451664Y17761D01*
X451654Y17624D01*
X451635Y17477D01*
Y17321D01*
Y14784D01*
X450844D01*
Y19429D01*
X451556D01*
Y18766D01*
X451566Y18776D01*
X451576Y18795D01*
X451605Y18834D01*
X451654Y18883D01*
X451703Y18941D01*
X451771Y19010D01*
X451839Y19078D01*
X451927Y19156D01*
X452035Y19225D01*
X452142Y19293D01*
X452259Y19361D01*
X452396Y19420D01*
X452532Y19468D01*
X452689Y19508D01*
X452855Y19527D01*
X453030Y19537D01*
X453099D01*
X453186Y19527D01*
D02*
G37*
G36*
X469125D02*
X469232Y19508D01*
X469349Y19468D01*
X469486Y19429D01*
X469632Y19361D01*
X469788Y19273D01*
X469505Y18551D01*
X469495Y18561D01*
X469456Y18580D01*
X469398Y18610D01*
X469329Y18639D01*
X469242Y18668D01*
X469144Y18697D01*
X469037Y18717D01*
X468929Y18727D01*
X468890D01*
X468841Y18717D01*
X468773Y18707D01*
X468705Y18688D01*
X468627Y18658D01*
X468549Y18619D01*
X468471Y18571D01*
X468461Y18561D01*
X468441Y18541D01*
X468402Y18502D01*
X468363Y18453D01*
X468314Y18395D01*
X468266Y18317D01*
X468227Y18229D01*
X468188Y18131D01*
X468178Y18112D01*
X468168Y18063D01*
X468149Y17975D01*
X468129Y17858D01*
X468100Y17721D01*
X468080Y17565D01*
X468070Y17399D01*
X468061Y17214D01*
Y14784D01*
X467270D01*
Y19429D01*
X467983D01*
Y18736D01*
X467992Y18746D01*
X468031Y18805D01*
X468080Y18893D01*
X468139Y18990D01*
X468217Y19098D01*
X468305Y19205D01*
X468383Y19303D01*
X468471Y19371D01*
X468480Y19381D01*
X468510Y19400D01*
X468558Y19420D01*
X468627Y19459D01*
X468695Y19488D01*
X468783Y19508D01*
X468881Y19527D01*
X468978Y19537D01*
X469046D01*
X469125Y19527D01*
D02*
G37*
G36*
X471965D02*
X472091Y19517D01*
X472248Y19498D01*
X472404Y19468D01*
X472570Y19429D01*
X472726Y19371D01*
X472736D01*
X472745Y19361D01*
X472794Y19342D01*
X472872Y19303D01*
X472960Y19263D01*
X473058Y19195D01*
X473165Y19127D01*
X473263Y19039D01*
X473341Y18941D01*
X473351Y18932D01*
X473370Y18893D01*
X473409Y18834D01*
X473458Y18756D01*
X473497Y18658D01*
X473546Y18531D01*
X473585Y18395D01*
X473624Y18239D01*
X472853Y18131D01*
Y18151D01*
X472843Y18190D01*
X472823Y18258D01*
X472794Y18336D01*
X472755Y18424D01*
X472697Y18512D01*
X472628Y18610D01*
X472541Y18688D01*
X472531Y18697D01*
X472492Y18717D01*
X472433Y18756D01*
X472355Y18795D01*
X472257Y18824D01*
X472131Y18863D01*
X471994Y18883D01*
X471828Y18893D01*
X471740D01*
X471643Y18883D01*
X471525Y18873D01*
X471399Y18844D01*
X471272Y18815D01*
X471145Y18766D01*
X471047Y18707D01*
X471037Y18697D01*
X471008Y18678D01*
X470979Y18639D01*
X470940Y18590D01*
X470891Y18531D01*
X470862Y18453D01*
X470832Y18375D01*
X470823Y18288D01*
Y18278D01*
Y18258D01*
X470832Y18229D01*
Y18190D01*
X470862Y18102D01*
X470911Y18004D01*
X470920Y17995D01*
X470930Y17985D01*
X470989Y17936D01*
X471028Y17897D01*
X471076Y17868D01*
X471145Y17829D01*
X471213Y17799D01*
X471223D01*
X471242Y17790D01*
X471281Y17780D01*
X471350Y17761D01*
X471438Y17731D01*
X471564Y17692D01*
X471721Y17653D01*
X471808Y17624D01*
X471916Y17595D01*
X471926D01*
X471955Y17585D01*
X471994Y17575D01*
X472052Y17556D01*
X472121Y17536D01*
X472199Y17516D01*
X472375Y17468D01*
X472570Y17409D01*
X472765Y17341D01*
X472941Y17282D01*
X473019Y17253D01*
X473087Y17224D01*
X473107Y17214D01*
X473146Y17194D01*
X473204Y17165D01*
X473273Y17126D01*
X473360Y17067D01*
X473448Y16989D01*
X473526Y16911D01*
X473604Y16814D01*
X473614Y16804D01*
X473634Y16765D01*
X473663Y16706D01*
X473702Y16628D01*
X473741Y16531D01*
X473770Y16414D01*
X473790Y16287D01*
X473800Y16140D01*
Y16121D01*
Y16072D01*
X473790Y15994D01*
X473770Y15906D01*
X473741Y15789D01*
X473702Y15662D01*
X473643Y15535D01*
X473565Y15399D01*
X473556Y15379D01*
X473526Y15340D01*
X473468Y15281D01*
X473390Y15203D01*
X473302Y15115D01*
X473185Y15028D01*
X473048Y14940D01*
X472892Y14862D01*
X472872Y14852D01*
X472814Y14832D01*
X472726Y14803D01*
X472609Y14774D01*
X472462Y14735D01*
X472296Y14706D01*
X472111Y14686D01*
X471916Y14676D01*
X471828D01*
X471769Y14686D01*
X471691D01*
X471603Y14696D01*
X471399Y14725D01*
X471174Y14764D01*
X470950Y14832D01*
X470725Y14920D01*
X470627Y14979D01*
X470530Y15047D01*
X470520D01*
X470510Y15067D01*
X470452Y15115D01*
X470374Y15203D01*
X470276Y15330D01*
X470179Y15486D01*
X470081Y15682D01*
X469993Y15906D01*
X469935Y16170D01*
X470715Y16296D01*
Y16287D01*
Y16277D01*
X470725Y16218D01*
X470754Y16131D01*
X470784Y16023D01*
X470832Y15906D01*
X470891Y15789D01*
X470979Y15672D01*
X471076Y15564D01*
X471086Y15555D01*
X471135Y15525D01*
X471203Y15486D01*
X471291Y15447D01*
X471418Y15399D01*
X471555Y15360D01*
X471730Y15330D01*
X471916Y15321D01*
X472004D01*
X472101Y15330D01*
X472218Y15350D01*
X472355Y15369D01*
X472492Y15408D01*
X472619Y15467D01*
X472726Y15535D01*
X472736Y15545D01*
X472765Y15574D01*
X472814Y15623D01*
X472863Y15682D01*
X472902Y15760D01*
X472950Y15857D01*
X472980Y15955D01*
X472989Y16062D01*
Y16072D01*
Y16111D01*
X472980Y16150D01*
X472960Y16218D01*
X472931Y16277D01*
X472892Y16355D01*
X472833Y16423D01*
X472755Y16482D01*
X472745Y16492D01*
X472716Y16501D01*
X472667Y16521D01*
X472589Y16560D01*
X472482Y16589D01*
X472345Y16638D01*
X472257Y16667D01*
X472170Y16687D01*
X472062Y16716D01*
X471945Y16745D01*
X471935D01*
X471906Y16755D01*
X471867Y16765D01*
X471808Y16784D01*
X471730Y16804D01*
X471652Y16824D01*
X471467Y16882D01*
X471272Y16941D01*
X471067Y16999D01*
X470881Y17067D01*
X470803Y17097D01*
X470735Y17126D01*
X470725Y17136D01*
X470676Y17155D01*
X470618Y17194D01*
X470549Y17243D01*
X470462Y17302D01*
X470384Y17380D01*
X470296Y17468D01*
X470227Y17565D01*
X470218Y17575D01*
X470198Y17614D01*
X470179Y17673D01*
X470149Y17751D01*
X470110Y17839D01*
X470091Y17946D01*
X470071Y18063D01*
X470061Y18190D01*
Y18200D01*
Y18239D01*
X470071Y18307D01*
X470081Y18375D01*
X470091Y18463D01*
X470120Y18561D01*
X470149Y18668D01*
X470198Y18766D01*
X470208Y18776D01*
X470227Y18815D01*
X470257Y18863D01*
X470305Y18922D01*
X470354Y18990D01*
X470423Y19059D01*
X470501Y19137D01*
X470588Y19205D01*
X470598Y19215D01*
X470627Y19225D01*
X470667Y19254D01*
X470725Y19283D01*
X470793Y19322D01*
X470881Y19361D01*
X470979Y19400D01*
X471086Y19439D01*
X471106D01*
X471145Y19459D01*
X471203Y19468D01*
X471291Y19488D01*
X471399Y19508D01*
X471506Y19517D01*
X471633Y19537D01*
X471857D01*
X471965Y19527D01*
D02*
G37*
G36*
X459843Y14784D02*
X459101D01*
X457334Y19429D01*
X458164D01*
X459160Y16638D01*
X459169Y16619D01*
X459189Y16560D01*
X459218Y16472D01*
X459257Y16355D01*
X459306Y16218D01*
X459355Y16062D01*
X459413Y15887D01*
X459462Y15711D01*
X459472Y15730D01*
X459482Y15779D01*
X459511Y15857D01*
X459540Y15955D01*
X459579Y16082D01*
X459628Y16238D01*
X459687Y16404D01*
X459755Y16589D01*
X460789Y19429D01*
X461599D01*
X459843Y14784D01*
D02*
G37*
G36*
X481256Y14706D02*
Y14696D01*
X481246Y14676D01*
X481227Y14637D01*
X481207Y14579D01*
X481188Y14520D01*
X481159Y14452D01*
X481100Y14286D01*
X481022Y14110D01*
X480954Y13944D01*
X480885Y13778D01*
X480846Y13710D01*
X480817Y13652D01*
X480807Y13632D01*
X480778Y13593D01*
X480739Y13525D01*
X480680Y13437D01*
X480602Y13349D01*
X480524Y13251D01*
X480427Y13163D01*
X480329Y13085D01*
X480319Y13076D01*
X480280Y13056D01*
X480222Y13027D01*
X480143Y12998D01*
X480056Y12959D01*
X479939Y12929D01*
X479821Y12910D01*
X479685Y12900D01*
X479646D01*
X479597Y12910D01*
X479538D01*
X479460Y12920D01*
X479373Y12939D01*
X479177Y12998D01*
X479089Y13730D01*
X479099D01*
X479129Y13720D01*
X479177Y13710D01*
X479246Y13691D01*
X479382Y13661D01*
X479538Y13652D01*
X479587D01*
X479626Y13661D01*
X479695D01*
X479831Y13691D01*
X479900Y13710D01*
X479958Y13739D01*
X479968D01*
X479987Y13759D01*
X480017Y13778D01*
X480046Y13808D01*
X480134Y13886D01*
X480222Y13993D01*
Y14003D01*
X480231Y14022D01*
X480251Y14052D01*
X480280Y14110D01*
X480309Y14188D01*
X480348Y14286D01*
X480397Y14423D01*
X480456Y14579D01*
X480466Y14589D01*
X480475Y14627D01*
X480505Y14686D01*
X480534Y14774D01*
X478767Y19429D01*
X479607D01*
X480573Y16755D01*
Y16745D01*
X480583Y16736D01*
X480592Y16706D01*
X480602Y16667D01*
X480641Y16560D01*
X480690Y16423D01*
X480739Y16267D01*
X480797Y16082D01*
X480856Y15887D01*
X480915Y15682D01*
Y15691D01*
X480924Y15701D01*
Y15730D01*
X480944Y15769D01*
X480963Y15877D01*
X481002Y16004D01*
X481051Y16160D01*
X481110Y16335D01*
X481168Y16521D01*
X481237Y16716D01*
X482232Y19429D01*
X483013D01*
X481256Y14706D01*
D02*
G37*
G36*
X501284Y17487D02*
Y17477D01*
Y17448D01*
Y17399D01*
Y17331D01*
X501274Y17243D01*
Y17155D01*
X501264Y17048D01*
X501254Y16931D01*
X501225Y16687D01*
X501186Y16433D01*
X501137Y16179D01*
X501059Y15955D01*
Y15945D01*
X501049Y15926D01*
X501040Y15896D01*
X501020Y15857D01*
X500962Y15760D01*
X500883Y15623D01*
X500776Y15477D01*
X500639Y15321D01*
X500464Y15174D01*
X500269Y15028D01*
X500259D01*
X500239Y15008D01*
X500210Y14998D01*
X500161Y14969D01*
X500112Y14950D01*
X500044Y14920D01*
X499956Y14881D01*
X499868Y14852D01*
X499771Y14823D01*
X499654Y14784D01*
X499537Y14754D01*
X499400Y14735D01*
X499107Y14696D01*
X498775Y14676D01*
X498688D01*
X498629Y14686D01*
X498551D01*
X498463Y14696D01*
X498365Y14706D01*
X498258Y14715D01*
X498024Y14754D01*
X497780Y14803D01*
X497526Y14881D01*
X497302Y14979D01*
X497292D01*
X497272Y14998D01*
X497253Y15008D01*
X497214Y15037D01*
X497106Y15106D01*
X496989Y15213D01*
X496853Y15340D01*
X496726Y15486D01*
X496599Y15672D01*
X496491Y15877D01*
Y15887D01*
X496482Y15906D01*
X496472Y15935D01*
X496453Y15984D01*
X496433Y16043D01*
X496413Y16121D01*
X496394Y16209D01*
X496374Y16306D01*
X496345Y16414D01*
X496326Y16531D01*
X496306Y16667D01*
X496287Y16804D01*
X496267Y16960D01*
X496257Y17126D01*
X496247Y17302D01*
Y17487D01*
Y21196D01*
X497097D01*
Y17487D01*
Y17477D01*
Y17448D01*
Y17409D01*
Y17351D01*
Y17282D01*
X497106Y17204D01*
X497116Y17019D01*
X497136Y16824D01*
X497155Y16619D01*
X497194Y16423D01*
X497214Y16335D01*
X497243Y16257D01*
X497253Y16238D01*
X497272Y16189D01*
X497311Y16121D01*
X497370Y16033D01*
X497438Y15935D01*
X497536Y15828D01*
X497643Y15730D01*
X497780Y15643D01*
X497799Y15633D01*
X497848Y15613D01*
X497926Y15574D01*
X498034Y15545D01*
X498170Y15506D01*
X498326Y15467D01*
X498502Y15447D01*
X498697Y15438D01*
X498785D01*
X498853Y15447D01*
X498932D01*
X499019Y15457D01*
X499215Y15486D01*
X499439Y15545D01*
X499654Y15613D01*
X499859Y15721D01*
X499956Y15779D01*
X500034Y15857D01*
Y15867D01*
X500054Y15877D01*
X500073Y15906D01*
X500093Y15945D01*
X500132Y15994D01*
X500161Y16052D01*
X500200Y16131D01*
X500239Y16218D01*
X500269Y16326D01*
X500308Y16443D01*
X500347Y16570D01*
X500376Y16726D01*
X500395Y16892D01*
X500415Y17067D01*
X500435Y17273D01*
Y17487D01*
Y21196D01*
X501284D01*
Y17487D01*
D02*
G37*
G36*
X449536D02*
Y17477D01*
Y17448D01*
Y17399D01*
Y17331D01*
X449526Y17243D01*
Y17155D01*
X449517Y17048D01*
X449507Y16931D01*
X449478Y16687D01*
X449439Y16433D01*
X449390Y16179D01*
X449312Y15955D01*
Y15945D01*
X449302Y15926D01*
X449292Y15896D01*
X449273Y15857D01*
X449214Y15760D01*
X449136Y15623D01*
X449029Y15477D01*
X448892Y15321D01*
X448716Y15174D01*
X448521Y15028D01*
X448511D01*
X448492Y15008D01*
X448463Y14998D01*
X448414Y14969D01*
X448365Y14950D01*
X448297Y14920D01*
X448209Y14881D01*
X448121Y14852D01*
X448023Y14823D01*
X447906Y14784D01*
X447789Y14754D01*
X447652Y14735D01*
X447360Y14696D01*
X447028Y14676D01*
X446940D01*
X446881Y14686D01*
X446803D01*
X446715Y14696D01*
X446618Y14706D01*
X446511Y14715D01*
X446276Y14754D01*
X446032Y14803D01*
X445779Y14881D01*
X445554Y14979D01*
X445544D01*
X445525Y14998D01*
X445505Y15008D01*
X445466Y15037D01*
X445359Y15106D01*
X445242Y15213D01*
X445105Y15340D01*
X444978Y15486D01*
X444851Y15672D01*
X444744Y15877D01*
Y15887D01*
X444734Y15906D01*
X444725Y15935D01*
X444705Y15984D01*
X444685Y16043D01*
X444666Y16121D01*
X444646Y16209D01*
X444627Y16306D01*
X444598Y16414D01*
X444578Y16531D01*
X444559Y16667D01*
X444539Y16804D01*
X444520Y16960D01*
X444510Y17126D01*
X444500Y17302D01*
Y17487D01*
Y21196D01*
X445349D01*
Y17487D01*
Y17477D01*
Y17448D01*
Y17409D01*
Y17351D01*
Y17282D01*
X445359Y17204D01*
X445369Y17019D01*
X445388Y16824D01*
X445408Y16619D01*
X445447Y16423D01*
X445466Y16335D01*
X445496Y16257D01*
X445505Y16238D01*
X445525Y16189D01*
X445564Y16121D01*
X445622Y16033D01*
X445691Y15935D01*
X445788Y15828D01*
X445896Y15730D01*
X446032Y15643D01*
X446052Y15633D01*
X446101Y15613D01*
X446179Y15574D01*
X446286Y15545D01*
X446423Y15506D01*
X446579Y15467D01*
X446755Y15447D01*
X446950Y15438D01*
X447038D01*
X447106Y15447D01*
X447184D01*
X447272Y15457D01*
X447467Y15486D01*
X447691Y15545D01*
X447906Y15613D01*
X448111Y15721D01*
X448209Y15779D01*
X448287Y15857D01*
Y15867D01*
X448306Y15877D01*
X448326Y15906D01*
X448345Y15945D01*
X448385Y15994D01*
X448414Y16052D01*
X448453Y16131D01*
X448492Y16218D01*
X448521Y16326D01*
X448560Y16443D01*
X448599Y16570D01*
X448629Y16726D01*
X448648Y16892D01*
X448667Y17067D01*
X448687Y17273D01*
Y17487D01*
Y21196D01*
X449536D01*
Y17487D01*
D02*
G37*
G36*
X510849Y18902D02*
X510858Y18912D01*
X510878Y18932D01*
X510907Y18961D01*
X510946Y19000D01*
X511005Y19049D01*
X511063Y19107D01*
X511141Y19156D01*
X511229Y19225D01*
X511327Y19283D01*
X511424Y19332D01*
X511668Y19439D01*
X511795Y19478D01*
X511932Y19508D01*
X512078Y19527D01*
X512234Y19537D01*
X512322D01*
X512420Y19527D01*
X512537Y19508D01*
X512674Y19488D01*
X512820Y19449D01*
X512976Y19400D01*
X513123Y19332D01*
X513142Y19322D01*
X513181Y19293D01*
X513249Y19244D01*
X513337Y19185D01*
X513425Y19107D01*
X513513Y19010D01*
X513601Y18893D01*
X513669Y18766D01*
X513679Y18746D01*
X513698Y18697D01*
X513718Y18619D01*
X513757Y18502D01*
X513786Y18356D01*
X513806Y18170D01*
X513825Y17965D01*
X513835Y17721D01*
Y14784D01*
X513045D01*
Y17731D01*
Y17741D01*
Y17761D01*
Y17790D01*
Y17829D01*
X513035Y17926D01*
X513015Y18063D01*
X512976Y18200D01*
X512937Y18336D01*
X512869Y18473D01*
X512781Y18590D01*
X512771Y18600D01*
X512732Y18629D01*
X512674Y18678D01*
X512596Y18727D01*
X512498Y18776D01*
X512371Y18824D01*
X512234Y18854D01*
X512069Y18863D01*
X512010D01*
X511942Y18854D01*
X511854Y18844D01*
X511756Y18815D01*
X511639Y18785D01*
X511522Y18736D01*
X511405Y18678D01*
X511395Y18668D01*
X511356Y18649D01*
X511307Y18600D01*
X511239Y18551D01*
X511171Y18473D01*
X511093Y18395D01*
X511034Y18288D01*
X510975Y18180D01*
X510966Y18170D01*
X510956Y18122D01*
X510936Y18053D01*
X510917Y17956D01*
X510887Y17829D01*
X510868Y17682D01*
X510858Y17516D01*
X510849Y17321D01*
Y14784D01*
X510058D01*
Y21196D01*
X510849D01*
Y18902D01*
D02*
G37*
G36*
X507247Y19527D02*
X507384Y19517D01*
X507540Y19498D01*
X507706Y19478D01*
X507862Y19439D01*
X508008Y19390D01*
X508028Y19381D01*
X508067Y19371D01*
X508135Y19332D01*
X508213Y19293D01*
X508301Y19244D01*
X508399Y19185D01*
X508477Y19117D01*
X508555Y19039D01*
X508565Y19029D01*
X508584Y19000D01*
X508613Y18961D01*
X508652Y18893D01*
X508692Y18815D01*
X508731Y18727D01*
X508770Y18619D01*
X508799Y18502D01*
Y18493D01*
X508809Y18463D01*
X508818Y18414D01*
X508828Y18336D01*
Y18239D01*
X508838Y18112D01*
X508848Y17965D01*
Y17780D01*
Y16726D01*
Y16716D01*
Y16677D01*
Y16619D01*
Y16550D01*
Y16462D01*
Y16365D01*
X508857Y16140D01*
Y15896D01*
X508867Y15672D01*
X508877Y15564D01*
Y15477D01*
X508887Y15399D01*
X508896Y15330D01*
Y15321D01*
X508906Y15281D01*
X508916Y15223D01*
X508935Y15155D01*
X508965Y15077D01*
X509004Y14979D01*
X509092Y14784D01*
X508272D01*
X508262Y14793D01*
X508252Y14823D01*
X508233Y14881D01*
X508204Y14950D01*
X508174Y15037D01*
X508155Y15135D01*
X508135Y15242D01*
X508116Y15369D01*
X508096Y15350D01*
X508038Y15311D01*
X507960Y15242D01*
X507842Y15164D01*
X507716Y15067D01*
X507569Y14979D01*
X507423Y14901D01*
X507267Y14832D01*
X507247Y14823D01*
X507198Y14813D01*
X507120Y14784D01*
X507013Y14754D01*
X506876Y14725D01*
X506730Y14706D01*
X506574Y14686D01*
X506398Y14676D01*
X506330D01*
X506271Y14686D01*
X506213D01*
X506134Y14696D01*
X505969Y14725D01*
X505773Y14764D01*
X505588Y14832D01*
X505393Y14920D01*
X505227Y15047D01*
X505207Y15067D01*
X505158Y15115D01*
X505100Y15194D01*
X505022Y15311D01*
X504944Y15447D01*
X504885Y15604D01*
X504836Y15799D01*
X504817Y16004D01*
Y16023D01*
Y16062D01*
X504827Y16131D01*
X504836Y16209D01*
X504856Y16306D01*
X504875Y16414D01*
X504914Y16521D01*
X504963Y16628D01*
X504973Y16638D01*
X504992Y16677D01*
X505022Y16726D01*
X505071Y16794D01*
X505129Y16863D01*
X505207Y16941D01*
X505285Y17009D01*
X505373Y17077D01*
X505383Y17087D01*
X505422Y17107D01*
X505471Y17136D01*
X505539Y17175D01*
X505627Y17224D01*
X505715Y17263D01*
X505822Y17302D01*
X505939Y17341D01*
X505949D01*
X505988Y17351D01*
X506037Y17360D01*
X506115Y17380D01*
X506213Y17399D01*
X506339Y17419D01*
X506476Y17438D01*
X506642Y17458D01*
X506652D01*
X506681Y17468D01*
X506730D01*
X506798Y17477D01*
X506876Y17487D01*
X506964Y17497D01*
X507179Y17536D01*
X507403Y17575D01*
X507637Y17614D01*
X507862Y17673D01*
X507960Y17702D01*
X508047Y17731D01*
Y17741D01*
Y17761D01*
X508057Y17819D01*
Y17887D01*
Y17917D01*
Y17936D01*
Y17946D01*
Y17956D01*
Y18014D01*
X508047Y18102D01*
X508028Y18200D01*
X507999Y18307D01*
X507960Y18424D01*
X507911Y18522D01*
X507833Y18610D01*
X507823Y18619D01*
X507774Y18649D01*
X507706Y18697D01*
X507608Y18746D01*
X507481Y18795D01*
X507325Y18844D01*
X507140Y18873D01*
X506935Y18883D01*
X506847D01*
X506749Y18873D01*
X506622Y18863D01*
X506486Y18834D01*
X506359Y18805D01*
X506222Y18756D01*
X506115Y18688D01*
X506105Y18678D01*
X506076Y18649D01*
X506027Y18600D01*
X505969Y18531D01*
X505900Y18434D01*
X505842Y18317D01*
X505773Y18170D01*
X505724Y18004D01*
X504953Y18112D01*
Y18122D01*
X504963Y18131D01*
X504973Y18190D01*
X505002Y18278D01*
X505031Y18395D01*
X505080Y18522D01*
X505139Y18649D01*
X505207Y18785D01*
X505295Y18902D01*
X505305Y18912D01*
X505344Y18951D01*
X505393Y19010D01*
X505471Y19078D01*
X505568Y19146D01*
X505695Y19225D01*
X505832Y19303D01*
X505988Y19371D01*
X505998D01*
X506007Y19381D01*
X506037Y19390D01*
X506066Y19400D01*
X506164Y19420D01*
X506291Y19459D01*
X506447Y19488D01*
X506622Y19508D01*
X506827Y19527D01*
X507042Y19537D01*
X507140D01*
X507247Y19527D01*
D02*
G37*
G36*
X475527Y14784D02*
X474736D01*
Y19429D01*
X475527D01*
Y14784D01*
D02*
G37*
G36*
X456622D02*
X455831D01*
Y19429D01*
X456622D01*
Y14784D01*
D02*
G37*
G36*
X503519Y19429D02*
X504309D01*
Y18815D01*
X503519D01*
Y16092D01*
Y16082D01*
Y16043D01*
Y15984D01*
X503528Y15916D01*
X503538Y15769D01*
X503548Y15711D01*
X503558Y15662D01*
X503568Y15643D01*
X503587Y15604D01*
X503626Y15555D01*
X503685Y15506D01*
X503704Y15496D01*
X503753Y15486D01*
X503841Y15467D01*
X503958Y15457D01*
X504056D01*
X504104Y15467D01*
X504163D01*
X504309Y15486D01*
X504417Y14793D01*
X504397D01*
X504358Y14784D01*
X504299Y14774D01*
X504212Y14764D01*
X504124Y14745D01*
X504026Y14735D01*
X503821Y14725D01*
X503753D01*
X503675Y14735D01*
X503577Y14745D01*
X503470Y14754D01*
X503353Y14784D01*
X503245Y14813D01*
X503148Y14852D01*
X503138Y14862D01*
X503109Y14881D01*
X503070Y14911D01*
X503021Y14950D01*
X502962Y14998D01*
X502914Y15057D01*
X502855Y15125D01*
X502816Y15203D01*
Y15213D01*
X502806Y15252D01*
X502787Y15311D01*
X502777Y15408D01*
X502757Y15535D01*
X502748Y15604D01*
X502738Y15691D01*
Y15789D01*
X502728Y15896D01*
Y16013D01*
Y16140D01*
Y18815D01*
X502143D01*
Y19429D01*
X502728D01*
Y20571D01*
X503519Y21050D01*
Y19429D01*
D02*
G37*
G36*
X477645D02*
X478436D01*
Y18815D01*
X477645D01*
Y16092D01*
Y16082D01*
Y16043D01*
Y15984D01*
X477655Y15916D01*
X477665Y15769D01*
X477674Y15711D01*
X477684Y15662D01*
X477694Y15643D01*
X477713Y15604D01*
X477752Y15555D01*
X477811Y15506D01*
X477830Y15496D01*
X477879Y15486D01*
X477967Y15467D01*
X478084Y15457D01*
X478182D01*
X478231Y15467D01*
X478289D01*
X478436Y15486D01*
X478543Y14793D01*
X478523D01*
X478484Y14784D01*
X478426Y14774D01*
X478338Y14764D01*
X478250Y14745D01*
X478153Y14735D01*
X477948Y14725D01*
X477879D01*
X477801Y14735D01*
X477704Y14745D01*
X477596Y14754D01*
X477479Y14784D01*
X477372Y14813D01*
X477274Y14852D01*
X477264Y14862D01*
X477235Y14881D01*
X477196Y14911D01*
X477147Y14950D01*
X477089Y14998D01*
X477040Y15057D01*
X476981Y15125D01*
X476942Y15203D01*
Y15213D01*
X476932Y15252D01*
X476913Y15311D01*
X476903Y15408D01*
X476884Y15535D01*
X476874Y15604D01*
X476864Y15691D01*
Y15789D01*
X476854Y15896D01*
Y16013D01*
Y16140D01*
Y18815D01*
X476269D01*
Y19429D01*
X476854D01*
Y20571D01*
X477645Y21050D01*
Y19429D01*
D02*
G37*
G36*
X488215Y19527D02*
X488303Y19517D01*
X488391Y19508D01*
X488498Y19488D01*
X488615Y19459D01*
X488859Y19381D01*
X488986Y19332D01*
X489123Y19273D01*
X489250Y19195D01*
X489376Y19107D01*
X489503Y19010D01*
X489620Y18902D01*
X489630Y18893D01*
X489650Y18873D01*
X489679Y18834D01*
X489718Y18785D01*
X489767Y18727D01*
X489816Y18649D01*
X489874Y18551D01*
X489933Y18453D01*
X489982Y18336D01*
X490040Y18200D01*
X490089Y18063D01*
X490138Y17907D01*
X490177Y17741D01*
X490206Y17556D01*
X490226Y17370D01*
X490235Y17165D01*
Y17155D01*
Y17126D01*
Y17077D01*
Y17019D01*
X490226Y16941D01*
Y16853D01*
X490216Y16755D01*
X490206Y16648D01*
X490167Y16423D01*
X490118Y16189D01*
X490050Y15955D01*
X489962Y15750D01*
Y15740D01*
X489952Y15730D01*
X489913Y15662D01*
X489845Y15574D01*
X489757Y15457D01*
X489650Y15330D01*
X489513Y15203D01*
X489357Y15077D01*
X489172Y14959D01*
X489162D01*
X489152Y14950D01*
X489123Y14930D01*
X489084Y14920D01*
X488976Y14872D01*
X488840Y14823D01*
X488674Y14764D01*
X488488Y14725D01*
X488283Y14686D01*
X488059Y14676D01*
X487961D01*
X487893Y14686D01*
X487815Y14696D01*
X487717Y14706D01*
X487610Y14725D01*
X487493Y14754D01*
X487249Y14832D01*
X487112Y14881D01*
X486985Y14940D01*
X486849Y15008D01*
X486722Y15096D01*
X486595Y15194D01*
X486478Y15301D01*
X486468Y15311D01*
X486448Y15330D01*
X486419Y15369D01*
X486390Y15418D01*
X486341Y15486D01*
X486292Y15564D01*
X486234Y15652D01*
X486185Y15760D01*
X486126Y15887D01*
X486068Y16013D01*
X486019Y16170D01*
X485980Y16326D01*
X485941Y16501D01*
X485912Y16687D01*
X485892Y16892D01*
X485882Y17107D01*
Y17126D01*
Y17165D01*
X485892Y17233D01*
Y17321D01*
X485902Y17429D01*
X485921Y17546D01*
X485941Y17682D01*
X485970Y17829D01*
X486009Y17985D01*
X486058Y18141D01*
X486117Y18297D01*
X486185Y18453D01*
X486263Y18610D01*
X486361Y18756D01*
X486468Y18893D01*
X486595Y19019D01*
X486605Y19029D01*
X486624Y19039D01*
X486653Y19068D01*
X486702Y19098D01*
X486761Y19137D01*
X486829Y19185D01*
X486907Y19234D01*
X487005Y19283D01*
X487102Y19322D01*
X487210Y19371D01*
X487464Y19459D01*
X487747Y19517D01*
X487903Y19527D01*
X488059Y19537D01*
X488147D01*
X488215Y19527D01*
D02*
G37*
G36*
X464352D02*
X464430Y19517D01*
X464528Y19508D01*
X464625Y19488D01*
X464742Y19459D01*
X464977Y19381D01*
X465103Y19332D01*
X465230Y19263D01*
X465357Y19195D01*
X465484Y19107D01*
X465601Y19010D01*
X465718Y18893D01*
X465728Y18883D01*
X465747Y18863D01*
X465777Y18824D01*
X465816Y18776D01*
X465855Y18707D01*
X465904Y18629D01*
X465962Y18541D01*
X466021Y18434D01*
X466070Y18307D01*
X466128Y18180D01*
X466177Y18034D01*
X466226Y17868D01*
X466255Y17702D01*
X466284Y17516D01*
X466304Y17321D01*
X466314Y17107D01*
Y17097D01*
Y17058D01*
Y16989D01*
X466304Y16902D01*
X462849D01*
Y16892D01*
Y16872D01*
X462859Y16824D01*
Y16775D01*
X462868Y16706D01*
X462878Y16638D01*
X462917Y16462D01*
X462976Y16277D01*
X463044Y16082D01*
X463151Y15887D01*
X463278Y15721D01*
X463298Y15701D01*
X463347Y15662D01*
X463434Y15594D01*
X463542Y15525D01*
X463688Y15447D01*
X463854Y15379D01*
X464040Y15340D01*
X464245Y15321D01*
X464323D01*
X464401Y15330D01*
X464498Y15350D01*
X464615Y15379D01*
X464742Y15418D01*
X464869Y15467D01*
X464986Y15545D01*
X464996Y15555D01*
X465035Y15594D01*
X465094Y15643D01*
X465162Y15730D01*
X465240Y15828D01*
X465318Y15955D01*
X465396Y16111D01*
X465474Y16287D01*
X466284Y16179D01*
Y16170D01*
X466275Y16150D01*
X466265Y16111D01*
X466245Y16062D01*
X466226Y16004D01*
X466196Y15935D01*
X466118Y15769D01*
X466021Y15594D01*
X465904Y15408D01*
X465747Y15223D01*
X465572Y15067D01*
X465562D01*
X465552Y15047D01*
X465523Y15028D01*
X465474Y15008D01*
X465425Y14979D01*
X465367Y14940D01*
X465299Y14911D01*
X465211Y14872D01*
X465025Y14803D01*
X464791Y14735D01*
X464537Y14696D01*
X464245Y14676D01*
X464147D01*
X464079Y14686D01*
X463991Y14696D01*
X463893Y14706D01*
X463786Y14725D01*
X463659Y14754D01*
X463405Y14832D01*
X463269Y14881D01*
X463142Y14940D01*
X463005Y15008D01*
X462878Y15096D01*
X462751Y15194D01*
X462634Y15301D01*
X462624Y15311D01*
X462605Y15330D01*
X462575Y15369D01*
X462546Y15418D01*
X462497Y15477D01*
X462449Y15555D01*
X462390Y15652D01*
X462341Y15760D01*
X462283Y15877D01*
X462224Y16004D01*
X462175Y16150D01*
X462136Y16306D01*
X462097Y16472D01*
X462068Y16658D01*
X462048Y16853D01*
X462039Y17058D01*
Y17067D01*
Y17107D01*
Y17175D01*
X462048Y17253D01*
X462058Y17351D01*
X462068Y17468D01*
X462087Y17595D01*
X462117Y17731D01*
X462185Y18024D01*
X462234Y18170D01*
X462292Y18327D01*
X462361Y18473D01*
X462439Y18619D01*
X462527Y18756D01*
X462634Y18883D01*
X462644Y18893D01*
X462663Y18912D01*
X462693Y18941D01*
X462741Y18990D01*
X462800Y19039D01*
X462878Y19088D01*
X462956Y19146D01*
X463054Y19215D01*
X463161Y19273D01*
X463278Y19332D01*
X463405Y19381D01*
X463552Y19439D01*
X463698Y19478D01*
X463854Y19508D01*
X464020Y19527D01*
X464196Y19537D01*
X464284D01*
X464352Y19527D01*
D02*
G37*
%LPC*%
G36*
X567203Y36478D02*
X567056D01*
X567017Y36468D01*
X566920Y36459D01*
X566803Y36429D01*
X566666Y36371D01*
X566519Y36293D01*
X566373Y36195D01*
X566305Y36127D01*
X566236Y36049D01*
X566217Y36029D01*
X566207Y36000D01*
X566178Y35971D01*
X566158Y35922D01*
X566129Y35863D01*
X566090Y35795D01*
X566061Y35717D01*
X566032Y35629D01*
X565992Y35531D01*
X565963Y35414D01*
X565944Y35297D01*
X565914Y35161D01*
X565905Y35014D01*
X565885Y34858D01*
Y34692D01*
Y34682D01*
Y34653D01*
Y34604D01*
X565895Y34546D01*
Y34468D01*
X565905Y34390D01*
X565934Y34185D01*
X565973Y33970D01*
X566041Y33745D01*
X566129Y33540D01*
X566188Y33443D01*
X566256Y33355D01*
X566276Y33336D01*
X566324Y33287D01*
X566402Y33218D01*
X566510Y33140D01*
X566637Y33052D01*
X566783Y32984D01*
X566959Y32935D01*
X567047Y32926D01*
X567144Y32916D01*
X567193D01*
X567232Y32926D01*
X567330Y32935D01*
X567447Y32965D01*
X567583Y33023D01*
X567730Y33092D01*
X567886Y33199D01*
X567954Y33257D01*
X568023Y33336D01*
Y33345D01*
X568042Y33355D01*
X568052Y33384D01*
X568081Y33414D01*
X568110Y33462D01*
X568140Y33511D01*
X568169Y33579D01*
X568208Y33658D01*
X568237Y33736D01*
X568267Y33833D01*
X568296Y33941D01*
X568325Y34058D01*
X568354Y34185D01*
X568364Y34321D01*
X568384Y34468D01*
Y34624D01*
Y34634D01*
Y34663D01*
Y34712D01*
X568374Y34780D01*
Y34858D01*
X568364Y34946D01*
X568335Y35161D01*
X568296Y35385D01*
X568227Y35619D01*
X568140Y35844D01*
X568081Y35941D01*
X568013Y36029D01*
Y36039D01*
X567993Y36049D01*
X567944Y36098D01*
X567866Y36176D01*
X567759Y36254D01*
X567632Y36332D01*
X567476Y36410D01*
X567300Y36459D01*
X567203Y36478D01*
D02*
G37*
G36*
X560371Y34712D02*
X560351Y34702D01*
X560322Y34692D01*
X560293Y34682D01*
X560244Y34663D01*
X560185Y34653D01*
X560127Y34634D01*
X560049Y34604D01*
X559961Y34585D01*
X559863Y34565D01*
X559766Y34536D01*
X559649Y34507D01*
X559522Y34487D01*
X559385Y34458D01*
X559239Y34438D01*
X559082Y34409D01*
X559063D01*
X559004Y34399D01*
X558917Y34380D01*
X558809Y34360D01*
X558585Y34312D01*
X558477Y34282D01*
X558389Y34253D01*
X558380D01*
X558360Y34233D01*
X558321Y34214D01*
X558282Y34185D01*
X558184Y34106D01*
X558087Y33989D01*
Y33980D01*
X558067Y33960D01*
X558058Y33931D01*
X558038Y33882D01*
X557999Y33765D01*
X557989Y33697D01*
X557979Y33619D01*
Y33609D01*
Y33570D01*
X557989Y33511D01*
X558009Y33433D01*
X558038Y33355D01*
X558077Y33267D01*
X558136Y33179D01*
X558214Y33092D01*
X558223Y33082D01*
X558263Y33062D01*
X558311Y33023D01*
X558389Y32994D01*
X558487Y32955D01*
X558614Y32916D01*
X558751Y32896D01*
X558917Y32886D01*
X558995D01*
X559073Y32896D01*
X559190Y32916D01*
X559307Y32935D01*
X559444Y32965D01*
X559580Y33013D01*
X559717Y33082D01*
X559736Y33092D01*
X559775Y33121D01*
X559844Y33160D01*
X559922Y33228D01*
X560000Y33296D01*
X560088Y33394D01*
X560176Y33501D01*
X560244Y33628D01*
X560254Y33638D01*
X560263Y33677D01*
X560283Y33736D01*
X560312Y33823D01*
X560332Y33941D01*
X560351Y34077D01*
X560361Y34233D01*
X560371Y34419D01*
Y34712D01*
D02*
G37*
G36*
X548883Y38040D02*
X547370D01*
Y36088D01*
X548942D01*
X549059Y36098D01*
X549195Y36107D01*
X549332Y36117D01*
X549449Y36137D01*
X549557Y36156D01*
X549566Y36166D01*
X549605Y36176D01*
X549664Y36195D01*
X549742Y36234D01*
X549820Y36273D01*
X549898Y36332D01*
X549976Y36400D01*
X550045Y36478D01*
X550054Y36488D01*
X550074Y36517D01*
X550093Y36566D01*
X550133Y36634D01*
X550162Y36712D01*
X550181Y36810D01*
X550201Y36917D01*
X550211Y37044D01*
Y37054D01*
Y37103D01*
X550201Y37161D01*
X550191Y37240D01*
X550172Y37327D01*
X550142Y37415D01*
X550103Y37513D01*
X550054Y37610D01*
X550045Y37620D01*
X550025Y37649D01*
X549986Y37688D01*
X549937Y37747D01*
X549879Y37796D01*
X549801Y37854D01*
X549713Y37903D01*
X549615Y37942D01*
X549605D01*
X549557Y37962D01*
X549488Y37971D01*
X549391Y37991D01*
X549254Y38010D01*
X549088Y38020D01*
X548883Y38040D01*
D02*
G37*
G36*
X549059Y35336D02*
X547370D01*
Y33130D01*
X549186D01*
X549381Y33140D01*
X549469Y33150D01*
X549537Y33160D01*
X549547D01*
X549586Y33170D01*
X549645Y33179D01*
X549713Y33199D01*
X549869Y33248D01*
X550025Y33326D01*
X550035Y33336D01*
X550064Y33345D01*
X550093Y33375D01*
X550142Y33423D01*
X550201Y33472D01*
X550250Y33531D01*
X550308Y33609D01*
X550357Y33687D01*
X550367Y33697D01*
X550377Y33726D01*
X550396Y33775D01*
X550425Y33843D01*
X550445Y33921D01*
X550464Y34019D01*
X550474Y34116D01*
X550484Y34233D01*
Y34253D01*
Y34292D01*
X550474Y34360D01*
X550464Y34438D01*
X550435Y34536D01*
X550406Y34643D01*
X550357Y34751D01*
X550289Y34848D01*
X550279Y34858D01*
X550259Y34897D01*
X550211Y34936D01*
X550152Y34995D01*
X550084Y35063D01*
X549996Y35122D01*
X549898Y35180D01*
X549781Y35229D01*
X549762Y35239D01*
X549723Y35248D01*
X549645Y35268D01*
X549547Y35287D01*
X549410Y35307D01*
X549254Y35317D01*
X549059Y35336D01*
D02*
G37*
G36*
X537444Y38040D02*
X535932D01*
Y36088D01*
X537503D01*
X537620Y36098D01*
X537757Y36107D01*
X537893Y36117D01*
X538011Y36137D01*
X538118Y36156D01*
X538128Y36166D01*
X538167Y36176D01*
X538225Y36195D01*
X538303Y36234D01*
X538381Y36273D01*
X538459Y36332D01*
X538538Y36400D01*
X538606Y36478D01*
X538616Y36488D01*
X538635Y36517D01*
X538655Y36566D01*
X538694Y36634D01*
X538723Y36712D01*
X538743Y36810D01*
X538762Y36917D01*
X538772Y37044D01*
Y37054D01*
Y37103D01*
X538762Y37161D01*
X538752Y37240D01*
X538733Y37327D01*
X538703Y37415D01*
X538664Y37513D01*
X538616Y37610D01*
X538606Y37620D01*
X538586Y37649D01*
X538547Y37688D01*
X538499Y37747D01*
X538440Y37796D01*
X538362Y37854D01*
X538274Y37903D01*
X538176Y37942D01*
X538167D01*
X538118Y37962D01*
X538050Y37971D01*
X537952Y37991D01*
X537815Y38010D01*
X537649Y38020D01*
X537444Y38040D01*
D02*
G37*
G36*
X537620Y35336D02*
X535932D01*
Y33130D01*
X537747D01*
X537942Y33140D01*
X538030Y33150D01*
X538098Y33160D01*
X538108D01*
X538147Y33170D01*
X538206Y33179D01*
X538274Y33199D01*
X538430Y33248D01*
X538586Y33326D01*
X538596Y33336D01*
X538625Y33345D01*
X538655Y33375D01*
X538703Y33423D01*
X538762Y33472D01*
X538811Y33531D01*
X538869Y33609D01*
X538918Y33687D01*
X538928Y33697D01*
X538938Y33726D01*
X538957Y33775D01*
X538987Y33843D01*
X539006Y33921D01*
X539026Y34019D01*
X539035Y34116D01*
X539045Y34233D01*
Y34253D01*
Y34292D01*
X539035Y34360D01*
X539026Y34438D01*
X538996Y34536D01*
X538967Y34643D01*
X538918Y34751D01*
X538850Y34848D01*
X538840Y34858D01*
X538821Y34897D01*
X538772Y34936D01*
X538713Y34995D01*
X538645Y35063D01*
X538557Y35122D01*
X538459Y35180D01*
X538342Y35229D01*
X538323Y35239D01*
X538284Y35248D01*
X538206Y35268D01*
X538108Y35287D01*
X537971Y35307D01*
X537815Y35317D01*
X537620Y35336D01*
D02*
G37*
G36*
X531471Y38040D02*
X529959D01*
Y36088D01*
X531530D01*
X531647Y36098D01*
X531784Y36107D01*
X531920Y36117D01*
X532037Y36137D01*
X532145Y36156D01*
X532155Y36166D01*
X532194Y36176D01*
X532252Y36195D01*
X532330Y36234D01*
X532408Y36273D01*
X532486Y36332D01*
X532564Y36400D01*
X532633Y36478D01*
X532643Y36488D01*
X532662Y36517D01*
X532682Y36566D01*
X532721Y36634D01*
X532750Y36712D01*
X532769Y36810D01*
X532789Y36917D01*
X532799Y37044D01*
Y37054D01*
Y37103D01*
X532789Y37161D01*
X532779Y37240D01*
X532760Y37327D01*
X532730Y37415D01*
X532691Y37513D01*
X532643Y37610D01*
X532633Y37620D01*
X532613Y37649D01*
X532574Y37688D01*
X532525Y37747D01*
X532467Y37796D01*
X532389Y37854D01*
X532301Y37903D01*
X532203Y37942D01*
X532194D01*
X532145Y37962D01*
X532077Y37971D01*
X531979Y37991D01*
X531842Y38010D01*
X531676Y38020D01*
X531471Y38040D01*
D02*
G37*
G36*
X531647Y35336D02*
X529959D01*
Y33130D01*
X531774D01*
X531969Y33140D01*
X532057Y33150D01*
X532125Y33160D01*
X532135D01*
X532174Y33170D01*
X532233Y33179D01*
X532301Y33199D01*
X532457Y33248D01*
X532613Y33326D01*
X532623Y33336D01*
X532652Y33345D01*
X532682Y33375D01*
X532730Y33423D01*
X532789Y33472D01*
X532838Y33531D01*
X532896Y33609D01*
X532945Y33687D01*
X532955Y33697D01*
X532965Y33726D01*
X532984Y33775D01*
X533013Y33843D01*
X533033Y33921D01*
X533052Y34019D01*
X533062Y34116D01*
X533072Y34233D01*
Y34253D01*
Y34292D01*
X533062Y34360D01*
X533052Y34438D01*
X533023Y34536D01*
X532994Y34643D01*
X532945Y34751D01*
X532877Y34848D01*
X532867Y34858D01*
X532847Y34897D01*
X532799Y34936D01*
X532740Y34995D01*
X532672Y35063D01*
X532584Y35122D01*
X532486Y35180D01*
X532369Y35229D01*
X532350Y35239D01*
X532311Y35248D01*
X532233Y35268D01*
X532135Y35287D01*
X531998Y35307D01*
X531842Y35317D01*
X531647Y35336D01*
D02*
G37*
G36*
X525498Y38040D02*
X523985D01*
Y36088D01*
X525557D01*
X525674Y36098D01*
X525811Y36107D01*
X525947Y36117D01*
X526064Y36137D01*
X526172Y36156D01*
X526181Y36166D01*
X526221Y36176D01*
X526279Y36195D01*
X526357Y36234D01*
X526435Y36273D01*
X526513Y36332D01*
X526591Y36400D01*
X526660Y36478D01*
X526669Y36488D01*
X526689Y36517D01*
X526709Y36566D01*
X526748Y36634D01*
X526777Y36712D01*
X526796Y36810D01*
X526816Y36917D01*
X526826Y37044D01*
Y37054D01*
Y37103D01*
X526816Y37161D01*
X526806Y37240D01*
X526787Y37327D01*
X526757Y37415D01*
X526718Y37513D01*
X526669Y37610D01*
X526660Y37620D01*
X526640Y37649D01*
X526601Y37688D01*
X526552Y37747D01*
X526494Y37796D01*
X526416Y37854D01*
X526328Y37903D01*
X526230Y37942D01*
X526221D01*
X526172Y37962D01*
X526103Y37971D01*
X526006Y37991D01*
X525869Y38010D01*
X525703Y38020D01*
X525498Y38040D01*
D02*
G37*
G36*
X525674Y35336D02*
X523985D01*
Y33130D01*
X525801D01*
X525996Y33140D01*
X526084Y33150D01*
X526152Y33160D01*
X526162D01*
X526201Y33170D01*
X526260Y33179D01*
X526328Y33199D01*
X526484Y33248D01*
X526640Y33326D01*
X526650Y33336D01*
X526679Y33345D01*
X526709Y33375D01*
X526757Y33423D01*
X526816Y33472D01*
X526865Y33531D01*
X526923Y33609D01*
X526972Y33687D01*
X526982Y33697D01*
X526992Y33726D01*
X527011Y33775D01*
X527040Y33843D01*
X527060Y33921D01*
X527079Y34019D01*
X527089Y34116D01*
X527099Y34233D01*
Y34253D01*
Y34292D01*
X527089Y34360D01*
X527079Y34438D01*
X527050Y34536D01*
X527021Y34643D01*
X526972Y34751D01*
X526904Y34848D01*
X526894Y34858D01*
X526874Y34897D01*
X526826Y34936D01*
X526767Y34995D01*
X526699Y35063D01*
X526611Y35122D01*
X526513Y35180D01*
X526396Y35229D01*
X526377Y35239D01*
X526338Y35248D01*
X526260Y35268D01*
X526162Y35287D01*
X526025Y35307D01*
X525869Y35317D01*
X525674Y35336D01*
D02*
G37*
G36*
X506632Y34712D02*
X506613Y34702D01*
X506583Y34692D01*
X506554Y34682D01*
X506505Y34663D01*
X506447Y34653D01*
X506388Y34634D01*
X506310Y34604D01*
X506222Y34585D01*
X506125Y34565D01*
X506027Y34536D01*
X505910Y34507D01*
X505783Y34487D01*
X505646Y34458D01*
X505500Y34438D01*
X505344Y34409D01*
X505324D01*
X505266Y34399D01*
X505178Y34380D01*
X505071Y34360D01*
X504846Y34312D01*
X504739Y34282D01*
X504651Y34253D01*
X504641D01*
X504622Y34233D01*
X504583Y34214D01*
X504543Y34185D01*
X504446Y34106D01*
X504348Y33989D01*
Y33980D01*
X504329Y33960D01*
X504319Y33931D01*
X504299Y33882D01*
X504260Y33765D01*
X504251Y33697D01*
X504241Y33619D01*
Y33609D01*
Y33570D01*
X504251Y33511D01*
X504270Y33433D01*
X504299Y33355D01*
X504339Y33267D01*
X504397Y33179D01*
X504475Y33092D01*
X504485Y33082D01*
X504524Y33062D01*
X504573Y33023D01*
X504651Y32994D01*
X504748Y32955D01*
X504875Y32916D01*
X505012Y32896D01*
X505178Y32886D01*
X505256D01*
X505334Y32896D01*
X505451Y32916D01*
X505568Y32935D01*
X505705Y32965D01*
X505842Y33013D01*
X505978Y33082D01*
X505998Y33092D01*
X506037Y33121D01*
X506105Y33160D01*
X506183Y33228D01*
X506261Y33296D01*
X506349Y33394D01*
X506437Y33501D01*
X506505Y33628D01*
X506515Y33638D01*
X506525Y33677D01*
X506544Y33736D01*
X506574Y33823D01*
X506593Y33941D01*
X506613Y34077D01*
X506622Y34233D01*
X506632Y34419D01*
Y34712D01*
D02*
G37*
G36*
X498131Y38040D02*
X496618D01*
Y36088D01*
X498190D01*
X498307Y36098D01*
X498444Y36107D01*
X498580Y36117D01*
X498697Y36137D01*
X498805Y36156D01*
X498814Y36166D01*
X498853Y36176D01*
X498912Y36195D01*
X498990Y36234D01*
X499068Y36273D01*
X499146Y36332D01*
X499224Y36400D01*
X499293Y36478D01*
X499302Y36488D01*
X499322Y36517D01*
X499341Y36566D01*
X499380Y36634D01*
X499410Y36712D01*
X499429Y36810D01*
X499449Y36917D01*
X499459Y37044D01*
Y37054D01*
Y37103D01*
X499449Y37161D01*
X499439Y37240D01*
X499419Y37327D01*
X499390Y37415D01*
X499351Y37513D01*
X499302Y37610D01*
X499293Y37620D01*
X499273Y37649D01*
X499234Y37688D01*
X499185Y37747D01*
X499127Y37796D01*
X499049Y37854D01*
X498961Y37903D01*
X498863Y37942D01*
X498853D01*
X498805Y37962D01*
X498736Y37971D01*
X498639Y37991D01*
X498502Y38010D01*
X498336Y38020D01*
X498131Y38040D01*
D02*
G37*
G36*
X498307Y35336D02*
X496618D01*
Y33130D01*
X498434D01*
X498629Y33140D01*
X498717Y33150D01*
X498785Y33160D01*
X498795D01*
X498834Y33170D01*
X498892Y33179D01*
X498961Y33199D01*
X499117Y33248D01*
X499273Y33326D01*
X499283Y33336D01*
X499312Y33345D01*
X499341Y33375D01*
X499390Y33423D01*
X499449Y33472D01*
X499498Y33531D01*
X499556Y33609D01*
X499605Y33687D01*
X499615Y33697D01*
X499624Y33726D01*
X499644Y33775D01*
X499673Y33843D01*
X499693Y33921D01*
X499712Y34019D01*
X499722Y34116D01*
X499732Y34233D01*
Y34253D01*
Y34292D01*
X499722Y34360D01*
X499712Y34438D01*
X499683Y34536D01*
X499654Y34643D01*
X499605Y34751D01*
X499537Y34848D01*
X499527Y34858D01*
X499507Y34897D01*
X499459Y34936D01*
X499400Y34995D01*
X499332Y35063D01*
X499244Y35122D01*
X499146Y35180D01*
X499029Y35229D01*
X499010Y35239D01*
X498971Y35248D01*
X498892Y35268D01*
X498795Y35287D01*
X498658Y35307D01*
X498502Y35317D01*
X498307Y35336D01*
D02*
G37*
G36*
X474736Y38040D02*
X473224D01*
Y36088D01*
X474795D01*
X474912Y36098D01*
X475049Y36107D01*
X475185Y36117D01*
X475303Y36137D01*
X475410Y36156D01*
X475420Y36166D01*
X475459Y36176D01*
X475517Y36195D01*
X475595Y36234D01*
X475673Y36273D01*
X475751Y36332D01*
X475830Y36400D01*
X475898Y36478D01*
X475908Y36488D01*
X475927Y36517D01*
X475947Y36566D01*
X475986Y36634D01*
X476015Y36712D01*
X476035Y36810D01*
X476054Y36917D01*
X476064Y37044D01*
Y37054D01*
Y37103D01*
X476054Y37161D01*
X476044Y37240D01*
X476025Y37327D01*
X475995Y37415D01*
X475956Y37513D01*
X475908Y37610D01*
X475898Y37620D01*
X475878Y37649D01*
X475839Y37688D01*
X475791Y37747D01*
X475732Y37796D01*
X475654Y37854D01*
X475566Y37903D01*
X475468Y37942D01*
X475459D01*
X475410Y37962D01*
X475342Y37971D01*
X475244Y37991D01*
X475107Y38010D01*
X474941Y38020D01*
X474736Y38040D01*
D02*
G37*
G36*
X474912Y35336D02*
X473224D01*
Y33130D01*
X475039D01*
X475234Y33140D01*
X475322Y33150D01*
X475390Y33160D01*
X475400D01*
X475439Y33170D01*
X475498Y33179D01*
X475566Y33199D01*
X475722Y33248D01*
X475878Y33326D01*
X475888Y33336D01*
X475917Y33345D01*
X475947Y33375D01*
X475995Y33423D01*
X476054Y33472D01*
X476103Y33531D01*
X476161Y33609D01*
X476210Y33687D01*
X476220Y33697D01*
X476230Y33726D01*
X476249Y33775D01*
X476279Y33843D01*
X476298Y33921D01*
X476318Y34019D01*
X476327Y34116D01*
X476337Y34233D01*
Y34253D01*
Y34292D01*
X476327Y34360D01*
X476318Y34438D01*
X476288Y34536D01*
X476259Y34643D01*
X476210Y34751D01*
X476142Y34848D01*
X476132Y34858D01*
X476113Y34897D01*
X476064Y34936D01*
X476005Y34995D01*
X475937Y35063D01*
X475849Y35122D01*
X475751Y35180D01*
X475634Y35229D01*
X475615Y35239D01*
X475576Y35248D01*
X475498Y35268D01*
X475400Y35287D01*
X475264Y35307D01*
X475107Y35317D01*
X474912Y35336D01*
D02*
G37*
G36*
X458349Y34712D02*
X458330Y34702D01*
X458301Y34692D01*
X458271Y34682D01*
X458223Y34663D01*
X458164Y34653D01*
X458105Y34634D01*
X458027Y34604D01*
X457939Y34585D01*
X457842Y34565D01*
X457744Y34536D01*
X457627Y34507D01*
X457500Y34487D01*
X457364Y34458D01*
X457217Y34438D01*
X457061Y34409D01*
X457042D01*
X456983Y34399D01*
X456895Y34380D01*
X456788Y34360D01*
X456563Y34312D01*
X456456Y34282D01*
X456368Y34253D01*
X456358D01*
X456339Y34233D01*
X456300Y34214D01*
X456261Y34185D01*
X456163Y34106D01*
X456066Y33989D01*
Y33980D01*
X456046Y33960D01*
X456036Y33931D01*
X456017Y33882D01*
X455978Y33765D01*
X455968Y33697D01*
X455958Y33619D01*
Y33609D01*
Y33570D01*
X455968Y33511D01*
X455988Y33433D01*
X456017Y33355D01*
X456056Y33267D01*
X456114Y33179D01*
X456192Y33092D01*
X456202Y33082D01*
X456241Y33062D01*
X456290Y33023D01*
X456368Y32994D01*
X456466Y32955D01*
X456593Y32916D01*
X456729Y32896D01*
X456895Y32886D01*
X456973D01*
X457051Y32896D01*
X457168Y32916D01*
X457286Y32935D01*
X457422Y32965D01*
X457559Y33013D01*
X457695Y33082D01*
X457715Y33092D01*
X457754Y33121D01*
X457822Y33160D01*
X457900Y33228D01*
X457979Y33296D01*
X458066Y33394D01*
X458154Y33501D01*
X458223Y33628D01*
X458232Y33638D01*
X458242Y33677D01*
X458262Y33736D01*
X458291Y33823D01*
X458310Y33941D01*
X458330Y34077D01*
X458340Y34233D01*
X458349Y34419D01*
Y34712D01*
D02*
G37*
G36*
X446862Y38040D02*
X445349D01*
Y36088D01*
X446920D01*
X447038Y36098D01*
X447174Y36107D01*
X447311Y36117D01*
X447428Y36137D01*
X447535Y36156D01*
X447545Y36166D01*
X447584Y36176D01*
X447643Y36195D01*
X447721Y36234D01*
X447799Y36273D01*
X447877Y36332D01*
X447955Y36400D01*
X448023Y36478D01*
X448033Y36488D01*
X448053Y36517D01*
X448072Y36566D01*
X448111Y36634D01*
X448140Y36712D01*
X448160Y36810D01*
X448179Y36917D01*
X448189Y37044D01*
Y37054D01*
Y37103D01*
X448179Y37161D01*
X448170Y37240D01*
X448150Y37327D01*
X448121Y37415D01*
X448082Y37513D01*
X448033Y37610D01*
X448023Y37620D01*
X448004Y37649D01*
X447965Y37688D01*
X447916Y37747D01*
X447857Y37796D01*
X447779Y37854D01*
X447691Y37903D01*
X447594Y37942D01*
X447584D01*
X447535Y37962D01*
X447467Y37971D01*
X447369Y37991D01*
X447233Y38010D01*
X447067Y38020D01*
X446862Y38040D01*
D02*
G37*
G36*
X447038Y35336D02*
X445349D01*
Y33130D01*
X447164D01*
X447360Y33140D01*
X447447Y33150D01*
X447516Y33160D01*
X447526D01*
X447565Y33170D01*
X447623Y33179D01*
X447691Y33199D01*
X447848Y33248D01*
X448004Y33326D01*
X448014Y33336D01*
X448043Y33345D01*
X448072Y33375D01*
X448121Y33423D01*
X448179Y33472D01*
X448228Y33531D01*
X448287Y33609D01*
X448336Y33687D01*
X448345Y33697D01*
X448355Y33726D01*
X448375Y33775D01*
X448404Y33843D01*
X448423Y33921D01*
X448443Y34019D01*
X448453Y34116D01*
X448463Y34233D01*
Y34253D01*
Y34292D01*
X448453Y34360D01*
X448443Y34438D01*
X448414Y34536D01*
X448385Y34643D01*
X448336Y34751D01*
X448267Y34848D01*
X448258Y34858D01*
X448238Y34897D01*
X448189Y34936D01*
X448131Y34995D01*
X448062Y35063D01*
X447975Y35122D01*
X447877Y35180D01*
X447760Y35229D01*
X447740Y35239D01*
X447701Y35248D01*
X447623Y35268D01*
X447526Y35287D01*
X447389Y35307D01*
X447233Y35317D01*
X447038Y35336D01*
D02*
G37*
G36*
X554417Y36478D02*
X554251D01*
X554212Y36468D01*
X554105Y36459D01*
X553968Y36420D01*
X553812Y36371D01*
X553646Y36293D01*
X553480Y36176D01*
X553402Y36107D01*
X553324Y36029D01*
X553304Y36010D01*
X553285Y35980D01*
X553265Y35951D01*
X553236Y35902D01*
X553207Y35844D01*
X553168Y35776D01*
X553139Y35697D01*
X553099Y35610D01*
X553060Y35512D01*
X553031Y35405D01*
X553002Y35278D01*
X552982Y35151D01*
X552963Y35004D01*
X552943Y34858D01*
Y34692D01*
Y34682D01*
Y34653D01*
Y34604D01*
X552953Y34546D01*
Y34477D01*
X552963Y34390D01*
X552992Y34194D01*
X553041Y33980D01*
X553099Y33755D01*
X553197Y33540D01*
X553256Y33443D01*
X553324Y33355D01*
X553343Y33336D01*
X553392Y33287D01*
X553480Y33218D01*
X553597Y33140D01*
X553734Y33052D01*
X553910Y32984D01*
X554095Y32935D01*
X554202Y32926D01*
X554310Y32916D01*
X554368D01*
X554407Y32926D01*
X554515Y32935D01*
X554651Y32974D01*
X554808Y33023D01*
X554973Y33101D01*
X555130Y33209D01*
X555208Y33277D01*
X555286Y33355D01*
Y33365D01*
X555305Y33375D01*
X555325Y33404D01*
X555344Y33443D01*
X555374Y33492D01*
X555413Y33550D01*
X555442Y33619D01*
X555481Y33697D01*
X555520Y33784D01*
X555549Y33882D01*
X555588Y33999D01*
X555618Y34126D01*
X555637Y34253D01*
X555657Y34399D01*
X555676Y34556D01*
Y34721D01*
Y34731D01*
Y34760D01*
Y34800D01*
X555666Y34868D01*
Y34936D01*
X555657Y35014D01*
X555627Y35209D01*
X555579Y35414D01*
X555510Y35639D01*
X555413Y35844D01*
X555276Y36029D01*
Y36039D01*
X555257Y36049D01*
X555208Y36098D01*
X555120Y36176D01*
X555013Y36254D01*
X554866Y36332D01*
X554700Y36410D01*
X554515Y36459D01*
X554417Y36478D01*
D02*
G37*
G36*
X490147Y36488D02*
X490099D01*
X490060Y36478D01*
X489952Y36468D01*
X489825Y36439D01*
X489679Y36400D01*
X489533Y36332D01*
X489376Y36244D01*
X489230Y36117D01*
X489211Y36098D01*
X489172Y36049D01*
X489113Y35971D01*
X489045Y35854D01*
X488976Y35717D01*
X488908Y35551D01*
X488859Y35356D01*
X488830Y35141D01*
X491426D01*
Y35151D01*
Y35170D01*
X491416Y35200D01*
Y35239D01*
X491397Y35346D01*
X491367Y35473D01*
X491328Y35610D01*
X491270Y35756D01*
X491211Y35902D01*
X491123Y36020D01*
Y36029D01*
X491104Y36039D01*
X491055Y36098D01*
X490967Y36166D01*
X490860Y36254D01*
X490714Y36342D01*
X490548Y36420D01*
X490362Y36468D01*
X490255Y36478D01*
X490147Y36488D01*
D02*
G37*
G36*
X480270Y36478D02*
X480104D01*
X480065Y36468D01*
X479958Y36459D01*
X479821Y36420D01*
X479665Y36371D01*
X479499Y36293D01*
X479333Y36176D01*
X479255Y36107D01*
X479177Y36029D01*
X479158Y36010D01*
X479138Y35980D01*
X479119Y35951D01*
X479089Y35902D01*
X479060Y35844D01*
X479021Y35776D01*
X478992Y35697D01*
X478953Y35610D01*
X478914Y35512D01*
X478885Y35405D01*
X478855Y35278D01*
X478836Y35151D01*
X478816Y35004D01*
X478797Y34858D01*
Y34692D01*
Y34682D01*
Y34653D01*
Y34604D01*
X478806Y34546D01*
Y34477D01*
X478816Y34390D01*
X478845Y34194D01*
X478894Y33980D01*
X478953Y33755D01*
X479050Y33540D01*
X479109Y33443D01*
X479177Y33355D01*
X479197Y33336D01*
X479246Y33287D01*
X479333Y33218D01*
X479451Y33140D01*
X479587Y33052D01*
X479763Y32984D01*
X479948Y32935D01*
X480056Y32926D01*
X480163Y32916D01*
X480222D01*
X480261Y32926D01*
X480368Y32935D01*
X480505Y32974D01*
X480661Y33023D01*
X480827Y33101D01*
X480983Y33209D01*
X481061Y33277D01*
X481139Y33355D01*
Y33365D01*
X481159Y33375D01*
X481178Y33404D01*
X481198Y33443D01*
X481227Y33492D01*
X481266Y33550D01*
X481295Y33619D01*
X481334Y33697D01*
X481373Y33784D01*
X481403Y33882D01*
X481442Y33999D01*
X481471Y34126D01*
X481490Y34253D01*
X481510Y34399D01*
X481529Y34556D01*
Y34721D01*
Y34731D01*
Y34760D01*
Y34800D01*
X481520Y34868D01*
Y34936D01*
X481510Y35014D01*
X481481Y35209D01*
X481432Y35414D01*
X481363Y35639D01*
X481266Y35844D01*
X481129Y36029D01*
Y36039D01*
X481110Y36049D01*
X481061Y36098D01*
X480973Y36176D01*
X480866Y36254D01*
X480719Y36332D01*
X480553Y36410D01*
X480368Y36459D01*
X480270Y36478D01*
D02*
G37*
G36*
X469242Y36488D02*
X469193D01*
X469154Y36478D01*
X469046Y36468D01*
X468920Y36439D01*
X468773Y36400D01*
X468627Y36332D01*
X468471Y36244D01*
X468324Y36117D01*
X468305Y36098D01*
X468266Y36049D01*
X468207Y35971D01*
X468139Y35854D01*
X468070Y35717D01*
X468002Y35551D01*
X467953Y35356D01*
X467924Y35141D01*
X470520D01*
Y35151D01*
Y35170D01*
X470510Y35200D01*
Y35239D01*
X470491Y35346D01*
X470462Y35473D01*
X470423Y35610D01*
X470364Y35756D01*
X470305Y35902D01*
X470218Y36020D01*
Y36029D01*
X470198Y36039D01*
X470149Y36098D01*
X470061Y36166D01*
X469954Y36254D01*
X469808Y36342D01*
X469642Y36420D01*
X469456Y36468D01*
X469349Y36478D01*
X469242Y36488D01*
D02*
G37*
G36*
X452318D02*
X452269D01*
X452230Y36478D01*
X452123Y36468D01*
X451996Y36439D01*
X451849Y36400D01*
X451703Y36332D01*
X451547Y36244D01*
X451400Y36117D01*
X451381Y36098D01*
X451342Y36049D01*
X451283Y35971D01*
X451215Y35854D01*
X451147Y35717D01*
X451078Y35551D01*
X451029Y35356D01*
X451000Y35141D01*
X453596D01*
Y35151D01*
Y35170D01*
X453587Y35200D01*
Y35239D01*
X453567Y35346D01*
X453538Y35473D01*
X453499Y35610D01*
X453440Y35756D01*
X453382Y35902D01*
X453294Y36020D01*
Y36029D01*
X453274Y36039D01*
X453225Y36098D01*
X453138Y36166D01*
X453030Y36254D01*
X452884Y36342D01*
X452718Y36420D01*
X452532Y36468D01*
X452425Y36478D01*
X452318Y36488D01*
D02*
G37*
G36*
X462224Y36478D02*
X462078D01*
X462039Y36468D01*
X461941Y36459D01*
X461814Y36429D01*
X461678Y36371D01*
X461521Y36293D01*
X461375Y36195D01*
X461297Y36127D01*
X461229Y36049D01*
X461209Y36029D01*
X461199Y36000D01*
X461170Y35971D01*
X461141Y35922D01*
X461111Y35873D01*
X461082Y35805D01*
X461053Y35727D01*
X461014Y35649D01*
X460985Y35551D01*
X460955Y35444D01*
X460926Y35336D01*
X460887Y35073D01*
X460868Y34780D01*
Y34770D01*
Y34741D01*
Y34692D01*
X460877Y34634D01*
Y34556D01*
X460887Y34468D01*
X460916Y34272D01*
X460955Y34058D01*
X461024Y33833D01*
X461111Y33628D01*
X461170Y33540D01*
X461229Y33453D01*
X461248Y33433D01*
X461297Y33384D01*
X461375Y33316D01*
X461482Y33248D01*
X461609Y33170D01*
X461765Y33101D01*
X461941Y33052D01*
X462039Y33043D01*
X462136Y33033D01*
X462185D01*
X462224Y33043D01*
X462331Y33052D01*
X462458Y33082D01*
X462595Y33130D01*
X462751Y33209D01*
X462898Y33306D01*
X463044Y33443D01*
Y33453D01*
X463063Y33462D01*
X463083Y33492D01*
X463103Y33521D01*
X463132Y33570D01*
X463161Y33619D01*
X463190Y33687D01*
X463229Y33765D01*
X463269Y33853D01*
X463298Y33950D01*
X463327Y34058D01*
X463356Y34175D01*
X463386Y34302D01*
X463395Y34438D01*
X463415Y34595D01*
Y34751D01*
Y34760D01*
Y34790D01*
Y34829D01*
X463405Y34887D01*
Y34965D01*
X463395Y35043D01*
X463366Y35239D01*
X463327Y35444D01*
X463259Y35658D01*
X463161Y35863D01*
X463103Y35951D01*
X463034Y36039D01*
Y36049D01*
X463015Y36059D01*
X462966Y36107D01*
X462888Y36176D01*
X462781Y36263D01*
X462654Y36342D01*
X462497Y36410D01*
X462322Y36459D01*
X462224Y36478D01*
D02*
G37*
G36*
X502445Y26792D02*
X502299D01*
X502260Y26783D01*
X502162Y26773D01*
X502045Y26744D01*
X501908Y26685D01*
X501762Y26607D01*
X501615Y26509D01*
X501547Y26441D01*
X501479Y26363D01*
X501459Y26343D01*
X501450Y26314D01*
X501420Y26285D01*
X501401Y26236D01*
X501371Y26177D01*
X501333Y26109D01*
X501303Y26031D01*
X501274Y25943D01*
X501235Y25846D01*
X501206Y25728D01*
X501186Y25611D01*
X501157Y25475D01*
X501147Y25328D01*
X501127Y25172D01*
Y25006D01*
Y24996D01*
Y24967D01*
Y24918D01*
X501137Y24860D01*
Y24782D01*
X501147Y24704D01*
X501176Y24499D01*
X501215Y24284D01*
X501284Y24060D01*
X501371Y23855D01*
X501430Y23757D01*
X501498Y23669D01*
X501518Y23650D01*
X501567Y23601D01*
X501645Y23532D01*
X501752Y23455D01*
X501879Y23367D01*
X502025Y23298D01*
X502201Y23249D01*
X502289Y23240D01*
X502387Y23230D01*
X502435D01*
X502474Y23240D01*
X502572Y23249D01*
X502689Y23279D01*
X502826Y23337D01*
X502972Y23406D01*
X503128Y23513D01*
X503197Y23572D01*
X503265Y23650D01*
Y23659D01*
X503285Y23669D01*
X503294Y23698D01*
X503324Y23728D01*
X503353Y23776D01*
X503382Y23825D01*
X503411Y23894D01*
X503450Y23972D01*
X503480Y24050D01*
X503509Y24147D01*
X503538Y24255D01*
X503568Y24372D01*
X503597Y24499D01*
X503607Y24635D01*
X503626Y24782D01*
Y24938D01*
Y24948D01*
Y24977D01*
Y25026D01*
X503616Y25094D01*
Y25172D01*
X503607Y25260D01*
X503577Y25475D01*
X503538Y25699D01*
X503470Y25934D01*
X503382Y26158D01*
X503324Y26256D01*
X503255Y26343D01*
Y26353D01*
X503236Y26363D01*
X503187Y26412D01*
X503109Y26490D01*
X503001Y26568D01*
X502875Y26646D01*
X502718Y26724D01*
X502543Y26773D01*
X502445Y26792D01*
D02*
G37*
G36*
X469242Y25026D02*
X469222Y25016D01*
X469193Y25006D01*
X469164Y24996D01*
X469115Y24977D01*
X469056Y24967D01*
X468998Y24948D01*
X468920Y24918D01*
X468832Y24899D01*
X468734Y24879D01*
X468637Y24850D01*
X468519Y24821D01*
X468393Y24801D01*
X468256Y24772D01*
X468109Y24753D01*
X467953Y24723D01*
X467934D01*
X467875Y24713D01*
X467787Y24694D01*
X467680Y24675D01*
X467455Y24626D01*
X467348Y24596D01*
X467260Y24567D01*
X467251D01*
X467231Y24548D01*
X467192Y24528D01*
X467153Y24499D01*
X467055Y24421D01*
X466958Y24304D01*
Y24294D01*
X466938Y24274D01*
X466928Y24245D01*
X466909Y24196D01*
X466870Y24079D01*
X466860Y24011D01*
X466850Y23933D01*
Y23923D01*
Y23884D01*
X466860Y23825D01*
X466880Y23747D01*
X466909Y23669D01*
X466948Y23581D01*
X467007Y23494D01*
X467085Y23406D01*
X467094Y23396D01*
X467133Y23376D01*
X467182Y23337D01*
X467260Y23308D01*
X467358Y23269D01*
X467485Y23230D01*
X467621Y23211D01*
X467787Y23201D01*
X467865D01*
X467943Y23211D01*
X468061Y23230D01*
X468178Y23249D01*
X468314Y23279D01*
X468451Y23328D01*
X468588Y23396D01*
X468607Y23406D01*
X468646Y23435D01*
X468715Y23474D01*
X468793Y23542D01*
X468871Y23611D01*
X468959Y23708D01*
X469046Y23816D01*
X469115Y23943D01*
X469125Y23952D01*
X469134Y23991D01*
X469154Y24050D01*
X469183Y24138D01*
X469203Y24255D01*
X469222Y24391D01*
X469232Y24548D01*
X469242Y24733D01*
Y25026D01*
D02*
G37*
G36*
X494637Y26792D02*
X494471D01*
X494432Y26783D01*
X494325Y26773D01*
X494188Y26734D01*
X494032Y26685D01*
X493866Y26607D01*
X493700Y26490D01*
X493622Y26421D01*
X493544Y26343D01*
X493525Y26324D01*
X493505Y26295D01*
X493485Y26265D01*
X493456Y26217D01*
X493427Y26158D01*
X493388Y26090D01*
X493359Y26012D01*
X493320Y25924D01*
X493281Y25826D01*
X493251Y25719D01*
X493222Y25592D01*
X493202Y25465D01*
X493183Y25319D01*
X493163Y25172D01*
Y25006D01*
Y24996D01*
Y24967D01*
Y24918D01*
X493173Y24860D01*
Y24792D01*
X493183Y24704D01*
X493212Y24509D01*
X493261Y24294D01*
X493320Y24069D01*
X493417Y23855D01*
X493476Y23757D01*
X493544Y23669D01*
X493564Y23650D01*
X493612Y23601D01*
X493700Y23532D01*
X493817Y23455D01*
X493954Y23367D01*
X494130Y23298D01*
X494315Y23249D01*
X494422Y23240D01*
X494530Y23230D01*
X494588D01*
X494627Y23240D01*
X494735Y23249D01*
X494871Y23289D01*
X495027Y23337D01*
X495193Y23415D01*
X495350Y23523D01*
X495428Y23591D01*
X495506Y23669D01*
Y23679D01*
X495525Y23689D01*
X495545Y23718D01*
X495564Y23757D01*
X495594Y23806D01*
X495633Y23864D01*
X495662Y23933D01*
X495701Y24011D01*
X495740Y24099D01*
X495769Y24196D01*
X495808Y24313D01*
X495838Y24440D01*
X495857Y24567D01*
X495877Y24713D01*
X495896Y24870D01*
Y25036D01*
Y25045D01*
Y25075D01*
Y25114D01*
X495886Y25182D01*
Y25250D01*
X495877Y25328D01*
X495847Y25524D01*
X495799Y25728D01*
X495730Y25953D01*
X495633Y26158D01*
X495496Y26343D01*
Y26353D01*
X495476Y26363D01*
X495428Y26412D01*
X495340Y26490D01*
X495232Y26568D01*
X495086Y26646D01*
X494920Y26724D01*
X494735Y26773D01*
X494637Y26792D01*
D02*
G37*
G36*
X452855D02*
X452689D01*
X452650Y26783D01*
X452542Y26773D01*
X452406Y26734D01*
X452249Y26685D01*
X452083Y26607D01*
X451918Y26490D01*
X451839Y26421D01*
X451761Y26343D01*
X451742Y26324D01*
X451722Y26295D01*
X451703Y26265D01*
X451674Y26217D01*
X451644Y26158D01*
X451605Y26090D01*
X451576Y26012D01*
X451537Y25924D01*
X451498Y25826D01*
X451469Y25719D01*
X451439Y25592D01*
X451420Y25465D01*
X451400Y25319D01*
X451381Y25172D01*
Y25006D01*
Y24996D01*
Y24967D01*
Y24918D01*
X451391Y24860D01*
Y24792D01*
X451400Y24704D01*
X451430Y24509D01*
X451478Y24294D01*
X451537Y24069D01*
X451635Y23855D01*
X451693Y23757D01*
X451761Y23669D01*
X451781Y23650D01*
X451830Y23601D01*
X451918Y23532D01*
X452035Y23455D01*
X452171Y23367D01*
X452347Y23298D01*
X452532Y23249D01*
X452640Y23240D01*
X452747Y23230D01*
X452806D01*
X452845Y23240D01*
X452952Y23249D01*
X453089Y23289D01*
X453245Y23337D01*
X453411Y23415D01*
X453567Y23523D01*
X453645Y23591D01*
X453723Y23669D01*
Y23679D01*
X453743Y23689D01*
X453762Y23718D01*
X453782Y23757D01*
X453811Y23806D01*
X453850Y23864D01*
X453879Y23933D01*
X453918Y24011D01*
X453957Y24099D01*
X453987Y24196D01*
X454026Y24313D01*
X454055Y24440D01*
X454075Y24567D01*
X454094Y24713D01*
X454114Y24870D01*
Y25036D01*
Y25045D01*
Y25075D01*
Y25114D01*
X454104Y25182D01*
Y25250D01*
X454094Y25328D01*
X454065Y25524D01*
X454016Y25728D01*
X453948Y25953D01*
X453850Y26158D01*
X453713Y26343D01*
Y26353D01*
X453694Y26363D01*
X453645Y26412D01*
X453557Y26490D01*
X453450Y26568D01*
X453303Y26646D01*
X453138Y26724D01*
X452952Y26773D01*
X452855Y26792D01*
D02*
G37*
G36*
X508047Y17116D02*
X508028Y17107D01*
X507999Y17097D01*
X507969Y17087D01*
X507921Y17067D01*
X507862Y17058D01*
X507803Y17038D01*
X507725Y17009D01*
X507637Y16989D01*
X507540Y16970D01*
X507442Y16941D01*
X507325Y16911D01*
X507198Y16892D01*
X507062Y16863D01*
X506915Y16843D01*
X506759Y16814D01*
X506740D01*
X506681Y16804D01*
X506593Y16784D01*
X506486Y16765D01*
X506261Y16716D01*
X506154Y16687D01*
X506066Y16658D01*
X506056D01*
X506037Y16638D01*
X505998Y16619D01*
X505959Y16589D01*
X505861Y16511D01*
X505763Y16394D01*
Y16384D01*
X505744Y16365D01*
X505734Y16335D01*
X505715Y16287D01*
X505676Y16170D01*
X505666Y16101D01*
X505656Y16023D01*
Y16013D01*
Y15974D01*
X505666Y15916D01*
X505685Y15838D01*
X505715Y15760D01*
X505754Y15672D01*
X505812Y15584D01*
X505890Y15496D01*
X505900Y15486D01*
X505939Y15467D01*
X505988Y15428D01*
X506066Y15399D01*
X506164Y15360D01*
X506291Y15321D01*
X506427Y15301D01*
X506593Y15291D01*
X506671D01*
X506749Y15301D01*
X506866Y15321D01*
X506984Y15340D01*
X507120Y15369D01*
X507257Y15418D01*
X507393Y15486D01*
X507413Y15496D01*
X507452Y15525D01*
X507520Y15564D01*
X507598Y15633D01*
X507677Y15701D01*
X507764Y15799D01*
X507852Y15906D01*
X507921Y16033D01*
X507930Y16043D01*
X507940Y16082D01*
X507960Y16140D01*
X507989Y16228D01*
X508008Y16345D01*
X508028Y16482D01*
X508038Y16638D01*
X508047Y16824D01*
Y17116D01*
D02*
G37*
G36*
X488166Y18883D02*
X488000D01*
X487961Y18873D01*
X487854Y18863D01*
X487717Y18824D01*
X487561Y18776D01*
X487395Y18697D01*
X487229Y18580D01*
X487151Y18512D01*
X487073Y18434D01*
X487054Y18414D01*
X487034Y18385D01*
X487015Y18356D01*
X486985Y18307D01*
X486956Y18248D01*
X486917Y18180D01*
X486888Y18102D01*
X486849Y18014D01*
X486810Y17917D01*
X486780Y17809D01*
X486751Y17682D01*
X486731Y17556D01*
X486712Y17409D01*
X486692Y17263D01*
Y17097D01*
Y17087D01*
Y17058D01*
Y17009D01*
X486702Y16950D01*
Y16882D01*
X486712Y16794D01*
X486741Y16599D01*
X486790Y16384D01*
X486849Y16160D01*
X486946Y15945D01*
X487005Y15847D01*
X487073Y15760D01*
X487093Y15740D01*
X487141Y15691D01*
X487229Y15623D01*
X487346Y15545D01*
X487483Y15457D01*
X487659Y15389D01*
X487844Y15340D01*
X487952Y15330D01*
X488059Y15321D01*
X488117D01*
X488157Y15330D01*
X488264Y15340D01*
X488401Y15379D01*
X488557Y15428D01*
X488723Y15506D01*
X488879Y15613D01*
X488957Y15682D01*
X489035Y15760D01*
Y15769D01*
X489054Y15779D01*
X489074Y15809D01*
X489093Y15847D01*
X489123Y15896D01*
X489162Y15955D01*
X489191Y16023D01*
X489230Y16101D01*
X489269Y16189D01*
X489298Y16287D01*
X489337Y16404D01*
X489367Y16531D01*
X489386Y16658D01*
X489406Y16804D01*
X489425Y16960D01*
Y17126D01*
Y17136D01*
Y17165D01*
Y17204D01*
X489416Y17273D01*
Y17341D01*
X489406Y17419D01*
X489376Y17614D01*
X489328Y17819D01*
X489259Y18044D01*
X489162Y18248D01*
X489025Y18434D01*
Y18444D01*
X489006Y18453D01*
X488957Y18502D01*
X488869Y18580D01*
X488762Y18658D01*
X488615Y18736D01*
X488449Y18815D01*
X488264Y18863D01*
X488166Y18883D01*
D02*
G37*
G36*
X464205Y18893D02*
X464157D01*
X464118Y18883D01*
X464010Y18873D01*
X463883Y18844D01*
X463737Y18805D01*
X463591Y18736D01*
X463434Y18649D01*
X463288Y18522D01*
X463269Y18502D01*
X463229Y18453D01*
X463171Y18375D01*
X463103Y18258D01*
X463034Y18122D01*
X462966Y17956D01*
X462917Y17761D01*
X462888Y17546D01*
X465484D01*
Y17556D01*
Y17575D01*
X465474Y17604D01*
Y17643D01*
X465455Y17751D01*
X465425Y17878D01*
X465386Y18014D01*
X465328Y18161D01*
X465269Y18307D01*
X465181Y18424D01*
Y18434D01*
X465162Y18444D01*
X465113Y18502D01*
X465025Y18571D01*
X464918Y18658D01*
X464772Y18746D01*
X464606Y18824D01*
X464420Y18873D01*
X464313Y18883D01*
X464205Y18893D01*
D02*
G37*
%LPD*%
D23*
X453200Y482300D02*
X485700D01*
X453200Y423800D02*
Y482300D01*
Y423800D02*
X485700D01*
Y479800D01*
X453200D02*
X485700D01*
Y482300D01*
X380700D02*
X413200D01*
X380700Y423800D02*
Y482300D01*
Y423800D02*
X413200D01*
Y479800D01*
X380700D02*
X413200D01*
Y482300D01*
X529200D02*
X561700D01*
X529200Y423800D02*
Y482300D01*
Y423800D02*
X561700D01*
Y479800D01*
X529200D02*
X561700D01*
Y482300D01*
X416500Y149798D02*
Y143800D01*
X420499D01*
X422498D02*
Y149798D01*
X424497Y147799D01*
X426497Y149798D01*
Y143800D01*
X428496Y148798D02*
X429496Y149798D01*
X431495D01*
X432495Y148798D01*
Y147799D01*
X431495Y146799D01*
X430496D01*
X431495D01*
X432495Y145799D01*
Y144800D01*
X431495Y143800D01*
X429496D01*
X428496Y144800D01*
X434494Y143800D02*
X436493D01*
X435494D01*
Y149798D01*
X434494Y148798D01*
X439493Y149798D02*
X443491D01*
Y148798D01*
X439493Y144800D01*
Y143800D01*
X315800Y309400D02*
Y311399D01*
Y310400D01*
X309802D01*
X310802Y309400D01*
Y314398D02*
X309802Y315398D01*
Y317397D01*
X310802Y318397D01*
X314800D01*
X315800Y317397D01*
Y315398D01*
X314800Y314398D01*
X310802D01*
X311801Y320396D02*
X314800D01*
X315800Y321396D01*
Y324395D01*
X311801D01*
X309802Y330393D02*
Y326395D01*
X312801D01*
Y328394D01*
Y326395D01*
X315800D01*
X398200Y189500D02*
X400199D01*
X399200D01*
Y195498D01*
X398200Y194498D01*
X403198D02*
X404198Y195498D01*
X406197D01*
X407197Y194498D01*
Y190500D01*
X406197Y189500D01*
X404198D01*
X403198Y190500D01*
Y194498D01*
X409196Y193499D02*
Y190500D01*
X410196Y189500D01*
X413195D01*
Y193499D01*
X419193Y195498D02*
X415195D01*
Y192499D01*
X417194D01*
X415195D01*
Y189500D01*
X507400Y133398D02*
Y127400D01*
X511399D01*
X513398D02*
Y133398D01*
X515397Y131399D01*
X517397Y133398D01*
Y127400D01*
X519396Y132398D02*
X520396Y133398D01*
X522395D01*
X523395Y132398D01*
Y131399D01*
X522395Y130399D01*
X521395D01*
X522395D01*
X523395Y129399D01*
Y128400D01*
X522395Y127400D01*
X520396D01*
X519396Y128400D01*
X529393Y127400D02*
X525394D01*
X529393Y131399D01*
Y132398D01*
X528393Y133398D01*
X526394D01*
X525394Y132398D01*
X531392Y127400D02*
X533392D01*
X532392D01*
Y133398D01*
X531392Y132398D01*
X513600Y196500D02*
X515599D01*
X514600D01*
Y202498D01*
X513600Y201498D01*
X518598Y200499D02*
Y197500D01*
X519598Y196500D01*
X522597D01*
Y200499D01*
X528595Y202498D02*
X524596D01*
Y199499D01*
X526596D01*
X524596D01*
Y196500D01*
X503102Y159900D02*
X509100D01*
Y163899D01*
Y165898D02*
X503102D01*
X505101Y167897D01*
X503102Y169897D01*
X509100D01*
X504102Y171896D02*
X503102Y172896D01*
Y174895D01*
X504102Y175895D01*
X505101D01*
X506101Y174895D01*
Y173896D01*
Y174895D01*
X507101Y175895D01*
X508100D01*
X509100Y174895D01*
Y172896D01*
X508100Y171896D01*
X509100Y181893D02*
Y177894D01*
X505101Y181893D01*
X504102D01*
X503102Y180893D01*
Y178894D01*
X504102Y177894D01*
X509100Y183892D02*
Y185892D01*
Y184892D01*
X503102D01*
X504102Y183892D01*
X585900Y172998D02*
X589899D01*
Y171998D01*
X585900Y168000D01*
Y167000D01*
X591898D02*
Y172998D01*
X593897Y170999D01*
X595897Y172998D01*
Y167000D01*
X600895Y172998D02*
X598896D01*
X597896Y171998D01*
Y168000D01*
X598896Y167000D01*
X600895D01*
X601895Y168000D01*
Y171998D01*
X600895Y172998D01*
X603894D02*
Y167000D01*
Y169999D01*
X604894Y170999D01*
X606893D01*
X607893Y169999D01*
Y167000D01*
X609892D02*
Y170999D01*
X610892D01*
X611892Y169999D01*
Y167000D01*
Y169999D01*
X612891Y170999D01*
X613891Y169999D01*
Y167000D01*
X589899Y146998D02*
X585900D01*
Y143999D01*
X587899Y144999D01*
X588899D01*
X589899Y143999D01*
Y142000D01*
X588899Y141000D01*
X586900D01*
X585900Y142000D01*
X591898Y141000D02*
Y146998D01*
X593897Y144999D01*
X595897Y146998D01*
Y141000D01*
X600895Y146998D02*
X598896D01*
X597896Y145998D01*
Y142000D01*
X598896Y141000D01*
X600895D01*
X601895Y142000D01*
Y145998D01*
X600895Y146998D01*
X603894D02*
Y141000D01*
Y143999D01*
X604894Y144999D01*
X606893D01*
X607893Y143999D01*
Y141000D01*
X609892D02*
Y144999D01*
X610892D01*
X611892Y143999D01*
Y141000D01*
Y143999D01*
X612891Y144999D01*
X613891Y143999D01*
Y141000D01*
X529400Y117000D02*
X531399D01*
X530400D01*
Y122998D01*
X529400Y121998D01*
X534398Y120999D02*
Y118000D01*
X535398Y117000D01*
X538397D01*
Y120999D01*
X544395Y122998D02*
X540396D01*
Y119999D01*
X542396D01*
X540396D01*
Y117000D01*
X497299Y105900D02*
X493300D01*
X497299Y109899D01*
Y110898D01*
X496299Y111898D01*
X494300D01*
X493300Y110898D01*
X503297Y111898D02*
X499298D01*
Y108899D01*
X501297Y109899D01*
X502297D01*
X503297Y108899D01*
Y106900D01*
X502297Y105900D01*
X500298D01*
X499298Y106900D01*
X505296Y110898D02*
X506296Y111898D01*
X508295D01*
X509295Y110898D01*
Y106900D01*
X508295Y105900D01*
X506296D01*
X505296Y106900D01*
Y110898D01*
X520291Y111898D02*
X518292D01*
X517292Y110898D01*
Y106900D01*
X518292Y105900D01*
X520291D01*
X521291Y106900D01*
Y110898D01*
X520291Y111898D01*
X523290D02*
Y105900D01*
Y108899D01*
X524290Y109899D01*
X526289D01*
X527289Y108899D01*
Y105900D01*
X529288D02*
Y109899D01*
X530288D01*
X531288Y108899D01*
Y105900D01*
Y108899D01*
X532287Y109899D01*
X533287Y108899D01*
Y105900D01*
X340400Y117000D02*
X342399D01*
X341400D01*
Y122998D01*
X340400Y121998D01*
X345398D02*
X346398Y122998D01*
X348397D01*
X349397Y121998D01*
Y118000D01*
X348397Y117000D01*
X346398D01*
X345398Y118000D01*
Y121998D01*
X351396Y120999D02*
Y118000D01*
X352396Y117000D01*
X355395D01*
Y120999D01*
X361393Y122998D02*
X357395D01*
Y119999D01*
X359394D01*
X357395D01*
Y117000D01*
X346400Y127000D02*
X348399D01*
X347400D01*
Y132998D01*
X346400Y131998D01*
X351398Y130999D02*
Y128000D01*
X352398Y127000D01*
X355397D01*
Y130999D01*
X361395Y132998D02*
X357396D01*
Y129999D01*
X359396D01*
X357396D01*
Y127000D01*
X332500Y179400D02*
X334499D01*
X333500D01*
Y185398D01*
X332500Y184398D01*
X337498Y183399D02*
Y180400D01*
X338498Y179400D01*
X341497D01*
Y183399D01*
X347495Y185398D02*
X343496D01*
Y182399D01*
X345496D01*
X343496D01*
Y179400D01*
X472000Y279400D02*
X473999D01*
X473000D01*
Y285398D01*
X472000Y284398D01*
X476998Y283399D02*
Y280400D01*
X477998Y279400D01*
X480997D01*
Y283399D01*
X486995Y285398D02*
X482996D01*
Y282399D01*
X484996D01*
X482996D01*
Y279400D01*
X413399Y268100D02*
X409400D01*
X413399Y272099D01*
Y273098D01*
X412399Y274098D01*
X410400D01*
X409400Y273098D01*
X419397Y274098D02*
X415398D01*
Y271099D01*
X417397Y272099D01*
X418397D01*
X419397Y271099D01*
Y269100D01*
X418397Y268100D01*
X416398D01*
X415398Y269100D01*
X421396Y273098D02*
X422396Y274098D01*
X424395D01*
X425395Y273098D01*
Y269100D01*
X424395Y268100D01*
X422396D01*
X421396Y269100D01*
Y273098D01*
X436391Y274098D02*
X434392D01*
X433392Y273098D01*
Y269100D01*
X434392Y268100D01*
X436391D01*
X437391Y269100D01*
Y273098D01*
X436391Y274098D01*
X439390D02*
Y268100D01*
Y271099D01*
X440390Y272099D01*
X442389D01*
X443389Y271099D01*
Y268100D01*
X445388D02*
Y272099D01*
X446388D01*
X447388Y271099D01*
Y268100D01*
Y271099D01*
X448387Y272099D01*
X449387Y271099D01*
Y268100D01*
X344600Y267000D02*
X346599D01*
X345600D01*
Y272998D01*
X344600Y271998D01*
X349598Y270999D02*
Y268000D01*
X350598Y267000D01*
X353597D01*
Y270999D01*
X359595Y272998D02*
X355596D01*
Y269999D01*
X357596D01*
X355596D01*
Y267000D01*
X338600Y277000D02*
X340599D01*
X339600D01*
Y282998D01*
X338600Y281998D01*
X343598D02*
X344598Y282998D01*
X346597D01*
X347597Y281998D01*
Y278000D01*
X346597Y277000D01*
X344598D01*
X343598Y278000D01*
Y281998D01*
X349596Y280999D02*
Y278000D01*
X350596Y277000D01*
X353595D01*
Y280999D01*
X359593Y282998D02*
X355594D01*
Y279999D01*
X357594D01*
X355594D01*
Y277000D01*
X579899Y311898D02*
X575900D01*
Y308899D01*
X577899Y309899D01*
X578899D01*
X579899Y308899D01*
Y306900D01*
X578899Y305900D01*
X576900D01*
X575900Y306900D01*
X581898Y305900D02*
Y311898D01*
X583897Y309899D01*
X585897Y311898D01*
Y305900D01*
X590895Y311898D02*
X588896D01*
X587896Y310898D01*
Y306900D01*
X588896Y305900D01*
X590895D01*
X591895Y306900D01*
Y310898D01*
X590895Y311898D01*
X593894D02*
Y305900D01*
Y308899D01*
X594894Y309899D01*
X596893D01*
X597893Y308899D01*
Y305900D01*
X599892D02*
Y309899D01*
X600892D01*
X601892Y308899D01*
Y305900D01*
Y308899D01*
X602891Y309899D01*
X603891Y308899D01*
Y305900D01*
X575900Y330498D02*
X579899D01*
Y329498D01*
X575900Y325500D01*
Y324500D01*
X581898D02*
Y330498D01*
X583897Y328499D01*
X585897Y330498D01*
Y324500D01*
X590895Y330498D02*
X588896D01*
X587896Y329498D01*
Y325500D01*
X588896Y324500D01*
X590895D01*
X591895Y325500D01*
Y329498D01*
X590895Y330498D01*
X593894D02*
Y324500D01*
Y327499D01*
X594894Y328499D01*
X596893D01*
X597893Y327499D01*
Y324500D01*
X599892D02*
Y328499D01*
X600892D01*
X601892Y327499D01*
Y324500D01*
Y327499D01*
X602891Y328499D01*
X603891Y327499D01*
Y324500D01*
X529500Y341898D02*
X530500Y342898D01*
X532499D01*
X533499Y341898D01*
Y340899D01*
X532499Y339899D01*
X531499D01*
X532499D01*
X533499Y338899D01*
Y337900D01*
X532499Y336900D01*
X530500D01*
X529500Y337900D01*
X535498Y336900D02*
Y342898D01*
X537497Y340899D01*
X539497Y342898D01*
Y336900D01*
X544495Y342898D02*
X542496D01*
X541496Y341898D01*
Y337900D01*
X542496Y336900D01*
X544495D01*
X545495Y337900D01*
Y341898D01*
X544495Y342898D01*
X547494D02*
Y336900D01*
Y339899D01*
X548494Y340899D01*
X550493D01*
X551493Y339899D01*
Y336900D01*
X553492D02*
Y340899D01*
X554492D01*
X555492Y339899D01*
Y336900D01*
Y339899D01*
X556491Y340899D01*
X557491Y339899D01*
Y336900D01*
X530000Y293500D02*
X531999D01*
X531000D01*
Y299498D01*
X530000Y298498D01*
X534998Y293500D02*
Y299498D01*
X536998Y297499D01*
X538997Y299498D01*
Y293500D01*
X543996Y299498D02*
X541996D01*
X540996Y298498D01*
Y294500D01*
X541996Y293500D01*
X543996D01*
X544995Y294500D01*
Y298498D01*
X543996Y299498D01*
X546994D02*
Y293500D01*
Y296499D01*
X547994Y297499D01*
X549994D01*
X550993Y296499D01*
Y293500D01*
X552993D02*
Y297499D01*
X553992D01*
X554992Y296499D01*
Y293500D01*
Y296499D01*
X555992Y297499D01*
X556991Y296499D01*
Y293500D01*
X505300Y346500D02*
X507299D01*
X506300D01*
Y352498D01*
X505300Y351498D01*
X510298Y350499D02*
Y347500D01*
X511298Y346500D01*
X514297D01*
Y350499D01*
X520295Y352498D02*
X516296D01*
Y349499D01*
X518296D01*
X516296D01*
Y346500D01*
X461500Y353898D02*
Y347900D01*
X464499D01*
X465499Y348900D01*
Y352898D01*
X464499Y353898D01*
X461500D01*
X467498Y347900D02*
X469497D01*
X468498D01*
Y353898D01*
X467498Y352898D01*
X472496Y347900D02*
Y353898D01*
X476495Y347900D01*
Y353898D01*
X481494Y347900D02*
Y353898D01*
X478495Y350899D01*
X482493D01*
X484493Y352898D02*
X485492Y353898D01*
X487492D01*
X488491Y352898D01*
Y348900D01*
X487492Y347900D01*
X485492D01*
X484493Y348900D01*
Y352898D01*
X490491D02*
X491490Y353898D01*
X493490D01*
X494489Y352898D01*
Y348900D01*
X493490Y347900D01*
X491490D01*
X490491Y348900D01*
Y352898D01*
X496489Y347900D02*
X498488D01*
X497488D01*
Y353898D01*
X496489Y352898D01*
X392500Y339400D02*
X394499D01*
X393500D01*
Y345398D01*
X392500Y344398D01*
X397498Y343399D02*
Y340400D01*
X398498Y339400D01*
X401497D01*
Y343399D01*
X407495Y345398D02*
X403496D01*
Y342399D01*
X405496D01*
X403496D01*
Y339400D01*
X332500Y329400D02*
X334499D01*
X333500D01*
Y335398D01*
X332500Y334398D01*
X337498Y333399D02*
Y330400D01*
X338498Y329400D01*
X341497D01*
Y333399D01*
X347495Y335398D02*
X343496D01*
Y332399D01*
X345496D01*
X343496D01*
Y329400D01*
X392500Y144600D02*
X394499D01*
X393500D01*
Y150598D01*
X392500Y149598D01*
X397498Y148599D02*
Y145600D01*
X398498Y144600D01*
X401497D01*
Y148599D01*
X407495Y150598D02*
X403496D01*
Y147599D01*
X405496D01*
X403496D01*
Y144600D01*
X507000Y278898D02*
Y272900D01*
X510999D01*
X512998D02*
Y278898D01*
X514997Y276899D01*
X516997Y278898D01*
Y272900D01*
X518996Y277898D02*
X519996Y278898D01*
X521995D01*
X522995Y277898D01*
Y276899D01*
X521995Y275899D01*
X520996D01*
X521995D01*
X522995Y274899D01*
Y273900D01*
X521995Y272900D01*
X519996D01*
X518996Y273900D01*
X528993Y272900D02*
X524994D01*
X528993Y276899D01*
Y277898D01*
X527993Y278898D01*
X525994D01*
X524994Y277898D01*
X530992Y272900D02*
X532992D01*
X531992D01*
Y278898D01*
X530992Y277898D01*
X503802Y307000D02*
X509800D01*
Y310999D01*
Y312998D02*
X503802D01*
X505801Y314997D01*
X503802Y316997D01*
X509800D01*
X504802Y318996D02*
X503802Y319996D01*
Y321995D01*
X504802Y322995D01*
X505801D01*
X506801Y321995D01*
Y320995D01*
Y321995D01*
X507801Y322995D01*
X508800D01*
X509800Y321995D01*
Y319996D01*
X508800Y318996D01*
X509800Y328993D02*
Y324994D01*
X505801Y328993D01*
X504802D01*
X503802Y327993D01*
Y325994D01*
X504802Y324994D01*
X509800Y330992D02*
Y332992D01*
Y331992D01*
X503802D01*
X504802Y330992D01*
X461500Y203898D02*
Y197900D01*
X464499D01*
X465499Y198900D01*
Y202898D01*
X464499Y203898D01*
X461500D01*
X467498Y197900D02*
X469497D01*
X468498D01*
Y203898D01*
X467498Y202898D01*
X472496Y197900D02*
Y203898D01*
X476495Y197900D01*
Y203898D01*
X481494Y197900D02*
Y203898D01*
X478495Y200899D01*
X482493D01*
X484493Y202898D02*
X485492Y203898D01*
X487492D01*
X488491Y202898D01*
Y198900D01*
X487492Y197900D01*
X485492D01*
X484493Y198900D01*
Y202898D01*
X490491D02*
X491490Y203898D01*
X493490D01*
X494489Y202898D01*
Y198900D01*
X493490Y197900D01*
X491490D01*
X490491Y198900D01*
Y202898D01*
X496489Y197900D02*
X498488D01*
X497488D01*
Y203898D01*
X496489Y202898D01*
X353000Y184500D02*
Y188499D01*
X354999Y190498D01*
X356999Y188499D01*
Y184500D01*
Y187499D01*
X353000D01*
X358998Y190498D02*
Y184500D01*
X361997D01*
X362997Y185500D01*
Y189498D01*
X361997Y190498D01*
X358998D01*
X368995D02*
X364996D01*
Y187499D01*
X366996Y188499D01*
X367995D01*
X368995Y187499D01*
Y185500D01*
X367995Y184500D01*
X365996D01*
X364996Y185500D01*
X374993Y184500D02*
X370994D01*
X374993Y188499D01*
Y189498D01*
X373993Y190498D01*
X371994D01*
X370994Y189498D01*
X376992Y185500D02*
X377992Y184500D01*
X379991D01*
X380991Y185500D01*
Y189498D01*
X379991Y190498D01*
X377992D01*
X376992Y189498D01*
Y188499D01*
X377992Y187499D01*
X380991D01*
X382990Y189498D02*
X383990Y190498D01*
X385989D01*
X386989Y189498D01*
Y188499D01*
X385989Y187499D01*
X384990D01*
X385989D01*
X386989Y186499D01*
Y185500D01*
X385989Y184500D01*
X383990D01*
X382990Y185500D01*
X353000Y299500D02*
Y303499D01*
X354999Y305498D01*
X356999Y303499D01*
Y299500D01*
Y302499D01*
X353000D01*
X358998Y305498D02*
Y299500D01*
X361997D01*
X362997Y300500D01*
Y304498D01*
X361997Y305498D01*
X358998D01*
X368995D02*
X364996D01*
Y302499D01*
X366996Y303499D01*
X367995D01*
X368995Y302499D01*
Y300500D01*
X367995Y299500D01*
X365996D01*
X364996Y300500D01*
X374993Y299500D02*
X370994D01*
X374993Y303499D01*
Y304498D01*
X373993Y305498D01*
X371994D01*
X370994Y304498D01*
X376992Y300500D02*
X377992Y299500D01*
X379991D01*
X380991Y300500D01*
Y304498D01*
X379991Y305498D01*
X377992D01*
X376992Y304498D01*
Y303499D01*
X377992Y302499D01*
X380991D01*
X382990Y304498D02*
X383990Y305498D01*
X385989D01*
X386989Y304498D01*
Y303499D01*
X385989Y302499D01*
X384990D01*
X385989D01*
X386989Y301499D01*
Y300500D01*
X385989Y299500D01*
X383990D01*
X382990Y300500D01*
X828100Y251898D02*
X829100Y252898D01*
X831099D01*
X832099Y251898D01*
Y247900D01*
X831099Y246900D01*
X829100D01*
X828100Y247900D01*
Y251898D01*
X834098Y246900D02*
Y247900D01*
X835098D01*
Y246900D01*
X834098D01*
X839096D02*
X841096D01*
X840096D01*
Y252898D01*
X839096Y251898D01*
X844095Y250899D02*
Y247900D01*
X845094Y246900D01*
X848094D01*
Y250899D01*
X854092Y252898D02*
X850093D01*
Y249899D01*
X852092D01*
X850093D01*
Y246900D01*
X862089Y252898D02*
Y246900D01*
X865088D01*
X866088Y247900D01*
Y248899D01*
X865088Y249899D01*
X862089D01*
X865088D01*
X866088Y250899D01*
Y251898D01*
X865088Y252898D01*
X862089D01*
X868087Y246900D02*
Y250899D01*
X870086Y252898D01*
X872086Y250899D01*
Y246900D01*
Y249899D01*
X868087D01*
X874085Y246900D02*
Y252898D01*
X878084Y246900D01*
Y252898D01*
X880083D02*
Y246900D01*
Y248899D01*
X884082Y252898D01*
X881083Y249899D01*
X884082Y246900D01*
X824000Y41098D02*
Y35100D01*
X826999D01*
X827999Y36100D01*
Y40098D01*
X826999Y41098D01*
X824000D01*
X829998D02*
Y35100D01*
X832997D01*
X833997Y36100D01*
Y37099D01*
X832997Y38099D01*
X829998D01*
X832997D01*
X833997Y39099D01*
Y40098D01*
X832997Y41098D01*
X829998D01*
X841994D02*
Y35100D01*
X844993D01*
X845993Y36100D01*
Y37099D01*
X844993Y38099D01*
X841994D01*
X844993D01*
X845993Y39099D01*
Y40098D01*
X844993Y41098D01*
X841994D01*
X850991D02*
X848992D01*
X847992Y40098D01*
Y36100D01*
X848992Y35100D01*
X850991D01*
X851991Y36100D01*
Y40098D01*
X850991Y41098D01*
X853990D02*
X857989D01*
X855990D01*
Y35100D01*
X859988Y41098D02*
X863987D01*
X861988D01*
Y35100D01*
X868985Y41098D02*
X866986D01*
X865986Y40098D01*
Y36100D01*
X866986Y35100D01*
X868985D01*
X869985Y36100D01*
Y40098D01*
X868985Y41098D01*
X871984Y35100D02*
Y41098D01*
X873984Y39099D01*
X875983Y41098D01*
Y35100D01*
X645100Y356398D02*
Y350400D01*
X648099D01*
X649099Y351400D01*
Y355398D01*
X648099Y356398D01*
X645100D01*
X651098D02*
Y350400D01*
X654097D01*
X655097Y351400D01*
Y352399D01*
X654097Y353399D01*
X651098D01*
X654097D01*
X655097Y354399D01*
Y355398D01*
X654097Y356398D01*
X651098D01*
X663094D02*
Y350400D01*
X667093D01*
X673091Y356398D02*
X669092D01*
Y350400D01*
X673091D01*
X669092Y353399D02*
X671092D01*
X679089Y356398D02*
X675090D01*
Y353399D01*
X677090D01*
X675090D01*
Y350400D01*
X681088Y356398D02*
X685087D01*
X683088D01*
Y350400D01*
X1017600Y356398D02*
Y350400D01*
X1020599D01*
X1021599Y351400D01*
Y355398D01*
X1020599Y356398D01*
X1017600D01*
X1023598D02*
Y350400D01*
X1026597D01*
X1027597Y351400D01*
Y352399D01*
X1026597Y353399D01*
X1023598D01*
X1026597D01*
X1027597Y354399D01*
Y355398D01*
X1026597Y356398D01*
X1023598D01*
X1035594Y350400D02*
Y356398D01*
X1038593D01*
X1039593Y355398D01*
Y353399D01*
X1038593Y352399D01*
X1035594D01*
X1037593D02*
X1039593Y350400D01*
X1041592Y356398D02*
X1043592D01*
X1042592D01*
Y350400D01*
X1041592D01*
X1043592D01*
X1050589Y355398D02*
X1049590Y356398D01*
X1047590D01*
X1046591Y355398D01*
Y351400D01*
X1047590Y350400D01*
X1049590D01*
X1050589Y351400D01*
Y353399D01*
X1048590D01*
X1052589Y356398D02*
Y350400D01*
Y353399D01*
X1056587D01*
Y356398D01*
Y350400D01*
X1058587Y356398D02*
X1062585D01*
X1060586D01*
Y350400D01*
X833000Y464898D02*
Y458900D01*
X835999D01*
X836999Y459900D01*
Y463898D01*
X835999Y464898D01*
X833000D01*
X838998D02*
Y458900D01*
X841997D01*
X842997Y459900D01*
Y460899D01*
X841997Y461899D01*
X838998D01*
X841997D01*
X842997Y462899D01*
Y463898D01*
X841997Y464898D01*
X838998D01*
X850994D02*
X854993D01*
X852993D01*
Y458900D01*
X859991Y464898D02*
X857992D01*
X856992Y463898D01*
Y459900D01*
X857992Y458900D01*
X859991D01*
X860991Y459900D01*
Y463898D01*
X859991Y464898D01*
X862990Y458900D02*
Y464898D01*
X865989D01*
X866989Y463898D01*
Y461899D01*
X865989Y460899D01*
X862990D01*
X411000Y231098D02*
Y225100D01*
X413999D01*
X414999Y226100D01*
Y230098D01*
X413999Y231098D01*
X411000D01*
X416998Y225100D02*
X418997D01*
X417998D01*
Y231098D01*
X416998Y230098D01*
X421996Y225100D02*
Y231098D01*
X425995Y225100D01*
Y231098D01*
X430994Y225100D02*
Y231098D01*
X427994Y228099D01*
X431993D01*
X433993Y230098D02*
X434992Y231098D01*
X436992D01*
X437991Y230098D01*
Y226100D01*
X436992Y225100D01*
X434992D01*
X433993Y226100D01*
Y230098D01*
X439991D02*
X440990Y231098D01*
X442990D01*
X443989Y230098D01*
Y226100D01*
X442990Y225100D01*
X440990D01*
X439991Y226100D01*
Y230098D01*
X445989Y225100D02*
X447988D01*
X446988D01*
Y231098D01*
X445989Y230098D01*
X411000Y114898D02*
Y108900D01*
X413999D01*
X414999Y109900D01*
Y113898D01*
X413999Y114898D01*
X411000D01*
X416998Y108900D02*
X418997D01*
X417998D01*
Y114898D01*
X416998Y113898D01*
X421996Y108900D02*
Y114898D01*
X425995Y108900D01*
Y114898D01*
X430994Y108900D02*
Y114898D01*
X427994Y111899D01*
X431993D01*
X433993Y113898D02*
X434992Y114898D01*
X436992D01*
X437991Y113898D01*
Y109900D01*
X436992Y108900D01*
X434992D01*
X433993Y109900D01*
Y113898D01*
X439991D02*
X440990Y114898D01*
X442990D01*
X443989Y113898D01*
Y109900D01*
X442990Y108900D01*
X440990D01*
X439991Y109900D01*
Y113898D01*
X445989Y108900D02*
X447988D01*
X446988D01*
Y114898D01*
X445989Y113898D01*
X133500Y13100D02*
X135499D01*
X134500D01*
Y19098D01*
X133500Y18098D01*
X138498D02*
X139498Y19098D01*
X141497D01*
X142497Y18098D01*
Y14100D01*
X141497Y13100D01*
X139498D01*
X138498Y14100D01*
Y18098D01*
X144496Y13100D02*
Y19098D01*
Y15099D02*
X147495Y17099D01*
X144496Y15099D02*
X147495Y13100D01*
X153493Y19098D02*
X151494D01*
X150495Y18098D01*
Y14100D01*
X151494Y13100D01*
X153493D01*
X154493Y14100D01*
Y18098D01*
X153493Y19098D01*
X156493D02*
Y13100D01*
Y16099D01*
X157492Y17099D01*
X159492D01*
X160491Y16099D01*
Y13100D01*
X162491D02*
Y17099D01*
X163490D01*
X164490Y16099D01*
Y13100D01*
Y16099D01*
X165490Y17099D01*
X166489Y16099D01*
Y13100D01*
X468499Y420298D02*
X464500D01*
Y417299D01*
X466499Y418299D01*
X467499D01*
X468499Y417299D01*
Y415300D01*
X467499Y414300D01*
X465500D01*
X464500Y415300D01*
X470498Y420298D02*
Y416299D01*
X472497Y414300D01*
X474497Y416299D01*
Y420298D01*
X389000Y419298D02*
X390000Y420298D01*
X391999D01*
X392999Y419298D01*
Y418299D01*
X391999Y417299D01*
X390999D01*
X391999D01*
X392999Y416299D01*
Y415300D01*
X391999Y414300D01*
X390000D01*
X389000Y415300D01*
X394998Y420298D02*
Y416299D01*
X396997Y414300D01*
X398997Y416299D01*
Y420298D01*
X400996Y419298D02*
X401996Y420298D01*
X403995D01*
X404995Y419298D01*
Y418299D01*
X403995Y417299D01*
X402995D01*
X403995D01*
X404995Y416299D01*
Y415300D01*
X403995Y414300D01*
X401996D01*
X400996Y415300D01*
X538000Y414300D02*
X539999D01*
X539000D01*
Y420298D01*
X538000Y419298D01*
X546997Y414300D02*
X542998D01*
X546997Y418299D01*
Y419298D01*
X545997Y420298D01*
X543998D01*
X542998Y419298D01*
X548996Y420298D02*
Y416299D01*
X550996Y414300D01*
X552995Y416299D01*
Y420298D01*
X954400Y290398D02*
Y286399D01*
X956399Y284400D01*
X958399Y286399D01*
Y290398D01*
X960398D02*
X964397D01*
X962397D01*
Y284400D01*
X966396D02*
X968396D01*
X967396D01*
Y290398D01*
X966396Y289398D01*
X971395Y284400D02*
X973394D01*
X972394D01*
Y290398D01*
X971395Y289398D01*
X1023200Y134598D02*
Y130599D01*
X1025199Y128600D01*
X1027199Y130599D01*
Y134598D01*
X1029198D02*
X1033197D01*
X1031197D01*
Y128600D01*
X1038195D02*
Y134598D01*
X1035196Y131599D01*
X1039195D01*
X718400Y253098D02*
Y249099D01*
X720399Y247100D01*
X722399Y249099D01*
Y253098D01*
X724398D02*
X728397D01*
X726397D01*
Y247100D01*
X730396D02*
X732396D01*
X731396D01*
Y253098D01*
X730396Y252098D01*
X739393Y253098D02*
X735394D01*
Y250099D01*
X737394Y251099D01*
X738393D01*
X739393Y250099D01*
Y248100D01*
X738393Y247100D01*
X736394D01*
X735394Y248100D01*
X647600Y414598D02*
Y410599D01*
X649599Y408600D01*
X651599Y410599D01*
Y414598D01*
X653598D02*
X657597D01*
X655597D01*
Y408600D01*
X659596Y413598D02*
X660596Y414598D01*
X662595D01*
X663595Y413598D01*
Y412599D01*
X662595Y411599D01*
X663595Y410599D01*
Y409600D01*
X662595Y408600D01*
X660596D01*
X659596Y409600D01*
Y410599D01*
X660596Y411599D01*
X659596Y412599D01*
Y413598D01*
X660596Y411599D02*
X662595D01*
X881900Y154598D02*
Y150599D01*
X883899Y148600D01*
X885899Y150599D01*
Y154598D01*
X887898D02*
X891897D01*
X889897D01*
Y148600D01*
X893896D02*
X895895D01*
X894896D01*
Y154598D01*
X893896Y153598D01*
X898895D02*
X899894Y154598D01*
X901894D01*
X902893Y153598D01*
Y152599D01*
X901894Y151599D01*
X900894D01*
X901894D01*
X902893Y150599D01*
Y149600D01*
X901894Y148600D01*
X899894D01*
X898895Y149600D01*
X975400Y86798D02*
Y82799D01*
X977399Y80800D01*
X979399Y82799D01*
Y86798D01*
X981398D02*
X985397D01*
X983397D01*
Y80800D01*
X991395Y86798D02*
X987396D01*
Y83799D01*
X989396Y84799D01*
X990395D01*
X991395Y83799D01*
Y81800D01*
X990395Y80800D01*
X988396D01*
X987396Y81800D01*
X830600Y394598D02*
Y390599D01*
X832599Y388600D01*
X834599Y390599D01*
Y394598D01*
X836598D02*
X840597D01*
X838597D01*
Y388600D01*
X842596Y389600D02*
X843596Y388600D01*
X845595D01*
X846595Y389600D01*
Y393598D01*
X845595Y394598D01*
X843596D01*
X842596Y393598D01*
Y392599D01*
X843596Y391599D01*
X846595D01*
X695400Y460598D02*
Y456599D01*
X697399Y454600D01*
X699399Y456599D01*
Y460598D01*
X701398D02*
X705397D01*
X703397D01*
Y454600D01*
X707396D02*
X709396D01*
X708396D01*
Y460598D01*
X707396Y459598D01*
X954400Y210398D02*
Y206399D01*
X956399Y204400D01*
X958399Y206399D01*
Y210398D01*
X960398D02*
X964397D01*
X962397D01*
Y204400D01*
X966396D02*
X968396D01*
X967396D01*
Y210398D01*
X966396Y209398D01*
X975393Y204400D02*
X971395D01*
X975393Y208399D01*
Y209398D01*
X974393Y210398D01*
X972394D01*
X971395Y209398D01*
X1023200Y414598D02*
Y410599D01*
X1025199Y408600D01*
X1027199Y410599D01*
Y414598D01*
X1029198D02*
X1033197D01*
X1031197D01*
Y408600D01*
X1035196Y413598D02*
X1036196Y414598D01*
X1038195D01*
X1039195Y413598D01*
Y412599D01*
X1038195Y411599D01*
X1037195D01*
X1038195D01*
X1039195Y410599D01*
Y409600D01*
X1038195Y408600D01*
X1036196D01*
X1035196Y409600D01*
X718400Y340598D02*
Y336599D01*
X720399Y334600D01*
X722399Y336599D01*
Y340598D01*
X724398D02*
X728397D01*
X726397D01*
Y334600D01*
X730396D02*
X732396D01*
X731396D01*
Y340598D01*
X730396Y339598D01*
X739393Y340598D02*
X737394Y339598D01*
X735394Y337599D01*
Y335600D01*
X736394Y334600D01*
X738393D01*
X739393Y335600D01*
Y336599D01*
X738393Y337599D01*
X735394D01*
X645600Y134598D02*
Y130599D01*
X647599Y128600D01*
X649599Y130599D01*
Y134598D01*
X651598D02*
X655597D01*
X653597D01*
Y128600D01*
X657596Y134598D02*
X661595D01*
Y133598D01*
X657596Y129600D01*
Y128600D01*
X801900Y154598D02*
Y150599D01*
X803899Y148600D01*
X805899Y150599D01*
Y154598D01*
X807898D02*
X811897D01*
X809897D01*
Y148600D01*
X813896D02*
X815895D01*
X814896D01*
Y154598D01*
X813896Y153598D01*
X821894Y148600D02*
Y154598D01*
X818894Y151599D01*
X822893D01*
X695400Y86798D02*
Y82799D01*
X697399Y80800D01*
X699399Y82799D01*
Y86798D01*
X701398D02*
X705397D01*
X703397D01*
Y80800D01*
X711395Y86798D02*
X709396Y85798D01*
X707396Y83799D01*
Y81800D01*
X708396Y80800D01*
X710395D01*
X711395Y81800D01*
Y82799D01*
X710395Y83799D01*
X707396D01*
X917600Y394598D02*
Y390599D01*
X919599Y388600D01*
X921599Y390599D01*
Y394598D01*
X923598D02*
X927597D01*
X925597D01*
Y388600D01*
X929596D02*
X931596D01*
X930596D01*
Y394598D01*
X929596Y393598D01*
X934595D02*
X935594Y394598D01*
X937593D01*
X938593Y393598D01*
Y389600D01*
X937593Y388600D01*
X935594D01*
X934595Y389600D01*
Y393598D01*
X975400Y460598D02*
Y456599D01*
X977399Y454600D01*
X979399Y456599D01*
Y460598D01*
X981398D02*
X985397D01*
X983397D01*
Y454600D01*
X991395D02*
X987396D01*
X991395Y458599D01*
Y459598D01*
X990395Y460598D01*
X988396D01*
X987396Y459598D01*
X176299Y16598D02*
X172300D01*
Y13599D01*
X174299D01*
X172300D01*
Y10600D01*
X178298D02*
Y16598D01*
X181297D01*
X182297Y15598D01*
Y13599D01*
X181297Y12599D01*
X178298D01*
X188295Y15598D02*
X187295Y16598D01*
X185296D01*
X184296Y15598D01*
Y11600D01*
X185296Y10600D01*
X187295D01*
X188295Y11600D01*
Y13599D01*
X186295D01*
X190294Y10600D02*
Y14599D01*
X192294Y16598D01*
X194293Y14599D01*
Y10600D01*
Y13599D01*
X190294D01*
X202290Y10600D02*
Y16598D01*
X205289D01*
X206289Y15598D01*
Y13599D01*
X205289Y12599D01*
X202290D01*
X204290D02*
X206289Y10600D01*
X212287Y16598D02*
X208288D01*
Y10600D01*
X212287D01*
X208288Y13599D02*
X210288D01*
X218285Y15598D02*
X217285Y16598D01*
X215286D01*
X214286Y15598D01*
Y14599D01*
X215286Y13599D01*
X217285D01*
X218285Y12599D01*
Y11600D01*
X217285Y10600D01*
X215286D01*
X214286Y11600D01*
X224283Y16598D02*
X220285D01*
Y10600D01*
X224283D01*
X220285Y13599D02*
X222284D01*
X226283Y16598D02*
X230281D01*
X228282D01*
Y10600D01*
X365600Y84398D02*
Y78400D01*
X369599D01*
X374597Y84398D02*
X372598D01*
X371598Y83398D01*
Y79400D01*
X372598Y78400D01*
X374597D01*
X375597Y79400D01*
Y83398D01*
X374597Y84398D01*
X381595Y83398D02*
X380595Y84398D01*
X378596D01*
X377596Y83398D01*
Y79400D01*
X378596Y78400D01*
X380595D01*
X381595Y79400D01*
Y81399D01*
X379595D01*
X383594Y84398D02*
X385594D01*
X384594D01*
Y78400D01*
X383594D01*
X385594D01*
X392591Y83398D02*
X391592Y84398D01*
X389592D01*
X388593Y83398D01*
Y79400D01*
X389592Y78400D01*
X391592D01*
X392591Y79400D01*
X400589Y84398D02*
Y78400D01*
X404587D01*
X409586Y84398D02*
X407586D01*
X406587Y83398D01*
Y79400D01*
X407586Y78400D01*
X409586D01*
X410585Y79400D01*
Y83398D01*
X409586Y84398D01*
X412585D02*
Y78400D01*
X414584Y80399D01*
X416583Y78400D01*
Y84398D01*
X365600Y384398D02*
Y378400D01*
X369599D01*
X374597Y384398D02*
X372598D01*
X371598Y383398D01*
Y379400D01*
X372598Y378400D01*
X374597D01*
X375597Y379400D01*
Y383398D01*
X374597Y384398D01*
X381595Y383398D02*
X380595Y384398D01*
X378596D01*
X377596Y383398D01*
Y379400D01*
X378596Y378400D01*
X380595D01*
X381595Y379400D01*
Y381399D01*
X379595D01*
X383594Y384398D02*
X385594D01*
X384594D01*
Y378400D01*
X383594D01*
X385594D01*
X392591Y383398D02*
X391592Y384398D01*
X389592D01*
X388593Y383398D01*
Y379400D01*
X389592Y378400D01*
X391592D01*
X392591Y379400D01*
X400589Y384398D02*
Y378400D01*
Y381399D01*
X404587D01*
Y384398D01*
Y378400D01*
X406587Y384398D02*
X408586D01*
X407586D01*
Y378400D01*
X406587D01*
X408586D01*
X415584Y383398D02*
X414584Y384398D01*
X412585D01*
X411585Y383398D01*
Y379400D01*
X412585Y378400D01*
X414584D01*
X415584Y379400D01*
Y381399D01*
X413585D01*
X417583Y384398D02*
Y378400D01*
Y381399D01*
X421582D01*
Y384398D01*
Y378400D01*
X479599Y383398D02*
X478599Y384398D01*
X476600D01*
X475600Y383398D01*
Y379400D01*
X476600Y378400D01*
X478599D01*
X479599Y379400D01*
Y381399D01*
X477599D01*
X481598Y378400D02*
Y384398D01*
X485597Y378400D01*
Y384398D01*
X487596D02*
Y378400D01*
X490595D01*
X491595Y379400D01*
Y383398D01*
X490595Y384398D01*
X487596D01*
X479599Y83398D02*
X478599Y84398D01*
X476600D01*
X475600Y83398D01*
Y79400D01*
X476600Y78400D01*
X478599D01*
X479599Y79400D01*
Y81399D01*
X477599D01*
X481598Y78400D02*
Y84398D01*
X485597Y78400D01*
Y84398D01*
X487596D02*
Y78400D01*
X490595D01*
X491595Y79400D01*
Y83398D01*
X490595Y84398D01*
X487596D01*
X416700Y346198D02*
Y340200D01*
X420699D01*
X422698D02*
Y346198D01*
X424697Y344199D01*
X426697Y346198D01*
Y340200D01*
X428696Y345198D02*
X429696Y346198D01*
X431695D01*
X432695Y345198D01*
Y344199D01*
X431695Y343199D01*
X430695D01*
X431695D01*
X432695Y342199D01*
Y341200D01*
X431695Y340200D01*
X429696D01*
X428696Y341200D01*
X434694Y340200D02*
X436693D01*
X435694D01*
Y346198D01*
X434694Y345198D01*
X439693Y346198D02*
X443691D01*
Y345198D01*
X439693Y341200D01*
Y340200D01*
X26902Y89300D02*
X32900D01*
Y92299D01*
X31900Y93299D01*
X30901D01*
X29901Y92299D01*
Y89300D01*
Y92299D01*
X28901Y93299D01*
X27902D01*
X26902Y92299D01*
Y89300D01*
Y95298D02*
X32900D01*
Y98297D01*
X31900Y99297D01*
X30901D01*
X29901Y98297D01*
Y95298D01*
Y98297D01*
X28901Y99297D01*
X27902D01*
X26902Y98297D01*
Y95298D01*
Y101296D02*
X32900D01*
Y104295D01*
X31900Y105295D01*
X30901D01*
X29901Y104295D01*
Y101296D01*
Y104295D01*
X28901Y105295D01*
X27902D01*
X26902Y104295D01*
Y101296D01*
X33900Y107294D02*
Y111293D01*
X32900Y113292D02*
X26902D01*
Y116291D01*
X27902Y117291D01*
X29901D01*
X30901Y116291D01*
Y113292D01*
X26902Y119290D02*
Y121290D01*
Y120290D01*
X32900D01*
Y119290D01*
Y121290D01*
Y124289D02*
X26902D01*
X32900Y128287D01*
X26902D01*
Y133286D02*
Y131286D01*
X27902Y130287D01*
X31900D01*
X32900Y131286D01*
Y133286D01*
X31900Y134285D01*
X27902D01*
X26902Y133286D01*
Y136285D02*
X31900D01*
X32900Y137285D01*
Y139284D01*
X31900Y140284D01*
X26902D01*
Y142283D02*
Y146282D01*
Y144282D01*
X32900D01*
Y148281D02*
Y150280D01*
Y149281D01*
X26902D01*
X27902Y148281D01*
X70702Y343900D02*
X76700D01*
Y346899D01*
X75700Y347899D01*
X74701D01*
X73701Y346899D01*
Y343900D01*
Y346899D01*
X72701Y347899D01*
X71702D01*
X70702Y346899D01*
Y343900D01*
Y349898D02*
X76700D01*
Y352897D01*
X75700Y353897D01*
X74701D01*
X73701Y352897D01*
Y349898D01*
Y352897D01*
X72701Y353897D01*
X71702D01*
X70702Y352897D01*
Y349898D01*
Y355896D02*
X76700D01*
Y358895D01*
X75700Y359895D01*
X74701D01*
X73701Y358895D01*
Y355896D01*
Y358895D01*
X72701Y359895D01*
X71702D01*
X70702Y358895D01*
Y355896D01*
X77700Y361894D02*
Y365893D01*
X76700Y367892D02*
X70702D01*
Y370891D01*
X71702Y371891D01*
X73701D01*
X74701Y370891D01*
Y367892D01*
X70702Y373890D02*
Y375890D01*
Y374890D01*
X76700D01*
Y373890D01*
Y375890D01*
Y378889D02*
X70702D01*
X76700Y382887D01*
X70702D01*
Y387886D02*
Y385886D01*
X71702Y384887D01*
X75700D01*
X76700Y385886D01*
Y387886D01*
X75700Y388885D01*
X71702D01*
X70702Y387886D01*
Y390885D02*
X75700D01*
X76700Y391884D01*
Y393884D01*
X75700Y394883D01*
X70702D01*
Y396883D02*
Y400882D01*
Y398882D01*
X76700D01*
Y406880D02*
Y402881D01*
X72701Y406880D01*
X71702D01*
X70702Y405880D01*
Y403881D01*
X71702Y402881D01*
X26902Y343900D02*
X32900D01*
Y346899D01*
X31900Y347899D01*
X30901D01*
X29901Y346899D01*
Y343900D01*
Y346899D01*
X28901Y347899D01*
X27902D01*
X26902Y346899D01*
Y343900D01*
Y349898D02*
X32900D01*
Y352897D01*
X31900Y353897D01*
X30901D01*
X29901Y352897D01*
Y349898D01*
Y352897D01*
X28901Y353897D01*
X27902D01*
X26902Y352897D01*
Y349898D01*
Y355896D02*
X32900D01*
Y358895D01*
X31900Y359895D01*
X30901D01*
X29901Y358895D01*
Y355896D01*
Y358895D01*
X28901Y359895D01*
X27902D01*
X26902Y358895D01*
Y355896D01*
X33900Y361894D02*
Y365893D01*
X32900Y367892D02*
X26902D01*
Y370891D01*
X27902Y371891D01*
X29901D01*
X30901Y370891D01*
Y367892D01*
X26902Y373890D02*
Y375890D01*
Y374890D01*
X32900D01*
Y373890D01*
Y375890D01*
Y378889D02*
X26902D01*
X32900Y382887D01*
X26902D01*
Y387886D02*
Y385886D01*
X27902Y384887D01*
X31900D01*
X32900Y385886D01*
Y387886D01*
X31900Y388885D01*
X27902D01*
X26902Y387886D01*
Y390885D02*
X31900D01*
X32900Y391884D01*
Y393884D01*
X31900Y394883D01*
X26902D01*
Y396883D02*
Y400882D01*
Y398882D01*
X32900D01*
X27902Y402881D02*
X26902Y403881D01*
Y405880D01*
X27902Y406880D01*
X28901D01*
X29901Y405880D01*
Y404880D01*
Y405880D01*
X30901Y406880D01*
X31900D01*
X32900Y405880D01*
Y403881D01*
X31900Y402881D01*
X70702Y88800D02*
X76700D01*
Y91799D01*
X75700Y92799D01*
X74701D01*
X73701Y91799D01*
Y88800D01*
Y91799D01*
X72701Y92799D01*
X71702D01*
X70702Y91799D01*
Y88800D01*
Y94798D02*
X76700D01*
Y97797D01*
X75700Y98797D01*
X74701D01*
X73701Y97797D01*
Y94798D01*
Y97797D01*
X72701Y98797D01*
X71702D01*
X70702Y97797D01*
Y94798D01*
Y100796D02*
X76700D01*
Y103795D01*
X75700Y104795D01*
X74701D01*
X73701Y103795D01*
Y100796D01*
Y103795D01*
X72701Y104795D01*
X71702D01*
X70702Y103795D01*
Y100796D01*
X77700Y106794D02*
Y110793D01*
X76700Y112792D02*
X70702D01*
Y115791D01*
X71702Y116791D01*
X73701D01*
X74701Y115791D01*
Y112792D01*
X70702Y118790D02*
Y120790D01*
Y119790D01*
X76700D01*
Y118790D01*
Y120790D01*
Y123789D02*
X70702D01*
X76700Y127787D01*
X70702D01*
Y132786D02*
Y130786D01*
X71702Y129787D01*
X75700D01*
X76700Y130786D01*
Y132786D01*
X75700Y133785D01*
X71702D01*
X70702Y132786D01*
Y135785D02*
X75700D01*
X76700Y136785D01*
Y138784D01*
X75700Y139784D01*
X70702D01*
Y141783D02*
Y145782D01*
Y143782D01*
X76700D01*
Y150780D02*
X70702D01*
X73701Y147781D01*
Y151780D01*
X541600Y184398D02*
X542600Y185398D01*
X544599D01*
X545599Y184398D01*
Y183399D01*
X544599Y182399D01*
X543599D01*
X544599D01*
X545599Y181399D01*
Y180400D01*
X544599Y179400D01*
X542600D01*
X541600Y180400D01*
X547598Y179400D02*
Y185398D01*
X549597Y183399D01*
X551597Y185398D01*
Y179400D01*
X556595Y185398D02*
X554596D01*
X553596Y184398D01*
Y180400D01*
X554596Y179400D01*
X556595D01*
X557595Y180400D01*
Y184398D01*
X556595Y185398D01*
X559594D02*
Y179400D01*
Y182399D01*
X560594Y183399D01*
X562593D01*
X563593Y182399D01*
Y179400D01*
X565592D02*
Y183399D01*
X566592D01*
X567592Y182399D01*
Y179400D01*
Y182399D01*
X568591Y183399D01*
X569591Y182399D01*
Y179400D01*
X541600Y153400D02*
X543599D01*
X542600D01*
Y159398D01*
X541600Y158398D01*
X546598Y153400D02*
Y159398D01*
X548598Y157399D01*
X550597Y159398D01*
Y153400D01*
X555595Y159398D02*
X553596D01*
X552596Y158398D01*
Y154400D01*
X553596Y153400D01*
X555595D01*
X556595Y154400D01*
Y158398D01*
X555595Y159398D01*
X558595D02*
Y153400D01*
Y156399D01*
X559594Y157399D01*
X561593D01*
X562593Y156399D01*
Y153400D01*
X564593D02*
Y157399D01*
X565592D01*
X566592Y156399D01*
Y153400D01*
Y156399D01*
X567592Y157399D01*
X568591Y156399D01*
Y153400D01*
X111000Y381998D02*
X114999D01*
X112999D01*
Y376000D01*
X116998Y381998D02*
Y376000D01*
Y378999D01*
X120997D01*
Y381998D01*
Y376000D01*
X122996Y381998D02*
X124996D01*
X123996D01*
Y376000D01*
X122996D01*
X124996D01*
X131993Y380998D02*
X130993Y381998D01*
X128994D01*
X127995Y380998D01*
Y379999D01*
X128994Y378999D01*
X130993D01*
X131993Y377999D01*
Y377000D01*
X130993Y376000D01*
X128994D01*
X127995Y377000D01*
X143989Y380998D02*
X142990Y381998D01*
X140990D01*
X139991Y380998D01*
Y379999D01*
X140990Y378999D01*
X142990D01*
X143989Y377999D01*
Y377000D01*
X142990Y376000D01*
X140990D01*
X139991Y377000D01*
X145989Y381998D02*
X147988D01*
X146988D01*
Y376000D01*
X145989D01*
X147988D01*
X150987Y381998D02*
Y376000D01*
X153986D01*
X154986Y377000D01*
Y380998D01*
X153986Y381998D01*
X150987D01*
X160984D02*
X156985D01*
Y376000D01*
X160984D01*
X156985Y378999D02*
X158984D01*
X172980Y381998D02*
X168981D01*
Y378999D01*
X170981D01*
X168981D01*
Y376000D01*
X174979D02*
Y379999D01*
X176979Y381998D01*
X178978Y379999D01*
Y376000D01*
Y378999D01*
X174979D01*
X184976Y380998D02*
X183976Y381998D01*
X181977D01*
X180977Y380998D01*
Y377000D01*
X181977Y376000D01*
X183976D01*
X184976Y377000D01*
X186975Y381998D02*
X188975D01*
X187975D01*
Y376000D01*
X186975D01*
X188975D01*
X191974D02*
Y381998D01*
X195973Y376000D01*
Y381998D01*
X201971Y380998D02*
X200971Y381998D01*
X198971D01*
X197972Y380998D01*
Y377000D01*
X198971Y376000D01*
X200971D01*
X201971Y377000D01*
Y378999D01*
X199971D01*
X209968Y381998D02*
Y376000D01*
X212967D01*
X213967Y377000D01*
Y377999D01*
X212967Y378999D01*
X209968D01*
X212967D01*
X213967Y379999D01*
Y380998D01*
X212967Y381998D01*
X209968D01*
X215966D02*
Y376000D01*
X218965D01*
X219965Y377000D01*
Y377999D01*
X218965Y378999D01*
X215966D01*
X218965D01*
X219965Y379999D01*
Y380998D01*
X218965Y381998D01*
X215966D01*
X221964D02*
Y376000D01*
X224963D01*
X225963Y377000D01*
Y377999D01*
X224963Y378999D01*
X221964D01*
X224963D01*
X225963Y379999D01*
Y380998D01*
X224963Y381998D01*
X221964D01*
X237959D02*
X233960D01*
Y376000D01*
X237959D01*
X233960Y378999D02*
X235960D01*
X239958Y381998D02*
X243957D01*
X241958D01*
Y376000D01*
X245956Y381998D02*
Y376000D01*
Y378999D01*
X249955D01*
Y381998D01*
Y376000D01*
X255953Y381998D02*
X251954D01*
Y376000D01*
X255953D01*
X251954Y378999D02*
X253954D01*
X257952Y376000D02*
Y381998D01*
X260951D01*
X261951Y380998D01*
Y378999D01*
X260951Y377999D01*
X257952D01*
X259952D02*
X261951Y376000D01*
X263950D02*
Y381998D01*
X267949Y376000D01*
Y381998D01*
X273947D02*
X269949D01*
Y376000D01*
X273947D01*
X269949Y378999D02*
X271948D01*
X275947Y381998D02*
X279945D01*
X277946D01*
Y376000D01*
X287943D02*
Y381998D01*
X290942D01*
X291941Y380998D01*
Y378999D01*
X290942Y377999D01*
X287943D01*
X296940Y381998D02*
X294940D01*
X293941Y380998D01*
Y377000D01*
X294940Y376000D01*
X296940D01*
X297939Y377000D01*
Y380998D01*
X296940Y381998D01*
X299939Y376000D02*
Y381998D01*
X302938D01*
X303938Y380998D01*
Y378999D01*
X302938Y377999D01*
X299939D01*
X301938D02*
X303938Y376000D01*
X305937Y381998D02*
X309936D01*
X307936D01*
Y376000D01*
X0Y0D02*
Y500000D01*
X1100000D01*
Y0D02*
Y500000D01*
X0Y0D02*
X1100000D01*
D35*
X417303Y158583D02*
G03*
X417303Y158583I-492J0D01*
G01*
X527579Y149429D02*
G03*
X527579Y149429I-492J0D01*
G01*
X524921Y162913D02*
G03*
X524921Y162913I-492J0D01*
G01*
Y282913D02*
G03*
X524921Y282913I-492J0D01*
G01*
X527579Y324429D02*
G03*
X527579Y324429I-492J0D01*
G01*
X359173Y180532D02*
G03*
X359173Y180532I-492J0D01*
G01*
X381811Y309469D02*
G03*
X381811Y309469I-492J0D01*
G01*
X219236Y25004D02*
G03*
X219236Y25004I-492J0D01*
G01*
X443681Y331417D02*
G03*
X443681Y331417I-492J0D01*
G01*
X979173Y450620D02*
G03*
X979173Y450620I-492J0D01*
G01*
X918122Y358681D02*
G03*
X918122Y358681I-492J0D01*
G01*
X721811Y49380D02*
G03*
X721811Y49380I-492J0D01*
G01*
X829862Y141319D02*
G03*
X829862Y141319I-492J0D01*
G01*
X646122Y98681D02*
G03*
X646122Y98681I-492J0D01*
G01*
X744811Y303130D02*
G03*
X744811Y303130I-492J0D01*
G01*
X1051112Y401319D02*
G03*
X1051112Y401319I-492J0D01*
G01*
X958173Y200370D02*
G03*
X958173Y200370I-492J0D01*
G01*
X699173Y450620D02*
G03*
X699173Y450620I-492J0D01*
G01*
X831122Y358681D02*
G03*
X831122Y358681I-492J0D01*
G01*
X1001811Y49380D02*
G03*
X1001811Y49380I-492J0D01*
G01*
X909862Y141319D02*
G03*
X909862Y141319I-492J0D01*
G01*
X648122Y378681D02*
G03*
X648122Y378681I-492J0D01*
G01*
X744811Y215630D02*
G03*
X744811Y215630I-492J0D01*
G01*
X1051112Y121319D02*
G03*
X1051112Y121319I-492J0D01*
G01*
X958173Y280370D02*
G03*
X958173Y280370I-492J0D01*
G01*
D36*
X368425Y176102D02*
G03*
X368425Y176102I-1181J0D01*
G01*
X373937Y313898D02*
G03*
X373937Y313898I-1181J0D01*
G01*
X988524Y445305D02*
G03*
X988524Y445305I-1181J0D01*
G01*
X924126Y367342D02*
G03*
X924126Y367342I-1181J0D01*
G01*
X713839Y54695D02*
G03*
X713839Y54695I-1181J0D01*
G01*
X825236Y132658D02*
G03*
X825236Y132658I-1181J0D01*
G01*
X652126Y107343D02*
G03*
X652126Y107343I-1181J0D01*
G01*
X736839Y308445D02*
G03*
X736839Y308445I-1181J0D01*
G01*
X1046486Y392657D02*
G03*
X1046486Y392657I-1181J0D01*
G01*
X967524Y195055D02*
G03*
X967524Y195055I-1181J0D01*
G01*
X708524Y445305D02*
G03*
X708524Y445305I-1181J0D01*
G01*
X837126Y367342D02*
G03*
X837126Y367342I-1181J0D01*
G01*
X993839Y54695D02*
G03*
X993839Y54695I-1181J0D01*
G01*
X905236Y132658D02*
G03*
X905236Y132658I-1181J0D01*
G01*
X654126Y387343D02*
G03*
X654126Y387343I-1181J0D01*
G01*
X736839Y220945D02*
G03*
X736839Y220945I-1181J0D01*
G01*
X1046486Y112657D02*
G03*
X1046486Y112657I-1181J0D01*
G01*
X967524Y275055D02*
G03*
X967524Y275055I-1181J0D01*
G01*
D37*
X416811Y164488D02*
X443189D01*
X416811Y175512D02*
X443189D01*
X416811Y164488D02*
Y175512D01*
X443189Y164488D02*
Y175512D01*
X513898Y144803D02*
Y145197D01*
X526102Y144803D02*
Y145197D01*
X519803Y176102D02*
X520197D01*
X519803Y163898D02*
X520197D01*
X474488Y309567D02*
Y330433D01*
X485512Y309567D02*
Y330433D01*
X474488D02*
X485512D01*
X519803Y296102D02*
X520197D01*
X519803Y283898D02*
X520197D01*
X513898Y319803D02*
Y320197D01*
X526102Y319803D02*
Y320197D01*
X474488Y159567D02*
Y180433D01*
X485512Y159567D02*
Y180433D01*
X474488D02*
X485512D01*
X363307Y159961D02*
Y180039D01*
X376693Y159961D02*
Y180039D01*
X363307D02*
X376693D01*
X363307Y159961D02*
X376693D01*
X363307Y330039D02*
X376693D01*
X363307Y309961D02*
X376693D01*
X363307D02*
Y330039D01*
X376693Y309961D02*
Y330039D01*
X419067Y234488D02*
X439933D01*
X419067Y245512D02*
X439933D01*
X419067Y234488D02*
Y245512D01*
Y94488D02*
X439933D01*
X419067Y105512D02*
X439933D01*
X419067Y94488D02*
Y105512D01*
X216850Y20000D02*
Y30000D01*
X183150D02*
X216850D01*
X183150Y20000D02*
Y30000D01*
Y20000D02*
X216850D01*
X37300Y27300D02*
Y219800D01*
Y19800D02*
Y27300D01*
Y19800D02*
X47300D01*
Y219800D01*
X37300D02*
X47300D01*
X67300Y20300D02*
Y212800D01*
Y220300D01*
X57300D02*
X67300D01*
X57300Y20300D02*
Y220300D01*
Y20300D02*
X67300D01*
X57300Y282900D02*
Y475400D01*
Y275400D02*
Y282900D01*
Y275400D02*
X67300D01*
Y475400D01*
X57300D02*
X67300D01*
X37300Y282900D02*
Y475400D01*
Y275400D02*
Y282900D01*
Y275400D02*
X47300D01*
Y475400D01*
X37300D02*
X47300D01*
X465000Y365000D02*
Y375000D01*
X365000Y365000D02*
X465000D01*
X365000D02*
Y375000D01*
X372500D01*
X465000D01*
Y65000D02*
Y75000D01*
X365000Y65000D02*
X465000D01*
X365000D02*
Y75000D01*
X372500D01*
X465000D01*
X575000Y365000D02*
Y375000D01*
X475000Y365000D02*
X575000D01*
X475000D02*
Y375000D01*
X482500D01*
X575000D01*
Y65000D02*
Y75000D01*
X475000Y65000D02*
X575000D01*
X475000D02*
Y75000D01*
X482500D01*
X575000D01*
X416811Y325512D02*
X443189D01*
X416811Y314488D02*
X443189D01*
Y325512D01*
X416811Y314488D02*
Y325512D01*
X983406Y423258D02*
Y449242D01*
X996594Y423258D02*
Y449242D01*
X983406D02*
X996594D01*
X983406Y423258D02*
X996594D01*
X944992Y363406D02*
Y376594D01*
X919008Y363406D02*
Y376594D01*
X944992D01*
X919008Y363406D02*
X944992D01*
X716594Y50758D02*
Y76742D01*
X703406Y50758D02*
Y76742D01*
Y50758D02*
X716594D01*
X703406Y76742D02*
X716594D01*
X802008Y123406D02*
Y136594D01*
X827992Y123406D02*
Y136594D01*
X802008Y123406D02*
X827992D01*
X802008Y136594D02*
X827992D01*
X647008Y103406D02*
X672992D01*
X647008Y116594D02*
X672992D01*
X647008Y103406D02*
Y116594D01*
X672992Y103406D02*
Y116594D01*
X726406Y330492D02*
X739594D01*
X726406Y304508D02*
X739594D01*
X726406D02*
Y330492D01*
X739594Y304508D02*
Y330492D01*
X1023258Y396594D02*
X1049242D01*
X1023258Y383406D02*
X1049242D01*
Y396594D01*
X1023258Y383406D02*
Y396594D01*
X962406Y173008D02*
X975594D01*
X962406Y198992D02*
X975594D01*
Y173008D02*
Y198992D01*
X962406Y173008D02*
Y198992D01*
X703406Y423258D02*
Y449242D01*
X716594Y423258D02*
Y449242D01*
X703406D02*
X716594D01*
X703406Y423258D02*
X716594D01*
X857992Y363406D02*
Y376594D01*
X832008Y363406D02*
Y376594D01*
X857992D01*
X832008Y363406D02*
X857992D01*
X996594Y50758D02*
Y76742D01*
X983406Y50758D02*
Y76742D01*
Y50758D02*
X996594D01*
X983406Y76742D02*
X996594D01*
X882008Y123406D02*
Y136594D01*
X907992Y123406D02*
Y136594D01*
X882008Y123406D02*
X907992D01*
X882008Y136594D02*
X907992D01*
X649008Y383406D02*
X674992D01*
X649008Y396594D02*
X674992D01*
X649008Y383406D02*
Y396594D01*
X674992Y383406D02*
Y396594D01*
X726406Y242992D02*
X739594D01*
X726406Y217008D02*
X739594D01*
X726406D02*
Y242992D01*
X739594Y217008D02*
Y242992D01*
X1023258Y116594D02*
X1049242D01*
X1023258Y103406D02*
X1049242D01*
Y116594D01*
X1023258Y103406D02*
Y116594D01*
X962406Y253008D02*
X975594D01*
X962406Y278992D02*
X975594D01*
Y253008D02*
Y278992D01*
X962406Y253008D02*
Y278992D01*
D38*
X479988Y310772D02*
D03*
X479996Y160785D02*
D03*
D39*
X438763Y239989D02*
D03*
X438722Y99995D02*
D03*
M02*
