G04 Layer_Color=8421504*
%FSLAX25Y25*%
%MOIN*%
G70*
G01*
G75*
%ADD10R,0.03937X0.09449*%
%ADD11R,0.12598X0.09449*%
%ADD12R,0.05000X0.05000*%
%ADD13O,0.02362X0.06102*%
%ADD14R,0.05000X0.05000*%
%ADD15O,0.06102X0.02362*%
%ADD16O,0.06102X0.01378*%
%ADD17R,0.03937X0.07874*%
%ADD18R,0.07874X0.03937*%
%ADD19R,0.11024X0.09449*%
%ADD20O,0.06299X0.01378*%
%ADD21O,0.01378X0.06299*%
%ADD23C,0.01000*%
D10*
X420945Y158583D02*
D03*
X430000D02*
D03*
X439055D02*
D03*
Y331417D02*
D03*
X430000D02*
D03*
X420945D02*
D03*
D11*
X430000Y181417D02*
D03*
Y308583D02*
D03*
D12*
X321700Y323400D02*
D03*
Y316400D02*
D03*
X400100Y176600D02*
D03*
Y183600D02*
D03*
X580000Y173500D02*
D03*
Y166500D02*
D03*
Y147500D02*
D03*
Y140500D02*
D03*
X340000Y166500D02*
D03*
Y173500D02*
D03*
X479500Y266500D02*
D03*
Y273500D02*
D03*
X570000Y312400D02*
D03*
Y305400D02*
D03*
Y331000D02*
D03*
Y324000D02*
D03*
X543500D02*
D03*
Y331000D02*
D03*
Y305400D02*
D03*
Y312400D02*
D03*
X400000Y333500D02*
D03*
Y326500D02*
D03*
X340000Y323500D02*
D03*
Y316500D02*
D03*
X400000Y156500D02*
D03*
Y163500D02*
D03*
X880000Y273500D02*
D03*
Y266500D02*
D03*
X920000Y226500D02*
D03*
Y233500D02*
D03*
X860000Y273500D02*
D03*
Y266500D02*
D03*
X900000Y226500D02*
D03*
Y233500D02*
D03*
X880000Y226500D02*
D03*
Y233500D02*
D03*
X860000Y226500D02*
D03*
Y233500D02*
D03*
X900000Y273500D02*
D03*
Y266500D02*
D03*
X820000Y273500D02*
D03*
Y266500D02*
D03*
X840000Y226500D02*
D03*
Y233500D02*
D03*
X820000Y226500D02*
D03*
Y233500D02*
D03*
X840000Y273500D02*
D03*
Y266500D02*
D03*
X800000Y226500D02*
D03*
Y233500D02*
D03*
X780000Y226500D02*
D03*
Y233500D02*
D03*
Y273500D02*
D03*
Y266500D02*
D03*
X920000D02*
D03*
Y273500D02*
D03*
X800000D02*
D03*
Y266500D02*
D03*
X543500Y166500D02*
D03*
Y173500D02*
D03*
Y140500D02*
D03*
Y147500D02*
D03*
D13*
X516260Y140571D02*
D03*
X523740D02*
D03*
X516260Y149429D02*
D03*
X520000D02*
D03*
X523740D02*
D03*
X516260Y315571D02*
D03*
X523740D02*
D03*
X516260Y324429D02*
D03*
X520000D02*
D03*
X523740D02*
D03*
D14*
X517600Y190600D02*
D03*
X524600D02*
D03*
X516500Y120000D02*
D03*
X523500D02*
D03*
X509800Y100000D02*
D03*
X516800D02*
D03*
X367300Y120000D02*
D03*
X374300D02*
D03*
X367300Y130000D02*
D03*
X374300D02*
D03*
X432900Y262200D02*
D03*
X425900D02*
D03*
X365500Y270000D02*
D03*
X372500D02*
D03*
X365500Y280000D02*
D03*
X372500D02*
D03*
X509300Y340600D02*
D03*
X516300D02*
D03*
X153500Y25000D02*
D03*
X146500D02*
D03*
D15*
X515571Y173740D02*
D03*
Y166260D02*
D03*
X524429Y173740D02*
D03*
Y170000D02*
D03*
Y166260D02*
D03*
X515571Y293740D02*
D03*
Y286260D02*
D03*
X524429Y293740D02*
D03*
Y290000D02*
D03*
Y286260D02*
D03*
D16*
X358681Y177677D02*
D03*
Y175118D02*
D03*
Y172559D02*
D03*
Y170000D02*
D03*
Y167441D02*
D03*
Y164882D02*
D03*
Y162323D02*
D03*
X381319Y177677D02*
D03*
Y175118D02*
D03*
Y172559D02*
D03*
Y170000D02*
D03*
Y167441D02*
D03*
Y164882D02*
D03*
Y162323D02*
D03*
X358681Y327677D02*
D03*
Y325118D02*
D03*
Y322559D02*
D03*
Y320000D02*
D03*
Y317441D02*
D03*
Y314882D02*
D03*
Y312323D02*
D03*
X381319Y327677D02*
D03*
Y325118D02*
D03*
Y322559D02*
D03*
Y320000D02*
D03*
Y317441D02*
D03*
Y314882D02*
D03*
Y312323D02*
D03*
D17*
X795000Y79104D02*
D03*
X775000D02*
D03*
X765000D02*
D03*
X755000D02*
D03*
X785000D02*
D03*
X835000D02*
D03*
X805000D02*
D03*
X815000D02*
D03*
X825000D02*
D03*
X845000D02*
D03*
X885000D02*
D03*
X855000D02*
D03*
X865000D02*
D03*
X875000D02*
D03*
X895000D02*
D03*
X935000D02*
D03*
X905000D02*
D03*
X915000D02*
D03*
X925000D02*
D03*
X945000D02*
D03*
Y48396D02*
D03*
X925000D02*
D03*
X915000D02*
D03*
X905000D02*
D03*
X935000D02*
D03*
X895000D02*
D03*
X875000D02*
D03*
X865000D02*
D03*
X855000D02*
D03*
X885000D02*
D03*
X845000D02*
D03*
X825000D02*
D03*
X815000D02*
D03*
X805000D02*
D03*
X835000D02*
D03*
X785000D02*
D03*
X755000D02*
D03*
X765000D02*
D03*
X775000D02*
D03*
X795000D02*
D03*
X905000Y420896D02*
D03*
X925000D02*
D03*
X935000D02*
D03*
X945000D02*
D03*
X915000D02*
D03*
X865000D02*
D03*
X895000D02*
D03*
X885000D02*
D03*
X875000D02*
D03*
X855000D02*
D03*
X815000D02*
D03*
X845000D02*
D03*
X835000D02*
D03*
X825000D02*
D03*
X805000D02*
D03*
X765000D02*
D03*
X795000D02*
D03*
X785000D02*
D03*
X775000D02*
D03*
X755000D02*
D03*
Y451604D02*
D03*
X775000D02*
D03*
X785000D02*
D03*
X795000D02*
D03*
X765000D02*
D03*
X805000D02*
D03*
X825000D02*
D03*
X835000D02*
D03*
X845000D02*
D03*
X815000D02*
D03*
X855000D02*
D03*
X875000D02*
D03*
X885000D02*
D03*
X895000D02*
D03*
X865000D02*
D03*
X915000D02*
D03*
X945000D02*
D03*
X935000D02*
D03*
X925000D02*
D03*
X905000D02*
D03*
D18*
X679104Y305000D02*
D03*
Y325000D02*
D03*
Y335000D02*
D03*
Y345000D02*
D03*
Y315000D02*
D03*
Y265000D02*
D03*
Y295000D02*
D03*
Y285000D02*
D03*
Y275000D02*
D03*
Y255000D02*
D03*
Y215000D02*
D03*
Y245000D02*
D03*
Y235000D02*
D03*
Y225000D02*
D03*
Y205000D02*
D03*
Y165000D02*
D03*
Y195000D02*
D03*
Y185000D02*
D03*
Y175000D02*
D03*
Y155000D02*
D03*
X648396D02*
D03*
Y175000D02*
D03*
Y185000D02*
D03*
Y195000D02*
D03*
Y165000D02*
D03*
Y205000D02*
D03*
Y225000D02*
D03*
Y235000D02*
D03*
Y245000D02*
D03*
Y215000D02*
D03*
Y255000D02*
D03*
Y275000D02*
D03*
Y285000D02*
D03*
Y295000D02*
D03*
Y265000D02*
D03*
Y315000D02*
D03*
Y345000D02*
D03*
Y335000D02*
D03*
Y325000D02*
D03*
Y305000D02*
D03*
X1020896Y195000D02*
D03*
Y175000D02*
D03*
Y165000D02*
D03*
Y155000D02*
D03*
Y185000D02*
D03*
Y235000D02*
D03*
Y205000D02*
D03*
Y215000D02*
D03*
Y225000D02*
D03*
Y245000D02*
D03*
Y285000D02*
D03*
Y255000D02*
D03*
Y265000D02*
D03*
Y275000D02*
D03*
Y295000D02*
D03*
Y335000D02*
D03*
Y305000D02*
D03*
Y315000D02*
D03*
Y325000D02*
D03*
Y345000D02*
D03*
X1051604D02*
D03*
Y325000D02*
D03*
Y315000D02*
D03*
Y305000D02*
D03*
Y335000D02*
D03*
Y295000D02*
D03*
Y275000D02*
D03*
Y265000D02*
D03*
Y255000D02*
D03*
Y285000D02*
D03*
Y245000D02*
D03*
Y225000D02*
D03*
Y215000D02*
D03*
Y205000D02*
D03*
Y235000D02*
D03*
Y185000D02*
D03*
Y155000D02*
D03*
Y165000D02*
D03*
Y175000D02*
D03*
Y195000D02*
D03*
D19*
X493700Y438300D02*
D03*
Y462800D02*
D03*
X445200Y438300D02*
D03*
Y462800D02*
D03*
X421200Y438300D02*
D03*
Y462800D02*
D03*
X372700Y438300D02*
D03*
Y462800D02*
D03*
X569700Y438300D02*
D03*
Y462800D02*
D03*
X521200Y438300D02*
D03*
Y462800D02*
D03*
D20*
X978681Y447766D02*
D03*
Y445207D02*
D03*
Y442648D02*
D03*
Y440089D02*
D03*
Y437530D02*
D03*
Y434970D02*
D03*
Y432411D02*
D03*
Y429852D02*
D03*
Y427293D02*
D03*
Y424734D02*
D03*
X1001319Y447766D02*
D03*
Y445207D02*
D03*
Y442648D02*
D03*
Y440089D02*
D03*
Y437530D02*
D03*
Y434970D02*
D03*
Y432411D02*
D03*
Y429852D02*
D03*
Y427293D02*
D03*
Y424734D02*
D03*
X721319Y52234D02*
D03*
Y54793D02*
D03*
Y57352D02*
D03*
Y59911D02*
D03*
Y62470D02*
D03*
Y65030D02*
D03*
Y67589D02*
D03*
Y70148D02*
D03*
Y72707D02*
D03*
Y75266D02*
D03*
X698681Y52234D02*
D03*
Y54793D02*
D03*
Y57352D02*
D03*
Y59911D02*
D03*
Y62470D02*
D03*
Y65030D02*
D03*
Y67589D02*
D03*
Y70148D02*
D03*
Y72707D02*
D03*
Y75266D02*
D03*
X721681Y329016D02*
D03*
Y326457D02*
D03*
Y323898D02*
D03*
Y321339D02*
D03*
Y318780D02*
D03*
Y316220D02*
D03*
Y313661D02*
D03*
Y311102D02*
D03*
Y308543D02*
D03*
Y305984D02*
D03*
X744319Y329016D02*
D03*
Y326457D02*
D03*
Y323898D02*
D03*
Y321339D02*
D03*
Y318780D02*
D03*
Y316220D02*
D03*
Y313661D02*
D03*
Y311102D02*
D03*
Y308543D02*
D03*
Y305984D02*
D03*
X980319Y174484D02*
D03*
Y177043D02*
D03*
Y179602D02*
D03*
Y182161D02*
D03*
Y184720D02*
D03*
Y187280D02*
D03*
Y189839D02*
D03*
Y192398D02*
D03*
Y194957D02*
D03*
Y197516D02*
D03*
X957681Y174484D02*
D03*
Y177043D02*
D03*
Y179602D02*
D03*
Y182161D02*
D03*
Y184720D02*
D03*
Y187280D02*
D03*
Y189839D02*
D03*
Y192398D02*
D03*
Y194957D02*
D03*
Y197516D02*
D03*
X698681Y447766D02*
D03*
Y445207D02*
D03*
Y442648D02*
D03*
Y440089D02*
D03*
Y437530D02*
D03*
Y434970D02*
D03*
Y432411D02*
D03*
Y429852D02*
D03*
Y427293D02*
D03*
Y424734D02*
D03*
X721319Y447766D02*
D03*
Y445207D02*
D03*
Y442648D02*
D03*
Y440089D02*
D03*
Y437530D02*
D03*
Y434970D02*
D03*
Y432411D02*
D03*
Y429852D02*
D03*
Y427293D02*
D03*
Y424734D02*
D03*
X1001319Y52234D02*
D03*
Y54793D02*
D03*
Y57352D02*
D03*
Y59911D02*
D03*
Y62470D02*
D03*
Y65030D02*
D03*
Y67589D02*
D03*
Y70148D02*
D03*
Y72707D02*
D03*
Y75266D02*
D03*
X978681Y52234D02*
D03*
Y54793D02*
D03*
Y57352D02*
D03*
Y59911D02*
D03*
Y62470D02*
D03*
Y65030D02*
D03*
Y67589D02*
D03*
Y70148D02*
D03*
Y72707D02*
D03*
Y75266D02*
D03*
X721681Y241516D02*
D03*
Y238957D02*
D03*
Y236398D02*
D03*
Y233839D02*
D03*
Y231280D02*
D03*
Y228720D02*
D03*
Y226161D02*
D03*
Y223602D02*
D03*
Y221043D02*
D03*
Y218484D02*
D03*
X744319Y241516D02*
D03*
Y238957D02*
D03*
Y236398D02*
D03*
Y233839D02*
D03*
Y231280D02*
D03*
Y228720D02*
D03*
Y226161D02*
D03*
Y223602D02*
D03*
Y221043D02*
D03*
Y218484D02*
D03*
X980319Y254484D02*
D03*
Y257043D02*
D03*
Y259602D02*
D03*
Y262161D02*
D03*
Y264720D02*
D03*
Y267280D02*
D03*
Y269839D02*
D03*
Y272398D02*
D03*
Y274957D02*
D03*
Y277516D02*
D03*
X957681Y254484D02*
D03*
Y257043D02*
D03*
Y259602D02*
D03*
Y262161D02*
D03*
Y264720D02*
D03*
Y267280D02*
D03*
Y269839D02*
D03*
Y272398D02*
D03*
Y274957D02*
D03*
Y277516D02*
D03*
D21*
X943516Y381319D02*
D03*
X940957D02*
D03*
X938398D02*
D03*
X935839D02*
D03*
X933280D02*
D03*
X930720D02*
D03*
X928161D02*
D03*
X925602D02*
D03*
X923043D02*
D03*
X920484D02*
D03*
X943516Y358681D02*
D03*
X940957D02*
D03*
X938398D02*
D03*
X935839D02*
D03*
X933280D02*
D03*
X930720D02*
D03*
X928161D02*
D03*
X925602D02*
D03*
X923043D02*
D03*
X920484D02*
D03*
X803484Y118681D02*
D03*
X806043D02*
D03*
X808602D02*
D03*
X811161D02*
D03*
X813720D02*
D03*
X816280D02*
D03*
X818839D02*
D03*
X821398D02*
D03*
X823957D02*
D03*
X826516D02*
D03*
X803484Y141319D02*
D03*
X806043D02*
D03*
X808602D02*
D03*
X811161D02*
D03*
X813720D02*
D03*
X816280D02*
D03*
X818839D02*
D03*
X821398D02*
D03*
X823957D02*
D03*
X826516D02*
D03*
X648484Y98681D02*
D03*
X651043D02*
D03*
X653602D02*
D03*
X656161D02*
D03*
X658720D02*
D03*
X661280D02*
D03*
X663839D02*
D03*
X666398D02*
D03*
X668957D02*
D03*
X671516D02*
D03*
X648484Y121319D02*
D03*
X651043D02*
D03*
X653602D02*
D03*
X656161D02*
D03*
X658720D02*
D03*
X661280D02*
D03*
X663839D02*
D03*
X666398D02*
D03*
X668957D02*
D03*
X671516D02*
D03*
X1047766Y401319D02*
D03*
X1045207D02*
D03*
X1042648D02*
D03*
X1040089D02*
D03*
X1037530D02*
D03*
X1034970D02*
D03*
X1032411D02*
D03*
X1029852D02*
D03*
X1027293D02*
D03*
X1024734D02*
D03*
X1047766Y378681D02*
D03*
X1045207D02*
D03*
X1042648D02*
D03*
X1040089D02*
D03*
X1037530D02*
D03*
X1034970D02*
D03*
X1032411D02*
D03*
X1029852D02*
D03*
X1027293D02*
D03*
X1024734D02*
D03*
X856516Y381319D02*
D03*
X853957D02*
D03*
X851398D02*
D03*
X848839D02*
D03*
X846280D02*
D03*
X843720D02*
D03*
X841161D02*
D03*
X838602D02*
D03*
X836043D02*
D03*
X833484D02*
D03*
X856516Y358681D02*
D03*
X853957D02*
D03*
X851398D02*
D03*
X848839D02*
D03*
X846280D02*
D03*
X843720D02*
D03*
X841161D02*
D03*
X838602D02*
D03*
X836043D02*
D03*
X833484D02*
D03*
X883484Y118681D02*
D03*
X886043D02*
D03*
X888602D02*
D03*
X891161D02*
D03*
X893720D02*
D03*
X896280D02*
D03*
X898839D02*
D03*
X901398D02*
D03*
X903957D02*
D03*
X906516D02*
D03*
X883484Y141319D02*
D03*
X886043D02*
D03*
X888602D02*
D03*
X891161D02*
D03*
X893720D02*
D03*
X896280D02*
D03*
X898839D02*
D03*
X901398D02*
D03*
X903957D02*
D03*
X906516D02*
D03*
X650484Y378681D02*
D03*
X653043D02*
D03*
X655602D02*
D03*
X658161D02*
D03*
X660720D02*
D03*
X663280D02*
D03*
X665839D02*
D03*
X668398D02*
D03*
X670957D02*
D03*
X673516D02*
D03*
X650484Y401319D02*
D03*
X653043D02*
D03*
X655602D02*
D03*
X658161D02*
D03*
X660720D02*
D03*
X663280D02*
D03*
X665839D02*
D03*
X668398D02*
D03*
X670957D02*
D03*
X673516D02*
D03*
X1047766Y121319D02*
D03*
X1045207D02*
D03*
X1042648D02*
D03*
X1040089D02*
D03*
X1037530D02*
D03*
X1034970D02*
D03*
X1032411D02*
D03*
X1029852D02*
D03*
X1027293D02*
D03*
X1024734D02*
D03*
X1047766Y98681D02*
D03*
X1045207D02*
D03*
X1042648D02*
D03*
X1040089D02*
D03*
X1037530D02*
D03*
X1034970D02*
D03*
X1032411D02*
D03*
X1029852D02*
D03*
X1027293D02*
D03*
X1024734D02*
D03*
D23*
X0Y0D02*
Y500000D01*
X1100000D01*
Y0D02*
Y500000D01*
X0Y0D02*
X1100000D01*
M02*
