M48
;Layer_Color=9474304
;FILE_FORMAT=2:5
INCH,LZ
;TYPE=PLATED
T1F00S00C0.01500
T2F00S00C0.02800
T3F00S00C0.03543
T4F00S00C0.04331
T5F00S00C0.04724
;TYPE=NON_PLATED
T6F00S00C0.07087
T7F00S00C0.14000
%
T01
X109Y00044
X00664Y00928
X00611Y00963
X01735Y0138
X02629Y01421
X03685Y01596
X038454Y01662
X03987Y01491
X04385Y0162
X04615Y00485
X0598Y00878
X06261Y00733
X06289Y00583
X06373Y00499
X06439Y00691
X0644731Y0077146
X06501Y00736
X06647Y00742
X06639Y00862
X06795Y00872
X06869Y00843
X06803Y00772
X06976Y00783
X07233Y00688
X0732549Y0075
X07365Y00816
X07271Y0091975
X0726016Y0100382
X07284Y01259
X07038Y01517
X0687Y01499
X06875Y01653
X06599Y01601
X06613Y01512
X06703Y01443
X06692Y01385
X07387Y0158
X0763Y01515
X07761Y01614
X07877Y01529
X07964Y01601
X07917Y01687
X07953Y01414
X08009Y01456
X08097Y01455
X08084Y01352
Y01297
X08166Y0120035
X08222Y0106
X08173Y01002
X0807Y01066
X0795Y00943
X07815Y00985
X07737
X0763Y01042
X07661Y00871
X07405Y00867
X0744Y00824
X07413Y0066949
X07514Y00623
X07489Y00543
X0765Y0058
X07822Y00572
X0805Y00574
X0815Y00584
X08252Y00614
X08483Y00609
X0854Y00599
X08626Y00598
X08683Y00566
X08696Y00624
X08771Y00619
X08906Y00569
X08764Y0030477
X08654Y00304
X086Y00147
X0845Y00297
X08246Y00323
X08168Y00318
X08013Y00316
Y00131
X08246Y00157
X08273Y00871
X08511Y0117
X0869Y01216
Y01281
X08651Y01421
X0869931Y01483
X08774Y0151
X08522Y015
X08564Y01657
X08238Y0142004
X07858Y012372
X07787Y01281
X08853Y01197
X0893Y01031
X08788Y0101
X09016Y00997
X0905Y00891
X09076Y01106
X09115Y01151
X09062Y0127398
X09094Y0134
X09087Y01405
X09146Y0145
X09222Y01486
X09428Y0149
X09487
X0939644Y01556
X09409Y0133
X09477Y01317
X09401Y0123602
X09375Y01154
X0963Y01208
X09712Y01229
X09804Y01258
X098622Y0123352
X0986Y01291
X09967
X10021Y01278
X10081Y01268
X10097Y01205
X10039Y01201
X09938Y01243
X09927Y01435
X0986
X0981102Y01495
X09814Y01593
X09888Y01541
X09681Y01591
X09704Y01657
X0958798Y01643
X09543Y00965
Y00897
X09676Y01001
X0993Y00999
X09984Y01036
X10076Y01034
X09928Y00844
X09878Y00792
X09752Y00779
X10234Y00817
X10315Y0071
X10395Y005372
X10495Y01054
X10456Y01246
X10465Y01334
X1037Y01314
X10343Y01382
X10437Y01584
Y01678
X0902Y01455
X09006Y00624
X08961Y0057
X0919Y00587
X0927Y00316
X09257Y00217
X09199Y00218
X09117Y0018
X0958Y00414
X0985Y00147
X10575Y00455
X10737Y0056
X1078691Y00639
X10825Y00794
X1060545Y0071345
X10892Y0055
X10592Y01215
X10564Y01316
X10604Y01478
X10825Y02274
X10944Y02344
X10835Y02457
X10683
X10761Y02567
X107975Y0265
X10798Y02728
X107695Y028
X10687Y02769
X10685Y0285
Y0298
X1070016Y02699
X10914Y0257
X10426Y0256
X10411Y02627
X10415Y0279
X10421Y0285
X10375Y03013
X10438Y03102
X09906Y03013
X09728Y0307
X09756Y03146
X09552Y03142
X0918839Y03185
X09114
X09152Y03042
X09226
X09212Y02959
X0915Y0296
X09048Y0298
X09061Y03041
X08966Y02939
X09074Y02797
X09134Y02815
X09227
X09283Y0273816
X092535Y026235
X09266Y0248
X0926516Y02305
X0913098Y02374
X0906Y0253
X09006Y02644
X09007Y02704
X091325Y027085
X091133Y026457
X0907Y02194
X08945Y02226
X08951Y02106
X09007Y01958
X0918839Y02
X09409Y01968
X09373Y01886
X09631Y01876
X09746Y01701
X09929Y0185
X09813Y02061
X09687Y02226
X09552Y02303
X09501Y02527
X09687Y02663
X09816Y02561
X09887Y02534
X09906Y027
X09963Y02775
X10027Y02827
X10058Y0268
X10062Y0235
X10129Y02269
X10423Y02218
X10437Y02085
Y02016
X10381Y01902
X10389Y01827
X10437Y01788
X10393Y0173
X10399Y02411
X09182Y01693
X09111Y0171371
X09083Y01772
X08899Y01895
X08829Y01894
X08763Y01948
X08899Y0198
X08626Y02066
Y02217
X08476Y021
X0821531Y02073
X08106Y0213
X0810584Y02219
X08015Y02062
X07977Y01815
X08048Y0175
X07779Y01759
X07603Y0174
X07721Y02013
X07615Y0215
X07813Y02247
X07822Y02303
X07799Y02384
X07788Y02458
X07881Y02468
X07907Y02527
X07784Y02577
X07744Y02644
X0767Y0263
X07624Y0253177
X07621Y02756
X07454
X07425Y02601
X07516Y02938
X07704Y02959
X07718Y03027
X07649Y03046
X07813Y03039
X07784Y02982
X07859Y02959
X07867Y02815
X07923Y02816
X07933Y02737
X078Y02786
X07732Y02815
X08035Y0295
X08066Y0323
X08106Y0319
X08355Y03147
X08615Y02846
X08573Y02704
X08518Y02577
X0816931Y02411
X08122Y02457
X0843Y01772
X08435Y01689
X08567Y01719
X08511Y01817
X08937Y02839
X08789Y02998
X08828Y03043
X08865Y03213
X0778602Y03206
X07322Y03107
X07275Y02999
X07137Y02985
X07138Y03194
X06924Y03046
X06624Y03005
X06568Y0305
X06621Y02516
X06563Y02289
X06597Y02094
X06317Y0215
Y02007
Y02411
X0714Y02485
X07043Y0263
X07196Y02249
X07178Y02197
X0727Y02121
X07294Y01989
X07353Y01948
X07314Y01904
X07266Y01844
X06882Y01866
X0687Y0171
X0659Y0169269
X06577Y0175
X04623Y0260145
X03875Y02522
X03793Y0257323
X03842Y02692
X0361026Y02691
X03608Y02611
X03549Y02533
X0350063Y0280937
X03355Y02776
X03283Y02779
X03121Y02841
X0306Y029
X03338Y03
X03282Y0309
X03655Y03037
Y0315
X04006Y03117
X03885Y02955
X03832Y02425
X03844Y02327
X03774Y02277
X03804Y0207323
X03854Y01967
X03659Y01865
X03121Y01861
X03049Y019
X0338341Y0217559
X02528Y02228
X02282Y0245
X02132Y0252
X02011Y026
X0203Y0285
X01932Y028
X02078Y03168
X02378Y031
X02482Y03
X02614Y02667
X01933Y02204
X01541Y02184
X01416Y0212
X0115Y02
X01125Y026
X01461Y027
X01643Y03088
X01147Y03052
X00908Y02978
X00815Y03028
X00596Y02795
X00427Y0198
X00437Y0172
X0071647Y01847
X0082553Y018
X00862Y019
X0087Y03359
X00792Y03297
X00821Y03505
X01614Y03382
X01672Y03322
X02076Y03572
X02132Y03707
X02282Y0387
X02614Y03958
X02477Y04492
X03316Y03541
X03524Y03333
X05907Y03632
X06248Y03663
X06306Y03597
X06157Y03783
X06288Y04304
X06332Y04357
X06322Y0442
X0638Y04406
X0642Y04356
X06425Y04461
X06253Y04416
X06667Y04341
X06666Y045
X06833Y04495
X068696Y0454839
X06937Y04498
X07126Y04333
X07186Y04349
X0716066Y04786
X0724016Y03783
X0730316Y03756
X07289Y03589
X07133Y03542
X07125Y03483
X07034Y0345
X06934Y03627
X07107Y03709
X06881Y03313
X06286Y0325
X0747Y03477
X0753Y0368
X07717Y03823
X07852Y0378022
X07934Y0383726
X07989Y03978
X08025Y0405133
X08085Y04053
X07961Y04098
X07894Y0413
X07861Y04085
X07806Y0409831
X07753Y04015
X07887Y04
X07964Y03589
X0785Y03525
X08045Y03409
X08452Y03458
X08605Y0342377
X08809Y03589
X08865
X08863Y0384
X08708Y03965
X0875Y0406
X08662Y0408
X0857Y04115
X08479Y03947
X0843556Y0383957
X0869Y03712
X0874Y04401
X0885Y04418
X0862Y04382
X08505Y04388
X08432Y0439
X08104Y04389
X08063Y04689
X0777Y04412
X07655Y04371
X07559Y04786
X08583Y0474
X08803Y04757
X08769Y04683
X08917
X09101
X09065Y04418
X0905Y04363
X0915Y04397
X092Y0443195
X09259Y04436
X09333Y04427
X09393
X09448Y0443
X09535Y04528
X09694
X0963639Y04378
X09662Y04202
X09721Y04145
X0956Y0417208
X098622Y041932
X0987085Y04294
X0998Y0426
X0994811Y04142
X10044Y04096
X10083Y03989
X0996457Y03964
X10247Y03995
X10317Y04103
X101803Y04164
X1025Y04253
X10397Y04346
X10416Y04407
X10417Y04473
X1017Y044628
X10089Y04362
X09937Y04407
X09501Y04744
X0943Y03853
X0928Y03844
X09253Y03774
X0935Y03771
X0918761Y0373161
X0908459Y03747
X09059Y03648
X09228Y03649
X0914418Y0382
X0911Y03867
X09113Y03926
X09037Y03998
X09125Y0343
X09268Y0335
X09373Y03443
X09402Y0354317
X094465Y03603
X09594Y0348759
X09686Y0376716
X09726Y0372716
X10382Y03764
X10551
X10511Y04282
X1056Y0436043
X1064Y04317
X10571Y04575
X10726Y04571
X08817Y04814
X08735Y04926
X08489Y04844
T02
X0413Y00908
X04471Y01035
X03579Y03554
X03543Y04053
X04016Y04078
X05305Y0432
T03
X002Y0025
Y0035
Y0045
Y0055
Y0065
Y0075
Y0085
Y0095
Y0105
Y0115
Y0125
Y0135
Y0145
Y0155
Y0165
X005
Y0155
Y0145
Y0135
Y0125
Y0115
Y0105
Y0095
Y0085
Y0075
Y0065
Y0055
Y0045
Y0035
Y0025
X035Y007
X036
X037
X038
X039
X04
X041
X042
X043
X044
X046
X047
X048
X049
X05
X051
X052
X053
X054
X055
X045Y004
X044
X043
X005Y0175
Y0185
Y0195
Y0205
Y0215
X002
Y0205
Y0195
Y0185
Y0175
Y0285
Y0295
Y0305
Y0315
X005
Y0305
Y0295
Y0285
Y0325
Y0335
Y0345
Y0355
Y0365
Y0375
Y0385
Y0395
Y0405
Y0415
Y0425
Y0435
Y0445
Y0455
Y0465
Y0475
X002
Y0465
Y0455
Y0445
Y0435
Y0425
Y0415
Y0405
Y0395
Y0385
Y0375
Y0365
Y0355
Y0345
Y0335
Y0325
X035Y037
X036
X037
X038
X039
X04
X041
X042
Y0383
X041
X04
X039
X038
X037
X036
X035
X0401Y042
X0411
X0421
X043Y0383
X044
Y037
X043
X046
X047
X048
X049
X05
X051
X052
X053
X054
X055
Y0383
X054
X053
X052
X051
X05
X049
X048
X047
X046
T04
X019Y0025
X021
T05
X0535Y0094409
Y0135591
Y0164409
Y0205591
Y0234409
Y0275591
Y0304409
Y0345591
T06
X0456783Y0458098
Y0475815
T07
X0075Y0025
Y0475
M30
