G04 Layer_Color=16711935*
%FSLAX25Y25*%
%MOIN*%
G70*
G01*
G75*
%ADD22C,0.01000*%
%ADD41R,0.04737X0.08674*%
%ADD42R,0.08674X0.04737*%
%ADD50C,0.16800*%
%ADD51C,0.08083*%
%ADD52R,0.08083X0.08083*%
%ADD53R,0.06706X0.06706*%
%ADD54C,0.06706*%
%ADD55R,0.08674X0.08674*%
%ADD56C,0.08674*%
%ADD57R,0.06706X0.06706*%
%ADD58C,0.09900*%
%ADD59C,0.03800*%
%ADD60C,0.05800*%
D22*
X0Y0D02*
Y500000D01*
X1100000D01*
Y0D02*
Y500000D01*
X0Y0D02*
X1100000D01*
D41*
X790000Y39646D02*
D03*
X770000D02*
D03*
X760000D02*
D03*
X750000D02*
D03*
X780000D02*
D03*
X830000D02*
D03*
X800000D02*
D03*
X810000D02*
D03*
X820000D02*
D03*
X840000D02*
D03*
X880000D02*
D03*
X850000D02*
D03*
X860000D02*
D03*
X870000D02*
D03*
X890000D02*
D03*
X930000D02*
D03*
X900000D02*
D03*
X910000D02*
D03*
X920000D02*
D03*
X940000D02*
D03*
Y70354D02*
D03*
X920000D02*
D03*
X910000D02*
D03*
X900000D02*
D03*
X930000D02*
D03*
X890000D02*
D03*
X870000D02*
D03*
X860000D02*
D03*
X850000D02*
D03*
X880000D02*
D03*
X840000D02*
D03*
X820000D02*
D03*
X810000D02*
D03*
X800000D02*
D03*
X830000D02*
D03*
X780000D02*
D03*
X750000D02*
D03*
X760000D02*
D03*
X770000D02*
D03*
X790000D02*
D03*
X900000Y460354D02*
D03*
X920000D02*
D03*
X930000D02*
D03*
X940000D02*
D03*
X910000D02*
D03*
X860000D02*
D03*
X890000D02*
D03*
X880000D02*
D03*
X870000D02*
D03*
X850000D02*
D03*
X810000D02*
D03*
X840000D02*
D03*
X830000D02*
D03*
X820000D02*
D03*
X800000D02*
D03*
X760000D02*
D03*
X790000D02*
D03*
X780000D02*
D03*
X770000D02*
D03*
X750000D02*
D03*
Y429646D02*
D03*
X770000D02*
D03*
X780000D02*
D03*
X790000D02*
D03*
X760000D02*
D03*
X800000D02*
D03*
X820000D02*
D03*
X830000D02*
D03*
X840000D02*
D03*
X810000D02*
D03*
X850000D02*
D03*
X870000D02*
D03*
X880000D02*
D03*
X890000D02*
D03*
X860000D02*
D03*
X910000D02*
D03*
X940000D02*
D03*
X930000D02*
D03*
X920000D02*
D03*
X900000D02*
D03*
D42*
X1060354Y305000D02*
D03*
Y325000D02*
D03*
Y335000D02*
D03*
Y345000D02*
D03*
Y315000D02*
D03*
Y265000D02*
D03*
Y295000D02*
D03*
Y285000D02*
D03*
Y275000D02*
D03*
Y255000D02*
D03*
Y215000D02*
D03*
Y245000D02*
D03*
Y235000D02*
D03*
Y225000D02*
D03*
Y205000D02*
D03*
Y165000D02*
D03*
Y195000D02*
D03*
Y185000D02*
D03*
Y175000D02*
D03*
Y155000D02*
D03*
X1029646D02*
D03*
Y175000D02*
D03*
Y185000D02*
D03*
Y195000D02*
D03*
Y165000D02*
D03*
Y205000D02*
D03*
Y225000D02*
D03*
Y235000D02*
D03*
Y245000D02*
D03*
Y215000D02*
D03*
Y255000D02*
D03*
Y275000D02*
D03*
Y285000D02*
D03*
Y295000D02*
D03*
Y265000D02*
D03*
Y315000D02*
D03*
Y345000D02*
D03*
Y335000D02*
D03*
Y325000D02*
D03*
Y305000D02*
D03*
X639646Y195000D02*
D03*
Y175000D02*
D03*
Y165000D02*
D03*
Y155000D02*
D03*
Y185000D02*
D03*
Y235000D02*
D03*
Y205000D02*
D03*
Y215000D02*
D03*
Y225000D02*
D03*
Y245000D02*
D03*
Y285000D02*
D03*
Y255000D02*
D03*
Y265000D02*
D03*
Y275000D02*
D03*
Y295000D02*
D03*
Y335000D02*
D03*
Y305000D02*
D03*
Y315000D02*
D03*
Y325000D02*
D03*
Y345000D02*
D03*
X670354D02*
D03*
Y325000D02*
D03*
Y315000D02*
D03*
Y305000D02*
D03*
Y335000D02*
D03*
Y295000D02*
D03*
Y275000D02*
D03*
Y265000D02*
D03*
Y255000D02*
D03*
Y285000D02*
D03*
Y245000D02*
D03*
Y225000D02*
D03*
Y215000D02*
D03*
Y205000D02*
D03*
Y235000D02*
D03*
Y185000D02*
D03*
Y155000D02*
D03*
Y165000D02*
D03*
Y175000D02*
D03*
Y195000D02*
D03*
X289291Y160000D02*
D03*
Y150000D02*
D03*
Y140000D02*
D03*
X320000D02*
D03*
Y150000D02*
D03*
Y160000D02*
D03*
X99583D02*
D03*
Y150000D02*
D03*
Y140000D02*
D03*
X130291Y160000D02*
D03*
X320000Y210000D02*
D03*
Y190000D02*
D03*
Y180000D02*
D03*
Y170000D02*
D03*
Y200000D02*
D03*
Y250000D02*
D03*
Y220000D02*
D03*
Y230000D02*
D03*
Y240000D02*
D03*
Y260000D02*
D03*
Y300000D02*
D03*
Y270000D02*
D03*
Y280000D02*
D03*
Y290000D02*
D03*
Y310000D02*
D03*
Y350000D02*
D03*
Y320000D02*
D03*
Y330000D02*
D03*
Y340000D02*
D03*
Y360000D02*
D03*
X289291D02*
D03*
Y340000D02*
D03*
Y330000D02*
D03*
Y320000D02*
D03*
Y350000D02*
D03*
Y310000D02*
D03*
Y290000D02*
D03*
Y280000D02*
D03*
Y270000D02*
D03*
Y300000D02*
D03*
Y260000D02*
D03*
Y240000D02*
D03*
Y230000D02*
D03*
Y220000D02*
D03*
Y250000D02*
D03*
Y200000D02*
D03*
Y170000D02*
D03*
Y180000D02*
D03*
Y190000D02*
D03*
Y210000D02*
D03*
X130291D02*
D03*
Y190000D02*
D03*
Y180000D02*
D03*
Y170000D02*
D03*
Y200000D02*
D03*
Y250000D02*
D03*
Y220000D02*
D03*
Y230000D02*
D03*
Y240000D02*
D03*
Y260000D02*
D03*
Y300000D02*
D03*
Y270000D02*
D03*
Y280000D02*
D03*
Y290000D02*
D03*
Y310000D02*
D03*
Y350000D02*
D03*
Y320000D02*
D03*
Y330000D02*
D03*
Y340000D02*
D03*
Y360000D02*
D03*
X99583D02*
D03*
Y340000D02*
D03*
Y330000D02*
D03*
Y320000D02*
D03*
Y350000D02*
D03*
Y310000D02*
D03*
Y290000D02*
D03*
Y280000D02*
D03*
Y270000D02*
D03*
Y300000D02*
D03*
Y260000D02*
D03*
Y240000D02*
D03*
Y230000D02*
D03*
Y220000D02*
D03*
Y250000D02*
D03*
Y200000D02*
D03*
Y170000D02*
D03*
Y180000D02*
D03*
Y190000D02*
D03*
Y210000D02*
D03*
X130291Y150000D02*
D03*
Y140000D02*
D03*
D50*
X75000Y25000D02*
D03*
Y475000D02*
D03*
D51*
X210000Y25000D02*
D03*
D52*
X190000D02*
D03*
D53*
X350000Y70000D02*
D03*
X460000D02*
D03*
X350000Y370000D02*
D03*
X460000D02*
D03*
X421000Y420000D02*
D03*
X430000Y40000D02*
D03*
X440000Y383000D02*
D03*
X550000D02*
D03*
D54*
X360000Y70000D02*
D03*
X380000D02*
D03*
X390000D02*
D03*
X400000D02*
D03*
X410000D02*
D03*
X420000D02*
D03*
X430000D02*
D03*
X440000D02*
D03*
X370000D02*
D03*
X470000D02*
D03*
X490000D02*
D03*
X500000D02*
D03*
X510000D02*
D03*
X520000D02*
D03*
X530000D02*
D03*
X540000D02*
D03*
X550000D02*
D03*
X480000D02*
D03*
X360000Y370000D02*
D03*
X380000D02*
D03*
X390000D02*
D03*
X400000D02*
D03*
X410000D02*
D03*
X420000D02*
D03*
X430000D02*
D03*
X440000D02*
D03*
X370000D02*
D03*
X470000D02*
D03*
X490000D02*
D03*
X500000D02*
D03*
X510000D02*
D03*
X520000D02*
D03*
X530000D02*
D03*
X540000D02*
D03*
X550000D02*
D03*
X480000D02*
D03*
X401000Y420000D02*
D03*
X411000D02*
D03*
X20000Y475000D02*
D03*
Y465000D02*
D03*
Y455000D02*
D03*
Y445000D02*
D03*
Y435000D02*
D03*
Y425000D02*
D03*
Y415000D02*
D03*
Y405000D02*
D03*
Y395000D02*
D03*
Y385000D02*
D03*
Y375000D02*
D03*
Y365000D02*
D03*
Y355000D02*
D03*
Y345000D02*
D03*
Y335000D02*
D03*
Y325000D02*
D03*
Y315000D02*
D03*
Y305000D02*
D03*
Y295000D02*
D03*
X50000Y475000D02*
D03*
Y465000D02*
D03*
Y455000D02*
D03*
Y445000D02*
D03*
Y435000D02*
D03*
Y425000D02*
D03*
Y415000D02*
D03*
Y405000D02*
D03*
Y395000D02*
D03*
Y385000D02*
D03*
Y375000D02*
D03*
Y365000D02*
D03*
Y355000D02*
D03*
Y345000D02*
D03*
Y335000D02*
D03*
Y325000D02*
D03*
Y315000D02*
D03*
Y305000D02*
D03*
Y295000D02*
D03*
Y215000D02*
D03*
Y205000D02*
D03*
Y195000D02*
D03*
Y185000D02*
D03*
Y175000D02*
D03*
Y165000D02*
D03*
Y155000D02*
D03*
Y145000D02*
D03*
Y135000D02*
D03*
Y125000D02*
D03*
Y115000D02*
D03*
Y105000D02*
D03*
Y95000D02*
D03*
Y85000D02*
D03*
Y75000D02*
D03*
Y65000D02*
D03*
Y55000D02*
D03*
Y45000D02*
D03*
Y35000D02*
D03*
X20000Y215000D02*
D03*
Y205000D02*
D03*
Y195000D02*
D03*
Y185000D02*
D03*
Y175000D02*
D03*
Y165000D02*
D03*
Y155000D02*
D03*
Y145000D02*
D03*
Y135000D02*
D03*
Y125000D02*
D03*
Y115000D02*
D03*
Y105000D02*
D03*
Y95000D02*
D03*
Y85000D02*
D03*
Y75000D02*
D03*
Y65000D02*
D03*
Y55000D02*
D03*
Y45000D02*
D03*
Y35000D02*
D03*
X450000Y40000D02*
D03*
X440000D02*
D03*
X430000Y383000D02*
D03*
X410000D02*
D03*
X400000D02*
D03*
X390000D02*
D03*
X380000D02*
D03*
X370000D02*
D03*
X360000D02*
D03*
X350000D02*
D03*
X420000D02*
D03*
X540000D02*
D03*
X520000D02*
D03*
X510000D02*
D03*
X500000D02*
D03*
X490000D02*
D03*
X480000D02*
D03*
X470000D02*
D03*
X460000D02*
D03*
X530000D02*
D03*
D55*
X535000Y164409D02*
D03*
Y304409D02*
D03*
Y94409D02*
D03*
Y234409D02*
D03*
D56*
Y205591D02*
D03*
Y345591D02*
D03*
Y135591D02*
D03*
Y275591D02*
D03*
D57*
X20000Y285000D02*
D03*
X50000D02*
D03*
Y25000D02*
D03*
X20000D02*
D03*
D58*
X456783Y475815D02*
D03*
Y458098D02*
D03*
D59*
X380400Y207323D02*
D03*
X384400Y232700D02*
D03*
X379300Y257323D02*
D03*
X335500Y277600D02*
D03*
X328300Y277900D02*
D03*
X360800Y261100D02*
D03*
X361026Y269100D02*
D03*
X1012900Y226900D02*
D03*
X900700Y270400D02*
D03*
X1043800Y310200D02*
D03*
X904800Y298000D02*
D03*
X913400Y281500D02*
D03*
X1041500Y279000D02*
D03*
X907400Y279700D02*
D03*
X1042600Y256000D02*
D03*
X922700Y281500D02*
D03*
X996300Y277500D02*
D03*
X1005800Y268000D02*
D03*
X1041100Y262700D02*
D03*
X921200Y295900D02*
D03*
X1002700Y282700D02*
D03*
X1039900Y241100D02*
D03*
X928300Y273816D02*
D03*
X1043700Y208500D02*
D03*
X981300Y206100D02*
D03*
X1037000Y131400D02*
D03*
X1002100Y127800D02*
D03*
X1046500Y133400D02*
D03*
X1003900Y120100D02*
D03*
X729400Y198900D02*
D03*
X772100Y201300D02*
D03*
X662100Y251600D02*
D03*
X790700Y252700D02*
D03*
X714000Y248500D02*
D03*
X788100Y246800D02*
D03*
X704300Y263000D02*
D03*
X767000D02*
D03*
X628900Y58300D02*
D03*
X637300Y49900D02*
D03*
X877400Y151000D02*
D03*
X778700Y128100D02*
D03*
X795000Y94300D02*
D03*
X869000Y121600D02*
D03*
X868300Y56600D02*
D03*
X805000Y57400D02*
D03*
X908300Y177200D02*
D03*
X843000D02*
D03*
X843500Y168900D02*
D03*
X911100Y171371D02*
D03*
X862600Y221700D02*
D03*
X894500Y222600D02*
D03*
X877100Y61900D02*
D03*
X918200Y169300D02*
D03*
X862600Y206600D02*
D03*
X895100Y210600D02*
D03*
X781300Y303900D02*
D03*
X762100Y275600D02*
D03*
X763000Y151500D02*
D03*
Y104200D02*
D03*
X908459Y374700D02*
D03*
X911300Y392600D02*
D03*
X903700Y399800D02*
D03*
X875000Y406000D02*
D03*
X716066Y478600D02*
D03*
X755900D02*
D03*
X873500Y492600D02*
D03*
X1056000Y436043D02*
D03*
X905000Y436300D02*
D03*
X1041600Y440700D02*
D03*
X915000Y439700D02*
D03*
X1041700Y447300D02*
D03*
X953500Y452800D02*
D03*
X1057100Y457500D02*
D03*
X398700Y149100D02*
D03*
X388500Y295500D02*
D03*
X387500Y252200D02*
D03*
X368500Y159600D02*
D03*
X384540Y166200D02*
D03*
X365900Y186500D02*
D03*
X365500Y303700D02*
D03*
Y315000D02*
D03*
X1060545Y71345D02*
D03*
X1042300Y221800D02*
D03*
X1039500Y53720D02*
D03*
X1091400Y257000D02*
D03*
X1079750Y265000D02*
D03*
X1068700Y276900D02*
D03*
X1068500Y298000D02*
D03*
X994811Y414200D02*
D03*
X1024700Y399500D02*
D03*
X1055100Y376400D02*
D03*
X915200Y304200D02*
D03*
X1082500Y227400D02*
D03*
Y79400D02*
D03*
X981102Y149500D02*
D03*
X998400Y103600D02*
D03*
X985000Y14700D02*
D03*
X860000D02*
D03*
X845000Y29700D02*
D03*
X865400Y30400D02*
D03*
X992800Y84400D02*
D03*
X986000Y143500D02*
D03*
X992700D02*
D03*
X919000Y58700D02*
D03*
X1008100Y126800D02*
D03*
X796400Y160100D02*
D03*
X732549Y75000D02*
D03*
X751400Y62300D02*
D03*
X697600Y78300D02*
D03*
X664700Y74200D02*
D03*
X659700Y209400D02*
D03*
X727500Y299900D02*
D03*
X656800Y305000D02*
D03*
X909400Y134000D02*
D03*
X760300Y174000D02*
D03*
X745400Y275600D02*
D03*
X914600Y145000D02*
D03*
X726600Y184400D02*
D03*
X688100Y331300D02*
D03*
X860500Y342377D02*
D03*
X906000Y253000D02*
D03*
X926516Y230500D02*
D03*
X812200Y245700D02*
D03*
X810584Y221900D02*
D03*
X816600Y120035D02*
D03*
X817300Y100200D02*
D03*
X778400Y298200D02*
D03*
X940200Y354317D02*
D03*
X939300Y442700D02*
D03*
X862000Y438200D02*
D03*
X847900Y394700D02*
D03*
X857000Y411500D02*
D03*
X881700Y481400D02*
D03*
X858300Y474000D02*
D03*
X880300Y475700D02*
D03*
X628800Y430400D02*
D03*
X642000Y435600D02*
D03*
X638000Y440600D02*
D03*
X642500Y446100D02*
D03*
X632200Y442000D02*
D03*
X786100Y408500D02*
D03*
X785200Y378022D02*
D03*
X788700Y400000D02*
D03*
X793400Y383726D02*
D03*
X802500Y405133D02*
D03*
X1018030Y416400D02*
D03*
X998000Y426000D02*
D03*
X1008900Y436200D02*
D03*
X963639Y437800D02*
D03*
X993700Y440700D02*
D03*
X331600Y354100D02*
D03*
X352400Y333300D02*
D03*
X643900Y69100D02*
D03*
X659900Y160100D02*
D03*
X753000Y368000D02*
D03*
X1049500Y105400D02*
D03*
X1068300Y245700D02*
D03*
X730316Y375600D02*
D03*
X972800Y307000D02*
D03*
X896600Y293900D02*
D03*
X969400Y452800D02*
D03*
X748900Y54300D02*
D03*
X1031500Y71000D02*
D03*
X1057500Y45500D02*
D03*
X461500Y48500D02*
D03*
X785000Y352500D02*
D03*
X712600Y433300D02*
D03*
X724016Y378300D02*
D03*
X615700D02*
D03*
X1072600Y457100D02*
D03*
X1051100Y428200D02*
D03*
X590700Y363200D02*
D03*
X693400Y362700D02*
D03*
X900600Y264400D02*
D03*
X857300Y270400D02*
D03*
X807000Y106600D02*
D03*
X687000Y171000D02*
D03*
X747000Y347700D02*
D03*
X774400Y264400D02*
D03*
X624800Y366300D02*
D03*
X947700Y131700D02*
D03*
X980400Y125800D02*
D03*
X996457Y396400D02*
D03*
X870800Y396500D02*
D03*
X925350Y262350D02*
D03*
X926600Y248000D02*
D03*
X776100Y161400D02*
D03*
X996700Y129100D02*
D03*
X1056400Y131600D02*
D03*
X728400Y125900D02*
D03*
X687500Y165300D02*
D03*
X1039300Y173000D02*
D03*
X1070016Y269900D02*
D03*
X1059200Y121500D02*
D03*
X987800Y79200D02*
D03*
X777000Y441200D02*
D03*
X968700Y222600D02*
D03*
X968600Y376716D02*
D03*
X886500Y321300D02*
D03*
Y358900D02*
D03*
X893700Y283900D02*
D03*
X906100Y304100D02*
D03*
X630600Y359700D02*
D03*
X728900Y358900D02*
D03*
X902000Y145500D02*
D03*
X823800Y142004D02*
D03*
X809700Y145500D02*
D03*
X981400Y159300D02*
D03*
X1060400Y147800D02*
D03*
X972100Y414500D02*
D03*
X1025000Y425300D02*
D03*
X247700Y449200D02*
D03*
X193300Y220400D02*
D03*
X112500Y260000D02*
D03*
X154100Y218400D02*
D03*
X338341Y217559D02*
D03*
X771700Y382300D02*
D03*
X688200Y186600D02*
D03*
X937300Y188600D02*
D03*
X942800Y149000D02*
D03*
X948700D02*
D03*
X81500Y302800D02*
D03*
X213200Y370700D02*
D03*
Y252000D02*
D03*
X228200Y387000D02*
D03*
Y245000D02*
D03*
X201100Y260000D02*
D03*
X66400Y92800D02*
D03*
X377400Y227700D02*
D03*
X384200Y269200D02*
D03*
X333800Y300000D02*
D03*
X146100Y270000D02*
D03*
X42700Y198000D02*
D03*
X350063Y280937D02*
D03*
X252800Y222800D02*
D03*
X354900Y253300D02*
D03*
X915000Y296000D02*
D03*
X1042100Y285000D02*
D03*
X1038100Y190200D02*
D03*
X968100Y159100D02*
D03*
X1038900Y182700D02*
D03*
X974600Y170100D02*
D03*
X1043700Y201600D02*
D03*
X986220Y123352D02*
D03*
X993800Y124300D02*
D03*
X1034300Y138200D02*
D03*
X970400Y165700D02*
D03*
X1043700Y178800D02*
D03*
X770400Y295900D02*
D03*
X662400Y300500D02*
D03*
X719600Y224900D02*
D03*
X782200Y230300D02*
D03*
X781300Y224700D02*
D03*
X717800Y219700D02*
D03*
X656300Y228900D02*
D03*
X644731Y77146D02*
D03*
X766100Y87100D02*
D03*
X869000Y128100D02*
D03*
X885300Y119700D02*
D03*
X782200Y57200D02*
D03*
X869931Y148300D02*
D03*
X781500Y98500D02*
D03*
X869600Y62400D02*
D03*
X815000Y58400D02*
D03*
X878800Y101000D02*
D03*
X827300Y87100D02*
D03*
X882900Y189400D02*
D03*
X918839Y200000D02*
D03*
X893000Y103100D02*
D03*
X922200Y148600D02*
D03*
X905000Y89100D02*
D03*
X939644Y155600D02*
D03*
X907600Y110600D02*
D03*
X808400Y135200D02*
D03*
X911500Y115100D02*
D03*
X808400Y129700D02*
D03*
X785800Y123720D02*
D03*
X856700Y171900D02*
D03*
X804800Y175000D02*
D03*
X773700Y98500D02*
D03*
X778602Y320600D02*
D03*
X806600Y323000D02*
D03*
X810600Y319000D02*
D03*
X835500Y314700D02*
D03*
X825200Y61400D02*
D03*
X765000Y58000D02*
D03*
X692400Y304600D02*
D03*
X764900D02*
D03*
X905900Y364800D02*
D03*
X943000Y385300D02*
D03*
X935000Y377100D02*
D03*
X922800Y364900D02*
D03*
X928000Y384400D02*
D03*
X918761Y373161D02*
D03*
X914418Y382000D02*
D03*
X886300Y384000D02*
D03*
X666700Y434100D02*
D03*
X718600Y434900D02*
D03*
X806300Y468900D02*
D03*
X850500Y438800D02*
D03*
X843200Y439000D02*
D03*
X693700Y449800D02*
D03*
X666600Y450000D02*
D03*
X848900Y484400D02*
D03*
X686960Y454839D02*
D03*
X810400Y438900D02*
D03*
X885000Y441800D02*
D03*
X1039700Y434600D02*
D03*
X400600Y311700D02*
D03*
X462300Y260145D02*
D03*
X438500Y162000D02*
D03*
X385400Y196700D02*
D03*
X890600Y56900D02*
D03*
X900600Y62400D02*
D03*
X383200Y242500D02*
D03*
X1094400Y234400D02*
D03*
X1068500Y285000D02*
D03*
X986220Y419320D02*
D03*
X1038200Y376400D02*
D03*
X911700Y18000D02*
D03*
X919900Y21800D02*
D03*
X937500Y115400D02*
D03*
X963100Y187600D02*
D03*
X955200Y230300D02*
D03*
Y314200D02*
D03*
X911400Y318500D02*
D03*
X1078691Y63900D02*
D03*
X1076100Y256700D02*
D03*
X922600Y304200D02*
D03*
X918839Y318500D02*
D03*
X975600Y314600D02*
D03*
X988700Y253400D02*
D03*
X1079800Y272800D02*
D03*
X1090000Y4400D02*
D03*
X801300Y13100D02*
D03*
Y31600D02*
D03*
X824600Y32300D02*
D03*
Y15700D02*
D03*
X950100Y252700D02*
D03*
X940900Y196800D02*
D03*
X889900Y189500D02*
D03*
X816800Y31800D02*
D03*
X971200Y122900D02*
D03*
X967600Y100100D02*
D03*
X927000Y31600D02*
D03*
X876400Y30477D02*
D03*
X993000Y99900D02*
D03*
X986000Y129100D02*
D03*
X988800Y154100D02*
D03*
X940100Y123602D02*
D03*
X896100Y57000D02*
D03*
X797700Y181500D02*
D03*
X800900Y145600D02*
D03*
X801500Y206200D02*
D03*
X847600Y210000D02*
D03*
X854000Y59900D02*
D03*
X862600Y59800D02*
D03*
X856400Y165700D02*
D03*
X791700Y168700D02*
D03*
X848300Y60900D02*
D03*
X852200Y150000D02*
D03*
X787700Y152900D02*
D03*
X851100Y117000D02*
D03*
Y181700D02*
D03*
X777900Y175900D02*
D03*
X795300Y141400D02*
D03*
X744000Y82400D02*
D03*
X740500Y86700D02*
D03*
X736500Y81600D02*
D03*
X741300Y66949D02*
D03*
X723300Y68800D02*
D03*
X680300Y77200D02*
D03*
X679500Y87200D02*
D03*
X663900Y86200D02*
D03*
X631700Y200700D02*
D03*
X779900Y238400D02*
D03*
X778800Y245800D02*
D03*
X762400Y253177D02*
D03*
X713300Y354200D02*
D03*
X712500Y348300D02*
D03*
X751600Y293800D02*
D03*
X906200Y127398D02*
D03*
X865100Y142100D02*
D03*
X804500Y340900D02*
D03*
X845200Y345800D02*
D03*
X889900Y198000D02*
D03*
X761500Y215000D02*
D03*
X703400Y345000D02*
D03*
X900700Y195800D02*
D03*
X731400Y190400D02*
D03*
X713800Y319400D02*
D03*
X628600Y325000D02*
D03*
X626100Y73300D02*
D03*
X901600Y99700D02*
D03*
X732200Y310700D02*
D03*
X735300Y194800D02*
D03*
X876300D02*
D03*
X907000Y219400D02*
D03*
X727000Y212100D02*
D03*
X713700Y298500D02*
D03*
X861500Y284600D02*
D03*
X913250Y270850D02*
D03*
X911330Y264570D02*
D03*
X913098Y237400D02*
D03*
X631700Y215000D02*
D03*
Y241100D02*
D03*
X816931D02*
D03*
X810600Y213000D02*
D03*
X821531Y207300D02*
D03*
X822200Y106000D02*
D03*
X944800Y443000D02*
D03*
X944650Y360300D02*
D03*
X771800Y302700D02*
D03*
X925900Y443600D02*
D03*
X959400Y348759D02*
D03*
X792300Y281600D02*
D03*
X786700Y281500D02*
D03*
X926800Y335000D02*
D03*
X920000Y443195D02*
D03*
X933300Y442700D02*
D03*
X937300Y344300D02*
D03*
X785900Y295900D02*
D03*
X891700Y468300D02*
D03*
X882800Y304300D02*
D03*
X793300Y273700D02*
D03*
X780000Y278600D02*
D03*
X878900Y299800D02*
D03*
X876900Y468300D02*
D03*
X956000Y417208D02*
D03*
X912500Y343000D02*
D03*
X773200Y281500D02*
D03*
X910100Y468300D02*
D03*
X925300Y377400D02*
D03*
X869000Y371200D02*
D03*
X874000Y440100D02*
D03*
X625300Y441600D02*
D03*
X633200Y435700D02*
D03*
X683300Y449500D02*
D03*
X780600Y409831D02*
D03*
X789400Y413000D02*
D03*
X796100Y409800D02*
D03*
X1004400Y409600D02*
D03*
X966200Y420200D02*
D03*
X906500Y441800D02*
D03*
X950100Y474400D02*
D03*
X1017000Y446280D02*
D03*
X173500Y138000D02*
D03*
X940900Y133000D02*
D03*
X954300Y96500D02*
D03*
Y89700D02*
D03*
X1023400Y81700D02*
D03*
X963000Y120800D02*
D03*
X650100Y73600D02*
D03*
X598000Y87800D02*
D03*
X851800Y257700D02*
D03*
X778400D02*
D03*
X911000Y386700D02*
D03*
X843556Y383957D02*
D03*
X1064000Y431700D02*
D03*
X987085Y429400D02*
D03*
X703800Y151700D02*
D03*
X687000Y149900D02*
D03*
X738700Y158000D02*
D03*
X742500Y260100D02*
D03*
X1009700Y120500D02*
D03*
X1007600Y103400D02*
D03*
X866200Y408000D02*
D03*
X798900Y397800D02*
D03*
X710700Y370900D02*
D03*
X1031700Y410300D02*
D03*
X1008300Y398900D02*
D03*
X1076950Y280000D02*
D03*
X1089200Y55000D02*
D03*
X925700Y21700D02*
D03*
X657700Y175000D02*
D03*
X765500Y437100D02*
D03*
X958000Y41400D02*
D03*
X1073700Y56000D02*
D03*
X1083500Y245700D02*
D03*
X981600Y256100D02*
D03*
X1037500Y301300D02*
D03*
X990600D02*
D03*
Y270000D02*
D03*
X968700Y266300D02*
D03*
X992900Y185000D02*
D03*
X659000Y169269D02*
D03*
X808500Y405300D02*
D03*
X1006200Y235000D02*
D03*
X975200Y77900D02*
D03*
X1045600Y124600D02*
D03*
X1043700Y167800D02*
D03*
X880900Y358900D02*
D03*
X796400D02*
D03*
X726016Y100382D02*
D03*
X908700Y140500D02*
D03*
X958798Y164300D02*
D03*
X803500Y295000D02*
D03*
X972600Y372716D02*
D03*
X686900Y84300D02*
D03*
X727100Y91975D02*
D03*
X1043700Y158400D02*
D03*
X775300Y401500D02*
D03*
X141600Y212000D02*
D03*
X82100Y350500D02*
D03*
X87000Y335900D02*
D03*
X79200Y329700D02*
D03*
X207600Y357200D02*
D03*
X167200Y332200D02*
D03*
X207800Y316800D02*
D03*
X161400Y338200D02*
D03*
X261400Y266700D02*
D03*
Y395800D02*
D03*
X312100Y186100D02*
D03*
X304900Y190000D02*
D03*
X262900Y142100D02*
D03*
X61100Y96300D02*
D03*
X59600Y279500D02*
D03*
X114700Y305200D02*
D03*
X164300Y308800D02*
D03*
X193200Y280000D02*
D03*
X306000Y290000D02*
D03*
X312100Y284100D02*
D03*
X237800Y310000D02*
D03*
X328200Y309000D02*
D03*
X203000Y285000D02*
D03*
X115000Y200000D02*
D03*
X248200Y300000D02*
D03*
X90800Y297800D02*
D03*
X86200Y190000D02*
D03*
X71647Y184700D02*
D03*
X43700Y172000D02*
D03*
X82553Y180000D02*
D03*
X669200Y138500D02*
D03*
X661300Y151200D02*
D03*
X670300Y144300D02*
D03*
D60*
X401600Y407800D02*
D03*
X354300Y405300D02*
D03*
X357900Y355400D02*
D03*
X447100Y103500D02*
D03*
X413000Y90800D02*
D03*
X530500Y432000D02*
D03*
M02*
