G04 Layer_Color=8388736*
%FSLAX25Y25*%
%MOIN*%
G70*
G01*
G75*
%ADD21C,0.01000*%
%ADD36O,0.07099X0.02572*%
%ADD37R,0.11824X0.10249*%
%ADD38R,0.05800X0.05800*%
%ADD39R,0.08674X0.04737*%
%ADD40O,0.02572X0.07099*%
%ADD41R,0.04737X0.08674*%
%ADD42R,0.05800X0.05800*%
%ADD43O,0.06902X0.03162*%
%ADD44O,0.06902X0.02572*%
%ADD45R,0.10249X0.13398*%
%ADD46R,0.10249X0.04737*%
%ADD47R,0.06706X0.06706*%
%ADD48C,0.06706*%
%ADD49C,0.09900*%
%ADD50R,0.06706X0.06706*%
%ADD51C,0.08674*%
%ADD52R,0.08674X0.08674*%
%ADD53R,0.08083X0.08083*%
%ADD54C,0.08083*%
%ADD55C,0.16800*%
%ADD56C,0.03800*%
D21*
X0Y0D02*
X1100000D01*
Y500000D01*
X0D02*
X1100000D01*
X0Y0D02*
Y500000D01*
D36*
X1048819Y43484D02*
D03*
Y46043D02*
D03*
Y48602D02*
D03*
Y51161D02*
D03*
Y53720D02*
D03*
Y56280D02*
D03*
Y58839D02*
D03*
Y61398D02*
D03*
Y63957D02*
D03*
Y66516D02*
D03*
X1026181Y43484D02*
D03*
Y46043D02*
D03*
Y48602D02*
D03*
Y51161D02*
D03*
Y53720D02*
D03*
Y56280D02*
D03*
Y58839D02*
D03*
Y61398D02*
D03*
Y63957D02*
D03*
Y66516D02*
D03*
Y456516D02*
D03*
Y453957D02*
D03*
Y451398D02*
D03*
Y448839D02*
D03*
Y446280D02*
D03*
Y443720D02*
D03*
Y441161D02*
D03*
Y438602D02*
D03*
Y436043D02*
D03*
Y433484D02*
D03*
X1048819Y456516D02*
D03*
Y453957D02*
D03*
Y451398D02*
D03*
Y448839D02*
D03*
Y446280D02*
D03*
Y443720D02*
D03*
Y441161D02*
D03*
Y438602D02*
D03*
Y436043D02*
D03*
Y433484D02*
D03*
X673819Y43484D02*
D03*
Y46043D02*
D03*
Y48602D02*
D03*
Y51161D02*
D03*
Y53720D02*
D03*
Y56280D02*
D03*
Y58839D02*
D03*
Y61398D02*
D03*
Y63957D02*
D03*
Y66516D02*
D03*
X651181Y43484D02*
D03*
Y46043D02*
D03*
Y48602D02*
D03*
Y51161D02*
D03*
Y53720D02*
D03*
Y56280D02*
D03*
Y58839D02*
D03*
Y61398D02*
D03*
Y63957D02*
D03*
Y66516D02*
D03*
X898819Y113484D02*
D03*
Y116043D02*
D03*
Y118602D02*
D03*
Y121161D02*
D03*
Y123720D02*
D03*
Y126280D02*
D03*
Y128839D02*
D03*
Y131398D02*
D03*
Y133957D02*
D03*
Y136516D02*
D03*
X876181Y113484D02*
D03*
Y116043D02*
D03*
Y118602D02*
D03*
Y121161D02*
D03*
Y123720D02*
D03*
Y126280D02*
D03*
Y128839D02*
D03*
Y131398D02*
D03*
Y133957D02*
D03*
Y136516D02*
D03*
X823819Y113484D02*
D03*
Y116043D02*
D03*
Y118602D02*
D03*
Y121161D02*
D03*
Y123720D02*
D03*
Y126280D02*
D03*
Y128839D02*
D03*
Y131398D02*
D03*
Y133957D02*
D03*
Y136516D02*
D03*
X801181Y113484D02*
D03*
Y116043D02*
D03*
Y118602D02*
D03*
Y121161D02*
D03*
Y123720D02*
D03*
Y126280D02*
D03*
Y128839D02*
D03*
Y131398D02*
D03*
Y133957D02*
D03*
Y136516D02*
D03*
Y386516D02*
D03*
Y383957D02*
D03*
Y381398D02*
D03*
Y378839D02*
D03*
Y376280D02*
D03*
Y373720D02*
D03*
Y371161D02*
D03*
Y368602D02*
D03*
Y366043D02*
D03*
Y363484D02*
D03*
X823819Y386516D02*
D03*
Y383957D02*
D03*
Y381398D02*
D03*
Y378839D02*
D03*
Y376280D02*
D03*
Y373720D02*
D03*
Y371161D02*
D03*
Y368602D02*
D03*
Y366043D02*
D03*
Y363484D02*
D03*
X876181Y386516D02*
D03*
Y383957D02*
D03*
Y381398D02*
D03*
Y378839D02*
D03*
Y376280D02*
D03*
Y373720D02*
D03*
Y371161D02*
D03*
Y368602D02*
D03*
Y366043D02*
D03*
Y363484D02*
D03*
X898819Y386516D02*
D03*
Y383957D02*
D03*
Y381398D02*
D03*
Y378839D02*
D03*
Y376280D02*
D03*
Y373720D02*
D03*
Y371161D02*
D03*
Y368602D02*
D03*
Y366043D02*
D03*
Y363484D02*
D03*
X651181Y456516D02*
D03*
Y453957D02*
D03*
Y451398D02*
D03*
Y448839D02*
D03*
Y446280D02*
D03*
Y443720D02*
D03*
Y441161D02*
D03*
Y438602D02*
D03*
Y436043D02*
D03*
Y433484D02*
D03*
X673819Y456516D02*
D03*
Y453957D02*
D03*
Y451398D02*
D03*
Y448839D02*
D03*
Y446280D02*
D03*
Y443720D02*
D03*
Y441161D02*
D03*
Y438602D02*
D03*
Y436043D02*
D03*
Y433484D02*
D03*
D37*
X433000Y475500D02*
D03*
Y451000D02*
D03*
X481500Y475500D02*
D03*
Y451000D02*
D03*
X283000Y475500D02*
D03*
Y451000D02*
D03*
X331500Y475500D02*
D03*
Y451000D02*
D03*
X508000Y475500D02*
D03*
Y451000D02*
D03*
X556500Y475500D02*
D03*
Y451000D02*
D03*
X358000Y475500D02*
D03*
Y451000D02*
D03*
X406500Y475500D02*
D03*
Y451000D02*
D03*
D38*
X1084000Y458398D02*
D03*
Y451398D02*
D03*
Y478398D02*
D03*
Y471398D02*
D03*
X1064000Y478398D02*
D03*
Y471398D02*
D03*
Y458398D02*
D03*
Y451398D02*
D03*
X1089000Y41602D02*
D03*
Y48602D02*
D03*
Y21602D02*
D03*
Y28602D02*
D03*
X1069000Y21602D02*
D03*
Y28602D02*
D03*
Y41602D02*
D03*
Y48602D02*
D03*
X618000Y478398D02*
D03*
Y471398D02*
D03*
Y21602D02*
D03*
Y28602D02*
D03*
Y41602D02*
D03*
Y48602D02*
D03*
X598000Y21602D02*
D03*
Y28602D02*
D03*
Y41602D02*
D03*
Y48602D02*
D03*
Y478398D02*
D03*
Y471398D02*
D03*
X618000Y458398D02*
D03*
Y451398D02*
D03*
X598000Y458398D02*
D03*
Y451398D02*
D03*
X375000Y336700D02*
D03*
Y343700D02*
D03*
Y296700D02*
D03*
Y303700D02*
D03*
X570000Y328500D02*
D03*
Y321500D02*
D03*
Y193900D02*
D03*
Y186900D02*
D03*
X375000Y119000D02*
D03*
Y126000D02*
D03*
Y159100D02*
D03*
Y166100D02*
D03*
X400000Y271500D02*
D03*
Y278500D02*
D03*
Y219000D02*
D03*
Y226000D02*
D03*
D39*
X1051604Y195000D02*
D03*
Y175000D02*
D03*
Y165000D02*
D03*
Y155000D02*
D03*
Y185000D02*
D03*
Y235000D02*
D03*
Y205000D02*
D03*
Y215000D02*
D03*
Y225000D02*
D03*
Y245000D02*
D03*
Y285000D02*
D03*
Y255000D02*
D03*
Y265000D02*
D03*
Y275000D02*
D03*
Y295000D02*
D03*
Y335000D02*
D03*
Y305000D02*
D03*
Y315000D02*
D03*
Y325000D02*
D03*
Y345000D02*
D03*
X1020896D02*
D03*
Y325000D02*
D03*
Y315000D02*
D03*
Y305000D02*
D03*
Y335000D02*
D03*
Y295000D02*
D03*
Y275000D02*
D03*
Y265000D02*
D03*
Y255000D02*
D03*
Y285000D02*
D03*
Y245000D02*
D03*
Y225000D02*
D03*
Y215000D02*
D03*
Y205000D02*
D03*
Y235000D02*
D03*
Y185000D02*
D03*
Y155000D02*
D03*
Y165000D02*
D03*
Y175000D02*
D03*
Y195000D02*
D03*
X648396Y305000D02*
D03*
Y325000D02*
D03*
Y335000D02*
D03*
Y345000D02*
D03*
Y315000D02*
D03*
Y265000D02*
D03*
Y295000D02*
D03*
Y285000D02*
D03*
Y275000D02*
D03*
Y255000D02*
D03*
Y215000D02*
D03*
Y245000D02*
D03*
Y235000D02*
D03*
Y225000D02*
D03*
Y205000D02*
D03*
Y165000D02*
D03*
Y195000D02*
D03*
Y185000D02*
D03*
Y175000D02*
D03*
Y155000D02*
D03*
X679104D02*
D03*
Y175000D02*
D03*
Y185000D02*
D03*
Y195000D02*
D03*
Y165000D02*
D03*
Y205000D02*
D03*
Y225000D02*
D03*
Y235000D02*
D03*
Y245000D02*
D03*
Y215000D02*
D03*
Y255000D02*
D03*
Y275000D02*
D03*
Y285000D02*
D03*
Y295000D02*
D03*
Y265000D02*
D03*
Y315000D02*
D03*
Y345000D02*
D03*
Y335000D02*
D03*
Y325000D02*
D03*
Y305000D02*
D03*
D40*
X999016Y386319D02*
D03*
X996457D02*
D03*
X993898D02*
D03*
X991339D02*
D03*
X988780D02*
D03*
X986220D02*
D03*
X983661D02*
D03*
X981102D02*
D03*
X978543D02*
D03*
X975984D02*
D03*
X999016Y363681D02*
D03*
X996457D02*
D03*
X993898D02*
D03*
X991339D02*
D03*
X988780D02*
D03*
X986220D02*
D03*
X983661D02*
D03*
X981102D02*
D03*
X978543D02*
D03*
X975984D02*
D03*
X926516Y311319D02*
D03*
X923957D02*
D03*
X921398D02*
D03*
X918839D02*
D03*
X916280D02*
D03*
X913720D02*
D03*
X911161D02*
D03*
X908602D02*
D03*
X906043D02*
D03*
X903484D02*
D03*
X926516Y288681D02*
D03*
X923957D02*
D03*
X921398D02*
D03*
X918839D02*
D03*
X916280D02*
D03*
X913720D02*
D03*
X911161D02*
D03*
X908602D02*
D03*
X906043D02*
D03*
X903484D02*
D03*
X999016Y136319D02*
D03*
X996457D02*
D03*
X993898D02*
D03*
X991339D02*
D03*
X988780D02*
D03*
X986220D02*
D03*
X983661D02*
D03*
X981102D02*
D03*
X978543D02*
D03*
X975984D02*
D03*
X999016Y113681D02*
D03*
X996457D02*
D03*
X993898D02*
D03*
X991339D02*
D03*
X988780D02*
D03*
X986220D02*
D03*
X983661D02*
D03*
X981102D02*
D03*
X978543D02*
D03*
X975984D02*
D03*
X700984Y113681D02*
D03*
X703543D02*
D03*
X706102D02*
D03*
X708661D02*
D03*
X711220D02*
D03*
X713780D02*
D03*
X716339D02*
D03*
X718898D02*
D03*
X721457D02*
D03*
X724016D02*
D03*
X700984Y136319D02*
D03*
X703543D02*
D03*
X706102D02*
D03*
X708661D02*
D03*
X711220D02*
D03*
X713780D02*
D03*
X716339D02*
D03*
X718898D02*
D03*
X721457D02*
D03*
X724016D02*
D03*
X700984Y363681D02*
D03*
X703543D02*
D03*
X706102D02*
D03*
X708661D02*
D03*
X711220D02*
D03*
X713780D02*
D03*
X716339D02*
D03*
X718898D02*
D03*
X721457D02*
D03*
X724016D02*
D03*
X700984Y386319D02*
D03*
X703543D02*
D03*
X706102D02*
D03*
X708661D02*
D03*
X711220D02*
D03*
X713780D02*
D03*
X716339D02*
D03*
X718898D02*
D03*
X721457D02*
D03*
X724016D02*
D03*
X926516Y211319D02*
D03*
X923957D02*
D03*
X921398D02*
D03*
X918839D02*
D03*
X916280D02*
D03*
X913720D02*
D03*
X911161D02*
D03*
X908602D02*
D03*
X906043D02*
D03*
X903484D02*
D03*
X926516Y188681D02*
D03*
X923957D02*
D03*
X921398D02*
D03*
X918839D02*
D03*
X916280D02*
D03*
X913720D02*
D03*
X911161D02*
D03*
X908602D02*
D03*
X906043D02*
D03*
X903484D02*
D03*
X773484Y288681D02*
D03*
X776043D02*
D03*
X778602D02*
D03*
X781161D02*
D03*
X783720D02*
D03*
X786280D02*
D03*
X788839D02*
D03*
X791398D02*
D03*
X793957D02*
D03*
X796516D02*
D03*
X773484Y311319D02*
D03*
X776043D02*
D03*
X778602D02*
D03*
X781161D02*
D03*
X783720D02*
D03*
X786280D02*
D03*
X788839D02*
D03*
X791398D02*
D03*
X793957D02*
D03*
X796516D02*
D03*
X773484Y188681D02*
D03*
X776043D02*
D03*
X778602D02*
D03*
X781161D02*
D03*
X783720D02*
D03*
X786280D02*
D03*
X788839D02*
D03*
X791398D02*
D03*
X793957D02*
D03*
X796516D02*
D03*
X773484Y211319D02*
D03*
X776043D02*
D03*
X778602D02*
D03*
X781161D02*
D03*
X783720D02*
D03*
X786280D02*
D03*
X788839D02*
D03*
X791398D02*
D03*
X793957D02*
D03*
X796516D02*
D03*
D41*
X795000Y48396D02*
D03*
X775000D02*
D03*
X765000D02*
D03*
X755000D02*
D03*
X785000D02*
D03*
X835000D02*
D03*
X805000D02*
D03*
X815000D02*
D03*
X825000D02*
D03*
X845000D02*
D03*
X885000D02*
D03*
X855000D02*
D03*
X865000D02*
D03*
X875000D02*
D03*
X895000D02*
D03*
X935000D02*
D03*
X905000D02*
D03*
X915000D02*
D03*
X925000D02*
D03*
X945000D02*
D03*
Y79104D02*
D03*
X925000D02*
D03*
X915000D02*
D03*
X905000D02*
D03*
X935000D02*
D03*
X895000D02*
D03*
X875000D02*
D03*
X865000D02*
D03*
X855000D02*
D03*
X885000D02*
D03*
X845000D02*
D03*
X825000D02*
D03*
X815000D02*
D03*
X805000D02*
D03*
X835000D02*
D03*
X785000D02*
D03*
X755000D02*
D03*
X765000D02*
D03*
X775000D02*
D03*
X795000D02*
D03*
X905000Y451604D02*
D03*
X925000D02*
D03*
X935000D02*
D03*
X945000D02*
D03*
X915000D02*
D03*
X865000D02*
D03*
X895000D02*
D03*
X885000D02*
D03*
X875000D02*
D03*
X855000D02*
D03*
X815000D02*
D03*
X845000D02*
D03*
X835000D02*
D03*
X825000D02*
D03*
X805000D02*
D03*
X765000D02*
D03*
X795000D02*
D03*
X785000D02*
D03*
X775000D02*
D03*
X755000D02*
D03*
Y420896D02*
D03*
X775000D02*
D03*
X785000D02*
D03*
X795000D02*
D03*
X765000D02*
D03*
X805000D02*
D03*
X825000D02*
D03*
X835000D02*
D03*
X845000D02*
D03*
X815000D02*
D03*
X855000D02*
D03*
X875000D02*
D03*
X885000D02*
D03*
X895000D02*
D03*
X865000D02*
D03*
X915000D02*
D03*
X945000D02*
D03*
X935000D02*
D03*
X925000D02*
D03*
X905000D02*
D03*
D42*
X386000Y410000D02*
D03*
X379000D02*
D03*
X386000Y400000D02*
D03*
X379000D02*
D03*
X386000Y390000D02*
D03*
X379000D02*
D03*
X386000Y420000D02*
D03*
X379000D02*
D03*
X536000Y400000D02*
D03*
X529000D02*
D03*
X536000Y410000D02*
D03*
X529000D02*
D03*
X536000Y420000D02*
D03*
X529000D02*
D03*
X536000Y390000D02*
D03*
X529000D02*
D03*
X353500Y343700D02*
D03*
X346500D02*
D03*
X353500Y303700D02*
D03*
X346500D02*
D03*
X353500Y126000D02*
D03*
X346500D02*
D03*
X353500Y166100D02*
D03*
X346500D02*
D03*
X431500Y127500D02*
D03*
X438500D02*
D03*
X431500Y155000D02*
D03*
X438500D02*
D03*
X431500Y252500D02*
D03*
X438500D02*
D03*
X431500Y280000D02*
D03*
X438500D02*
D03*
X278500Y25000D02*
D03*
X271500D02*
D03*
D43*
X395571Y343740D02*
D03*
Y340000D02*
D03*
Y336260D02*
D03*
X404429Y343740D02*
D03*
Y336260D02*
D03*
X395571Y303740D02*
D03*
Y300000D02*
D03*
Y296260D02*
D03*
X404429Y303740D02*
D03*
Y296260D02*
D03*
X395571Y126240D02*
D03*
Y122500D02*
D03*
Y118760D02*
D03*
X404429Y126240D02*
D03*
Y118760D02*
D03*
X395571Y166240D02*
D03*
Y162500D02*
D03*
Y158760D02*
D03*
X404429Y166240D02*
D03*
Y158760D02*
D03*
D44*
X348681Y272677D02*
D03*
Y270118D02*
D03*
Y267559D02*
D03*
Y265000D02*
D03*
Y262441D02*
D03*
Y259882D02*
D03*
Y257323D02*
D03*
X371319Y272677D02*
D03*
Y270118D02*
D03*
Y267559D02*
D03*
Y265000D02*
D03*
Y262441D02*
D03*
Y259882D02*
D03*
Y257323D02*
D03*
X348681Y222677D02*
D03*
Y220118D02*
D03*
Y217559D02*
D03*
Y215000D02*
D03*
Y212441D02*
D03*
Y209882D02*
D03*
Y207323D02*
D03*
X371319Y222677D02*
D03*
Y220118D02*
D03*
Y217559D02*
D03*
Y215000D02*
D03*
Y212441D02*
D03*
Y209882D02*
D03*
Y207323D02*
D03*
D45*
X496417Y142500D02*
D03*
X494917Y269200D02*
D03*
D46*
X473583Y133445D02*
D03*
Y142500D02*
D03*
Y151555D02*
D03*
X472083Y260145D02*
D03*
Y269200D02*
D03*
Y278255D02*
D03*
D47*
X430000Y40000D02*
D03*
X450000Y400000D02*
D03*
X460000Y370000D02*
D03*
X350000D02*
D03*
X460000Y70000D02*
D03*
X350000D02*
D03*
D48*
X440000Y40000D02*
D03*
X450000D02*
D03*
X20000Y35000D02*
D03*
Y45000D02*
D03*
Y55000D02*
D03*
Y65000D02*
D03*
Y75000D02*
D03*
Y85000D02*
D03*
Y95000D02*
D03*
Y105000D02*
D03*
Y115000D02*
D03*
Y125000D02*
D03*
Y135000D02*
D03*
Y145000D02*
D03*
Y155000D02*
D03*
Y165000D02*
D03*
Y175000D02*
D03*
Y185000D02*
D03*
Y195000D02*
D03*
Y205000D02*
D03*
Y215000D02*
D03*
X50000Y35000D02*
D03*
Y45000D02*
D03*
Y55000D02*
D03*
Y65000D02*
D03*
Y75000D02*
D03*
Y85000D02*
D03*
Y95000D02*
D03*
Y105000D02*
D03*
Y115000D02*
D03*
Y125000D02*
D03*
Y135000D02*
D03*
Y145000D02*
D03*
Y155000D02*
D03*
Y165000D02*
D03*
Y175000D02*
D03*
Y185000D02*
D03*
Y195000D02*
D03*
Y205000D02*
D03*
Y215000D02*
D03*
Y295000D02*
D03*
Y305000D02*
D03*
Y315000D02*
D03*
Y325000D02*
D03*
Y335000D02*
D03*
Y345000D02*
D03*
Y355000D02*
D03*
Y365000D02*
D03*
Y375000D02*
D03*
Y385000D02*
D03*
Y395000D02*
D03*
Y405000D02*
D03*
Y415000D02*
D03*
Y425000D02*
D03*
Y435000D02*
D03*
Y445000D02*
D03*
Y455000D02*
D03*
Y465000D02*
D03*
Y475000D02*
D03*
X20000Y295000D02*
D03*
Y305000D02*
D03*
Y315000D02*
D03*
Y325000D02*
D03*
Y335000D02*
D03*
Y345000D02*
D03*
Y355000D02*
D03*
Y365000D02*
D03*
Y375000D02*
D03*
Y385000D02*
D03*
Y395000D02*
D03*
Y405000D02*
D03*
Y415000D02*
D03*
Y425000D02*
D03*
Y435000D02*
D03*
Y445000D02*
D03*
Y455000D02*
D03*
Y465000D02*
D03*
Y475000D02*
D03*
X440000Y400000D02*
D03*
X430000D02*
D03*
X480000Y370000D02*
D03*
X550000D02*
D03*
X540000D02*
D03*
X530000D02*
D03*
X520000D02*
D03*
X510000D02*
D03*
X500000D02*
D03*
X490000D02*
D03*
X470000D02*
D03*
X370000D02*
D03*
X440000D02*
D03*
X430000D02*
D03*
X420000D02*
D03*
X410000D02*
D03*
X400000D02*
D03*
X390000D02*
D03*
X380000D02*
D03*
X360000D02*
D03*
X480000Y70000D02*
D03*
X550000D02*
D03*
X540000D02*
D03*
X530000D02*
D03*
X520000D02*
D03*
X510000D02*
D03*
X500000D02*
D03*
X490000D02*
D03*
X470000D02*
D03*
X370000D02*
D03*
X440000D02*
D03*
X430000D02*
D03*
X420000D02*
D03*
X410000D02*
D03*
X400000D02*
D03*
X390000D02*
D03*
X380000D02*
D03*
X360000D02*
D03*
D49*
X457283Y457598D02*
D03*
Y475315D02*
D03*
X307283Y457598D02*
D03*
Y475315D02*
D03*
X532283Y457598D02*
D03*
Y475315D02*
D03*
X382283Y457598D02*
D03*
Y475315D02*
D03*
D50*
X20000Y25000D02*
D03*
X50000D02*
D03*
Y285000D02*
D03*
X20000D02*
D03*
D51*
X535000Y275591D02*
D03*
Y135591D02*
D03*
Y345591D02*
D03*
Y205591D02*
D03*
D52*
Y234409D02*
D03*
Y94409D02*
D03*
Y304409D02*
D03*
Y164409D02*
D03*
D53*
X190000Y25000D02*
D03*
D54*
X210000D02*
D03*
D55*
X75000Y475000D02*
D03*
Y25000D02*
D03*
D56*
X360500Y299700D02*
D03*
X369200Y291000D02*
D03*
X87204Y180000D02*
D03*
X43700Y172000D02*
D03*
X71647Y184700D02*
D03*
X86200Y190000D02*
D03*
X87300Y203400D02*
D03*
X179300Y276100D02*
D03*
X341100Y225000D02*
D03*
X281100Y290000D02*
D03*
X341400Y273200D02*
D03*
X313500Y385000D02*
D03*
X210200Y265300D02*
D03*
X10000Y389500D02*
D03*
X206300Y309600D02*
D03*
X160000Y98700D02*
D03*
X69400Y37400D02*
D03*
X21400Y15600D02*
D03*
X138200Y176000D02*
D03*
X138000Y184000D02*
D03*
X185100Y243200D02*
D03*
X105100Y405000D02*
D03*
X208800Y252500D02*
D03*
X162300Y125000D02*
D03*
Y272500D02*
D03*
X91200Y250500D02*
D03*
X233000Y258900D02*
D03*
X107000Y415000D02*
D03*
X9900Y367300D02*
D03*
X116000Y296400D02*
D03*
X41200Y339400D02*
D03*
X114800Y338300D02*
D03*
X117000Y328400D02*
D03*
X35600Y352300D02*
D03*
X88300Y362800D02*
D03*
X95200Y399600D02*
D03*
X117600Y345000D02*
D03*
X138300Y209800D02*
D03*
X887400Y280300D02*
D03*
X921000Y108700D02*
D03*
X690100Y185000D02*
D03*
X1038300Y155000D02*
D03*
X889650Y297550D02*
D03*
X257300Y292000D02*
D03*
X962700Y315000D02*
D03*
X958100Y374500D02*
D03*
X812800Y294900D02*
D03*
X1027600Y426884D02*
D03*
X974300Y379200D02*
D03*
X727700Y96000D02*
D03*
X675500Y74400D02*
D03*
X796516Y159916D02*
D03*
X727000Y106200D02*
D03*
X794000Y362800D02*
D03*
X907800Y326700D02*
D03*
X945000Y56400D02*
D03*
X768700Y469200D02*
D03*
X876200Y478100D02*
D03*
X918300Y385300D02*
D03*
X1038300Y192700D02*
D03*
X949863Y276363D02*
D03*
X950900Y56200D02*
D03*
X1000100Y59700D02*
D03*
X978100Y260300D02*
D03*
X781300Y362400D02*
D03*
X758300Y351200D02*
D03*
X658500Y175000D02*
D03*
X1068200Y192100D02*
D03*
X966700Y263100D02*
D03*
X347600Y278100D02*
D03*
Y251900D02*
D03*
X1004400Y426200D02*
D03*
Y416500D02*
D03*
X943903Y15100D02*
D03*
X913700Y61900D02*
D03*
X925000Y59800D02*
D03*
X918400Y16000D02*
D03*
X604402Y15200D02*
D03*
X703543Y125000D02*
D03*
X776043Y163300D02*
D03*
X936200Y246800D02*
D03*
X952700Y238900D02*
D03*
X739000Y372900D02*
D03*
X729100Y378900D02*
D03*
X673000Y417400D02*
D03*
X927800Y112300D02*
D03*
X996457Y106300D02*
D03*
X772500Y140900D02*
D03*
X918200Y147100D02*
D03*
X1004200Y352700D02*
D03*
X1060200Y408700D02*
D03*
X890300Y405700D02*
D03*
X857500Y397500D02*
D03*
X788300Y118043D02*
D03*
X864200Y110043D02*
D03*
X923957Y136957D02*
D03*
X937300Y27000D02*
D03*
X673300Y428500D02*
D03*
X706916Y422700D02*
D03*
X1026000Y71500D02*
D03*
X1032102Y28602D02*
D03*
X989700Y206300D02*
D03*
X770964Y201236D02*
D03*
X871800Y201800D02*
D03*
X770400Y195500D02*
D03*
X726900Y197500D02*
D03*
X875800Y197800D02*
D03*
X900000D02*
D03*
X190000Y142000D02*
D03*
X687100Y28800D02*
D03*
X689300Y123400D02*
D03*
X682800Y148700D02*
D03*
X971700Y430700D02*
D03*
X1013304Y435100D02*
D03*
X998300Y427600D02*
D03*
X1033402Y436700D02*
D03*
X781600Y410200D02*
D03*
X781400Y394900D02*
D03*
X808400Y367600D02*
D03*
X789600Y382400D02*
D03*
X793300Y412900D02*
D03*
X778300Y402300D02*
D03*
X662500Y429200D02*
D03*
X630000Y438300D02*
D03*
X633500Y444200D02*
D03*
X644100Y435100D02*
D03*
X871100Y472800D02*
D03*
X869000Y373800D02*
D03*
X898064Y394964D02*
D03*
X884400Y443200D02*
D03*
X779900Y303200D02*
D03*
X794000Y295900D02*
D03*
X891500Y316400D02*
D03*
X948100Y463400D02*
D03*
X814300Y110200D02*
D03*
X816102Y120500D02*
D03*
X831000Y112000D02*
D03*
X828900Y202072D02*
D03*
X816600Y126400D02*
D03*
X817200Y202900D02*
D03*
X662000Y329800D02*
D03*
Y289300D02*
D03*
X740800Y270600D02*
D03*
X742500Y243500D02*
D03*
X911161Y240400D02*
D03*
X943300Y258500D02*
D03*
X835000Y305900D02*
D03*
X842400Y226300D02*
D03*
X901300Y224100D02*
D03*
X900604Y100204D02*
D03*
X626800Y31600D02*
D03*
X619400Y329900D02*
D03*
X616200Y309200D02*
D03*
Y64200D02*
D03*
X890800Y107768D02*
D03*
Y127400D02*
D03*
X749900Y176900D02*
D03*
Y312000D02*
D03*
X748800Y317600D02*
D03*
X744400Y181000D02*
D03*
X907100Y130100D02*
D03*
X737700Y307500D02*
D03*
X738100Y184800D02*
D03*
X908500Y122100D02*
D03*
X743300Y294750D02*
D03*
X745300Y250100D02*
D03*
X899300Y247400D02*
D03*
X701400Y307100D02*
D03*
X701000Y289000D02*
D03*
X707900Y337500D02*
D03*
X689765Y268200D02*
D03*
X710800Y349900D02*
D03*
X631700Y338900D02*
D03*
X662000Y255400D02*
D03*
X662400Y235400D02*
D03*
X662000Y215000D02*
D03*
X662300Y95000D02*
D03*
X670400Y84000D02*
D03*
X705700Y76300D02*
D03*
X719100Y105700D02*
D03*
X791600Y88700D02*
D03*
X810000Y57900D02*
D03*
X936100Y123200D02*
D03*
X928700Y178900D02*
D03*
X789600Y181500D02*
D03*
X790700Y172300D02*
D03*
X914200Y168400D02*
D03*
X916000Y98100D02*
D03*
X801600Y209800D02*
D03*
X732500Y208700D02*
D03*
X908400Y56200D02*
D03*
X998200Y144100D02*
D03*
X992898Y125100D02*
D03*
X938245Y56500D02*
D03*
X975061Y149400D02*
D03*
X966300Y120200D02*
D03*
Y100000D02*
D03*
X840000Y23700D02*
D03*
X735300Y57100D02*
D03*
X730200Y278600D02*
D03*
X934100Y259000D02*
D03*
X891400Y322100D02*
D03*
X845300Y291500D02*
D03*
X842600Y170100D02*
D03*
X738200Y173300D02*
D03*
Y48483D02*
D03*
X800000Y31700D02*
D03*
X918800Y321300D02*
D03*
X808000Y284800D02*
D03*
X803600Y198600D02*
D03*
X747100Y200400D02*
D03*
X780100Y30950D02*
D03*
X913720Y318500D02*
D03*
X1052200Y365400D02*
D03*
X1059900Y35100D02*
D03*
X754300Y12100D02*
D03*
X732100Y34300D02*
D03*
X613400Y72600D02*
D03*
X709200Y411000D02*
D03*
X906300Y338400D02*
D03*
X729700Y45600D02*
D03*
X740200Y312700D02*
D03*
X906700Y320300D02*
D03*
X899700Y318500D02*
D03*
X985000Y308200D02*
D03*
X1001014Y249600D02*
D03*
X729100Y6100D02*
D03*
X725100Y37600D02*
D03*
X1061600Y351000D02*
D03*
X1068200Y331700D02*
D03*
X1068300Y316900D02*
D03*
X1060900Y361300D02*
D03*
X1021300Y390900D02*
D03*
X982100Y375900D02*
D03*
X1043900Y229839D02*
D03*
X1043100Y216500D02*
D03*
X1042600Y72100D02*
D03*
X1056000Y58700D02*
D03*
X1082300Y192700D02*
D03*
X379300Y265000D02*
D03*
X438500Y273100D02*
D03*
X380400Y213600D02*
D03*
X541900Y291000D02*
D03*
X416260Y310200D02*
D03*
X889700Y440800D02*
D03*
X1049300Y428000D02*
D03*
X792900Y470300D02*
D03*
X662500Y451400D02*
D03*
X689000Y448839D02*
D03*
X814600Y412900D02*
D03*
X838900Y443000D02*
D03*
X666020Y446280D02*
D03*
X692500Y454000D02*
D03*
X849452Y439048D02*
D03*
X678121Y425700D02*
D03*
X855000Y409900D02*
D03*
X875200Y391800D02*
D03*
X889000Y396600D02*
D03*
X818300Y62200D02*
D03*
X844595Y87095D02*
D03*
X847200Y298800D02*
D03*
X787720Y296700D02*
D03*
X851700Y129500D02*
D03*
X794000Y120800D02*
D03*
X859000Y58400D02*
D03*
X788800Y56300D02*
D03*
X866100Y122200D02*
D03*
X808400Y133600D02*
D03*
X883900Y62500D02*
D03*
X906300Y103500D02*
D03*
X880300Y87300D02*
D03*
X907700Y111000D02*
D03*
X905900Y180100D02*
D03*
X827300Y92300D02*
D03*
X900043Y170043D02*
D03*
X843500Y159900D02*
D03*
X806400Y62700D02*
D03*
X883400Y122700D02*
D03*
X879600Y142500D02*
D03*
X795000Y95000D02*
D03*
X864400Y143100D02*
D03*
X781000Y93200D02*
D03*
X762700Y134600D02*
D03*
X871000Y143584D02*
D03*
X629900Y324300D02*
D03*
X673600Y364300D02*
D03*
X684900Y370400D02*
D03*
X630700Y305400D02*
D03*
X626200Y71900D02*
D03*
X640800Y57300D02*
D03*
X655300Y200000D02*
D03*
X658300Y63400D02*
D03*
X687000Y291400D02*
D03*
X734300Y290600D02*
D03*
X735100Y215700D02*
D03*
X782100Y222500D02*
D03*
X773300Y264800D02*
D03*
X705700Y270500D02*
D03*
X687000Y301000D02*
D03*
X754500Y287500D02*
D03*
Y213800D02*
D03*
X789100Y218500D02*
D03*
X693000Y281700D02*
D03*
X780900Y266400D02*
D03*
X974700Y70900D02*
D03*
X1034500Y111600D02*
D03*
X1041200Y123700D02*
D03*
X990600Y102600D02*
D03*
X1041100Y108900D02*
D03*
X967900Y67765D02*
D03*
X997000Y64300D02*
D03*
X1045200Y104000D02*
D03*
X997700Y51500D02*
D03*
X1052400Y93300D02*
D03*
X1039900Y235000D02*
D03*
X925700Y259100D02*
D03*
X1002300Y281107D02*
D03*
X915700Y270900D02*
D03*
X1038800Y274100D02*
D03*
X919500Y263000D02*
D03*
X1042400Y298600D02*
D03*
X908602Y296000D02*
D03*
X1013500Y279000D02*
D03*
X963800Y275600D02*
D03*
Y293300D02*
D03*
X907200Y278600D02*
D03*
X221900Y299000D02*
D03*
X355100Y245100D02*
D03*
X185100Y260000D02*
D03*
X267700Y296400D02*
D03*
X233600Y233300D02*
D03*
X406300Y286400D02*
D03*
X333000Y298000D02*
D03*
X306500Y350100D02*
D03*
X42700Y200000D02*
D03*
X138300Y291500D02*
D03*
X201700Y261500D02*
D03*
X145200Y285500D02*
D03*
X140000Y275200D02*
D03*
X308800Y310000D02*
D03*
X231800Y279000D02*
D03*
X156000Y269600D02*
D03*
X119800Y314900D02*
D03*
X148600Y75000D02*
D03*
X385100Y78900D02*
D03*
X412600Y286000D02*
D03*
X159400Y105000D02*
D03*
Y277400D02*
D03*
X258900Y285300D02*
D03*
X271400Y289800D02*
D03*
X79500Y113600D02*
D03*
X40500Y99400D02*
D03*
X194800Y260200D02*
D03*
X256800Y445000D02*
D03*
X331800Y279800D02*
D03*
X248500Y425000D02*
D03*
X309800Y273400D02*
D03*
X69500Y300000D02*
D03*
X60000Y376000D02*
D03*
X230800Y223400D02*
D03*
X295500Y419800D02*
D03*
X1052300Y77800D02*
D03*
X722300Y9100D02*
D03*
X659400Y423284D02*
D03*
X735700Y359900D02*
D03*
X741800D02*
D03*
X765000Y365100D02*
D03*
X896900Y337277D02*
D03*
X863000Y360600D02*
D03*
X962900Y235700D02*
D03*
X956800Y221800D02*
D03*
X656300Y188800D02*
D03*
X984900Y240700D02*
D03*
X626700Y427500D02*
D03*
X386500D02*
D03*
X774043Y170500D02*
D03*
X804300Y166900D02*
D03*
X663300Y169900D02*
D03*
X594300Y15100D02*
D03*
X776300Y295900D02*
D03*
X923957Y328700D02*
D03*
X867600Y387800D02*
D03*
X795800Y390287D02*
D03*
X738525Y389800D02*
D03*
X1068000Y464800D02*
D03*
X1041700Y453400D02*
D03*
X669300Y421500D02*
D03*
X1009100Y115600D02*
D03*
X690100Y47700D02*
D03*
X658300D02*
D03*
X760700Y286000D02*
D03*
X661700Y299100D02*
D03*
X1060200Y417100D02*
D03*
X702100Y379000D02*
D03*
X845000Y387000D02*
D03*
X553600Y420200D02*
D03*
X712500Y125000D02*
D03*
X653800Y71400D02*
D03*
X1063200Y423200D02*
D03*
X1052500D02*
D03*
X1069100Y248000D02*
D03*
X288800Y366100D02*
D03*
X430000Y340000D02*
D03*
X1033100Y431000D02*
D03*
X1005000Y438300D02*
D03*
X998500Y434900D02*
D03*
X1013800Y428200D02*
D03*
X803900Y395100D02*
D03*
X796300Y402600D02*
D03*
X784900Y405200D02*
D03*
X787800Y411000D02*
D03*
X659700Y435900D02*
D03*
X644000Y446600D02*
D03*
X638000Y449500D02*
D03*
X638500Y440700D02*
D03*
X883400Y384500D02*
D03*
X898500Y402100D02*
D03*
X882000Y475300D02*
D03*
X869000Y380700D02*
D03*
X881600Y469200D02*
D03*
X875700Y437200D02*
D03*
X869100Y367600D02*
D03*
X874000Y443100D02*
D03*
X770500Y300300D02*
D03*
X782700Y278700D02*
D03*
X789820Y275900D02*
D03*
X801200Y271900D02*
D03*
Y281500D02*
D03*
X789000D02*
D03*
X809200Y274700D02*
D03*
X1066800Y444600D02*
D03*
X1073500Y271600D02*
D03*
X793400Y268000D02*
D03*
X826000Y211100D02*
D03*
X823100Y223600D02*
D03*
X914703Y231100D02*
D03*
X933700Y225300D02*
D03*
X918839Y222300D02*
D03*
X930500Y243900D02*
D03*
X939400Y252600D02*
D03*
X887700Y257100D02*
D03*
X661400Y269500D02*
D03*
X656900Y335000D02*
D03*
X893700Y254100D02*
D03*
X692600Y303700D02*
D03*
X662400Y245000D02*
D03*
X629000Y215100D02*
D03*
X631800Y201000D02*
D03*
X665100Y79400D02*
D03*
X679900Y91900D02*
D03*
X677100Y86400D02*
D03*
X692700Y76400D02*
D03*
X713500Y67200D02*
D03*
X712700Y79000D02*
D03*
X718100Y77900D02*
D03*
X719300Y58000D02*
D03*
X717700Y51700D02*
D03*
X773200Y181500D02*
D03*
X824400Y107500D02*
D03*
X781500Y181200D02*
D03*
X840100D02*
D03*
X840700Y104900D02*
D03*
X779800Y197900D02*
D03*
X844900Y194700D02*
D03*
X841800Y92900D02*
D03*
X786280Y195900D02*
D03*
X741600Y196200D02*
D03*
X785000Y26200D02*
D03*
X860523Y29177D02*
D03*
X986220Y145780D02*
D03*
X971100Y131700D02*
D03*
Y96300D02*
D03*
X837200Y29700D02*
D03*
X1056700Y353800D02*
D03*
X974000Y294000D02*
D03*
X972400Y274100D02*
D03*
X957300Y250600D02*
D03*
X1071100Y265000D02*
D03*
X1041500Y249000D02*
D03*
X1058620Y51720D02*
D03*
X364100Y257700D02*
D03*
X431500Y266300D02*
D03*
X408100Y112600D02*
D03*
X427700D02*
D03*
X379900Y200300D02*
D03*
X442100Y138100D02*
D03*
X398600Y134200D02*
D03*
X896600Y439600D02*
D03*
X1043800Y426000D02*
D03*
X672500Y468600D02*
D03*
X774900Y467700D02*
D03*
X688661Y440900D02*
D03*
X843800Y437700D02*
D03*
X914643Y366043D02*
D03*
X945000Y396400D02*
D03*
X761500Y144400D02*
D03*
X761900Y107800D02*
D03*
X775000Y58200D02*
D03*
X756000D02*
D03*
X856500Y144300D02*
D03*
X803100D02*
D03*
X778900Y130800D02*
D03*
X887300Y140000D02*
D03*
X911800Y104200D02*
D03*
X895000Y87400D02*
D03*
X906600Y144200D02*
D03*
X861500Y125600D02*
D03*
X861000Y194700D02*
D03*
X906400Y196100D02*
D03*
X867400Y99600D02*
D03*
X832262Y94900D02*
D03*
X861100Y165000D02*
D03*
X773000Y93800D02*
D03*
X880600Y160700D02*
D03*
X758700Y125800D02*
D03*
X682000Y376000D02*
D03*
X650000Y367800D02*
D03*
X629900Y331800D02*
D03*
X680600Y358800D02*
D03*
X768700Y272900D02*
D03*
X711500Y280000D02*
D03*
X687600Y283000D02*
D03*
X769500Y282100D02*
D03*
X784700Y230000D02*
D03*
X741200Y224000D02*
D03*
X686400Y359900D02*
D03*
X763100Y301600D02*
D03*
X1046300Y114400D02*
D03*
X992038Y74500D02*
D03*
X983800Y98500D02*
D03*
X1043700Y199600D02*
D03*
X1075700Y192400D02*
D03*
X977200Y104500D02*
D03*
X982500Y287900D02*
D03*
X921100Y275500D02*
D03*
X918600Y281000D02*
D03*
X995000Y290300D02*
D03*
X928500Y280700D02*
D03*
X990300Y284000D02*
D03*
X350400Y233300D02*
D03*
X248200Y291600D02*
D03*
M02*
