G04 Layer_Color=128*
%FSLAX25Y25*%
%MOIN*%
G70*
G01*
G75*
%ADD10O,0.05512X0.01870*%
%ADD11O,0.01870X0.05512*%
%ADD12R,0.03937X0.07874*%
%ADD13R,0.07874X0.03937*%
%ADD17C,0.01000*%
D10*
X25886Y77793D02*
D03*
Y80352D02*
D03*
Y82911D02*
D03*
Y85470D02*
D03*
Y88030D02*
D03*
Y90589D02*
D03*
Y93148D02*
D03*
Y95707D02*
D03*
X49114Y77793D02*
D03*
Y80352D02*
D03*
Y82911D02*
D03*
Y85470D02*
D03*
Y88030D02*
D03*
Y90589D02*
D03*
Y93148D02*
D03*
Y95707D02*
D03*
X498386Y451793D02*
D03*
Y454352D02*
D03*
Y456911D02*
D03*
Y459470D02*
D03*
Y462030D02*
D03*
Y464589D02*
D03*
Y467148D02*
D03*
Y469707D02*
D03*
X521614Y451793D02*
D03*
Y454352D02*
D03*
Y456911D02*
D03*
Y459470D02*
D03*
Y462030D02*
D03*
Y464589D02*
D03*
Y467148D02*
D03*
Y469707D02*
D03*
X101614Y73457D02*
D03*
Y70898D02*
D03*
Y68339D02*
D03*
Y65780D02*
D03*
Y63220D02*
D03*
Y60661D02*
D03*
Y58102D02*
D03*
Y55543D02*
D03*
X78386Y73457D02*
D03*
Y70898D02*
D03*
Y68339D02*
D03*
Y65780D02*
D03*
Y63220D02*
D03*
Y60661D02*
D03*
Y58102D02*
D03*
Y55543D02*
D03*
X101614Y113457D02*
D03*
Y110898D02*
D03*
Y108339D02*
D03*
Y105780D02*
D03*
Y103220D02*
D03*
Y100661D02*
D03*
Y98102D02*
D03*
Y95543D02*
D03*
X78386Y113457D02*
D03*
Y110898D02*
D03*
Y108339D02*
D03*
Y105780D02*
D03*
Y103220D02*
D03*
Y100661D02*
D03*
Y98102D02*
D03*
Y95543D02*
D03*
X101614Y153457D02*
D03*
Y150898D02*
D03*
Y148339D02*
D03*
Y145780D02*
D03*
Y143220D02*
D03*
Y140661D02*
D03*
Y138102D02*
D03*
Y135543D02*
D03*
X78386Y153457D02*
D03*
Y150898D02*
D03*
Y148339D02*
D03*
Y145780D02*
D03*
Y143220D02*
D03*
Y140661D02*
D03*
Y138102D02*
D03*
Y135543D02*
D03*
X445886Y432143D02*
D03*
Y434702D02*
D03*
Y437261D02*
D03*
Y439820D02*
D03*
Y442380D02*
D03*
Y444939D02*
D03*
Y447498D02*
D03*
Y450057D02*
D03*
X469114Y432143D02*
D03*
Y434702D02*
D03*
Y437261D02*
D03*
Y439820D02*
D03*
Y442380D02*
D03*
Y444939D02*
D03*
Y447498D02*
D03*
Y450057D02*
D03*
X445886Y393843D02*
D03*
Y396402D02*
D03*
Y398961D02*
D03*
Y401520D02*
D03*
Y404080D02*
D03*
Y406639D02*
D03*
Y409198D02*
D03*
Y411757D02*
D03*
X469114Y393843D02*
D03*
Y396402D02*
D03*
Y398961D02*
D03*
Y401520D02*
D03*
Y404080D02*
D03*
Y406639D02*
D03*
Y409198D02*
D03*
Y411757D02*
D03*
X445886Y513543D02*
D03*
Y516102D02*
D03*
Y518661D02*
D03*
Y521220D02*
D03*
Y523780D02*
D03*
Y526339D02*
D03*
Y528898D02*
D03*
Y531457D02*
D03*
X469114Y513543D02*
D03*
Y516102D02*
D03*
Y518661D02*
D03*
Y521220D02*
D03*
Y523780D02*
D03*
Y526339D02*
D03*
Y528898D02*
D03*
Y531457D02*
D03*
X445886Y473743D02*
D03*
Y476302D02*
D03*
Y478861D02*
D03*
Y481420D02*
D03*
Y483980D02*
D03*
Y486539D02*
D03*
Y489098D02*
D03*
Y491657D02*
D03*
X469114Y473743D02*
D03*
Y476302D02*
D03*
Y478861D02*
D03*
Y481420D02*
D03*
Y483980D02*
D03*
Y486539D02*
D03*
Y489098D02*
D03*
Y491657D02*
D03*
X101614Y33457D02*
D03*
Y30898D02*
D03*
Y28339D02*
D03*
Y25780D02*
D03*
Y23220D02*
D03*
Y20661D02*
D03*
Y18102D02*
D03*
Y15543D02*
D03*
X78386Y33457D02*
D03*
Y30898D02*
D03*
Y28339D02*
D03*
Y25780D02*
D03*
Y23220D02*
D03*
Y20661D02*
D03*
Y18102D02*
D03*
Y15543D02*
D03*
D11*
X451793Y49114D02*
D03*
X454352D02*
D03*
X456911D02*
D03*
X459470D02*
D03*
X462030D02*
D03*
X464589D02*
D03*
X467148D02*
D03*
X469707D02*
D03*
X451793Y25886D02*
D03*
X454352D02*
D03*
X456911D02*
D03*
X459470D02*
D03*
X462030D02*
D03*
X464589D02*
D03*
X467148D02*
D03*
X469707D02*
D03*
X76793Y516114D02*
D03*
X79352D02*
D03*
X81911D02*
D03*
X84470D02*
D03*
X87030D02*
D03*
X89589D02*
D03*
X92148D02*
D03*
X94707D02*
D03*
X76793Y492886D02*
D03*
X79352D02*
D03*
X81911D02*
D03*
X84470D02*
D03*
X87030D02*
D03*
X89589D02*
D03*
X92148D02*
D03*
X94707D02*
D03*
X113357Y445886D02*
D03*
X110798D02*
D03*
X108239D02*
D03*
X105680D02*
D03*
X103120D02*
D03*
X100561D02*
D03*
X98002D02*
D03*
X95443D02*
D03*
X113357Y469114D02*
D03*
X110798D02*
D03*
X108239D02*
D03*
X105680D02*
D03*
X103120D02*
D03*
X100561D02*
D03*
X98002D02*
D03*
X95443D02*
D03*
X33857Y445886D02*
D03*
X31298D02*
D03*
X28739D02*
D03*
X26180D02*
D03*
X23620D02*
D03*
X21061D02*
D03*
X18502D02*
D03*
X15943D02*
D03*
X33857Y469114D02*
D03*
X31298D02*
D03*
X28739D02*
D03*
X26180D02*
D03*
X23620D02*
D03*
X21061D02*
D03*
X18502D02*
D03*
X15943D02*
D03*
X512843Y101614D02*
D03*
X515402D02*
D03*
X517961D02*
D03*
X520520D02*
D03*
X523080D02*
D03*
X525639D02*
D03*
X528198D02*
D03*
X530757D02*
D03*
X512843Y78386D02*
D03*
X515402D02*
D03*
X517961D02*
D03*
X520520D02*
D03*
X523080D02*
D03*
X525639D02*
D03*
X528198D02*
D03*
X530757D02*
D03*
X473643Y101614D02*
D03*
X476202D02*
D03*
X478761D02*
D03*
X481320D02*
D03*
X483880D02*
D03*
X486439D02*
D03*
X488998D02*
D03*
X491557D02*
D03*
X473643Y78386D02*
D03*
X476202D02*
D03*
X478761D02*
D03*
X481320D02*
D03*
X483880D02*
D03*
X486439D02*
D03*
X488998D02*
D03*
X491557D02*
D03*
X433543Y101614D02*
D03*
X436102D02*
D03*
X438661D02*
D03*
X441220D02*
D03*
X443780D02*
D03*
X446339D02*
D03*
X448898D02*
D03*
X451457D02*
D03*
X433543Y78386D02*
D03*
X436102D02*
D03*
X438661D02*
D03*
X441220D02*
D03*
X443780D02*
D03*
X446339D02*
D03*
X448898D02*
D03*
X451457D02*
D03*
X393543Y101614D02*
D03*
X396102D02*
D03*
X398661D02*
D03*
X401220D02*
D03*
X403780D02*
D03*
X406339D02*
D03*
X408898D02*
D03*
X411457D02*
D03*
X393543Y78386D02*
D03*
X396102D02*
D03*
X398661D02*
D03*
X401220D02*
D03*
X403780D02*
D03*
X406339D02*
D03*
X408898D02*
D03*
X411457D02*
D03*
X73557Y445886D02*
D03*
X70998D02*
D03*
X68439D02*
D03*
X65880D02*
D03*
X63320D02*
D03*
X60761D02*
D03*
X58202D02*
D03*
X55643D02*
D03*
X73557Y469114D02*
D03*
X70998D02*
D03*
X68439D02*
D03*
X65880D02*
D03*
X63320D02*
D03*
X60761D02*
D03*
X58202D02*
D03*
X55643D02*
D03*
X153257Y445886D02*
D03*
X150698D02*
D03*
X148139D02*
D03*
X145580D02*
D03*
X143020D02*
D03*
X140461D02*
D03*
X137902D02*
D03*
X135343D02*
D03*
X153257Y469114D02*
D03*
X150698D02*
D03*
X148139D02*
D03*
X145580D02*
D03*
X143020D02*
D03*
X140461D02*
D03*
X137902D02*
D03*
X135343D02*
D03*
D12*
X328750Y475354D02*
D03*
X348750D02*
D03*
X358750D02*
D03*
X368750D02*
D03*
X338750D02*
D03*
X288750D02*
D03*
X318750D02*
D03*
X308750D02*
D03*
X298750D02*
D03*
X278750D02*
D03*
X238750D02*
D03*
X268750D02*
D03*
X258750D02*
D03*
X248750D02*
D03*
X228750D02*
D03*
X188750D02*
D03*
X218750D02*
D03*
X208750D02*
D03*
X198750D02*
D03*
X178750D02*
D03*
Y444646D02*
D03*
X198750D02*
D03*
X208750D02*
D03*
X218750D02*
D03*
X188750D02*
D03*
X228750D02*
D03*
X248750D02*
D03*
X258750D02*
D03*
X268750D02*
D03*
X238750D02*
D03*
X278750D02*
D03*
X298750D02*
D03*
X308750D02*
D03*
X318750D02*
D03*
X288750D02*
D03*
X338750D02*
D03*
X368750D02*
D03*
X358750D02*
D03*
X348750D02*
D03*
X328750D02*
D03*
X218750Y72146D02*
D03*
X198750D02*
D03*
X188750D02*
D03*
X178750D02*
D03*
X208750D02*
D03*
X258750D02*
D03*
X228750D02*
D03*
X238750D02*
D03*
X248750D02*
D03*
X268750D02*
D03*
X308750D02*
D03*
X278750D02*
D03*
X288750D02*
D03*
X298750D02*
D03*
X318750D02*
D03*
X358750D02*
D03*
X328750D02*
D03*
X338750D02*
D03*
X348750D02*
D03*
X368750D02*
D03*
Y102854D02*
D03*
X348750D02*
D03*
X338750D02*
D03*
X328750D02*
D03*
X358750D02*
D03*
X318750D02*
D03*
X298750D02*
D03*
X288750D02*
D03*
X278750D02*
D03*
X308750D02*
D03*
X268750D02*
D03*
X248750D02*
D03*
X238750D02*
D03*
X228750D02*
D03*
X258750D02*
D03*
X208750D02*
D03*
X178750D02*
D03*
X188750D02*
D03*
X198750D02*
D03*
X218750D02*
D03*
D13*
X72146Y328750D02*
D03*
Y348750D02*
D03*
Y358750D02*
D03*
Y368750D02*
D03*
Y338750D02*
D03*
Y288750D02*
D03*
Y318750D02*
D03*
Y308750D02*
D03*
Y298750D02*
D03*
Y278750D02*
D03*
Y238750D02*
D03*
Y268750D02*
D03*
Y258750D02*
D03*
Y248750D02*
D03*
Y228750D02*
D03*
Y188750D02*
D03*
Y218750D02*
D03*
Y208750D02*
D03*
Y198750D02*
D03*
Y178750D02*
D03*
X102854D02*
D03*
Y198750D02*
D03*
Y208750D02*
D03*
Y218750D02*
D03*
Y188750D02*
D03*
Y228750D02*
D03*
Y248750D02*
D03*
Y258750D02*
D03*
Y268750D02*
D03*
Y238750D02*
D03*
Y278750D02*
D03*
Y298750D02*
D03*
Y308750D02*
D03*
Y318750D02*
D03*
Y288750D02*
D03*
Y338750D02*
D03*
Y368750D02*
D03*
Y358750D02*
D03*
Y348750D02*
D03*
Y328750D02*
D03*
X475354Y218750D02*
D03*
Y198750D02*
D03*
Y188750D02*
D03*
Y178750D02*
D03*
Y208750D02*
D03*
Y258750D02*
D03*
Y228750D02*
D03*
Y238750D02*
D03*
Y248750D02*
D03*
Y268750D02*
D03*
Y308750D02*
D03*
Y278750D02*
D03*
Y288750D02*
D03*
Y298750D02*
D03*
Y318750D02*
D03*
Y358750D02*
D03*
Y328750D02*
D03*
Y338750D02*
D03*
Y348750D02*
D03*
Y368750D02*
D03*
X444646D02*
D03*
Y348750D02*
D03*
Y338750D02*
D03*
Y328750D02*
D03*
Y358750D02*
D03*
Y318750D02*
D03*
Y298750D02*
D03*
Y288750D02*
D03*
Y278750D02*
D03*
Y308750D02*
D03*
Y268750D02*
D03*
Y248750D02*
D03*
Y238750D02*
D03*
Y228750D02*
D03*
Y258750D02*
D03*
Y208750D02*
D03*
Y178750D02*
D03*
Y188750D02*
D03*
Y198750D02*
D03*
Y218750D02*
D03*
D17*
X0Y0D02*
X547500D01*
Y547500D01*
X0D02*
X547500D01*
X0Y0D02*
Y547500D01*
M02*
