G04 Layer_Color=8421504*
%FSLAX25Y25*%
%MOIN*%
G70*
G01*
G75*
%ADD10O,0.05512X0.01870*%
%ADD11O,0.01870X0.05512*%
%ADD12R,0.03937X0.07874*%
%ADD13R,0.07874X0.03937*%
%ADD14O,0.02461X0.04724*%
%ADD15O,0.04724X0.02461*%
%ADD17C,0.01000*%
D10*
X154114Y15484D02*
D03*
Y18043D02*
D03*
Y20602D02*
D03*
Y23161D02*
D03*
Y25720D02*
D03*
Y28280D02*
D03*
Y30839D02*
D03*
Y33398D02*
D03*
Y35957D02*
D03*
Y38516D02*
D03*
X130886Y15484D02*
D03*
Y18043D02*
D03*
Y20602D02*
D03*
Y23161D02*
D03*
Y25720D02*
D03*
Y28280D02*
D03*
Y30839D02*
D03*
Y33398D02*
D03*
Y35957D02*
D03*
Y38516D02*
D03*
X154114Y55484D02*
D03*
Y58043D02*
D03*
Y60602D02*
D03*
Y63161D02*
D03*
Y65720D02*
D03*
Y68280D02*
D03*
Y70839D02*
D03*
Y73398D02*
D03*
Y75957D02*
D03*
Y78516D02*
D03*
X130886Y55484D02*
D03*
Y58043D02*
D03*
Y60602D02*
D03*
Y63161D02*
D03*
Y65720D02*
D03*
Y68280D02*
D03*
Y70839D02*
D03*
Y73398D02*
D03*
Y75957D02*
D03*
Y78516D02*
D03*
X154114Y95484D02*
D03*
Y98043D02*
D03*
Y100602D02*
D03*
Y103161D02*
D03*
Y105720D02*
D03*
Y108280D02*
D03*
Y110839D02*
D03*
Y113398D02*
D03*
Y115957D02*
D03*
Y118516D02*
D03*
X130886Y95484D02*
D03*
Y98043D02*
D03*
Y100602D02*
D03*
Y103161D02*
D03*
Y105720D02*
D03*
Y108280D02*
D03*
Y110839D02*
D03*
Y113398D02*
D03*
Y115957D02*
D03*
Y118516D02*
D03*
X154114Y135484D02*
D03*
Y138043D02*
D03*
Y140602D02*
D03*
Y143161D02*
D03*
Y145720D02*
D03*
Y148280D02*
D03*
Y150839D02*
D03*
Y153398D02*
D03*
Y155957D02*
D03*
Y158516D02*
D03*
X130886Y135484D02*
D03*
Y138043D02*
D03*
Y140602D02*
D03*
Y143161D02*
D03*
Y145720D02*
D03*
Y148280D02*
D03*
Y150839D02*
D03*
Y153398D02*
D03*
Y155957D02*
D03*
Y158516D02*
D03*
X393386Y491516D02*
D03*
Y488957D02*
D03*
Y486398D02*
D03*
Y483839D02*
D03*
Y481280D02*
D03*
Y478720D02*
D03*
Y476161D02*
D03*
Y473602D02*
D03*
Y471043D02*
D03*
Y468484D02*
D03*
X416614Y491516D02*
D03*
Y488957D02*
D03*
Y486398D02*
D03*
Y483839D02*
D03*
Y481280D02*
D03*
Y478720D02*
D03*
Y476161D02*
D03*
Y473602D02*
D03*
Y471043D02*
D03*
Y468484D02*
D03*
X393386Y451516D02*
D03*
Y448957D02*
D03*
Y446398D02*
D03*
Y443839D02*
D03*
Y441280D02*
D03*
Y438720D02*
D03*
Y436161D02*
D03*
Y433602D02*
D03*
Y431043D02*
D03*
Y428484D02*
D03*
X416614Y451516D02*
D03*
Y448957D02*
D03*
Y446398D02*
D03*
Y443839D02*
D03*
Y441280D02*
D03*
Y438720D02*
D03*
Y436161D02*
D03*
Y433602D02*
D03*
Y431043D02*
D03*
Y428484D02*
D03*
X393386Y531516D02*
D03*
Y528957D02*
D03*
Y526398D02*
D03*
Y523839D02*
D03*
Y521280D02*
D03*
Y518720D02*
D03*
Y516161D02*
D03*
Y513602D02*
D03*
Y511043D02*
D03*
Y508484D02*
D03*
X416614Y531516D02*
D03*
Y528957D02*
D03*
Y526398D02*
D03*
Y523839D02*
D03*
Y521280D02*
D03*
Y518720D02*
D03*
Y516161D02*
D03*
Y513602D02*
D03*
Y511043D02*
D03*
Y508484D02*
D03*
X393386Y411516D02*
D03*
Y408957D02*
D03*
Y406398D02*
D03*
Y403839D02*
D03*
Y401280D02*
D03*
Y398720D02*
D03*
Y396161D02*
D03*
Y393602D02*
D03*
Y391043D02*
D03*
Y388484D02*
D03*
X416614Y411516D02*
D03*
Y408957D02*
D03*
Y406398D02*
D03*
Y403839D02*
D03*
Y401280D02*
D03*
Y398720D02*
D03*
Y396161D02*
D03*
Y393602D02*
D03*
Y391043D02*
D03*
Y388484D02*
D03*
D11*
X531516Y154114D02*
D03*
X528957D02*
D03*
X526398D02*
D03*
X523839D02*
D03*
X521280D02*
D03*
X518720D02*
D03*
X516161D02*
D03*
X513602D02*
D03*
X511043D02*
D03*
X508484D02*
D03*
X531516Y130886D02*
D03*
X528957D02*
D03*
X526398D02*
D03*
X523839D02*
D03*
X521280D02*
D03*
X518720D02*
D03*
X516161D02*
D03*
X513602D02*
D03*
X511043D02*
D03*
X508484D02*
D03*
X491516Y154114D02*
D03*
X488957D02*
D03*
X486398D02*
D03*
X483839D02*
D03*
X481280D02*
D03*
X478720D02*
D03*
X476161D02*
D03*
X473602D02*
D03*
X471043D02*
D03*
X468484D02*
D03*
X491516Y130886D02*
D03*
X488957D02*
D03*
X486398D02*
D03*
X483839D02*
D03*
X481280D02*
D03*
X478720D02*
D03*
X476161D02*
D03*
X473602D02*
D03*
X471043D02*
D03*
X468484D02*
D03*
X451516Y154114D02*
D03*
X448957D02*
D03*
X446398D02*
D03*
X443839D02*
D03*
X441280D02*
D03*
X438720D02*
D03*
X436161D02*
D03*
X433602D02*
D03*
X431043D02*
D03*
X428484D02*
D03*
X451516Y130886D02*
D03*
X448957D02*
D03*
X446398D02*
D03*
X443839D02*
D03*
X441280D02*
D03*
X438720D02*
D03*
X436161D02*
D03*
X433602D02*
D03*
X431043D02*
D03*
X428484D02*
D03*
X411516Y154114D02*
D03*
X408957D02*
D03*
X406398D02*
D03*
X403839D02*
D03*
X401280D02*
D03*
X398720D02*
D03*
X396161D02*
D03*
X393602D02*
D03*
X391043D02*
D03*
X388484D02*
D03*
X411516Y130886D02*
D03*
X408957D02*
D03*
X406398D02*
D03*
X403839D02*
D03*
X401280D02*
D03*
X398720D02*
D03*
X396161D02*
D03*
X393602D02*
D03*
X391043D02*
D03*
X388484D02*
D03*
X135484Y393386D02*
D03*
X138043D02*
D03*
X140602D02*
D03*
X143161D02*
D03*
X145720D02*
D03*
X148280D02*
D03*
X150839D02*
D03*
X153398D02*
D03*
X155957D02*
D03*
X158516D02*
D03*
X135484Y416614D02*
D03*
X138043D02*
D03*
X140602D02*
D03*
X143161D02*
D03*
X145720D02*
D03*
X148280D02*
D03*
X150839D02*
D03*
X153398D02*
D03*
X155957D02*
D03*
X158516D02*
D03*
X95484Y393386D02*
D03*
X98043D02*
D03*
X100602D02*
D03*
X103161D02*
D03*
X105720D02*
D03*
X108280D02*
D03*
X110839D02*
D03*
X113398D02*
D03*
X115957D02*
D03*
X118516D02*
D03*
X95484Y416614D02*
D03*
X98043D02*
D03*
X100602D02*
D03*
X103161D02*
D03*
X105720D02*
D03*
X108280D02*
D03*
X110839D02*
D03*
X113398D02*
D03*
X115957D02*
D03*
X118516D02*
D03*
X55484Y393386D02*
D03*
X58043D02*
D03*
X60602D02*
D03*
X63161D02*
D03*
X65720D02*
D03*
X68280D02*
D03*
X70839D02*
D03*
X73398D02*
D03*
X75957D02*
D03*
X78516D02*
D03*
X55484Y416614D02*
D03*
X58043D02*
D03*
X60602D02*
D03*
X63161D02*
D03*
X65720D02*
D03*
X68280D02*
D03*
X70839D02*
D03*
X73398D02*
D03*
X75957D02*
D03*
X78516D02*
D03*
X15484Y393386D02*
D03*
X18043D02*
D03*
X20602D02*
D03*
X23161D02*
D03*
X25720D02*
D03*
X28280D02*
D03*
X30839D02*
D03*
X33398D02*
D03*
X35957D02*
D03*
X38516D02*
D03*
X15484Y416614D02*
D03*
X18043D02*
D03*
X20602D02*
D03*
X23161D02*
D03*
X25720D02*
D03*
X28280D02*
D03*
X30839D02*
D03*
X33398D02*
D03*
X35957D02*
D03*
X38516D02*
D03*
D12*
X218750Y152854D02*
D03*
X198750D02*
D03*
X188750D02*
D03*
X178750D02*
D03*
X208750D02*
D03*
X258750D02*
D03*
X228750D02*
D03*
X238750D02*
D03*
X248750D02*
D03*
X268750D02*
D03*
X308750D02*
D03*
X278750D02*
D03*
X288750D02*
D03*
X298750D02*
D03*
X318750D02*
D03*
X358750D02*
D03*
X328750D02*
D03*
X338750D02*
D03*
X348750D02*
D03*
X368750D02*
D03*
Y122146D02*
D03*
X348750D02*
D03*
X338750D02*
D03*
X328750D02*
D03*
X358750D02*
D03*
X318750D02*
D03*
X298750D02*
D03*
X288750D02*
D03*
X278750D02*
D03*
X308750D02*
D03*
X268750D02*
D03*
X248750D02*
D03*
X238750D02*
D03*
X228750D02*
D03*
X258750D02*
D03*
X208750D02*
D03*
X178750D02*
D03*
X188750D02*
D03*
X198750D02*
D03*
X218750D02*
D03*
Y52854D02*
D03*
X198750D02*
D03*
X188750D02*
D03*
X178750D02*
D03*
X208750D02*
D03*
X258750D02*
D03*
X228750D02*
D03*
X238750D02*
D03*
X248750D02*
D03*
X268750D02*
D03*
X308750D02*
D03*
X278750D02*
D03*
X288750D02*
D03*
X298750D02*
D03*
X318750D02*
D03*
X358750D02*
D03*
X328750D02*
D03*
X338750D02*
D03*
X348750D02*
D03*
X368750D02*
D03*
Y22146D02*
D03*
X348750D02*
D03*
X338750D02*
D03*
X328750D02*
D03*
X358750D02*
D03*
X318750D02*
D03*
X298750D02*
D03*
X288750D02*
D03*
X278750D02*
D03*
X308750D02*
D03*
X268750D02*
D03*
X248750D02*
D03*
X238750D02*
D03*
X228750D02*
D03*
X258750D02*
D03*
X208750D02*
D03*
X178750D02*
D03*
X188750D02*
D03*
X198750D02*
D03*
X218750D02*
D03*
X328750Y394646D02*
D03*
X348750D02*
D03*
X358750D02*
D03*
X368750D02*
D03*
X338750D02*
D03*
X288750D02*
D03*
X318750D02*
D03*
X308750D02*
D03*
X298750D02*
D03*
X278750D02*
D03*
X238750D02*
D03*
X268750D02*
D03*
X258750D02*
D03*
X248750D02*
D03*
X228750D02*
D03*
X188750D02*
D03*
X218750D02*
D03*
X208750D02*
D03*
X198750D02*
D03*
X178750D02*
D03*
Y425354D02*
D03*
X198750D02*
D03*
X208750D02*
D03*
X218750D02*
D03*
X188750D02*
D03*
X228750D02*
D03*
X248750D02*
D03*
X258750D02*
D03*
X268750D02*
D03*
X238750D02*
D03*
X278750D02*
D03*
X298750D02*
D03*
X308750D02*
D03*
X318750D02*
D03*
X288750D02*
D03*
X338750D02*
D03*
X368750D02*
D03*
X358750D02*
D03*
X348750D02*
D03*
X328750D02*
D03*
Y494646D02*
D03*
X348750D02*
D03*
X358750D02*
D03*
X368750D02*
D03*
X338750D02*
D03*
X288750D02*
D03*
X318750D02*
D03*
X308750D02*
D03*
X298750D02*
D03*
X278750D02*
D03*
X238750D02*
D03*
X268750D02*
D03*
X258750D02*
D03*
X248750D02*
D03*
X228750D02*
D03*
X188750D02*
D03*
X218750D02*
D03*
X208750D02*
D03*
X198750D02*
D03*
X178750D02*
D03*
Y525354D02*
D03*
X198750D02*
D03*
X208750D02*
D03*
X218750D02*
D03*
X188750D02*
D03*
X228750D02*
D03*
X248750D02*
D03*
X258750D02*
D03*
X268750D02*
D03*
X238750D02*
D03*
X278750D02*
D03*
X298750D02*
D03*
X308750D02*
D03*
X318750D02*
D03*
X288750D02*
D03*
X338750D02*
D03*
X368750D02*
D03*
X358750D02*
D03*
X348750D02*
D03*
X328750D02*
D03*
D13*
X152854Y328750D02*
D03*
Y348750D02*
D03*
Y358750D02*
D03*
Y368750D02*
D03*
Y338750D02*
D03*
Y288750D02*
D03*
Y318750D02*
D03*
Y308750D02*
D03*
Y298750D02*
D03*
Y278750D02*
D03*
Y238750D02*
D03*
Y268750D02*
D03*
Y258750D02*
D03*
Y248750D02*
D03*
Y228750D02*
D03*
Y188750D02*
D03*
Y218750D02*
D03*
Y208750D02*
D03*
Y198750D02*
D03*
Y178750D02*
D03*
X122146D02*
D03*
Y198750D02*
D03*
Y208750D02*
D03*
Y218750D02*
D03*
Y188750D02*
D03*
Y228750D02*
D03*
Y248750D02*
D03*
Y258750D02*
D03*
Y268750D02*
D03*
Y238750D02*
D03*
Y278750D02*
D03*
Y298750D02*
D03*
Y308750D02*
D03*
Y318750D02*
D03*
Y288750D02*
D03*
Y338750D02*
D03*
Y368750D02*
D03*
Y358750D02*
D03*
Y348750D02*
D03*
Y328750D02*
D03*
X52854D02*
D03*
Y348750D02*
D03*
Y358750D02*
D03*
Y368750D02*
D03*
Y338750D02*
D03*
Y288750D02*
D03*
Y318750D02*
D03*
Y308750D02*
D03*
Y298750D02*
D03*
Y278750D02*
D03*
Y238750D02*
D03*
Y268750D02*
D03*
Y258750D02*
D03*
Y248750D02*
D03*
Y228750D02*
D03*
Y188750D02*
D03*
Y218750D02*
D03*
Y208750D02*
D03*
Y198750D02*
D03*
Y178750D02*
D03*
X22146D02*
D03*
Y198750D02*
D03*
Y208750D02*
D03*
Y218750D02*
D03*
Y188750D02*
D03*
Y228750D02*
D03*
Y248750D02*
D03*
Y258750D02*
D03*
Y268750D02*
D03*
Y238750D02*
D03*
Y278750D02*
D03*
Y298750D02*
D03*
Y308750D02*
D03*
Y318750D02*
D03*
Y288750D02*
D03*
Y338750D02*
D03*
Y368750D02*
D03*
Y358750D02*
D03*
Y348750D02*
D03*
Y328750D02*
D03*
X394646Y218750D02*
D03*
Y198750D02*
D03*
Y188750D02*
D03*
Y178750D02*
D03*
Y208750D02*
D03*
Y258750D02*
D03*
Y228750D02*
D03*
Y238750D02*
D03*
Y248750D02*
D03*
Y268750D02*
D03*
Y308750D02*
D03*
Y278750D02*
D03*
Y288750D02*
D03*
Y298750D02*
D03*
Y318750D02*
D03*
Y358750D02*
D03*
Y328750D02*
D03*
Y338750D02*
D03*
Y348750D02*
D03*
Y368750D02*
D03*
X425354D02*
D03*
Y348750D02*
D03*
Y338750D02*
D03*
Y328750D02*
D03*
Y358750D02*
D03*
Y318750D02*
D03*
Y298750D02*
D03*
Y288750D02*
D03*
Y278750D02*
D03*
Y308750D02*
D03*
Y268750D02*
D03*
Y248750D02*
D03*
Y238750D02*
D03*
Y228750D02*
D03*
Y258750D02*
D03*
Y208750D02*
D03*
Y178750D02*
D03*
Y188750D02*
D03*
Y198750D02*
D03*
Y218750D02*
D03*
X494646D02*
D03*
Y198750D02*
D03*
Y188750D02*
D03*
Y178750D02*
D03*
Y208750D02*
D03*
Y258750D02*
D03*
Y228750D02*
D03*
Y238750D02*
D03*
Y248750D02*
D03*
Y268750D02*
D03*
Y308750D02*
D03*
Y278750D02*
D03*
Y288750D02*
D03*
Y298750D02*
D03*
Y318750D02*
D03*
Y358750D02*
D03*
Y328750D02*
D03*
Y338750D02*
D03*
Y348750D02*
D03*
Y368750D02*
D03*
X525354D02*
D03*
Y348750D02*
D03*
Y338750D02*
D03*
Y328750D02*
D03*
Y358750D02*
D03*
Y318750D02*
D03*
Y298750D02*
D03*
Y288750D02*
D03*
Y278750D02*
D03*
Y308750D02*
D03*
Y268750D02*
D03*
Y248750D02*
D03*
Y238750D02*
D03*
Y228750D02*
D03*
Y258750D02*
D03*
Y208750D02*
D03*
Y178750D02*
D03*
Y188750D02*
D03*
Y198750D02*
D03*
Y218750D02*
D03*
D14*
X96071Y150138D02*
D03*
X92921D02*
D03*
X89772D02*
D03*
X86622D02*
D03*
X83472D02*
D03*
X80323D02*
D03*
X77173D02*
D03*
X74024D02*
D03*
X70874D02*
D03*
X67724D02*
D03*
X64575D02*
D03*
X61425D02*
D03*
X58276D02*
D03*
X55126D02*
D03*
X51976D02*
D03*
X48827D02*
D03*
X45677D02*
D03*
X42528D02*
D03*
X39378D02*
D03*
X36228D02*
D03*
X33079D02*
D03*
X29929D02*
D03*
X96071Y104862D02*
D03*
X92921D02*
D03*
X89772D02*
D03*
X86622D02*
D03*
X83472D02*
D03*
X80323D02*
D03*
X77173D02*
D03*
X74024D02*
D03*
X70874D02*
D03*
X67724D02*
D03*
X64575D02*
D03*
X61425D02*
D03*
X58276D02*
D03*
X55126D02*
D03*
X51976D02*
D03*
X48827D02*
D03*
X45677D02*
D03*
X42528D02*
D03*
X39378D02*
D03*
X36228D02*
D03*
X33079D02*
D03*
X29929D02*
D03*
X449429Y397362D02*
D03*
X452579D02*
D03*
X455728D02*
D03*
X458878D02*
D03*
X462028D02*
D03*
X465177D02*
D03*
X468327D02*
D03*
X471476D02*
D03*
X474626D02*
D03*
X477776D02*
D03*
X480925D02*
D03*
X484075D02*
D03*
X487224D02*
D03*
X490374D02*
D03*
X493524D02*
D03*
X496673D02*
D03*
X499823D02*
D03*
X502972D02*
D03*
X506122D02*
D03*
X509272D02*
D03*
X512421D02*
D03*
X515571D02*
D03*
X449429Y442638D02*
D03*
X452579D02*
D03*
X455728D02*
D03*
X458878D02*
D03*
X462028D02*
D03*
X465177D02*
D03*
X468327D02*
D03*
X471476D02*
D03*
X474626D02*
D03*
X477776D02*
D03*
X480925D02*
D03*
X484075D02*
D03*
X487224D02*
D03*
X490374D02*
D03*
X493524D02*
D03*
X496673D02*
D03*
X499823D02*
D03*
X502972D02*
D03*
X506122D02*
D03*
X509272D02*
D03*
X512421D02*
D03*
X515571D02*
D03*
Y524138D02*
D03*
X512421D02*
D03*
X509272D02*
D03*
X506122D02*
D03*
X502972D02*
D03*
X499823D02*
D03*
X496673D02*
D03*
X493524D02*
D03*
X490374D02*
D03*
X487224D02*
D03*
X484075D02*
D03*
X480925D02*
D03*
X477776D02*
D03*
X474626D02*
D03*
X471476D02*
D03*
X468327D02*
D03*
X465177D02*
D03*
X462028D02*
D03*
X458878D02*
D03*
X455728D02*
D03*
X452579D02*
D03*
X449429D02*
D03*
X515571Y478862D02*
D03*
X512421D02*
D03*
X509272D02*
D03*
X506122D02*
D03*
X502972D02*
D03*
X499823D02*
D03*
X496673D02*
D03*
X493524D02*
D03*
X490374D02*
D03*
X487224D02*
D03*
X484075D02*
D03*
X480925D02*
D03*
X477776D02*
D03*
X474626D02*
D03*
X471476D02*
D03*
X468327D02*
D03*
X465177D02*
D03*
X462028D02*
D03*
X458878D02*
D03*
X455728D02*
D03*
X452579D02*
D03*
X449429D02*
D03*
X29929Y23362D02*
D03*
X33079D02*
D03*
X36228D02*
D03*
X39378D02*
D03*
X42528D02*
D03*
X45677D02*
D03*
X48827D02*
D03*
X51976D02*
D03*
X55126D02*
D03*
X58276D02*
D03*
X61425D02*
D03*
X64575D02*
D03*
X67724D02*
D03*
X70874D02*
D03*
X74024D02*
D03*
X77173D02*
D03*
X80323D02*
D03*
X83472D02*
D03*
X86622D02*
D03*
X89772D02*
D03*
X92921D02*
D03*
X96071D02*
D03*
X29929Y68638D02*
D03*
X33079D02*
D03*
X36228D02*
D03*
X39378D02*
D03*
X42528D02*
D03*
X45677D02*
D03*
X48827D02*
D03*
X51976D02*
D03*
X55126D02*
D03*
X58276D02*
D03*
X61425D02*
D03*
X64575D02*
D03*
X67724D02*
D03*
X70874D02*
D03*
X74024D02*
D03*
X77173D02*
D03*
X80323D02*
D03*
X83472D02*
D03*
X86622D02*
D03*
X89772D02*
D03*
X92921D02*
D03*
X96071D02*
D03*
D15*
X524138Y29929D02*
D03*
Y33079D02*
D03*
Y36228D02*
D03*
Y39378D02*
D03*
Y42528D02*
D03*
Y45677D02*
D03*
Y48827D02*
D03*
Y51976D02*
D03*
Y55126D02*
D03*
Y58276D02*
D03*
Y61425D02*
D03*
Y64575D02*
D03*
Y67724D02*
D03*
Y70874D02*
D03*
Y74024D02*
D03*
Y77173D02*
D03*
Y80323D02*
D03*
Y83472D02*
D03*
Y86622D02*
D03*
Y89772D02*
D03*
Y92921D02*
D03*
Y96071D02*
D03*
X478862Y29929D02*
D03*
Y33079D02*
D03*
Y36228D02*
D03*
Y39378D02*
D03*
Y42528D02*
D03*
Y45677D02*
D03*
Y48827D02*
D03*
Y51976D02*
D03*
Y55126D02*
D03*
Y58276D02*
D03*
Y61425D02*
D03*
Y64575D02*
D03*
Y67724D02*
D03*
Y70874D02*
D03*
Y74024D02*
D03*
Y77173D02*
D03*
Y80323D02*
D03*
Y83472D02*
D03*
Y86622D02*
D03*
Y89772D02*
D03*
Y92921D02*
D03*
Y96071D02*
D03*
X68638Y449429D02*
D03*
Y452579D02*
D03*
Y455728D02*
D03*
Y458878D02*
D03*
Y462028D02*
D03*
Y465177D02*
D03*
Y468327D02*
D03*
Y471476D02*
D03*
Y474626D02*
D03*
Y477776D02*
D03*
Y480925D02*
D03*
Y484075D02*
D03*
Y487224D02*
D03*
Y490374D02*
D03*
Y493524D02*
D03*
Y496673D02*
D03*
Y499823D02*
D03*
Y502972D02*
D03*
Y506122D02*
D03*
Y509272D02*
D03*
Y512421D02*
D03*
Y515571D02*
D03*
X23362Y449429D02*
D03*
Y452579D02*
D03*
Y455728D02*
D03*
Y458878D02*
D03*
Y462028D02*
D03*
Y465177D02*
D03*
Y468327D02*
D03*
Y471476D02*
D03*
Y474626D02*
D03*
Y477776D02*
D03*
Y480925D02*
D03*
Y484075D02*
D03*
Y487224D02*
D03*
Y490374D02*
D03*
Y493524D02*
D03*
Y496673D02*
D03*
Y499823D02*
D03*
Y502972D02*
D03*
Y506122D02*
D03*
Y509272D02*
D03*
Y512421D02*
D03*
Y515571D02*
D03*
X104862D02*
D03*
Y512421D02*
D03*
Y509272D02*
D03*
Y506122D02*
D03*
Y502972D02*
D03*
Y499823D02*
D03*
Y496673D02*
D03*
Y493524D02*
D03*
Y490374D02*
D03*
Y487224D02*
D03*
Y484075D02*
D03*
Y480925D02*
D03*
Y477776D02*
D03*
Y474626D02*
D03*
Y471476D02*
D03*
Y468327D02*
D03*
Y465177D02*
D03*
Y462028D02*
D03*
Y458878D02*
D03*
Y455728D02*
D03*
Y452579D02*
D03*
Y449429D02*
D03*
X150138Y515571D02*
D03*
Y512421D02*
D03*
Y509272D02*
D03*
Y506122D02*
D03*
Y502972D02*
D03*
Y499823D02*
D03*
Y496673D02*
D03*
Y493524D02*
D03*
Y490374D02*
D03*
Y487224D02*
D03*
Y484075D02*
D03*
Y480925D02*
D03*
Y477776D02*
D03*
Y474626D02*
D03*
Y471476D02*
D03*
Y468327D02*
D03*
Y465177D02*
D03*
Y462028D02*
D03*
Y458878D02*
D03*
Y455728D02*
D03*
Y452579D02*
D03*
Y449429D02*
D03*
X397362Y96071D02*
D03*
Y92921D02*
D03*
Y89772D02*
D03*
Y86622D02*
D03*
Y83472D02*
D03*
Y80323D02*
D03*
Y77173D02*
D03*
Y74024D02*
D03*
Y70874D02*
D03*
Y67724D02*
D03*
Y64575D02*
D03*
Y61425D02*
D03*
Y58276D02*
D03*
Y55126D02*
D03*
Y51976D02*
D03*
Y48827D02*
D03*
Y45677D02*
D03*
Y42528D02*
D03*
Y39378D02*
D03*
Y36228D02*
D03*
Y33079D02*
D03*
Y29929D02*
D03*
X442638Y96071D02*
D03*
Y92921D02*
D03*
Y89772D02*
D03*
Y86622D02*
D03*
Y83472D02*
D03*
Y80323D02*
D03*
Y77173D02*
D03*
Y74024D02*
D03*
Y70874D02*
D03*
Y67724D02*
D03*
Y64575D02*
D03*
Y61425D02*
D03*
Y58276D02*
D03*
Y55126D02*
D03*
Y51976D02*
D03*
Y48827D02*
D03*
Y45677D02*
D03*
Y42528D02*
D03*
Y39378D02*
D03*
Y36228D02*
D03*
Y33079D02*
D03*
Y29929D02*
D03*
D17*
X0Y0D02*
X547500D01*
Y547500D01*
X0D02*
X547500D01*
X0Y0D02*
Y547500D01*
M02*
