G04 Layer_Color=32896*
%FSLAX25Y25*%
%MOIN*%
G70*
G01*
G75*
%ADD17C,0.01000*%
%ADD21C,0.02362*%
%ADD22C,0.00984*%
%ADD23C,0.00787*%
D17*
X113501Y481998D02*
X115500D01*
X116500Y480998D01*
Y477000D01*
X115500Y476000D01*
X113501D01*
X112501Y477000D01*
Y480998D01*
X113501Y481998D01*
X110502D02*
Y476000D01*
X107503D01*
X106503Y477000D01*
Y477999D01*
X107503Y478999D01*
X110502D01*
X107503D01*
X106503Y479999D01*
Y480998D01*
X107503Y481998D01*
X110502D01*
X104504Y476000D02*
X102505D01*
X103504D01*
Y481998D01*
X104504Y480998D01*
X99506Y476000D02*
X97506D01*
X98506D01*
Y481998D01*
X99506Y480998D01*
X34001Y481998D02*
X36000D01*
X37000Y480998D01*
Y477000D01*
X36000Y476000D01*
X34001D01*
X33001Y477000D01*
Y480998D01*
X34001Y481998D01*
X31002D02*
Y476000D01*
X28003D01*
X27003Y477000D01*
Y477999D01*
X28003Y478999D01*
X31002D01*
X28003D01*
X27003Y479999D01*
Y480998D01*
X28003Y481998D01*
X31002D01*
X25004Y477000D02*
X24004Y476000D01*
X22005D01*
X21005Y477000D01*
Y480998D01*
X22005Y481998D01*
X24004D01*
X25004Y480998D01*
Y479999D01*
X24004Y478999D01*
X21005D01*
X528901Y114498D02*
X530900D01*
X531900Y113498D01*
Y109500D01*
X530900Y108500D01*
X528901D01*
X527901Y109500D01*
Y113498D01*
X528901Y114498D01*
X525902D02*
Y108500D01*
X522903D01*
X521903Y109500D01*
Y110499D01*
X522903Y111499D01*
X525902D01*
X522903D01*
X521903Y112499D01*
Y113498D01*
X522903Y114498D01*
X525902D01*
X515905D02*
X519904D01*
Y111499D01*
X517905Y112499D01*
X516905D01*
X515905Y111499D01*
Y109500D01*
X516905Y108500D01*
X518904D01*
X519904Y109500D01*
X101501Y86598D02*
X103500D01*
X104500Y85598D01*
Y81600D01*
X103500Y80600D01*
X101501D01*
X100501Y81600D01*
Y85598D01*
X101501Y86598D01*
X98502D02*
Y80600D01*
X95503D01*
X94503Y81600D01*
Y82599D01*
X95503Y83599D01*
X98502D01*
X95503D01*
X94503Y84599D01*
Y85598D01*
X95503Y86598D01*
X98502D01*
X88505Y80600D02*
X92504D01*
X88505Y84599D01*
Y85598D01*
X89505Y86598D01*
X91504D01*
X92504Y85598D01*
X60001Y89798D02*
X61001Y90798D01*
X63000D01*
X64000Y89798D01*
Y85800D01*
X63000Y84800D01*
X61001D01*
X60001Y85800D01*
X58002Y84800D02*
X56003D01*
X57002D01*
Y90798D01*
X58002Y89798D01*
X460701Y60998D02*
X461701Y61998D01*
X463700D01*
X464700Y60998D01*
Y57000D01*
X463700Y56000D01*
X461701D01*
X460701Y57000D01*
X454703Y56000D02*
X458702D01*
X454703Y59999D01*
Y60998D01*
X455703Y61998D01*
X457702D01*
X458702Y60998D01*
X87801Y484998D02*
X88801Y485998D01*
X90800D01*
X91800Y484998D01*
Y481000D01*
X90800Y480000D01*
X88801D01*
X87801Y481000D01*
X85802Y484998D02*
X84802Y485998D01*
X82803D01*
X81803Y484998D01*
Y483999D01*
X82803Y482999D01*
X83803D01*
X82803D01*
X81803Y481999D01*
Y481000D01*
X82803Y480000D01*
X84802D01*
X85802Y481000D01*
X487501Y461698D02*
X488501Y462698D01*
X490500D01*
X491500Y461698D01*
Y457700D01*
X490500Y456700D01*
X488501D01*
X487501Y457700D01*
X482503Y456700D02*
Y462698D01*
X485502Y459699D01*
X481503D01*
X101501Y126598D02*
X103500D01*
X104500Y125598D01*
Y121600D01*
X103500Y120600D01*
X101501D01*
X100501Y121600D01*
Y125598D01*
X101501Y126598D01*
X98502D02*
Y120600D01*
X95503D01*
X94503Y121600D01*
Y122599D01*
X95503Y123599D01*
X98502D01*
X95503D01*
X94503Y124599D01*
Y125598D01*
X95503Y126598D01*
X98502D01*
X92504Y125598D02*
X91504Y126598D01*
X89505D01*
X88505Y125598D01*
Y124599D01*
X89505Y123599D01*
X90504D01*
X89505D01*
X88505Y122599D01*
Y121600D01*
X89505Y120600D01*
X91504D01*
X92504Y121600D01*
X101501Y166598D02*
X103500D01*
X104500Y165598D01*
Y161600D01*
X103500Y160600D01*
X101501D01*
X100501Y161600D01*
Y165598D01*
X101501Y166598D01*
X98502D02*
Y160600D01*
X95503D01*
X94503Y161600D01*
Y162599D01*
X95503Y163599D01*
X98502D01*
X95503D01*
X94503Y164599D01*
Y165598D01*
X95503Y166598D01*
X98502D01*
X89505Y160600D02*
Y166598D01*
X92504Y163599D01*
X88505D01*
X489701Y114498D02*
X491700D01*
X492700Y113498D01*
Y109500D01*
X491700Y108500D01*
X489701D01*
X488701Y109500D01*
Y113498D01*
X489701Y114498D01*
X486702D02*
Y108500D01*
X483703D01*
X482703Y109500D01*
Y110499D01*
X483703Y111499D01*
X486702D01*
X483703D01*
X482703Y112499D01*
Y113498D01*
X483703Y114498D01*
X486702D01*
X476705D02*
X478705Y113498D01*
X480704Y111499D01*
Y109500D01*
X479704Y108500D01*
X477705D01*
X476705Y109500D01*
Y110499D01*
X477705Y111499D01*
X480704D01*
X449601Y114498D02*
X451600D01*
X452600Y113498D01*
Y109500D01*
X451600Y108500D01*
X449601D01*
X448601Y109500D01*
Y113498D01*
X449601Y114498D01*
X446602D02*
Y108500D01*
X443603D01*
X442603Y109500D01*
Y110499D01*
X443603Y111499D01*
X446602D01*
X443603D01*
X442603Y112499D01*
Y113498D01*
X443603Y114498D01*
X446602D01*
X440604D02*
X436605D01*
Y113498D01*
X440604Y109500D01*
Y108500D01*
X409601Y114498D02*
X411600D01*
X412600Y113498D01*
Y109500D01*
X411600Y108500D01*
X409601D01*
X408601Y109500D01*
Y113498D01*
X409601Y114498D01*
X406602D02*
Y108500D01*
X403603D01*
X402603Y109500D01*
Y110499D01*
X403603Y111499D01*
X406602D01*
X403603D01*
X402603Y112499D01*
Y113498D01*
X403603Y114498D01*
X406602D01*
X400604Y113498D02*
X399604Y114498D01*
X397605D01*
X396605Y113498D01*
Y112499D01*
X397605Y111499D01*
X396605Y110499D01*
Y109500D01*
X397605Y108500D01*
X399604D01*
X400604Y109500D01*
Y110499D01*
X399604Y111499D01*
X400604Y112499D01*
Y113498D01*
X399604Y111499D02*
X397605D01*
X73701Y481998D02*
X75700D01*
X76700Y480998D01*
Y477000D01*
X75700Y476000D01*
X73701D01*
X72701Y477000D01*
Y480998D01*
X73701Y481998D01*
X70702D02*
Y476000D01*
X67703D01*
X66703Y477000D01*
Y477999D01*
X67703Y478999D01*
X70702D01*
X67703D01*
X66703Y479999D01*
Y480998D01*
X67703Y481998D01*
X70702D01*
X64704Y476000D02*
X62704D01*
X63704D01*
Y481998D01*
X64704Y480998D01*
X59706D02*
X58706Y481998D01*
X56707D01*
X55707Y480998D01*
Y477000D01*
X56707Y476000D01*
X58706D01*
X59706Y477000D01*
Y480998D01*
X153401Y481998D02*
X155400D01*
X156400Y480998D01*
Y477000D01*
X155400Y476000D01*
X153401D01*
X152401Y477000D01*
Y480998D01*
X153401Y481998D01*
X150402D02*
Y476000D01*
X147403D01*
X146403Y477000D01*
Y477999D01*
X147403Y478999D01*
X150402D01*
X147403D01*
X146403Y479999D01*
Y480998D01*
X147403Y481998D01*
X150402D01*
X144404Y476000D02*
X142404D01*
X143404D01*
Y481998D01*
X144404Y480998D01*
X135407Y476000D02*
X139406D01*
X135407Y479999D01*
Y480998D01*
X136407Y481998D01*
X138406D01*
X139406Y480998D01*
X469001Y461198D02*
X471000D01*
X472000Y460198D01*
Y456200D01*
X471000Y455200D01*
X469001D01*
X468001Y456200D01*
Y460198D01*
X469001Y461198D01*
X466002D02*
Y455200D01*
X463003D01*
X462003Y456200D01*
Y457199D01*
X463003Y458199D01*
X466002D01*
X463003D01*
X462003Y459199D01*
Y460198D01*
X463003Y461198D01*
X466002D01*
X460004Y455200D02*
X458005D01*
X459004D01*
Y461198D01*
X460004Y460198D01*
X455006D02*
X454006Y461198D01*
X452006D01*
X451007Y460198D01*
Y459199D01*
X452006Y458199D01*
X453006D01*
X452006D01*
X451007Y457199D01*
Y456200D01*
X452006Y455200D01*
X454006D01*
X455006Y456200D01*
X469001Y422898D02*
X471000D01*
X472000Y421898D01*
Y417900D01*
X471000Y416900D01*
X469001D01*
X468001Y417900D01*
Y421898D01*
X469001Y422898D01*
X466002D02*
Y416900D01*
X463003D01*
X462003Y417900D01*
Y418899D01*
X463003Y419899D01*
X466002D01*
X463003D01*
X462003Y420899D01*
Y421898D01*
X463003Y422898D01*
X466002D01*
X460004Y416900D02*
X458005D01*
X459004D01*
Y422898D01*
X460004Y421898D01*
X452006Y416900D02*
Y422898D01*
X455006Y419899D01*
X451007D01*
X469001Y542598D02*
X471000D01*
X472000Y541598D01*
Y537600D01*
X471000Y536600D01*
X469001D01*
X468001Y537600D01*
Y541598D01*
X469001Y542598D01*
X466002D02*
Y536600D01*
X463003D01*
X462003Y537600D01*
Y538599D01*
X463003Y539599D01*
X466002D01*
X463003D01*
X462003Y540599D01*
Y541598D01*
X463003Y542598D01*
X466002D01*
X460004Y536600D02*
X458005D01*
X459004D01*
Y542598D01*
X460004Y541598D01*
X451007Y542598D02*
X455006D01*
Y539599D01*
X453006Y540599D01*
X452006D01*
X451007Y539599D01*
Y537600D01*
X452006Y536600D01*
X454006D01*
X455006Y537600D01*
X469001Y502798D02*
X471000D01*
X472000Y501798D01*
Y497800D01*
X471000Y496800D01*
X469001D01*
X468001Y497800D01*
Y501798D01*
X469001Y502798D01*
X466002D02*
Y496800D01*
X463003D01*
X462003Y497800D01*
Y498799D01*
X463003Y499799D01*
X466002D01*
X463003D01*
X462003Y500799D01*
Y501798D01*
X463003Y502798D01*
X466002D01*
X460004Y496800D02*
X458005D01*
X459004D01*
Y502798D01*
X460004Y501798D01*
X451007Y502798D02*
X453006Y501798D01*
X455006Y499799D01*
Y497800D01*
X454006Y496800D01*
X452006D01*
X451007Y497800D01*
Y498799D01*
X452006Y499799D01*
X455006D01*
X280700Y90498D02*
Y84500D01*
X277701D01*
X276701Y85500D01*
Y86499D01*
X277701Y87499D01*
X280700D01*
X277701D01*
X276701Y88499D01*
Y89498D01*
X277701Y90498D01*
X280700D01*
X274702D02*
Y84500D01*
Y87499D01*
X270703D01*
Y90498D01*
Y84500D01*
X268704D02*
X266705D01*
X267704D01*
Y90498D01*
X268704Y89498D01*
X468000Y276798D02*
Y270800D01*
X465001D01*
X464001Y271800D01*
Y272799D01*
X465001Y273799D01*
X468000D01*
X465001D01*
X464001Y274799D01*
Y275798D01*
X465001Y276798D01*
X468000D01*
X462002D02*
Y270800D01*
Y273799D01*
X458003D01*
Y276798D01*
Y270800D01*
X452005D02*
X456004D01*
X452005Y274799D01*
Y275798D01*
X453005Y276798D01*
X455004D01*
X456004Y275798D01*
X95500Y276798D02*
Y270800D01*
X92501D01*
X91501Y271800D01*
Y272799D01*
X92501Y273799D01*
X95500D01*
X92501D01*
X91501Y274799D01*
Y275798D01*
X92501Y276798D01*
X95500D01*
X89502D02*
Y270800D01*
Y273799D01*
X85503D01*
Y276798D01*
Y270800D01*
X83504Y275798D02*
X82504Y276798D01*
X80505D01*
X79505Y275798D01*
Y274799D01*
X80505Y273799D01*
X81504D01*
X80505D01*
X79505Y272799D01*
Y271800D01*
X80505Y270800D01*
X82504D01*
X83504Y271800D01*
X281700Y462998D02*
Y457000D01*
X278701D01*
X277701Y458000D01*
Y458999D01*
X278701Y459999D01*
X281700D01*
X278701D01*
X277701Y460999D01*
Y461998D01*
X278701Y462998D01*
X281700D01*
X275702D02*
Y457000D01*
Y459999D01*
X271703D01*
Y462998D01*
Y457000D01*
X266705D02*
Y462998D01*
X269704Y459999D01*
X265705D01*
X101501Y46598D02*
X103500D01*
X104500Y45598D01*
Y41600D01*
X103500Y40600D01*
X101501D01*
X100501Y41600D01*
Y45598D01*
X101501Y46598D01*
X98502D02*
Y40600D01*
X95503D01*
X94503Y41600D01*
Y42599D01*
X95503Y43599D01*
X98502D01*
X95503D01*
X94503Y44599D01*
Y45598D01*
X95503Y46598D01*
X98502D01*
X92504Y40600D02*
X90504D01*
X91504D01*
Y46598D01*
X92504Y45598D01*
X0Y0D02*
X547500D01*
Y547500D01*
X0D02*
X547500D01*
X0Y0D02*
Y547500D01*
D21*
X42028Y92852D02*
G03*
X42028Y92852I-1181J0D01*
G01*
X455829Y40846D02*
G03*
X455829Y40846I-1181J0D01*
G01*
X93033Y501154D02*
G03*
X93033Y501154I-1181J0D01*
G01*
X507835Y454648D02*
G03*
X507835Y454648I-1181J0D01*
G01*
X111683Y454153D02*
G03*
X111683Y454153I-1181J0D01*
G01*
X32184D02*
G03*
X32184Y454153I-1181J0D01*
G01*
X516879Y93347D02*
G03*
X516879Y93347I-1181J0D01*
G01*
X94528Y70602D02*
G03*
X94528Y70602I-1181J0D01*
G01*
Y110602D02*
G03*
X94528Y110602I-1181J0D01*
G01*
Y150602D02*
G03*
X94528Y150602I-1181J0D01*
G01*
X477679Y93347D02*
G03*
X477679Y93347I-1181J0D01*
G01*
X437579D02*
G03*
X437579Y93347I-1181J0D01*
G01*
X397579D02*
G03*
X397579Y93347I-1181J0D01*
G01*
X71883Y454153D02*
G03*
X71883Y454153I-1181J0D01*
G01*
X151584D02*
G03*
X151584Y454153I-1181J0D01*
G01*
X455335Y434998D02*
G03*
X455335Y434998I-1181J0D01*
G01*
Y396698D02*
G03*
X455335Y396698I-1181J0D01*
G01*
Y516398D02*
G03*
X455335Y516398I-1181J0D01*
G01*
Y476598D02*
G03*
X455335Y476598I-1181J0D01*
G01*
X94528Y30602D02*
G03*
X94528Y30602I-1181J0D01*
G01*
D22*
X49606Y98905D02*
G03*
X49606Y98905I-492J0D01*
G01*
X449087Y49114D02*
G03*
X449087Y49114I-492J0D01*
G01*
X98398Y492886D02*
G03*
X98398Y492886I-492J0D01*
G01*
X498878Y448595D02*
G03*
X498878Y448595I-492J0D01*
G01*
X117048Y445886D02*
G03*
X117048Y445886I-492J0D01*
G01*
X37548D02*
G03*
X37548Y445886I-492J0D01*
G01*
X510137Y101614D02*
G03*
X510137Y101614I-492J0D01*
G01*
X102106Y76656D02*
G03*
X102106Y76656I-492J0D01*
G01*
Y116656D02*
G03*
X102106Y116656I-492J0D01*
G01*
Y156656D02*
G03*
X102106Y156656I-492J0D01*
G01*
X470937Y101614D02*
G03*
X470937Y101614I-492J0D01*
G01*
X430837D02*
G03*
X430837Y101614I-492J0D01*
G01*
X390837D02*
G03*
X390837Y101614I-492J0D01*
G01*
X77248Y445886D02*
G03*
X77248Y445886I-492J0D01*
G01*
X156948D02*
G03*
X156948Y445886I-492J0D01*
G01*
X446378Y428944D02*
G03*
X446378Y428944I-492J0D01*
G01*
Y390645D02*
G03*
X446378Y390645I-492J0D01*
G01*
Y510345D02*
G03*
X446378Y510345I-492J0D01*
G01*
Y470544D02*
G03*
X446378Y470544I-492J0D01*
G01*
X102106Y36656D02*
G03*
X102106Y36656I-492J0D01*
G01*
D23*
X30217Y76711D02*
X44783D01*
X30217Y96789D02*
X44783D01*
X30217Y76711D02*
Y96789D01*
X44783Y76711D02*
Y96789D01*
X450711Y44783D02*
X470789D01*
X450711Y30217D02*
X470789D01*
X450711D02*
Y44783D01*
X470789Y30217D02*
Y44783D01*
X75711Y497217D02*
Y511783D01*
X95789Y497217D02*
Y511783D01*
X75711D02*
X95789D01*
X75711Y497217D02*
X95789D01*
X502717Y450711D02*
Y470789D01*
X517283Y450711D02*
Y470789D01*
X502717Y450711D02*
X517283D01*
X502717Y470789D02*
X517283D01*
X94361Y450217D02*
X114439D01*
X94361Y464783D02*
X114439D01*
Y450217D02*
Y464783D01*
X94361Y450217D02*
Y464783D01*
X14861Y450217D02*
X34939D01*
X14861Y464783D02*
X34939D01*
Y450217D02*
Y464783D01*
X14861Y450217D02*
Y464783D01*
X511761Y97283D02*
X531839D01*
X511761Y82717D02*
X531839D01*
X511761D02*
Y97283D01*
X531839Y82717D02*
Y97283D01*
X97283Y54461D02*
Y74539D01*
X82717Y54461D02*
Y74539D01*
X97283D01*
X82717Y54461D02*
X97283D01*
Y94461D02*
Y114539D01*
X82717Y94461D02*
Y114539D01*
X97283D01*
X82717Y94461D02*
X97283D01*
Y134461D02*
Y154539D01*
X82717Y134461D02*
Y154539D01*
X97283D01*
X82717Y134461D02*
X97283D01*
X472561Y97283D02*
X492639D01*
X472561Y82717D02*
X492639D01*
X472561D02*
Y97283D01*
X492639Y82717D02*
Y97283D01*
X432461D02*
X452539D01*
X432461Y82717D02*
X452539D01*
X432461D02*
Y97283D01*
X452539Y82717D02*
Y97283D01*
X392461D02*
X412539D01*
X392461Y82717D02*
X412539D01*
X392461D02*
Y97283D01*
X412539Y82717D02*
Y97283D01*
X54561Y450217D02*
X74639D01*
X54561Y464783D02*
X74639D01*
Y450217D02*
Y464783D01*
X54561Y450217D02*
Y464783D01*
X134261Y450217D02*
X154339D01*
X134261Y464783D02*
X154339D01*
Y450217D02*
Y464783D01*
X134261Y450217D02*
Y464783D01*
X450217Y431061D02*
Y451139D01*
X464783Y431061D02*
Y451139D01*
X450217Y431061D02*
X464783D01*
X450217Y451139D02*
X464783D01*
X450217Y392761D02*
Y412839D01*
X464783Y392761D02*
Y412839D01*
X450217Y392761D02*
X464783D01*
X450217Y412839D02*
X464783D01*
X450217Y512461D02*
Y532539D01*
X464783Y512461D02*
Y532539D01*
X450217Y512461D02*
X464783D01*
X450217Y532539D02*
X464783D01*
X450217Y472661D02*
Y492739D01*
X464783Y472661D02*
Y492739D01*
X450217Y472661D02*
X464783D01*
X450217Y492739D02*
X464783D01*
X97283Y14461D02*
Y34539D01*
X82717Y14461D02*
Y34539D01*
X97283D01*
X82717Y14461D02*
X97283D01*
M02*
