G04 Layer_Physical_Order=3*
G04 Layer_Color=16440176*
%FSLAX25Y25*%
%MOIN*%
G70*
G01*
G75*
%ADD16C,0.00700*%
%ADD17C,0.01000*%
%ADD19C,0.05906*%
%ADD20C,0.03000*%
G36*
X98800Y478951D02*
X99275Y479045D01*
X99724Y479345D01*
X100224Y479077D01*
Y461366D01*
X99783Y461130D01*
X99576Y461268D01*
X98600Y461462D01*
X97624Y461268D01*
X96798Y460716D01*
X96245Y459889D01*
X96051Y458913D01*
X96151Y458411D01*
X93938Y456198D01*
X93476Y456390D01*
Y459330D01*
X95273Y461127D01*
X95572Y461573D01*
X95676Y462100D01*
Y479927D01*
X96176Y480078D01*
X96498Y479598D01*
X97325Y479045D01*
X97800Y478951D01*
Y481400D01*
X98800D01*
Y478951D01*
D02*
G37*
G36*
X46479Y501074D02*
Y480241D01*
X46584Y479715D01*
X46882Y479268D01*
X50124Y476027D01*
Y474777D01*
X49624Y474728D01*
X49455Y475575D01*
X48902Y476402D01*
X48076Y476955D01*
X47100Y477149D01*
X46125Y476955D01*
X45298Y476402D01*
X44745Y475575D01*
X44551Y474600D01*
X44651Y474098D01*
X43477Y472923D01*
X43178Y472477D01*
X43074Y471950D01*
Y468552D01*
X42633Y468317D01*
X42575Y468355D01*
X41600Y468549D01*
X40624Y468355D01*
X39798Y467802D01*
X39245Y466975D01*
X39051Y466000D01*
X39245Y465025D01*
X39798Y464198D01*
X40624Y463645D01*
X41600Y463451D01*
X42575Y463645D01*
X42633Y463683D01*
X43074Y463448D01*
Y462652D01*
X42633Y462417D01*
X42575Y462455D01*
X42100Y462549D01*
Y460100D01*
Y457651D01*
X42575Y457745D01*
X42633Y457783D01*
X43074Y457548D01*
Y447131D01*
X42574Y447082D01*
X42555Y447176D01*
X42002Y448002D01*
X41175Y448555D01*
X40200Y448749D01*
X39224Y448555D01*
X38398Y448002D01*
X37845Y447176D01*
X37651Y446200D01*
X37845Y445225D01*
X38398Y444398D01*
X39224Y443845D01*
X40200Y443651D01*
X41175Y443845D01*
X42002Y444398D01*
X42555Y445225D01*
X42574Y445318D01*
X43074Y445269D01*
Y437980D01*
X42574Y437773D01*
X29676Y450670D01*
Y451688D01*
X30117Y451924D01*
X30322Y451787D01*
X31298Y451593D01*
X32273Y451787D01*
X33100Y452339D01*
X33653Y453166D01*
X33847Y454142D01*
X33653Y455117D01*
X33100Y455944D01*
X32674Y456229D01*
Y460016D01*
X33115Y460252D01*
X33424Y460045D01*
X34400Y459851D01*
X35375Y460045D01*
X36202Y460598D01*
X36755Y461424D01*
X36949Y462400D01*
X36755Y463376D01*
X36202Y464202D01*
X35375Y464755D01*
X34400Y464949D01*
X33424Y464755D01*
X33115Y464548D01*
X32674Y464784D01*
Y470597D01*
X36023Y473946D01*
X36023Y473946D01*
X36322Y474393D01*
X36426Y474919D01*
X36322Y475446D01*
X36067Y475827D01*
X36148Y476046D01*
X36341Y476282D01*
X37000Y476151D01*
X37975Y476345D01*
X38802Y476898D01*
X39355Y477725D01*
X39549Y478700D01*
X39449Y479202D01*
X41973Y481727D01*
X41973Y481727D01*
X42272Y482173D01*
X42376Y482700D01*
Y500950D01*
X42377Y500950D01*
X42272Y501477D01*
X41973Y501923D01*
X41973Y501923D01*
X40849Y503047D01*
X40623Y503199D01*
X40431Y503811D01*
X40555Y503997D01*
X40749Y504972D01*
X40555Y505948D01*
X40326Y506291D01*
X40549Y506857D01*
X40668Y506885D01*
X46479Y501074D01*
D02*
G37*
G36*
X55974Y474442D02*
Y465153D01*
X55533Y464917D01*
X55475Y464955D01*
X55000Y465050D01*
Y462600D01*
X54000D01*
Y465050D01*
X53525Y464955D01*
X53317Y464817D01*
X52876Y465052D01*
Y476600D01*
X52877Y476600D01*
X52819Y476889D01*
X53280Y477136D01*
X55974Y474442D01*
D02*
G37*
G36*
X545461Y2039D02*
X141828D01*
X141779Y2539D01*
X142227Y2628D01*
X142673Y2927D01*
X145173Y5427D01*
X145173Y5427D01*
X145472Y5873D01*
X145576Y6400D01*
Y15996D01*
X146076Y16145D01*
X146825Y15645D01*
X147800Y15451D01*
X148775Y15645D01*
X149602Y16198D01*
X150155Y17025D01*
X150349Y18000D01*
X150155Y18975D01*
X149602Y19802D01*
X148852Y20304D01*
X148828Y20620D01*
X148872Y20845D01*
X149641Y21359D01*
X150194Y22186D01*
X150388Y23161D01*
X150194Y24137D01*
X149641Y24964D01*
X148814Y25516D01*
X147839Y25710D01*
X146863Y25516D01*
X146076Y24991D01*
X145576Y25107D01*
Y30450D01*
X145577Y30450D01*
X145472Y30977D01*
X145173Y31423D01*
X145173Y31423D01*
X145095Y31501D01*
X145342Y31962D01*
X145900Y31851D01*
X146876Y32045D01*
X147702Y32598D01*
X148255Y33424D01*
X148449Y34400D01*
X148255Y35375D01*
X147702Y36202D01*
X147365Y36428D01*
X147560Y36899D01*
X147800Y36851D01*
X148775Y37045D01*
X149602Y37598D01*
X150155Y38425D01*
X150349Y39400D01*
X150155Y40376D01*
X149602Y41202D01*
X148775Y41755D01*
X147800Y41949D01*
X147476Y42394D01*
Y60091D01*
X147468Y60136D01*
X147468Y60151D01*
X147868Y60687D01*
X148470Y60806D01*
X149297Y61359D01*
X149850Y62186D01*
X150044Y63161D01*
X149850Y64137D01*
X149297Y64964D01*
X148638Y65404D01*
X148739Y65934D01*
X148796Y65945D01*
X149623Y66498D01*
X150175Y67325D01*
X150349Y68199D01*
X150812Y68444D01*
X154324Y64932D01*
Y60900D01*
X154428Y60373D01*
X154727Y59927D01*
X172227Y42427D01*
X172673Y42128D01*
X173200Y42024D01*
X173200Y42024D01*
X184613D01*
X184898Y41598D01*
X185724Y41045D01*
X186700Y40851D01*
X187675Y41045D01*
X187883Y41183D01*
X188324Y40948D01*
Y38650D01*
X188428Y38123D01*
X188727Y37677D01*
X196301Y30102D01*
X196201Y29600D01*
X196395Y28624D01*
X196948Y27798D01*
X197775Y27245D01*
X198750Y27051D01*
X199725Y27245D01*
X200552Y27798D01*
X201105Y28624D01*
X201299Y29600D01*
X201105Y30575D01*
X201033Y30683D01*
X201269Y31124D01*
X210430D01*
X226351Y15202D01*
X226251Y14700D01*
X226445Y13724D01*
X226998Y12898D01*
X227824Y12345D01*
X228800Y12151D01*
X229776Y12345D01*
X230602Y12898D01*
X231155Y13724D01*
X231349Y14700D01*
X231155Y15676D01*
X230602Y16502D01*
X229776Y17055D01*
X228800Y17249D01*
X228298Y17149D01*
X211973Y33473D01*
X211527Y33772D01*
X211000Y33876D01*
X200170D01*
X193376Y40670D01*
Y42824D01*
X193838Y43015D01*
X201527Y35327D01*
X201973Y35028D01*
X202500Y34923D01*
X202500Y34924D01*
X231480D01*
X236301Y30102D01*
X236201Y29600D01*
X236395Y28624D01*
X236948Y27798D01*
X237774Y27245D01*
X238750Y27051D01*
X239725Y27245D01*
X240552Y27798D01*
X241105Y28624D01*
X241299Y29600D01*
X241105Y30575D01*
X240552Y31402D01*
X239725Y31955D01*
X238750Y32149D01*
X238248Y32049D01*
X233023Y37273D01*
X232649Y37524D01*
X232663Y37823D01*
X232732Y38024D01*
X239130D01*
X244323Y32830D01*
Y28670D01*
X240330Y24676D01*
X230670D01*
X226249Y29098D01*
X226349Y29600D01*
X226155Y30575D01*
X225602Y31402D01*
X224776Y31955D01*
X223800Y32149D01*
X222825Y31955D01*
X221998Y31402D01*
X221445Y30575D01*
X221251Y29600D01*
X221445Y28624D01*
X221998Y27798D01*
X222825Y27245D01*
X223800Y27051D01*
X224302Y27151D01*
X229127Y22327D01*
X229127Y22327D01*
X229573Y22028D01*
X230100Y21924D01*
X230100Y21924D01*
X240900D01*
X241427Y22028D01*
X241873Y22327D01*
X246673Y27127D01*
X246673Y27127D01*
X246972Y27573D01*
X247077Y28100D01*
X247077Y28100D01*
Y33400D01*
X246972Y33927D01*
X246673Y34373D01*
X240673Y40373D01*
X240227Y40672D01*
X240047Y40707D01*
X239941Y41238D01*
X240073Y41327D01*
X244723Y45977D01*
X244723Y45977D01*
X245022Y46423D01*
X245127Y46950D01*
Y200042D01*
X245743Y200297D01*
X246569Y200931D01*
X246824Y201262D01*
X247323Y201093D01*
Y193400D01*
X247428Y192873D01*
X247727Y192427D01*
X260823Y179330D01*
Y162514D01*
X260324Y162247D01*
X259725Y162646D01*
X258750Y162840D01*
X257774Y162646D01*
X256948Y162094D01*
X256395Y161267D01*
X256201Y160291D01*
X256395Y159316D01*
X256948Y158489D01*
X257774Y157937D01*
X258750Y157742D01*
X259725Y157937D01*
X260324Y158336D01*
X260823Y158069D01*
Y112556D01*
X260324Y112289D01*
X259775Y112655D01*
X258800Y112849D01*
X257824Y112655D01*
X256998Y112102D01*
X256445Y111275D01*
X256251Y110300D01*
X256445Y109325D01*
X256998Y108498D01*
X257824Y107945D01*
X258800Y107751D01*
X259775Y107945D01*
X260324Y108311D01*
X260823Y108044D01*
Y64311D01*
X259252Y62740D01*
X258750Y62840D01*
X257774Y62646D01*
X256948Y62094D01*
X256395Y61267D01*
X256201Y60291D01*
X256395Y59316D01*
X256948Y58489D01*
X257774Y57937D01*
X258750Y57742D01*
X259725Y57937D01*
X260552Y58489D01*
X261105Y59316D01*
X261299Y60291D01*
X261199Y60794D01*
X262474Y62069D01*
X262935Y61823D01*
X262851Y61400D01*
X263045Y60425D01*
X263598Y59598D01*
X264424Y59045D01*
X265400Y58851D01*
X266375Y59045D01*
X267202Y59598D01*
X267755Y60425D01*
X267949Y61400D01*
X267755Y62375D01*
X267202Y63202D01*
X266375Y63755D01*
X265400Y63949D01*
X264424Y63755D01*
X264037Y63496D01*
X263695Y63678D01*
X263577Y63790D01*
Y179370D01*
X264076Y179577D01*
X280423Y163230D01*
Y162752D01*
X279983Y162517D01*
X279776Y162655D01*
X278800Y162849D01*
X277824Y162655D01*
X276998Y162102D01*
X276445Y161275D01*
X276251Y160300D01*
X276445Y159325D01*
X276998Y158498D01*
X277824Y157945D01*
X278800Y157751D01*
X279776Y157945D01*
X279983Y158083D01*
X280423Y157848D01*
Y147419D01*
X279983Y147183D01*
X279726Y147355D01*
X278750Y147549D01*
X277775Y147355D01*
X276948Y146802D01*
X276395Y145975D01*
X276201Y145000D01*
X276395Y144025D01*
X276948Y143198D01*
X277775Y142645D01*
X278750Y142451D01*
X279726Y142645D01*
X279983Y142817D01*
X280423Y142581D01*
Y112752D01*
X279983Y112517D01*
X279776Y112655D01*
X278800Y112849D01*
X277824Y112655D01*
X276998Y112102D01*
X276445Y111275D01*
X276251Y110300D01*
X276445Y109325D01*
X276998Y108498D01*
X277824Y107945D01*
X278800Y107751D01*
X279776Y107945D01*
X279983Y108083D01*
X280423Y107848D01*
Y82052D01*
X279983Y81817D01*
X279776Y81955D01*
X278800Y82149D01*
X277824Y81955D01*
X276998Y81402D01*
X276445Y80576D01*
X276251Y79600D01*
X276445Y78624D01*
X276998Y77798D01*
X277824Y77245D01*
X278800Y77051D01*
X279776Y77245D01*
X279983Y77384D01*
X280423Y77148D01*
Y63912D01*
X279252Y62740D01*
X278750Y62840D01*
X277775Y62646D01*
X276948Y62094D01*
X276395Y61267D01*
X276201Y60291D01*
X276395Y59316D01*
X276948Y58489D01*
X277775Y57937D01*
X278750Y57742D01*
X279726Y57937D01*
X280552Y58489D01*
X281105Y59316D01*
X281299Y60291D01*
X281199Y60794D01*
X282773Y62368D01*
X283072Y62815D01*
X283176Y63341D01*
Y163800D01*
X283176Y163800D01*
X283072Y164327D01*
X282773Y164773D01*
X282773Y164773D01*
X260677Y186870D01*
Y200496D01*
X261176Y200742D01*
X261757Y200297D01*
X262718Y199899D01*
X263750Y199763D01*
X264782Y199899D01*
X265743Y200297D01*
X266323Y200742D01*
X266824Y200496D01*
Y199500D01*
X266928Y198973D01*
X267227Y198527D01*
X292424Y173330D01*
Y107900D01*
X292528Y107373D01*
X292827Y106927D01*
X297374Y102380D01*
Y81148D01*
X296873Y80997D01*
X296602Y81402D01*
X295776Y81955D01*
X294800Y82149D01*
X293825Y81955D01*
X292998Y81402D01*
X292445Y80576D01*
X292251Y79600D01*
X292445Y78624D01*
X292998Y77798D01*
X293825Y77245D01*
X294800Y77051D01*
X295776Y77245D01*
X296602Y77798D01*
X296873Y78203D01*
X297374Y78052D01*
Y62378D01*
X296948Y62094D01*
X296395Y61267D01*
X296201Y60291D01*
X296395Y59316D01*
X296948Y58489D01*
X297775Y57937D01*
X298490Y57794D01*
X298656Y57253D01*
X289252Y47849D01*
X288750Y47949D01*
X287774Y47755D01*
X286948Y47202D01*
X286395Y46376D01*
X286201Y45400D01*
X286395Y44425D01*
X286948Y43598D01*
X287774Y43045D01*
X288750Y42851D01*
X289725Y43045D01*
X290552Y43598D01*
X291105Y44425D01*
X291299Y45400D01*
X291199Y45902D01*
X302773Y57477D01*
X302773Y57477D01*
X303072Y57923D01*
X303176Y58450D01*
X303176Y58450D01*
Y171324D01*
X303638Y171515D01*
X305324Y169830D01*
Y147487D01*
X304898Y147202D01*
X304345Y146376D01*
X304151Y145400D01*
X304345Y144424D01*
X304898Y143598D01*
X305725Y143045D01*
X306700Y142851D01*
X307676Y143045D01*
X308502Y143598D01*
X309055Y144424D01*
X309249Y145400D01*
X309055Y146376D01*
X308502Y147202D01*
X308077Y147487D01*
Y170400D01*
X307972Y170927D01*
X307673Y171373D01*
X289476Y189570D01*
Y202432D01*
X289977Y202531D01*
X290297Y201757D01*
X290931Y200931D01*
X291757Y200297D01*
X292718Y199899D01*
X293750Y199763D01*
X294782Y199899D01*
X295743Y200297D01*
X296223Y200666D01*
X296724Y200419D01*
Y187614D01*
X296828Y187087D01*
X297127Y186641D01*
X311373Y172394D01*
Y116248D01*
X310874Y116097D01*
X310602Y116502D01*
X309775Y117055D01*
X308800Y117249D01*
X307824Y117055D01*
X306998Y116502D01*
X306445Y115675D01*
X306251Y114700D01*
X306445Y113725D01*
X306998Y112898D01*
X307824Y112345D01*
X308800Y112151D01*
X309775Y112345D01*
X310602Y112898D01*
X310874Y113303D01*
X311373Y113152D01*
Y64373D01*
X310874Y64222D01*
X310552Y64702D01*
X309725Y65255D01*
X308750Y65449D01*
X307774Y65255D01*
X306948Y64702D01*
X306395Y63876D01*
X306201Y62900D01*
X306395Y61924D01*
X306948Y61098D01*
X307774Y60545D01*
X308750Y60351D01*
X309725Y60545D01*
X310552Y61098D01*
X310874Y61578D01*
X311373Y61427D01*
Y47504D01*
X310948Y47220D01*
X310395Y46393D01*
X310201Y45417D01*
X310395Y44442D01*
X310948Y43615D01*
X311774Y43062D01*
X312750Y42868D01*
X313725Y43062D01*
X314552Y43615D01*
X315105Y44442D01*
X315299Y45417D01*
X315105Y46393D01*
X314552Y47220D01*
X314126Y47504D01*
Y172964D01*
X314022Y173491D01*
X313723Y173937D01*
X299477Y188184D01*
Y202432D01*
X299976Y202531D01*
X300297Y201757D01*
X300931Y200931D01*
X301757Y200297D01*
X302718Y199899D01*
X303750Y199763D01*
X304782Y199899D01*
X305743Y200297D01*
X306224Y200666D01*
X306723Y200419D01*
Y190700D01*
X306828Y190173D01*
X307127Y189727D01*
X335027Y161827D01*
X335473Y161528D01*
X336000Y161424D01*
X336000Y161424D01*
X390602D01*
X391153Y160872D01*
X391053Y160370D01*
X391247Y159395D01*
X391800Y158568D01*
X392627Y158015D01*
X393602Y157821D01*
X394578Y158015D01*
X394923Y158246D01*
X395424Y157979D01*
Y152338D01*
X395528Y151811D01*
X395827Y151365D01*
X396351Y150841D01*
X396091Y150393D01*
X395186Y150213D01*
X394359Y149661D01*
X393839Y148882D01*
X393650Y148841D01*
X393301Y148856D01*
X392802Y149602D01*
X391975Y150155D01*
X391000Y150349D01*
X390024Y150155D01*
X389198Y149602D01*
X388645Y148775D01*
X388451Y147800D01*
X388645Y146825D01*
X389198Y145998D01*
X390024Y145445D01*
X391000Y145251D01*
X391975Y145445D01*
X392285Y145652D01*
X392785Y145385D01*
Y139984D01*
X392775Y139963D01*
X392297Y139610D01*
X391600Y139749D01*
X390624Y139555D01*
X389798Y139002D01*
X389245Y138175D01*
X389051Y137200D01*
X389245Y136224D01*
X389798Y135398D01*
X390624Y134845D01*
X391600Y134651D01*
X392576Y134845D01*
X393402Y135398D01*
X393955Y136224D01*
X394122Y137062D01*
X394478Y137282D01*
X394635Y137321D01*
X394773Y137228D01*
X395300Y137124D01*
X400050D01*
X400577Y137228D01*
X401023Y137527D01*
X402573Y139077D01*
X402759Y139354D01*
X402844Y139401D01*
X403270Y139489D01*
X403373Y139480D01*
X404025Y139045D01*
X405000Y138851D01*
X405975Y139045D01*
X406802Y139598D01*
X407355Y140425D01*
X407549Y141400D01*
X407355Y142376D01*
X406802Y143202D01*
X405975Y143755D01*
X405000Y143949D01*
X404025Y143755D01*
X404021Y143752D01*
X403702Y144141D01*
X405273Y145712D01*
X405273Y145712D01*
X405572Y146159D01*
X405677Y146685D01*
X405677Y146685D01*
Y155900D01*
X405677Y155900D01*
X405572Y156427D01*
X405273Y156873D01*
X405273Y156873D01*
X400076Y162070D01*
Y172270D01*
X400576Y172477D01*
X403824Y169230D01*
Y166157D01*
X403928Y165630D01*
X404227Y165183D01*
X408508Y160902D01*
X408408Y160400D01*
X408602Y159424D01*
X409154Y158598D01*
X409981Y158045D01*
X410957Y157851D01*
X411932Y158045D01*
X412759Y158598D01*
X413311Y159424D01*
X413506Y160400D01*
X413311Y161375D01*
X412759Y162202D01*
X411932Y162755D01*
X410957Y162949D01*
X410454Y162849D01*
X406576Y166727D01*
Y168623D01*
X407077Y168672D01*
X407245Y167824D01*
X407798Y166998D01*
X408625Y166445D01*
X409600Y166251D01*
X410575Y166445D01*
X411402Y166998D01*
X411955Y167824D01*
X412149Y168800D01*
X411955Y169775D01*
X411402Y170602D01*
X410575Y171155D01*
X409600Y171349D01*
X409098Y171249D01*
X396585Y183762D01*
X396776Y184224D01*
X400930D01*
X434367Y150787D01*
X434114Y150332D01*
X433224Y150155D01*
X432398Y149602D01*
X431903Y148862D01*
X431554Y148842D01*
X431363Y148886D01*
X430846Y149661D01*
X430019Y150213D01*
X429043Y150407D01*
X428068Y150213D01*
X427241Y149661D01*
X426688Y148834D01*
X426494Y147858D01*
X426688Y146883D01*
X427241Y146056D01*
X428068Y145503D01*
X429043Y145309D01*
X430019Y145503D01*
X430846Y146056D01*
X431341Y146797D01*
X431689Y146816D01*
X431880Y146772D01*
X432398Y145998D01*
X433224Y145445D01*
X434200Y145251D01*
X434702Y145351D01*
X436127Y143927D01*
X436573Y143628D01*
X437100Y143524D01*
X441100D01*
X441627Y143628D01*
X442073Y143927D01*
X443273Y145127D01*
X443273Y145127D01*
X443427Y145357D01*
X443958Y145251D01*
X444043Y144825D01*
X444595Y143998D01*
X445422Y143445D01*
X446398Y143251D01*
X447373Y143445D01*
X448200Y143998D01*
X448752Y144825D01*
X448947Y145800D01*
X448847Y146302D01*
X450514Y147970D01*
X450968Y147716D01*
X451145Y146825D01*
X451698Y145998D01*
X452525Y145445D01*
X453500Y145251D01*
X454475Y145445D01*
X455302Y145998D01*
X455855Y146825D01*
X456049Y147800D01*
X455855Y148775D01*
X455302Y149602D01*
X454475Y150155D01*
X453584Y150332D01*
X453331Y150786D01*
X455373Y152829D01*
X455672Y153276D01*
X455777Y153802D01*
Y264350D01*
X455672Y264877D01*
X455373Y265323D01*
X412449Y308248D01*
X412549Y308750D01*
X412355Y309725D01*
X411802Y310552D01*
X410976Y311105D01*
X410000Y311299D01*
X409024Y311105D01*
X408198Y310552D01*
X407645Y309725D01*
X407451Y308750D01*
X407645Y307774D01*
X408198Y306948D01*
X409024Y306395D01*
X410000Y306201D01*
X410502Y306301D01*
X453023Y263780D01*
Y178576D01*
X452562Y178385D01*
X434519Y196427D01*
X434568Y196925D01*
X434602Y196948D01*
X435155Y197775D01*
X435349Y198750D01*
X435155Y199725D01*
X434602Y200552D01*
X433776Y201105D01*
X432800Y201299D01*
X431824Y201105D01*
X430998Y200552D01*
X430445Y199725D01*
X430251Y198750D01*
X430445Y197775D01*
X430483Y197717D01*
X430247Y197276D01*
X425970D01*
X417470Y205777D01*
X417716Y206238D01*
X417900Y206201D01*
X418876Y206395D01*
X419702Y206948D01*
X420255Y207774D01*
X420449Y208750D01*
X420255Y209725D01*
X419702Y210552D01*
X418876Y211105D01*
X417900Y211299D01*
X416924Y211105D01*
X416098Y210552D01*
X415545Y209725D01*
X415351Y208750D01*
X415388Y208566D01*
X414927Y208320D01*
X405477Y217770D01*
Y276675D01*
X405885Y276948D01*
X406438Y277775D01*
X406632Y278750D01*
X406438Y279726D01*
X405885Y280552D01*
X405058Y281105D01*
X404083Y281299D01*
X403876Y281468D01*
Y291200D01*
X403772Y291727D01*
X403473Y292173D01*
X401677Y293970D01*
Y297027D01*
X402177Y297179D01*
X402298Y296998D01*
X403125Y296445D01*
X404100Y296251D01*
X405076Y296445D01*
X405902Y296998D01*
X406455Y297825D01*
X406649Y298800D01*
X406455Y299776D01*
X405902Y300602D01*
X405076Y301155D01*
X404100Y301349D01*
X403125Y301155D01*
X402298Y300602D01*
X402177Y300421D01*
X401677Y300573D01*
Y310114D01*
X402033Y310305D01*
X402177Y310335D01*
X403100Y310151D01*
X404075Y310345D01*
X404902Y310898D01*
X405455Y311724D01*
X405649Y312700D01*
X405455Y313675D01*
X404902Y314502D01*
X404075Y315055D01*
X403100Y315249D01*
X402125Y315055D01*
X401298Y314502D01*
X400745Y313675D01*
X400687Y313383D01*
X400209Y313238D01*
X382673Y330773D01*
X382227Y331072D01*
X381700Y331176D01*
X332000D01*
X331473Y331072D01*
X331027Y330773D01*
X331027Y330773D01*
X327827Y327573D01*
X327528Y327127D01*
X327424Y326600D01*
Y326277D01*
X326923Y326107D01*
X326569Y326569D01*
X325743Y327203D01*
X324782Y327601D01*
X323786Y327732D01*
X323675Y327888D01*
X323530Y328183D01*
X374073Y378727D01*
X374372Y379173D01*
X374477Y379700D01*
Y432230D01*
X381077Y438831D01*
X381580Y438731D01*
X382555Y438925D01*
X382683Y439010D01*
X383123Y438774D01*
Y436470D01*
X376927Y430273D01*
X376628Y429827D01*
X376523Y429300D01*
Y420513D01*
X376628Y419987D01*
X376927Y419540D01*
X381924Y414542D01*
X381924Y414542D01*
X382371Y414244D01*
X382797Y414159D01*
X383095Y413713D01*
X383922Y413161D01*
X384898Y412967D01*
X385873Y413161D01*
X386700Y413713D01*
X387253Y414540D01*
X387447Y415516D01*
X387253Y416491D01*
X386700Y417318D01*
X385873Y417871D01*
X384898Y418065D01*
X383922Y417871D01*
X383095Y417318D01*
X383047Y417313D01*
X379276Y421084D01*
Y422548D01*
X379717Y422783D01*
X379925Y422645D01*
X380900Y422451D01*
X381875Y422645D01*
X382702Y423198D01*
X383255Y424024D01*
X383449Y425000D01*
X383349Y425502D01*
X390973Y433127D01*
X390973Y433127D01*
X391272Y433573D01*
X391376Y434100D01*
Y465000D01*
X391376Y465000D01*
X391272Y465527D01*
X390973Y465973D01*
X385658Y471289D01*
X385696Y471530D01*
X385872Y471660D01*
X386247Y471821D01*
X387100Y471651D01*
X388075Y471845D01*
X388902Y472398D01*
X389455Y473224D01*
X389649Y474200D01*
X389455Y475176D01*
X388902Y476002D01*
X388075Y476555D01*
X387100Y476749D01*
X386124Y476555D01*
X386017Y476483D01*
X385577Y476719D01*
Y484513D01*
X385472Y485040D01*
X385173Y485487D01*
X385173Y485487D01*
X384031Y486629D01*
X384277Y487090D01*
X384898Y486967D01*
X385873Y487161D01*
X386700Y487713D01*
X387253Y488540D01*
X387447Y489516D01*
X387253Y490491D01*
X386700Y491318D01*
X386274Y491603D01*
Y513267D01*
X386306Y513397D01*
X386617Y513708D01*
X387100Y513612D01*
X388075Y513806D01*
X388902Y514359D01*
X389455Y515186D01*
X389649Y516161D01*
X389455Y517137D01*
X388902Y517964D01*
X388075Y518516D01*
X387100Y518710D01*
X386124Y518516D01*
X385298Y517964D01*
X384745Y517137D01*
X384575Y516279D01*
X384104Y516043D01*
X382277Y517870D01*
Y525023D01*
X382364Y525089D01*
X383042Y524974D01*
X383295Y524595D01*
X384122Y524043D01*
X385098Y523849D01*
X386073Y524043D01*
X386900Y524595D01*
X387453Y525422D01*
X387647Y526398D01*
X387453Y527373D01*
X386900Y528200D01*
X386073Y528753D01*
X385098Y528947D01*
X384122Y528753D01*
X383295Y528200D01*
X383042Y527821D01*
X382364Y527706D01*
X382277Y527772D01*
Y531429D01*
X382702Y531713D01*
X383255Y532540D01*
X383449Y533516D01*
X383255Y534491D01*
X382702Y535318D01*
X381875Y535871D01*
X380900Y536065D01*
X379925Y535871D01*
X379098Y535318D01*
X378545Y534491D01*
X378351Y533516D01*
X378451Y533013D01*
X377027Y531589D01*
X376728Y531143D01*
X376624Y530616D01*
Y510155D01*
X376123Y509745D01*
X375600Y509849D01*
X374624Y509655D01*
X373798Y509102D01*
X373576Y508771D01*
X373077Y508923D01*
Y514850D01*
X372972Y515377D01*
X372673Y515823D01*
X371199Y517298D01*
X371299Y517800D01*
X371105Y518776D01*
X370552Y519602D01*
X369725Y520155D01*
X368750Y520349D01*
X367775Y520155D01*
X367227Y519789D01*
X366726Y520056D01*
Y530200D01*
X366622Y530727D01*
X366323Y531173D01*
X366149Y531348D01*
X366249Y531850D01*
X366055Y532826D01*
X365502Y533652D01*
X364675Y534205D01*
X363700Y534399D01*
X362724Y534205D01*
X362567Y534100D01*
X362126Y534336D01*
Y535880D01*
X364570Y538323D01*
X387430D01*
X391023Y534730D01*
Y480900D01*
X391128Y480373D01*
X391427Y479927D01*
X397249Y474105D01*
X397149Y473602D01*
X397343Y472627D01*
X397895Y471800D01*
X398722Y471247D01*
X399698Y471053D01*
X400673Y471247D01*
X401500Y471800D01*
X401663Y472044D01*
X402161Y472093D01*
X405523Y468730D01*
Y455452D01*
X405083Y455217D01*
X404876Y455355D01*
X403900Y455549D01*
X402924Y455355D01*
X402098Y454802D01*
X401545Y453975D01*
X401351Y453000D01*
X401545Y452025D01*
X401845Y451577D01*
X401577Y451077D01*
X399050D01*
X398523Y450972D01*
X398077Y450673D01*
X398077Y450673D01*
X394077Y446673D01*
X393778Y446227D01*
X393673Y445700D01*
Y423000D01*
X393778Y422473D01*
X394077Y422027D01*
X404006Y412097D01*
X403760Y411637D01*
X402943Y411799D01*
X401968Y411605D01*
X401141Y411052D01*
X400589Y410225D01*
X400394Y409250D01*
X400589Y408275D01*
X401141Y407448D01*
X401968Y406895D01*
X402943Y406701D01*
X403919Y406895D01*
X404746Y407448D01*
X405298Y408275D01*
X405492Y409250D01*
X405330Y410066D01*
X405791Y410313D01*
X406123Y409980D01*
Y403230D01*
X406228Y402704D01*
X406286Y402617D01*
X406056Y402061D01*
X406025Y402055D01*
X405198Y401502D01*
X404645Y400675D01*
X404451Y399700D01*
X404645Y398725D01*
X405198Y397898D01*
X406025Y397345D01*
X407000Y397151D01*
X407975Y397345D01*
X408001Y397362D01*
X408557Y397132D01*
X408578Y397023D01*
X408877Y396577D01*
X412527Y392927D01*
X412973Y392628D01*
X413500Y392524D01*
X421813D01*
X422080Y392023D01*
X421847Y391675D01*
X421653Y390700D01*
X421847Y389724D01*
X422400Y388898D01*
X423227Y388345D01*
X424202Y388151D01*
X425178Y388345D01*
X426005Y388898D01*
X426557Y389724D01*
X426751Y390700D01*
X426557Y391675D01*
X426325Y392023D01*
X426592Y392524D01*
X426639D01*
X427165Y392628D01*
X427612Y392927D01*
X430432Y395747D01*
X430910Y395602D01*
X430945Y395427D01*
X431498Y394600D01*
X432325Y394047D01*
X433300Y393853D01*
X434275Y394047D01*
X435102Y394600D01*
X435655Y395427D01*
X435849Y396402D01*
X435655Y397378D01*
X435102Y398205D01*
X434275Y398757D01*
X434101Y398792D01*
X433956Y399271D01*
X444173Y409488D01*
X444173Y409488D01*
X444472Y409935D01*
X444577Y410461D01*
X444577Y410461D01*
Y413030D01*
X462398Y430851D01*
X462900Y430751D01*
X463875Y430945D01*
X464702Y431498D01*
X465255Y432325D01*
X465449Y433300D01*
X465255Y434275D01*
X464702Y435102D01*
X463875Y435655D01*
X462900Y435849D01*
X461925Y435655D01*
X461098Y435102D01*
X460545Y434275D01*
X460351Y433300D01*
X460451Y432798D01*
X451038Y423385D01*
X450576Y423576D01*
Y427743D01*
X451077Y428011D01*
X451409Y427788D01*
X452384Y427594D01*
X453360Y427788D01*
X454187Y428341D01*
X454739Y429168D01*
X454933Y430143D01*
X454739Y431119D01*
X454187Y431946D01*
X453360Y432498D01*
X452384Y432692D01*
X451409Y432498D01*
X451077Y432276D01*
X450576Y432544D01*
Y434444D01*
X451077Y434711D01*
X451624Y434345D01*
X452600Y434151D01*
X453576Y434345D01*
X454402Y434898D01*
X454955Y435724D01*
X455149Y436700D01*
X454955Y437676D01*
X454402Y438502D01*
X453576Y439055D01*
X452600Y439249D01*
X451624Y439055D01*
X451077Y438689D01*
X450576Y438956D01*
Y451524D01*
X450521Y451804D01*
X450971Y452105D01*
X451024Y452069D01*
X452000Y451875D01*
X452502Y451975D01*
X454550Y449927D01*
X454997Y449628D01*
X455524Y449523D01*
X462850D01*
X463377Y449628D01*
X463823Y449927D01*
X468923Y455027D01*
X469222Y455473D01*
X469326Y456000D01*
Y458000D01*
X469222Y458527D01*
X468923Y458973D01*
X468923Y458973D01*
X457523Y470373D01*
X457077Y470672D01*
X456550Y470777D01*
X456187D01*
X455902Y471202D01*
X455076Y471755D01*
X454700Y471830D01*
X454555Y472308D01*
X456073Y473827D01*
X456073Y473827D01*
X456372Y474273D01*
X456476Y474800D01*
Y484347D01*
X456977Y484578D01*
X457624Y484145D01*
X458100Y484051D01*
Y486500D01*
X459100D01*
Y484051D01*
X459576Y484145D01*
X460402Y484698D01*
X460955Y485525D01*
X461030Y485900D01*
X461508Y486045D01*
X467474Y480080D01*
Y465750D01*
X467578Y465223D01*
X467877Y464777D01*
X469974Y462680D01*
Y429454D01*
X469298Y429002D01*
X468745Y428175D01*
X468551Y427200D01*
X468745Y426225D01*
X469298Y425398D01*
X470124Y424845D01*
X471100Y424651D01*
X472076Y424845D01*
X472183Y424917D01*
X472623Y424681D01*
Y416870D01*
X466830Y411076D01*
X460987D01*
X460702Y411502D01*
X459875Y412055D01*
X458900Y412249D01*
X457925Y412055D01*
X457477Y411756D01*
X456977Y412023D01*
Y412350D01*
X456872Y412877D01*
X456573Y413323D01*
X454973Y414923D01*
X454527Y415222D01*
X454000Y415326D01*
X451000D01*
X450473Y415222D01*
X450027Y414923D01*
X450027Y414923D01*
X446727Y411623D01*
X446428Y411177D01*
X446323Y410650D01*
Y392370D01*
X442602Y388649D01*
X442100Y388749D01*
X441124Y388555D01*
X440298Y388002D01*
X439745Y387175D01*
X439551Y386200D01*
X439745Y385225D01*
X440298Y384398D01*
X441124Y383845D01*
X442100Y383651D01*
X443076Y383845D01*
X443902Y384398D01*
X444455Y385225D01*
X444649Y386200D01*
X444549Y386702D01*
X448673Y390827D01*
X448673Y390827D01*
X448972Y391273D01*
X449077Y391800D01*
X449077Y391800D01*
Y396924D01*
X449538Y397115D01*
X451127Y395527D01*
X451127Y395527D01*
X451573Y395228D01*
X452100Y395124D01*
X452100Y395124D01*
X491130D01*
X494251Y392002D01*
X494151Y391500D01*
X494336Y390571D01*
X494321Y390485D01*
X494060Y390051D01*
X493798Y390023D01*
X492823Y390998D01*
X492923Y391500D01*
X492729Y392476D01*
X492176Y393302D01*
X491349Y393855D01*
X490374Y394049D01*
X489398Y393855D01*
X488572Y393302D01*
X488019Y392476D01*
X487825Y391500D01*
X488019Y390525D01*
X488572Y389698D01*
X489398Y389145D01*
X490374Y388951D01*
X490876Y389051D01*
X492401Y387527D01*
X492847Y387228D01*
X493374Y387123D01*
X498100D01*
X498627Y387228D01*
X499073Y387527D01*
X500673Y389127D01*
X500972Y389573D01*
X501077Y390100D01*
Y395900D01*
X501077Y395900D01*
X500972Y396427D01*
X500673Y396873D01*
X500673Y396873D01*
X499085Y398462D01*
X499276Y398923D01*
X513600D01*
X514127Y399028D01*
X514573Y399327D01*
X525462Y410215D01*
X525923Y410024D01*
Y292000D01*
X525423Y291848D01*
X525373Y291923D01*
X525373Y291923D01*
X504024Y313273D01*
X504124Y313775D01*
X503930Y314751D01*
X503377Y315577D01*
X502551Y316130D01*
X501575Y316324D01*
X500599Y316130D01*
X499773Y315577D01*
X499220Y314751D01*
X499026Y313775D01*
X499220Y312800D01*
X499773Y311973D01*
X500599Y311420D01*
X501575Y311226D01*
X502077Y311326D01*
X523024Y290380D01*
Y254482D01*
X522823Y254413D01*
X522523Y254399D01*
X522273Y254773D01*
X522273Y254773D01*
X502377Y274670D01*
Y276298D01*
X502817Y276533D01*
X503024Y276395D01*
X504000Y276201D01*
X504976Y276395D01*
X505802Y276948D01*
X506355Y277775D01*
X506549Y278750D01*
X506355Y279726D01*
X505976Y280292D01*
Y284596D01*
X506380Y285199D01*
X506574Y286175D01*
X506380Y287151D01*
X505976Y287754D01*
Y305000D01*
X505872Y305527D01*
X505573Y305973D01*
X505573Y305973D01*
X503873Y307673D01*
X503427Y307972D01*
X502900Y308077D01*
X500100D01*
X499573Y307972D01*
X499127Y307673D01*
X498238Y306785D01*
X497777Y306976D01*
Y326800D01*
X497672Y327327D01*
X497373Y327773D01*
X486899Y338248D01*
X486999Y338750D01*
X486805Y339725D01*
X486252Y340552D01*
X485426Y341105D01*
X484450Y341299D01*
X483474Y341105D01*
X482648Y340552D01*
X482095Y339725D01*
X481901Y338750D01*
X482095Y337774D01*
X482648Y336948D01*
X483474Y336395D01*
X484450Y336201D01*
X484952Y336301D01*
X495023Y326230D01*
Y150388D01*
X494583Y150152D01*
X494491Y150213D01*
X493516Y150407D01*
X492540Y150213D01*
X491713Y149661D01*
X491216Y148917D01*
X491133Y148891D01*
X490884Y148876D01*
X490666Y148909D01*
X490202Y149602D01*
X489375Y150155D01*
X488400Y150349D01*
X487425Y150155D01*
X486598Y149602D01*
X486176Y148972D01*
X485676Y149124D01*
Y149300D01*
X485676Y149300D01*
X485572Y149827D01*
X485273Y150273D01*
X480973Y154573D01*
X480527Y154872D01*
X480000Y154976D01*
X471170D01*
X465577Y160570D01*
Y163841D01*
X466077Y163890D01*
X466129Y163625D01*
X466682Y162798D01*
X467509Y162245D01*
X468484Y162051D01*
X469460Y162245D01*
X470287Y162798D01*
X470839Y163625D01*
X471033Y164600D01*
X470839Y165576D01*
X470287Y166402D01*
X469460Y166955D01*
X468484Y167149D01*
X467509Y166955D01*
X466682Y166402D01*
X466129Y165576D01*
X466077Y165310D01*
X465577Y165359D01*
Y186348D01*
X466017Y186583D01*
X466224Y186445D01*
X467200Y186251D01*
X468176Y186445D01*
X469002Y186998D01*
X469555Y187824D01*
X469749Y188800D01*
X469555Y189776D01*
X469002Y190602D01*
X468176Y191155D01*
X467200Y191349D01*
X466224Y191155D01*
X466017Y191017D01*
X465577Y191252D01*
Y206816D01*
X466055Y206961D01*
X466098Y206898D01*
X466924Y206345D01*
X467900Y206151D01*
X468876Y206345D01*
X469702Y206898D01*
X470255Y207724D01*
X470449Y208700D01*
X470255Y209676D01*
X469702Y210502D01*
X468876Y211055D01*
X467900Y211249D01*
X466924Y211055D01*
X466098Y210502D01*
X466055Y210438D01*
X465577Y210584D01*
Y306916D01*
X466055Y307062D01*
X466098Y306998D01*
X466924Y306445D01*
X467900Y306251D01*
X468876Y306445D01*
X469702Y306998D01*
X470255Y307824D01*
X470449Y308800D01*
X470255Y309775D01*
X469702Y310602D01*
X468876Y311155D01*
X467900Y311349D01*
X466924Y311155D01*
X466098Y310602D01*
X466055Y310539D01*
X465577Y310684D01*
Y342913D01*
X466002Y343198D01*
X466555Y344024D01*
X466749Y345000D01*
X466555Y345975D01*
X466002Y346802D01*
X465175Y347355D01*
X464200Y347549D01*
X463225Y347355D01*
X462398Y346802D01*
X461845Y345975D01*
X461651Y345000D01*
X461845Y344024D01*
X462398Y343198D01*
X462823Y342913D01*
Y331530D01*
X462324Y331323D01*
X455399Y338248D01*
X455499Y338750D01*
X455305Y339725D01*
X454752Y340552D01*
X453926Y341105D01*
X452950Y341299D01*
X451974Y341105D01*
X451148Y340552D01*
X450595Y339725D01*
X450401Y338750D01*
X450595Y337774D01*
X451148Y336948D01*
X451974Y336395D01*
X452950Y336201D01*
X453452Y336301D01*
X460323Y329430D01*
Y154500D01*
X460428Y153973D01*
X460727Y153527D01*
X462424Y151830D01*
Y149073D01*
X461983Y148838D01*
X461807Y148955D01*
X460832Y149149D01*
X459856Y148955D01*
X459029Y148402D01*
X458477Y147575D01*
X458283Y146600D01*
X458477Y145624D01*
X459029Y144798D01*
X459856Y144245D01*
X460832Y144051D01*
X461807Y144245D01*
X461983Y144362D01*
X462424Y144127D01*
Y127465D01*
X456664Y121706D01*
X456366Y121259D01*
X456261Y120733D01*
Y114769D01*
X456366Y114242D01*
X456664Y113796D01*
X461523Y108936D01*
Y92452D01*
X461083Y92216D01*
X460876Y92355D01*
X459900Y92549D01*
X458924Y92355D01*
X458098Y91802D01*
X457545Y90975D01*
X457351Y90000D01*
X457468Y89411D01*
X457378Y89277D01*
X457273Y88750D01*
Y85600D01*
X456851Y85421D01*
X456426Y85675D01*
Y91250D01*
X456426Y91250D01*
X456322Y91777D01*
X456274Y91848D01*
Y100182D01*
X456715Y100418D01*
X456824Y100345D01*
X457800Y100151D01*
X458776Y100345D01*
X459602Y100898D01*
X460155Y101725D01*
X460349Y102700D01*
X460155Y103675D01*
X459602Y104502D01*
X458776Y105055D01*
X457800Y105249D01*
X456824Y105055D01*
X456715Y104982D01*
X456274Y105218D01*
Y106000D01*
X456169Y106527D01*
X455871Y106973D01*
X455368Y107476D01*
X455447Y107870D01*
X455253Y108846D01*
X454700Y109672D01*
X453873Y110225D01*
X452898Y110419D01*
X451922Y110225D01*
X451095Y109672D01*
X450543Y108846D01*
X450349Y107870D01*
X450543Y106895D01*
X451095Y106068D01*
X451922Y105515D01*
X452898Y105321D01*
X453021Y105346D01*
X453521Y104935D01*
Y96757D01*
X453021Y96523D01*
X452376Y96955D01*
X451400Y97149D01*
X450424Y96955D01*
X449598Y96402D01*
X449045Y95575D01*
X448851Y94600D01*
X448951Y94098D01*
X448238Y93385D01*
X447777Y93576D01*
Y111833D01*
X448277Y112100D01*
X448804Y111747D01*
X449780Y111553D01*
X450755Y111747D01*
X451582Y112300D01*
X452135Y113127D01*
X452329Y114102D01*
X452135Y115078D01*
X451582Y115905D01*
X450755Y116457D01*
X449780Y116651D01*
X449277Y116551D01*
X444776Y121052D01*
Y121848D01*
X445217Y122083D01*
X445425Y121945D01*
X446400Y121751D01*
X447375Y121945D01*
X448202Y122498D01*
X448593Y123082D01*
X449064Y122887D01*
X448967Y122398D01*
X449161Y121422D01*
X449713Y120595D01*
X450540Y120043D01*
X451516Y119849D01*
X452491Y120043D01*
X453318Y120595D01*
X453871Y121422D01*
X454065Y122398D01*
X453871Y123373D01*
X453318Y124200D01*
X452491Y124753D01*
X451516Y124947D01*
X450540Y124753D01*
X449713Y124200D01*
X449323Y123615D01*
X448852Y123810D01*
X448949Y124300D01*
X448755Y125276D01*
X448202Y126102D01*
X447375Y126655D01*
X446400Y126849D01*
X445425Y126655D01*
X445217Y126517D01*
X444776Y126752D01*
Y134230D01*
X445298Y134751D01*
X445800Y134651D01*
X446775Y134845D01*
X447602Y135398D01*
X448155Y136224D01*
X448349Y137200D01*
X448155Y138175D01*
X447602Y139002D01*
X446775Y139555D01*
X445800Y139749D01*
X444825Y139555D01*
X443998Y139002D01*
X443445Y138175D01*
X443251Y137200D01*
X443351Y136698D01*
X442427Y135773D01*
X442128Y135327D01*
X442024Y134800D01*
Y121193D01*
X441637Y120876D01*
X441280Y120947D01*
X440304Y120753D01*
X440217Y120695D01*
X439777Y120931D01*
Y133918D01*
X439877Y134420D01*
Y140381D01*
X439772Y140907D01*
X439473Y141354D01*
X438454Y142373D01*
X438007Y142672D01*
X437481Y142776D01*
X430587D01*
X430302Y143202D01*
X429475Y143755D01*
X428500Y143949D01*
X427525Y143755D01*
X426698Y143202D01*
X426145Y142376D01*
X425951Y141400D01*
X426145Y140425D01*
X426698Y139598D01*
X427525Y139045D01*
X428500Y138851D01*
X429475Y139045D01*
X430302Y139598D01*
X430587Y140024D01*
X434242D01*
X434303Y139940D01*
X434183Y139260D01*
X433798Y139002D01*
X433245Y138175D01*
X433051Y137200D01*
X433151Y136698D01*
X429192Y132739D01*
X428894Y132293D01*
X428789Y131766D01*
Y120753D01*
X428327Y120562D01*
X423816Y125073D01*
X423370Y125372D01*
X422843Y125476D01*
X419787D01*
X419502Y125902D01*
X418676Y126455D01*
X417700Y126649D01*
X416724Y126455D01*
X415898Y125902D01*
X415345Y125075D01*
X415151Y124100D01*
X415345Y123125D01*
X415898Y122298D01*
X416724Y121745D01*
X417700Y121551D01*
X418676Y121745D01*
X419502Y122298D01*
X419787Y122724D01*
X422273D01*
X426632Y118364D01*
X426605Y118136D01*
X426537Y118057D01*
X426080Y117794D01*
X425300Y117949D01*
X424325Y117755D01*
X423498Y117202D01*
X422945Y116376D01*
X422751Y115400D01*
X422945Y114425D01*
X423498Y113598D01*
X424325Y113045D01*
X425300Y112851D01*
X426275Y113045D01*
X426383Y113117D01*
X426824Y112881D01*
Y111154D01*
X424927Y109257D01*
X424628Y108811D01*
X424523Y108284D01*
Y92500D01*
X424628Y91973D01*
X424927Y91527D01*
X431094Y85359D01*
X430994Y84857D01*
X431188Y83881D01*
X431741Y83054D01*
X432568Y82502D01*
X433543Y82308D01*
X434519Y82502D01*
X435346Y83054D01*
X435898Y83881D01*
X436092Y84857D01*
X435898Y85832D01*
X435346Y86659D01*
X434519Y87212D01*
X433543Y87406D01*
X433041Y87306D01*
X427277Y93070D01*
Y94010D01*
X427776Y94278D01*
X428125Y94045D01*
X429100Y93851D01*
X430076Y94045D01*
X430902Y94598D01*
X431455Y95424D01*
X431649Y96400D01*
X431455Y97376D01*
X430902Y98202D01*
X430076Y98755D01*
X429100Y98949D01*
X428125Y98755D01*
X427776Y98522D01*
X427277Y98790D01*
Y107714D01*
X429173Y109611D01*
X429409Y109963D01*
X429827Y110105D01*
X429995Y110128D01*
X430568Y109745D01*
X431543Y109551D01*
X432519Y109745D01*
X433346Y110298D01*
X433630Y110724D01*
X435629D01*
X435686Y110225D01*
X434859Y109672D01*
X434306Y108846D01*
X434112Y107870D01*
X434306Y106895D01*
X434859Y106068D01*
X435285Y105783D01*
Y97889D01*
X435390Y97362D01*
X435688Y96915D01*
X437832Y94771D01*
X437793Y94494D01*
X437271Y94374D01*
X437152Y94552D01*
X436326Y95105D01*
X435350Y95299D01*
X434375Y95105D01*
X433548Y94552D01*
X432995Y93726D01*
X432801Y92750D01*
X432995Y91774D01*
X433548Y90948D01*
X434375Y90395D01*
X435350Y90201D01*
X436326Y90395D01*
X437152Y90948D01*
X437424Y91353D01*
X437923Y91202D01*
Y70290D01*
X437424Y70022D01*
X437076Y70255D01*
X436100Y70449D01*
X435124Y70255D01*
X434298Y69702D01*
X433745Y68875D01*
X433551Y67900D01*
X433651Y67398D01*
X428692Y62438D01*
X428577Y62266D01*
X428077Y62417D01*
Y66676D01*
X428577Y66932D01*
X429195Y66519D01*
X430170Y66325D01*
X431146Y66519D01*
X431973Y67072D01*
X432525Y67899D01*
X432719Y68874D01*
X432525Y69849D01*
X431973Y70676D01*
X431146Y71229D01*
X430170Y71423D01*
X429195Y71229D01*
X428577Y70816D01*
X428077Y71072D01*
Y75686D01*
X428375Y75745D01*
X429202Y76298D01*
X429755Y77125D01*
X429949Y78100D01*
X429755Y79075D01*
X429202Y79902D01*
X428375Y80455D01*
X427400Y80649D01*
X426425Y80455D01*
X426317Y80383D01*
X425877Y80619D01*
Y81596D01*
X425877Y81596D01*
X425772Y82123D01*
X425473Y82569D01*
X422469Y85573D01*
X422023Y85872D01*
X421496Y85976D01*
X409013D01*
X408700Y86444D01*
X407873Y86997D01*
X407657Y87040D01*
X407512Y87518D01*
X412773Y92779D01*
X412773Y92779D01*
X413072Y93226D01*
X413176Y93752D01*
X413176Y93752D01*
Y110000D01*
X413072Y110527D01*
X412773Y110973D01*
X407573Y116173D01*
X407127Y116472D01*
X406600Y116576D01*
X404385D01*
X404150Y117017D01*
X404355Y117324D01*
X404549Y118300D01*
X404355Y119275D01*
X403802Y120102D01*
X402976Y120655D01*
X402000Y120849D01*
X401024Y120655D01*
X400374Y120220D01*
X400055Y120609D01*
X402770Y123324D01*
X406264D01*
X406595Y122827D01*
X407422Y122275D01*
X408398Y122081D01*
X409130Y122227D01*
X409430Y121776D01*
X409161Y121373D01*
X408967Y120398D01*
X409161Y119422D01*
X409713Y118595D01*
X410540Y118043D01*
X411516Y117849D01*
X412491Y118043D01*
X413318Y118595D01*
X413871Y119422D01*
X414065Y120398D01*
X413871Y121373D01*
X413318Y122200D01*
X412491Y122753D01*
X411516Y122947D01*
X410784Y122801D01*
X410483Y123251D01*
X410752Y123654D01*
X410947Y124630D01*
X410752Y125605D01*
X410200Y126432D01*
X409373Y126985D01*
X408398Y127179D01*
X407422Y126985D01*
X406595Y126432D01*
X406357Y126076D01*
X402200D01*
X401673Y125972D01*
X401227Y125673D01*
X399121Y123568D01*
X399018Y123584D01*
X398620Y124148D01*
X398710Y124600D01*
X398516Y125575D01*
X397964Y126402D01*
X397137Y126955D01*
X396161Y127149D01*
X395186Y126955D01*
X394359Y126402D01*
X393806Y125575D01*
X393612Y124600D01*
X393806Y123625D01*
X394359Y122798D01*
X394751Y122536D01*
X394876Y121856D01*
X394818Y121774D01*
X391445D01*
X390919Y121669D01*
X390472Y121371D01*
X381327Y112226D01*
X381028Y111779D01*
X380924Y111252D01*
Y61200D01*
X381028Y60673D01*
X381327Y60227D01*
X389051Y52502D01*
X388951Y52000D01*
X389145Y51025D01*
X389698Y50198D01*
X390525Y49645D01*
X391500Y49451D01*
X392476Y49645D01*
X393302Y50198D01*
X393855Y51025D01*
X394049Y52000D01*
X393855Y52975D01*
X393302Y53802D01*
X392476Y54355D01*
X391500Y54549D01*
X390998Y54449D01*
X383677Y61770D01*
Y88224D01*
X384138Y88415D01*
X386451Y86102D01*
X386351Y85600D01*
X386545Y84624D01*
X387098Y83798D01*
X387925Y83245D01*
X388900Y83051D01*
X389876Y83245D01*
X390702Y83798D01*
X391255Y84624D01*
X391449Y85600D01*
X391255Y86576D01*
X390702Y87402D01*
X389876Y87955D01*
X388900Y88149D01*
X388398Y88049D01*
X385426Y91020D01*
Y100861D01*
X385867Y101097D01*
X385925Y101058D01*
X386900Y100864D01*
X387402Y100964D01*
X392323Y96043D01*
Y75670D01*
X390002Y73349D01*
X389500Y73449D01*
X388525Y73255D01*
X387698Y72702D01*
X387145Y71876D01*
X386951Y70900D01*
X387145Y69924D01*
X387698Y69098D01*
X388525Y68545D01*
X389500Y68351D01*
X390476Y68545D01*
X391302Y69098D01*
X391855Y69924D01*
X392049Y70900D01*
X391949Y71402D01*
X393662Y73115D01*
X394124Y72924D01*
Y66048D01*
X393623Y65897D01*
X393302Y66377D01*
X392476Y66930D01*
X391500Y67124D01*
X390525Y66930D01*
X389698Y66377D01*
X389145Y65550D01*
X388951Y64575D01*
X389145Y63599D01*
X389698Y62772D01*
X390525Y62220D01*
X391500Y62026D01*
X392476Y62220D01*
X393302Y62772D01*
X393339Y62828D01*
X393878Y62734D01*
X393900Y62647D01*
X392002Y60749D01*
X391500Y60849D01*
X390525Y60655D01*
X389698Y60102D01*
X389145Y59276D01*
X388951Y58300D01*
X389145Y57324D01*
X389698Y56498D01*
X390525Y55945D01*
X391500Y55751D01*
X392476Y55945D01*
X393302Y56498D01*
X393855Y57324D01*
X394049Y58300D01*
X393949Y58802D01*
X396473Y61327D01*
X396473Y61327D01*
X396772Y61773D01*
X396877Y62300D01*
Y109717D01*
X397317Y109953D01*
X397686Y109706D01*
X398557Y109533D01*
X398728Y109219D01*
X398772Y109025D01*
X398719Y108945D01*
X398611Y108830D01*
X398571Y108724D01*
X398508Y108629D01*
X398477Y108475D01*
X398422Y108327D01*
X397642Y103625D01*
X397646Y103512D01*
X397623Y103400D01*
Y59400D01*
X397728Y58873D01*
X398027Y58427D01*
X400851Y55602D01*
X400751Y55100D01*
X400945Y54124D01*
X401498Y53298D01*
X402324Y52745D01*
X403300Y52551D01*
X404276Y52745D01*
X404383Y52817D01*
X404823Y52581D01*
Y50270D01*
X403802Y49249D01*
X403300Y49349D01*
X402324Y49155D01*
X401498Y48602D01*
X400945Y47776D01*
X400751Y46800D01*
X400945Y45825D01*
X401498Y44998D01*
X402324Y44445D01*
X403300Y44251D01*
X404276Y44445D01*
X405102Y44998D01*
X405655Y45825D01*
X405849Y46800D01*
X405749Y47302D01*
X407173Y48727D01*
X407472Y49173D01*
X407577Y49700D01*
Y56250D01*
X407472Y56777D01*
X407173Y57223D01*
X402277Y62120D01*
Y64876D01*
X402717Y65112D01*
X403024Y64906D01*
X403500Y64812D01*
Y67261D01*
Y69711D01*
X403024Y69616D01*
X402717Y69411D01*
X402277Y69647D01*
Y82366D01*
X402477Y82434D01*
X402776Y82449D01*
X403027Y82074D01*
X404374Y80727D01*
X404374Y80727D01*
X404821Y80428D01*
X405348Y80324D01*
X416242D01*
X416303Y80240D01*
X416183Y79560D01*
X415798Y79302D01*
X415245Y78475D01*
X415150Y78000D01*
X417600D01*
Y77000D01*
X415150D01*
X415245Y76525D01*
X415798Y75698D01*
X416185Y75439D01*
X416306Y74759D01*
X416246Y74676D01*
X412950D01*
X412950Y74676D01*
X412423Y74571D01*
X411977Y74273D01*
X408902Y71198D01*
X408604Y70752D01*
X408499Y70225D01*
Y69811D01*
X408073Y69527D01*
X407521Y68700D01*
X407327Y67724D01*
X407521Y66749D01*
X408073Y65922D01*
X408900Y65369D01*
X409876Y65175D01*
X410851Y65369D01*
X411678Y65922D01*
X412231Y66749D01*
X412425Y67724D01*
X412231Y68700D01*
X411678Y69527D01*
X411674Y69530D01*
X411625Y70027D01*
X412770Y71173D01*
X413314Y71061D01*
X413336Y71032D01*
X413151Y70100D01*
X413345Y69125D01*
X413898Y68298D01*
X414724Y67745D01*
X415700Y67551D01*
X416676Y67745D01*
X417502Y68298D01*
X418055Y69125D01*
X418249Y70100D01*
X418055Y71075D01*
X417785Y71480D01*
X417973Y72015D01*
X418007Y72047D01*
X418424Y72326D01*
X421473Y75375D01*
X421772Y75822D01*
X421876Y76349D01*
Y80950D01*
X421772Y81477D01*
X421473Y81923D01*
X421040Y82356D01*
X421194Y82910D01*
X421230Y82919D01*
X423124Y81026D01*
Y49200D01*
X423228Y48673D01*
X423527Y48227D01*
X429134Y42620D01*
X428887Y42159D01*
X428800Y42176D01*
X423600D01*
X423346Y42126D01*
X423091Y42079D01*
X423083Y42074D01*
X423073Y42072D01*
X422858Y41928D01*
X422640Y41787D01*
X422635Y41779D01*
X422627Y41773D01*
X422483Y41558D01*
X422336Y41344D01*
X422334Y41335D01*
X422328Y41327D01*
X422278Y41073D01*
X422224Y40819D01*
X421824Y12019D01*
X421826Y12009D01*
X421824Y12000D01*
X421874Y11746D01*
X421921Y11491D01*
X421926Y11483D01*
X421928Y11473D01*
X422073Y11258D01*
X422213Y11040D01*
X422221Y11035D01*
X422227Y11027D01*
X426627Y6627D01*
X427073Y6328D01*
X427600Y6224D01*
X523300D01*
X523827Y6328D01*
X524273Y6627D01*
X535823Y18177D01*
X535823Y18177D01*
X536122Y18623D01*
X536227Y19150D01*
X536227Y19150D01*
Y56980D01*
X542173Y62927D01*
X542173Y62927D01*
X542472Y63373D01*
X542577Y63900D01*
X542577Y63900D01*
Y117379D01*
X542472Y117906D01*
X542173Y118353D01*
X542173Y118353D01*
X540553Y119973D01*
X540106Y120272D01*
X539579Y120376D01*
X533050D01*
X532523Y120272D01*
X532077Y119973D01*
X532077Y119973D01*
X531899Y119795D01*
X531438Y120042D01*
X531549Y120600D01*
X531355Y121575D01*
X530802Y122402D01*
X529976Y122955D01*
X529000Y123149D01*
X528024Y122955D01*
X527198Y122402D01*
X526645Y121575D01*
X526451Y120600D01*
X526645Y119624D01*
X527198Y118798D01*
X528024Y118245D01*
X529000Y118051D01*
X529704Y118191D01*
X530028Y117777D01*
X529923Y117250D01*
Y109800D01*
X529966Y109588D01*
X529505Y109342D01*
X524973Y113873D01*
X524527Y114172D01*
X524000Y114276D01*
X521468D01*
X521200Y114776D01*
X521435Y115127D01*
X521629Y116102D01*
X521435Y117078D01*
X520882Y117905D01*
X520456Y118189D01*
Y123325D01*
X520911Y123418D01*
X520956Y123408D01*
X521498Y122598D01*
X522325Y122045D01*
X523300Y121851D01*
X524275Y122045D01*
X525102Y122598D01*
X525655Y123424D01*
X525849Y124400D01*
X525655Y125375D01*
X525102Y126202D01*
X524275Y126755D01*
X523300Y126949D01*
X522325Y126755D01*
X521498Y126202D01*
X520956Y125392D01*
X520911Y125382D01*
X520456Y125475D01*
Y131209D01*
X525298Y136051D01*
X525800Y135951D01*
X526776Y136145D01*
X527602Y136698D01*
X528155Y137524D01*
X528349Y138500D01*
X528155Y139476D01*
X527602Y140302D01*
X526776Y140855D01*
X525800Y141049D01*
X524824Y140855D01*
X523998Y140302D01*
X523445Y139476D01*
X523399Y139243D01*
X523349Y139224D01*
X522879Y139190D01*
X522402Y139902D01*
X521575Y140455D01*
X520600Y140649D01*
X519625Y140455D01*
X518798Y139902D01*
X518245Y139076D01*
X518051Y138100D01*
X518151Y137598D01*
X506332Y125778D01*
X505870Y125970D01*
Y134139D01*
X507998Y136267D01*
X508500Y136167D01*
X509476Y136361D01*
X510302Y136913D01*
X510671Y137464D01*
X511201Y137359D01*
X511247Y137127D01*
X511800Y136300D01*
X512627Y135748D01*
X513602Y135553D01*
X514578Y135748D01*
X515405Y136300D01*
X515957Y137127D01*
X516151Y138102D01*
X515957Y139078D01*
X515405Y139905D01*
X514578Y140457D01*
X513602Y140651D01*
X512627Y140457D01*
X511800Y139905D01*
X511432Y139354D01*
X510901Y139459D01*
X510855Y139691D01*
X510302Y140518D01*
X509476Y141071D01*
X508500Y141265D01*
X507524Y141071D01*
X506698Y140518D01*
X506145Y139691D01*
X505951Y138716D01*
X506051Y138213D01*
X504632Y136794D01*
X504170Y136986D01*
Y140623D01*
X506470Y142924D01*
X526000D01*
X526527Y143028D01*
X526973Y143327D01*
X528273Y144627D01*
X528572Y145073D01*
X528677Y145600D01*
X528677Y145600D01*
Y145836D01*
X529177Y145971D01*
X529940Y145461D01*
X530916Y145267D01*
X531891Y145461D01*
X532718Y146013D01*
X533271Y146840D01*
X533465Y147816D01*
X533271Y148791D01*
X532718Y149618D01*
X531891Y150171D01*
X530916Y150365D01*
X529940Y150171D01*
X529177Y149660D01*
X528677Y149796D01*
Y413430D01*
X539673Y424427D01*
X539673Y424427D01*
X539972Y424873D01*
X540076Y425400D01*
Y540000D01*
X540076Y540000D01*
X539972Y540527D01*
X539673Y540973D01*
X535686Y544961D01*
X535893Y545461D01*
X545461D01*
Y2039D01*
D02*
G37*
%LPC*%
G36*
X41100Y462549D02*
X40624Y462455D01*
X39798Y461902D01*
X39245Y461075D01*
X39151Y460600D01*
X41100D01*
Y462549D01*
D02*
G37*
G36*
Y459600D02*
X39151D01*
X39245Y459125D01*
X39798Y458298D01*
X40624Y457745D01*
X41100Y457651D01*
Y459600D01*
D02*
G37*
G36*
X36822Y457427D02*
X35847Y457233D01*
X35020Y456680D01*
X34467Y455853D01*
X34273Y454878D01*
X34467Y453902D01*
X35020Y453076D01*
X35847Y452523D01*
X36822Y452329D01*
X37797Y452523D01*
X38624Y453076D01*
X39177Y453902D01*
X39371Y454878D01*
X39177Y455853D01*
X38624Y456680D01*
X37797Y457233D01*
X36822Y457427D01*
D02*
G37*
G36*
X462900Y474749D02*
X461925Y474555D01*
X461098Y474002D01*
X460545Y473175D01*
X460351Y472200D01*
X460545Y471224D01*
X461098Y470398D01*
X461925Y469845D01*
X462900Y469651D01*
X463875Y469845D01*
X464702Y470398D01*
X465255Y471224D01*
X465449Y472200D01*
X465255Y473175D01*
X464702Y474002D01*
X463875Y474555D01*
X462900Y474749D01*
D02*
G37*
G36*
X401900Y469049D02*
X400924Y468855D01*
X400098Y468302D01*
X399545Y467476D01*
X399351Y466500D01*
X399545Y465524D01*
X400098Y464698D01*
X400924Y464145D01*
X401900Y463951D01*
X402876Y464145D01*
X403702Y464698D01*
X404255Y465524D01*
X404449Y466500D01*
X404255Y467476D01*
X403702Y468302D01*
X402876Y468855D01*
X401900Y469049D01*
D02*
G37*
G36*
X462900Y428649D02*
X461925Y428455D01*
X461098Y427902D01*
X460545Y427075D01*
X460351Y426100D01*
X460545Y425125D01*
X461098Y424298D01*
X461925Y423745D01*
X462900Y423551D01*
X463875Y423745D01*
X464702Y424298D01*
X465255Y425125D01*
X465449Y426100D01*
X465255Y427075D01*
X464702Y427902D01*
X463875Y428455D01*
X462900Y428649D01*
D02*
G37*
G36*
X469350Y421432D02*
Y419482D01*
X471300D01*
X471205Y419958D01*
X470652Y420785D01*
X469826Y421337D01*
X469350Y421432D01*
D02*
G37*
G36*
X468350D02*
X467874Y421337D01*
X467048Y420785D01*
X466495Y419958D01*
X466400Y419482D01*
X468350D01*
Y421432D01*
D02*
G37*
G36*
X471300Y418482D02*
X469350D01*
Y416533D01*
X469826Y416628D01*
X470652Y417180D01*
X471205Y418007D01*
X471300Y418482D01*
D02*
G37*
G36*
X468350D02*
X466400D01*
X466495Y418007D01*
X467048Y417180D01*
X467874Y416628D01*
X468350Y416533D01*
Y418482D01*
D02*
G37*
G36*
X382250Y410627D02*
X381723Y410522D01*
X381277Y410223D01*
X379202Y408149D01*
X378700Y408249D01*
X377725Y408055D01*
X376898Y407502D01*
X376345Y406675D01*
X376151Y405700D01*
X376345Y404725D01*
X376898Y403898D01*
X377725Y403345D01*
X378700Y403151D01*
X379676Y403345D01*
X380502Y403898D01*
X381055Y404725D01*
X381249Y405700D01*
X381149Y406202D01*
X382820Y407873D01*
X384547D01*
X384783Y407433D01*
X384745Y407375D01*
X384551Y406400D01*
X384745Y405424D01*
X385298Y404598D01*
X386124Y404045D01*
X387100Y403851D01*
X388075Y404045D01*
X388902Y404598D01*
X389455Y405424D01*
X389649Y406400D01*
X389455Y407375D01*
X389417Y407433D01*
X389652Y407873D01*
X393680D01*
X397251Y404302D01*
X397151Y403800D01*
X397345Y402824D01*
X397898Y401998D01*
X398725Y401445D01*
X399700Y401251D01*
X400675Y401445D01*
X401502Y401998D01*
X402055Y402824D01*
X402249Y403800D01*
X402055Y404775D01*
X401502Y405602D01*
X400675Y406155D01*
X399700Y406349D01*
X399198Y406249D01*
X395223Y410223D01*
X394777Y410522D01*
X394250Y410627D01*
X382250D01*
X382250Y410627D01*
D02*
G37*
G36*
X439630Y402069D02*
X438654Y401875D01*
X437827Y401323D01*
X437275Y400496D01*
X437081Y399520D01*
X437275Y398545D01*
X437827Y397718D01*
X438654Y397165D01*
X439630Y396971D01*
X440605Y397165D01*
X441432Y397718D01*
X441985Y398545D01*
X442179Y399520D01*
X441985Y400496D01*
X441432Y401323D01*
X440605Y401875D01*
X439630Y402069D01*
D02*
G37*
G36*
X382900Y401849D02*
X381925Y401655D01*
X381098Y401102D01*
X380545Y400276D01*
X380351Y399300D01*
X380545Y398324D01*
X381098Y397498D01*
X381925Y396945D01*
X382900Y396751D01*
X383875Y396945D01*
X384702Y397498D01*
X385255Y398324D01*
X385449Y399300D01*
X385255Y400276D01*
X384702Y401102D01*
X383875Y401655D01*
X382900Y401849D01*
D02*
G37*
G36*
X400700Y396449D02*
X399725Y396255D01*
X398898Y395702D01*
X398345Y394876D01*
X398151Y393900D01*
X398345Y392924D01*
X398898Y392098D01*
X399725Y391545D01*
X400700Y391351D01*
X401676Y391545D01*
X402502Y392098D01*
X403055Y392924D01*
X403249Y393900D01*
X403055Y394876D01*
X402502Y395702D01*
X401676Y396255D01*
X400700Y396449D01*
D02*
G37*
G36*
X477776Y394049D02*
X476800Y393855D01*
X475973Y393302D01*
X475421Y392476D01*
X475227Y391500D01*
X475421Y390525D01*
X475973Y389698D01*
X476800Y389145D01*
X477776Y388951D01*
X478751Y389145D01*
X479578Y389698D01*
X480131Y390525D01*
X480325Y391500D01*
X480131Y392476D01*
X479578Y393302D01*
X478751Y393855D01*
X477776Y394049D01*
D02*
G37*
G36*
X471300Y391149D02*
X470325Y390955D01*
X469498Y390402D01*
X468945Y389576D01*
X468751Y388600D01*
X468945Y387625D01*
X469498Y386798D01*
X470325Y386245D01*
X471300Y386051D01*
X472275Y386245D01*
X473102Y386798D01*
X473655Y387625D01*
X473849Y388600D01*
X473655Y389576D01*
X473102Y390402D01*
X472275Y390955D01*
X471300Y391149D01*
D02*
G37*
G36*
X461100Y390049D02*
X460124Y389855D01*
X459298Y389302D01*
X458745Y388475D01*
X458551Y387500D01*
X458745Y386525D01*
X459298Y385698D01*
X460124Y385145D01*
X461100Y384951D01*
X462076Y385145D01*
X462902Y385698D01*
X463455Y386525D01*
X463649Y387500D01*
X463455Y388475D01*
X462902Y389302D01*
X462076Y389855D01*
X461100Y390049D01*
D02*
G37*
G36*
X410358Y389399D02*
X409383Y389205D01*
X408556Y388652D01*
X408003Y387825D01*
X407809Y386850D01*
X408003Y385875D01*
X408556Y385048D01*
X409383Y384495D01*
X410358Y384301D01*
X411334Y384495D01*
X412161Y385048D01*
X412713Y385875D01*
X412907Y386850D01*
X412713Y387825D01*
X412161Y388652D01*
X411334Y389205D01*
X410358Y389399D01*
D02*
G37*
G36*
X427100Y386649D02*
X426124Y386455D01*
X425298Y385902D01*
X424745Y385075D01*
X424551Y384100D01*
X424745Y383124D01*
X425298Y382298D01*
X426124Y381745D01*
X427100Y381551D01*
X428076Y381745D01*
X428902Y382298D01*
X429455Y383124D01*
X429649Y384100D01*
X429455Y385075D01*
X428902Y385902D01*
X428076Y386455D01*
X427100Y386649D01*
D02*
G37*
G36*
X392000Y383849D02*
X391024Y383655D01*
X390198Y383102D01*
X389645Y382276D01*
X389451Y381300D01*
X389645Y380325D01*
X390198Y379498D01*
X391024Y378945D01*
X392000Y378751D01*
X392975Y378945D01*
X393802Y379498D01*
X394355Y380325D01*
X394549Y381300D01*
X394355Y382276D01*
X393802Y383102D01*
X392975Y383655D01*
X392000Y383849D01*
D02*
G37*
G36*
X506122Y379299D02*
X505147Y379105D01*
X504320Y378552D01*
X503767Y377726D01*
X503573Y376750D01*
X503767Y375775D01*
X504320Y374948D01*
X505147Y374395D01*
X506122Y374201D01*
X507097Y374395D01*
X507924Y374948D01*
X508477Y375775D01*
X508671Y376750D01*
X508477Y377726D01*
X507924Y378552D01*
X507097Y379105D01*
X506122Y379299D01*
D02*
G37*
G36*
X404900Y377549D02*
X403925Y377355D01*
X403098Y376802D01*
X402545Y375975D01*
X402351Y375000D01*
X402545Y374025D01*
X403098Y373198D01*
X403925Y372645D01*
X404900Y372451D01*
X405875Y372645D01*
X406702Y373198D01*
X407255Y374025D01*
X407449Y375000D01*
X407255Y375975D01*
X406702Y376802D01*
X405875Y377355D01*
X404900Y377549D01*
D02*
G37*
G36*
X504050Y371299D02*
X503075Y371105D01*
X502248Y370552D01*
X501695Y369725D01*
X501501Y368750D01*
X501695Y367775D01*
X502248Y366948D01*
X503075Y366395D01*
X504050Y366201D01*
X505025Y366395D01*
X505852Y366948D01*
X506405Y367775D01*
X506599Y368750D01*
X506405Y369725D01*
X505852Y370552D01*
X505025Y371105D01*
X504050Y371299D01*
D02*
G37*
G36*
X436050D02*
X435075Y371105D01*
X434248Y370552D01*
X433695Y369725D01*
X433501Y368750D01*
X433695Y367775D01*
X434248Y366948D01*
X435075Y366395D01*
X436050Y366201D01*
X437025Y366395D01*
X437852Y366948D01*
X438405Y367775D01*
X438599Y368750D01*
X438405Y369725D01*
X437852Y370552D01*
X437025Y371105D01*
X436050Y371299D01*
D02*
G37*
G36*
X517900Y331349D02*
X516924Y331155D01*
X516098Y330602D01*
X515545Y329776D01*
X515351Y328800D01*
X515545Y327824D01*
X516098Y326998D01*
X516924Y326445D01*
X517900Y326251D01*
X518876Y326445D01*
X519702Y326998D01*
X520255Y327824D01*
X520449Y328800D01*
X520255Y329776D01*
X519702Y330602D01*
X518876Y331155D01*
X517900Y331349D01*
D02*
G37*
G36*
X417900Y331299D02*
X416924Y331105D01*
X416098Y330552D01*
X415545Y329726D01*
X415351Y328750D01*
X415545Y327775D01*
X416098Y326948D01*
X416924Y326395D01*
X417900Y326201D01*
X418876Y326395D01*
X419702Y326948D01*
X420255Y327775D01*
X420449Y328750D01*
X420255Y329726D01*
X419702Y330552D01*
X418876Y331105D01*
X417900Y331299D01*
D02*
G37*
G36*
X487200Y325449D02*
X486225Y325255D01*
X485398Y324702D01*
X484845Y323875D01*
X484651Y322900D01*
X484845Y321924D01*
X485398Y321098D01*
X486225Y320545D01*
X487200Y320351D01*
X488175Y320545D01*
X489002Y321098D01*
X489555Y321924D01*
X489749Y322900D01*
X489555Y323875D01*
X489002Y324702D01*
X488175Y325255D01*
X487200Y325449D01*
D02*
G37*
G36*
X432800Y321349D02*
X431824Y321155D01*
X430998Y320602D01*
X430445Y319776D01*
X430251Y318800D01*
X430445Y317825D01*
X430998Y316998D01*
X431824Y316445D01*
X432800Y316251D01*
X433776Y316445D01*
X434602Y316998D01*
X435155Y317825D01*
X435349Y318800D01*
X435155Y319776D01*
X434602Y320602D01*
X433776Y321155D01*
X432800Y321349D01*
D02*
G37*
G36*
X482850Y321299D02*
X481875Y321105D01*
X481048Y320552D01*
X480495Y319725D01*
X480301Y318750D01*
X480495Y317775D01*
X481048Y316948D01*
X481875Y316395D01*
X482850Y316201D01*
X483825Y316395D01*
X484652Y316948D01*
X485205Y317775D01*
X485399Y318750D01*
X485205Y319725D01*
X484652Y320552D01*
X483825Y321105D01*
X482850Y321299D01*
D02*
G37*
G36*
X532800Y319349D02*
X531824Y319155D01*
X530998Y318602D01*
X530445Y317776D01*
X530251Y316800D01*
X530445Y315825D01*
X530998Y314998D01*
X531824Y314445D01*
X532800Y314251D01*
X533776Y314445D01*
X534602Y314998D01*
X535155Y315825D01*
X535349Y316800D01*
X535155Y317776D01*
X534602Y318602D01*
X533776Y319155D01*
X532800Y319349D01*
D02*
G37*
G36*
X517900Y311349D02*
X516924Y311155D01*
X516098Y310602D01*
X515545Y309775D01*
X515351Y308800D01*
X515545Y307824D01*
X516098Y306998D01*
X516924Y306445D01*
X517900Y306251D01*
X518876Y306445D01*
X519702Y306998D01*
X520255Y307824D01*
X520449Y308800D01*
X520255Y309775D01*
X519702Y310602D01*
X518876Y311155D01*
X517900Y311349D01*
D02*
G37*
G36*
X417900Y311299D02*
X416924Y311105D01*
X416098Y310552D01*
X415545Y309725D01*
X415351Y308750D01*
X415545Y307774D01*
X416098Y306948D01*
X416924Y306395D01*
X417900Y306201D01*
X418876Y306395D01*
X419702Y306948D01*
X420255Y307774D01*
X420449Y308750D01*
X420255Y309725D01*
X419702Y310552D01*
X418876Y311105D01*
X417900Y311299D01*
D02*
G37*
G36*
X487200Y304649D02*
X486225Y304455D01*
X485398Y303902D01*
X484845Y303076D01*
X484651Y302100D01*
X484845Y301125D01*
X485398Y300298D01*
X486225Y299745D01*
X487200Y299551D01*
X488175Y299745D01*
X489002Y300298D01*
X489555Y301125D01*
X489749Y302100D01*
X489555Y303076D01*
X489002Y303902D01*
X488175Y304455D01*
X487200Y304649D01*
D02*
G37*
G36*
X532800Y301349D02*
X531824Y301155D01*
X530998Y300602D01*
X530445Y299776D01*
X530251Y298800D01*
X530445Y297825D01*
X530998Y296998D01*
X531824Y296445D01*
X532800Y296251D01*
X533776Y296445D01*
X534602Y296998D01*
X535155Y297825D01*
X535349Y298800D01*
X535155Y299776D01*
X534602Y300602D01*
X533776Y301155D01*
X532800Y301349D01*
D02*
G37*
G36*
X432800D02*
X431824Y301155D01*
X430998Y300602D01*
X430445Y299776D01*
X430251Y298800D01*
X430445Y297825D01*
X430998Y296998D01*
X431824Y296445D01*
X432800Y296251D01*
X433776Y296445D01*
X434602Y296998D01*
X435155Y297825D01*
X435349Y298800D01*
X435155Y299776D01*
X434602Y300602D01*
X433776Y301155D01*
X432800Y301349D01*
D02*
G37*
G36*
X482800Y301299D02*
X481824Y301105D01*
X480998Y300552D01*
X480445Y299726D01*
X480251Y298750D01*
X480445Y297775D01*
X480998Y296948D01*
X481824Y296395D01*
X482800Y296201D01*
X483776Y296395D01*
X484602Y296948D01*
X485155Y297775D01*
X485349Y298750D01*
X485155Y299726D01*
X484602Y300552D01*
X483776Y301105D01*
X482800Y301299D01*
D02*
G37*
G36*
X417900Y291349D02*
X416924Y291155D01*
X416098Y290602D01*
X415545Y289775D01*
X415351Y288800D01*
X415545Y287825D01*
X416098Y286998D01*
X416924Y286445D01*
X417900Y286251D01*
X418876Y286445D01*
X419702Y286998D01*
X420255Y287825D01*
X420449Y288800D01*
X420255Y289775D01*
X419702Y290602D01*
X418876Y291155D01*
X417900Y291349D01*
D02*
G37*
G36*
X517900Y291299D02*
X516924Y291105D01*
X516098Y290552D01*
X515545Y289725D01*
X515351Y288750D01*
X515545Y287774D01*
X516098Y286948D01*
X516924Y286395D01*
X517900Y286201D01*
X518876Y286395D01*
X519702Y286948D01*
X520255Y287774D01*
X520449Y288750D01*
X520255Y289725D01*
X519702Y290552D01*
X518876Y291105D01*
X517900Y291299D01*
D02*
G37*
G36*
X532800Y281349D02*
X531824Y281155D01*
X530998Y280602D01*
X530445Y279776D01*
X530251Y278800D01*
X530445Y277824D01*
X530998Y276998D01*
X531824Y276445D01*
X532800Y276251D01*
X533776Y276445D01*
X534602Y276998D01*
X535155Y277824D01*
X535349Y278800D01*
X535155Y279776D01*
X534602Y280602D01*
X533776Y281155D01*
X532800Y281349D01*
D02*
G37*
G36*
X432800Y281299D02*
X431824Y281105D01*
X430998Y280552D01*
X430445Y279726D01*
X430251Y278750D01*
X430445Y277775D01*
X430998Y276948D01*
X431824Y276395D01*
X432800Y276201D01*
X433776Y276395D01*
X434602Y276948D01*
X435155Y277775D01*
X435349Y278750D01*
X435155Y279726D01*
X434602Y280552D01*
X433776Y281105D01*
X432800Y281299D01*
D02*
G37*
G36*
X484250Y277049D02*
X483275Y276855D01*
X482448Y276302D01*
X481895Y275476D01*
X481701Y274500D01*
X481895Y273524D01*
X482448Y272698D01*
X483275Y272145D01*
X484250Y271951D01*
X485225Y272145D01*
X486052Y272698D01*
X486605Y273524D01*
X486799Y274500D01*
X486605Y275476D01*
X486052Y276302D01*
X485225Y276855D01*
X484250Y277049D01*
D02*
G37*
G36*
X517900Y271349D02*
X516924Y271155D01*
X516098Y270602D01*
X515545Y269776D01*
X515351Y268800D01*
X515545Y267825D01*
X516098Y266998D01*
X516924Y266445D01*
X517900Y266251D01*
X518876Y266445D01*
X519702Y266998D01*
X520255Y267825D01*
X520449Y268800D01*
X520255Y269776D01*
X519702Y270602D01*
X518876Y271155D01*
X517900Y271349D01*
D02*
G37*
G36*
X417900Y271299D02*
X416924Y271105D01*
X416098Y270552D01*
X415545Y269725D01*
X415351Y268750D01*
X415545Y267775D01*
X416098Y266948D01*
X416924Y266395D01*
X417900Y266201D01*
X418876Y266395D01*
X419702Y266948D01*
X420255Y267775D01*
X420449Y268750D01*
X420255Y269725D01*
X419702Y270552D01*
X418876Y271105D01*
X417900Y271299D01*
D02*
G37*
G36*
X487200Y271149D02*
X486225Y270955D01*
X485398Y270402D01*
X484845Y269576D01*
X484651Y268600D01*
X484845Y267624D01*
X485398Y266798D01*
X486225Y266245D01*
X487200Y266051D01*
X488175Y266245D01*
X489002Y266798D01*
X489555Y267624D01*
X489749Y268600D01*
X489555Y269576D01*
X489002Y270402D01*
X488175Y270955D01*
X487200Y271149D01*
D02*
G37*
G36*
X532800Y261299D02*
X531824Y261105D01*
X530998Y260552D01*
X530445Y259725D01*
X530251Y258750D01*
X530445Y257774D01*
X530998Y256948D01*
X531824Y256395D01*
X532800Y256201D01*
X533776Y256395D01*
X534602Y256948D01*
X535155Y257774D01*
X535349Y258750D01*
X535155Y259725D01*
X534602Y260552D01*
X533776Y261105D01*
X532800Y261299D01*
D02*
G37*
G36*
X432800D02*
X431824Y261105D01*
X430998Y260552D01*
X430445Y259725D01*
X430251Y258750D01*
X430445Y257774D01*
X430998Y256948D01*
X431824Y256395D01*
X432800Y256201D01*
X433776Y256395D01*
X434602Y256948D01*
X435155Y257774D01*
X435349Y258750D01*
X435155Y259725D01*
X434602Y260552D01*
X433776Y261105D01*
X432800Y261299D01*
D02*
G37*
G36*
X417900Y251299D02*
X416924Y251105D01*
X416098Y250552D01*
X415545Y249726D01*
X415351Y248750D01*
X415545Y247775D01*
X416098Y246948D01*
X416924Y246395D01*
X417900Y246201D01*
X418876Y246395D01*
X419702Y246948D01*
X420255Y247775D01*
X420449Y248750D01*
X420255Y249726D01*
X419702Y250552D01*
X418876Y251105D01*
X417900Y251299D01*
D02*
G37*
G36*
X532800Y241299D02*
X531824Y241105D01*
X530998Y240552D01*
X530445Y239725D01*
X530251Y238750D01*
X530445Y237774D01*
X530998Y236948D01*
X531824Y236395D01*
X532800Y236201D01*
X533776Y236395D01*
X534602Y236948D01*
X535155Y237774D01*
X535349Y238750D01*
X535155Y239725D01*
X534602Y240552D01*
X533776Y241105D01*
X532800Y241299D01*
D02*
G37*
G36*
X432800D02*
X431824Y241105D01*
X430998Y240552D01*
X430445Y239725D01*
X430251Y238750D01*
X430445Y237774D01*
X430998Y236948D01*
X431824Y236395D01*
X432800Y236201D01*
X433776Y236395D01*
X434602Y236948D01*
X435155Y237774D01*
X435349Y238750D01*
X435155Y239725D01*
X434602Y240552D01*
X433776Y241105D01*
X432800Y241299D01*
D02*
G37*
G36*
X417900Y231299D02*
X416924Y231105D01*
X416098Y230552D01*
X415545Y229726D01*
X415351Y228750D01*
X415545Y227775D01*
X416098Y226948D01*
X416924Y226395D01*
X417900Y226201D01*
X418876Y226395D01*
X419702Y226948D01*
X420255Y227775D01*
X420449Y228750D01*
X420255Y229726D01*
X419702Y230552D01*
X418876Y231105D01*
X417900Y231299D01*
D02*
G37*
G36*
X482300Y226349D02*
X481324Y226155D01*
X480498Y225602D01*
X479945Y224776D01*
X479751Y223800D01*
X479945Y222825D01*
X480498Y221998D01*
X481324Y221445D01*
X482300Y221251D01*
X483276Y221445D01*
X484102Y221998D01*
X484655Y222825D01*
X484849Y223800D01*
X484655Y224776D01*
X484102Y225602D01*
X483276Y226155D01*
X482300Y226349D01*
D02*
G37*
G36*
X532800Y221299D02*
X531824Y221105D01*
X530998Y220552D01*
X530445Y219725D01*
X530251Y218750D01*
X530445Y217775D01*
X530998Y216948D01*
X531824Y216395D01*
X532800Y216201D01*
X533776Y216395D01*
X534602Y216948D01*
X535155Y217775D01*
X535349Y218750D01*
X535155Y219725D01*
X534602Y220552D01*
X533776Y221105D01*
X532800Y221299D01*
D02*
G37*
G36*
X432800D02*
X431824Y221105D01*
X430998Y220552D01*
X430445Y219725D01*
X430251Y218750D01*
X430445Y217775D01*
X430998Y216948D01*
X431824Y216395D01*
X432800Y216201D01*
X433776Y216395D01*
X434602Y216948D01*
X435155Y217775D01*
X435349Y218750D01*
X435155Y219725D01*
X434602Y220552D01*
X433776Y221105D01*
X432800Y221299D01*
D02*
G37*
G36*
X485300Y242376D02*
X485071Y242331D01*
X484840Y242297D01*
X484809Y242279D01*
X484773Y242272D01*
X484579Y242142D01*
X484378Y242022D01*
X484357Y241993D01*
X484327Y241973D01*
X483327Y240973D01*
X483028Y240527D01*
X482924Y240000D01*
Y233787D01*
X482498Y233502D01*
X481945Y232676D01*
X481751Y231700D01*
X481945Y230725D01*
X482498Y229898D01*
X483324Y229345D01*
X484300Y229151D01*
X485276Y229345D01*
X486102Y229898D01*
X486655Y230725D01*
X486849Y231700D01*
X486655Y232676D01*
X486102Y233502D01*
X485676Y233787D01*
Y235281D01*
X486117Y235517D01*
X486225Y235445D01*
X487200Y235251D01*
X487702Y235351D01*
X488824Y234230D01*
Y211208D01*
X488383Y210972D01*
X488184Y211105D01*
X487209Y211299D01*
X486233Y211105D01*
X485406Y210552D01*
X484854Y209725D01*
X484660Y208750D01*
X484760Y208248D01*
X478827Y202315D01*
X478528Y201868D01*
X478424Y201341D01*
Y169490D01*
X477745Y169355D01*
X476918Y168802D01*
X476365Y167975D01*
X476171Y167000D01*
X476365Y166024D01*
X476918Y165198D01*
X477745Y164645D01*
X478534Y164488D01*
X478737Y163983D01*
X477130Y162376D01*
X475689D01*
X475405Y162802D01*
X474578Y163355D01*
X473602Y163549D01*
X472627Y163355D01*
X471800Y162802D01*
X471247Y161976D01*
X471053Y161000D01*
X471247Y160024D01*
X471800Y159198D01*
X472627Y158645D01*
X473602Y158451D01*
X474578Y158645D01*
X475405Y159198D01*
X475689Y159624D01*
X477700D01*
X478227Y159728D01*
X478673Y160027D01*
X480861Y162215D01*
X481300Y161947D01*
X481484Y161024D01*
X482036Y160198D01*
X482863Y159645D01*
X483839Y159451D01*
X484814Y159645D01*
X485641Y160198D01*
X485926Y160624D01*
X490050D01*
X490577Y160728D01*
X491023Y161027D01*
X493023Y163027D01*
X493322Y163473D01*
X493427Y164000D01*
X493427Y164000D01*
Y240650D01*
X493381Y240879D01*
X493347Y241110D01*
X493329Y241141D01*
X493322Y241177D01*
X493192Y241371D01*
X493072Y241572D01*
X493043Y241593D01*
X493023Y241623D01*
X492829Y241753D01*
X492642Y241893D01*
X492607Y241902D01*
X492577Y241922D01*
X492348Y241967D01*
X492121Y242025D01*
X485371Y242375D01*
X485335Y242369D01*
X485300Y242376D01*
D02*
G37*
G36*
X532800Y211549D02*
X531824Y211355D01*
X530998Y210802D01*
X530445Y209976D01*
X530251Y209000D01*
X530445Y208025D01*
X530998Y207198D01*
X531824Y206645D01*
X532800Y206451D01*
X533776Y206645D01*
X534602Y207198D01*
X535155Y208025D01*
X535349Y209000D01*
X535155Y209976D01*
X534602Y210802D01*
X533776Y211355D01*
X532800Y211549D01*
D02*
G37*
G36*
X534700Y181249D02*
X533724Y181055D01*
X532898Y180502D01*
X532345Y179675D01*
X532151Y178700D01*
X532345Y177725D01*
X532898Y176898D01*
X533724Y176345D01*
X534700Y176151D01*
X535675Y176345D01*
X536502Y176898D01*
X537055Y177725D01*
X537249Y178700D01*
X537055Y179675D01*
X536502Y180502D01*
X535675Y181055D01*
X534700Y181249D01*
D02*
G37*
G36*
X379700Y152549D02*
X378725Y152355D01*
X377898Y151802D01*
X377345Y150976D01*
X377151Y150000D01*
X377345Y149024D01*
X377898Y148198D01*
X378725Y147645D01*
X379700Y147451D01*
X380676Y147645D01*
X381502Y148198D01*
X382055Y149024D01*
X382249Y150000D01*
X382055Y150976D01*
X381502Y151802D01*
X380676Y152355D01*
X379700Y152549D01*
D02*
G37*
G36*
X411516Y150349D02*
X410540Y150155D01*
X409713Y149602D01*
X409161Y148775D01*
X408967Y147800D01*
X409161Y146825D01*
X409713Y145998D01*
X410540Y145445D01*
X411516Y145251D01*
X412491Y145445D01*
X413318Y145998D01*
X413871Y146825D01*
X414065Y147800D01*
X413871Y148775D01*
X413318Y149602D01*
X412491Y150155D01*
X411516Y150349D01*
D02*
G37*
G36*
X288750Y147949D02*
X287774Y147755D01*
X286948Y147202D01*
X286395Y146376D01*
X286201Y145400D01*
X286395Y144424D01*
X286948Y143598D01*
X287774Y143045D01*
X288750Y142851D01*
X289725Y143045D01*
X290552Y143598D01*
X291105Y144424D01*
X291299Y145400D01*
X291105Y146376D01*
X290552Y147202D01*
X289725Y147755D01*
X288750Y147949D01*
D02*
G37*
G36*
X248800D02*
X247825Y147755D01*
X246998Y147202D01*
X246445Y146376D01*
X246251Y145400D01*
X246445Y144424D01*
X246998Y143598D01*
X247825Y143045D01*
X248800Y142851D01*
X249776Y143045D01*
X250602Y143598D01*
X251155Y144424D01*
X251349Y145400D01*
X251155Y146376D01*
X250602Y147202D01*
X249776Y147755D01*
X248800Y147949D01*
D02*
G37*
G36*
X268750Y147049D02*
X267775Y146855D01*
X266948Y146302D01*
X266395Y145475D01*
X266201Y144500D01*
X266395Y143525D01*
X266948Y142698D01*
X267775Y142145D01*
X268750Y141951D01*
X269725Y142145D01*
X270552Y142698D01*
X271105Y143525D01*
X271299Y144500D01*
X271105Y145475D01*
X270552Y146302D01*
X269725Y146855D01*
X268750Y147049D01*
D02*
G37*
G36*
X324602Y145049D02*
X323627Y144855D01*
X322800Y144302D01*
X322247Y143475D01*
X322053Y142500D01*
X322247Y141525D01*
X322800Y140698D01*
X323627Y140145D01*
X324602Y139951D01*
X325578Y140145D01*
X326405Y140698D01*
X326957Y141525D01*
X327151Y142500D01*
X326957Y143475D01*
X326405Y144302D01*
X325578Y144855D01*
X324602Y145049D01*
D02*
G37*
G36*
X256350Y143049D02*
X255375Y142855D01*
X254548Y142302D01*
X253995Y141475D01*
X253801Y140500D01*
X253995Y139524D01*
X254548Y138698D01*
X255375Y138145D01*
X256350Y137951D01*
X257326Y138145D01*
X258152Y138698D01*
X258705Y139524D01*
X258899Y140500D01*
X258705Y141475D01*
X258152Y142302D01*
X257326Y142855D01*
X256350Y143049D01*
D02*
G37*
G36*
X318750Y140549D02*
X317775Y140355D01*
X316948Y139802D01*
X316395Y138976D01*
X316201Y138000D01*
X316395Y137024D01*
X316948Y136198D01*
X317775Y135645D01*
X318750Y135451D01*
X319725Y135645D01*
X320552Y136198D01*
X321105Y137024D01*
X321299Y138000D01*
X321105Y138976D01*
X320552Y139802D01*
X319725Y140355D01*
X318750Y140549D01*
D02*
G37*
G36*
X306750Y140349D02*
X305774Y140155D01*
X304948Y139602D01*
X304395Y138776D01*
X304201Y137800D01*
X304395Y136825D01*
X304948Y135998D01*
X305774Y135445D01*
X306750Y135251D01*
X307726Y135445D01*
X308552Y135998D01*
X309105Y136825D01*
X309299Y137800D01*
X309105Y138776D01*
X308552Y139602D01*
X307726Y140155D01*
X306750Y140349D01*
D02*
G37*
G36*
X288750Y136149D02*
X287774Y135955D01*
X286948Y135402D01*
X286395Y134575D01*
X286201Y133600D01*
X286395Y132624D01*
X286948Y131798D01*
X287774Y131245D01*
X288750Y131051D01*
X289725Y131245D01*
X290552Y131798D01*
X291105Y132624D01*
X291299Y133600D01*
X291105Y134575D01*
X290552Y135402D01*
X289725Y135955D01*
X288750Y136149D01*
D02*
G37*
G36*
X540800Y130749D02*
X539824Y130555D01*
X538998Y130002D01*
X538445Y129175D01*
X538251Y128200D01*
X538445Y127225D01*
X538998Y126398D01*
X539824Y125845D01*
X540800Y125651D01*
X541776Y125845D01*
X542602Y126398D01*
X543155Y127225D01*
X543349Y128200D01*
X543155Y129175D01*
X542602Y130002D01*
X541776Y130555D01*
X540800Y130749D01*
D02*
G37*
G36*
X387043Y124947D02*
X386068Y124753D01*
X385241Y124200D01*
X384688Y123373D01*
X384494Y122398D01*
X384688Y121422D01*
X385241Y120595D01*
X386068Y120043D01*
X387043Y119849D01*
X388019Y120043D01*
X388846Y120595D01*
X389398Y121422D01*
X389592Y122398D01*
X389398Y123373D01*
X388846Y124200D01*
X388019Y124753D01*
X387043Y124947D01*
D02*
G37*
G36*
X328800Y117249D02*
X327824Y117055D01*
X326998Y116502D01*
X326445Y115675D01*
X326251Y114700D01*
X326445Y113725D01*
X326998Y112898D01*
X327824Y112345D01*
X328800Y112151D01*
X329776Y112345D01*
X330602Y112898D01*
X331155Y113725D01*
X331349Y114700D01*
X331155Y115675D01*
X330602Y116502D01*
X329776Y117055D01*
X328800Y117249D01*
D02*
G37*
G36*
X288800D02*
X287825Y117055D01*
X286998Y116502D01*
X286445Y115675D01*
X286251Y114700D01*
X286445Y113725D01*
X286998Y112898D01*
X287825Y112345D01*
X288800Y112151D01*
X289775Y112345D01*
X290602Y112898D01*
X291155Y113725D01*
X291349Y114700D01*
X291155Y115675D01*
X290602Y116502D01*
X289775Y117055D01*
X288800Y117249D01*
D02*
G37*
G36*
X268800D02*
X267825Y117055D01*
X266998Y116502D01*
X266445Y115675D01*
X266251Y114700D01*
X266445Y113725D01*
X266998Y112898D01*
X267825Y112345D01*
X268800Y112151D01*
X269776Y112345D01*
X270602Y112898D01*
X271155Y113725D01*
X271349Y114700D01*
X271155Y115675D01*
X270602Y116502D01*
X269776Y117055D01*
X268800Y117249D01*
D02*
G37*
G36*
X248800D02*
X247825Y117055D01*
X246998Y116502D01*
X246445Y115675D01*
X246251Y114700D01*
X246445Y113725D01*
X246998Y112898D01*
X247825Y112345D01*
X248800Y112151D01*
X249776Y112345D01*
X250602Y112898D01*
X251155Y113725D01*
X251349Y114700D01*
X251155Y115675D01*
X250602Y116502D01*
X249776Y117055D01*
X248800Y117249D01*
D02*
G37*
G36*
X363300Y112750D02*
X362825Y112655D01*
X361998Y112102D01*
X361584Y111484D01*
X361016D01*
X360602Y112102D01*
X359775Y112655D01*
X359300Y112750D01*
Y110300D01*
Y107851D01*
X359775Y107945D01*
X360602Y108498D01*
X361016Y109116D01*
X361584D01*
X361998Y108498D01*
X362825Y107945D01*
X363300Y107851D01*
Y110300D01*
Y112750D01*
D02*
G37*
G36*
X364300D02*
Y110800D01*
X366249D01*
X366155Y111275D01*
X365602Y112102D01*
X364775Y112655D01*
X364300Y112750D01*
D02*
G37*
G36*
X358300D02*
X357824Y112655D01*
X356998Y112102D01*
X356445Y111275D01*
X356350Y110800D01*
X358300D01*
Y112750D01*
D02*
G37*
G36*
X366249Y109800D02*
X364300D01*
Y107851D01*
X364775Y107945D01*
X365602Y108498D01*
X366155Y109325D01*
X366249Y109800D01*
D02*
G37*
G36*
X358300D02*
X356350D01*
X356445Y109325D01*
X356998Y108498D01*
X357824Y107945D01*
X358300Y107851D01*
Y109800D01*
D02*
G37*
G36*
X338700Y112849D02*
X337724Y112655D01*
X336898Y112102D01*
X336345Y111275D01*
X336151Y110300D01*
X336345Y109325D01*
X336898Y108498D01*
X337724Y107945D01*
X338700Y107751D01*
X339675Y107945D01*
X340502Y108498D01*
X341055Y109325D01*
X341249Y110300D01*
X341055Y111275D01*
X340502Y112102D01*
X339675Y112655D01*
X338700Y112849D01*
D02*
G37*
G36*
X318800D02*
X317825Y112655D01*
X316998Y112102D01*
X316445Y111275D01*
X316251Y110300D01*
X316445Y109325D01*
X316998Y108498D01*
X317825Y107945D01*
X318800Y107751D01*
X319776Y107945D01*
X320602Y108498D01*
X321155Y109325D01*
X321349Y110300D01*
X321155Y111275D01*
X320602Y112102D01*
X319776Y112655D01*
X318800Y112849D01*
D02*
G37*
G36*
X377200Y102549D02*
X376224Y102355D01*
X375398Y101802D01*
X374845Y100976D01*
X374651Y100000D01*
X374845Y99024D01*
X375398Y98198D01*
X376224Y97645D01*
X377200Y97451D01*
X378175Y97645D01*
X379002Y98198D01*
X379555Y99024D01*
X379749Y100000D01*
X379555Y100976D01*
X379002Y101802D01*
X378175Y102355D01*
X377200Y102549D01*
D02*
G37*
G36*
X417900Y104349D02*
X416924Y104155D01*
X416098Y103602D01*
X415545Y102776D01*
X415351Y101800D01*
X415545Y100824D01*
X416098Y99998D01*
X416524Y99713D01*
Y97200D01*
X416628Y96673D01*
X416927Y96227D01*
X417251Y95902D01*
X417151Y95400D01*
X417345Y94424D01*
X417898Y93598D01*
X418724Y93045D01*
X419700Y92851D01*
X420676Y93045D01*
X421502Y93598D01*
X422055Y94424D01*
X422249Y95400D01*
X422055Y96376D01*
X421502Y97202D01*
X420676Y97755D01*
X419700Y97949D01*
X419663Y97942D01*
X419277Y98259D01*
Y99713D01*
X419702Y99998D01*
X420255Y100824D01*
X420449Y101800D01*
X420255Y102776D01*
X419702Y103602D01*
X418876Y104155D01*
X417900Y104349D01*
D02*
G37*
G36*
X388900Y97649D02*
X387925Y97455D01*
X387098Y96902D01*
X386545Y96075D01*
X386351Y95100D01*
X386545Y94125D01*
X387098Y93298D01*
X387925Y92745D01*
X388900Y92551D01*
X389876Y92745D01*
X390702Y93298D01*
X391255Y94125D01*
X391449Y95100D01*
X391255Y96075D01*
X390702Y96902D01*
X389876Y97455D01*
X388900Y97649D01*
D02*
G37*
G36*
X415600Y93849D02*
X414625Y93655D01*
X413798Y93102D01*
X413245Y92276D01*
X413051Y91300D01*
X413245Y90324D01*
X413798Y89498D01*
X414625Y88945D01*
X415600Y88751D01*
X416575Y88945D01*
X417402Y89498D01*
X417955Y90324D01*
X418149Y91300D01*
X417955Y92276D01*
X417402Y93102D01*
X416575Y93655D01*
X415600Y93849D01*
D02*
G37*
G36*
X358750Y85549D02*
X357774Y85355D01*
X356948Y84802D01*
X356395Y83975D01*
X356201Y83000D01*
X356395Y82025D01*
X356948Y81198D01*
X357774Y80645D01*
X358750Y80451D01*
X359725Y80645D01*
X360552Y81198D01*
X361105Y82025D01*
X361299Y83000D01*
X361105Y83975D01*
X360552Y84802D01*
X359725Y85355D01*
X358750Y85549D01*
D02*
G37*
G36*
X376200Y82549D02*
X375224Y82355D01*
X374398Y81802D01*
X373845Y80976D01*
X373651Y80000D01*
X373845Y79024D01*
X374398Y78198D01*
X375224Y77645D01*
X376200Y77451D01*
X377175Y77645D01*
X378002Y78198D01*
X378555Y79024D01*
X378749Y80000D01*
X378555Y80976D01*
X378002Y81802D01*
X377175Y82355D01*
X376200Y82549D01*
D02*
G37*
G36*
X348750Y82149D02*
X347775Y81955D01*
X346948Y81402D01*
X346395Y80576D01*
X346201Y79600D01*
X346395Y78624D01*
X346948Y77798D01*
X347775Y77245D01*
X348750Y77051D01*
X349726Y77245D01*
X350552Y77798D01*
X351105Y78624D01*
X351299Y79600D01*
X351105Y80576D01*
X350552Y81402D01*
X349726Y81955D01*
X348750Y82149D01*
D02*
G37*
G36*
X338300D02*
X337325Y81955D01*
X336498Y81402D01*
X335945Y80576D01*
X335751Y79600D01*
X335945Y78624D01*
X336498Y77798D01*
X337325Y77245D01*
X338300Y77051D01*
X339276Y77245D01*
X340102Y77798D01*
X340655Y78624D01*
X340849Y79600D01*
X340655Y80576D01*
X340102Y81402D01*
X339276Y81955D01*
X338300Y82149D01*
D02*
G37*
G36*
X322100D02*
X321125Y81955D01*
X320298Y81402D01*
X319745Y80576D01*
X319551Y79600D01*
X319745Y78624D01*
X320298Y77798D01*
X321125Y77245D01*
X322100Y77051D01*
X323076Y77245D01*
X323902Y77798D01*
X324455Y78624D01*
X324649Y79600D01*
X324455Y80576D01*
X323902Y81402D01*
X323076Y81955D01*
X322100Y82149D01*
D02*
G37*
G36*
X255500Y82049D02*
X254524Y81855D01*
X253698Y81302D01*
X253145Y80475D01*
X252951Y79500D01*
X253145Y78525D01*
X253698Y77698D01*
X254524Y77145D01*
X255500Y76951D01*
X256475Y77145D01*
X257302Y77698D01*
X257855Y78525D01*
X258049Y79500D01*
X257855Y80475D01*
X257302Y81302D01*
X256475Y81855D01*
X255500Y82049D01*
D02*
G37*
G36*
X404500Y69711D02*
Y67761D01*
X406450D01*
X406355Y68237D01*
X405802Y69064D01*
X404976Y69616D01*
X404500Y69711D01*
D02*
G37*
G36*
X406450Y66761D02*
X404500D01*
Y64812D01*
X404976Y64906D01*
X405802Y65459D01*
X406355Y66286D01*
X406450Y66761D01*
D02*
G37*
G36*
X288750Y67249D02*
X287774Y67055D01*
X286948Y66502D01*
X286395Y65675D01*
X286201Y64700D01*
X286395Y63724D01*
X286948Y62898D01*
X287774Y62345D01*
X288750Y62151D01*
X289725Y62345D01*
X290552Y62898D01*
X291105Y63724D01*
X291299Y64700D01*
X291105Y65675D01*
X290552Y66502D01*
X289725Y67055D01*
X288750Y67249D01*
D02*
G37*
G36*
X248700D02*
X247725Y67055D01*
X246898Y66502D01*
X246345Y65675D01*
X246151Y64700D01*
X246345Y63724D01*
X246898Y62898D01*
X247725Y62345D01*
X248700Y62151D01*
X249675Y62345D01*
X250502Y62898D01*
X251055Y63724D01*
X251249Y64700D01*
X251055Y65675D01*
X250502Y66502D01*
X249675Y67055D01*
X248700Y67249D01*
D02*
G37*
G36*
X328750Y66149D02*
X327775Y65955D01*
X326948Y65402D01*
X326395Y64575D01*
X326201Y63600D01*
X326395Y62625D01*
X326948Y61798D01*
X327775Y61245D01*
X328750Y61051D01*
X329726Y61245D01*
X330552Y61798D01*
X331105Y62625D01*
X331299Y63600D01*
X331105Y64575D01*
X330552Y65402D01*
X329726Y65955D01*
X328750Y66149D01*
D02*
G37*
G36*
X318750Y64349D02*
X317775Y64155D01*
X316948Y63602D01*
X316395Y62775D01*
X316201Y61800D01*
X316395Y60825D01*
X316948Y59998D01*
X317775Y59445D01*
X318750Y59251D01*
X319725Y59445D01*
X320552Y59998D01*
X321105Y60825D01*
X321299Y61800D01*
X321105Y62775D01*
X320552Y63602D01*
X319725Y64155D01*
X318750Y64349D01*
D02*
G37*
G36*
X540300Y49650D02*
Y47700D01*
X542249D01*
X542155Y48175D01*
X541602Y49002D01*
X540775Y49555D01*
X540300Y49650D01*
D02*
G37*
G36*
X539300D02*
X538825Y49555D01*
X537998Y49002D01*
X537445Y48175D01*
X537351Y47700D01*
X539300D01*
Y49650D01*
D02*
G37*
G36*
X151000Y50849D02*
X150024Y50655D01*
X149198Y50102D01*
X148645Y49275D01*
X148451Y48300D01*
X148645Y47324D01*
X149198Y46498D01*
X150024Y45945D01*
X151000Y45751D01*
X151976Y45945D01*
X152802Y46498D01*
X153355Y47324D01*
X153549Y48300D01*
X153355Y49275D01*
X152802Y50102D01*
X151976Y50655D01*
X151000Y50849D01*
D02*
G37*
G36*
X542249Y46700D02*
X540300D01*
Y44750D01*
X540775Y44845D01*
X541602Y45398D01*
X542155Y46224D01*
X542249Y46700D01*
D02*
G37*
G36*
X539300D02*
X537351D01*
X537445Y46224D01*
X537998Y45398D01*
X538825Y44845D01*
X539300Y44750D01*
Y46700D01*
D02*
G37*
G36*
X328750Y47949D02*
X327775Y47755D01*
X326948Y47202D01*
X326395Y46376D01*
X326201Y45400D01*
X326395Y44425D01*
X326948Y43598D01*
X327775Y43045D01*
X328750Y42851D01*
X329726Y43045D01*
X330552Y43598D01*
X331105Y44425D01*
X331299Y45400D01*
X331105Y46376D01*
X330552Y47202D01*
X329726Y47755D01*
X328750Y47949D01*
D02*
G37*
G36*
X268750D02*
X267775Y47755D01*
X266948Y47202D01*
X266395Y46376D01*
X266201Y45400D01*
X266395Y44425D01*
X266948Y43598D01*
X267775Y43045D01*
X268750Y42851D01*
X269725Y43045D01*
X270552Y43598D01*
X271105Y44425D01*
X271299Y45400D01*
X271105Y46376D01*
X270552Y47202D01*
X269725Y47755D01*
X268750Y47949D01*
D02*
G37*
G36*
X248750D02*
X247775Y47755D01*
X246948Y47202D01*
X246395Y46376D01*
X246201Y45400D01*
X246395Y44425D01*
X246948Y43598D01*
X247775Y43045D01*
X248750Y42851D01*
X249726Y43045D01*
X250552Y43598D01*
X251105Y44425D01*
X251299Y45400D01*
X251105Y46376D01*
X250552Y47202D01*
X249726Y47755D01*
X248750Y47949D01*
D02*
G37*
G36*
X391523Y46799D02*
X390547Y46605D01*
X389720Y46052D01*
X389168Y45226D01*
X388974Y44250D01*
X389168Y43275D01*
X389720Y42448D01*
X390547Y41895D01*
X391523Y41701D01*
X392498Y41895D01*
X393325Y42448D01*
X393878Y43275D01*
X394072Y44250D01*
X393878Y45226D01*
X393325Y46052D01*
X392498Y46605D01*
X391523Y46799D01*
D02*
G37*
G36*
X160400Y35349D02*
X159424Y35155D01*
X158598Y34602D01*
X158045Y33775D01*
X157851Y32800D01*
X158045Y31824D01*
X158598Y30998D01*
X159424Y30445D01*
X160400Y30251D01*
X161375Y30445D01*
X162202Y30998D01*
X162755Y31824D01*
X162949Y32800D01*
X162755Y33775D01*
X162202Y34602D01*
X161375Y35155D01*
X160400Y35349D01*
D02*
G37*
G36*
X169700Y27151D02*
X168725Y26957D01*
X167898Y26405D01*
X167345Y25578D01*
X167151Y24602D01*
X167345Y23627D01*
X167898Y22800D01*
X168725Y22248D01*
X169700Y22053D01*
X170676Y22248D01*
X171502Y22800D01*
X172055Y23627D01*
X172249Y24602D01*
X172055Y25578D01*
X171502Y26405D01*
X170676Y26957D01*
X169700Y27151D01*
D02*
G37*
G36*
X163600Y25249D02*
X162625Y25055D01*
X161798Y24502D01*
X161245Y23675D01*
X161051Y22700D01*
X161245Y21724D01*
X161798Y20898D01*
X162625Y20345D01*
X163600Y20151D01*
X164576Y20345D01*
X165402Y20898D01*
X165955Y21724D01*
X166149Y22700D01*
X165955Y23675D01*
X165402Y24502D01*
X164576Y25055D01*
X163600Y25249D01*
D02*
G37*
G36*
X296030Y15819D02*
X295054Y15625D01*
X294227Y15073D01*
X293675Y14246D01*
X293481Y13270D01*
X293675Y12295D01*
X294227Y11468D01*
X295054Y10915D01*
X296030Y10721D01*
X297005Y10915D01*
X297832Y11468D01*
X297983Y11694D01*
X339743D01*
X340027Y11268D01*
X340854Y10715D01*
X341830Y10521D01*
X342805Y10715D01*
X343632Y11268D01*
X344184Y12095D01*
X344379Y13070D01*
X344184Y14046D01*
X343632Y14873D01*
X342805Y15425D01*
X341830Y15619D01*
X340854Y15425D01*
X340027Y14873D01*
X339743Y14447D01*
X298250D01*
X297832Y15073D01*
X297005Y15625D01*
X296030Y15819D01*
D02*
G37*
G36*
X213000Y15149D02*
X212024Y14955D01*
X211198Y14402D01*
X210645Y13576D01*
X210451Y12600D01*
X210645Y11625D01*
X211198Y10798D01*
X212024Y10245D01*
X213000Y10051D01*
X213976Y10245D01*
X214802Y10798D01*
X215355Y11625D01*
X215549Y12600D01*
X215355Y13576D01*
X214802Y14402D01*
X213976Y14955D01*
X213000Y15149D01*
D02*
G37*
%LPD*%
D16*
X407900Y63361D02*
X420200Y51061D01*
X407000Y64261D02*
X407900Y63361D01*
Y62824D02*
Y63361D01*
X434800Y143200D02*
X434900Y143100D01*
X442650Y142900D02*
X442950D01*
X456350Y145650D02*
X456400Y145700D01*
X456350Y320650D02*
X456400Y320600D01*
Y145700D02*
Y320600D01*
X439250Y337750D02*
Y389050D01*
X445200Y395000D02*
X445529Y395329D01*
Y413185D01*
X448044Y415700D02*
X458281D01*
X461564Y418982D01*
X442450Y143100D02*
X442650Y142900D01*
X434900Y143100D02*
X442450D01*
X439250Y337750D02*
X456350Y320650D01*
X439200Y389000D02*
X439250Y389050D01*
X445200Y412856D02*
X445529Y413185D01*
X445200Y412856D02*
X448044Y415700D01*
X409850Y397550D02*
Y400880D01*
X407500Y403230D02*
X409850Y400880D01*
X407500Y403230D02*
Y410550D01*
X409850Y397550D02*
X413500Y393900D01*
X382250Y409250D02*
X394250D01*
X378700Y405700D02*
X382250Y409250D01*
X394250D02*
X399700Y403800D01*
X499800Y405200D02*
X501800Y403200D01*
X505900Y402000D02*
Y438323D01*
X490600Y425800D02*
X496673Y431873D01*
Y434776D01*
X486400Y436800D02*
X490400Y440800D01*
X486400Y422200D02*
Y436800D01*
X475400Y411200D02*
X486400Y422200D01*
X527100Y429200D02*
X537000Y439100D01*
X91400Y346700D02*
X93000Y345100D01*
Y234800D02*
Y345100D01*
X158200Y434900D02*
Y472400D01*
Y434900D02*
X159500Y433600D01*
X161759D01*
X164230Y436070D01*
X165802D01*
X167000Y437268D01*
X296300Y13000D02*
X296370Y13070D01*
X341830D01*
X504600Y279350D02*
Y305000D01*
X159200Y288550D02*
Y290900D01*
Y266500D02*
Y288550D01*
X98800Y412600D02*
X104100Y407300D01*
X97700Y413700D02*
X98800Y412600D01*
X97700Y414348D02*
Y428000D01*
Y413700D02*
Y414348D01*
X98800Y412600D02*
Y414348D01*
Y123269D02*
Y412600D01*
X519961Y107870D02*
X520900Y106931D01*
X484398Y82703D02*
X486000Y81100D01*
X117400Y427500D02*
Y437600D01*
Y412500D02*
Y427500D01*
X133911Y437211D02*
Y448679D01*
X481100Y499750D02*
Y500000D01*
Y492700D02*
Y499750D01*
X505900Y438323D02*
X527300Y416923D01*
X501600Y442623D02*
X505900Y438323D01*
X501600Y450600D02*
Y454900D01*
Y442623D02*
Y450600D01*
X505900Y438323D02*
Y450600D01*
X527300Y414000D02*
X538700Y425400D01*
X513600Y400300D02*
X527300Y414000D01*
Y416923D01*
Y145600D02*
Y414000D01*
X504200Y400300D02*
X513600D01*
X481200D02*
X504200D01*
X401100Y544300D02*
X534400D01*
X56900D02*
X401100D01*
X44450Y435750D02*
Y447300D01*
X458650Y65540D02*
Y88750D01*
X64100Y149200D02*
X70100Y143200D01*
X48100Y165200D02*
X64100Y149200D01*
X461564Y418982D02*
X468850D01*
X451326D02*
X461564D01*
X465900Y423319D01*
X448044Y415700D02*
X451326Y418982D01*
X439250Y389050D02*
X445200Y395000D01*
X439200Y337800D02*
X439250Y337750D01*
X453600Y142900D02*
X456350Y145650D01*
X442950Y142900D02*
X453600D01*
X404000Y67261D02*
X407000Y64261D01*
Y69922D01*
X407900Y44100D02*
Y62824D01*
X431100Y417300D02*
X439600Y425800D01*
X429600Y415800D02*
X431100Y417300D01*
X51500Y454500D02*
Y476597D01*
Y476600D01*
X47856Y501644D02*
X48000Y501500D01*
X40950Y508550D02*
X47856Y501644D01*
Y513356D01*
Y480241D02*
Y501644D01*
X48000Y501500D02*
Y507500D01*
Y480100D02*
Y501500D01*
X19400Y435901D02*
Y504000D01*
X105000Y96645D02*
Y119200D01*
Y93543D02*
Y96645D01*
X413300Y490058D02*
Y526500D01*
Y416400D02*
Y448574D01*
Y490058D01*
X87800Y83921D02*
Y130046D01*
X146700Y510600D02*
X162400Y494900D01*
X146600Y510700D02*
X146700Y510600D01*
X117096D02*
X146700D01*
X115600D02*
X117096D01*
X117196Y510700D01*
X99000Y492504D02*
X117096Y510600D01*
X455500Y496976D02*
X476576Y475900D01*
X33300Y428000D02*
X39600Y421700D01*
X35957Y423102D02*
X38480Y420580D01*
X141400Y152000D02*
X148800D01*
X235800Y424950D02*
X244400Y416350D01*
X235800Y424950D02*
Y455700D01*
X248000Y467900D01*
X275800Y430900D02*
X288800Y417900D01*
X275800Y430900D02*
Y455000D01*
X288700Y467900D01*
X306500Y420200D02*
X308800Y417900D01*
X306500Y420200D02*
Y465600D01*
X308800Y467900D01*
X232050Y36300D02*
X238750Y29600D01*
X202500Y36300D02*
X232050D01*
X193800Y45000D02*
X202500Y36300D01*
X193800Y45000D02*
Y62000D01*
X216000Y84200D01*
X232150D01*
X232850Y83500D01*
X349100Y434200D02*
X358750D01*
X347400Y435900D02*
X349100Y434200D01*
X347400Y435900D02*
Y441050D01*
X355650Y449300D01*
Y459050D01*
X360800Y464200D01*
Y482800D01*
X335800Y530850D02*
X348750Y517900D01*
X335800Y530850D02*
Y533900D01*
X337900Y536000D01*
X341700D01*
X357700Y520000D01*
Y491600D02*
Y520000D01*
Y491600D02*
X363650Y485650D01*
Y463250D02*
Y485650D01*
X357400Y457000D02*
X363650Y463250D01*
X357400Y444200D02*
Y457000D01*
X350400Y437200D02*
X357400Y444200D01*
X298750Y60291D02*
Y102950D01*
X293800Y107900D02*
X298750Y102950D01*
X293800Y107900D02*
Y173900D01*
X268200Y199500D02*
X293800Y173900D01*
X268200Y199500D02*
Y219300D01*
X263750Y223750D02*
X268200Y219300D01*
X278750Y60291D02*
X281800Y63341D01*
Y163800D01*
X259300Y186300D02*
X281800Y163800D01*
X259300Y186300D02*
Y209300D01*
X263750Y213750D01*
X258750Y60291D02*
X262200Y63741D01*
Y179900D01*
X248700Y193400D02*
X262200Y179900D01*
X248700Y193400D02*
Y208800D01*
X243750Y213750D02*
X248700Y208800D01*
X253750Y203750D02*
Y207650D01*
X249300Y212100D02*
X253750Y207650D01*
X249300Y212100D02*
Y216100D01*
X246600Y218800D02*
X249300Y216100D01*
X242000Y218800D02*
X246600D01*
X239300Y216100D02*
X242000Y218800D01*
X239300Y201200D02*
Y216100D01*
Y201200D02*
X241700Y198800D01*
Y58600D02*
Y198800D01*
X236000Y52900D02*
X241700Y58600D01*
X223600Y52900D02*
X236000D01*
X216100Y45400D02*
X223600Y52900D01*
X501000Y303150D02*
X501575Y303725D01*
X501000Y274100D02*
Y303150D01*
Y274100D02*
X521300Y253800D01*
Y149800D02*
Y253800D01*
X519300Y147800D02*
X521300Y149800D01*
X487200Y168800D02*
X490200Y171800D01*
Y234800D01*
X487200Y237800D02*
X490200Y234800D01*
X483839Y162000D02*
X490050D01*
X492050Y164000D01*
Y240650D01*
X485300Y241000D02*
X492050Y240650D01*
X484300Y240000D02*
X485300Y241000D01*
X484300Y231700D02*
Y240000D01*
X481700Y189241D02*
X485209Y192750D01*
X481700Y165000D02*
Y189241D01*
X477700Y161000D02*
X481700Y165000D01*
X473602Y161000D02*
X477700D01*
X448900Y167700D02*
Y169700D01*
X397800Y220800D02*
X448900Y169700D01*
X397800Y220800D02*
Y306850D01*
X384300Y320350D02*
X397800Y306850D01*
X446398Y145800D02*
X454400Y153802D01*
Y264350D01*
X410000Y308750D02*
X454400Y264350D01*
X401500Y185600D02*
X439300Y147800D01*
X384976Y185600D02*
X401500D01*
X378700Y191876D02*
X384976Y185600D01*
X378700Y191876D02*
Y234517D01*
X339467Y273750D02*
X378700Y234517D01*
X333750Y273750D02*
X339467D01*
X387200Y288800D02*
X393800Y282200D01*
Y208800D02*
Y282200D01*
Y208800D02*
X405600Y197000D01*
X418800D01*
X438720Y177080D01*
Y170580D02*
Y177080D01*
X404100Y217200D02*
Y278733D01*
Y217200D02*
X425400Y195900D01*
X433100D01*
X452600Y176400D01*
Y166200D02*
Y176400D01*
X442300Y155900D02*
X452600Y166200D01*
X442300Y146100D02*
Y155900D01*
X441100Y144900D02*
X442300Y146100D01*
X437100Y144900D02*
X441100D01*
X434200Y147800D02*
X437100Y144900D01*
X402500Y280333D02*
X404100Y278733D01*
X402500Y280333D02*
Y291200D01*
X400300Y293400D02*
X402500Y291200D01*
X400300Y293400D02*
Y311200D01*
X381700Y329800D02*
X400300Y311200D01*
X332000Y329800D02*
X381700D01*
X328800Y326600D02*
X332000Y329800D01*
X328800Y308800D02*
Y326600D01*
X323750Y303750D02*
X328800Y308800D01*
X356917Y299083D02*
X387200Y268800D01*
X329083Y299083D02*
X356917D01*
X323750Y293750D02*
X329083Y299083D01*
X387200Y259400D02*
X390200Y256400D01*
Y207133D02*
Y256400D01*
Y207133D02*
X427435Y169898D01*
X433602D01*
X323750Y273750D02*
X329300Y268200D01*
Y261147D02*
Y268200D01*
Y261147D02*
X331047Y259400D01*
X343519D01*
X369800Y233119D01*
Y192812D02*
Y233119D01*
Y192812D02*
X380512Y182100D01*
X392900D01*
X405200Y169800D01*
Y166157D02*
Y169800D01*
Y166157D02*
X410957Y160400D01*
X319400Y268100D02*
X323750Y263750D01*
X319400Y268100D02*
Y275953D01*
X321647Y278200D01*
X327200D01*
X329300Y276100D01*
Y271000D02*
Y276100D01*
Y271000D02*
X331000Y269300D01*
X339600D01*
X371700Y237200D01*
Y203400D02*
Y237200D01*
Y203400D02*
X371900Y203200D01*
Y195600D02*
Y203200D01*
Y195600D02*
X383600Y183900D01*
X394500D01*
X409600Y168800D01*
X383900Y230059D02*
X387209Y226750D01*
X383900Y230059D02*
Y261000D01*
X390200Y267300D01*
Y270700D01*
X389000Y271900D02*
X390200Y270700D01*
X387100Y271900D02*
X389000D01*
X350800Y308200D02*
X387100Y271900D01*
X331647Y308200D02*
X350800D01*
X329400Y305953D02*
X331647Y308200D01*
X329400Y302600D02*
Y305953D01*
X326200Y299400D02*
X329400Y302600D01*
X319400Y299400D02*
X326200D01*
X313750Y293750D02*
X319400Y299400D01*
X382200Y213759D02*
X387209Y208750D01*
X382200Y213759D02*
Y253600D01*
X347600Y288200D02*
X382200Y253600D01*
X320300Y288200D02*
X347600D01*
X318200Y286100D02*
X320300Y288200D01*
X318200Y278200D02*
Y286100D01*
X313750Y273750D02*
X318200Y278200D01*
X394161Y145858D02*
X396161Y147858D01*
X394161Y139639D02*
Y145858D01*
Y139639D02*
X395300Y138500D01*
X400050D01*
X401600Y140050D01*
Y143985D01*
X404300Y146685D01*
Y155900D01*
X398700Y161500D02*
X404300Y155900D01*
X398700Y161500D02*
Y172652D01*
X391052Y180300D02*
X398700Y172652D01*
X376525Y180300D02*
X391052D01*
X344900Y211925D02*
X376525Y180300D01*
X344900Y211925D02*
Y244547D01*
X340047Y249400D02*
X344900Y244547D01*
X331047Y249400D02*
X340047D01*
X329400Y251047D02*
X331047Y249400D01*
X329400Y251047D02*
Y256447D01*
X327647Y258200D02*
X329400Y256447D01*
X319300Y258200D02*
X327647D01*
X313750Y263750D02*
X319300Y258200D01*
X340684Y208100D02*
X382084Y166700D01*
X311406Y208100D02*
X340684D01*
X308300Y211206D02*
X311406Y208100D01*
X308300Y211206D02*
Y255850D01*
X303750Y260400D02*
X308300Y255850D01*
X303750Y260400D02*
Y263750D01*
X39417Y228750D02*
X45417D01*
X48400Y231733D01*
Y354298D01*
X15900Y386798D02*
X48400Y354298D01*
X15900Y386798D02*
Y394998D01*
X20602Y399700D01*
X23161Y387100D02*
X29100D01*
X50200Y366000D01*
Y228000D02*
Y366000D01*
X47900Y225700D02*
X50200Y228000D01*
X37800Y225700D02*
X47900D01*
X36400Y227100D02*
X37800Y225700D01*
X36400Y227100D02*
Y233700D01*
X41450Y238750D01*
X23620Y402700D02*
X25720Y400600D01*
X18400Y402700D02*
X23620D01*
X14200Y398500D02*
X18400Y402700D01*
X14200Y379400D02*
Y398500D01*
Y379400D02*
X38550Y355050D01*
Y266950D02*
Y355050D01*
Y266950D02*
X42500Y263000D01*
X50650Y385550D02*
X67500Y368700D01*
Y318100D02*
Y368700D01*
X60300Y310900D02*
X67500Y318100D01*
X57300Y315759D02*
X60291Y318750D01*
X57300Y309100D02*
Y315759D01*
Y309100D02*
X58700Y307700D01*
X65000D01*
X69400Y312100D01*
Y372500D01*
X58200Y383700D02*
X69400Y372500D01*
X139450Y248750D02*
X145417D01*
X120900Y267300D02*
X139450Y248750D01*
X120900Y267300D02*
Y352400D01*
X105791Y367509D02*
X120900Y352400D01*
X105791Y367509D02*
Y403900D01*
X115130Y379670D02*
Y383100D01*
Y379670D02*
X136700Y358100D01*
Y278750D02*
Y358100D01*
X162300Y278750D02*
X216050D01*
X219300Y275500D01*
Y242100D02*
Y275500D01*
Y242100D02*
X222000Y239400D01*
X239400D01*
X243750Y243750D01*
X123100Y377500D02*
Y382900D01*
Y377500D02*
X140500Y360100D01*
Y299150D02*
Y360100D01*
X156400Y313150D02*
X164550Y305000D01*
X156400Y313150D02*
Y364543D01*
X138043Y382900D02*
X156400Y364543D01*
X229300Y219300D02*
X233750Y223750D01*
X195300Y219300D02*
X229300D01*
X157300Y257300D02*
X195300Y219300D01*
X157300Y257300D02*
Y295759D01*
X160291Y298750D01*
X233750Y243750D02*
X238053Y248053D01*
Y276000D01*
X235953Y278100D02*
X238053Y276000D01*
X231406Y278100D02*
X235953D01*
X228800Y280706D02*
X231406Y278100D01*
X228800Y280706D02*
Y296000D01*
X226000Y298800D02*
X228800Y296000D01*
X191909Y298800D02*
X226000D01*
X171959Y318750D02*
X191909Y298800D01*
X143161Y386700D02*
X160300Y369561D01*
Y318800D02*
Y369561D01*
X147900Y395514D02*
X158516Y384898D01*
X147900Y395514D02*
Y401400D01*
X149000Y402500D01*
X153225D01*
X169000Y386725D01*
Y316000D02*
Y386725D01*
Y316000D02*
X195700Y289300D01*
X216100D01*
X219200Y286200D01*
Y281000D02*
Y286200D01*
Y281000D02*
X222000Y278200D01*
X225900D01*
X228100Y276000D01*
Y258100D02*
Y276000D01*
X223750Y253750D02*
X228100Y258100D01*
X330200Y360200D02*
Y385750D01*
X293750Y323750D02*
X330200Y360200D01*
X313750Y329250D02*
X346000Y361500D01*
X313750Y323750D02*
Y329250D01*
X233500Y390050D02*
Y482100D01*
X231250Y387800D02*
X233500Y390050D01*
X231250Y378550D02*
Y387800D01*
Y378550D02*
X248800Y361000D01*
Y308700D02*
Y361000D01*
Y308700D02*
X253750Y303750D01*
X263559Y492400D02*
X268750Y487209D01*
X223400Y348100D02*
X228800Y342700D01*
Y318700D02*
Y342700D01*
X304750Y483209D02*
X306750Y485209D01*
X304750Y382050D02*
Y483209D01*
X279300Y356600D02*
X304750Y382050D01*
X279300Y319300D02*
Y356600D01*
X273750Y313750D02*
X279300Y319300D01*
X319459Y492500D02*
X324750Y487209D01*
X278400Y492500D02*
X319459D01*
X270100Y484200D02*
X278400Y492500D01*
X263700Y484200D02*
X270100D01*
X257400Y490500D02*
X263700Y484200D01*
X236200Y490500D02*
X257400D01*
X230000Y484300D02*
X236200Y490500D01*
X230000Y479100D02*
Y484300D01*
Y479100D02*
X231800Y477300D01*
Y399000D02*
Y477300D01*
X225100Y392300D02*
X231800Y399000D01*
X225100Y352700D02*
Y392300D01*
Y352700D02*
X233750Y344050D01*
Y323750D02*
Y344050D01*
X332000Y495333D02*
X338750Y502083D01*
X332000Y454376D02*
Y495333D01*
X323650Y446026D02*
X332000Y454376D01*
X323650Y367850D02*
Y446026D01*
X288200Y332400D02*
X323650Y367850D01*
X288200Y291600D02*
Y332400D01*
X285900Y289300D02*
X288200Y291600D01*
X242100Y289300D02*
X285900D01*
X239300Y292100D02*
X242100Y289300D01*
X239300Y292100D02*
Y319300D01*
X243750Y323750D01*
X346600Y505100D02*
X349617Y502083D01*
X333600Y505100D02*
X346600D01*
X329600Y501100D02*
X333600Y505100D01*
X329600Y455400D02*
Y501100D01*
X321650Y447450D02*
X329600Y455400D01*
X321650Y431450D02*
Y447450D01*
X319000Y428800D02*
X321650Y431450D01*
X316000Y428800D02*
X319000D01*
X313600Y431200D02*
X316000Y428800D01*
X313600Y431200D02*
Y486300D01*
X311700Y488200D02*
X313600Y486300D01*
X299600Y488200D02*
X311700D01*
X295400Y484000D02*
X299600Y488200D01*
X295400Y377500D02*
Y484000D01*
X263750Y345850D02*
X295400Y377500D01*
X263750Y323750D02*
Y345850D01*
X360750Y502083D02*
Y536450D01*
X364000Y539700D01*
X388000D01*
X392400Y535300D01*
Y480900D02*
Y535300D01*
Y480900D02*
X399698Y473602D01*
X26500Y126800D02*
X35300Y135600D01*
X26500Y77953D02*
Y126800D01*
Y77953D02*
X41677Y62776D01*
X464200Y160000D02*
Y345000D01*
Y160000D02*
X470600Y153600D01*
X480000D01*
X484300Y149300D01*
Y146400D02*
Y149300D01*
Y146400D02*
X492100Y138600D01*
Y127700D02*
Y138600D01*
Y127700D02*
X499300Y120500D01*
Y106891D02*
Y120500D01*
X491900Y99491D02*
X499300Y106891D01*
X491900Y79000D02*
Y99491D01*
Y79000D02*
X493300Y77600D01*
X497242D01*
X498842Y76000D01*
Y49896D02*
Y76000D01*
X491400Y42454D02*
X498842Y49896D01*
X491400Y39000D02*
Y42454D01*
X55400Y497900D02*
X58900Y494400D01*
Y484991D02*
Y494400D01*
Y484991D02*
X63420Y480471D01*
Y475330D02*
Y480471D01*
Y475330D02*
X72900Y465850D01*
Y462000D02*
Y465850D01*
Y462000D02*
X75800Y459100D01*
X79950D01*
X81100Y457950D01*
Y454400D02*
Y457950D01*
X76800Y450100D02*
X81100Y454400D01*
X76800Y435109D02*
Y450100D01*
Y435109D02*
X83400Y428509D01*
Y202600D02*
Y428509D01*
X82500Y201700D02*
X83400Y202600D01*
X499800Y405200D02*
Y453300D01*
X498400Y454700D02*
X499800Y453300D01*
X498400Y454700D02*
Y483302D01*
X499823Y484724D01*
X484450Y338750D02*
X496400Y326800D01*
Y126935D02*
Y326800D01*
Y126935D02*
X501093Y122242D01*
Y96824D02*
Y122242D01*
X498000Y93731D02*
X501093Y96824D01*
X498000Y84039D02*
Y93731D01*
X496284Y82323D02*
X498000Y84039D01*
X500542Y62058D02*
X506600Y56000D01*
X500542Y62058D02*
Y78065D01*
X496284Y82323D02*
X500542Y78065D01*
X11100Y506200D02*
X47100Y542200D01*
X11100Y439600D02*
Y506200D01*
X8600Y437100D02*
X11100Y439600D01*
X8600Y229900D02*
Y437100D01*
Y229900D02*
X10100Y228400D01*
X73061Y507309D02*
X75352Y509600D01*
X73061Y496161D02*
Y507309D01*
Y496161D02*
X79165Y490058D01*
X85834D01*
X87496Y488396D01*
Y453497D02*
Y488396D01*
X80400Y446401D02*
X87496Y453497D01*
X80400Y441050D02*
Y446401D01*
Y441050D02*
X87496Y433954D01*
Y212654D02*
Y433954D01*
Y212654D02*
X91400Y208750D01*
X380900Y425000D02*
X390000Y434100D01*
Y465000D01*
X383957Y471043D02*
X390000Y465000D01*
X382898Y471043D02*
X383957D01*
X167500Y156000D02*
X169450Y154050D01*
Y118850D02*
Y154050D01*
Y118850D02*
X175200Y113100D01*
X94932Y119402D02*
X101500Y112834D01*
Y86951D02*
Y112834D01*
Y86951D02*
X102263Y86188D01*
Y53194D02*
Y86188D01*
X90622Y41553D02*
X102263Y53194D01*
X94932Y119402D02*
X98800Y123269D01*
X97700Y414348D02*
X98800D01*
X97700Y428000D02*
X115200Y445500D01*
X118469D01*
X198700Y415400D02*
Y485200D01*
X187500Y404200D02*
X198700Y415400D01*
X123700Y404200D02*
X187500D01*
X120600Y407300D02*
X123700Y404200D01*
X104100Y407300D02*
X120600D01*
X448200Y72000D02*
X449400Y70800D01*
X448200Y72000D02*
Y91400D01*
X451400Y94600D01*
X8000Y448100D02*
X8100D01*
X5200Y445300D02*
X8000Y448100D01*
X5200Y399350D02*
Y445300D01*
Y399350D02*
X6900Y397650D01*
Y111000D02*
Y397650D01*
Y111000D02*
X22500Y95400D01*
Y36168D02*
Y95400D01*
Y36168D02*
X54768Y3900D01*
X141700D01*
X144200Y6400D01*
Y30450D01*
X143000Y31650D02*
X144200Y30450D01*
X143000Y31650D02*
Y38900D01*
X146100Y42000D01*
Y60091D01*
X142970Y63220D02*
X146100Y60091D01*
X142970Y63220D02*
Y74370D01*
X145600Y77000D01*
X171000D01*
X173600Y79600D01*
X88387Y30100D02*
X92800Y25687D01*
Y16100D02*
Y25687D01*
X91100Y14400D02*
X92800Y16100D01*
X65600Y14400D02*
X91100D01*
X44800Y35200D02*
X65600Y14400D01*
X54850Y44819D02*
Y59250D01*
X74250Y35850D02*
X77097Y33003D01*
X113200Y64161D02*
X115850Y61511D01*
X54850Y59250D02*
X58300Y62700D01*
X54850Y44819D02*
X63819Y35850D01*
X74250D01*
X77097Y33003D02*
X105683D01*
X115850Y43170D01*
Y61511D01*
X113200Y64161D02*
Y65780D01*
X124600Y121400D02*
X127200Y118800D01*
Y50700D02*
Y118800D01*
X125100Y48600D02*
X127200Y50700D01*
X121800Y48600D02*
X125100D01*
X117550Y52850D02*
X121800Y48600D01*
X117550Y52850D02*
Y63200D01*
X116100Y64650D02*
X117550Y63200D01*
X116100Y64650D02*
Y67950D01*
X115050Y69000D02*
X116100Y67950D01*
X107500Y69000D02*
X115050D01*
X106300Y67800D02*
X107500Y69000D01*
X106300Y37400D02*
Y67800D01*
X103700Y34800D02*
X106300Y37400D01*
X84243Y34800D02*
X103700D01*
X61900Y57143D02*
X84243Y34800D01*
X61900Y57143D02*
Y68004D01*
X47600Y82304D02*
X61900Y68004D01*
X47600Y82304D02*
Y105873D01*
X49700Y107973D01*
Y115100D01*
X503942Y77642D02*
X506700Y80400D01*
X503942Y67556D02*
Y77642D01*
Y67556D02*
X511400Y60098D01*
Y52000D02*
Y60098D01*
Y52000D02*
X516300Y47100D01*
X521100D01*
X527150Y53150D01*
Y58700D01*
X530050Y61600D01*
X532476D01*
X538042Y67166D01*
Y112258D01*
X534200Y116100D02*
X538042Y112258D01*
X520900Y62976D02*
Y106931D01*
X516200Y58276D02*
X520900Y62976D01*
X504493Y134709D02*
X508500Y138716D01*
X504493Y112620D02*
Y134709D01*
Y112620D02*
X517402Y99711D01*
Y69898D02*
Y99711D01*
X488957Y137503D02*
X489798Y136662D01*
Y112712D02*
Y136662D01*
Y112712D02*
X494609Y107900D01*
X489400Y54505D02*
Y77700D01*
X486000Y81100D02*
X489400Y77700D01*
X486000Y81100D02*
Y94688D01*
X486439Y95126D01*
X484398Y124600D02*
X486130Y122868D01*
Y115282D02*
Y122868D01*
X484398Y113550D02*
X486130Y115282D01*
X484398Y82703D02*
Y113550D01*
X489400Y54505D02*
X491926Y51979D01*
X483839Y137200D02*
X487880Y133159D01*
Y110102D02*
Y133159D01*
X473000Y56300D02*
X482448Y65748D01*
Y115648D01*
X483200Y116400D01*
X480700Y141400D02*
X480900Y141200D01*
Y122100D02*
Y141200D01*
X480000Y121200D02*
X480900Y122100D01*
X480000Y69100D02*
Y121200D01*
X470000Y59100D02*
X480000Y69100D01*
X470000Y47200D02*
Y59100D01*
Y47200D02*
X481100Y36100D01*
X493950D01*
X496300Y38450D01*
Y42000D01*
X469000Y105413D02*
X473000Y101413D01*
Y68900D02*
Y101413D01*
X469000Y105413D02*
Y108582D01*
X463282Y114300D02*
X469000Y108582D01*
X463282Y114300D02*
Y118000D01*
X469882Y124600D01*
X474200D01*
X469643Y117638D02*
X471643D01*
X479156Y125151D01*
Y131644D01*
X473600Y137200D02*
X479156Y131644D01*
X467500Y127500D02*
Y137900D01*
X460046Y120046D02*
X467500Y127500D01*
X460046Y115131D02*
Y120046D01*
Y115131D02*
X466000Y109177D01*
Y85900D02*
Y109177D01*
X441280Y118398D02*
X446400Y113277D01*
Y69100D02*
Y113277D01*
Y69100D02*
X449700Y65800D01*
X450500D01*
X436724Y54000D02*
X441050Y58326D01*
Y108950D01*
X437900Y112100D02*
X441050Y108950D01*
X431543Y112100D02*
X437900D01*
X432831Y47600D02*
X436831D01*
X443300Y54069D01*
Y109200D01*
X438400Y114100D02*
X443300Y109200D01*
X438400Y114100D02*
Y134320D01*
X438500Y134420D01*
Y140381D01*
X437481Y141400D02*
X438500Y140381D01*
X428500Y141400D02*
X437481D01*
X429665Y61465D02*
X436100Y67900D01*
X429665Y50765D02*
Y61465D01*
Y50765D02*
X432831Y47600D01*
X406898Y107870D02*
X408898D01*
X400900Y101873D02*
X406898Y107870D01*
X400900Y61550D02*
Y101873D01*
Y61550D02*
X406200Y56250D01*
Y49700D02*
Y56250D01*
X403300Y46800D02*
X406200Y49700D01*
X399000Y59400D02*
X403300Y55100D01*
X399000Y59400D02*
Y103400D01*
X399780Y108102D01*
X403780Y112102D01*
X398661Y112061D02*
X401800Y115200D01*
X406600D01*
X411800Y110000D01*
Y93752D02*
Y110000D01*
X404000Y85952D02*
X411800Y93752D01*
X404000Y83048D02*
Y85952D01*
Y83048D02*
X405348Y81700D01*
X419750D01*
X420500Y80950D01*
Y76349D02*
Y80950D01*
X417451Y73299D02*
X420500Y76349D01*
X412950Y73299D02*
X417451D01*
X409876Y70225D02*
X412950Y73299D01*
X409876Y67724D02*
Y70225D01*
X386900Y103413D02*
X393700Y96613D01*
Y75100D02*
Y96613D01*
X389500Y70900D02*
X393700Y75100D01*
X384050Y90450D02*
X388900Y85600D01*
X384050Y90450D02*
Y105150D01*
X387900Y109000D01*
X390800D01*
X393800Y112000D01*
Y116952D01*
X37000Y478700D02*
X41000Y482700D01*
Y500950D01*
X39876Y502074D02*
X41000Y500950D01*
X30370Y502074D02*
X39876D01*
X21200Y492904D02*
X30370Y502074D01*
X21200Y429300D02*
Y492904D01*
Y429300D02*
X25600Y424900D01*
Y412739D02*
Y424900D01*
X23161Y410300D02*
X25600Y412739D01*
X23048Y441089D02*
X28739Y435398D01*
X23048Y441089D02*
Y492348D01*
X27700Y497000D01*
X30100D01*
X32300Y494800D01*
Y489324D02*
Y494800D01*
X30200Y487224D02*
X32300Y489324D01*
X13000Y494200D02*
X16000Y497200D01*
X13000Y432700D02*
Y494200D01*
Y432700D02*
X15500Y430200D01*
Y415730D02*
Y430200D01*
X10650Y410880D02*
X15500Y415730D01*
X10650Y241750D02*
Y410880D01*
Y241750D02*
X56000Y196400D01*
X64000D01*
X71100Y203500D01*
Y381698D01*
X70548Y384852D02*
X71100Y381698D01*
X60969Y394431D02*
X70548Y384852D01*
X54169Y394431D02*
X60969D01*
X41900Y406700D02*
X54169Y394431D01*
X41900Y406700D02*
Y424300D01*
X54200Y480586D02*
Y487800D01*
Y480586D02*
X59200Y475586D01*
Y468300D02*
Y475586D01*
Y468300D02*
X63800Y463700D01*
Y458600D02*
Y463700D01*
X60761Y455561D02*
X63800Y458600D01*
X60761Y452142D02*
Y455561D01*
X70707Y434750D02*
X71650Y433807D01*
X70707Y448593D02*
X78200Y456087D01*
X70707Y434750D02*
Y448593D01*
X71650Y425750D02*
Y433807D01*
Y425750D02*
X72700Y424700D01*
Y423161D02*
Y424700D01*
X73400Y410300D02*
X78400Y415300D01*
Y431105D01*
X73557Y435948D02*
X78400Y431105D01*
X73557Y435948D02*
Y439600D01*
X118000Y468327D02*
X122350Y463977D01*
Y450000D02*
Y463977D01*
X120950Y448600D02*
X122350Y450000D01*
X107100Y448600D02*
X120950D01*
X96002Y437502D02*
X107100Y448600D01*
X96002Y433398D02*
Y437502D01*
X110800Y493524D02*
X115276D01*
X125800Y483000D01*
Y426050D02*
Y483000D01*
X123550Y423800D02*
X125800Y426050D01*
X121100Y423800D02*
X123550D01*
X117400Y427500D02*
X121100Y423800D01*
X112798Y481370D02*
X117817Y476350D01*
X119302D01*
X124050Y471602D01*
Y428450D02*
Y471602D01*
X122500Y426900D02*
X124050Y428450D01*
X153100Y492600D02*
X156000Y495500D01*
X153100Y468639D02*
Y492600D01*
X138461Y454000D02*
X153100Y468639D01*
X138461Y452142D02*
Y454000D01*
X133911Y456692D02*
X135600Y458380D01*
X133911Y448679D02*
Y456692D01*
Y448679D02*
X142990Y439600D01*
X135600Y477800D02*
X144200Y486400D01*
X135600Y458380D02*
Y477800D01*
X128600Y431900D02*
X133911Y437211D01*
X128600Y422900D02*
Y431900D01*
Y422900D02*
X141200Y410300D01*
X156000Y474600D02*
X158200Y472400D01*
X163900Y454087D02*
X167000Y450987D01*
Y437268D02*
Y450987D01*
X153257Y439630D02*
X155257D01*
X147500Y439600D02*
X153257Y439630D01*
X138461Y448639D02*
X147500Y439600D01*
X136973Y448639D02*
X138461D01*
X135611Y450000D02*
X136973Y448639D01*
X135611Y450000D02*
Y454992D01*
X137600Y456980D01*
Y475383D01*
X147100Y484883D01*
Y488000D01*
X145700Y489400D02*
X147100Y488000D01*
X138600Y489400D02*
X145700D01*
X132700Y483500D02*
X138600Y489400D01*
X132700Y476900D02*
Y483500D01*
X537000Y439100D02*
Y533900D01*
X531700Y539200D02*
X537000Y533900D01*
X508000Y539200D02*
X531700D01*
X505000Y536200D02*
X508000Y539200D01*
X505000Y524150D02*
Y536200D01*
X496000Y515150D02*
X505000Y524150D01*
X477750Y515150D02*
X496000D01*
X467900Y525000D02*
X477750Y515150D01*
X430700Y525000D02*
X467900D01*
X426900Y528800D02*
X430700Y525000D01*
X421100Y528800D02*
X426900D01*
X418200Y525900D02*
X421100Y528800D01*
X418200Y450500D02*
Y525900D01*
Y450500D02*
X422900Y445800D01*
X431400Y404600D02*
Y405500D01*
X424900Y412000D02*
X431400Y405500D01*
X413961Y412000D02*
X424900D01*
X410358Y408398D02*
X413961Y412000D01*
X442100Y386200D02*
X447700Y391800D01*
Y410650D01*
X451000Y413950D01*
X454000D01*
X455600Y412350D01*
Y408000D02*
Y412350D01*
Y408000D02*
X456900Y406700D01*
X480800D01*
X488900Y414800D01*
X407300Y527400D02*
X410300Y524400D01*
X407300Y527400D02*
Y532700D01*
X411300Y536700D01*
X428700D01*
X433400Y532000D01*
Y528039D02*
Y532000D01*
X422870Y515602D02*
X424870Y513602D01*
X448398D01*
X452400Y509600D01*
X462900Y514700D02*
X474400Y503200D01*
X477650D01*
X481100Y499750D01*
X396700Y539900D02*
X401100Y544300D01*
X396700Y482600D02*
Y539900D01*
Y482600D02*
X402700Y476600D01*
Y473500D02*
Y476600D01*
Y473500D02*
X406900Y469300D01*
Y451000D02*
Y469300D01*
X405600Y449700D02*
X406900Y451000D01*
X399050Y449700D02*
X405600D01*
X395050Y445700D02*
X399050Y449700D01*
X395050Y423000D02*
Y445700D01*
Y423000D02*
X407500Y410550D01*
X413500Y393900D02*
X426639D01*
X443200Y410461D01*
Y413600D01*
X462900Y433300D01*
X481100Y500000D02*
X483100Y502000D01*
X489900D01*
X500150Y469850D02*
X504200Y473900D01*
X500150Y456350D02*
Y469850D01*
Y456350D02*
X501600Y454900D01*
Y450600D02*
X505900D01*
X504200Y400300D02*
X505900Y402000D01*
X478200Y403300D02*
X481200Y400300D01*
X507250Y73250D02*
X511000Y77000D01*
Y102793D01*
X502793Y111000D02*
X511000Y102793D01*
X502793Y111000D02*
Y141193D01*
X505900Y144300D01*
X526000D01*
X527300Y145600D01*
X504200Y473900D02*
Y487700D01*
X489900Y502000D02*
X504200Y487700D01*
X475400Y489100D02*
X486300Y478200D01*
X491400D01*
X493700Y475900D01*
Y453700D02*
Y475900D01*
X490400Y450400D02*
X493700Y453700D01*
X490400Y440800D02*
Y450400D01*
X406898Y84642D02*
X406939Y84600D01*
X421496D01*
X424500Y81596D01*
Y49200D02*
Y81596D01*
Y49200D02*
X431100Y42600D01*
X438900D01*
X452510Y56210D01*
Y59400D01*
X458650Y65540D01*
Y88750D02*
X459900Y90000D01*
X91300Y465008D02*
Y487023D01*
X84000Y494323D02*
X91300Y487023D01*
X84000Y494323D02*
Y512700D01*
X96800Y525500D01*
X122900D01*
X94100Y454413D02*
X98600Y458913D01*
X94100Y451050D02*
Y454413D01*
Y451050D02*
X95450Y449700D01*
X102600D01*
X104900Y452000D01*
Y496000D01*
X107600Y498700D01*
X118422D01*
X123222Y503500D01*
X141000D01*
X148800Y495700D01*
Y468620D02*
Y495700D01*
X143020Y462841D02*
X148800Y468620D01*
X363800Y60200D02*
X384100Y39900D01*
X358800Y110300D02*
X378800Y130300D01*
X420100Y144400D02*
X433600D01*
X420200Y6500D02*
Y51061D01*
Y6500D02*
X422200Y4500D01*
X532000D01*
X539800Y12300D01*
Y47200D01*
X377900Y454200D02*
X378600Y453500D01*
X377900Y454200D02*
Y486300D01*
X379200Y487600D01*
Y508000D01*
X378000Y509200D02*
X379200Y508000D01*
X378000Y509200D02*
Y530616D01*
X380900Y533516D01*
X420000Y415800D02*
X429600D01*
X439600Y425800D02*
Y452500D01*
X436600Y455500D02*
X439600Y452500D01*
X436600Y455500D02*
Y488627D01*
X439630Y491657D01*
X431100Y411757D02*
Y417300D01*
X19400Y405832D02*
Y435901D01*
X15943Y439357D02*
X19400Y435901D01*
X15943Y439357D02*
Y456374D01*
X19400Y504000D02*
X23950Y508550D01*
X40950D01*
X48000Y480100D02*
X51500Y476600D01*
Y454500D02*
X53600Y452400D01*
X123300Y51600D02*
Y61700D01*
X117900Y67100D02*
Y71240D01*
X481900Y43300D02*
X484700Y40500D01*
X481900Y43300D02*
Y60400D01*
X484800Y63300D01*
X123300Y42393D02*
X125300Y40393D01*
Y25843D02*
Y40393D01*
X113000Y13543D02*
X125300Y25843D01*
X52000Y81793D02*
X61425D01*
X49425Y84369D02*
X52000Y81793D01*
X49425Y84369D02*
Y99568D01*
X68280Y118423D01*
X117900Y67100D02*
X123300Y61700D01*
X116900Y72240D02*
X117900Y71240D01*
X116900Y72240D02*
Y81643D01*
X105000Y93543D02*
X116900Y81643D01*
X105000Y119200D02*
X112100Y126300D01*
X105000Y96645D02*
X108102Y93543D01*
X409842Y493516D02*
X413300Y490058D01*
X131500Y429100D02*
X154700Y405900D01*
X157450D01*
X188750Y437200D01*
X32200Y84900D02*
Y88700D01*
X35405Y91905D01*
Y97050D01*
X37622Y99267D01*
Y105922D01*
X35600Y107945D02*
X37622Y105922D01*
X35600Y107945D02*
Y113600D01*
X51200Y129200D01*
X64316D01*
X76600Y141484D01*
Y168308D01*
X85400Y177108D01*
Y431210D01*
X78700Y437910D02*
X85400Y431210D01*
X78700Y437910D02*
Y447607D01*
X82800Y451707D01*
Y460050D01*
X82000Y460850D02*
X82800Y460050D01*
X78200Y460850D02*
X82000D01*
X77000Y462050D02*
X78200Y460850D01*
X77000Y462050D02*
Y468370D01*
X67800Y477570D02*
X77000Y468370D01*
X67800Y477570D02*
Y523650D01*
X70000Y525850D01*
X78943D01*
X80993Y523800D01*
X39100Y86600D02*
X40900D01*
X47500Y80000D01*
Y48517D02*
Y80000D01*
Y48517D02*
X61867Y34150D01*
X73122D01*
X89772Y17500D01*
X66600Y79000D02*
X68700Y81100D01*
X66600Y54847D02*
Y79000D01*
Y54847D02*
X84447Y37000D01*
X93700D01*
X96071Y37729D01*
X113300Y130900D02*
X118600Y125600D01*
X108000Y130900D02*
X113300D01*
X103300Y126200D02*
X108000Y130900D01*
X103300Y92000D02*
Y126200D01*
Y92000D02*
X104100Y91200D01*
Y51000D02*
Y91200D01*
X91803Y38703D02*
X104100Y51000D01*
X87800Y38703D02*
X91803D01*
X87600Y38903D02*
X87800Y38703D01*
X87600Y38903D02*
Y44700D01*
X98400Y55500D01*
Y81500D01*
X94750Y85150D02*
X98400Y81500D01*
X94750Y85150D02*
Y113550D01*
X91200Y117100D02*
X94750Y113550D01*
X91200Y117100D02*
Y145400D01*
X89400Y147200D02*
X91200Y145400D01*
X85500Y147200D02*
X89400D01*
X84300Y146000D02*
X85500Y147200D01*
X84300Y136500D02*
Y146000D01*
X76050Y128250D02*
X84300Y136500D01*
X71000Y128250D02*
X76050D01*
X69950Y127200D02*
X71000Y128250D01*
X69950Y125823D02*
Y127200D01*
X64127Y120000D02*
X69950Y125823D01*
X49300Y120000D02*
X64127D01*
X43600Y114300D02*
X49300Y120000D01*
X43600Y93200D02*
Y114300D01*
X42900Y92500D02*
X43600Y93200D01*
X87800Y83921D02*
X91772Y79949D01*
Y60776D02*
Y79949D01*
X87800Y130046D02*
Y144200D01*
X72687Y114934D02*
X87800Y130046D01*
X67213Y114934D02*
X72687D01*
X51125Y98845D02*
X67213Y114934D01*
X51125Y89175D02*
Y98845D01*
Y89175D02*
X55400Y84900D01*
X39900Y80400D02*
X42800D01*
X35100Y85200D02*
X39900Y80400D01*
X35100Y85200D02*
Y87500D01*
X38300Y90700D01*
Y92800D01*
X41900Y96400D01*
Y116760D01*
X48112Y122973D01*
X64696D01*
X65700Y123977D01*
Y127400D01*
X68300Y130000D01*
X74617D01*
X80400Y135783D01*
Y160051D01*
X84600Y164251D01*
X458911Y32200D02*
X465711Y25400D01*
X502322D01*
X516300Y39378D01*
X427031Y37800D02*
X432031Y32800D01*
X438000D01*
X456100Y14700D01*
X518100D01*
X523400Y20000D01*
Y35900D01*
X530000Y42500D01*
X456200Y46500D02*
X462100Y40600D01*
X450000Y46500D02*
X456200D01*
X439900Y36400D02*
X450000Y46500D01*
X433200Y36400D02*
X439900D01*
X428800Y40800D02*
X433200Y36400D01*
X423600Y40800D02*
X428800D01*
X423200Y12000D02*
X423600Y40800D01*
X423200Y12000D02*
X427600Y7600D01*
X523300D01*
X534850Y19150D01*
Y57550D01*
X541200Y63900D01*
Y117379D01*
X539579Y119000D02*
X541200Y117379D01*
X533050Y119000D02*
X539579D01*
X531300Y117250D02*
X533050Y119000D01*
X531300Y109800D02*
Y117250D01*
Y109800D02*
X535100Y106000D01*
X97350Y499087D02*
X110663Y512400D01*
X110800D01*
X128700Y470100D02*
X129350Y470750D01*
X128700Y445137D02*
Y470100D01*
X79900Y463700D02*
X85550Y469350D01*
Y478352D01*
X71361Y492540D02*
X85550Y478352D01*
X71361Y492540D02*
Y510161D01*
X73700Y512500D01*
X76950D01*
X80900Y508550D01*
Y502000D02*
Y508550D01*
X69661Y520761D02*
X71300Y522400D01*
X69661Y482439D02*
Y520761D01*
Y482439D02*
X80700Y471400D01*
X501850Y457571D02*
X508900Y450521D01*
X501850Y457571D02*
Y468150D01*
X514400Y480700D01*
Y530000D01*
X439800Y508700D02*
X445600Y502900D01*
Y427231D02*
Y502900D01*
X448150Y495219D02*
X449200Y496269D01*
X448150Y452574D02*
Y495219D01*
Y452574D02*
X449200Y451524D01*
Y422005D02*
Y451524D01*
X447695Y420500D02*
X449200Y422005D01*
X440100Y420500D02*
X447695D01*
X455500Y496976D02*
Y499600D01*
X458900Y409700D02*
X467400D01*
X474000Y416300D01*
Y429550D01*
X473050Y430500D02*
X474000Y429550D01*
X473050Y430500D02*
Y464950D01*
X471400Y466600D02*
X473050Y464950D01*
X471400Y466600D02*
Y473250D01*
X474050Y475900D01*
X476576D01*
X486876Y465600D01*
X487900D01*
X405100Y474302D02*
X410358Y469043D01*
X405100Y474302D02*
Y503700D01*
X407500Y506100D01*
X425900Y92500D02*
X433543Y84857D01*
X425900Y92500D02*
Y108284D01*
X428200Y110584D01*
Y118743D01*
X422843Y124100D02*
X428200Y118743D01*
X417700Y124100D02*
X422843D01*
X511043Y118398D02*
Y122398D01*
Y118398D02*
X516541Y112900D01*
X524000D01*
X530000Y106900D01*
Y65425D02*
Y106900D01*
X502242Y91642D02*
X503000Y92400D01*
X502242Y65234D02*
Y91642D01*
Y65234D02*
X509500Y57976D01*
Y51200D02*
Y57976D01*
Y51200D02*
X519200Y41500D01*
Y37728D02*
Y41500D01*
X518000Y36528D02*
X519200Y37728D01*
X517228Y36528D02*
X518000D01*
X497300Y16600D02*
X517228Y36528D01*
X467800Y16600D02*
X497300D01*
X466786Y17614D02*
X467800Y16600D01*
X466786Y17614D02*
Y19100D01*
X453800Y32086D02*
X466786Y19100D01*
X453800Y32086D02*
Y36300D01*
X26600Y478000D02*
X30063Y481463D01*
X26600Y446659D02*
Y478000D01*
Y446659D02*
X33300Y439959D01*
Y428000D02*
Y439959D01*
X38480Y420580D02*
X39600Y421700D01*
X38480Y420580D02*
X39600Y419459D01*
Y387600D02*
Y419459D01*
X141400Y79500D02*
X150900Y89000D01*
Y149900D01*
X148800Y152000D02*
X150900Y149900D01*
X132400Y49300D02*
X136700Y45000D01*
X52150Y209650D02*
X60700Y201100D01*
X52150Y209650D02*
Y375050D01*
X39600Y387600D02*
X52150Y375050D01*
X64700Y184800D02*
X73700Y175800D01*
Y164000D02*
Y175800D01*
X238800Y432800D02*
X244000D01*
X251600Y440400D01*
Y478800D01*
X247600Y482800D02*
X251600Y478800D01*
X280188Y486800D02*
X282388Y489000D01*
X290700D01*
X291800Y487900D01*
Y445800D02*
Y487900D01*
X278800Y432800D02*
X291800Y445800D01*
X298800Y432800D02*
X301800Y435800D01*
Y481100D01*
X300100Y482800D02*
X301800Y481100D01*
X318597Y432903D02*
Y482597D01*
X318800Y482800D01*
X211000Y32500D02*
X228800Y14700D01*
X199600Y32500D02*
X211000D01*
X192000Y40100D02*
X199600Y32500D01*
X192000Y40100D02*
Y65900D01*
X212900Y86800D01*
X234000D01*
X235800Y85000D01*
Y71750D02*
Y85000D01*
X228750Y64700D02*
X235800Y71750D01*
X223800Y29600D02*
X230100Y23300D01*
X240900D01*
X245700Y28100D01*
Y33400D01*
X239700Y39400D02*
X245700Y33400D01*
X214150Y39400D02*
X239700D01*
X209600Y43950D02*
X214150Y39400D01*
X209600Y43950D02*
Y49600D01*
X212200Y52200D01*
Y73000D01*
X218800Y79600D01*
X185700Y68500D02*
X198800Y81600D01*
X185700Y58000D02*
Y68500D01*
Y58000D02*
X189700Y54000D01*
Y38650D02*
Y54000D01*
Y38650D02*
X198750Y29600D01*
X366800Y417900D02*
X368700Y419800D01*
Y467900D01*
X214000Y454850D02*
X216750Y452100D01*
X214000Y454850D02*
Y530050D01*
X218750Y534800D01*
X328800Y517900D02*
X333500Y513200D01*
X351600D01*
X354100Y510700D01*
Y463600D02*
Y510700D01*
X328750Y438250D02*
X354100Y463600D01*
X328750Y436200D02*
Y438250D01*
X352800Y452100D02*
Y459854D01*
X356000Y463054D01*
Y515550D01*
X338750Y532800D02*
X356000Y515550D01*
X363700Y531850D02*
X365350Y530200D01*
Y454100D02*
Y530200D01*
X368750Y517800D02*
X371700Y514850D01*
Y437200D02*
Y514850D01*
X312750Y45417D02*
Y172964D01*
X298100Y187614D02*
X312750Y172964D01*
X298100Y187614D02*
Y205953D01*
X295953Y208100D02*
X298100Y205953D01*
X290853Y208100D02*
X295953D01*
X289200Y209753D02*
X290853Y208100D01*
X289200Y209753D02*
Y216000D01*
X286500Y218700D02*
X289200Y216000D01*
X281878Y218700D02*
X286500D01*
X276828Y223750D02*
X281878Y218700D01*
X273750Y223750D02*
X276828D01*
X273750Y213750D02*
X279300Y208200D01*
Y195300D02*
Y208200D01*
Y195300D02*
X301800Y172800D01*
Y58450D02*
Y172800D01*
X288750Y45400D02*
X301800Y58450D01*
X223750Y213750D02*
X228664Y208836D01*
Y196036D02*
Y208836D01*
Y196036D02*
X235800Y188900D01*
Y95500D02*
Y188900D01*
Y95500D02*
X238750Y92550D01*
Y60291D02*
Y92550D01*
X243750Y46950D02*
Y203750D01*
X239100Y42300D02*
X243750Y46950D01*
X214000Y42300D02*
X239100D01*
X212400Y43900D02*
X214000Y42300D01*
X212400Y43900D02*
Y49200D01*
X213950Y50750D01*
Y63650D01*
X221800Y71500D01*
Y80900D01*
X220250Y82450D02*
X221800Y80900D01*
X217000Y82450D02*
X220250D01*
X196750Y62200D02*
X217000Y82450D01*
X196750Y60291D02*
Y62200D01*
X147802Y73400D02*
X155700Y65502D01*
Y60900D02*
Y65502D01*
Y60900D02*
X173200Y43400D01*
X186700D01*
X306700Y145400D02*
Y170400D01*
X288100Y189000D02*
X306700Y170400D01*
X288100Y189000D02*
Y208053D01*
X286753Y209400D02*
X288100Y208053D01*
X281400Y209400D02*
X286753D01*
X278200Y212600D02*
X281400Y209400D01*
X278200Y212600D02*
Y218000D01*
X277400Y218800D02*
X278200Y218000D01*
X272000Y218800D02*
X277400D01*
X269447Y221353D02*
X272000Y218800D01*
X269447Y221353D02*
Y226000D01*
X271647Y228200D01*
X289300D01*
X293750Y223750D01*
X501575Y313775D02*
X524400Y290950D01*
Y147800D02*
Y290950D01*
X498700Y163300D02*
X514200Y147800D01*
X498700Y163300D02*
Y305300D01*
X500100Y306700D01*
X502900D01*
X504600Y305000D01*
X504000Y278750D02*
X504600Y279350D01*
X508500Y162600D02*
Y250333D01*
X502083Y256750D02*
X508500Y250333D01*
X478720Y167000D02*
X479800Y168080D01*
Y201341D01*
X487209Y208750D01*
X333750Y283750D02*
X380400Y237100D01*
Y193613D02*
Y237100D01*
Y193613D02*
X386613Y187400D01*
X406533D01*
X431432Y162501D01*
X443839D01*
X396800Y152338D02*
X401280Y147858D01*
X396800Y152338D02*
Y172100D01*
X392300Y176600D02*
X396800Y172100D01*
X375200Y176600D02*
X392300D01*
X342400Y209400D02*
X375200Y176600D01*
X342400Y209400D02*
Y233047D01*
X336047Y239400D02*
X342400Y233047D01*
X331047Y239400D02*
X336047D01*
X329400Y241047D02*
X331047Y239400D01*
X329400Y241047D02*
Y246047D01*
X327347Y248100D02*
X329400Y246047D01*
X321953Y248100D02*
X327347D01*
X318100Y251953D02*
X321953Y248100D01*
X318100Y251953D02*
Y255953D01*
X315953Y258100D02*
X318100Y255953D01*
X311053Y258100D02*
X315953D01*
X309300Y259853D02*
X311053Y258100D01*
X309300Y259853D02*
Y279300D01*
X313750Y283750D01*
X391173Y162800D02*
X393602Y160370D01*
X336000Y162800D02*
X391173D01*
X308100Y190700D02*
X336000Y162800D01*
X308100Y190700D02*
Y205953D01*
X305953Y208100D02*
X308100Y205953D01*
X301053Y208100D02*
X305953D01*
X299300Y209853D02*
X301053Y208100D01*
X299300Y209853D02*
Y269300D01*
X303750Y273750D01*
X238100Y229400D02*
X243750Y223750D01*
X189641Y229400D02*
X238100D01*
X160291Y258750D02*
X189641Y229400D01*
X141750Y268750D02*
X145417D01*
X128800Y281700D02*
X141750Y268750D01*
X128800Y281700D02*
Y362100D01*
X115000Y375900D02*
X128800Y362100D01*
X110900Y375900D02*
X115000D01*
X108800Y378000D02*
X110900Y375900D01*
X108800Y378000D02*
Y395700D01*
X112800Y399700D01*
X142400Y311800D02*
X145400Y308800D01*
X142400Y311800D02*
Y363500D01*
X134300Y371600D02*
X142400Y363500D01*
X134300Y371600D02*
Y391400D01*
X142600Y399700D01*
X186900Y238800D02*
X218700D01*
X159200Y266500D02*
X186900Y238800D01*
X159200Y288550D02*
X172000Y301350D01*
Y308974D01*
X166900Y314074D02*
X172000Y308974D01*
X166900Y314074D02*
Y383580D01*
X160443Y390037D02*
X166900Y383580D01*
X160443Y390037D02*
Y390420D01*
X159000Y391863D02*
X160443Y390420D01*
X159000Y391863D02*
Y393480D01*
X152839Y399642D02*
X159000Y393480D01*
X150839Y399642D02*
X152839D01*
X218700Y238800D02*
X223750Y233750D01*
X159200Y290900D02*
X163300Y295000D01*
Y301500D01*
X145400Y319400D02*
X163300Y301500D01*
X145400Y319400D02*
Y348700D01*
X373100Y432800D02*
X381580Y441280D01*
X373100Y379700D02*
Y432800D01*
X319300Y325900D02*
X373100Y379700D01*
X319300Y309300D02*
Y325900D01*
X313750Y303750D02*
X319300Y309300D01*
X283750Y323750D02*
Y341950D01*
X318750Y376950D01*
X303750Y323750D02*
X338750Y358750D01*
X254800Y500100D02*
X256800Y502100D01*
X219900Y500100D02*
X254800D01*
X215800Y496000D02*
X219900Y500100D01*
X215800Y464400D02*
Y496000D01*
Y464400D02*
X219700Y460500D01*
Y449300D02*
Y460500D01*
X215800Y445400D02*
X219700Y449300D01*
X215800Y332800D02*
Y445400D01*
Y332800D02*
X218900Y329700D01*
Y318600D02*
Y329700D01*
Y318600D02*
X223750Y313750D01*
X228800Y318700D02*
X233750Y313750D01*
X223400Y348100D02*
Y401041D01*
X221935Y402506D02*
X223400Y401041D01*
X221935Y402506D02*
Y428241D01*
X223400Y429707D01*
Y480800D01*
X235000Y492400D01*
X263559D01*
X253750Y313750D02*
X258100Y318100D01*
Y364400D01*
X271700Y378000D01*
Y468159D01*
X288750Y485209D01*
X221600Y325900D02*
X223750Y323750D01*
X221600Y325900D02*
Y387600D01*
X220000Y389200D02*
X221600Y387600D01*
X220000Y389200D02*
Y430000D01*
X221600Y431600D01*
Y489700D01*
X229800Y497900D01*
X307900D01*
X318700Y508700D01*
X253750Y323750D02*
Y465446D01*
X279004Y490700D01*
X315200D01*
X321700Y484200D01*
X326900D01*
X327800Y485100D01*
Y504600D01*
X332000Y508800D01*
X341600D01*
X452950Y338750D02*
X461700Y330000D01*
Y154500D02*
Y330000D01*
Y154500D02*
X463800Y152400D01*
Y126895D02*
Y152400D01*
X457638Y120733D02*
X463800Y126895D01*
X457638Y114769D02*
Y120733D01*
Y114769D02*
X462900Y109507D01*
Y78600D02*
Y109507D01*
X460350Y76050D02*
X462900Y78600D01*
X460350Y65950D02*
Y76050D01*
Y65950D02*
X463900Y62400D01*
Y50800D02*
Y62400D01*
Y50800D02*
X471200Y43500D01*
Y33200D02*
Y43500D01*
X380898Y471043D02*
X382898D01*
X384200Y472346D01*
Y484513D01*
X381000Y487713D02*
X384200Y484513D01*
X381000Y487713D02*
Y511043D01*
X495300Y74100D02*
X495900Y74700D01*
X495300Y66300D02*
Y74100D01*
X505200Y513400D02*
X506200Y512400D01*
X475000Y513400D02*
X505200D01*
X465800Y522600D02*
X475000Y513400D01*
X424000Y522600D02*
X465800D01*
X419900Y518500D02*
X424000Y522600D01*
X419900Y513800D02*
Y518500D01*
Y513800D02*
X422000Y511700D01*
X441900D01*
X447700Y505900D01*
X454600D01*
X462900Y497600D01*
X97413Y10900D02*
X100913Y7400D01*
X117800D01*
X124400Y14000D01*
X95400Y56000D02*
Y76100D01*
X90600Y51200D02*
X95400Y56000D01*
X74600Y51200D02*
X90600D01*
X94400Y156100D02*
Y162100D01*
X86300Y170200D02*
X94400Y162100D01*
X82950Y170200D02*
X86300D01*
X78500Y165750D02*
X82950Y170200D01*
X78500Y138700D02*
Y165750D01*
X72800Y133000D02*
X78500Y138700D01*
X519080Y131780D02*
X525800Y138500D01*
X519080Y116102D02*
Y131780D01*
X519932Y107900D02*
X519961Y107870D01*
X511841Y107900D02*
X519932D01*
X506193Y113548D02*
X511841Y107900D01*
X506193Y113548D02*
Y123693D01*
X520600Y138100D01*
X512843Y112102D02*
X514146Y110800D01*
X522811D01*
X522900Y110711D01*
Y54629D02*
Y110711D01*
X518247Y49976D02*
X522900Y54629D01*
X426700Y77400D02*
X427400Y78100D01*
X426700Y49456D02*
Y77400D01*
Y49456D02*
X431656Y44500D01*
X438000D01*
X445500Y52000D01*
Y58900D01*
X448000Y61400D01*
X451100D01*
X455050Y65350D01*
Y91250D01*
X454898Y91402D02*
X455050Y91250D01*
X454898Y91402D02*
Y106000D01*
X453028Y107870D02*
X454898Y106000D01*
X452898Y107870D02*
X453028D01*
X443400Y120482D02*
X449780Y114102D01*
X443400Y120482D02*
Y134800D01*
X445800Y137200D01*
X433200Y60276D02*
X439300Y66376D01*
Y95250D01*
X436661Y97889D02*
X439300Y95250D01*
X436661Y97889D02*
Y107870D01*
X430166Y113478D02*
X431543Y112100D01*
X430166Y113478D02*
Y131766D01*
X435600Y137200D01*
X382300Y61200D02*
X391500Y52000D01*
X382300Y61200D02*
Y111252D01*
X391445Y120398D01*
X397898D01*
X402200Y124700D01*
X408327D01*
X408398Y124630D01*
X391500Y58300D02*
X395500Y62300D01*
Y113800D01*
X400000Y118300D01*
X402000D01*
X31298Y454142D02*
Y471167D01*
X35050Y474919D01*
X34119Y475850D02*
X35050Y474919D01*
X34119Y475850D02*
Y495243D01*
X38100Y499224D01*
X24800Y489000D02*
X29300Y493500D01*
X24800Y445036D02*
Y489000D01*
Y445036D02*
X31600Y438236D01*
Y414100D02*
Y438236D01*
Y414100D02*
X35400Y410300D01*
X28300Y472400D02*
X31300Y475400D01*
X28300Y450100D02*
Y472400D01*
Y450100D02*
X41900Y436500D01*
Y424300D02*
Y436500D01*
X58473Y500900D02*
X62700Y496673D01*
X54100Y500900D02*
X58473D01*
X52400Y499200D02*
X54100Y500900D01*
X52400Y494100D02*
Y499200D01*
Y494100D02*
X57200Y489300D01*
Y483400D02*
Y489300D01*
Y483400D02*
X61300Y479300D01*
Y473100D02*
Y479300D01*
Y473100D02*
X65500Y468900D01*
Y452200D02*
Y468900D01*
X54202Y440902D02*
X65500Y452200D01*
X54202Y437398D02*
Y440902D01*
X58602Y423900D02*
Y424791D01*
X51200Y432193D02*
X58602Y424791D01*
X51200Y432193D02*
Y442900D01*
X55900Y447600D01*
X56833D01*
X59233Y450000D01*
Y450614D01*
X60761Y452142D01*
X61161Y410339D02*
X62800Y411977D01*
Y436150D01*
X61320Y437630D02*
X62800Y436150D01*
X107950Y412688D02*
X110280Y410358D01*
X107950Y412688D02*
Y433450D01*
X110900Y436400D01*
X109000Y496700D02*
X126122D01*
X107800Y495500D02*
X109000Y496700D01*
X107800Y455139D02*
Y495500D01*
Y455139D02*
X110798Y452142D01*
X115300Y410400D02*
X117400Y412500D01*
X153257Y429757D02*
X154950D01*
X147800Y424300D02*
X153257Y429757D01*
X147800Y417905D02*
Y424300D01*
Y417905D02*
X155400Y410305D01*
X471100Y427200D02*
X471350Y427450D01*
Y463250D01*
X468850Y465750D02*
X471350Y463250D01*
X468850Y465750D02*
Y480650D01*
X460000Y489500D02*
X468850Y480650D01*
X456100Y489500D02*
X460000D01*
X455100Y488500D02*
X456100Y489500D01*
X455100Y474800D02*
Y488500D01*
X451100Y470800D02*
X455100Y474800D01*
X451100Y460800D02*
Y470800D01*
Y460800D02*
X458100Y453800D01*
X491700Y396500D02*
X496700Y391500D01*
X452100Y396500D02*
X491700D01*
X449400Y399200D02*
X452100Y396500D01*
X449400Y399200D02*
Y408300D01*
X452200Y411100D01*
X490374Y391500D02*
X493374Y388500D01*
X498100D01*
X499700Y390100D01*
Y395900D01*
X497100Y398500D02*
X499700Y395900D01*
X478657Y398500D02*
X497100D01*
X473077Y404080D02*
X478657Y398500D01*
X452374Y404080D02*
X473077D01*
X484550Y528050D02*
X494374Y518226D01*
X476225Y528050D02*
X484550D01*
X464275Y540000D02*
X476225Y528050D01*
X403000Y540000D02*
X464275D01*
X400900Y537900D02*
X403000Y540000D01*
X400900Y530800D02*
Y537900D01*
Y530800D02*
X402700Y529000D01*
Y524700D02*
Y529000D01*
X400900Y522900D02*
X402700Y524700D01*
X400900Y518500D02*
Y522900D01*
Y518500D02*
X402100Y517300D01*
X410400D01*
X452000Y454424D02*
X455524Y450900D01*
X462850D01*
X467950Y456000D01*
Y458000D01*
X456550Y469400D02*
X467950Y458000D01*
X454100Y469400D02*
X456550D01*
X44450Y447300D02*
Y471950D01*
Y447300D02*
X45950Y445800D01*
X48700D01*
X52400Y449500D01*
X56000D01*
X57350Y450850D01*
Y475012D01*
X50116Y482246D02*
X57350Y475012D01*
X50116Y482246D02*
Y504815D01*
X52706Y507405D01*
Y540106D01*
X56900Y544300D01*
X534400D02*
X538700Y540000D01*
Y425400D02*
Y540000D01*
X55100Y409200D02*
Y425100D01*
Y409200D02*
X76300Y388000D01*
Y202000D02*
Y388000D01*
X24300Y150000D02*
X76300Y202000D01*
X24300Y38100D02*
Y150000D01*
Y38100D02*
X33100Y29300D01*
X44450Y471950D02*
X47100Y474600D01*
X44450Y435750D02*
X55100Y425100D01*
X33100Y29300D02*
X45900D01*
X71000Y59205D02*
X75000Y63205D01*
Y79698D01*
X71898Y82800D02*
X75000Y79698D01*
X71898Y82800D02*
Y98102D01*
X44000Y149200D02*
X64100D01*
X39700Y144900D02*
X44000Y149200D01*
X39700Y122300D02*
Y144900D01*
X35100Y117700D02*
X39700Y122300D01*
X378800Y130300D02*
X406000D01*
X420100Y144400D01*
X433600D02*
X434800Y143200D01*
X442650D01*
X442950Y142900D01*
X456350Y145650D02*
Y320650D01*
X439200Y337800D02*
Y389000D01*
X445200Y395000D02*
Y412856D01*
X465900Y423319D02*
Y450303D01*
X469650Y454053D01*
Y459900D01*
X458600Y470950D02*
X469650Y459900D01*
X458600Y470950D02*
Y486500D01*
X414578Y77500D02*
X417600D01*
X407000Y69922D02*
X414578Y77500D01*
X403700Y39900D02*
X407900Y44100D01*
X384100Y39900D02*
X403700D01*
X363800Y60200D02*
Y110300D01*
X380900Y517300D02*
Y533516D01*
Y517300D02*
X384898Y513302D01*
Y489516D02*
Y513302D01*
X384500Y435900D02*
Y451516D01*
X377900Y429300D02*
X384500Y435900D01*
X377900Y420513D02*
Y429300D01*
Y420513D02*
X382898Y415516D01*
X384898D01*
X47856Y480241D02*
X51500Y476597D01*
X47856Y513356D02*
X49772Y515272D01*
X111000Y484300D02*
X117600D01*
X109800Y483100D02*
X111000Y484300D01*
X109800Y461200D02*
Y483100D01*
Y461200D02*
X119500Y451500D01*
X48000Y507500D02*
X49800Y509300D01*
X417900Y97200D02*
X419700Y95400D01*
X417900Y97200D02*
Y101800D01*
X410358Y451516D02*
X413300Y448574D01*
X410400Y413500D02*
X413300Y416400D01*
X410300Y529500D02*
X413300Y526500D01*
X141300Y15484D02*
Y52184D01*
X140000Y53484D02*
X141300Y52184D01*
X137374Y53484D02*
X140000D01*
X135374Y55484D02*
X137374Y53484D01*
X134200Y55484D02*
X135374D01*
X134200Y90310D02*
X134200Y55484D01*
X134200Y90310D02*
X136200D01*
X139374Y93484D01*
X134100Y132200D02*
X139400Y137500D01*
X134100Y100100D02*
Y132200D01*
Y100100D02*
X139374Y94826D01*
Y93484D02*
Y94826D01*
X191700Y452100D02*
Y472200D01*
X133500Y530400D02*
X191700Y472200D01*
X90100Y530400D02*
X133500D01*
X28300Y94221D02*
X33079Y99000D01*
X28300Y84000D02*
Y94221D01*
Y84000D02*
X30503Y81797D01*
X35203D01*
X39500Y77500D01*
X43765D01*
X45700Y75565D01*
Y47721D02*
Y75565D01*
X33079Y35100D02*
X45700Y47721D01*
X10550Y37150D02*
X30200Y17500D01*
X10550Y37150D02*
Y83853D01*
X17286Y90589D01*
X89000Y503800D02*
X90100Y502700D01*
Y499534D02*
Y502700D01*
Y499534D02*
X95608Y494026D01*
Y486642D02*
Y494026D01*
Y486642D02*
X97950Y484300D01*
X99800D01*
X101600Y482500D01*
Y457179D02*
Y482500D01*
X97000Y452579D02*
X101600Y457179D01*
X99000Y488700D02*
Y492504D01*
X117196Y510700D02*
X146600D01*
X162400Y491800D02*
Y494900D01*
X101100Y496100D02*
X115600Y510600D01*
X96100Y496100D02*
X101100D01*
X92000Y500200D02*
X96100Y496100D01*
X92000Y500200D02*
Y504900D01*
X90100Y506800D02*
X92000Y504900D01*
X87100Y506800D02*
X90100D01*
X85800Y505500D02*
X87100Y506800D01*
X85800Y496029D02*
Y505500D01*
Y496029D02*
X93300Y488529D01*
Y482300D02*
Y488529D01*
Y482300D02*
X94300Y481300D01*
Y462100D02*
Y481300D01*
X92100Y459900D02*
X94300Y462100D01*
X92100Y445100D02*
Y459900D01*
X90000Y443000D02*
X92100Y445100D01*
X83300Y443000D02*
X90000D01*
X527870Y456911D02*
Y482330D01*
X517300Y492900D02*
X527870Y482330D01*
X517300Y492900D02*
Y533450D01*
X516850Y533900D02*
X517300Y533450D01*
X508122Y533900D02*
X516850D01*
X454600Y518200D02*
X465953Y506847D01*
Y489399D02*
Y506847D01*
Y489399D02*
X485914Y469439D01*
X489309D01*
X490750Y467998D01*
Y459470D02*
Y467998D01*
X474800Y472400D02*
X475400Y473000D01*
X474800Y433200D02*
Y472400D01*
Y433200D02*
X477500Y430500D01*
X160100Y446000D02*
X164100Y442000D01*
X160100Y446000D02*
Y476825D01*
X156000Y480925D02*
X160100Y476825D01*
X141400Y123400D02*
X144500Y126500D01*
Y148900D01*
X141400Y152000D02*
X144500Y148900D01*
X132400Y49300D02*
Y150000D01*
X134400Y152000D01*
X141400D01*
D17*
X0Y0D02*
X547500D01*
Y547500D01*
X0D02*
X547500D01*
X0Y0D02*
Y547500D01*
D19*
X223750Y323750D02*
D03*
Y313750D02*
D03*
Y253750D02*
D03*
Y233750D02*
D03*
Y213750D02*
D03*
X233750Y323750D02*
D03*
Y313750D02*
D03*
Y243750D02*
D03*
Y223750D02*
D03*
X243750Y323750D02*
D03*
Y243750D02*
D03*
Y223750D02*
D03*
Y213750D02*
D03*
Y203750D02*
D03*
X253750Y323750D02*
D03*
Y313750D02*
D03*
Y303750D02*
D03*
Y203750D02*
D03*
X263750Y323750D02*
D03*
Y223750D02*
D03*
Y213750D02*
D03*
X273750Y313750D02*
D03*
Y223750D02*
D03*
Y213750D02*
D03*
X283750Y323750D02*
D03*
X293750D02*
D03*
Y223750D02*
D03*
X303750Y323750D02*
D03*
Y273750D02*
D03*
Y263750D02*
D03*
X313750Y323750D02*
D03*
Y303750D02*
D03*
Y293750D02*
D03*
Y283750D02*
D03*
Y273750D02*
D03*
Y263750D02*
D03*
X323750Y303750D02*
D03*
Y293750D02*
D03*
Y273750D02*
D03*
Y263750D02*
D03*
X333750Y283750D02*
D03*
Y273750D02*
D03*
D20*
X378700Y405700D02*
D03*
X501800Y403200D02*
D03*
X490600Y425800D02*
D03*
X496673Y434776D02*
D03*
X527100Y429200D02*
D03*
X404083Y278750D02*
D03*
X93000Y234800D02*
D03*
X91400Y346700D02*
D03*
X164230Y436070D02*
D03*
X296030Y13270D02*
D03*
X341830Y13070D02*
D03*
X244400Y416350D02*
D03*
X248000Y467900D02*
D03*
X288800Y417900D02*
D03*
X288700Y467900D02*
D03*
X308800Y417900D02*
D03*
Y467900D02*
D03*
X238750Y29600D02*
D03*
X232850Y83500D02*
D03*
X358750Y434200D02*
D03*
X360800Y482800D02*
D03*
X348750Y517900D02*
D03*
X350400Y437200D02*
D03*
X298750Y60291D02*
D03*
X278750D02*
D03*
X258750D02*
D03*
X216100Y45400D02*
D03*
X501575Y303725D02*
D03*
X519300Y147800D02*
D03*
X504025Y286175D02*
D03*
X487200Y168800D02*
D03*
Y237800D02*
D03*
X483839Y162000D02*
D03*
X484300Y231700D02*
D03*
X487209Y208750D02*
D03*
X485209Y192750D02*
D03*
X473602Y161000D02*
D03*
X448900Y167700D02*
D03*
X384300Y320350D02*
D03*
X446398Y145800D02*
D03*
X410000Y308750D02*
D03*
X439300Y147800D02*
D03*
X387200Y288800D02*
D03*
X438720Y170580D02*
D03*
X434200Y147800D02*
D03*
X387200Y268800D02*
D03*
Y259400D02*
D03*
X433602Y169898D02*
D03*
X410957Y160400D02*
D03*
X409600Y168800D02*
D03*
X387209Y226750D02*
D03*
Y208750D02*
D03*
X396161Y147858D02*
D03*
X382084Y166700D02*
D03*
X39417Y228750D02*
D03*
X20602Y399700D02*
D03*
X41450Y238750D02*
D03*
X23161Y387100D02*
D03*
X25720Y400600D02*
D03*
X42500Y263000D02*
D03*
X50650Y385550D02*
D03*
X60300Y310900D02*
D03*
X60291Y318750D02*
D03*
X58200Y383700D02*
D03*
X145417Y248750D02*
D03*
X105791Y403900D02*
D03*
X115130Y383100D02*
D03*
X136700Y278750D02*
D03*
X162300D02*
D03*
X123100Y382900D02*
D03*
X140500Y299150D02*
D03*
X164550Y305000D02*
D03*
X138043Y382900D02*
D03*
X160291Y298750D02*
D03*
X171959Y318750D02*
D03*
X143161Y386700D02*
D03*
X160300Y318800D02*
D03*
X158516Y384898D02*
D03*
X330200Y385750D02*
D03*
X346000Y361500D02*
D03*
X233500Y482100D02*
D03*
X256800Y502100D02*
D03*
X306750Y485209D02*
D03*
X324750Y487209D02*
D03*
X338750Y502083D02*
D03*
X349617Y502083D02*
D03*
X360750Y502083D02*
D03*
X399698Y473602D02*
D03*
X35300Y135600D02*
D03*
X41677Y62776D02*
D03*
X464200Y345000D02*
D03*
X491400Y39000D02*
D03*
X82500Y201700D02*
D03*
X499823Y484724D02*
D03*
X484450Y338750D02*
D03*
X496284Y82323D02*
D03*
X506600Y56000D02*
D03*
X47100Y542200D02*
D03*
X10100Y228400D02*
D03*
X75352Y509600D02*
D03*
X91400Y208750D02*
D03*
X380900Y425000D02*
D03*
X167500Y156000D02*
D03*
X175200Y113100D02*
D03*
X90622Y41553D02*
D03*
X94932Y119402D02*
D03*
X118469Y445500D02*
D03*
X198700Y485200D02*
D03*
X449400Y70800D02*
D03*
X451400Y94600D02*
D03*
X8100Y448100D02*
D03*
X173600Y79600D02*
D03*
X97413Y10900D02*
D03*
X88387Y30100D02*
D03*
X44800Y35200D02*
D03*
X58300Y62700D02*
D03*
X113200Y65780D02*
D03*
X124600Y121400D02*
D03*
X49700Y115100D02*
D03*
X506700Y80400D02*
D03*
X534200Y116100D02*
D03*
X516200Y58276D02*
D03*
X508500Y138716D02*
D03*
X517402Y69898D02*
D03*
X488957Y137503D02*
D03*
X494609Y107900D02*
D03*
X491926Y51979D02*
D03*
X486439Y95126D02*
D03*
X484398Y124600D02*
D03*
X483839Y137200D02*
D03*
X487880Y110102D02*
D03*
X473000Y56300D02*
D03*
X483200Y116400D02*
D03*
X480700Y141400D02*
D03*
X496300Y42000D02*
D03*
X469000Y105413D02*
D03*
X473000Y68900D02*
D03*
X474200Y124600D02*
D03*
X469643Y117638D02*
D03*
X473600Y137200D02*
D03*
X467500Y137900D02*
D03*
X466000Y85900D02*
D03*
X449780Y114102D02*
D03*
X441280Y118398D02*
D03*
X450500Y65800D02*
D03*
X436724Y54000D02*
D03*
X431543Y112100D02*
D03*
X432831Y47600D02*
D03*
X428500Y141400D02*
D03*
X436100Y67900D02*
D03*
X403300Y46800D02*
D03*
X408898Y107870D02*
D03*
X408398Y124630D02*
D03*
X403300Y55100D02*
D03*
X409876Y67724D02*
D03*
X389500Y70900D02*
D03*
X386900Y103413D02*
D03*
X388900Y85600D02*
D03*
X393800Y116952D02*
D03*
X37000Y478700D02*
D03*
X28739Y435398D02*
D03*
X30200Y487224D02*
D03*
X31298Y454142D02*
D03*
X16000Y497200D02*
D03*
X54200Y487800D02*
D03*
X78200Y456087D02*
D03*
X72700Y423161D02*
D03*
X73400Y410300D02*
D03*
X73557Y439600D02*
D03*
X118000Y468327D02*
D03*
X96002Y433398D02*
D03*
X110800Y493524D02*
D03*
X112798Y481370D02*
D03*
X122500Y426900D02*
D03*
X156000Y495500D02*
D03*
X138461Y452142D02*
D03*
X144200Y486400D02*
D03*
X142990Y439600D02*
D03*
X141200Y410300D02*
D03*
X156000Y474600D02*
D03*
X163900Y454087D02*
D03*
X155257Y439630D02*
D03*
X132700Y476900D02*
D03*
X422900Y445800D02*
D03*
X431400Y404600D02*
D03*
X410358Y408398D02*
D03*
X442100Y386200D02*
D03*
X488900Y414800D02*
D03*
X410300Y524400D02*
D03*
X433400Y528039D02*
D03*
X422870Y515602D02*
D03*
X452400Y509600D02*
D03*
X462900Y514700D02*
D03*
X478200Y403300D02*
D03*
X462900Y433300D02*
D03*
X507250Y73250D02*
D03*
X481100Y492700D02*
D03*
X475400Y489100D02*
D03*
Y411200D02*
D03*
X459900Y90000D02*
D03*
X91300Y465008D02*
D03*
X122900Y525500D02*
D03*
X143020Y462841D02*
D03*
X98600Y458913D02*
D03*
X48100Y165200D02*
D03*
X70100Y143200D02*
D03*
X363800Y110300D02*
D03*
X468850Y418982D02*
D03*
X404000Y67261D02*
D03*
X539800Y47200D02*
D03*
X41600Y460100D02*
D03*
X98300Y481400D02*
D03*
X54500Y462600D02*
D03*
X378600Y453500D02*
D03*
X380900Y533516D02*
D03*
X420000Y415800D02*
D03*
X439600Y452500D02*
D03*
X439630Y491657D02*
D03*
X431100Y411757D02*
D03*
X19400Y405832D02*
D03*
X119500Y451500D02*
D03*
X53600Y452400D02*
D03*
X484700Y40500D02*
D03*
X112100Y126300D02*
D03*
X484800Y63300D02*
D03*
X113000Y13543D02*
D03*
X123300Y42393D02*
D03*
X61425Y81793D02*
D03*
X123300Y51600D02*
D03*
X108102Y93543D02*
D03*
X409842Y493516D02*
D03*
X188750Y437200D02*
D03*
X131500Y429100D02*
D03*
X32200Y84900D02*
D03*
X80993Y523800D02*
D03*
X89772Y17500D02*
D03*
X39100Y86600D02*
D03*
X68700Y81100D02*
D03*
X96071Y37729D02*
D03*
X118600Y125600D02*
D03*
X42900Y92500D02*
D03*
X87800Y144200D02*
D03*
X91772Y60776D02*
D03*
X55400Y84900D02*
D03*
X42800Y80400D02*
D03*
X84600Y164251D02*
D03*
X516300Y39378D02*
D03*
X427031Y37800D02*
D03*
X530000Y42500D02*
D03*
X462100Y40600D02*
D03*
X535100Y106000D02*
D03*
X97350Y499087D02*
D03*
X110800Y512400D02*
D03*
X129350Y470750D02*
D03*
X79900Y463700D02*
D03*
X80900Y502000D02*
D03*
X80700Y471400D02*
D03*
X508900Y450521D02*
D03*
X514400Y530000D02*
D03*
X490750Y459470D02*
D03*
X445600Y427231D02*
D03*
X439800Y508700D02*
D03*
X449200Y496269D02*
D03*
X440100Y420500D02*
D03*
X455500Y499600D02*
D03*
X458900Y409700D02*
D03*
X487900Y465600D02*
D03*
X410358Y469043D02*
D03*
X407500Y506100D02*
D03*
X453800Y36300D02*
D03*
X417700Y124100D02*
D03*
X433543Y84857D02*
D03*
X530000Y65425D02*
D03*
X164100Y442000D02*
D03*
X30063Y481463D02*
D03*
X141400Y79500D02*
D03*
X136700Y45000D02*
D03*
X60700Y201100D02*
D03*
X64700Y184800D02*
D03*
X73700Y164000D02*
D03*
X238800Y432800D02*
D03*
X247600Y482800D02*
D03*
X280188Y486800D02*
D03*
X278800Y432800D02*
D03*
X298800D02*
D03*
X300100Y482800D02*
D03*
X318597Y432903D02*
D03*
X318800Y482800D02*
D03*
X228800Y14700D02*
D03*
X228750Y64700D02*
D03*
X223800Y29600D02*
D03*
X218800Y79600D02*
D03*
X198800Y81600D02*
D03*
X198750Y29600D02*
D03*
X366800Y417900D02*
D03*
X368700Y467900D02*
D03*
X216750Y452100D02*
D03*
X218750Y534800D02*
D03*
X328800Y517900D02*
D03*
X328750Y436200D02*
D03*
X352800Y452100D02*
D03*
X338750Y532800D02*
D03*
X363700Y531850D02*
D03*
X365350Y454100D02*
D03*
X368750Y517800D02*
D03*
X371700Y437200D02*
D03*
X312750Y45417D02*
D03*
X288750Y45400D02*
D03*
X238750Y60291D02*
D03*
X196750D02*
D03*
X147802Y73400D02*
D03*
X186700Y43400D02*
D03*
X306700Y145400D02*
D03*
X524400Y147800D02*
D03*
X501575Y313775D02*
D03*
X514200Y147800D02*
D03*
X504000Y278750D02*
D03*
X508500Y162600D02*
D03*
X502083Y256750D02*
D03*
X478720Y167000D02*
D03*
X443839Y162501D02*
D03*
X401280Y147858D02*
D03*
X393602Y160370D02*
D03*
X160291Y258750D02*
D03*
X145417Y268750D02*
D03*
X112800Y399700D02*
D03*
X145400Y308800D02*
D03*
X142600Y399700D02*
D03*
X150839Y399642D02*
D03*
X145400Y348700D02*
D03*
X381580Y441280D02*
D03*
X318750Y376950D02*
D03*
X399700Y403800D02*
D03*
X338750Y358750D02*
D03*
X268750Y487209D02*
D03*
X288750Y485209D02*
D03*
X318700Y508700D02*
D03*
X341600Y508800D02*
D03*
X55400Y497900D02*
D03*
X452950Y338750D02*
D03*
X471200Y33200D02*
D03*
X380898Y471043D02*
D03*
X381000Y511043D02*
D03*
X495900Y74700D02*
D03*
X495300Y66300D02*
D03*
X506200Y512400D02*
D03*
X462900Y497600D02*
D03*
X124400Y14000D02*
D03*
X95400Y76100D02*
D03*
X74600Y51200D02*
D03*
X94400Y156100D02*
D03*
X72800Y133000D02*
D03*
X525800Y138500D02*
D03*
X519080Y116102D02*
D03*
X519961Y107870D02*
D03*
X520600Y138100D02*
D03*
X518247Y49976D02*
D03*
X512843Y112102D02*
D03*
X427400Y78100D02*
D03*
X452898Y107870D02*
D03*
X445800Y137200D02*
D03*
X433200Y60276D02*
D03*
X436661Y107870D02*
D03*
X435600Y137200D02*
D03*
X391500Y52000D02*
D03*
X403780Y112102D02*
D03*
X391500Y58300D02*
D03*
X402000Y118300D02*
D03*
X398661Y112061D02*
D03*
X23161Y410300D02*
D03*
X38100Y499224D02*
D03*
X29300Y493500D02*
D03*
X35400Y410300D02*
D03*
X31300Y475400D02*
D03*
X41900Y424300D02*
D03*
X62700Y496673D02*
D03*
X54202Y437398D02*
D03*
X58602Y423900D02*
D03*
X60761Y452142D02*
D03*
X61161Y410339D02*
D03*
X61320Y437630D02*
D03*
X110280Y410358D02*
D03*
X110900Y436400D02*
D03*
X126122Y496700D02*
D03*
X110798Y452142D02*
D03*
X115300Y410400D02*
D03*
X117400Y437600D02*
D03*
X154950Y429757D02*
D03*
X155400Y410305D02*
D03*
X471100Y427200D02*
D03*
X458100Y453800D02*
D03*
X496700Y391500D02*
D03*
X452200Y411100D02*
D03*
X490374Y391500D02*
D03*
X452374Y404080D02*
D03*
X494374Y518226D02*
D03*
X410400Y517300D02*
D03*
X452000Y454424D02*
D03*
X454100Y469400D02*
D03*
X47100Y474600D02*
D03*
X45900Y29300D02*
D03*
X406898Y84642D02*
D03*
X457900Y83050D02*
D03*
X71000Y59205D02*
D03*
X71898Y98102D02*
D03*
X35100Y117700D02*
D03*
X358800Y110300D02*
D03*
X458600Y486500D02*
D03*
X417600Y77500D02*
D03*
X384898Y489516D02*
D03*
X384500Y451516D02*
D03*
X384898Y415516D02*
D03*
X15943Y456374D02*
D03*
X49772Y515272D02*
D03*
X117600Y484300D02*
D03*
X49800Y509300D02*
D03*
X419700Y95400D02*
D03*
X417900Y101800D02*
D03*
X68280Y118423D02*
D03*
X410400Y413500D02*
D03*
X410358Y451516D02*
D03*
X410300Y529500D02*
D03*
X141300Y15484D02*
D03*
X137374Y53484D02*
D03*
X139400Y137500D02*
D03*
X139374Y93484D02*
D03*
X191700Y452100D02*
D03*
X90100Y530400D02*
D03*
X33079Y35100D02*
D03*
Y99000D02*
D03*
X30200Y17500D02*
D03*
X17286Y90589D02*
D03*
X458911Y32200D02*
D03*
X89000Y503800D02*
D03*
X97000Y452579D02*
D03*
X128700Y445137D02*
D03*
X99000Y488700D02*
D03*
X162400Y491800D02*
D03*
X83300Y443000D02*
D03*
X71300Y522400D02*
D03*
X527870Y456911D02*
D03*
X508122Y533900D02*
D03*
X454600Y518200D02*
D03*
X477500Y430500D02*
D03*
X475400Y473000D02*
D03*
X511043Y122398D02*
D03*
X503000Y92400D02*
D03*
X35957Y423102D02*
D03*
X156000Y480925D02*
D03*
X141400Y123400D02*
D03*
Y152000D02*
D03*
M02*
