M48
;Layer_Color=9474304
;FILE_FORMAT=2:5
INCH,LZ
;TYPE=PLATED
T1F00S00C0.01500
T2F00S00C0.03543
%
T01
X0464589Y00114
X0097413Y00109
X0089772Y00175
X0088387Y00301
X0090622Y0041553
X0096071Y0037729
X01079Y0030898
X010787Y0018661
X0070874Y00175
X00697Y00292
X0063425Y00313
X00571Y0031326
X00459Y00293
X00448Y00352
X0050276Y00403
X00686Y00388
X00744
X00746Y00512
X0071Y0059205
X00583Y00627
X00504Y00624
X0041677Y0062776
X0042528Y00745
X00428Y00804
X00391Y00866
X00322Y00849
Y00931
X0033079Y0099
X00429Y00925
X00554Y00951
X00611Y00961
X00612Y00894
X0061425Y0081793
X00614Y00758
X00697Y00745
X00687Y00811
X007725Y00855
X0079173Y00781
X00861Y00791
X00919Y00851
X0099413Y00847
X00954Y00761
X0109718Y0075768
X011187Y0058661
X0091772Y0060776
X0086622Y00627
X00875Y005605
X00577Y00532
X00554Y00849
X00551Y01108
X0046827
X00497Y01151
X0038472Y0110772
X00351Y01177
X00322Y01243
X00353Y01356
X003173Y014137
X0052024Y0144247
X0058276Y0144276
X0063898Y0138102
X00701Y01432
X00728Y0133
Y01254
X0062724Y01263
X006828Y0118423
X00672Y01107
X0071898Y0098102
X00823Y00902
X0084642Y0112898
X0080323Y0118423
X0094932Y0119402
X0095358Y0132102
X0095358Y014322
X00878Y01442
X0083348Y01582
X00846Y0164251
X00737Y0164
X00677Y0156
X00491
X00481Y01652
X0048827Y01351
X00198Y011775
Y01077
X0017286Y0090589
X001963Y008547
X0016343Y00784
X00333Y0075793
X0033079Y00351
X00302Y00175
X0049976
X0108102Y0093543
X010787Y0102661
Y0110898
X01121Y01263
X010787Y0142661
X010987Y0152898
X00944Y01561
X01167Y01559
X011885Y0148339
X011638Y014078
X0115188Y0135543
X01224Y0136043
X01246Y01419
X01372Y01423
Y01488
X01414Y0152
X0137443Y0155957
X01478Y01554
Y014828
Y01432
X0147858Y0138043
X01476Y01299
X01479Y01205
X01478Y01154
Y01083
X0138959Y01077
X01371Y01023
X0144218Y0102193
X01478Y00972
X0139374Y0093484
X01414Y00795
X01479Y00805
X0147802Y00734
X014782Y00683
X0147495Y0063161
X01431Y0056043
X0137374Y0053484
X01371Y00613
X01383Y006682
X01391Y00742
X01203Y00732
X011387Y0072898
X01132Y006578
X0123961Y00652
X01204Y0058
X01233Y00516
Y0042393
X01224Y0036516
Y00303
X0114116Y0031398
X01141Y00235
X0113Y0013543
X01244Y0014
X01246Y00207
X01371Y0019002
X01413Y0015484
X01478Y0018
X0147839Y0023161
X01459Y00344
X01478Y00394
X0151Y00483
X01367Y0045
X0137142Y0028839
X01604Y00328
X01636Y00227
X01697Y0024602
X019875Y00296
X02067Y00454
X02161
X022875
Y00647
X02223Y00603
X02168Y00608
X020875Y00647
X019675Y0060291
X01887Y00647
X0176975Y00623
X0166462Y006572
X01604Y0060602
Y0070839
X01718Y00741
X01736Y00796
X01988Y00816
X02188Y00796
X023285Y00835
X02555Y00795
X02487Y00647
X023875Y0060291
X025875
X02654Y00614
X024875Y00454
X023875Y00296
X02238
X02288Y00147
X0213Y00126
X01867Y00434
X01888Y01147
X01808Y01123
X01752Y01131
X017228Y010572
X01604Y0100602
Y01128
X01372Y0114
X01414Y01234
X01394Y01375
X01604Y01406
X016037Y0152839
X01675Y0156
X01709Y01625
X01727Y014922
X01666Y01335
X0147858Y0162516
X01242Y0159
X0115032Y0166248
X01186Y01256
X01246Y01214
X012463Y0115398
X01164Y01165
X0114102Y010778
X01184Y01026
X0124161Y0103161
X0118459Y0096043
X01164Y00885
X01243Y00834
X019875Y01103
X02088Y01147
X02188Y01103
X02288Y01147
X02388Y01103
X02488Y01147
X02588Y01103
X025635Y01405
X02488Y01454
X023875
X02287
X020875Y01434
X02187Y01603
X01987
X019103Y016367
X023875Y016035
X025875Y0160291
X02788Y01603
X027875Y0145
X028875Y01454
Y01336
X029675Y01388
X030675Y01378
X03067Y01454
X031875Y0138
X0324602Y01425
X03288Y01147
X03387Y01103
X03188
X03088Y01147
X02988Y01103
X02888Y01147
X02788Y01103
X02688Y01147
X026875Y01445
X02788Y00796
X02948
X028875Y00647
X029875Y0060291
X030875Y00629
X031875Y00618
X032875Y00636
Y00454
X031275Y0045417
X028875Y00454
X026875
X027875Y0060291
X03221Y00796
X03383
X034875
X035875Y0083
X03762Y008
X03889Y00856
Y00951
X03869Y0103413
X0389543Y0112102
X03938Y0116952
X0402Y01183
X040378Y0112102
X0398661Y0112061
X0408898Y010787
X04179Y01018
X04197Y00954
X04156Y00913
X04043Y00953
X0406898Y0084642
X04176Y00775
X04157Y00701
X0409876Y0067724
X0404Y0067261
X04033Y00551
Y00468
X0391523Y004425
X03915Y0052
Y00583
Y0064575
X03895Y00709
X03772Y01
X03638Y01103
X03588
X0387043Y0122398
X0396161Y01246
X0408398Y012463
X0411516Y0120398
X04177Y01241
X0411516Y01478
X040128Y0147858
X0396161Y0147858
X0391Y01478
X03916Y01372
X03987Y01414
X0405
X0410957Y01604
X0393602Y016037
X0382084Y01667
X03797Y015
X034183Y001307
X029603Y001327
X04315Y00228
X04348Y00271
X0434776Y0039378
X0427031Y00378
X0432831Y00476
X0436724Y0054
X04332Y0060276
X04361Y00679
X043017Y0068874
X04274Y00781
X0433543Y0084857
X043535Y009275
X04291Y00964
X0431543Y01121
X04331Y01184
X04342Y01242
X04464Y01243
X0451516Y0122398
X044978Y0114102
X0452898Y010787
X04578Y01027
X0469Y0105413
X0476761Y010787
X0477043Y0118398
X04832Y01164
X0484398Y01246
X04742
X0469643Y0117638
X04675Y01379
X04736Y01372
X0483839
X0488957Y0137503
X04884Y01478
X0493516Y0147858
X04813Y01478
X0476161
X0469043Y0147858
X0460832Y01466
X04535Y01478
X0446398Y01458
X04393Y01478
X04342
X0429043Y0147858
X04285Y01414
X04356Y01372
X04458
X044128Y0118398
X0436661Y010787
X04253Y01154
X04514Y00946
X045215Y0086007
X04579Y008305
X04599Y009
X0466Y00859
X04652Y00714
X0473Y00689
X047Y00649
X0473Y00563
X04671Y00554
X04609Y00567
X0456Y0057976
X04485Y00566
X04505Y00658
X04494Y00708
X044869Y003999
X04538Y00363
X04554Y00429
X04621Y00406
X0468Y00409
X04712Y00332
X0458911Y00322
X04635Y00176
X04697Y00196
X04808Y00225
X04863Y00325
X04847Y00405
X04914Y0039
X04963Y0042
X0491926Y0051979
X0487977Y0048827
X04848Y00551
Y00633
X04924Y00602
X04953Y00663
X04959Y00747
X0496284Y0082323
X0488998Y0084642
X0486439Y0095126
X04951Y00921
X0503Y00924
X0514Y00934
X05081Y01009
X04968Y00998
X0494609Y01079
X048788Y0110102
X0493516Y01204
X0511043Y0122398
X0516161Y0122639
X05233Y01244
X0529Y01206
X05342Y01161
X05351Y0106
X05343Y0096057
X0519961Y010787
X051908Y0116102
X0512843Y0112102
X0513602Y0138102
X05085Y0138716
X0509Y0147843
X05142Y01478
X05193
X05244
X0530916Y0147816
X05258Y01385
X05206Y01381
X0499616Y01354
X04807Y01414
X0483839Y0162
X047872Y0167
X0473602Y0161
X0468484Y01646
X04489Y01677
X0443839Y0162501
X05085Y01626
X0513602Y01604
X05145Y0166662
X05408Y01282
X053Y0065425
X0532Y00587
Y00528
X053Y00425
Y00342
X05182Y0033079
X05163Y0039378
X0518247Y0049976
X05162Y0058276
X05066Y0056
X05096Y0066348
X050725Y007325
X05067Y00804
X0517402Y0069898
X05398Y00472
X05347Y01787
X05179Y01888
Y02087
X05328Y0209
Y021875
Y023875
Y025875
Y02788
Y02988
Y03168
X05179Y03088
Y028875
X0504025Y0286175
X0504Y027875
X05179Y02688
Y02488
X05021Y02458
X0502083Y025675
X05021Y023475
Y02275
Y02188
X0502083Y019475
Y017875
X0486
X04872Y01688
X0485209Y019275
X0487209Y020875
X04679Y02087
X04672Y01888
X04328Y019875
Y021875
Y023875
Y025875
Y027875
Y02988
Y03188
X04679Y03088
X048285Y031875
X04872Y03229
Y03021
X04828Y029875
X0501575Y0303725
Y0313775
X048425Y02745
X04872Y02686
Y02378
X04843Y02317
X04823Y02238
X05179Y02288
X04328Y017875
X0433602Y0169898
X043872Y017058
X04096Y01688
X04179Y018875
Y020875
Y022875
Y024875
Y026875
Y02888
Y030875
X041
X04031Y03127
X04041Y02988
X0404083Y027875
X03872Y02688
Y02594
Y02888
X0376Y028875
X03872Y03088
X03843Y032035
X03667Y03204
X0387209Y022675
Y020875
X02127Y01884
X022275Y017465
X022875Y01713
X011588Y01726
X01147Y022875
Y024875
X01143Y02588
X01127Y026875
X01147Y028875
X01367Y027875
X0145417Y026875
Y024875
X013873Y024377
X01603Y02388
Y022875
Y02188
X0160291Y025875
X01623Y027875
X0160291Y029875
X016455Y0305
X01603Y03188
X0171959Y031875
X01454Y03088
X01405Y029915
X01103Y02988
X01107Y030875
X01103Y03188
Y02788
X00796
Y02987
X00647Y03047
X00603Y03109
X0060291Y031875
X00414Y03158
X00296Y031875
Y029875
X00318Y028875
X00296Y027875
Y025875
X00425Y0263
X0045417Y026875
Y028875
X00647Y028675
X0060291Y027675
X006295Y02647
X0045417Y024875
X004145Y023875
X00463Y023335
X0039417Y022875
X00296Y021875
Y023875
X00147Y024875
Y02659
Y02255
X00101Y02284
X00624Y022875
X006525Y02237
X00607Y02011
X00647Y01848
X0061425Y0172175
X00767Y01726
X00825Y02017
X00914Y020875
X0110291Y020075
X01103Y02188
Y02388
X0093Y02348
X00147Y03114
Y03286
X00296Y033875
Y034875
Y035675
X00454Y03532
X0045417Y036475
X0064291Y035875
X0063441Y03419
X00434Y03349
X0045417Y032875
X005065Y038555
X00582Y03837
X00663Y03829
X0073398Y03858
X0080516Y0386284
X0075957Y0403874
X00734Y04103
X0061161Y0410339
X006572Y04029
X00708Y03997
X00727Y0423161
X00657Y04231
X0058602Y04239
X00579Y04321
X006132Y043763
X00664Y04354
X00686Y04297
X00745Y04286
X0073557Y04396
X00833Y0443
X0089Y0449729
X0097Y0452579
X00986Y0458913
X00913Y0465008
X00799Y04637
X00807Y04714
X00782Y0456087
X0060761Y0452142
X00536Y04524
X00482Y045
Y04568
X00416Y04601
Y0466
X00473Y04667
X00471Y04746
X0037Y04787
X00313Y04754
X00344Y04624
X0036822Y0454878
X0031298Y0454142
X00402Y04462
X0028739Y0435398
X00257Y0429098
X00226Y04229
X00115Y04211
X0012502Y0427398
X00081Y04481
X00055Y0455508
X0015943Y0456374
X00545Y04626
X00608Y0460913
X0054202Y0437398
X00515Y0421
X00448Y04149
X00419Y04243
X0035957Y0423102
X00354Y04103
X002828Y04083
X0023161Y04103
X00194Y0405832
X0020602Y03997
X002572Y04006
X0034Y0401
Y03865
X0023161Y03871
X00147Y03703
X004885Y040545
X0093484Y0403874
X0105791Y04039
X01052Y04103
X011028Y0410358
X0111107Y04229
X01045Y04271
X01006Y0423898
X0091484Y0423102
X0096002Y0433398
X010312Y043763
X01109Y04364
X0110798Y0452142
X011228Y0378898
X01103Y03588
Y03388
X00914Y03467
X01147Y034875
Y03688
X011513Y03831
X01231Y03829
X0138043
X0143161Y03867
X01426Y03997
X0135484Y03999
X0150839Y0399642
X016Y03999
X01554Y0410305
X01412Y04103
X01426Y04229
X01469Y04288
X015495Y0429757
X01521Y04354
X0155257Y043963
X01641Y0442
X016423Y043607
X01639Y0454087
X01442Y04557
X014302Y0462841
X0138461Y0452142
X01287Y0445137
X0118469Y04455
X01195Y04515
X01174Y04376
X0113957Y0427102
X01225Y04269
X01315Y04291
X0139902Y0435398
X014299Y04396
X0158Y0422884
X0158516Y0384898
X01861Y03857
X021875Y03863
X02361Y03852
X02409Y03784
X024875Y0387209
X02451Y04021
X025875
Y04087
X02444Y041635
X02388Y04328
X02425Y04373
X022875Y04372
X021675Y04521
X01917
X018875Y04582
Y04648
Y04372
X01704Y04798
X0156Y0480925
Y04746
X01327Y04769
X012935Y047075
X0118Y0468327
X01153Y04104
X01128Y03997
X0126293Y040735
X014345Y036875
X01454Y03487
X01127Y032875
X022575Y0407
X0242168Y045205
X02587Y04521
X02668Y04372
X0248Y04679
X02268
X026875
X02887
X03088
X03267Y04659
X03218Y04521
X0318597Y0432903
X031075Y04372
X02988Y04328
X02888Y04372
X02788Y04328
X027875Y04149
X02888Y04179
X028875Y04075
X02888Y03872
X031425
X031875Y037695
X03302Y038575
X034875Y03872
X033875Y04022
X03208Y04021
X03149Y0408
X03088Y04179
X032875Y04362
X03504Y04372
X035875Y04342
X03717Y04372
X038158Y044128
X0377Y04464
X03786Y04535
X03845Y0451516
X04039Y0453
X0410358Y0451516
X04103Y04464
X04084Y04393
X04103Y04342
X0410358Y0427043
X04104Y04135
X0410358Y0408398
X0402943Y040925
X03997Y04038
X04007Y03939
X0407Y03997
X0410358Y038685
X04049Y0375
X0392Y03813
X03829Y03993
X03787Y04057
X03871Y04064
X0384898Y0415516
X03809Y0425
X03984Y04245
X03997Y04336
X040188Y043872
X03997Y04458
X04019Y04665
X0399698Y0473602
X04103Y04742
X0410358Y0469043
X04229Y04736
Y04458
Y04316
X042Y04158
X04231Y0408957
X04229Y0403839
X0424202Y03907
X04179Y032875
X0346Y03615
X033875Y035875
X03668Y04179
X036535Y04541
X03528Y04521
X03475Y04667
X03687Y04679
X0380898Y0471043
X03871Y04742
X02988Y04521
X02788
X026875Y04054
X04314Y04046
X04311Y0411757
X04333Y0396402
X04251Y03968
X04271Y03841
X04421Y03862
X043963Y039952
X0452374Y040408
X04522Y04111
X04589Y04097
X04754Y04112
X04782Y04033
X0487224Y0403424
X0493524Y04033
X05018Y04032
X05109Y04063
X04954Y0416143
X04889Y04148
X04906Y04258
X0483302Y04272
X04775Y04305
X04711Y04272
X04629Y04261
Y04333
X0452384Y0430143
X04526Y04367
X04456Y0427231
X04401Y04205
X04334Y04287
X04331Y04341
X04367Y043982
X04294Y04469
X04251Y0451
X04396Y04525
X044015Y04608
X0452Y0454424
X04581Y04538
X04644Y0457
X04629Y04722
X04541Y04694
X04754Y0473
X0481776Y04654
X04879Y04656
X049075Y045947
X0487852Y0454352
X04872Y04485
X04935
X04904Y04367
X0496673Y0434776
X0503Y04348
X05089Y0450521
X0513377Y045297
X05153Y045947
X05067Y04589
X050693Y046597
X04901Y04726
X0478626Y0449874
X046885Y0418982
X04713Y03886
X0477776Y03915
X0490374
X04967
X0506122Y037675
X050405Y036875
X048445Y033875
X04642Y0345
X045295Y033875
X043605Y036875
X04611Y03875
X0427102Y0428484
X04271Y04665
X04314Y047335
X04271Y0478003
X05321Y046913
X05341Y046203
X0532989Y0456911
X052787
X05321Y0451793
X05277Y04388
X05271Y04292
X05179Y03288
X0499823Y0484724
X0493524Y04868
X0494673Y04924
X04811Y04927
X04754Y04891
X0476Y05003
X04749Y05081
X048155Y051055
X0479776Y0518
X04861Y05181
X0494374Y0518226
X0498673Y0508573
X05062Y05124
X05073Y0503528
X04867Y04983
X0485224Y04848
X0469828Y04975
X04629Y04976
X04555Y04996
X04492Y0496269
X0452142Y0487098
X04586Y04865
X043963Y048142
Y0491657
X04356Y04996
X04398Y05087
X043963Y051922
X04334Y05181
X042708Y051872
X04271Y0533
X04334Y0528039
X04546Y053
X0460087Y05361
X0478925Y05323
X0485224Y05309
X0496024Y0536051
X0508122Y05339
X05144Y053
X04629Y05147
X04546Y05182
X04524Y05096
X04251Y0491
X04229Y0483839
X0410358Y0486398
X04096Y048128
X03997Y0483839
X0409842Y0493516
X04075Y05061
X04011Y05065
X03997Y05156
X04039Y05203
X04104Y05173
X04103Y05244
Y05295
X04039Y0536
X03997Y05258
X0385098Y0526398
X03809Y0533516
X03637Y053185
X036875Y05178
X03756Y05073
X0381Y0511043
X03871Y0516161
X0384898Y0489516
X03762Y04903
X03688Y04872
X03608Y04828
X03488Y04872
X03408Y04828
X032475Y0487209
X03188Y04828
X030675Y0485209
X03001Y04828
X028875Y0485209
X0280188Y04868
X026875Y0487209
X02788Y05021
X03187Y05087
X03288Y05179
X034875
X03416Y05088
X033875Y0502083
X0349617Y0502083
X036075Y0502083
X03809Y04813
X0422784Y05065
X042287Y0515602
X04229Y05258
X033875Y05328
X02568Y05021
X023875Y05039
X0231875Y0503475
X02217Y0509
X021875Y05348
X01754Y05366
X0156Y05133
Y04955
Y04892
X01624Y04918
X01442Y04864
X01422Y0496673
X01365Y0506536
X01185Y05077
X01137Y05019
X0126122Y04967
X01176Y04843
X0112798Y048137
X01268Y05216
X01229Y05255
X01987Y04852
X020875Y048295
X02187Y04828
X02335Y04821
X02476Y04828
X025075Y04872
X02608Y04828
X01108Y04872
Y0493524
X0099Y04887
X00983Y04814
X008447Y04854
X00745Y04821
X0076Y04991
X00809Y0502
X0089Y05038
X0089589Y05098
X00967Y05079
X009735Y0499087
X01108Y05124
X0103557Y05204
X00901Y05304
X0080993Y05238
X00713Y05224
X0075352Y05096
X00627Y05054
Y0496673
X0061874Y0490374
X00542Y04878
X00554Y04979
X00498Y05093
X0049772Y0515272
X0038356Y05152
X00382Y0504972
X00381Y0499224
X00379Y04882
X00302Y0487224
X0030063Y0481463
X00293Y04935
X0016Y04972
X00175Y051695
X00294Y05123
X0032Y0531567
X00466Y05238
X00471Y05422
T02
X027375Y020375
Y021375
Y022375
Y023375
Y024375
Y025375
Y026375
Y027375
Y028375
Y029375
Y030375
Y031375
Y032375
X028375
Y031375
Y030375
Y029375
Y028375
Y027375
Y026375
Y025375
Y024375
Y023375
Y022375
Y021375
Y020375
X029375
Y021375
Y022375
Y023375
Y024375
Y025375
Y026375
Y027375
Y028375
Y029375
Y030375
Y031375
Y032375
X030375
Y031375
Y030375
Y029375
Y028375
Y027375
Y026375
Y025375
Y024375
Y023375
Y022375
Y021375
Y020375
X031375
Y021375
Y022375
Y023375
Y024375
Y025375
Y026375
Y027375
Y028375
Y029375
Y030375
Y031375
Y032375
X032375
Y031375
Y030375
Y029375
Y028375
Y027375
Y026375
Y025375
Y024375
Y023375
Y022375
Y021375
Y020375
X033375
Y021375
Y022375
Y023375
Y024375
Y025375
Y026375
Y027375
Y028375
Y029375
Y030375
Y031375
Y032375
X026375
X025375
X024375
X023375
X022375
X021375
Y031375
Y030375
Y029375
Y028375
Y027375
Y026375
Y025375
Y024375
Y023375
Y022375
Y021375
Y020375
X022375
Y021375
Y022375
Y023375
Y024375
Y025375
Y026375
Y027375
Y028375
Y029375
Y030375
Y031375
X023375
Y030375
Y029375
Y028375
Y027375
Y026375
Y025375
Y024375
Y023375
Y022375
Y021375
Y020375
X024375
Y021375
Y022375
Y023375
Y024375
Y025375
Y026375
Y027375
Y028375
Y029375
Y030375
Y031375
X025375
Y030375
Y029375
Y028375
Y027375
Y026375
Y025375
Y024375
Y023375
Y022375
Y021375
Y020375
X026375
Y021375
Y022375
Y023375
Y024375
Y025375
Y026375
Y027375
Y028375
Y029375
Y030375
Y031375
M30
