%FSLAX25Y25*%
%MOIN*%
G70*
G01*
G75*
G04 Layer_Color=16711935*
%ADD10C,0.00800*%
%ADD11C,0.07000*%
%ADD12C,0.05000*%
%ADD13C,0.01000*%
%ADD14C,0.07800*%
%ADD15C,0.05800*%
D14*
X230000Y50000D02*
D03*
Y60000D02*
D03*
X240000D02*
D03*
Y50000D02*
D03*
X260000D02*
D03*
Y60000D02*
D03*
X250000D02*
D03*
Y50000D02*
D03*
X290000D02*
D03*
Y60000D02*
D03*
X300000D02*
D03*
Y50000D02*
D03*
X280000D02*
D03*
Y60000D02*
D03*
X270000D02*
D03*
Y50000D02*
D03*
X190000D02*
D03*
Y60000D02*
D03*
X200000D02*
D03*
Y50000D02*
D03*
X220000D02*
D03*
Y60000D02*
D03*
X210000D02*
D03*
Y50000D02*
D03*
X170000D02*
D03*
Y60000D02*
D03*
X180000D02*
D03*
Y50000D02*
D03*
X160000D02*
D03*
Y60000D02*
D03*
X150000D02*
D03*
Y50000D02*
D03*
X330000Y49916D02*
D03*
Y60000D02*
D03*
X340000D02*
D03*
Y49916D02*
D03*
X320000D02*
D03*
Y60000D02*
D03*
X310000D02*
D03*
Y49916D02*
D03*
X440000Y265000D02*
D03*
X450000D02*
D03*
Y255000D02*
D03*
X440000D02*
D03*
Y235000D02*
D03*
X450000D02*
D03*
Y245000D02*
D03*
X440000D02*
D03*
Y205000D02*
D03*
X450000D02*
D03*
Y195000D02*
D03*
X440000D02*
D03*
Y215000D02*
D03*
X450000D02*
D03*
Y225000D02*
D03*
X440000D02*
D03*
Y305000D02*
D03*
X450000D02*
D03*
Y295000D02*
D03*
X440000D02*
D03*
Y275000D02*
D03*
X450000D02*
D03*
Y285000D02*
D03*
X440000D02*
D03*
Y325000D02*
D03*
X450000D02*
D03*
Y315000D02*
D03*
X440000D02*
D03*
Y335000D02*
D03*
X450000D02*
D03*
Y345000D02*
D03*
X440000D02*
D03*
X439917Y165000D02*
D03*
X450000D02*
D03*
Y155000D02*
D03*
X439917D02*
D03*
Y175000D02*
D03*
X450000D02*
D03*
Y185000D02*
D03*
X439917D02*
D03*
X230000Y440000D02*
D03*
Y450000D02*
D03*
X240000D02*
D03*
Y440000D02*
D03*
X260000D02*
D03*
Y450000D02*
D03*
X250000D02*
D03*
Y440000D02*
D03*
X290000D02*
D03*
Y450000D02*
D03*
X300000D02*
D03*
Y440000D02*
D03*
X280000D02*
D03*
Y450000D02*
D03*
X270000D02*
D03*
Y440000D02*
D03*
X190000D02*
D03*
Y450000D02*
D03*
X200000D02*
D03*
Y440000D02*
D03*
X220000D02*
D03*
Y450000D02*
D03*
X210000D02*
D03*
Y440000D02*
D03*
X170000D02*
D03*
Y450000D02*
D03*
X180000D02*
D03*
Y440000D02*
D03*
X160000D02*
D03*
Y450000D02*
D03*
X150000D02*
D03*
Y440000D02*
D03*
X330000Y439917D02*
D03*
Y450000D02*
D03*
X340000D02*
D03*
Y439917D02*
D03*
X320000D02*
D03*
Y450000D02*
D03*
X310000D02*
D03*
Y439917D02*
D03*
X50000Y265000D02*
D03*
X60000D02*
D03*
Y255000D02*
D03*
X50000D02*
D03*
Y235000D02*
D03*
X60000D02*
D03*
Y245000D02*
D03*
X50000D02*
D03*
Y205000D02*
D03*
X60000D02*
D03*
Y195000D02*
D03*
X50000D02*
D03*
Y215000D02*
D03*
X60000D02*
D03*
Y225000D02*
D03*
X50000D02*
D03*
Y305000D02*
D03*
X60000D02*
D03*
Y295000D02*
D03*
X50000D02*
D03*
Y275000D02*
D03*
X60000D02*
D03*
Y285000D02*
D03*
X50000D02*
D03*
Y325000D02*
D03*
X60000D02*
D03*
Y315000D02*
D03*
X50000D02*
D03*
Y335000D02*
D03*
X60000D02*
D03*
Y345000D02*
D03*
X50000D02*
D03*
X49916Y165000D02*
D03*
X60000D02*
D03*
Y155000D02*
D03*
X49916D02*
D03*
Y175000D02*
D03*
X60000D02*
D03*
Y185000D02*
D03*
X49916D02*
D03*
X355000Y295000D02*
D03*
X345000D02*
D03*
Y305000D02*
D03*
X355000D02*
D03*
Y325000D02*
D03*
X345000D02*
D03*
Y315000D02*
D03*
X355000D02*
D03*
Y355000D02*
D03*
X345000D02*
D03*
Y365000D02*
D03*
X355000D02*
D03*
Y345000D02*
D03*
X345000D02*
D03*
Y335000D02*
D03*
X355000D02*
D03*
Y135000D02*
D03*
X345000D02*
D03*
X345000Y145000D02*
D03*
X355000D02*
D03*
Y165000D02*
D03*
X345000D02*
D03*
X345000Y155000D02*
D03*
X355000D02*
D03*
Y195000D02*
D03*
X345000D02*
D03*
X345000Y205000D02*
D03*
X355000D02*
D03*
Y185000D02*
D03*
X345000D02*
D03*
X345000Y175000D02*
D03*
X355000D02*
D03*
Y255000D02*
D03*
X345000D02*
D03*
Y265000D02*
D03*
X355000D02*
D03*
Y285000D02*
D03*
X345000D02*
D03*
Y275000D02*
D03*
X355000D02*
D03*
Y235000D02*
D03*
X345000D02*
D03*
Y245000D02*
D03*
X355000D02*
D03*
Y225000D02*
D03*
X345000D02*
D03*
Y215000D02*
D03*
X355000D02*
D03*
X335000D02*
D03*
X325000D02*
D03*
Y225000D02*
D03*
X335000D02*
D03*
Y245000D02*
D03*
X325000D02*
D03*
Y235000D02*
D03*
X335000D02*
D03*
Y275000D02*
D03*
X325000D02*
D03*
Y285000D02*
D03*
X335000D02*
D03*
Y265000D02*
D03*
X325000D02*
D03*
Y255000D02*
D03*
X335000D02*
D03*
Y175000D02*
D03*
X325000D02*
D03*
X325000Y185000D02*
D03*
X335000D02*
D03*
Y205000D02*
D03*
X325000D02*
D03*
X325000Y195000D02*
D03*
X335000D02*
D03*
Y155000D02*
D03*
X325000D02*
D03*
X325000Y165000D02*
D03*
X335000D02*
D03*
Y145000D02*
D03*
X325000D02*
D03*
X325000Y135000D02*
D03*
X335000D02*
D03*
Y335000D02*
D03*
X325000D02*
D03*
Y345000D02*
D03*
X335000D02*
D03*
Y365000D02*
D03*
X325000D02*
D03*
Y355000D02*
D03*
X335000D02*
D03*
Y315000D02*
D03*
X325000D02*
D03*
Y325000D02*
D03*
X335000D02*
D03*
Y305000D02*
D03*
X325000D02*
D03*
Y295000D02*
D03*
X335000D02*
D03*
X175000D02*
D03*
X165000D02*
D03*
Y305000D02*
D03*
X175000D02*
D03*
Y325000D02*
D03*
X165000D02*
D03*
Y315000D02*
D03*
X175000D02*
D03*
Y355000D02*
D03*
X165000D02*
D03*
Y365000D02*
D03*
X175000D02*
D03*
Y345000D02*
D03*
X165000D02*
D03*
Y335000D02*
D03*
X175000D02*
D03*
Y135000D02*
D03*
X165000D02*
D03*
X165000Y145000D02*
D03*
X175000D02*
D03*
Y165000D02*
D03*
X165000D02*
D03*
X165000Y155000D02*
D03*
X175000D02*
D03*
Y195000D02*
D03*
X165000D02*
D03*
X165000Y205000D02*
D03*
X175000D02*
D03*
Y185000D02*
D03*
X165000D02*
D03*
X165000Y175000D02*
D03*
X175000D02*
D03*
X165000Y255000D02*
D03*
Y265000D02*
D03*
X175000D02*
D03*
Y285000D02*
D03*
X165000D02*
D03*
Y275000D02*
D03*
X175000D02*
D03*
Y235000D02*
D03*
X165000D02*
D03*
Y245000D02*
D03*
X175000D02*
D03*
Y225000D02*
D03*
X165000D02*
D03*
Y215000D02*
D03*
X175000D02*
D03*
X155000D02*
D03*
X145000D02*
D03*
Y225000D02*
D03*
X155000D02*
D03*
Y245000D02*
D03*
X145000D02*
D03*
Y235000D02*
D03*
X155000D02*
D03*
Y275000D02*
D03*
X145000D02*
D03*
Y285000D02*
D03*
X155000D02*
D03*
Y265000D02*
D03*
X145000D02*
D03*
Y255000D02*
D03*
X155000D02*
D03*
Y175000D02*
D03*
X145000D02*
D03*
X145000Y185000D02*
D03*
X155000D02*
D03*
Y205000D02*
D03*
X145000D02*
D03*
X145000Y195000D02*
D03*
X155000D02*
D03*
Y155000D02*
D03*
X145000D02*
D03*
X145000Y165000D02*
D03*
X155000D02*
D03*
Y145000D02*
D03*
X145000D02*
D03*
X145000Y135000D02*
D03*
X155000D02*
D03*
Y335000D02*
D03*
X145000D02*
D03*
Y345000D02*
D03*
X155000D02*
D03*
Y365000D02*
D03*
X145000D02*
D03*
Y355000D02*
D03*
X155000D02*
D03*
Y315000D02*
D03*
X145000D02*
D03*
Y325000D02*
D03*
X155000D02*
D03*
Y305000D02*
D03*
X145000D02*
D03*
Y295000D02*
D03*
X155000D02*
D03*
X175000Y255000D02*
D03*
D15*
X120000Y315000D02*
D03*
X124500Y343100D02*
D03*
X110800D02*
D03*
X117500Y350000D02*
D03*
X131200D02*
D03*
X120000Y335000D02*
D03*
X110000D02*
D03*
Y325000D02*
D03*
X120000D02*
D03*
X195000Y195000D02*
D03*
X205000D02*
D03*
X213500D02*
D03*
Y205000D02*
D03*
Y215000D02*
D03*
X205000D02*
D03*
X195000D02*
D03*
X213500Y225000D02*
D03*
X195000Y245000D02*
D03*
X205000Y225000D02*
D03*
X195000D02*
D03*
X215500Y245000D02*
D03*
X198800Y185200D02*
D03*
X200000Y238000D02*
D03*
X185000Y245000D02*
D03*
X226000Y248400D02*
D03*
X215000Y280000D02*
D03*
X225000D02*
D03*
Y335000D02*
D03*
X215000Y290000D02*
D03*
Y325100D02*
D03*
X190200Y339800D02*
D03*
M02*
