M48
;Layer_Color=9474304
;FILE_FORMAT=2:5
INCH,LZ
;TYPE=PLATED
T1F00S00C0.02800
T2F00S00C0.04331
%
T01
X01988Y01852
X0195Y0195
X0205
X02135
Y0205
Y0215
X0205
X0195
Y0225
X0205
X02135
X02155Y0245
X0226Y02484
X0225Y028
X0215
Y029
X0195Y0245
X0185
X02Y0238
X012Y0315
X011Y0325
Y0335
X01108Y03431
X01175Y035
X01312
X01245Y03431
X012Y0335
Y0325
X01902Y03398
X0215Y03251
X0225Y0335
T02
X0049916Y0155
Y0165
X006
Y0155
X0145
X0155
X0165
X0175
Y0145
X0165
X0165Y0135
X0175
X0155
Y0145
X0145
X0145Y0135
X0145Y0165
X0155
X0165
X0175
X017Y006
Y005
X018
X019
Y006
X02
Y005
X021
X022
X023
Y006
X024
Y005
X025
X026
Y006
X025
X022
X021
X018
X016
Y005
X015
Y006
X027
X028
X029
Y005
X03
Y006
X031
X032
X033
X034
Y0049916
X033
X032
X031
X028Y005
X027
X0325Y0135
X0335
X0345
X0355
Y0145
X0345
X0345Y0155
X0355
Y0165
X0345
X0335
X0325
X0325Y0155
X0335
Y0145
X0325
X0439917Y0155
Y0165
X045
Y0155
Y0175
Y0185
Y0195
Y0205
X044
Y0195
X0439917Y0185
Y0175
X044Y0215
X045
Y0225
Y0235
X044
Y0245
Y0255
Y0265
X045
Y0255
Y0245
X044Y0225
Y0275
X045
Y0285
Y0295
Y0305
X044
Y0295
Y0285
Y0315
X045
X0355
Y0305
Y0295
X0345
Y0305
Y0315
X0335
X0325
Y0305
X0335
Y0295
Y0285
X0345
X0355
Y0275
Y0265
Y0255
X0345
Y0265
Y0275
X0335
X0325
Y0285
Y0295
Y0265
X0335
Y0255
Y0245
X0345
Y0235
X0355
Y0245
Y0225
X0345
Y0215
X0355
Y0205
X0345
X0345Y0195
X0355
Y0185
X0345
X0345Y0175
X0355
X0335
X0325
X0325Y0185
X0335
Y0195
Y0205
X0325
X0325Y0215
X0335
Y0225
X0325
Y0235
Y0245
Y0255
X0335Y0235
X0325Y0195
X0175
X0165
X0155
Y0185
X0145
X0145Y0175
X0155
X0165
X0175
Y0185
X0165
Y0205
X0175
Y0215
Y0225
Y0235
X0165
Y0245
Y0255
Y0265
X0175
Y0275
Y0285
Y0295
X0165
Y0305
X0175
Y0315
X0165
X0155
X0145
Y0305
X0155
Y0295
Y0285
X0165
Y0275
X0155
X0145
Y0285
Y0295
Y0265
X0155
Y0255
Y0245
X0145
Y0235
Y0225
Y0215
X0155
X0165
Y0225
X0155
Y0235
X0175Y0245
Y0255
X0145
X0145Y0205
X0155
X0145Y0195
X006
Y0205
X005
Y0195
X0049916Y0185
Y0175
X006
Y0185
Y0215
X005
Y0225
Y0235
X006
Y0245
Y0255
Y0265
X005
Y0255
Y0245
X006Y0225
Y0275
X005
Y0285
Y0295
Y0305
X006
Y0295
Y0285
Y0315
X005
Y0325
X006
Y0335
X005
Y0345
X006
X0145
Y0335
X0155
X0165
Y0325
X0175
Y0335
Y0345
Y0355
X0165
Y0365
X0175
X0155
X0145
Y0355
X0155
Y0345
X0165
X0155Y0325
X0145
X015Y044
X016
X017
Y045
X018
X019
Y044
X02
Y045
X021
X022
X023
Y044
X024
Y045
X025
X026
Y044
X025
X022
X021
X018
X016Y045
X015
X027
X028
X029
Y044
X03
Y045
X031
X032
X033
X034
Y0439917
X033
X032
X031
X028Y044
X027
X0325Y0365
X0335
X0345
Y0355
X0355
Y0365
Y0345
X0345
Y0335
Y0325
X0355
Y0335
X0335
X0325
Y0345
X0335
Y0355
X0325
Y0325
X0335
X044
X045
Y0335
X044
Y0345
X045
M30
