%FSLAX25Y25*%
%MOIN*%
G70*
G01*
G75*
G04 Layer_Physical_Order=4*
G04 Layer_Color=16711680*
%ADD10C,0.00800*%
%ADD11C,0.07000*%
%ADD12C,0.05000*%
D10*
X60000Y255000D02*
X64900Y259900D01*
Y279900D01*
X70000Y285000D01*
X84100D01*
X87800Y288700D01*
Y296600D01*
X92300Y301100D01*
X98500D01*
X108600Y291000D01*
X115300D01*
X120900Y285400D01*
Y267000D02*
Y285400D01*
Y267000D02*
X122800Y265100D01*
X125000D01*
X126900Y267000D01*
Y291700D01*
X123500Y295100D02*
X126900Y291700D01*
X110400Y295100D02*
X123500D01*
X87600Y317900D02*
X110400Y295100D01*
X87600Y317900D02*
Y344300D01*
X86500Y345400D02*
X87600Y344300D01*
X83900Y345400D02*
X86500D01*
X82800Y344300D02*
X83900Y345400D01*
X82800Y294400D02*
Y344300D01*
X81500Y293100D02*
X82800Y294400D01*
X79000Y293100D02*
X81500D01*
X77800Y294300D02*
X79000Y293100D01*
X77800Y294300D02*
Y347100D01*
X79700Y349000D01*
X90900D01*
X98200Y356300D01*
Y359200D01*
X97300Y360100D02*
X98200Y359200D01*
X91000Y360100D02*
X97300D01*
X83600Y352700D02*
X91000Y360100D01*
X77500Y352700D02*
X83600D01*
X73800Y349000D02*
X77500Y352700D01*
X73800Y294000D02*
Y349000D01*
X72900Y293100D02*
X73800Y294000D01*
X70600Y293100D02*
X72900D01*
X69700Y294000D02*
X70600Y293100D01*
X69700Y294000D02*
Y354200D01*
X71500Y356000D01*
X81200D01*
X89100Y363900D01*
X107000D01*
X108100Y362800D01*
Y360300D02*
Y362800D01*
X93700Y345900D02*
X108100Y360300D01*
X93700Y317800D02*
Y345900D01*
Y317800D02*
X111400Y300100D01*
X131700D01*
X134900Y296900D01*
Y275100D02*
Y296900D01*
Y275100D02*
X145000Y265000D01*
X63100Y382500D02*
Y384800D01*
X61900Y381300D02*
X63100Y382500D01*
X61900Y378900D02*
Y381300D01*
X69200Y386000D02*
Y388700D01*
X67900Y384700D02*
X69200Y386000D01*
X67900Y382200D02*
Y384700D01*
X40100Y382800D02*
Y385000D01*
X38900Y381600D02*
X40100Y382800D01*
X38900Y386200D02*
X40100Y385000D01*
X38900Y378900D02*
Y381600D01*
X80900Y360500D02*
Y363800D01*
X78900Y358500D02*
X80900Y360500D01*
X68700Y358500D02*
X78900D01*
X79000Y365700D02*
X80900Y363800D01*
X65600Y355400D02*
X68700Y358500D01*
X65600Y320600D02*
Y355400D01*
X60000Y315000D02*
X65600Y320600D01*
X65100Y365700D02*
X79000D01*
X63900Y366900D02*
X65100Y365700D01*
X63900Y366900D02*
Y369400D01*
X65100Y370600D01*
X83000D01*
X86500Y367100D01*
X115900D01*
X116900Y368100D01*
Y369400D01*
X115900Y370400D02*
X116900Y369400D01*
X88400Y370400D02*
X115900D01*
X81700Y377100D02*
X88400Y370400D01*
X81700Y377100D02*
Y380000D01*
X79800Y381900D02*
X81700Y380000D01*
X76600Y381900D02*
X79800D01*
X74600Y379900D02*
X76600Y381900D01*
X74600Y376900D02*
Y379900D01*
X71600Y373900D02*
X74600Y376900D01*
X68900Y373900D02*
X71600D01*
X67600Y375200D02*
X68900Y373900D01*
X67600Y375200D02*
Y377100D01*
X68700Y378200D01*
Y381400D01*
X67900Y382200D02*
X68700Y381400D01*
X68000Y389900D02*
X69200Y388700D01*
X63100Y389900D02*
X68000D01*
X61900Y388700D02*
X63100Y389900D01*
X61900Y386000D02*
Y388700D01*
Y386000D02*
X63100Y384800D01*
X61900Y378900D02*
X63200Y377600D01*
Y374900D02*
Y377600D01*
X62200Y373900D02*
X63200Y374900D01*
X57500Y373900D02*
X62200D01*
X56500Y374900D02*
X57500Y373900D01*
X56500Y374900D02*
Y377600D01*
X57700Y378800D01*
Y381000D01*
X56500Y382200D02*
X57700Y381000D01*
X56500Y382200D02*
Y384900D01*
X57700Y386100D01*
Y388300D01*
X56500Y389500D02*
X57700Y388300D01*
X56500Y389500D02*
Y392200D01*
X57700Y393400D01*
Y395600D01*
X56500Y396800D02*
X57700Y395600D01*
X56500Y396800D02*
Y399500D01*
X57700Y400700D01*
Y403400D01*
X56500Y404600D02*
X57700Y403400D01*
X51600Y404600D02*
X56500D01*
X50400Y403400D02*
X51600Y404600D01*
X50400Y400700D02*
Y403400D01*
Y400700D02*
X51600Y399500D01*
Y397300D02*
Y399500D01*
X50400Y396100D02*
X51600Y397300D01*
X50400Y393400D02*
Y396100D01*
Y393400D02*
X51600Y392200D01*
Y390000D02*
Y392200D01*
X50400Y388800D02*
X51600Y390000D01*
X50400Y386100D02*
Y388800D01*
Y386100D02*
X51600Y384900D01*
Y382700D02*
Y384900D01*
X50400Y381500D02*
X51600Y382700D01*
X50400Y379000D02*
Y381500D01*
Y379000D02*
X51700Y377700D01*
Y375000D02*
Y377700D01*
X50700Y374000D02*
X51700Y375000D01*
X46000Y374000D02*
X50700D01*
X45000Y375000D02*
X46000Y374000D01*
X45000Y375000D02*
Y377700D01*
X46200Y378900D01*
Y381100D01*
X45000Y382300D02*
X46200Y381100D01*
X45000Y382300D02*
Y385000D01*
X46200Y386200D01*
Y388400D01*
X45000Y389600D02*
X46200Y388400D01*
X45000Y389600D02*
Y392300D01*
X46200Y393500D01*
Y395700D01*
X45000Y396900D02*
X46200Y395700D01*
X45000Y396900D02*
Y399600D01*
X46200Y400800D01*
Y403000D01*
X45000Y404200D02*
X46200Y403000D01*
X45000Y404200D02*
Y406900D01*
X46200Y408100D01*
Y410800D01*
X45000Y412000D02*
X46200Y410800D01*
X40100Y412000D02*
X45000D01*
X38900Y410800D02*
X40100Y412000D01*
X38900Y408100D02*
Y410800D01*
Y408100D02*
X40100Y406900D01*
Y404700D02*
Y406900D01*
X38900Y403500D02*
X40100Y404700D01*
X38900Y400800D02*
Y403500D01*
Y400800D02*
X40100Y399600D01*
Y397400D02*
Y399600D01*
X38900Y396200D02*
X40100Y397400D01*
X38900Y393500D02*
Y396200D01*
Y393500D02*
X40100Y392300D01*
Y390100D02*
Y392300D01*
X38900Y388900D02*
X40100Y390100D01*
X38900Y386200D02*
Y388900D01*
X40100Y375000D02*
Y377700D01*
X38900Y378900D02*
X40100Y377700D01*
X39100Y374000D02*
X40100Y375000D01*
X34400Y374000D02*
X39100D01*
X33400Y375000D02*
X34400Y374000D01*
X33400Y375000D02*
Y377700D01*
X34600Y378900D01*
Y381100D01*
X33400Y382300D02*
X34600Y381100D01*
X33400Y382300D02*
Y385000D01*
X34600Y386200D01*
Y388400D01*
X33400Y389600D02*
X34600Y388400D01*
X33400Y389600D02*
Y392300D01*
X34600Y393500D01*
Y395700D01*
X33400Y396900D02*
X34600Y395700D01*
X33400Y396900D02*
Y399600D01*
X34600Y400800D01*
Y403000D01*
X33400Y404200D02*
X34600Y403000D01*
X33400Y404200D02*
Y406900D01*
X34600Y408100D01*
Y410300D01*
X33400Y411500D02*
X34600Y410300D01*
X33400Y411500D02*
Y414200D01*
X34600Y415400D01*
Y417600D01*
X33400Y418800D02*
X34600Y417600D01*
X33400Y418800D02*
Y421500D01*
X34600Y422700D01*
Y424900D01*
X36100Y426400D01*
X41000D01*
X42600Y424800D01*
Y422300D02*
Y424800D01*
Y422300D02*
X43800Y421100D01*
X46300D01*
X47900Y419500D01*
Y417000D02*
Y419500D01*
Y417000D02*
X49100Y415800D01*
X51600D01*
X53200Y414200D01*
Y411700D02*
Y414200D01*
Y411700D02*
X54400Y410500D01*
X56900D01*
X58500Y408900D01*
Y406400D02*
Y408900D01*
Y406400D02*
X59700Y405200D01*
X41200Y364500D02*
X52200D01*
X37700Y361000D02*
X41200Y364500D01*
X37700Y359300D02*
Y361000D01*
X59700Y405200D02*
X62200D01*
X63800Y403600D01*
Y401100D02*
Y403600D01*
Y401100D02*
X65000Y399900D01*
X67500D01*
X69100Y398300D01*
Y395800D02*
Y398300D01*
Y395800D02*
X70300Y394600D01*
X72800D01*
X74400Y393000D01*
Y390500D02*
Y393000D01*
Y390500D02*
X75600Y389300D01*
X78100D01*
X79700Y387700D01*
Y385200D02*
Y387700D01*
Y385200D02*
X80900Y384000D01*
X83400D01*
X85000Y382400D01*
Y379900D02*
Y382400D01*
Y379900D02*
X86200Y378700D01*
X88700D01*
X90300Y377100D01*
Y374600D02*
Y377100D01*
Y374600D02*
X91500Y373400D01*
X121400D01*
X123300Y371500D01*
Y369500D02*
Y371500D01*
X104700Y350900D02*
X123300Y369500D01*
X104700Y330300D02*
Y350900D01*
Y330300D02*
X110000Y325000D01*
X28700Y404000D02*
X30600Y402100D01*
Y399500D02*
Y402100D01*
X28700Y397600D02*
X30600Y399500D01*
Y391400D02*
Y394000D01*
X28700Y395900D02*
X30600Y394000D01*
X28700Y395900D02*
Y397600D01*
X54900Y340100D02*
X60000Y335000D01*
X54900Y340100D02*
Y361800D01*
X52200Y364500D02*
X54900Y361800D01*
X39600Y354800D02*
Y357400D01*
X37700Y352900D02*
X39600Y354800D01*
X37700Y351200D02*
Y352900D01*
Y359300D02*
X39600Y357400D01*
X37700Y351200D02*
X39600Y349300D01*
Y346700D02*
Y349300D01*
X37700Y344800D02*
X39600Y346700D01*
X37700Y343100D02*
Y344800D01*
Y343100D02*
X39600Y341200D01*
Y338600D02*
Y341200D01*
X37700Y336700D02*
X39600Y338600D01*
X37700Y335000D02*
Y336700D01*
Y335000D02*
X39600Y333100D01*
Y328900D02*
Y333100D01*
X37900Y327200D02*
X39600Y328900D01*
X30100Y327200D02*
X37900D01*
X28700Y328600D02*
X30100Y327200D01*
X28700Y328600D02*
Y332800D01*
X30600Y334700D01*
Y337300D01*
X28700Y339200D02*
X30600Y337300D01*
X28700Y339200D02*
Y340900D01*
X30600Y342800D01*
Y345400D01*
X28700Y347300D02*
X30600Y345400D01*
X28700Y347300D02*
Y349000D01*
X30600Y350900D01*
Y353500D01*
X28700Y355400D02*
X30600Y353500D01*
X28700Y355400D02*
Y357100D01*
X30600Y359000D01*
Y361600D01*
X28700Y363500D02*
X30600Y361600D01*
X28700Y363500D02*
Y365200D01*
X30600Y367100D01*
Y369700D01*
X28700Y371600D02*
X30600Y369700D01*
X28700Y371600D02*
Y373300D01*
X30600Y375200D01*
Y377800D01*
X28700Y379700D02*
X30600Y377800D01*
X28700Y379700D02*
Y381400D01*
X30600Y383300D01*
Y385900D01*
X28700Y387800D02*
X30600Y385900D01*
X28700Y387800D02*
Y389500D01*
X30600Y391400D01*
X28700Y404000D02*
Y405700D01*
X30600Y407600D01*
Y410200D01*
X28700Y412100D02*
X30600Y410200D01*
X28700Y412100D02*
Y413800D01*
X30600Y415700D01*
Y418300D01*
X28700Y420200D02*
X30600Y418300D01*
X28700Y420200D02*
Y421900D01*
X30600Y423800D01*
Y426400D01*
X28700Y428300D02*
X30600Y426400D01*
X28700Y428300D02*
Y430000D01*
X30600Y431900D01*
Y434500D01*
X28700Y436400D02*
X30600Y434500D01*
X23400Y436400D02*
X28700D01*
X21400Y434400D02*
X23400Y436400D01*
X21400Y430500D02*
Y434400D01*
X23300Y426000D02*
Y428600D01*
X21400Y430500D02*
X23300Y428600D01*
Y417900D02*
Y420500D01*
X21400Y422400D02*
X23300Y420500D01*
X21400Y422400D02*
Y424100D01*
X23300Y426000D01*
Y409800D02*
Y412400D01*
X21400Y414300D02*
X23300Y412400D01*
X21400Y414300D02*
Y416000D01*
X23300Y417900D01*
Y401700D02*
Y404300D01*
X21400Y406200D02*
X23300Y404300D01*
X21400Y406200D02*
Y407900D01*
X23300Y409800D01*
Y393600D02*
Y396200D01*
X21400Y398100D02*
X23300Y396200D01*
X21400Y398100D02*
Y399800D01*
X23300Y401700D01*
Y385500D02*
Y388100D01*
X21400Y390000D02*
X23300Y388100D01*
X21400Y390000D02*
Y391700D01*
X23300Y393600D01*
Y377400D02*
Y380000D01*
X21400Y381900D02*
X23300Y380000D01*
X21400Y381900D02*
Y383600D01*
X23300Y385500D01*
X21400Y375500D02*
X23300Y377400D01*
X21400Y373800D02*
Y375500D01*
Y373800D02*
X23300Y371900D01*
Y369300D02*
Y371900D01*
Y357400D02*
Y363800D01*
X21400Y365700D02*
X23300Y363800D01*
X21400Y365700D02*
Y367400D01*
X23300Y369300D01*
X21700Y355800D02*
X23300Y357400D01*
X17800Y355800D02*
X21700D01*
X16200Y357400D02*
X17800Y355800D01*
X16200Y357400D02*
Y361200D01*
X14300Y364800D02*
X16200Y366700D01*
X14300Y363100D02*
Y364800D01*
Y363100D02*
X16200Y361200D01*
X14300Y372900D02*
X16200Y374800D01*
X14300Y371200D02*
Y372900D01*
Y371200D02*
X16200Y369300D01*
Y366700D02*
Y369300D01*
X14300Y381000D02*
X16200Y382900D01*
X14300Y379300D02*
Y381000D01*
Y379300D02*
X16200Y377400D01*
Y374800D02*
Y377400D01*
X14300Y389100D02*
X16200Y391000D01*
X14300Y387400D02*
Y389100D01*
Y387400D02*
X16200Y385500D01*
Y382900D02*
Y385500D01*
X14300Y397200D02*
X16200Y399100D01*
X14300Y395500D02*
Y397200D01*
Y395500D02*
X16200Y393600D01*
Y391000D02*
Y393600D01*
X14300Y405300D02*
X16200Y407200D01*
X14300Y403600D02*
Y405300D01*
Y403600D02*
X16200Y401700D01*
Y399100D02*
Y401700D01*
X14300Y413400D02*
X16200Y415300D01*
X14300Y411700D02*
Y413400D01*
Y411700D02*
X16200Y409800D01*
Y407200D02*
Y409800D01*
X14300Y421500D02*
X16200Y423400D01*
X14300Y419800D02*
Y421500D01*
Y419800D02*
X16200Y417900D01*
Y415300D02*
Y417900D01*
X14300Y429600D02*
X16200Y431500D01*
X14300Y427900D02*
Y429600D01*
Y427900D02*
X16200Y426000D01*
Y423400D02*
Y426000D01*
X14300Y437700D02*
X16200Y439600D01*
X14300Y436000D02*
Y437700D01*
Y436000D02*
X16200Y434100D01*
Y431500D02*
Y434100D01*
Y439600D02*
Y442200D01*
X14300Y444100D02*
X16200Y442200D01*
X14300Y444100D02*
Y445800D01*
X16200Y447700D01*
Y450300D01*
X14300Y452200D02*
X16200Y450300D01*
X14300Y452200D02*
Y456600D01*
X15300Y457600D01*
X18100D01*
X19400Y456300D01*
Y452600D02*
Y456300D01*
X21200Y450800D02*
X24000D01*
X19400Y452600D02*
X21200Y450800D01*
X28000Y444000D02*
X30800D01*
X26200Y445800D02*
X28000Y444000D01*
X24000Y450800D02*
X26200Y448600D01*
Y445800D02*
Y448600D01*
X34800Y437200D02*
X37600D01*
X33000Y439000D02*
X34800Y437200D01*
X30800Y444000D02*
X33000Y441800D01*
Y439000D02*
Y441800D01*
X41600Y430400D02*
X44400D01*
X39800Y432200D02*
X41600Y430400D01*
X37600Y437200D02*
X39800Y435000D01*
Y432200D02*
Y435000D01*
X48400Y423600D02*
X51200D01*
X46600Y425400D02*
X48400Y423600D01*
X44400Y430400D02*
X46600Y428200D01*
Y425400D02*
Y428200D01*
X55200Y416800D02*
X58000D01*
X53400Y418600D02*
X55200Y416800D01*
X51200Y423600D02*
X53400Y421400D01*
Y418600D02*
Y421400D01*
X62000Y410000D02*
X64800D01*
X60200Y411800D02*
X62000Y410000D01*
X58000Y416800D02*
X60200Y414600D01*
Y411800D02*
Y414600D01*
X68800Y403200D02*
X71600D01*
X67000Y405000D02*
X68800Y403200D01*
X64800Y410000D02*
X67000Y407800D01*
Y405000D02*
Y407800D01*
X75600Y396400D02*
X78400D01*
X73800Y398200D02*
X75600Y396400D01*
X71600Y403200D02*
X73800Y401000D01*
Y398200D02*
Y401000D01*
X82400Y389600D02*
X85200D01*
X80600Y391400D02*
X82400Y389600D01*
X78400Y396400D02*
X80600Y394200D01*
Y391400D02*
Y394200D01*
X87400Y384600D02*
Y387400D01*
X85200Y389600D02*
X87400Y387400D01*
Y384600D02*
X89200Y382800D01*
X92000D01*
X94200Y380600D01*
Y377800D02*
Y380600D01*
Y377800D02*
X95400Y376600D01*
X127200D01*
X129300Y374500D01*
Y368300D02*
Y374500D01*
X110800Y349800D02*
X129300Y368300D01*
X110800Y343100D02*
Y349800D01*
X120000Y335000D02*
X145000D01*
X143100Y343100D02*
X145000Y345000D01*
X131200Y350000D02*
X136200Y355000D01*
X145000D01*
X137100Y363200D02*
Y372900D01*
X115200Y341300D02*
X137100Y363200D01*
X115200Y323500D02*
Y341300D01*
X118800Y319900D02*
X147200D01*
X115200Y323500D02*
X118800Y319900D01*
X50000Y324300D02*
Y325000D01*
X28800Y303100D02*
X50000Y324300D01*
X25900Y303100D02*
X28800D01*
X24300Y304700D02*
Y307500D01*
Y304700D02*
X25900Y303100D01*
X24300Y312700D02*
Y315500D01*
Y312700D02*
X25900Y311100D01*
Y309100D02*
Y311100D01*
X24300Y307500D02*
X25900Y309100D01*
X24300Y320700D02*
Y323500D01*
Y320700D02*
X25900Y319100D01*
Y317100D02*
Y319100D01*
X24300Y315500D02*
X25900Y317100D01*
X24300Y328700D02*
Y331500D01*
Y328700D02*
X25900Y327100D01*
Y325100D02*
Y327100D01*
X24300Y323500D02*
X25900Y325100D01*
X24300Y336700D02*
Y339500D01*
Y336700D02*
X25900Y335100D01*
Y333100D02*
Y335100D01*
X24300Y331500D02*
X25900Y333100D01*
X24300Y339500D02*
X25900Y341100D01*
Y343100D01*
X24300Y344700D02*
X25900Y343100D01*
X24300Y344700D02*
Y347500D01*
X25900Y349100D01*
Y351100D01*
X24300Y352700D02*
X25900Y351100D01*
X18900Y352700D02*
X24300D01*
X18900Y344700D02*
Y346700D01*
X17300Y348300D02*
X18900Y346700D01*
X17300Y348300D02*
Y351100D01*
X18900Y352700D01*
Y336700D02*
Y338700D01*
X17300Y340300D02*
X18900Y338700D01*
X17300Y340300D02*
Y343100D01*
X18900Y344700D01*
Y328700D02*
Y330700D01*
X17300Y332300D02*
X18900Y330700D01*
X17300Y332300D02*
Y335100D01*
X18900Y336700D01*
X18500Y320300D02*
Y322300D01*
X16900Y323900D02*
X18500Y322300D01*
X16900Y323900D02*
Y326700D01*
X18900Y328700D01*
X18500Y312300D02*
Y314300D01*
X16900Y315900D02*
X18500Y314300D01*
X16900Y315900D02*
Y318700D01*
X18500Y320300D01*
X16900Y310700D02*
X18500Y312300D01*
X16900Y307900D02*
Y310700D01*
Y307900D02*
X18500Y306300D01*
Y304300D02*
Y306300D01*
X16900Y302700D02*
X18500Y304300D01*
X16900Y299900D02*
Y302700D01*
Y299900D02*
X18500Y298300D01*
Y295500D02*
Y298300D01*
X16900Y293900D02*
X18500Y295500D01*
X11500Y293900D02*
X16900D01*
X9900Y295500D02*
Y298300D01*
Y295500D02*
X11500Y293900D01*
X9900Y303500D02*
Y306300D01*
Y303500D02*
X11500Y301900D01*
Y299900D02*
Y301900D01*
X9900Y298300D02*
X11500Y299900D01*
X9900Y311500D02*
Y314300D01*
Y311500D02*
X11500Y309900D01*
Y307900D02*
Y309900D01*
X9900Y306300D02*
X11500Y307900D01*
X9900Y319500D02*
Y322300D01*
Y319500D02*
X11500Y317900D01*
Y315900D02*
Y317900D01*
X9900Y314300D02*
X11500Y315900D01*
X9900Y327500D02*
Y330300D01*
Y327500D02*
X11500Y325900D01*
Y323900D02*
Y325900D01*
X9900Y322300D02*
X11500Y323900D01*
X9900Y335500D02*
Y338300D01*
Y335500D02*
X11500Y333900D01*
Y331900D02*
Y333900D01*
X9900Y330300D02*
X11500Y331900D01*
X9900Y343500D02*
Y346300D01*
Y343500D02*
X11500Y341900D01*
Y339900D02*
Y341900D01*
X9900Y338300D02*
X11500Y339900D01*
X9900Y351500D02*
Y354300D01*
Y351500D02*
X11500Y349900D01*
Y347900D02*
Y349900D01*
X9900Y346300D02*
X11500Y347900D01*
X9900Y359500D02*
Y362300D01*
Y359500D02*
X11500Y357900D01*
Y355900D02*
Y357900D01*
X9900Y354300D02*
X11500Y355900D01*
X9900Y367500D02*
Y370300D01*
Y367500D02*
X11500Y365900D01*
Y363900D02*
Y365900D01*
X9900Y362300D02*
X11500Y363900D01*
X9900Y375500D02*
Y378300D01*
Y375500D02*
X11500Y373900D01*
Y371900D02*
Y373900D01*
X9900Y370300D02*
X11500Y371900D01*
X9900Y383500D02*
Y386300D01*
Y383500D02*
X11500Y381900D01*
Y379900D02*
Y381900D01*
X9900Y378300D02*
X11500Y379900D01*
X9900Y391500D02*
Y394300D01*
Y391500D02*
X11500Y389900D01*
Y387900D02*
Y389900D01*
X9900Y386300D02*
X11500Y387900D01*
X9900Y399500D02*
Y402300D01*
Y399500D02*
X11500Y397900D01*
Y395900D02*
Y397900D01*
X9900Y394300D02*
X11500Y395900D01*
X9900Y407500D02*
Y410300D01*
Y407500D02*
X11500Y405900D01*
Y403900D02*
Y405900D01*
X9900Y402300D02*
X11500Y403900D01*
X9900Y415500D02*
Y418300D01*
Y415500D02*
X11500Y413900D01*
Y411900D02*
Y413900D01*
X9900Y410300D02*
X11500Y411900D01*
X9900Y423500D02*
Y426300D01*
Y423500D02*
X11500Y421900D01*
Y419900D02*
Y421900D01*
X9900Y418300D02*
X11500Y419900D01*
X9900Y431500D02*
Y434300D01*
Y431500D02*
X11500Y429900D01*
Y427900D02*
Y429900D01*
X9900Y426300D02*
X11500Y427900D01*
X9900Y439500D02*
Y442300D01*
Y439500D02*
X11500Y437900D01*
Y435900D02*
Y437900D01*
X9900Y434300D02*
X11500Y435900D01*
X9900Y447500D02*
Y450300D01*
Y447500D02*
X11500Y445900D01*
Y443900D02*
Y445900D01*
X9900Y442300D02*
X11500Y443900D01*
X9900Y450300D02*
X11500Y451900D01*
Y453900D01*
X9900Y455500D02*
X11500Y453900D01*
X9900Y455500D02*
Y458300D01*
X11500Y459900D01*
Y461900D01*
X9900Y463500D02*
X11500Y461900D01*
X9900Y463500D02*
Y466300D01*
X11300Y467700D01*
X17000Y462700D02*
Y465500D01*
X14800Y467700D02*
X17000Y465500D01*
X11300Y467700D02*
X14800D01*
X23800Y455900D02*
Y458700D01*
X21600Y460900D02*
X23800Y458700D01*
X18800Y460900D02*
X21600D01*
X17000Y462700D02*
X18800Y460900D01*
X30600Y449100D02*
Y451900D01*
X28400Y454100D02*
X30600Y451900D01*
X25600Y454100D02*
X28400D01*
X23800Y455900D02*
X25600Y454100D01*
X37400Y442300D02*
Y445100D01*
X35200Y447300D02*
X37400Y445100D01*
X32400Y447300D02*
X35200D01*
X30600Y449100D02*
X32400Y447300D01*
X44200Y435500D02*
Y438300D01*
X42000Y440500D02*
X44200Y438300D01*
X39200Y440500D02*
X42000D01*
X37400Y442300D02*
X39200Y440500D01*
X51000Y428700D02*
Y431500D01*
X48800Y433700D02*
X51000Y431500D01*
X46000Y433700D02*
X48800D01*
X44200Y435500D02*
X46000Y433700D01*
X51000Y428700D02*
X52800Y426900D01*
X57800Y421900D02*
Y424700D01*
X55600Y426900D02*
X57800Y424700D01*
X52800Y426900D02*
X55600D01*
X57800Y421900D02*
X59600Y420100D01*
X64600Y415100D02*
Y417900D01*
X62400Y420100D02*
X64600Y417900D01*
X59600Y420100D02*
X62400D01*
X71400Y408300D02*
Y411100D01*
X69200Y413300D02*
X71400Y411100D01*
X66400Y413300D02*
X69200D01*
X64600Y415100D02*
X66400Y413300D01*
X78200Y401500D02*
Y404300D01*
X76000Y406500D02*
X78200Y404300D01*
X73200Y406500D02*
X76000D01*
X71400Y408300D02*
X73200Y406500D01*
X85000Y394700D02*
Y397500D01*
X82800Y399700D02*
X85000Y397500D01*
X80000Y399700D02*
X82800D01*
X78200Y401500D02*
X80000Y399700D01*
X85000Y394700D02*
X86800Y392900D01*
X89600D01*
X91800Y390700D01*
Y387900D02*
Y390700D01*
Y387900D02*
X93600Y386100D01*
X96400D01*
X98600Y383900D01*
Y381100D02*
Y383900D01*
Y381100D02*
X100400Y379300D01*
X118700D01*
X121400Y382000D01*
X128000D01*
X137100Y372900D01*
X98800Y441100D02*
X101400D01*
X96500Y443400D02*
X98800Y441100D01*
X96500Y443400D02*
Y464900D01*
X147700Y420200D02*
Y421700D01*
X128900Y440500D02*
X147700Y421700D01*
X128900Y440500D02*
Y442200D01*
X277700Y415700D02*
Y418100D01*
X276000Y419800D02*
X277700Y418100D01*
X273500Y419800D02*
X276000D01*
X293800Y405700D02*
Y407800D01*
X289700Y411900D02*
X293800Y407800D01*
X289700Y411900D02*
Y415100D01*
X285900Y406700D02*
Y409100D01*
X244100Y364900D02*
X285900Y406700D01*
X244100Y362300D02*
Y364900D01*
X235900Y373900D02*
X277700Y415700D01*
X235900Y371300D02*
Y373900D01*
X147200Y319900D02*
X150100Y317000D01*
Y289900D02*
Y317000D01*
Y289900D02*
X155000Y285000D01*
X268900Y288000D02*
Y329900D01*
X256800Y275900D02*
X268900Y288000D01*
X256800Y267600D02*
Y275900D01*
X157230Y379700D02*
X184200D01*
X132230Y404700D02*
X157230Y379700D01*
X124200Y404700D02*
X132230D01*
X150100Y329900D02*
Y368100D01*
X129000Y389200D02*
X150100Y368100D01*
X121500Y389200D02*
X129000D01*
X33900Y284300D02*
Y286300D01*
X32300Y287900D02*
X33900Y286300D01*
X26900Y287900D02*
X32300D01*
X43000Y278000D02*
X50000Y285000D01*
X34200Y278000D02*
X43000D01*
X32300Y279900D02*
X34200Y278000D01*
X32300Y279900D02*
Y282700D01*
X33900Y284300D01*
X25300Y254300D02*
X26900Y255900D01*
Y257900D01*
X25300Y270300D02*
X26900Y271900D01*
Y273900D01*
X25300Y275500D02*
X26900Y273900D01*
X25300Y275500D02*
Y278300D01*
X26900Y279900D01*
Y281900D01*
X25300Y259500D02*
X26900Y257900D01*
X25300Y259500D02*
Y262300D01*
X26900Y263900D01*
Y265900D01*
X25300Y267500D02*
X26900Y265900D01*
X25300Y267500D02*
Y270300D01*
Y283500D02*
X26900Y281900D01*
X25300Y283500D02*
Y286300D01*
X26900Y287900D01*
X19900Y254300D02*
X25300D01*
X18300Y255900D02*
X19900Y254300D01*
X18300Y279900D02*
Y282700D01*
Y279900D02*
X19900Y278300D01*
Y276300D02*
Y278300D01*
X18300Y274700D02*
X19900Y276300D01*
X18300Y271900D02*
Y274700D01*
Y271900D02*
X19900Y270300D01*
Y268300D02*
Y270300D01*
X18300Y266700D02*
X19900Y268300D01*
X18300Y287900D02*
X19900Y286300D01*
Y284300D02*
Y286300D01*
X18300Y282700D02*
X19900Y284300D01*
X18300Y263900D02*
Y266700D01*
Y263900D02*
X19900Y262300D01*
Y260300D02*
Y262300D01*
X18300Y258700D02*
X19900Y260300D01*
X18300Y255900D02*
Y258700D01*
X12900Y287900D02*
X18300D01*
X11300Y286300D02*
X12900Y287900D01*
X11300Y283500D02*
Y286300D01*
Y283500D02*
X12900Y281900D01*
X11300Y267500D02*
Y270300D01*
Y267500D02*
X12900Y265900D01*
Y263900D02*
Y265900D01*
X11300Y262300D02*
X12900Y263900D01*
X11300Y259500D02*
Y262300D01*
Y259500D02*
X12900Y257900D01*
Y279900D02*
Y281900D01*
X11300Y278300D02*
X12900Y279900D01*
X11300Y275500D02*
Y278300D01*
Y275500D02*
X12900Y273900D01*
Y271900D02*
Y273900D01*
X11300Y270300D02*
X12900Y271900D01*
Y255900D02*
Y257900D01*
X11300Y254300D02*
X12900Y255900D01*
X5900Y254300D02*
X11300D01*
X4300Y255900D02*
X5900Y254300D01*
X4300Y255900D02*
Y258700D01*
X5900Y260300D01*
Y262300D01*
X4300Y263900D02*
X5900Y262300D01*
X4300Y263900D02*
Y266700D01*
Y303900D02*
Y306700D01*
Y303900D02*
X5900Y302300D01*
Y300300D02*
Y302300D01*
X4300Y298700D02*
X5900Y300300D01*
X4300Y282700D02*
X5900Y284300D01*
Y286300D01*
X4300Y287900D02*
X5900Y286300D01*
X4300Y287900D02*
Y290700D01*
X5900Y292300D01*
Y294300D01*
X4300Y295900D02*
X5900Y294300D01*
X4300Y295900D02*
Y298700D01*
Y266700D02*
X5900Y268300D01*
Y270300D01*
X4300Y271900D02*
X5900Y270300D01*
X4300Y271900D02*
Y274700D01*
X5900Y276300D01*
Y278300D01*
X4300Y279900D02*
X5900Y278300D01*
X4300Y279900D02*
Y282700D01*
Y343900D02*
Y346700D01*
Y343900D02*
X5900Y342300D01*
Y340300D02*
Y342300D01*
X4300Y338700D02*
X5900Y340300D01*
X4300Y322700D02*
X5900Y324300D01*
Y326300D01*
X4300Y327900D02*
X5900Y326300D01*
X4300Y327900D02*
Y330700D01*
X5900Y332300D01*
Y334300D01*
X4300Y335900D02*
X5900Y334300D01*
X4300Y335900D02*
Y338700D01*
Y306700D02*
X5900Y308300D01*
Y310300D01*
X4300Y311900D02*
X5900Y310300D01*
X4300Y311900D02*
Y314700D01*
X5900Y316300D01*
Y318300D01*
X4300Y319900D02*
X5900Y318300D01*
X4300Y319900D02*
Y322700D01*
Y383900D02*
Y386700D01*
Y383900D02*
X5900Y382300D01*
Y380300D02*
Y382300D01*
X4300Y378700D02*
X5900Y380300D01*
X4300Y362700D02*
X5900Y364300D01*
Y366300D01*
X4300Y367900D02*
X5900Y366300D01*
X4300Y367900D02*
Y370700D01*
X5900Y372300D01*
Y374300D01*
X4300Y375900D02*
X5900Y374300D01*
X4300Y375900D02*
Y378700D01*
Y346700D02*
X5900Y348300D01*
Y350300D01*
X4300Y351900D02*
X5900Y350300D01*
X4300Y351900D02*
Y354700D01*
X5900Y356300D01*
Y358300D01*
X4300Y359900D02*
X5900Y358300D01*
X4300Y359900D02*
Y362700D01*
Y423900D02*
Y426700D01*
Y423900D02*
X5900Y422300D01*
Y420300D02*
Y422300D01*
X4300Y418700D02*
X5900Y420300D01*
X4300Y402700D02*
X5900Y404300D01*
Y406300D01*
X4300Y407900D02*
X5900Y406300D01*
X4300Y407900D02*
Y410700D01*
X5900Y412300D01*
Y414300D01*
X4300Y415900D02*
X5900Y414300D01*
X4300Y415900D02*
Y418700D01*
Y386700D02*
X5900Y388300D01*
Y390300D01*
X4300Y391900D02*
X5900Y390300D01*
X4300Y391900D02*
Y394700D01*
X5900Y396300D01*
Y398300D01*
X4300Y399900D02*
X5900Y398300D01*
X4300Y399900D02*
Y402700D01*
Y439900D02*
Y442700D01*
Y439900D02*
X5900Y438300D01*
Y436300D02*
Y438300D01*
X4300Y434700D02*
X5900Y436300D01*
X4300Y431900D02*
Y434700D01*
Y431900D02*
X5900Y430300D01*
Y428300D02*
Y430300D01*
X4300Y426700D02*
X5900Y428300D01*
X4300Y455900D02*
Y458700D01*
Y455900D02*
X5900Y454300D01*
Y452300D02*
Y454300D01*
X4300Y450700D02*
X5900Y452300D01*
X4300Y447900D02*
Y450700D01*
Y447900D02*
X5900Y446300D01*
Y444300D02*
Y446300D01*
X4300Y442700D02*
X5900Y444300D01*
X4300Y458700D02*
X5900Y460300D01*
Y462300D01*
X4300Y463900D02*
X5900Y462300D01*
X4300Y463900D02*
Y466700D01*
X5900Y468300D01*
Y470300D01*
X4300Y471900D02*
X5900Y470300D01*
X4300Y471900D02*
Y474700D01*
X6800Y477200D01*
X10400D01*
X15800Y471800D01*
X25400Y465000D02*
X27600Y462800D01*
Y460000D02*
Y462800D01*
X15800Y471800D02*
X18600D01*
X20800Y469600D01*
Y466800D02*
Y469600D01*
Y466800D02*
X22600Y465000D01*
X25400D01*
X39000Y451400D02*
X41200Y449200D01*
Y446400D02*
Y449200D01*
X29400Y458200D02*
X32200D01*
X27600Y460000D02*
X29400Y458200D01*
X32200D02*
X34400Y456000D01*
Y453200D02*
Y456000D01*
Y453200D02*
X36200Y451400D01*
X39000D01*
X52600Y437800D02*
X54800Y435600D01*
Y432800D02*
Y435600D01*
X43000Y444600D02*
X45800D01*
X41200Y446400D02*
X43000Y444600D01*
X45800D02*
X48000Y442400D01*
Y439600D02*
Y442400D01*
Y439600D02*
X49800Y437800D01*
X52600D01*
X66200Y424200D02*
X68400Y422000D01*
Y419200D02*
Y422000D01*
X56600Y431000D02*
X59400D01*
X54800Y432800D02*
X56600Y431000D01*
X59400D02*
X61600Y428800D01*
Y426000D02*
Y428800D01*
Y426000D02*
X63400Y424200D01*
X66200D01*
X77000Y410600D02*
X79800D01*
X75200Y412400D02*
X77000Y410600D01*
X75200Y412400D02*
Y415200D01*
X73000Y417400D02*
X75200Y415200D01*
X68400Y419200D02*
X70200Y417400D01*
X73000D01*
X83800Y403800D02*
X86600D01*
X82000Y405600D02*
X83800Y403800D01*
X82000Y405600D02*
Y408400D01*
X79800Y410600D02*
X82000Y408400D01*
X90600Y397000D02*
X93400D01*
X88800Y398800D02*
X90600Y397000D01*
X88800Y398800D02*
Y401600D01*
X86600Y403800D02*
X88800Y401600D01*
X93400Y397000D02*
X95600Y394800D01*
Y392000D02*
Y394800D01*
Y392000D02*
X97400Y390200D01*
X100200D01*
X102400Y388000D01*
Y385200D02*
Y388000D01*
Y385200D02*
X104200Y383400D01*
X115700D01*
X121500Y389200D01*
X150100Y329900D02*
X155000Y325000D01*
X45400Y480200D02*
X48300D01*
X44100Y478900D02*
X45400Y480200D01*
X44100Y476000D02*
Y478900D01*
X78000Y455900D02*
Y458900D01*
X60400Y476500D02*
X78000Y458900D01*
X60400Y476500D02*
Y478900D01*
X70400Y447000D02*
Y449700D01*
X44100Y476000D02*
X70400Y449700D01*
X280000Y450000D02*
Y486900D01*
X288400Y495300D01*
X434400D01*
X437000Y492700D01*
Y489800D02*
Y492700D01*
X271700Y324500D02*
X437000Y489800D01*
X271700Y286800D02*
Y324500D01*
X259600Y274700D02*
X271700Y286800D01*
X236200Y234700D02*
X247500Y246000D01*
X182600Y150100D02*
X224900Y192400D01*
X172970Y150100D02*
X182600D01*
X170100Y152970D02*
X172970Y150100D01*
X170100Y152970D02*
Y179900D01*
X165000Y185000D02*
X170100Y179900D01*
X224900Y192400D02*
Y215100D01*
X236200Y226400D01*
Y234700D01*
X247500Y246000D02*
Y254300D01*
X259600Y266400D01*
Y274700D01*
X290000Y487600D02*
X294800Y492400D01*
X298600D01*
X302100Y488900D01*
X305900D01*
X309400Y492400D01*
X313200D01*
X316700Y488900D01*
X320500D01*
X331300D02*
X335100D01*
X327800Y492400D02*
X331300Y488900D01*
X324000Y492400D02*
X327800D01*
X320500Y488900D02*
X324000Y492400D01*
X345900Y488900D02*
X349700D01*
X342400Y492400D02*
X345900Y488900D01*
X338600Y492400D02*
X342400D01*
X335100Y488900D02*
X338600Y492400D01*
X360500Y488900D02*
X364300D01*
X357000Y492400D02*
X360500Y488900D01*
X353200Y492400D02*
X357000D01*
X349700Y488900D02*
X353200Y492400D01*
X375100Y488900D02*
X378900D01*
X371600Y492400D02*
X375100Y488900D01*
X367800Y492400D02*
X371600D01*
X364300Y488900D02*
X367800Y492400D01*
X389700Y488900D02*
X393500D01*
X386200Y492400D02*
X389700Y488900D01*
X382400Y492400D02*
X386200D01*
X378900Y488900D02*
X382400Y492400D01*
X404300Y488900D02*
X408100D01*
X400800Y492400D02*
X404300Y488900D01*
X397000Y492400D02*
X400800D01*
X393500Y488900D02*
X397000Y492400D01*
X418900Y488900D02*
X422300D01*
X415400Y492400D02*
X418900Y488900D01*
X411600Y492400D02*
X415400D01*
X408100Y488900D02*
X411600Y492400D01*
X422300Y488900D02*
X425800Y492400D01*
X429800D01*
X431300Y490900D01*
Y488100D02*
Y490900D01*
X429000Y485800D02*
X431300Y488100D01*
X425600Y485800D02*
X429000D01*
X423800Y484000D02*
X425600Y485800D01*
X423800Y480800D02*
Y484000D01*
X421500Y478500D02*
X423800Y480800D01*
X414000Y471200D02*
X416300Y473500D01*
Y476700D01*
X418100Y478500D01*
X421500D01*
X406500Y463900D02*
X408800Y466200D01*
Y469400D01*
X410600Y471200D01*
X414000D01*
X399000Y456600D02*
X401300Y458900D01*
Y462100D01*
X403100Y463900D01*
X406500D01*
X391500Y449300D02*
X393800Y451600D01*
Y454800D01*
X395600Y456600D01*
X399000D01*
X384000Y442000D02*
X386300Y444300D01*
Y447500D01*
X388100Y449300D01*
X391500D01*
X376500Y434700D02*
X378800Y437000D01*
Y440200D01*
X380600Y442000D01*
X384000D01*
X369000Y427400D02*
X371300Y429700D01*
Y432900D01*
X373100Y434700D01*
X376500D01*
X361500Y420100D02*
X363800Y422400D01*
Y425600D01*
X365600Y427400D01*
X369000D01*
X354000Y412800D02*
X356300Y415100D01*
Y418300D01*
X358100Y420100D01*
X361500D01*
X346500Y405500D02*
X348800Y407800D01*
Y411000D01*
X350600Y412800D01*
X354000D01*
X339000Y398200D02*
X341300Y400500D01*
Y403700D01*
X343100Y405500D01*
X346500D01*
X333800Y396400D02*
X335600Y398200D01*
X339000D01*
X324000Y383600D02*
X326300Y385900D01*
Y389100D01*
X316500Y376300D02*
X318800Y378600D01*
Y381800D01*
X320600Y383600D01*
X324000D01*
X309000Y369000D02*
X311300Y371300D01*
Y374500D01*
X313100Y376300D01*
X316500D01*
X301500Y361700D02*
X303800Y364000D01*
Y367200D01*
X305600Y369000D01*
X309000D01*
X294000Y354400D02*
X296300Y356700D01*
Y359900D01*
X298100Y361700D01*
X301500D01*
X286500Y347100D02*
X288800Y349400D01*
Y352600D01*
X290600Y354400D01*
X294000D01*
X279000Y339800D02*
X281300Y342100D01*
Y345300D01*
X283100Y347100D01*
X286500D01*
X268900Y329900D02*
X273800Y334800D01*
Y338000D01*
X275600Y339800D01*
X244700Y255500D02*
X256800Y267600D01*
X225700Y220000D02*
X233400Y227700D01*
X170000Y220000D02*
X225700D01*
X165000Y225000D02*
X170000Y220000D01*
X290000Y465400D02*
Y487600D01*
Y465400D02*
X296600Y458800D01*
X331500Y390900D02*
X333800Y393200D01*
Y396400D01*
X326300Y389100D02*
X328100Y390900D01*
X331500D01*
X275600Y339800D02*
X279000D01*
X213500Y215000D02*
X221600Y206900D01*
Y193700D02*
Y206900D01*
X182900Y155000D02*
X221600Y193700D01*
X175000Y155000D02*
X182900D01*
X215500Y245000D02*
Y245400D01*
X233400Y227700D02*
Y235900D01*
X244700Y247200D01*
Y255500D01*
X242200Y249300D02*
Y256600D01*
X253700Y268100D01*
X230300Y237400D02*
X242200Y249300D01*
X223500Y237400D02*
X230300D01*
X198800Y185200D02*
X205000Y191400D01*
Y195000D01*
X209400Y199400D01*
Y210600D01*
X205000Y215000D02*
X209400Y210600D01*
X213500Y225000D02*
Y235000D01*
X210600Y237900D02*
X213500Y235000D01*
X253700Y268100D02*
Y277800D01*
X256700Y280800D01*
Y285000D01*
X259400Y287700D01*
X262400D01*
X264500Y289800D01*
Y292700D01*
X262000Y295200D02*
X264500Y292700D01*
X262000Y295200D02*
Y298300D01*
X264500Y300800D01*
Y303700D01*
X262000Y306200D02*
X264500Y303700D01*
X262000Y306200D02*
Y309300D01*
X264500Y311800D01*
Y314700D01*
X262000Y317200D02*
X264500Y314700D01*
X262000Y317200D02*
Y320300D01*
X264500Y322800D01*
Y325700D01*
X262000Y328200D02*
X264500Y325700D01*
X262000Y328200D02*
Y331300D01*
X264500Y333800D01*
Y338000D01*
X266300Y339800D01*
X269700D01*
X272000Y342100D01*
Y345300D01*
X273800Y347100D01*
X277200D01*
X279500Y349400D01*
Y352600D01*
X287000Y356700D02*
Y359900D01*
X284700Y354400D02*
X287000Y356700D01*
X281300Y354400D02*
X284700D01*
X279500Y352600D02*
X281300Y354400D01*
X294500Y364000D02*
Y367200D01*
X292200Y361700D02*
X294500Y364000D01*
X288800Y361700D02*
X292200D01*
X287000Y359900D02*
X288800Y361700D01*
X302000Y371300D02*
Y374500D01*
X299700Y369000D02*
X302000Y371300D01*
X296300Y369000D02*
X299700D01*
X294500Y367200D02*
X296300Y369000D01*
X309500Y378600D02*
Y381800D01*
X307200Y376300D02*
X309500Y378600D01*
X303800Y376300D02*
X307200D01*
X302000Y374500D02*
X303800Y376300D01*
X317000Y385900D02*
Y389100D01*
X314700Y383600D02*
X317000Y385900D01*
X311300Y383600D02*
X314700D01*
X309500Y381800D02*
X311300Y383600D01*
X324500Y393200D02*
Y396400D01*
X322200Y390900D02*
X324500Y393200D01*
X318800Y390900D02*
X322200D01*
X317000Y389100D02*
X318800Y390900D01*
X332000Y400500D02*
Y403700D01*
X329700Y398200D02*
X332000Y400500D01*
X326300Y398200D02*
X329700D01*
X324500Y396400D02*
X326300Y398200D01*
X339500Y407800D02*
Y411000D01*
X337200Y405500D02*
X339500Y407800D01*
X333800Y405500D02*
X337200D01*
X332000Y403700D02*
X333800Y405500D01*
X347000Y415100D02*
Y418300D01*
X344700Y412800D02*
X347000Y415100D01*
X341300Y412800D02*
X344700D01*
X339500Y411000D02*
X341300Y412800D01*
X354500Y422400D02*
Y425600D01*
X352200Y420100D02*
X354500Y422400D01*
X348800Y420100D02*
X352200D01*
X347000Y418300D02*
X348800Y420100D01*
X362000Y429700D02*
Y432900D01*
X359700Y427400D02*
X362000Y429700D01*
X356300Y427400D02*
X359700D01*
X354500Y425600D02*
X356300Y427400D01*
X369500Y437000D02*
Y440200D01*
X367200Y434700D02*
X369500Y437000D01*
X363800Y434700D02*
X367200D01*
X362000Y432900D02*
X363800Y434700D01*
X377000Y444300D02*
Y447500D01*
X374700Y442000D02*
X377000Y444300D01*
X371300Y442000D02*
X374700D01*
X369500Y440200D02*
X371300Y442000D01*
X384500Y451600D02*
Y454800D01*
X382200Y449300D02*
X384500Y451600D01*
X378800Y449300D02*
X382200D01*
X377000Y447500D02*
X378800Y449300D01*
X392000Y458900D02*
Y462100D01*
X389700Y456600D02*
X392000Y458900D01*
X386300Y456600D02*
X389700D01*
X384500Y454800D02*
X386300Y456600D01*
X399500Y466200D02*
Y469400D01*
X397200Y463900D02*
X399500Y466200D01*
X393800Y463900D02*
X397200D01*
X392000Y462100D02*
X393800Y463900D01*
X407000Y473500D02*
Y476700D01*
X404700Y471200D02*
X407000Y473500D01*
X401300Y471200D02*
X404700D01*
X399500Y469400D02*
X401300Y471200D01*
X412200Y478500D02*
X414200Y480500D01*
X408800Y478500D02*
X412200D01*
X407000Y476700D02*
X408800Y478500D01*
X414200Y480500D02*
Y483700D01*
X412400Y485500D02*
X414200Y483700D01*
X408100Y485500D02*
X412400D01*
X404600Y482000D02*
X408100Y485500D01*
X400800Y482000D02*
X404600D01*
X397300Y485500D02*
X400800Y482000D01*
X393500Y485500D02*
X397300D01*
X378900D02*
X382700D01*
X386200Y482000D01*
X390000D01*
X393500Y485500D01*
X364300D02*
X368100D01*
X371600Y482000D01*
X375400D01*
X378900Y485500D01*
X349700D02*
X353500D01*
X357000Y482000D01*
X360800D01*
X364300Y485500D01*
X338900D02*
X342400Y482000D01*
X346200D01*
X349700Y485500D01*
X330000Y439917D02*
Y440316D01*
X335100Y485500D02*
X338900D01*
X327800Y482000D02*
X331600D01*
X335100Y485500D01*
X324300D02*
X327800Y482000D01*
X320500Y485500D02*
X324300D01*
X314000Y479000D02*
X320500Y485500D01*
X296600Y458800D02*
X311200D01*
X320000Y450000D01*
X330000Y440316D02*
X335000Y445317D01*
Y453400D01*
X331700Y456700D02*
X335000Y453400D01*
X319100Y456700D02*
X331700D01*
X314000Y461800D02*
Y479000D01*
Y461800D02*
X319100Y456700D01*
X230900Y242300D02*
Y245100D01*
X232600Y246800D01*
X236200D01*
X240100Y250700D01*
Y257800D01*
X244500Y262200D01*
Y265300D01*
X246200Y267000D01*
X249300D01*
X251300Y269000D01*
Y270400D01*
X249800Y271900D02*
X251300Y270400D01*
X249800Y271900D02*
Y274400D01*
X251200Y275800D01*
Y278400D01*
X254100Y281300D01*
Y285800D01*
X259000Y290700D01*
Y293600D01*
X256500Y296100D02*
X259000Y293600D01*
X256500Y296100D02*
Y299000D01*
X259000Y301500D01*
Y304600D01*
Y312500D02*
Y315600D01*
X256500Y310000D02*
X259000Y312500D01*
X256500Y307100D02*
Y310000D01*
Y307100D02*
X259000Y304600D01*
Y323500D02*
Y326600D01*
X256500Y321000D02*
X259000Y323500D01*
X256500Y318100D02*
Y321000D01*
Y318100D02*
X259000Y315600D01*
Y334500D02*
Y337600D01*
X256500Y332000D02*
X259000Y334500D01*
X256500Y329100D02*
Y332000D01*
Y329100D02*
X259000Y326600D01*
Y337600D02*
X261400Y340000D01*
Y343000D01*
X263100Y344700D01*
X266000D01*
X267900Y346600D01*
Y349600D01*
X269600Y351300D01*
X272500D01*
X274400Y353200D01*
X279000Y357900D02*
X280900Y359800D01*
X276100Y357900D02*
X279000D01*
X274400Y356200D02*
X276100Y357900D01*
X274400Y353200D02*
Y356200D01*
X285500Y364500D02*
X287400Y366400D01*
X282600Y364500D02*
X285500D01*
X280900Y362800D02*
X282600Y364500D01*
X280900Y359800D02*
Y362800D01*
X292000Y371100D02*
X293900Y373000D01*
X289100Y371100D02*
X292000D01*
X287400Y369400D02*
X289100Y371100D01*
X287400Y366400D02*
Y369400D01*
X298500Y377700D02*
X300400Y379600D01*
X295600Y377700D02*
X298500D01*
X293900Y376000D02*
X295600Y377700D01*
X293900Y373000D02*
Y376000D01*
X305000Y384300D02*
X306900Y386200D01*
X302100Y384300D02*
X305000D01*
X300400Y382600D02*
X302100Y384300D01*
X300400Y379600D02*
Y382600D01*
X311500Y390900D02*
X313400Y392800D01*
X308600Y390900D02*
X311500D01*
X306900Y389200D02*
X308600Y390900D01*
X306900Y386200D02*
Y389200D01*
X318000Y397500D02*
X319900Y399400D01*
X315100Y397500D02*
X318000D01*
X313400Y395800D02*
X315100Y397500D01*
X313400Y392800D02*
Y395800D01*
X324500Y404100D02*
X326400Y406000D01*
X321600Y404100D02*
X324500D01*
X319900Y402400D02*
X321600Y404100D01*
X319900Y399400D02*
Y402400D01*
X331000Y410700D02*
X332900Y412600D01*
X328100Y410700D02*
X331000D01*
X326400Y409000D02*
X328100Y410700D01*
X326400Y406000D02*
Y409000D01*
X337500Y417300D02*
X339400Y419200D01*
X334600Y417300D02*
X337500D01*
X332900Y415600D02*
X334600Y417300D01*
X332900Y412600D02*
Y415600D01*
X344000Y423900D02*
X345900Y425800D01*
X341100Y423900D02*
X344000D01*
X339400Y422200D02*
X341100Y423900D01*
X339400Y419200D02*
Y422200D01*
X350500Y430500D02*
X352400Y432400D01*
X347600Y430500D02*
X350500D01*
X345900Y428800D02*
X347600Y430500D01*
X345900Y425800D02*
Y428800D01*
X357000Y437100D02*
X358900Y439000D01*
X354100Y437100D02*
X357000D01*
X352400Y435400D02*
X354100Y437100D01*
X352400Y432400D02*
Y435400D01*
X363500Y443700D02*
X365400Y445600D01*
X360600Y443700D02*
X363500D01*
X358900Y442000D02*
X360600Y443700D01*
X358900Y439000D02*
Y442000D01*
X370000Y450300D02*
X371900Y452200D01*
X367100Y450300D02*
X370000D01*
X365400Y448600D02*
X367100Y450300D01*
X365400Y445600D02*
Y448600D01*
X376500Y456900D02*
X378400Y458800D01*
X373600Y456900D02*
X376500D01*
X371900Y455200D02*
X373600Y456900D01*
X371900Y452200D02*
Y455200D01*
X383000Y463500D02*
X384900Y465400D01*
X380100Y463500D02*
X383000D01*
X378400Y461800D02*
X380100Y463500D01*
X378400Y458800D02*
Y461800D01*
X384900Y468400D02*
X386600Y470100D01*
X384900Y465400D02*
Y468400D01*
X386600Y470100D02*
X390000D01*
X391800Y468300D01*
X393800D01*
X398400Y472900D01*
Y475500D01*
X395900Y478000D02*
X398400Y475500D01*
X392600Y478000D02*
X395900D01*
X390200Y475600D02*
X392600Y478000D01*
X386100Y475600D02*
X390200D01*
X383500Y478200D02*
X386100Y475600D01*
X380100Y478200D02*
X383500D01*
X377500Y475600D02*
X380100Y478200D01*
X374500Y475600D02*
X377500D01*
X371900Y478200D02*
X374500Y475600D01*
X368500Y478200D02*
X371900D01*
X365900Y475600D02*
X368500Y478200D01*
X362900Y475600D02*
X365900D01*
X360300Y478200D02*
X362900Y475600D01*
X348700Y478200D02*
X351300Y475600D01*
X345300Y478200D02*
X348700D01*
X342700Y475600D02*
X345300Y478200D01*
X339700Y475600D02*
X342700D01*
X337100Y478200D02*
X339700Y475600D01*
X333700Y478200D02*
X337100D01*
X331100Y475600D02*
X333700Y478200D01*
X328100Y475600D02*
X331100D01*
X325500Y478200D02*
X328100Y475600D01*
X322100Y478200D02*
X325500D01*
X318700Y474800D02*
X322100Y478200D01*
X318700Y471900D02*
Y474800D01*
Y471900D02*
X320800Y469800D01*
X318700Y465000D02*
X320800Y467100D01*
Y469800D01*
X318700Y463400D02*
Y465000D01*
Y463400D02*
X322600Y459500D01*
X327300D01*
X329500Y461700D01*
X331700D01*
X333900Y459500D01*
X335400D01*
X337600Y461700D01*
X339800D01*
X342000Y459500D01*
X344100D01*
X346400Y464300D02*
X350300D01*
X352400Y462200D01*
X320000Y439917D02*
X327016Y432900D01*
X349500Y445000D02*
X352000Y447500D01*
Y453700D01*
X350800Y454900D02*
X352000Y453700D01*
X350800Y454900D02*
Y457400D01*
X352400Y459000D01*
Y462200D01*
X214300Y250100D02*
X217500D01*
X327016Y432900D02*
X340400D01*
X349500Y442000D01*
Y445000D01*
X175000Y225000D02*
X188900D01*
X195000Y231100D01*
Y245000D01*
X344100Y459500D02*
X345400Y460800D01*
Y463300D01*
X346400Y464300D01*
X351300Y475600D02*
X354300D01*
X356900Y478200D01*
X360300D01*
X229600Y241000D02*
X230900Y242300D01*
X226600Y241000D02*
X229600D01*
X217500Y250100D02*
X226600Y241000D01*
X210600Y246400D02*
X214300Y250100D01*
X210600Y237900D02*
Y246400D01*
X195000Y225000D02*
X205000Y235000D01*
Y248400D01*
X211600Y255000D01*
X280000Y440000D02*
X281100Y438900D01*
X283900Y421700D02*
X285100Y422900D01*
X287600Y432200D02*
X288600Y431200D01*
Y422900D02*
Y431200D01*
Y422900D02*
X289700Y421800D01*
X291400D01*
X300300Y430700D01*
X302500D01*
X304300Y428900D01*
Y427200D02*
Y428900D01*
X292200Y415100D02*
X304300Y427200D01*
X292200Y413400D02*
Y415100D01*
Y413400D02*
X293500Y412100D01*
X295500D01*
X313600Y430200D01*
X334800D01*
X336900Y428100D01*
Y423800D02*
Y428100D01*
X259200Y346100D02*
X336900Y423800D01*
X254800Y350600D02*
X326400Y422200D01*
Y424500D01*
X324200Y426700D02*
X326400Y424500D01*
X319200Y426700D02*
X324200D01*
X317500Y425000D02*
X319200Y426700D01*
X317500Y422000D02*
Y425000D01*
X315600Y420100D02*
X317500Y422000D01*
X312700Y420100D02*
X315600D01*
X311000Y418400D02*
X312700Y420100D01*
X311000Y415400D02*
Y418400D01*
X309100Y413500D02*
X311000Y415400D01*
X306200Y413500D02*
X309100D01*
X304500Y411800D02*
X306200Y413500D01*
X304500Y408800D02*
Y411800D01*
X298000Y402200D02*
Y405200D01*
X299700Y406900D01*
X302600D01*
X304500Y408800D01*
X291500Y395600D02*
Y398600D01*
X293200Y400300D01*
X296100D01*
X298000Y402200D01*
X285000Y389000D02*
Y392000D01*
X286700Y393700D01*
X289600D01*
X291500Y395600D01*
X278500Y382400D02*
Y385400D01*
X280200Y387100D01*
X283100D01*
X285000Y389000D01*
X272000Y375800D02*
Y378800D01*
X273700Y380500D01*
X276600D01*
X278500Y382400D01*
X265500Y369200D02*
Y372200D01*
X267200Y373900D01*
X270100D01*
X272000Y375800D01*
X259000Y362600D02*
Y365600D01*
X260700Y367300D01*
X263600D01*
X265500Y369200D01*
X254200Y360700D02*
X257100D01*
X259000Y362600D01*
X251500Y358000D02*
X254200Y360700D01*
X251500Y353000D02*
Y358000D01*
X249000Y350500D02*
X251500Y353000D01*
X249000Y347600D02*
Y350500D01*
Y336600D02*
Y339500D01*
Y336600D02*
X251500Y334100D01*
X249000Y339500D02*
X251500Y342000D01*
Y345100D01*
X249000Y347600D02*
X251500Y345100D01*
X254800Y347900D02*
Y350600D01*
Y347900D02*
X256600Y346100D01*
X259200D01*
X251500Y331000D02*
Y334100D01*
X249000Y328500D02*
X251500Y331000D01*
X249000Y325600D02*
X251500Y323100D01*
X249000Y325600D02*
Y328500D01*
X251500Y320000D02*
Y323100D01*
X249000Y317500D02*
X251500Y320000D01*
X249000Y314600D02*
X251500Y312100D01*
X249000Y314600D02*
Y317500D01*
Y306700D02*
X251500Y309200D01*
Y312100D01*
X249000Y303800D02*
Y306700D01*
Y303800D02*
X251500Y301300D01*
Y298200D02*
Y301300D01*
X249000Y295700D02*
X251500Y298200D01*
X249000Y292800D02*
X251500Y290300D01*
X249000Y292800D02*
Y295700D01*
X229700Y255000D02*
X247500Y272800D01*
X211600Y255000D02*
X229700D01*
X281100Y422900D02*
Y438900D01*
Y422900D02*
X282300Y421700D01*
X283900D01*
X285100Y422900D02*
Y431500D01*
X285800Y432200D01*
X287600D01*
X247500Y272800D02*
Y279500D01*
X251500Y283500D01*
Y290300D01*
X160000Y440000D02*
X164900Y444900D01*
Y454200D01*
X180500Y469800D01*
Y475000D01*
X178400Y477100D02*
X180500Y475000D01*
X152500Y477100D02*
X154600Y479200D01*
X149400Y477100D02*
X152500D01*
X147300Y479200D02*
X149400Y477100D01*
X144000Y479200D02*
X147300D01*
X141900Y477100D02*
X144000Y479200D01*
X138800Y477100D02*
X141900D01*
X136700Y479200D02*
X138800Y477100D01*
X133400Y479200D02*
X136700D01*
X131300Y477100D02*
X133400Y479200D01*
X128200Y477100D02*
X131300D01*
X126100Y479200D02*
X128200Y477100D01*
X122800Y479200D02*
X126100D01*
X120700Y477100D02*
X122800Y479200D01*
X117600Y477100D02*
X120700D01*
X115500Y479200D02*
X117600Y477100D01*
X112200Y479200D02*
X115500D01*
X110100Y477100D02*
X112200Y479200D01*
X107000Y477100D02*
X110100D01*
X104900Y479200D02*
X107000Y477100D01*
X101600Y479200D02*
X104900D01*
X99500Y477100D02*
X101600Y479200D01*
X96400Y477100D02*
X99500D01*
X94300Y479200D02*
X96400Y477100D01*
X91000Y479200D02*
X94300D01*
X88900Y477100D02*
X91000Y479200D01*
X85800Y477100D02*
X88900D01*
X83700Y479200D02*
X85800Y477100D01*
X80400Y479200D02*
X83700D01*
X78300Y477100D02*
X80400Y479200D01*
X78300Y473600D02*
Y477100D01*
Y473600D02*
X86000Y465900D01*
Y450400D02*
Y465900D01*
Y450400D02*
X87300Y449100D01*
X90900D01*
X91900Y450100D01*
Y466600D01*
X89900Y468600D02*
X91900Y466600D01*
X89900Y468600D02*
Y471600D01*
X91700Y473400D01*
X95900D01*
X98000Y471300D01*
X101100D01*
X103200Y473400D01*
X106500D01*
X108600Y471300D01*
X111700D01*
X113800Y473400D01*
X117100D01*
X119200Y471300D01*
X122300D01*
X124400Y473400D01*
X127700D01*
X129800Y471300D01*
X132900D01*
X135000Y473400D01*
X138300D01*
X140400Y471300D01*
X143500D01*
X145600Y473400D01*
X148900D01*
X151000Y471300D01*
Y468500D02*
Y471300D01*
X149400Y466900D02*
X151000Y468500D01*
X145900Y466900D02*
X149400D01*
X143400Y464400D02*
X145900Y466900D01*
X140700Y464400D02*
X143400D01*
X138200Y466900D02*
X140700Y464400D01*
X134700Y466900D02*
X138200D01*
X123500D02*
X127000D01*
X121000Y464400D02*
X123500Y466900D01*
X104600D02*
X107100Y464400D01*
X98500Y466900D02*
X104600D01*
X96500Y464900D02*
X98500Y466900D01*
X101400Y441100D02*
X103600Y443300D01*
Y457700D01*
X106500Y460600D01*
X110300D01*
X112900Y458000D01*
X116300D01*
X119200Y460900D01*
X122800D01*
X125400Y458300D01*
X128800D01*
X131700Y461200D01*
X136400D01*
X138500Y459100D01*
Y455700D02*
Y459100D01*
X137100Y454300D02*
X138500Y455700D01*
X134400Y454300D02*
X137100D01*
X131900Y451800D02*
X134400Y454300D01*
X128500Y451800D02*
X131900D01*
X125900Y454400D02*
X128500Y451800D01*
X122300Y454400D02*
X125900D01*
X119400Y451500D02*
X122300Y454400D01*
X116000Y451500D02*
X119400D01*
X113400Y454100D02*
X116000Y451500D01*
X110300Y454100D02*
X113400D01*
X108400Y452200D02*
X110300Y454100D01*
X108400Y434400D02*
Y452200D01*
Y434400D02*
X109900Y432900D01*
Y430000D02*
Y432900D01*
Y430000D02*
X112200Y427700D01*
X115100D01*
X116600Y426200D01*
Y423300D02*
Y426200D01*
Y423300D02*
X118900Y421000D01*
X121800D01*
X123300Y419500D01*
Y416600D02*
Y419500D01*
Y416600D02*
X125600Y414300D01*
X128500D01*
X130000Y412800D01*
Y409900D02*
Y412800D01*
Y409900D02*
X131600Y408300D01*
X138800D01*
X141100Y406000D01*
X144000D01*
X145500Y404500D01*
Y401600D02*
Y404500D01*
Y401600D02*
X149400Y397700D01*
X152300D01*
X153800Y396200D01*
Y393300D02*
Y396200D01*
Y393300D02*
X157700Y389400D01*
X160600D01*
X162100Y387900D01*
Y385000D02*
Y387900D01*
Y385000D02*
X163700Y383400D01*
X193600D01*
X175000Y345000D02*
X200700D01*
X202400Y346700D01*
Y374600D01*
X193600Y383400D02*
X202400Y374600D01*
X175000Y335000D02*
X225000D01*
X154600Y479200D02*
X157900D01*
X160000Y477100D01*
X178400D01*
X210000Y450000D02*
Y489700D01*
X207100Y492600D02*
X210000Y489700D01*
X204100Y492600D02*
X207100D01*
X202000Y494700D02*
X204100Y492600D01*
X191400Y494700D02*
X193500Y492600D01*
X188100Y494700D02*
X191400D01*
X186000Y492600D02*
X188100Y494700D01*
X182900Y492600D02*
X186000D01*
X180800Y494700D02*
X182900Y492600D01*
X177500Y494700D02*
X180800D01*
X175400Y492600D02*
X177500Y494700D01*
X193500Y492600D02*
X196600D01*
X198700Y494700D01*
X202000D01*
X164800Y492600D02*
X166900Y494700D01*
X170200D01*
X172300Y492600D01*
X175400D01*
X154200D02*
X156300Y494700D01*
X159600D01*
X161700Y492600D01*
X164800D01*
X143600D02*
X145700Y494700D01*
X149000D01*
X151100Y492600D01*
X154200D01*
X133000D02*
X135100Y494700D01*
X138400D01*
X140500Y492600D01*
X143600D01*
X122400D02*
X124500Y494700D01*
X127800D01*
X129900Y492600D01*
X133000D01*
X111800D02*
X113900Y494700D01*
X117200D01*
X119300Y492600D01*
X122400D01*
X101200D02*
X103300Y494700D01*
X106600D01*
X108700Y492600D01*
X111800D01*
X90600D02*
X92700Y494700D01*
X96000D01*
X98100Y492600D01*
X101200D01*
X80000D02*
X82100Y494700D01*
X85400D01*
X87500Y492600D01*
X90600D01*
X69400D02*
X71500Y494700D01*
X74800D01*
X76900Y492600D01*
X80000D01*
X58800D02*
X60900Y494700D01*
X64200D01*
X66300Y492600D01*
X69400D01*
X48200D02*
X50300Y494700D01*
X53600D01*
X55700Y492600D01*
X58800D01*
X37600D02*
X39700Y494700D01*
X43000D01*
X45100Y492600D01*
X48200D01*
X27000D02*
X29100Y494700D01*
X32400D01*
X34500Y492600D01*
X37600D01*
X23900D02*
X27000D01*
X21800Y494700D02*
X23900Y492600D01*
X9800Y494700D02*
X21800D01*
X7900Y492800D02*
X9800Y494700D01*
X7900Y490400D02*
Y492800D01*
Y490400D02*
X10200Y488100D01*
X13100D01*
X14600Y486600D01*
Y483700D02*
Y486600D01*
Y483700D02*
X16900Y481400D01*
X19800D01*
X21300Y479900D01*
Y477000D02*
Y479900D01*
Y477000D02*
X23500Y474800D01*
X26500D01*
X28000Y470400D02*
X30300Y468100D01*
X28000Y470400D02*
Y473300D01*
X26500Y474800D02*
X28000Y473300D01*
X30300Y468100D02*
X33200D01*
X37000Y461400D02*
X39900D01*
X33200Y468100D02*
X34700Y466600D01*
Y463700D02*
Y466600D01*
Y463700D02*
X37000Y461400D01*
X43700Y454700D02*
X46600D01*
X39900Y461400D02*
X41400Y459900D01*
Y457000D02*
Y459900D01*
Y457000D02*
X43700Y454700D01*
X50400Y448000D02*
X53300D01*
X46600Y454700D02*
X48100Y453200D01*
Y450300D02*
Y453200D01*
Y450300D02*
X50400Y448000D01*
X57100Y441300D02*
X60000D01*
X53300Y448000D02*
X54800Y446500D01*
Y443600D02*
Y446500D01*
Y443600D02*
X57100Y441300D01*
X63800Y434600D02*
X66700D01*
X60000Y441300D02*
X61500Y439800D01*
Y436900D02*
Y439800D01*
Y436900D02*
X63800Y434600D01*
X70500Y427900D02*
X73400D01*
X66700Y434600D02*
X68200Y433100D01*
Y430200D02*
Y433100D01*
Y430200D02*
X70500Y427900D01*
X77200Y421200D02*
X80100D01*
X73400Y427900D02*
X74900Y426400D01*
Y423500D02*
Y426400D01*
Y423500D02*
X77200Y421200D01*
X83900Y414500D02*
X86800D01*
X80100Y421200D02*
X81600Y419700D01*
Y416800D02*
Y419700D01*
Y416800D02*
X83900Y414500D01*
X90600Y407800D02*
X93500D01*
X86800Y414500D02*
X88300Y413000D01*
Y410100D02*
Y413000D01*
Y410100D02*
X90600Y407800D01*
X97300Y401100D02*
X100200D01*
X93500Y407800D02*
X95000Y406300D01*
Y403400D02*
Y406300D01*
Y403400D02*
X97300Y401100D01*
X104000Y394400D02*
X106900D01*
X100200Y401100D02*
X101700Y399600D01*
Y396700D02*
Y399600D01*
Y396700D02*
X104000Y394400D01*
X106900D02*
X108400Y392900D01*
Y390000D02*
Y392900D01*
Y390000D02*
X110700Y387700D01*
X114500D01*
X117400Y390600D01*
Y394600D01*
X71900Y440100D02*
X117400Y394600D01*
X71900Y440100D02*
Y442700D01*
X73100Y443900D01*
X75800D01*
X121400Y398300D01*
X129200D01*
X160100Y367400D01*
Y329900D02*
Y367400D01*
Y329900D02*
X165000Y325000D01*
X127000Y466900D02*
X129500Y464400D01*
X132200D01*
X134700Y466900D01*
X115800D02*
X118300Y464400D01*
X121000D01*
X107100D02*
X109800D01*
X112300Y466900D01*
X115800D01*
X170000Y450000D02*
X186500Y466500D01*
Y473900D01*
X170100Y487000D02*
X173400D01*
X168000Y484900D02*
X170100Y487000D01*
X164900Y484900D02*
X168000D01*
X162800Y487000D02*
X164900Y484900D01*
X159500Y487000D02*
X162800D01*
X157400Y484900D02*
X159500Y487000D01*
X154300Y484900D02*
X157400D01*
X152200Y487000D02*
X154300Y484900D01*
X148900Y487000D02*
X152200D01*
X146800Y484900D02*
X148900Y487000D01*
X143700Y484900D02*
X146800D01*
X141600Y487000D02*
X143700Y484900D01*
X138300Y487000D02*
X141600D01*
X136200Y484900D02*
X138300Y487000D01*
X133100Y484900D02*
X136200D01*
X131000Y487000D02*
X133100Y484900D01*
X127700Y487000D02*
X131000D01*
X125600Y484900D02*
X127700Y487000D01*
X122500Y484900D02*
X125600D01*
X120400Y487000D02*
X122500Y484900D01*
X117100Y487000D02*
X120400D01*
X115000Y484900D02*
X117100Y487000D01*
X111900Y484900D02*
X115000D01*
X109800Y487000D02*
X111900Y484900D01*
X106500Y487000D02*
X109800D01*
X104400Y484900D02*
X106500Y487000D01*
X101300Y484900D02*
X104400D01*
X99200Y487000D02*
X101300Y484900D01*
X95900Y487000D02*
X99200D01*
X93800Y484900D02*
X95900Y487000D01*
X88600D02*
X90700Y484900D01*
X93800D01*
X85300Y487000D02*
X88600D01*
X83200Y484900D02*
X85300Y487000D01*
X80100Y484900D02*
X83200D01*
X78000Y487000D02*
X80100Y484900D01*
X74700Y487000D02*
X78000D01*
X72600Y484900D02*
X74700Y487000D01*
X69500Y484900D02*
X72600D01*
X67400Y487000D02*
X69500Y484900D01*
X64100Y487000D02*
X67400D01*
X62000Y484900D02*
X64100Y487000D01*
X58900Y484900D02*
X62000D01*
X56800Y487000D02*
X58900Y484900D01*
X53500Y487000D02*
X56800D01*
X51400Y484900D02*
X53500Y487000D01*
X48300Y484900D02*
X51400D01*
X46200Y487000D02*
X48300Y484900D01*
X42900Y487000D02*
X46200D01*
X40800Y484900D02*
X42900Y487000D01*
X37700Y484900D02*
X40800D01*
X34400Y488200D02*
X37700Y484900D01*
X28400Y488200D02*
X34400D01*
X27000Y486800D02*
X28400Y488200D01*
X27000Y485100D02*
Y486800D01*
Y485100D02*
X66300Y445800D01*
X69200D01*
X70400Y447000D01*
X48300Y480200D02*
X73800Y454700D01*
X76800D01*
X78000Y455900D01*
X60400Y478900D02*
X61800Y480300D01*
X64500D01*
X80900Y463900D01*
Y448000D02*
Y463900D01*
Y448000D02*
X82200Y446700D01*
X85100D01*
X86600Y445200D01*
Y442300D02*
Y445200D01*
Y442300D02*
X88900Y440000D01*
X91800D01*
X93300Y438500D01*
Y435600D02*
Y438500D01*
Y435600D02*
X95600Y433300D01*
X98500D01*
X100000Y431800D01*
Y428900D02*
Y431800D01*
Y428900D02*
X102300Y426600D01*
X105200D01*
X106700Y425100D01*
Y422200D02*
Y425100D01*
Y422200D02*
X109000Y419900D01*
X111900D01*
X113400Y418400D01*
Y415500D02*
Y418400D01*
Y415500D02*
X115700Y413200D01*
X118600D01*
X120100Y411700D01*
Y408800D02*
Y411700D01*
Y408800D02*
X124200Y404700D01*
X184200Y379700D02*
X186600Y377300D01*
Y371500D02*
Y377300D01*
X185000Y369900D02*
X186600Y371500D01*
X172970Y369900D02*
X185000D01*
X169900Y366830D02*
X172970Y369900D01*
X169900Y289900D02*
Y366830D01*
X165000Y285000D02*
X169900Y289900D01*
X173400Y487000D02*
X186500Y473900D01*
X210000Y440000D02*
X216100Y433900D01*
X246100D01*
X251900Y428100D01*
X275100D01*
X276300Y426900D01*
Y423300D02*
Y426900D01*
Y423300D02*
X281300Y418300D01*
X286500D01*
X289700Y415100D01*
X248400Y360300D02*
X293800Y405700D01*
X246100Y360300D02*
X248400D01*
X244100Y362300D02*
X246100Y360300D01*
X284200Y410800D02*
X285900Y409100D01*
X281700Y410800D02*
X284200D01*
X240200Y369300D02*
X281700Y410800D01*
X237900Y369300D02*
X240200D01*
X235900Y371300D02*
X237900Y369300D01*
X268800Y424500D02*
X273500Y419800D01*
X254100Y424500D02*
X268800D01*
X252100Y422500D02*
X254100Y424500D01*
X252100Y420800D02*
Y422500D01*
Y420800D02*
X253800Y419100D01*
X267400D01*
X269000Y417500D01*
Y415700D02*
Y417500D01*
X232000Y378700D02*
X269000Y415700D01*
X232000Y366200D02*
Y378700D01*
Y366200D02*
X239800Y358400D01*
Y355500D02*
Y358400D01*
Y355500D02*
X242300Y353000D01*
Y349900D02*
Y353000D01*
X239800Y347400D02*
X242300Y349900D01*
X239800Y344500D02*
Y347400D01*
Y344500D02*
X242300Y342000D01*
Y338900D02*
Y342000D01*
X239800Y336400D02*
X242300Y338900D01*
X239800Y333500D02*
Y336400D01*
Y333500D02*
X242300Y331000D01*
Y327900D02*
Y331000D01*
X239800Y325400D02*
X242300Y327900D01*
X239800Y322500D02*
Y325400D01*
Y322500D02*
X242300Y320000D01*
Y317100D02*
Y320000D01*
X239800Y314600D02*
X242300Y317100D01*
X239800Y311700D02*
Y314600D01*
Y311700D02*
X242300Y309200D01*
Y306100D02*
Y309200D01*
X239800Y303600D02*
X242300Y306100D01*
X239800Y300700D02*
Y303600D01*
Y300700D02*
X242300Y298200D01*
Y295100D02*
Y298200D01*
X239800Y292600D02*
X242300Y295100D01*
X239800Y289700D02*
Y292600D01*
Y289700D02*
X242300Y287200D01*
Y275100D02*
Y287200D01*
X224500Y257300D02*
X242300Y275100D01*
X221200Y257300D02*
X224500D01*
X216000Y262500D02*
X221200Y257300D01*
X216000Y262500D02*
Y264900D01*
X175000Y295000D02*
X185300Y284700D01*
X216300D01*
X219600Y281400D01*
Y268500D02*
Y281400D01*
X216000Y264900D02*
X219600Y268500D01*
X193300Y433300D02*
X200000Y440000D01*
X147000Y433300D02*
X193300D01*
X140500Y439800D02*
X147000Y433300D01*
X140500Y439800D02*
Y444600D01*
X137400Y447700D02*
X140500Y444600D01*
X116500Y447700D02*
X137400D01*
X113300Y444500D02*
X116500Y447700D01*
X113300Y438400D02*
Y444500D01*
Y438400D02*
X139100Y412600D01*
X140600D01*
X142100Y414100D01*
Y415400D01*
X116900Y440600D02*
X142100Y415400D01*
X116900Y440600D02*
Y442300D01*
X118500Y443900D01*
X120000D01*
X145100Y418800D01*
X146300D01*
X147700Y420200D01*
X128900Y442200D02*
X130100Y443400D01*
X131700D01*
X146000Y429100D01*
X236400D01*
X250200Y415300D01*
Y407800D02*
Y415300D01*
X226800Y384400D02*
X250200Y407800D01*
X221700Y384400D02*
X226800D01*
X156300Y418700D02*
X207500D01*
X151700Y414100D02*
X156300Y418700D01*
X151700Y406500D02*
Y414100D01*
Y406500D02*
X170700Y387500D01*
X198500D01*
X205800Y380200D01*
Y342800D02*
Y380200D01*
X202800Y339800D02*
X205800Y342800D01*
X190200Y339800D02*
X202800D01*
X210500Y395600D02*
X221700Y384400D01*
X210500Y395600D02*
Y415700D01*
X207500Y418700D02*
X210500Y415700D01*
X155000Y185000D02*
X159900Y180100D01*
Y125100D02*
Y180100D01*
X158600Y123800D02*
X159900Y125100D01*
X153100Y123800D02*
X158600D01*
X151300Y122000D02*
X153100Y123800D01*
X151300Y118800D02*
Y122000D01*
X149000Y116500D02*
X151300Y118800D01*
X145600Y116500D02*
X149000D01*
X138100Y109200D02*
X141500D01*
X143800Y111500D01*
Y114700D01*
X145600Y116500D01*
X130600Y101900D02*
X134000D01*
X136300Y104200D01*
Y107400D01*
X138100Y109200D01*
X121300Y92800D02*
X123100Y94600D01*
X121300Y89600D02*
Y92800D01*
X119000Y87300D02*
X121300Y89600D01*
X115600Y87300D02*
X119000D01*
X128800Y100100D02*
X130600Y101900D01*
X128800Y96900D02*
Y100100D01*
X126500Y94600D02*
X128800Y96900D01*
X123100Y94600D02*
X126500D01*
X106300Y78200D02*
X108100Y80000D01*
X106300Y75000D02*
Y78200D01*
X104000Y72700D02*
X106300Y75000D01*
X100600Y72700D02*
X104000D01*
X113800Y85500D02*
X115600Y87300D01*
X113800Y82300D02*
Y85500D01*
X111500Y80000D02*
X113800Y82300D01*
X108100Y80000D02*
X111500D01*
X91300Y63600D02*
X93100Y65400D01*
X91300Y60400D02*
Y63600D01*
X89000Y58100D02*
X91300Y60400D01*
X85600Y58100D02*
X89000D01*
X98800Y70900D02*
X100600Y72700D01*
X98800Y67700D02*
Y70900D01*
X96500Y65400D02*
X98800Y67700D01*
X93100Y65400D02*
X96500D01*
X76300Y49000D02*
X78100Y50800D01*
X76300Y45800D02*
Y49000D01*
X74000Y43500D02*
X76300Y45800D01*
X70600Y43500D02*
X74000D01*
X83800Y56300D02*
X85600Y58100D01*
X83800Y53100D02*
Y56300D01*
X81500Y50800D02*
X83800Y53100D01*
X78100Y50800D02*
X81500D01*
X61300Y34400D02*
X63100Y36200D01*
X61300Y31200D02*
Y34400D01*
X59000Y28900D02*
X61300Y31200D01*
X55600Y28900D02*
X59000D01*
X68800Y41700D02*
X70600Y43500D01*
X68800Y38500D02*
Y41700D01*
X66500Y36200D02*
X68800Y38500D01*
X63100Y36200D02*
X66500D01*
X46300Y19800D02*
X48100Y21600D01*
X46300Y16600D02*
Y19800D01*
X44000Y14300D02*
X46300Y16600D01*
X40600Y14300D02*
X44000D01*
X53800Y27100D02*
X55600Y28900D01*
X53800Y23900D02*
Y27100D01*
X51500Y21600D02*
X53800Y23900D01*
X48100Y21600D02*
X51500D01*
X38800Y12500D02*
X40600Y14300D01*
X6500Y7000D02*
X36500D01*
X38800Y9300D01*
Y12500D01*
X4800Y8700D02*
X6500Y7000D01*
X4800Y8700D02*
Y14400D01*
X6600Y16200D01*
Y18400D01*
X4800Y20200D02*
X6600Y18400D01*
X4800Y20200D02*
Y22400D01*
X6600Y24200D01*
Y26400D01*
Y32200D02*
Y34400D01*
X4800Y30400D02*
X6600Y32200D01*
X4800Y28200D02*
Y30400D01*
Y28200D02*
X6600Y26400D01*
X4800Y44200D02*
X6600Y42400D01*
X4800Y44200D02*
Y46400D01*
X6600Y48200D01*
Y50400D01*
Y40200D02*
Y42400D01*
X4800Y38400D02*
X6600Y40200D01*
X4800Y36200D02*
Y38400D01*
Y36200D02*
X6600Y34400D01*
X4800Y60200D02*
X6600Y58400D01*
X4800Y60200D02*
Y62400D01*
X6600Y64200D01*
Y66400D01*
Y56200D02*
Y58400D01*
X4800Y54400D02*
X6600Y56200D01*
X4800Y52200D02*
Y54400D01*
Y52200D02*
X6600Y50400D01*
X4800Y76200D02*
X6600Y74400D01*
X4800Y76200D02*
Y78400D01*
X6600Y80200D01*
Y82400D01*
Y72200D02*
Y74400D01*
X4800Y70400D02*
X6600Y72200D01*
X4800Y68200D02*
Y70400D01*
Y68200D02*
X6600Y66400D01*
X4800Y92200D02*
X6600Y90400D01*
X4800Y92200D02*
Y94400D01*
X6600Y96200D01*
Y98400D01*
Y88200D02*
Y90400D01*
X4800Y86400D02*
X6600Y88200D01*
X4800Y84200D02*
Y86400D01*
Y84200D02*
X6600Y82400D01*
X4800Y108200D02*
X6600Y106400D01*
X4800Y108200D02*
Y110400D01*
X6600Y112200D01*
Y114400D01*
Y104200D02*
Y106400D01*
X4800Y102400D02*
X6600Y104200D01*
X4800Y100200D02*
Y102400D01*
Y100200D02*
X6600Y98400D01*
X4800Y124200D02*
X6600Y122400D01*
X4800Y124200D02*
Y126400D01*
X6600Y128200D01*
Y130400D01*
Y120200D02*
Y122400D01*
X4800Y118400D02*
X6600Y120200D01*
X4800Y116200D02*
Y118400D01*
Y116200D02*
X6600Y114400D01*
X4800Y140200D02*
X6600Y138400D01*
X4800Y140200D02*
Y142400D01*
X6600Y144200D01*
Y146400D01*
Y136200D02*
Y138400D01*
X4800Y134400D02*
X6600Y136200D01*
X4800Y132200D02*
Y134400D01*
Y132200D02*
X6600Y130400D01*
X4800Y156200D02*
X6600Y154400D01*
X4800Y156200D02*
Y158400D01*
X6600Y160200D01*
Y162400D01*
Y152200D02*
Y154400D01*
X4800Y150400D02*
X6600Y152200D01*
X4800Y148200D02*
Y150400D01*
Y148200D02*
X6600Y146400D01*
X4800Y172200D02*
X6600Y170400D01*
X4800Y172200D02*
Y174400D01*
X6600Y176200D01*
Y178400D01*
Y168200D02*
Y170400D01*
X4800Y166400D02*
X6600Y168200D01*
X4800Y164200D02*
Y166400D01*
Y164200D02*
X6600Y162400D01*
X4800Y188200D02*
X6600Y186400D01*
X4800Y188200D02*
Y190400D01*
X6600Y192200D01*
Y194400D01*
Y184200D02*
Y186400D01*
X4800Y182400D02*
X6600Y184200D01*
X4800Y180200D02*
Y182400D01*
Y180200D02*
X6600Y178400D01*
X4800Y204200D02*
X6600Y202400D01*
X4800Y204200D02*
Y206400D01*
X6600Y208200D01*
Y210400D01*
Y200200D02*
Y202400D01*
X4800Y198400D02*
X6600Y200200D01*
X4800Y196200D02*
Y198400D01*
Y196200D02*
X6600Y194400D01*
X4800Y220200D02*
X6600Y218400D01*
X4800Y220200D02*
Y222400D01*
X6600Y224200D01*
Y226400D01*
Y216200D02*
Y218400D01*
X4800Y214400D02*
X6600Y216200D01*
X4800Y212200D02*
Y214400D01*
Y212200D02*
X6600Y210400D01*
X4800Y236200D02*
X6600Y234400D01*
X4800Y236200D02*
Y238400D01*
X6600Y240200D01*
Y232200D02*
Y234400D01*
X4800Y230400D02*
X6600Y232200D01*
X4800Y228200D02*
Y230400D01*
Y228200D02*
X6600Y226400D01*
Y240200D02*
Y247800D01*
X8700Y249900D01*
X12100D01*
X14200Y247800D01*
Y240200D02*
Y247800D01*
Y240200D02*
X16000Y238400D01*
Y236200D02*
Y238400D01*
X14200Y234400D02*
X16000Y236200D01*
X14200Y232200D02*
Y234400D01*
Y232200D02*
X16000Y230400D01*
Y228200D02*
Y230400D01*
X14200Y226400D02*
X16000Y228200D01*
X14200Y224200D02*
Y226400D01*
Y224200D02*
X16000Y222400D01*
Y220200D02*
Y222400D01*
X14200Y218400D02*
X16000Y220200D01*
X14200Y216200D02*
Y218400D01*
Y216200D02*
X16000Y214400D01*
X22500D01*
X24300Y216200D01*
Y218400D01*
X22500Y220200D02*
X24300Y218400D01*
X22500Y220200D02*
Y222400D01*
X24300Y224200D01*
X22500Y228200D02*
Y230400D01*
Y228200D02*
X24300Y226400D01*
Y224200D02*
Y226400D01*
X22500Y230400D02*
X24300Y232200D01*
X49100Y215000D02*
X50000D01*
X24300Y232200D02*
X31900D01*
X49100Y215000D01*
X150100Y220100D02*
X155000Y225000D01*
X150100Y129200D02*
Y220100D01*
X145400Y124500D02*
X150100Y129200D01*
X137900Y117200D02*
X140200Y119500D01*
X134500Y117200D02*
X137900D01*
X132700Y115400D02*
X134500Y117200D01*
X132700Y112200D02*
Y115400D01*
X130400Y109900D02*
X132700Y112200D01*
X127000Y109900D02*
X130400D01*
X140200Y119500D02*
Y122700D01*
X142000Y124500D01*
X145400D01*
X125200Y108100D02*
X127000Y109900D01*
X125200Y104900D02*
Y108100D01*
X112000Y95300D02*
X115400D01*
X117700Y97600D01*
Y100800D01*
X119500Y102600D01*
X122900D01*
X125200Y104900D01*
X110200Y93500D02*
X112000Y95300D01*
X110200Y90300D02*
Y93500D01*
X97000Y80700D02*
X100400D01*
X102700Y83000D01*
Y86200D01*
X104500Y88000D01*
X107900D01*
X110200Y90300D01*
X95200Y78900D02*
X97000Y80700D01*
X95200Y75700D02*
Y78900D01*
X82000Y66100D02*
X85400D01*
X87700Y68400D01*
Y71600D01*
X89500Y73400D01*
X92900D01*
X95200Y75700D01*
X80200Y64300D02*
X82000Y66100D01*
X80200Y61100D02*
Y64300D01*
X67000Y51500D02*
X70400D01*
X72700Y53800D01*
Y57000D01*
X74500Y58800D01*
X77900D01*
X80200Y61100D01*
X65200Y49700D02*
X67000Y51500D01*
X65200Y46500D02*
Y49700D01*
X52000Y36900D02*
X55400D01*
X57700Y39200D01*
Y42400D01*
X59500Y44200D01*
X62900D01*
X65200Y46500D01*
X50200Y35100D02*
X52000Y36900D01*
X50200Y31900D02*
Y35100D01*
X37000Y22300D02*
X40400D01*
X42700Y24600D01*
Y27800D01*
X44500Y29600D01*
X47900D01*
X50200Y31900D01*
X35200Y20500D02*
X37000Y22300D01*
X35200Y17300D02*
Y20500D01*
X29300Y11400D02*
X35200Y17300D01*
X11500Y11400D02*
X29300D01*
X10100Y12800D02*
X11500Y11400D01*
X10100Y12800D02*
Y14300D01*
X11500Y15700D01*
X28200D01*
X29600Y17100D01*
Y18600D01*
X28200Y20000D02*
X29600Y18600D01*
X11500Y20000D02*
X28200D01*
X10100Y21400D02*
X11500Y20000D01*
X10100Y21400D02*
Y22900D01*
X11500Y24300D01*
X28100D01*
X29500Y25700D01*
Y27200D01*
X28100Y28600D02*
X29500Y27200D01*
X11400Y28600D02*
X28100D01*
X9600Y30400D02*
X11400Y28600D01*
X9600Y30400D02*
Y32600D01*
X11400Y34400D01*
Y36600D01*
X9600Y38400D02*
X11400Y36600D01*
X9600Y38400D02*
Y40600D01*
X11400Y42400D01*
Y44600D01*
Y50400D02*
Y52600D01*
X9600Y48600D02*
X11400Y50400D01*
X9600Y46400D02*
Y48600D01*
Y46400D02*
X11400Y44600D01*
Y58400D02*
Y60600D01*
X9600Y56600D02*
X11400Y58400D01*
X9600Y54400D02*
Y56600D01*
Y54400D02*
X11400Y52600D01*
X9600Y78400D02*
X11400Y76600D01*
X9600Y78400D02*
Y80600D01*
X11400Y82400D01*
Y84600D01*
X9600Y70400D02*
X11400Y68600D01*
X9600Y70400D02*
Y72600D01*
X11400Y74400D01*
Y76600D01*
Y66400D02*
Y68600D01*
X9600Y64600D02*
X11400Y66400D01*
X9600Y62400D02*
Y64600D01*
Y62400D02*
X11400Y60600D01*
X9600Y102400D02*
X11400Y100600D01*
X9600Y102400D02*
Y104600D01*
X11400Y106400D01*
Y108600D01*
X9600Y94400D02*
X11400Y92600D01*
X9600Y94400D02*
Y96600D01*
X11400Y98400D01*
Y100600D01*
Y90400D02*
Y92600D01*
X9600Y88600D02*
X11400Y90400D01*
X9600Y86400D02*
Y88600D01*
Y86400D02*
X11400Y84600D01*
X9600Y126400D02*
X11400Y124600D01*
X9600Y126400D02*
Y128600D01*
X11400Y130400D01*
Y132600D01*
X9600Y118400D02*
X11400Y116600D01*
X9600Y118400D02*
Y120600D01*
X11400Y122400D01*
Y124600D01*
Y114400D02*
Y116600D01*
X9600Y112600D02*
X11400Y114400D01*
X9600Y110400D02*
Y112600D01*
Y110400D02*
X11400Y108600D01*
X9600Y150400D02*
X11400Y148600D01*
X9600Y150400D02*
Y152600D01*
X11400Y154400D01*
Y156600D01*
X9600Y142400D02*
X11400Y140600D01*
X9600Y142400D02*
Y144600D01*
X11400Y146400D01*
Y148600D01*
Y138400D02*
Y140600D01*
X9600Y136600D02*
X11400Y138400D01*
X9600Y134400D02*
Y136600D01*
Y134400D02*
X11400Y132600D01*
X9600Y174400D02*
X11400Y172600D01*
X9600Y174400D02*
Y176600D01*
X11400Y178400D01*
Y180600D01*
X9600Y166400D02*
X11400Y164600D01*
X9600Y166400D02*
Y168600D01*
X11400Y170400D01*
Y172600D01*
Y162400D02*
Y164600D01*
X9600Y160600D02*
X11400Y162400D01*
X9600Y158400D02*
Y160600D01*
Y158400D02*
X11400Y156600D01*
X9600Y198400D02*
X11400Y196600D01*
X9600Y198400D02*
Y200600D01*
X11400Y202400D01*
Y204600D01*
X9600Y190400D02*
X11400Y188600D01*
X9600Y190400D02*
Y192600D01*
X11400Y194400D01*
Y196600D01*
Y186400D02*
Y188600D01*
X9600Y184600D02*
X11400Y186400D01*
X9600Y182400D02*
Y184600D01*
Y182400D02*
X11400Y180600D01*
Y204600D02*
X13500Y206700D01*
X15600D01*
X17700Y204600D01*
Y202400D02*
Y204600D01*
Y202400D02*
X19500Y200600D01*
Y198400D02*
Y200600D01*
X17700Y196600D02*
X19500Y198400D01*
X17700Y194400D02*
Y196600D01*
Y194400D02*
X19500Y192600D01*
Y190400D02*
Y192600D01*
X17700Y188600D02*
X19500Y190400D01*
X17700Y186400D02*
Y188600D01*
Y186400D02*
X19800Y184300D01*
X24500D01*
X26600Y186400D01*
Y188600D01*
X24800Y190400D02*
X26600Y188600D01*
X24800Y190400D02*
Y192600D01*
X26600Y194400D01*
X30516D01*
X49916Y175000D01*
X138700Y178700D02*
X145000Y185000D01*
X138700Y130400D02*
Y178700D01*
X136400Y128100D02*
X138700Y130400D01*
X133000Y128100D02*
X136400D01*
X131200Y126300D02*
X133000Y128100D01*
X131200Y123100D02*
Y126300D01*
X128900Y120800D02*
X131200Y123100D01*
X125500Y120800D02*
X128900D01*
X118000Y113500D02*
X121400D01*
X123700Y115800D01*
Y119000D01*
X125500Y120800D01*
X108700Y104400D02*
X110500Y106200D01*
X108700Y101200D02*
Y104400D01*
X106400Y98900D02*
X108700Y101200D01*
X103000Y98900D02*
X106400D01*
X110500Y106200D02*
X113900D01*
X116200Y108500D01*
Y111700D01*
X118000Y113500D01*
X93700Y89800D02*
X95500Y91600D01*
X93700Y86600D02*
Y89800D01*
X91400Y84300D02*
X93700Y86600D01*
X88000Y84300D02*
X91400D01*
X95500Y91600D02*
X98900D01*
X101200Y93900D01*
Y97100D01*
X103000Y98900D01*
X78700Y75200D02*
X80500Y77000D01*
X78700Y72000D02*
Y75200D01*
X76400Y69700D02*
X78700Y72000D01*
X73000Y69700D02*
X76400D01*
X80500Y77000D02*
X83900D01*
X86200Y79300D01*
Y82500D01*
X88000Y84300D01*
X63700Y60600D02*
X65500Y62400D01*
X63700Y57400D02*
Y60600D01*
X61400Y55100D02*
X63700Y57400D01*
X58000Y55100D02*
X61400D01*
X65500Y62400D02*
X68900D01*
X71200Y64700D01*
Y67900D01*
X73000Y69700D01*
X48700Y46000D02*
X50500Y47800D01*
X48700Y42800D02*
Y46000D01*
X46400Y40500D02*
X48700Y42800D01*
X43000Y40500D02*
X46400D01*
X50500Y47800D02*
X53900D01*
X56200Y50100D01*
Y53300D01*
X58000Y55100D01*
X41200Y38700D02*
X43000Y40500D01*
X41200Y35500D02*
Y38700D01*
X38900Y33200D02*
X41200Y35500D01*
X16800Y33200D02*
X38900D01*
X15500Y34500D02*
X16800Y33200D01*
X15500Y34500D02*
Y36700D01*
X16800Y38000D01*
X36000D01*
X37300Y39300D01*
Y41500D01*
X36000Y42800D02*
X37300Y41500D01*
X16800Y42800D02*
X36000D01*
X15500Y44100D02*
X16800Y42800D01*
X15500Y44100D02*
Y46300D01*
X16800Y47600D01*
Y57200D02*
X36000D01*
X15500Y55900D02*
X16800Y57200D01*
X15500Y53700D02*
Y55900D01*
Y53700D02*
X16800Y52400D01*
X36000D01*
X37300Y51100D01*
Y48900D02*
Y51100D01*
X36000Y47600D02*
X37300Y48900D01*
X16800Y47600D02*
X36000D01*
X16800Y66800D02*
X36000D01*
X15500Y65500D02*
X16800Y66800D01*
X15500Y63300D02*
Y65500D01*
Y63300D02*
X16800Y62000D01*
X36000D01*
X37300Y60700D01*
Y58500D02*
Y60700D01*
X36000Y57200D02*
X37300Y58500D01*
X15500Y75100D02*
X16800Y76400D01*
X15500Y72900D02*
Y75100D01*
Y72900D02*
X16800Y71600D01*
X36000D01*
X37300Y70300D01*
Y68100D02*
Y70300D01*
X36000Y66800D02*
X37300Y68100D01*
X15500Y84700D02*
X16800Y86000D01*
X15500Y82500D02*
Y84700D01*
Y82500D02*
X16800Y81200D01*
X36000D01*
X37300Y79900D01*
Y77700D02*
Y79900D01*
X36000Y76400D02*
X37300Y77700D01*
X16800Y76400D02*
X36000D01*
X16800Y95600D02*
X36000D01*
X15500Y94300D02*
X16800Y95600D01*
X15500Y92100D02*
Y94300D01*
Y92100D02*
X16800Y90800D01*
X36000D01*
X37300Y89500D01*
Y87300D02*
Y89500D01*
X36000Y86000D02*
X37300Y87300D01*
X16800Y86000D02*
X36000D01*
Y95600D02*
X39000Y98600D01*
Y131700D02*
X41800Y134500D01*
X46200D01*
X49000Y131700D01*
Y124100D02*
Y131700D01*
X39000Y98600D02*
Y131700D01*
X49000Y124100D02*
X50600Y122500D01*
X53500D01*
X55100Y124100D01*
Y180100D01*
X60000Y185000D01*
X130600Y210600D02*
X145000Y225000D01*
X130600Y135300D02*
Y210600D01*
X128300Y133000D02*
X130600Y135300D01*
X124900Y133000D02*
X128300D01*
X123100Y131200D02*
X124900Y133000D01*
X123100Y128000D02*
Y131200D01*
X120800Y125700D02*
X123100Y128000D01*
X117400Y125700D02*
X120800D01*
X115600Y123900D02*
X117400Y125700D01*
X115600Y120700D02*
Y123900D01*
X113300Y118400D02*
X115600Y120700D01*
X109900Y118400D02*
X113300D01*
X108100Y116600D02*
X109900Y118400D01*
X108100Y113400D02*
Y116600D01*
X105800Y111100D02*
X108100Y113400D01*
X102400Y111100D02*
X105800D01*
X100600Y109300D02*
X102400Y111100D01*
X100600Y106100D02*
Y109300D01*
X98300Y103800D02*
X100600Y106100D01*
X94900Y103800D02*
X98300D01*
X93100Y102000D02*
X94900Y103800D01*
X93100Y98800D02*
Y102000D01*
X90800Y96500D02*
X93100Y98800D01*
X87400Y96500D02*
X90800D01*
X85600Y94700D02*
X87400Y96500D01*
X85600Y91500D02*
Y94700D01*
X83300Y89200D02*
X85600Y91500D01*
X79900Y89200D02*
X83300D01*
X78100Y87400D02*
X79900Y89200D01*
X78100Y84200D02*
Y87400D01*
X76500Y82600D02*
X78100Y84200D01*
X72400Y82600D02*
X76500D01*
X70600Y80800D02*
X72400Y82600D01*
X70600Y77600D02*
Y80800D01*
X68300Y75300D02*
X70600Y77600D01*
X64900Y75300D02*
X68300D01*
X63100Y73500D02*
X64900Y75300D01*
X63100Y70300D02*
Y73500D01*
X60800Y68000D02*
X63100Y70300D01*
X57400Y68000D02*
X60800D01*
X55600Y66200D02*
X57400Y68000D01*
X55600Y63000D02*
Y66200D01*
X48100Y55500D02*
X55600Y63000D01*
X44800Y55500D02*
X48100D01*
X42400Y57900D02*
X44800Y55500D01*
X42400Y57900D02*
Y90900D01*
X44300Y92800D01*
X46800D01*
X48700Y90900D01*
Y70900D02*
Y90900D01*
Y70900D02*
X50600Y69000D01*
X53100D01*
X54900Y70800D01*
Y90800D01*
X56800Y92700D01*
X59300D01*
X61200Y90800D01*
Y85500D02*
Y90800D01*
Y85500D02*
X63100Y83600D01*
X65600D01*
X67400Y85400D01*
Y87900D01*
X69200Y89700D01*
X72600D01*
X75000Y92100D01*
Y95300D01*
X76800Y97100D01*
X80200D01*
X82400Y99300D01*
Y101800D01*
X84200Y103600D01*
X87600D01*
X89900Y105900D01*
Y109100D01*
X91800Y111000D01*
X95200D01*
X97400Y113200D01*
Y115700D01*
X99200Y117500D01*
X102600D01*
X104900Y119800D01*
Y123000D01*
X106700Y124800D01*
X110100D01*
X112400Y127100D01*
Y129600D01*
X114200Y131400D01*
X117600D01*
X119900Y133700D01*
Y136900D01*
X125700Y142700D01*
Y146100D01*
X123800Y148000D02*
X125700Y146100D01*
X120400Y148000D02*
X123800D01*
X118100Y145700D02*
X120400Y148000D01*
X114700Y145700D02*
X118100D01*
X112900Y143900D02*
X114700Y145700D01*
X112900Y140700D02*
Y143900D01*
X110600Y138400D02*
X112900Y140700D01*
X107200Y138400D02*
X110600D01*
X105400Y136600D02*
X107200Y138400D01*
X105400Y134100D02*
Y136600D01*
X103100Y131800D02*
X105400Y134100D01*
X99700Y131800D02*
X103100D01*
X97900Y130000D02*
X99700Y131800D01*
X97900Y126800D02*
Y130000D01*
X95600Y124500D02*
X97900Y126800D01*
X92200Y124500D02*
X95600D01*
X90400Y122700D02*
X92200Y124500D01*
X90400Y120200D02*
Y122700D01*
X88100Y117900D02*
X90400Y120200D01*
X84700Y117900D02*
X88100D01*
X82900Y116100D02*
X84700Y117900D01*
X82900Y112900D02*
Y116100D01*
X80600Y110600D02*
X82900Y112900D01*
X77200Y110600D02*
X80600D01*
X75400Y108800D02*
X77200Y110600D01*
X75400Y106300D02*
Y108800D01*
X73100Y104000D02*
X75400Y106300D01*
X69700Y104000D02*
X73100D01*
X67800Y105900D02*
X69700Y104000D01*
X67800Y105900D02*
Y156700D01*
X69300Y158200D01*
X71500D01*
X73000Y156700D01*
Y150400D02*
Y156700D01*
Y150400D02*
X74100Y149300D01*
X77100D01*
X78200Y150400D01*
X60000Y225000D02*
X72600D01*
X78200Y219400D01*
Y150400D02*
Y219400D01*
X215500Y245400D02*
X215700Y245200D01*
X223500Y237400D01*
D11*
X230000Y50000D02*
D03*
Y60000D02*
D03*
X240000D02*
D03*
Y50000D02*
D03*
X260000D02*
D03*
Y60000D02*
D03*
X250000D02*
D03*
Y50000D02*
D03*
X290000D02*
D03*
Y60000D02*
D03*
X300000D02*
D03*
Y50000D02*
D03*
X280000D02*
D03*
Y60000D02*
D03*
X270000D02*
D03*
Y50000D02*
D03*
X190000D02*
D03*
Y60000D02*
D03*
X200000D02*
D03*
Y50000D02*
D03*
X220000D02*
D03*
Y60000D02*
D03*
X210000D02*
D03*
Y50000D02*
D03*
X170000D02*
D03*
Y60000D02*
D03*
X180000D02*
D03*
Y50000D02*
D03*
X160000D02*
D03*
Y60000D02*
D03*
X150000D02*
D03*
Y50000D02*
D03*
X330000Y49916D02*
D03*
Y60000D02*
D03*
X340000D02*
D03*
Y49916D02*
D03*
X320000D02*
D03*
Y60000D02*
D03*
X310000D02*
D03*
Y49916D02*
D03*
X440000Y265000D02*
D03*
X450000D02*
D03*
Y255000D02*
D03*
X440000D02*
D03*
Y235000D02*
D03*
X450000D02*
D03*
Y245000D02*
D03*
X440000D02*
D03*
Y205000D02*
D03*
X450000D02*
D03*
Y195000D02*
D03*
X440000D02*
D03*
Y215000D02*
D03*
X450000D02*
D03*
Y225000D02*
D03*
X440000D02*
D03*
Y305000D02*
D03*
X450000D02*
D03*
Y295000D02*
D03*
X440000D02*
D03*
Y275000D02*
D03*
X450000D02*
D03*
Y285000D02*
D03*
X440000D02*
D03*
Y325000D02*
D03*
X450000D02*
D03*
Y315000D02*
D03*
X440000D02*
D03*
Y335000D02*
D03*
X450000D02*
D03*
Y345000D02*
D03*
X440000D02*
D03*
X439917Y165000D02*
D03*
X450000D02*
D03*
Y155000D02*
D03*
X439917D02*
D03*
Y175000D02*
D03*
X450000D02*
D03*
Y185000D02*
D03*
X439917D02*
D03*
X230000Y440000D02*
D03*
Y450000D02*
D03*
X240000D02*
D03*
Y440000D02*
D03*
X260000D02*
D03*
Y450000D02*
D03*
X250000D02*
D03*
Y440000D02*
D03*
X290000D02*
D03*
Y450000D02*
D03*
X300000D02*
D03*
Y440000D02*
D03*
X280000D02*
D03*
Y450000D02*
D03*
X270000D02*
D03*
Y440000D02*
D03*
X190000D02*
D03*
Y450000D02*
D03*
X200000D02*
D03*
Y440000D02*
D03*
X220000D02*
D03*
Y450000D02*
D03*
X210000D02*
D03*
Y440000D02*
D03*
X170000D02*
D03*
Y450000D02*
D03*
X180000D02*
D03*
Y440000D02*
D03*
X160000D02*
D03*
Y450000D02*
D03*
X150000D02*
D03*
Y440000D02*
D03*
X330000Y439917D02*
D03*
Y450000D02*
D03*
X340000D02*
D03*
Y439917D02*
D03*
X320000D02*
D03*
Y450000D02*
D03*
X310000D02*
D03*
Y439917D02*
D03*
X50000Y265000D02*
D03*
X60000D02*
D03*
Y255000D02*
D03*
X50000D02*
D03*
Y235000D02*
D03*
X60000D02*
D03*
Y245000D02*
D03*
X50000D02*
D03*
Y205000D02*
D03*
X60000D02*
D03*
Y195000D02*
D03*
X50000D02*
D03*
Y215000D02*
D03*
X60000D02*
D03*
Y225000D02*
D03*
X50000D02*
D03*
Y305000D02*
D03*
X60000D02*
D03*
Y295000D02*
D03*
X50000D02*
D03*
Y275000D02*
D03*
X60000D02*
D03*
Y285000D02*
D03*
X50000D02*
D03*
Y325000D02*
D03*
X60000D02*
D03*
Y315000D02*
D03*
X50000D02*
D03*
Y335000D02*
D03*
X60000D02*
D03*
Y345000D02*
D03*
X50000D02*
D03*
X49916Y165000D02*
D03*
X60000D02*
D03*
Y155000D02*
D03*
X49916D02*
D03*
Y175000D02*
D03*
X60000D02*
D03*
Y185000D02*
D03*
X49916D02*
D03*
X355000Y295000D02*
D03*
X345000D02*
D03*
Y305000D02*
D03*
X355000D02*
D03*
Y325000D02*
D03*
X345000D02*
D03*
Y315000D02*
D03*
X355000D02*
D03*
Y355000D02*
D03*
X345000D02*
D03*
Y365000D02*
D03*
X355000D02*
D03*
Y345000D02*
D03*
X345000D02*
D03*
Y335000D02*
D03*
X355000D02*
D03*
Y135000D02*
D03*
X345000D02*
D03*
X345000Y145000D02*
D03*
X355000D02*
D03*
Y165000D02*
D03*
X345000D02*
D03*
X345000Y155000D02*
D03*
X355000D02*
D03*
Y195000D02*
D03*
X345000D02*
D03*
X345000Y205000D02*
D03*
X355000D02*
D03*
Y185000D02*
D03*
X345000D02*
D03*
X345000Y175000D02*
D03*
X355000D02*
D03*
Y255000D02*
D03*
X345000D02*
D03*
Y265000D02*
D03*
X355000D02*
D03*
Y285000D02*
D03*
X345000D02*
D03*
Y275000D02*
D03*
X355000D02*
D03*
Y235000D02*
D03*
X345000D02*
D03*
Y245000D02*
D03*
X355000D02*
D03*
Y225000D02*
D03*
X345000D02*
D03*
Y215000D02*
D03*
X355000D02*
D03*
X335000D02*
D03*
X325000D02*
D03*
Y225000D02*
D03*
X335000D02*
D03*
Y245000D02*
D03*
X325000D02*
D03*
Y235000D02*
D03*
X335000D02*
D03*
Y275000D02*
D03*
X325000D02*
D03*
Y285000D02*
D03*
X335000D02*
D03*
Y265000D02*
D03*
X325000D02*
D03*
Y255000D02*
D03*
X335000D02*
D03*
Y175000D02*
D03*
X325000D02*
D03*
X325000Y185000D02*
D03*
X335000D02*
D03*
Y205000D02*
D03*
X325000D02*
D03*
X325000Y195000D02*
D03*
X335000D02*
D03*
Y155000D02*
D03*
X325000D02*
D03*
X325000Y165000D02*
D03*
X335000D02*
D03*
Y145000D02*
D03*
X325000D02*
D03*
X325000Y135000D02*
D03*
X335000D02*
D03*
Y335000D02*
D03*
X325000D02*
D03*
Y345000D02*
D03*
X335000D02*
D03*
Y365000D02*
D03*
X325000D02*
D03*
Y355000D02*
D03*
X335000D02*
D03*
Y315000D02*
D03*
X325000D02*
D03*
Y325000D02*
D03*
X335000D02*
D03*
Y305000D02*
D03*
X325000D02*
D03*
Y295000D02*
D03*
X335000D02*
D03*
X175000D02*
D03*
X165000D02*
D03*
Y305000D02*
D03*
X175000D02*
D03*
Y325000D02*
D03*
X165000D02*
D03*
Y315000D02*
D03*
X175000D02*
D03*
Y355000D02*
D03*
X165000D02*
D03*
Y365000D02*
D03*
X175000D02*
D03*
Y345000D02*
D03*
X165000D02*
D03*
Y335000D02*
D03*
X175000D02*
D03*
Y135000D02*
D03*
X165000D02*
D03*
X165000Y145000D02*
D03*
X175000D02*
D03*
Y165000D02*
D03*
X165000D02*
D03*
X165000Y155000D02*
D03*
X175000D02*
D03*
Y195000D02*
D03*
X165000D02*
D03*
X165000Y205000D02*
D03*
X175000D02*
D03*
Y185000D02*
D03*
X165000D02*
D03*
X165000Y175000D02*
D03*
X175000D02*
D03*
X165000Y255000D02*
D03*
Y265000D02*
D03*
X175000D02*
D03*
Y285000D02*
D03*
X165000D02*
D03*
Y275000D02*
D03*
X175000D02*
D03*
Y235000D02*
D03*
X165000D02*
D03*
Y245000D02*
D03*
X175000D02*
D03*
Y225000D02*
D03*
X165000D02*
D03*
Y215000D02*
D03*
X175000D02*
D03*
X155000D02*
D03*
X145000D02*
D03*
Y225000D02*
D03*
X155000D02*
D03*
Y245000D02*
D03*
X145000D02*
D03*
Y235000D02*
D03*
X155000D02*
D03*
Y275000D02*
D03*
X145000D02*
D03*
Y285000D02*
D03*
X155000D02*
D03*
Y265000D02*
D03*
X145000D02*
D03*
Y255000D02*
D03*
X155000D02*
D03*
Y175000D02*
D03*
X145000D02*
D03*
X145000Y185000D02*
D03*
X155000D02*
D03*
Y205000D02*
D03*
X145000D02*
D03*
X145000Y195000D02*
D03*
X155000D02*
D03*
Y155000D02*
D03*
X145000D02*
D03*
X145000Y165000D02*
D03*
X155000D02*
D03*
Y145000D02*
D03*
X145000D02*
D03*
X145000Y135000D02*
D03*
X155000D02*
D03*
Y335000D02*
D03*
X145000D02*
D03*
Y345000D02*
D03*
X155000D02*
D03*
Y365000D02*
D03*
X145000D02*
D03*
Y355000D02*
D03*
X155000D02*
D03*
Y315000D02*
D03*
X145000D02*
D03*
Y325000D02*
D03*
X155000D02*
D03*
Y305000D02*
D03*
X145000D02*
D03*
Y295000D02*
D03*
X155000D02*
D03*
X175000Y255000D02*
D03*
D12*
X120000Y315000D02*
D03*
X124500Y343100D02*
D03*
X110800D02*
D03*
X117500Y350000D02*
D03*
X131200D02*
D03*
X120000Y335000D02*
D03*
X110000D02*
D03*
Y325000D02*
D03*
X120000D02*
D03*
X195000Y195000D02*
D03*
X205000D02*
D03*
X213500D02*
D03*
Y205000D02*
D03*
Y215000D02*
D03*
X205000D02*
D03*
X195000D02*
D03*
X213500Y225000D02*
D03*
X195000Y245000D02*
D03*
X205000Y225000D02*
D03*
X195000D02*
D03*
X215500Y245000D02*
D03*
X198800Y185200D02*
D03*
X200000Y238000D02*
D03*
X185000Y245000D02*
D03*
X226000Y248400D02*
D03*
X215000Y280000D02*
D03*
X225000D02*
D03*
Y335000D02*
D03*
X215000Y290000D02*
D03*
Y325100D02*
D03*
X190200Y339800D02*
D03*
M02*
