G04 Layer_Color=32896*
%FSLAX25Y25*%
%MOIN*%
G70*
G01*
G75*
%ADD19C,0.01000*%
%ADD23C,0.02362*%
%ADD24C,0.00984*%
%ADD26C,0.00787*%
D19*
X366101Y489698D02*
X370100D01*
Y483700D01*
X366101D01*
X370100Y486699D02*
X368101D01*
X364102Y489698D02*
X360103D01*
X362103D01*
Y483700D01*
X358104Y489698D02*
Y483700D01*
Y486699D01*
X354105D01*
Y489698D01*
Y483700D01*
X352106D02*
X350107D01*
X351106D01*
Y489698D01*
X352106Y488698D01*
X347107Y482700D02*
X343109D01*
X341109Y489698D02*
Y484700D01*
X340110Y483700D01*
X338110D01*
X337111Y484700D01*
Y489698D01*
X335111Y482700D02*
X331113D01*
X329113Y489698D02*
Y483700D01*
X326114D01*
X325115Y484700D01*
Y485699D01*
X326114Y486699D01*
X329113D01*
X326114D01*
X325115Y487699D01*
Y488698D01*
X326114Y489698D01*
X329113D01*
X320116D02*
X322115D01*
X323115Y488698D01*
Y484700D01*
X322115Y483700D01*
X320116D01*
X319116Y484700D01*
Y488698D01*
X320116Y489698D01*
X317117D02*
X313118D01*
X315118D01*
Y483700D01*
X311119Y489698D02*
X307120D01*
X309120D01*
Y483700D01*
X302122Y489698D02*
X304121D01*
X305121Y488698D01*
Y484700D01*
X304121Y483700D01*
X302122D01*
X301122Y484700D01*
Y488698D01*
X302122Y489698D01*
X299123Y483700D02*
Y489698D01*
X297124Y487699D01*
X295124Y489698D01*
Y483700D01*
X293125Y482700D02*
X289126D01*
X287127Y489698D02*
Y483700D01*
Y486699D01*
X283128D01*
Y489698D01*
Y483700D01*
X277130Y489698D02*
X281129D01*
Y483700D01*
X277130D01*
X281129Y486699D02*
X279129D01*
X275131Y483700D02*
Y487699D01*
X273131Y489698D01*
X271132Y487699D01*
Y483700D01*
Y486699D01*
X275131D01*
X269133Y489698D02*
Y483700D01*
X266134D01*
X265134Y484700D01*
Y488698D01*
X266134Y489698D01*
X269133D01*
X259136D02*
X263135D01*
Y483700D01*
X259136D01*
X263135Y486699D02*
X261135D01*
X257137Y483700D02*
Y489698D01*
X254137D01*
X253138Y488698D01*
Y486699D01*
X254137Y485699D01*
X257137D01*
X255137D02*
X253138Y483700D01*
X251138Y482700D02*
X247140D01*
X245140Y489698D02*
Y483700D01*
X243141Y485699D01*
X241142Y483700D01*
Y489698D01*
X239142Y483700D02*
Y489698D01*
X236143D01*
X235144Y488698D01*
Y486699D01*
X236143Y485699D01*
X239142D01*
X237143D02*
X235144Y483700D01*
X233144D02*
Y489698D01*
X230145D01*
X229146Y488698D01*
Y486699D01*
X230145Y485699D01*
X233144D01*
X224147Y483700D02*
Y489698D01*
X227146Y486699D01*
X223148D01*
X72799Y166352D02*
X68800D01*
Y172350D01*
X72799D01*
X68800Y169351D02*
X70799D01*
X74798Y166352D02*
X78797D01*
X76797D01*
Y172350D01*
X80796Y166352D02*
Y172350D01*
Y169351D01*
X84795D01*
Y166352D01*
Y172350D01*
X86794D02*
X88793D01*
X87794D01*
Y166352D01*
X86794Y167352D01*
X91793Y173350D02*
X95791D01*
X97791Y166352D02*
Y171350D01*
X98790Y172350D01*
X100790D01*
X101789Y171350D01*
Y166352D01*
X103789Y173350D02*
X107787D01*
X109787Y166352D02*
Y172350D01*
X112786D01*
X113785Y171350D01*
Y170351D01*
X112786Y169351D01*
X109787D01*
X112786D01*
X113785Y168351D01*
Y167352D01*
X112786Y166352D01*
X109787D01*
X118784D02*
X116785D01*
X115785Y167352D01*
Y171350D01*
X116785Y172350D01*
X118784D01*
X119783Y171350D01*
Y167352D01*
X118784Y166352D01*
X121783D02*
X125782D01*
X123782D01*
Y172350D01*
X127781Y166352D02*
X131780D01*
X129780D01*
Y172350D01*
X136778Y166352D02*
X134779D01*
X133779Y167352D01*
Y171350D01*
X134779Y172350D01*
X136778D01*
X137778Y171350D01*
Y167352D01*
X136778Y166352D01*
X139777Y172350D02*
Y166352D01*
X141776Y168351D01*
X143776Y166352D01*
Y172350D01*
X145775Y173350D02*
X149774D01*
X151773Y166352D02*
Y172350D01*
Y169351D01*
X155772D01*
Y166352D01*
Y172350D01*
X161770Y166352D02*
X157771D01*
Y172350D01*
X161770D01*
X157771Y169351D02*
X159771D01*
X163769Y172350D02*
Y168351D01*
X165769Y166352D01*
X167768Y168351D01*
Y172350D01*
Y169351D01*
X163769D01*
X169767Y166352D02*
Y172350D01*
X172766D01*
X173766Y171350D01*
Y167352D01*
X172766Y166352D01*
X169767D01*
X179764D02*
X175765D01*
Y172350D01*
X179764D01*
X175765Y169351D02*
X177765D01*
X181764Y172350D02*
Y166352D01*
X184763D01*
X185762Y167352D01*
Y169351D01*
X184763Y170351D01*
X181764D01*
X183763D02*
X185762Y172350D01*
X187761Y173350D02*
X191760D01*
X193760Y166352D02*
Y172350D01*
X195759Y170351D01*
X197758Y172350D01*
Y166352D01*
X199758Y172350D02*
Y166352D01*
X202757D01*
X203756Y167352D01*
Y169351D01*
X202757Y170351D01*
X199758D01*
X201757D02*
X203756Y172350D01*
X205756D02*
Y166352D01*
X208755D01*
X209754Y167352D01*
Y169351D01*
X208755Y170351D01*
X205756D01*
X211754Y167352D02*
X212753Y166352D01*
X214753D01*
X215753Y167352D01*
Y168351D01*
X214753Y169351D01*
X213753D01*
X214753D01*
X215753Y170351D01*
Y171350D01*
X214753Y172350D01*
X212753D01*
X211754Y171350D01*
X474701Y381098D02*
X478700D01*
Y375100D01*
X474701D01*
X478700Y378099D02*
X476701D01*
X472702Y381098D02*
X468703D01*
X470703D01*
Y375100D01*
X466704Y381098D02*
Y375100D01*
Y378099D01*
X462705D01*
Y381098D01*
Y375100D01*
X460706D02*
X458707D01*
X459706D01*
Y381098D01*
X460706Y380098D01*
X455707Y374100D02*
X451709D01*
X449709Y381098D02*
Y376100D01*
X448710Y375100D01*
X446710D01*
X445711Y376100D01*
Y381098D01*
X443711Y374100D02*
X439713D01*
X437713Y381098D02*
Y375100D01*
X434714D01*
X433714Y376100D01*
Y377099D01*
X434714Y378099D01*
X437713D01*
X434714D01*
X433714Y379099D01*
Y380098D01*
X434714Y381098D01*
X437713D01*
X428716D02*
X430716D01*
X431715Y380098D01*
Y376100D01*
X430716Y375100D01*
X428716D01*
X427716Y376100D01*
Y380098D01*
X428716Y381098D01*
X425717D02*
X421718D01*
X423718D01*
Y375100D01*
X419719Y381098D02*
X415720D01*
X417720D01*
Y375100D01*
X410722Y381098D02*
X412721D01*
X413721Y380098D01*
Y376100D01*
X412721Y375100D01*
X410722D01*
X409722Y376100D01*
Y380098D01*
X410722Y381098D01*
X407723Y375100D02*
Y381098D01*
X405724Y379099D01*
X403724Y381098D01*
Y375100D01*
X401725Y374100D02*
X397726D01*
X395727Y381098D02*
Y375100D01*
Y378099D01*
X391728D01*
Y381098D01*
Y375100D01*
X385730Y381098D02*
X389729D01*
Y375100D01*
X385730D01*
X389729Y378099D02*
X387729D01*
X383731Y375100D02*
Y379099D01*
X381731Y381098D01*
X379732Y379099D01*
Y375100D01*
Y378099D01*
X383731D01*
X377733Y381098D02*
Y375100D01*
X374734D01*
X373734Y376100D01*
Y380098D01*
X374734Y381098D01*
X377733D01*
X367736D02*
X371735D01*
Y375100D01*
X367736D01*
X371735Y378099D02*
X369735D01*
X365737Y375100D02*
Y381098D01*
X362737D01*
X361738Y380098D01*
Y378099D01*
X362737Y377099D01*
X365737D01*
X363737D02*
X361738Y375100D01*
X359738Y374100D02*
X355740D01*
X353740Y381098D02*
Y375100D01*
X351741Y377099D01*
X349742Y375100D01*
Y381098D01*
X347742Y375100D02*
Y381098D01*
X344743D01*
X343744Y380098D01*
Y378099D01*
X344743Y377099D01*
X347742D01*
X345743D02*
X343744Y375100D01*
X341744D02*
Y381098D01*
X338745D01*
X337746Y380098D01*
Y378099D01*
X338745Y377099D01*
X341744D01*
X331748Y375100D02*
X335746D01*
X331748Y379099D01*
Y380098D01*
X332747Y381098D01*
X334747D01*
X335746Y380098D01*
X366101Y117198D02*
X370100D01*
Y111200D01*
X366101D01*
X370100Y114199D02*
X368101D01*
X364102Y117198D02*
X360103D01*
X362103D01*
Y111200D01*
X358104Y117198D02*
Y111200D01*
Y114199D01*
X354105D01*
Y117198D01*
Y111200D01*
X352106D02*
X350107D01*
X351106D01*
Y117198D01*
X352106Y116198D01*
X347107Y110200D02*
X343109D01*
X341109Y117198D02*
Y112200D01*
X340110Y111200D01*
X338110D01*
X337111Y112200D01*
Y117198D01*
X335111Y110200D02*
X331113D01*
X329113Y117198D02*
Y111200D01*
X326114D01*
X325115Y112200D01*
Y113199D01*
X326114Y114199D01*
X329113D01*
X326114D01*
X325115Y115199D01*
Y116198D01*
X326114Y117198D01*
X329113D01*
X320116D02*
X322115D01*
X323115Y116198D01*
Y112200D01*
X322115Y111200D01*
X320116D01*
X319116Y112200D01*
Y116198D01*
X320116Y117198D01*
X317117D02*
X313118D01*
X315118D01*
Y111200D01*
X311119Y117198D02*
X307120D01*
X309120D01*
Y111200D01*
X302122Y117198D02*
X304121D01*
X305121Y116198D01*
Y112200D01*
X304121Y111200D01*
X302122D01*
X301122Y112200D01*
Y116198D01*
X302122Y117198D01*
X299123Y111200D02*
Y117198D01*
X297124Y115199D01*
X295124Y117198D01*
Y111200D01*
X293125Y110200D02*
X289126D01*
X287127Y117198D02*
Y111200D01*
Y114199D01*
X283128D01*
Y117198D01*
Y111200D01*
X277130Y117198D02*
X281129D01*
Y111200D01*
X277130D01*
X281129Y114199D02*
X279129D01*
X275131Y111200D02*
Y115199D01*
X273131Y117198D01*
X271132Y115199D01*
Y111200D01*
Y114199D01*
X275131D01*
X269133Y117198D02*
Y111200D01*
X266134D01*
X265134Y112200D01*
Y116198D01*
X266134Y117198D01*
X269133D01*
X259136D02*
X263135D01*
Y111200D01*
X259136D01*
X263135Y114199D02*
X261135D01*
X257137Y111200D02*
Y117198D01*
X254137D01*
X253138Y116198D01*
Y114199D01*
X254137Y113199D01*
X257137D01*
X255137D02*
X253138Y111200D01*
X251138Y110200D02*
X247140D01*
X245140Y117198D02*
Y111200D01*
X243141Y113199D01*
X241142Y111200D01*
Y117198D01*
X239142Y111200D02*
Y117198D01*
X236143D01*
X235144Y116198D01*
Y114199D01*
X236143Y113199D01*
X239142D01*
X237143D02*
X235144Y111200D01*
X233144D02*
Y117198D01*
X230145D01*
X229146Y116198D01*
Y114199D01*
X230145Y113199D01*
X233144D01*
X227146Y111200D02*
X225147D01*
X226147D01*
Y117198D01*
X227146Y116198D01*
X476101Y535998D02*
X478100D01*
X479100Y534998D01*
Y531000D01*
X478100Y530000D01*
X476101D01*
X475101Y531000D01*
Y534998D01*
X476101Y535998D01*
X473102D02*
Y530000D01*
X470103D01*
X469103Y531000D01*
Y531999D01*
X470103Y532999D01*
X473102D01*
X470103D01*
X469103Y533999D01*
Y534998D01*
X470103Y535998D01*
X473102D01*
X467104Y530000D02*
X465104D01*
X466104D01*
Y535998D01*
X467104Y534998D01*
X458107Y535998D02*
X460106Y534998D01*
X462106Y532999D01*
Y531000D01*
X461106Y530000D01*
X459106D01*
X458107Y531000D01*
Y531999D01*
X459106Y532999D01*
X462106D01*
X523101Y535998D02*
X525100D01*
X526100Y534998D01*
Y531000D01*
X525100Y530000D01*
X523101D01*
X522101Y531000D01*
Y534998D01*
X523101Y535998D01*
X520102D02*
Y530000D01*
X517103D01*
X516103Y531000D01*
Y531999D01*
X517103Y532999D01*
X520102D01*
X517103D01*
X516103Y533999D01*
Y534998D01*
X517103Y535998D01*
X520102D01*
X514104Y530000D02*
X512105D01*
X513104D01*
Y535998D01*
X514104Y534998D01*
X505107Y535998D02*
X509105D01*
Y532999D01*
X507106Y533999D01*
X506107D01*
X505107Y532999D01*
Y531000D01*
X506107Y530000D01*
X508106D01*
X509105Y531000D01*
X476101Y444498D02*
X478100D01*
X479100Y443498D01*
Y439500D01*
X478100Y438500D01*
X476101D01*
X475101Y439500D01*
Y443498D01*
X476101Y444498D01*
X473102D02*
Y438500D01*
X470103D01*
X469103Y439500D01*
Y440499D01*
X470103Y441499D01*
X473102D01*
X470103D01*
X469103Y442499D01*
Y443498D01*
X470103Y444498D01*
X473102D01*
X467104Y438500D02*
X465104D01*
X466104D01*
Y444498D01*
X467104Y443498D01*
X459106Y438500D02*
Y444498D01*
X462106Y441499D01*
X458107D01*
X523101Y444498D02*
X525100D01*
X526100Y443498D01*
Y439500D01*
X525100Y438500D01*
X523101D01*
X522101Y439500D01*
Y443498D01*
X523101Y444498D01*
X520102D02*
Y438500D01*
X517103D01*
X516103Y439500D01*
Y440499D01*
X517103Y441499D01*
X520102D01*
X517103D01*
X516103Y442499D01*
Y443498D01*
X517103Y444498D01*
X520102D01*
X514104Y438500D02*
X512105D01*
X513104D01*
Y444498D01*
X514104Y443498D01*
X509105D02*
X508106Y444498D01*
X506107D01*
X505107Y443498D01*
Y442499D01*
X506107Y441499D01*
X507106D01*
X506107D01*
X505107Y440499D01*
Y439500D01*
X506107Y438500D01*
X508106D01*
X509105Y439500D01*
X139501Y488598D02*
X141500D01*
X142500Y487598D01*
Y483600D01*
X141500Y482600D01*
X139501D01*
X138501Y483600D01*
Y487598D01*
X139501Y488598D01*
X136502D02*
Y482600D01*
X133503D01*
X132503Y483600D01*
Y484599D01*
X133503Y485599D01*
X136502D01*
X133503D01*
X132503Y486599D01*
Y487598D01*
X133503Y488598D01*
X136502D01*
X130504Y482600D02*
X128505D01*
X129504D01*
Y488598D01*
X130504Y487598D01*
X121507Y482600D02*
X125505D01*
X121507Y486599D01*
Y487598D01*
X122506Y488598D01*
X124506D01*
X125505Y487598D01*
X47501Y488598D02*
X49500D01*
X50500Y487598D01*
Y483600D01*
X49500Y482600D01*
X47501D01*
X46501Y483600D01*
Y487598D01*
X47501Y488598D01*
X44502D02*
Y482600D01*
X41503D01*
X40503Y483600D01*
Y484599D01*
X41503Y485599D01*
X44502D01*
X41503D01*
X40503Y486599D01*
Y487598D01*
X41503Y488598D01*
X44502D01*
X38504Y482600D02*
X36505D01*
X37504D01*
Y488598D01*
X38504Y487598D01*
X33505D02*
X32506Y488598D01*
X30507D01*
X29507Y487598D01*
Y483600D01*
X30507Y482600D01*
X32506D01*
X33505Y483600D01*
Y487598D01*
X431501Y98598D02*
X433500D01*
X434500Y97598D01*
Y93600D01*
X433500Y92600D01*
X431501D01*
X430501Y93600D01*
Y97598D01*
X431501Y98598D01*
X428502D02*
Y92600D01*
X425503D01*
X424503Y93600D01*
Y94599D01*
X425503Y95599D01*
X428502D01*
X425503D01*
X424503Y96599D01*
Y97598D01*
X425503Y98598D01*
X428502D01*
X422504Y97598D02*
X421504Y98598D01*
X419505D01*
X418505Y97598D01*
Y96599D01*
X419505Y95599D01*
X418505Y94599D01*
Y93600D01*
X419505Y92600D01*
X421504D01*
X422504Y93600D01*
Y94599D01*
X421504Y95599D01*
X422504Y96599D01*
Y97598D01*
X421504Y95599D02*
X419505D01*
X431501Y51598D02*
X433500D01*
X434500Y50598D01*
Y46600D01*
X433500Y45600D01*
X431501D01*
X430501Y46600D01*
Y50598D01*
X431501Y51598D01*
X428502D02*
Y45600D01*
X425503D01*
X424503Y46600D01*
Y47599D01*
X425503Y48599D01*
X428502D01*
X425503D01*
X424503Y49599D01*
Y50598D01*
X425503Y51598D01*
X428502D01*
X422504D02*
X418505D01*
Y50598D01*
X422504Y46600D01*
Y45600D01*
X523001Y98598D02*
X525000D01*
X526000Y97598D01*
Y93600D01*
X525000Y92600D01*
X523001D01*
X522001Y93600D01*
Y97598D01*
X523001Y98598D01*
X520002D02*
Y92600D01*
X517003D01*
X516003Y93600D01*
Y94599D01*
X517003Y95599D01*
X520002D01*
X517003D01*
X516003Y96599D01*
Y97598D01*
X517003Y98598D01*
X520002D01*
X510005D02*
X512005Y97598D01*
X514004Y95599D01*
Y93600D01*
X513004Y92600D01*
X511005D01*
X510005Y93600D01*
Y94599D01*
X511005Y95599D01*
X514004D01*
X85601Y150998D02*
X87600D01*
X88600Y149998D01*
Y146000D01*
X87600Y145000D01*
X85601D01*
X84601Y146000D01*
Y149998D01*
X85601Y150998D01*
X82602D02*
Y145000D01*
X79603D01*
X78603Y146000D01*
Y146999D01*
X79603Y147999D01*
X82602D01*
X79603D01*
X78603Y148999D01*
Y149998D01*
X79603Y150998D01*
X82602D01*
X73605Y145000D02*
Y150998D01*
X76604Y147999D01*
X72605D01*
X38601Y150998D02*
X40600D01*
X41600Y149998D01*
Y146000D01*
X40600Y145000D01*
X38601D01*
X37601Y146000D01*
Y149998D01*
X38601Y150998D01*
X35602D02*
Y145000D01*
X32603D01*
X31603Y146000D01*
Y146999D01*
X32603Y147999D01*
X35602D01*
X32603D01*
X31603Y148999D01*
Y149998D01*
X32603Y150998D01*
X35602D01*
X29604Y149998D02*
X28604Y150998D01*
X26605D01*
X25605Y149998D01*
Y148999D01*
X26605Y147999D01*
X27604D01*
X26605D01*
X25605Y146999D01*
Y146000D01*
X26605Y145000D01*
X28604D01*
X29604Y146000D01*
X491501Y466698D02*
X492501Y467698D01*
X494500D01*
X495500Y466698D01*
Y462700D01*
X494500Y461700D01*
X492501D01*
X491501Y462700D01*
X486503Y461700D02*
Y467698D01*
X489502Y464699D01*
X485503D01*
X83701Y493998D02*
X84701Y494998D01*
X86700D01*
X87700Y493998D01*
Y490000D01*
X86700Y489000D01*
X84701D01*
X83701Y490000D01*
X81702Y493998D02*
X80702Y494998D01*
X78703D01*
X77703Y493998D01*
Y492999D01*
X78703Y491999D01*
X79703D01*
X78703D01*
X77703Y490999D01*
Y490000D01*
X78703Y489000D01*
X80702D01*
X81702Y490000D01*
X467801Y54998D02*
X468801Y55998D01*
X470800D01*
X471800Y54998D01*
Y51000D01*
X470800Y50000D01*
X468801D01*
X467801Y51000D01*
X461803Y50000D02*
X465802D01*
X461803Y53999D01*
Y54998D01*
X462803Y55998D01*
X464802D01*
X465802Y54998D01*
X54001Y84798D02*
X55001Y85798D01*
X57000D01*
X58000Y84798D01*
Y80800D01*
X57000Y79800D01*
X55001D01*
X54001Y80800D01*
X52002Y79800D02*
X50003D01*
X51002D01*
Y85798D01*
X52002Y84798D01*
X38601Y60498D02*
X40600D01*
X41600Y59498D01*
Y55500D01*
X40600Y54500D01*
X38601D01*
X37601Y55500D01*
Y59498D01*
X38601Y60498D01*
X35602D02*
Y54500D01*
X32603D01*
X31603Y55500D01*
Y56499D01*
X32603Y57499D01*
X35602D01*
X32603D01*
X31603Y58499D01*
Y59498D01*
X32603Y60498D01*
X35602D01*
X29604Y54500D02*
X27604D01*
X28604D01*
Y60498D01*
X29604Y59498D01*
X85601Y60498D02*
X87600D01*
X88600Y59498D01*
Y55500D01*
X87600Y54500D01*
X85601D01*
X84601Y55500D01*
Y59498D01*
X85601Y60498D01*
X82602D02*
Y54500D01*
X79603D01*
X78603Y55500D01*
Y56499D01*
X79603Y57499D01*
X82602D01*
X79603D01*
X78603Y58499D01*
Y59498D01*
X79603Y60498D01*
X82602D01*
X72605Y54500D02*
X76604D01*
X72605Y58499D01*
Y59498D01*
X73605Y60498D01*
X75604D01*
X76604Y59498D01*
X523001Y51598D02*
X525000D01*
X526000Y50598D01*
Y46600D01*
X525000Y45600D01*
X523001D01*
X522001Y46600D01*
Y50598D01*
X523001Y51598D01*
X520002D02*
Y45600D01*
X517003D01*
X516003Y46600D01*
Y47599D01*
X517003Y48599D01*
X520002D01*
X517003D01*
X516003Y49599D01*
Y50598D01*
X517003Y51598D01*
X520002D01*
X510005D02*
X514004D01*
Y48599D01*
X512005Y49599D01*
X511005D01*
X510005Y48599D01*
Y46600D01*
X511005Y45600D01*
X513004D01*
X514004Y46600D01*
X47501Y535598D02*
X49500D01*
X50500Y534598D01*
Y530600D01*
X49500Y529600D01*
X47501D01*
X46501Y530600D01*
Y534598D01*
X47501Y535598D01*
X44502D02*
Y529600D01*
X41503D01*
X40503Y530600D01*
Y531599D01*
X41503Y532599D01*
X44502D01*
X41503D01*
X40503Y533599D01*
Y534598D01*
X41503Y535598D01*
X44502D01*
X38504Y530600D02*
X37504Y529600D01*
X35505D01*
X34505Y530600D01*
Y534598D01*
X35505Y535598D01*
X37504D01*
X38504Y534598D01*
Y533599D01*
X37504Y532599D01*
X34505D01*
X139501Y535598D02*
X141500D01*
X142500Y534598D01*
Y530600D01*
X141500Y529600D01*
X139501D01*
X138501Y530600D01*
Y534598D01*
X139501Y535598D01*
X136502D02*
Y529600D01*
X133503D01*
X132503Y530600D01*
Y531599D01*
X133503Y532599D01*
X136502D01*
X133503D01*
X132503Y533599D01*
Y534598D01*
X133503Y535598D01*
X136502D01*
X130504Y529600D02*
X128505D01*
X129504D01*
Y535598D01*
X130504Y534598D01*
X125505Y529600D02*
X123506D01*
X124506D01*
Y535598D01*
X125505Y534598D01*
X0Y0D02*
Y547500D01*
X547500D01*
Y0D02*
Y547500D01*
X0Y0D02*
X547500D01*
D23*
X36028Y87852D02*
G03*
X36028Y87852I-1181J0D01*
G01*
X473034Y28154D02*
G03*
X473034Y28154I-1181J0D01*
G01*
X88933Y510153D02*
G03*
X88933Y510153I-1181J0D01*
G01*
X511835Y459648D02*
G03*
X511835Y459648I-1181J0D01*
G01*
X26579Y129847D02*
G03*
X26579Y129847I-1181J0D01*
G01*
X83784Y123153D02*
G03*
X83784Y123153I-1181J0D01*
G01*
X516027Y82602D02*
G03*
X516027Y82602I-1181J0D01*
G01*
X417835Y25398D02*
G03*
X417835Y25398I-1181J0D01*
G01*
X424528Y82602D02*
G03*
X424528Y82602I-1181J0D01*
G01*
X33835Y462398D02*
G03*
X33835Y462398I-1181J0D01*
G01*
X125835D02*
G03*
X125835Y462398I-1181J0D01*
G01*
X521283Y416653D02*
G03*
X521283Y416653I-1181J0D01*
G01*
X464079Y423347D02*
G03*
X464079Y423347I-1181J0D01*
G01*
X521283Y508153D02*
G03*
X521283Y508153I-1181J0D01*
G01*
X464079Y514847D02*
G03*
X464079Y514847I-1181J0D01*
G01*
X132527Y519602D02*
G03*
X132527Y519602I-1181J0D01*
G01*
X509335Y25398D02*
G03*
X509335Y25398I-1181J0D01*
G01*
X40528Y519602D02*
G03*
X40528Y519602I-1181J0D01*
G01*
X83784Y32654D02*
G03*
X83784Y32654I-1181J0D01*
G01*
X26579Y39346D02*
G03*
X26579Y39346I-1181J0D01*
G01*
D24*
X43606Y93906D02*
G03*
X43606Y93906I-492J0D01*
G01*
X478398Y19886D02*
G03*
X478398Y19886I-492J0D01*
G01*
X94298Y501886D02*
G03*
X94298Y501886I-492J0D01*
G01*
X502878Y453594D02*
G03*
X502878Y453594I-492J0D01*
G01*
X19837Y138114D02*
G03*
X19837Y138114I-492J0D01*
G01*
X89148Y114886D02*
G03*
X89148Y114886I-492J0D01*
G01*
X523606Y88656D02*
G03*
X523606Y88656I-492J0D01*
G01*
X408878Y19344D02*
G03*
X408878Y19344I-492J0D01*
G01*
X432106Y88656D02*
G03*
X432106Y88656I-492J0D01*
G01*
X24878Y456345D02*
G03*
X24878Y456345I-492J0D01*
G01*
X116878D02*
G03*
X116878Y456345I-492J0D01*
G01*
X526648Y408386D02*
G03*
X526648Y408386I-492J0D01*
G01*
X457337Y431614D02*
G03*
X457337Y431614I-492J0D01*
G01*
X526648Y499886D02*
G03*
X526648Y499886I-492J0D01*
G01*
X457337Y523114D02*
G03*
X457337Y523114I-492J0D01*
G01*
X140106Y525656D02*
G03*
X140106Y525656I-492J0D01*
G01*
X500378Y19344D02*
G03*
X500378Y19344I-492J0D01*
G01*
X48106Y525656D02*
G03*
X48106Y525656I-492J0D01*
G01*
X89148Y24386D02*
G03*
X89148Y24386I-492J0D01*
G01*
X19837Y47614D02*
G03*
X19837Y47614I-492J0D01*
G01*
D26*
X38783Y71711D02*
Y91789D01*
X24216Y71711D02*
Y91789D01*
X38783D01*
X24216Y71711D02*
X38783D01*
X455711Y24216D02*
Y38783D01*
X475789Y24216D02*
Y38783D01*
X455711D02*
X475789D01*
X455711Y24216D02*
X475789D01*
X71611Y506216D02*
X91689D01*
X71611Y520784D02*
X91689D01*
Y506216D02*
Y520784D01*
X71611Y506216D02*
Y520784D01*
X506716Y475789D02*
X521283D01*
X506716Y455711D02*
X521283D01*
Y475789D01*
X506716Y455711D02*
Y475789D01*
X41539Y119217D02*
Y133783D01*
X21461Y119217D02*
Y133783D01*
Y119217D02*
X41539D01*
X21461Y133783D02*
X41539D01*
X66461Y119217D02*
Y133783D01*
X86539Y119217D02*
Y133783D01*
X66461D02*
X86539D01*
X66461Y119217D02*
X86539D01*
X504217Y66461D02*
X518783D01*
X504217Y86539D02*
X518783D01*
X504217Y66461D02*
Y86539D01*
X518783Y66461D02*
Y86539D01*
X412717Y41539D02*
X427283D01*
X412717Y21461D02*
X427283D01*
Y41539D01*
X412717Y21461D02*
Y41539D01*
Y66461D02*
X427283D01*
X412717Y86539D02*
X427283D01*
X412717Y66461D02*
Y86539D01*
X427283Y66461D02*
Y86539D01*
X28717Y478539D02*
X43283D01*
X28717Y458461D02*
X43283D01*
Y478539D01*
X28717Y458461D02*
Y478539D01*
X120717D02*
X135283D01*
X120717Y458461D02*
X135283D01*
Y478539D01*
X120717Y458461D02*
Y478539D01*
X503961Y412717D02*
Y427283D01*
X524039Y412717D02*
Y427283D01*
X503961D02*
X524039D01*
X503961Y412717D02*
X524039D01*
X479039D02*
Y427283D01*
X458961Y412717D02*
Y427283D01*
Y412717D02*
X479039D01*
X458961Y427283D02*
X479039D01*
X503961Y504217D02*
Y518783D01*
X524039Y504217D02*
Y518783D01*
X503961D02*
X524039D01*
X503961Y504217D02*
X524039D01*
X479039D02*
Y518783D01*
X458961Y504217D02*
Y518783D01*
Y504217D02*
X479039D01*
X458961Y518783D02*
X479039D01*
X120717Y503461D02*
X135283D01*
X120717Y523539D02*
X135283D01*
X120717Y503461D02*
Y523539D01*
X135283Y503461D02*
Y523539D01*
X504217Y41539D02*
X518783D01*
X504217Y21461D02*
X518783D01*
Y41539D01*
X504217Y21461D02*
Y41539D01*
X28717Y503461D02*
X43283D01*
X28717Y523539D02*
X43283D01*
X28717Y503461D02*
Y523539D01*
X43283Y503461D02*
Y523539D01*
X66461Y28717D02*
Y43283D01*
X86539Y28717D02*
Y43283D01*
X66461D02*
X86539D01*
X66461Y28717D02*
X86539D01*
X41539D02*
Y43283D01*
X21461Y28717D02*
Y43283D01*
Y28717D02*
X41539D01*
X21461Y43283D02*
X41539D01*
M02*
