G04 Layer_Physical_Order=4*
G04 Layer_Color=16711680*
%FSLAX25Y25*%
%MOIN*%
G70*
G01*
G75*
%ADD11O,0.01870X0.05512*%
%ADD12R,0.03937X0.07874*%
%ADD13R,0.07874X0.03937*%
%ADD14O,0.05512X0.01870*%
%ADD16R,0.05000X0.05000*%
%ADD17R,0.05000X0.05000*%
%ADD18C,0.00700*%
%ADD19C,0.01000*%
%ADD20C,0.05906*%
%ADD21R,0.05906X0.05906*%
%ADD22C,0.03000*%
D11*
X456793Y43114D02*
D03*
X459352D02*
D03*
X461911D02*
D03*
X464470D02*
D03*
X467029D02*
D03*
X469589D02*
D03*
X472148D02*
D03*
X474707D02*
D03*
X456793Y19886D02*
D03*
X459352D02*
D03*
X461911D02*
D03*
X464470D02*
D03*
X467029D02*
D03*
X469589D02*
D03*
X472148D02*
D03*
X474707D02*
D03*
X90607Y501886D02*
D03*
X88048D02*
D03*
X85489D02*
D03*
X82929D02*
D03*
X80370D02*
D03*
X77811D02*
D03*
X75252D02*
D03*
X72693D02*
D03*
X90607Y525114D02*
D03*
X88048D02*
D03*
X85489D02*
D03*
X82929D02*
D03*
X80370D02*
D03*
X77811D02*
D03*
X75252D02*
D03*
X72693D02*
D03*
X40457Y114886D02*
D03*
X37898D02*
D03*
X35339D02*
D03*
X32780D02*
D03*
X30220D02*
D03*
X27661D02*
D03*
X25102D02*
D03*
X22543D02*
D03*
X40457Y138114D02*
D03*
X37898D02*
D03*
X35339D02*
D03*
X32780D02*
D03*
X30220D02*
D03*
X27661D02*
D03*
X25102D02*
D03*
X22543D02*
D03*
X67543D02*
D03*
X70102D02*
D03*
X72661D02*
D03*
X75220D02*
D03*
X77780D02*
D03*
X80339D02*
D03*
X82898D02*
D03*
X85457D02*
D03*
X67543Y114886D02*
D03*
X70102D02*
D03*
X72661D02*
D03*
X75220D02*
D03*
X77780D02*
D03*
X80339D02*
D03*
X82898D02*
D03*
X85457D02*
D03*
X505043Y431614D02*
D03*
X507602D02*
D03*
X510161D02*
D03*
X512720D02*
D03*
X515280D02*
D03*
X517839D02*
D03*
X520398D02*
D03*
X522957D02*
D03*
X505043Y408386D02*
D03*
X507602D02*
D03*
X510161D02*
D03*
X512720D02*
D03*
X515280D02*
D03*
X517839D02*
D03*
X520398D02*
D03*
X522957D02*
D03*
X477957D02*
D03*
X475398D02*
D03*
X472839D02*
D03*
X470280D02*
D03*
X467720D02*
D03*
X465161D02*
D03*
X462602D02*
D03*
X460043D02*
D03*
X477957Y431614D02*
D03*
X475398D02*
D03*
X472839D02*
D03*
X470280D02*
D03*
X467720D02*
D03*
X465161D02*
D03*
X462602D02*
D03*
X460043D02*
D03*
X505043Y523114D02*
D03*
X507602D02*
D03*
X510161D02*
D03*
X512720D02*
D03*
X515280D02*
D03*
X517839D02*
D03*
X520398D02*
D03*
X522957D02*
D03*
X505043Y499886D02*
D03*
X507602D02*
D03*
X510161D02*
D03*
X512720D02*
D03*
X515280D02*
D03*
X517839D02*
D03*
X520398D02*
D03*
X522957D02*
D03*
X477957D02*
D03*
X475398D02*
D03*
X472839D02*
D03*
X470280D02*
D03*
X467720D02*
D03*
X465161D02*
D03*
X462602D02*
D03*
X460043D02*
D03*
X477957Y523114D02*
D03*
X475398D02*
D03*
X472839D02*
D03*
X470280D02*
D03*
X467720D02*
D03*
X465161D02*
D03*
X462602D02*
D03*
X460043D02*
D03*
X67543Y47614D02*
D03*
X70102D02*
D03*
X72661D02*
D03*
X75220D02*
D03*
X77780D02*
D03*
X80339D02*
D03*
X82898D02*
D03*
X85457D02*
D03*
X67543Y24386D02*
D03*
X70102D02*
D03*
X72661D02*
D03*
X75220D02*
D03*
X77780D02*
D03*
X80339D02*
D03*
X82898D02*
D03*
X85457D02*
D03*
X40457D02*
D03*
X37898D02*
D03*
X35339D02*
D03*
X32780D02*
D03*
X30220D02*
D03*
X27661D02*
D03*
X25102D02*
D03*
X22543D02*
D03*
X40457Y47614D02*
D03*
X37898D02*
D03*
X35339D02*
D03*
X32780D02*
D03*
X30220D02*
D03*
X27661D02*
D03*
X25102D02*
D03*
X22543D02*
D03*
D12*
X328750Y444646D02*
D03*
X348750D02*
D03*
X358750D02*
D03*
X368750D02*
D03*
X338750D02*
D03*
X288750D02*
D03*
X318750D02*
D03*
X308750D02*
D03*
X298750D02*
D03*
X278750D02*
D03*
X238750D02*
D03*
X268750D02*
D03*
X258750D02*
D03*
X248750D02*
D03*
X228750D02*
D03*
X188750D02*
D03*
X218750D02*
D03*
X208750D02*
D03*
X198750D02*
D03*
X178750D02*
D03*
Y475354D02*
D03*
X198750D02*
D03*
X208750D02*
D03*
X218750D02*
D03*
X188750D02*
D03*
X228750D02*
D03*
X248750D02*
D03*
X258750D02*
D03*
X268750D02*
D03*
X238750D02*
D03*
X278750D02*
D03*
X298750D02*
D03*
X308750D02*
D03*
X318750D02*
D03*
X288750D02*
D03*
X338750D02*
D03*
X368750D02*
D03*
X358750D02*
D03*
X348750D02*
D03*
X328750D02*
D03*
X218750Y102854D02*
D03*
X198750D02*
D03*
X188750D02*
D03*
X178750D02*
D03*
X208750D02*
D03*
X258750D02*
D03*
X228750D02*
D03*
X238750D02*
D03*
X248750D02*
D03*
X268750D02*
D03*
X308750D02*
D03*
X278750D02*
D03*
X288750D02*
D03*
X298750D02*
D03*
X318750D02*
D03*
X358750D02*
D03*
X328750D02*
D03*
X338750D02*
D03*
X348750D02*
D03*
X368750D02*
D03*
Y72146D02*
D03*
X348750D02*
D03*
X338750D02*
D03*
X328750D02*
D03*
X358750D02*
D03*
X318750D02*
D03*
X298750D02*
D03*
X288750D02*
D03*
X278750D02*
D03*
X308750D02*
D03*
X268750D02*
D03*
X248750D02*
D03*
X238750D02*
D03*
X228750D02*
D03*
X258750D02*
D03*
X208750D02*
D03*
X178750D02*
D03*
X188750D02*
D03*
X198750D02*
D03*
X218750D02*
D03*
D13*
X444646Y218750D02*
D03*
Y198750D02*
D03*
Y188750D02*
D03*
Y178750D02*
D03*
Y208750D02*
D03*
Y258750D02*
D03*
Y228750D02*
D03*
Y238750D02*
D03*
Y248750D02*
D03*
Y268750D02*
D03*
Y308750D02*
D03*
Y278750D02*
D03*
Y288750D02*
D03*
Y298750D02*
D03*
Y318750D02*
D03*
Y358750D02*
D03*
Y328750D02*
D03*
Y338750D02*
D03*
Y348750D02*
D03*
Y368750D02*
D03*
X475354D02*
D03*
Y348750D02*
D03*
Y338750D02*
D03*
Y328750D02*
D03*
Y358750D02*
D03*
Y318750D02*
D03*
Y298750D02*
D03*
Y288750D02*
D03*
Y278750D02*
D03*
Y308750D02*
D03*
Y268750D02*
D03*
Y248750D02*
D03*
Y238750D02*
D03*
Y228750D02*
D03*
Y258750D02*
D03*
Y208750D02*
D03*
Y178750D02*
D03*
Y188750D02*
D03*
Y198750D02*
D03*
Y218750D02*
D03*
X102854Y328750D02*
D03*
Y348750D02*
D03*
Y358750D02*
D03*
Y368750D02*
D03*
Y338750D02*
D03*
Y288750D02*
D03*
Y318750D02*
D03*
Y308750D02*
D03*
Y298750D02*
D03*
Y278750D02*
D03*
Y238750D02*
D03*
Y268750D02*
D03*
Y258750D02*
D03*
Y248750D02*
D03*
Y228750D02*
D03*
Y188750D02*
D03*
Y218750D02*
D03*
Y208750D02*
D03*
Y198750D02*
D03*
Y178750D02*
D03*
X72146D02*
D03*
Y198750D02*
D03*
Y208750D02*
D03*
Y218750D02*
D03*
Y188750D02*
D03*
Y228750D02*
D03*
Y248750D02*
D03*
Y258750D02*
D03*
Y268750D02*
D03*
Y238750D02*
D03*
Y278750D02*
D03*
Y298750D02*
D03*
Y308750D02*
D03*
Y318750D02*
D03*
Y288750D02*
D03*
Y338750D02*
D03*
Y368750D02*
D03*
Y358750D02*
D03*
Y348750D02*
D03*
Y328750D02*
D03*
D14*
X43114Y90707D02*
D03*
Y88148D02*
D03*
Y85589D02*
D03*
Y83030D02*
D03*
Y80471D02*
D03*
Y77911D02*
D03*
Y75352D02*
D03*
Y72793D02*
D03*
X19886Y90707D02*
D03*
Y88148D02*
D03*
Y85589D02*
D03*
Y83030D02*
D03*
Y80471D02*
D03*
Y77911D02*
D03*
Y75352D02*
D03*
Y72793D02*
D03*
X525614Y474707D02*
D03*
Y472148D02*
D03*
Y469589D02*
D03*
Y467029D02*
D03*
Y464470D02*
D03*
Y461911D02*
D03*
Y459352D02*
D03*
Y456793D02*
D03*
X502386Y474707D02*
D03*
Y472148D02*
D03*
Y469589D02*
D03*
Y467029D02*
D03*
Y464470D02*
D03*
Y461911D02*
D03*
Y459352D02*
D03*
Y456793D02*
D03*
X499886Y67543D02*
D03*
Y70102D02*
D03*
Y72661D02*
D03*
Y75220D02*
D03*
Y77780D02*
D03*
Y80339D02*
D03*
Y82898D02*
D03*
Y85457D02*
D03*
X523114Y67543D02*
D03*
Y70102D02*
D03*
Y72661D02*
D03*
Y75220D02*
D03*
Y77780D02*
D03*
Y80339D02*
D03*
Y82898D02*
D03*
Y85457D02*
D03*
X431614Y40457D02*
D03*
Y37898D02*
D03*
Y35339D02*
D03*
Y32780D02*
D03*
Y30220D02*
D03*
Y27661D02*
D03*
Y25102D02*
D03*
Y22543D02*
D03*
X408386Y40457D02*
D03*
Y37898D02*
D03*
Y35339D02*
D03*
Y32780D02*
D03*
Y30220D02*
D03*
Y27661D02*
D03*
Y25102D02*
D03*
Y22543D02*
D03*
Y67543D02*
D03*
Y70102D02*
D03*
Y72661D02*
D03*
Y75220D02*
D03*
Y77780D02*
D03*
Y80339D02*
D03*
Y82898D02*
D03*
Y85457D02*
D03*
X431614Y67543D02*
D03*
Y70102D02*
D03*
Y72661D02*
D03*
Y75220D02*
D03*
Y77780D02*
D03*
Y80339D02*
D03*
Y82898D02*
D03*
Y85457D02*
D03*
X47614Y477457D02*
D03*
Y474898D02*
D03*
Y472339D02*
D03*
Y469780D02*
D03*
Y467220D02*
D03*
Y464661D02*
D03*
Y462102D02*
D03*
Y459543D02*
D03*
X24386Y477457D02*
D03*
Y474898D02*
D03*
Y472339D02*
D03*
Y469780D02*
D03*
Y467220D02*
D03*
Y464661D02*
D03*
Y462102D02*
D03*
Y459543D02*
D03*
X139614Y477457D02*
D03*
Y474898D02*
D03*
Y472339D02*
D03*
Y469780D02*
D03*
Y467220D02*
D03*
Y464661D02*
D03*
Y462102D02*
D03*
Y459543D02*
D03*
X116386Y477457D02*
D03*
Y474898D02*
D03*
Y472339D02*
D03*
Y469780D02*
D03*
Y467220D02*
D03*
Y464661D02*
D03*
Y462102D02*
D03*
Y459543D02*
D03*
X116386Y504543D02*
D03*
Y507102D02*
D03*
Y509661D02*
D03*
Y512220D02*
D03*
Y514780D02*
D03*
Y517339D02*
D03*
Y519898D02*
D03*
Y522457D02*
D03*
X139614Y504543D02*
D03*
Y507102D02*
D03*
Y509661D02*
D03*
Y512220D02*
D03*
Y514780D02*
D03*
Y517339D02*
D03*
Y519898D02*
D03*
Y522457D02*
D03*
X523114Y40457D02*
D03*
Y37898D02*
D03*
Y35339D02*
D03*
Y32780D02*
D03*
Y30220D02*
D03*
Y27661D02*
D03*
Y25102D02*
D03*
Y22543D02*
D03*
X499886Y40457D02*
D03*
Y37898D02*
D03*
Y35339D02*
D03*
Y32780D02*
D03*
Y30220D02*
D03*
Y27661D02*
D03*
Y25102D02*
D03*
Y22543D02*
D03*
X24386Y504543D02*
D03*
Y507102D02*
D03*
Y509661D02*
D03*
Y512220D02*
D03*
Y514780D02*
D03*
Y517339D02*
D03*
Y519898D02*
D03*
Y522457D02*
D03*
X47614Y504543D02*
D03*
Y507102D02*
D03*
Y509661D02*
D03*
Y512220D02*
D03*
Y514780D02*
D03*
Y517339D02*
D03*
Y519898D02*
D03*
Y522457D02*
D03*
D16*
X511000Y167500D02*
D03*
X518000D02*
D03*
X431000D02*
D03*
X438000D02*
D03*
X471000D02*
D03*
X478000D02*
D03*
X391000D02*
D03*
X398000D02*
D03*
X156200Y380000D02*
D03*
X149200D02*
D03*
X116200D02*
D03*
X109200D02*
D03*
X76200D02*
D03*
X69200D02*
D03*
X36200D02*
D03*
X29200D02*
D03*
D17*
X167500Y114000D02*
D03*
Y107000D02*
D03*
Y154000D02*
D03*
Y147000D02*
D03*
Y74000D02*
D03*
Y67000D02*
D03*
Y34000D02*
D03*
Y27000D02*
D03*
X380000Y391000D02*
D03*
Y398000D02*
D03*
Y431000D02*
D03*
Y438000D02*
D03*
Y471000D02*
D03*
Y478000D02*
D03*
Y511000D02*
D03*
Y518000D02*
D03*
D18*
X2350Y386000D02*
Y500900D01*
X5993Y504543D01*
X24386D01*
X116200Y492870D02*
Y504358D01*
X87992Y464661D02*
X116200Y492870D01*
Y504358D02*
X116386Y504543D01*
X47614Y464661D02*
X87992D01*
X15600Y393600D02*
X29200Y380000D01*
X15600Y393600D02*
Y399400D01*
X55700Y393500D02*
X69200Y380000D01*
X55700Y393500D02*
Y401700D01*
X95700Y393500D02*
X109200Y380000D01*
X95700Y393500D02*
Y401700D01*
X135700Y393500D02*
X149200Y380000D01*
X135700Y393500D02*
Y401700D01*
X156100Y380100D02*
Y400700D01*
Y380100D02*
X156200Y380000D01*
X116100Y380100D02*
Y400700D01*
Y380100D02*
X116200Y380000D01*
X76100Y380100D02*
Y400700D01*
Y380100D02*
X76200Y380000D01*
X36100Y380100D02*
X36200Y380000D01*
X36100Y380100D02*
Y400700D01*
X90333Y525388D02*
X90607Y525114D01*
X90333Y525388D02*
Y527881D01*
X85214Y533000D02*
X90333Y527881D01*
X34929Y533000D02*
X85214D01*
X24386Y522457D02*
X34929Y533000D01*
X24386Y477457D02*
X24400Y477471D01*
Y489900D01*
X47614Y438114D02*
Y459543D01*
X45900Y436400D02*
X47614Y438114D01*
X36800Y436400D02*
X45900D01*
X72693Y499793D02*
Y501886D01*
X65800Y492900D02*
X72693Y499793D01*
X70036Y504543D02*
X72693Y501886D01*
X47614Y504543D02*
X70036D01*
X161300Y452700D02*
Y489100D01*
X154200Y445600D02*
X161300Y452700D01*
X153558Y445600D02*
X154200D01*
X139614Y459543D02*
X153558Y445600D01*
X90607Y525114D02*
X113728D01*
X116386Y522457D01*
X108583Y522183D02*
X116112D01*
X105300Y518900D02*
X108583Y522183D01*
X105300Y500200D02*
Y518900D01*
Y500200D02*
X112400Y493100D01*
X116112Y522183D02*
X116386Y522457D01*
X178750Y493100D02*
Y507100D01*
Y513150D01*
X176043Y504543D02*
X178600Y507100D01*
X139614Y504543D02*
X176043D01*
X116386Y477457D02*
X117500Y478571D01*
Y489900D01*
X178750Y475354D02*
Y493100D01*
X164700D02*
X178750D01*
X175200Y516700D02*
Y539900D01*
X199000Y507100D02*
X208700D01*
X189100D02*
X199000D01*
X178750D02*
X189100D01*
X178600D02*
X178750D01*
X175200Y516700D02*
X178750Y513150D01*
Y444646D02*
Y475354D01*
Y416450D02*
X181204Y413996D01*
X178750Y416450D02*
Y444646D01*
X181204Y413996D02*
X188600D01*
X198600D02*
X208600D01*
X188600D02*
X198600D01*
X283750Y233750D02*
X288700Y238700D01*
Y297100D01*
X290000Y298400D01*
X280700Y309200D02*
X338600D01*
X278100Y306600D02*
X280700Y309200D01*
X278100Y299400D02*
Y306600D01*
Y299400D02*
X283750Y293750D01*
X285600Y228900D02*
X285900Y229200D01*
X261800Y228900D02*
X285600D01*
X258500Y232200D02*
X261800Y228900D01*
X285900Y229200D02*
X288700Y226400D01*
X258500Y232200D02*
Y289000D01*
X290000Y298400D02*
X342700D01*
X367700Y323400D01*
X485500D01*
X338600Y309200D02*
X362800Y333400D01*
X485500D01*
X378100Y303400D02*
X485500D01*
X343300Y268600D02*
X378100Y303400D01*
X310600Y268600D02*
X343300D01*
X308700Y266700D02*
X310600Y268600D01*
X308700Y262100D02*
Y266700D01*
X303750Y257150D02*
X308700Y262100D01*
X303750Y253750D02*
Y257150D01*
Y233750D02*
X308700Y238700D01*
Y257000D01*
X310200Y258500D01*
X345000D01*
X379900Y293400D01*
X485500D01*
X313750Y253750D02*
X318800Y248700D01*
X353100D01*
X387800Y283400D01*
X485500D01*
X348700Y239000D02*
X383100Y273400D01*
X318500Y239000D02*
X348700D01*
X313750Y243750D02*
X318500Y239000D01*
X383100Y273400D02*
X485500D01*
X313750Y233550D02*
X319000Y228300D01*
X313750Y233550D02*
Y233750D01*
X319000Y228300D02*
X348200D01*
X383300Y263400D01*
X485500D01*
X514804Y328750D02*
X515054Y328500D01*
X475809Y328750D02*
X514804D01*
Y318750D02*
X515054Y318500D01*
X475809Y318750D02*
X514804D01*
X475354D02*
X514350D01*
X514600Y318500D01*
X475354Y308750D02*
X514350D01*
X514600Y308500D01*
X475354Y298750D02*
X514350D01*
X514600Y298500D01*
X475354Y288750D02*
X514350D01*
X514600Y288500D01*
X475354Y278750D02*
X514350D01*
X514600Y278500D01*
X475354Y258750D02*
X514350D01*
X514600Y258500D01*
X475354Y268750D02*
X514350D01*
X514600Y268500D01*
X475354Y248750D02*
X514350D01*
X514600Y248500D01*
X475354Y238750D02*
X514350D01*
X514600Y238500D01*
X475354Y228750D02*
X514350D01*
X514600Y228500D01*
X475354Y218750D02*
X514350D01*
X514600Y218500D01*
X475354Y208750D02*
X514350D01*
X514600Y208500D01*
X475354Y198750D02*
X514350D01*
X514600Y198500D01*
X475354Y188750D02*
X514350D01*
X514600Y188500D01*
X514350Y178750D02*
X514600Y178500D01*
X475354Y178750D02*
X514350D01*
X333800Y81300D02*
Y177700D01*
X293946Y81446D02*
Y182554D01*
X293800Y81300D02*
X293946Y81446D01*
X278900Y197600D02*
X293946Y182554D01*
X263946Y81446D02*
Y185154D01*
X263800Y81300D02*
X263946Y81446D01*
X248600Y200500D02*
X263946Y185154D01*
X253946Y81446D02*
Y183454D01*
X253800Y81300D02*
X253946Y81446D01*
X238900Y198500D02*
X253946Y183454D01*
X323800Y81300D02*
Y167600D01*
X321700Y169700D02*
X323800Y167600D01*
X317400Y169700D02*
X321700D01*
X325500Y186000D02*
X333800Y177700D01*
X434950Y178750D02*
X444646D01*
X434950Y188750D02*
X444646D01*
X434950Y198750D02*
X444646D01*
X434950Y208750D02*
X444646D01*
X434950Y218750D02*
X444646D01*
X434950Y228750D02*
X444646D01*
X434950Y238750D02*
X444646D01*
X434950Y248750D02*
X444646D01*
X434950Y258750D02*
X444646D01*
X434950Y268750D02*
X444646D01*
X434950Y278750D02*
X444646D01*
X434950Y288750D02*
X444646D01*
X434950Y298750D02*
X444646D01*
X434950Y308750D02*
X444646D01*
X434950Y318750D02*
X444646D01*
X434950Y328750D02*
X444646D01*
X172954Y218900D02*
X248900D01*
X174300Y223000D02*
X190200D01*
X168500Y228800D02*
X174300Y223000D01*
X163200Y228800D02*
X168500D01*
X160900Y226500D02*
X163200Y228800D01*
X160900Y205000D02*
Y226500D01*
Y205000D02*
X163700Y202200D01*
Y184000D02*
Y202200D01*
X218200Y298200D02*
X223750Y303750D01*
X140400Y298200D02*
X218200D01*
X62850Y253850D02*
X140450D01*
X140500Y253800D01*
X223750Y293750D02*
X228700Y288800D01*
Y282300D02*
Y288800D01*
Y282300D02*
X232500Y278500D01*
X236400D01*
X238400Y276500D01*
Y271700D02*
Y276500D01*
Y271700D02*
X241700Y268400D01*
X246300D01*
X248700Y266000D01*
Y251200D02*
Y266000D01*
X246200Y248700D02*
X248700Y251200D01*
X163300Y248700D02*
X246200D01*
X158450Y243850D02*
X163300Y248700D01*
X62850Y243850D02*
X158450D01*
X228500Y269000D02*
X233750Y263750D01*
X167200Y269000D02*
X228500D01*
X162050Y263850D02*
X167200Y269000D01*
X62850Y263850D02*
X162050D01*
X167954Y223900D02*
X172954Y218900D01*
X248900D02*
X253750Y223750D01*
X248600Y228600D02*
X253750Y233750D01*
X173254Y228600D02*
X248600D01*
X167954Y233900D02*
X173254Y228600D01*
X102854Y218750D02*
X112550D01*
X102854Y228750D02*
X112550D01*
X102854Y238750D02*
X112550D01*
X102854Y248750D02*
X112550D01*
X102854Y258750D02*
X112550D01*
X102854Y268750D02*
X112550D01*
X102854Y278750D02*
X112550D01*
X102854Y288750D02*
X112550D01*
X102854Y298750D02*
X112550D01*
X102854Y308750D02*
X112550D01*
X102854Y318750D02*
X112550D01*
X102854Y328750D02*
X112550D01*
X102854Y338750D02*
X112550D01*
X102854Y348750D02*
X112550D01*
X102854Y358750D02*
X112550D01*
X102854Y368750D02*
X112550D01*
X31500D02*
X72146D01*
X31500Y218750D02*
X72146D01*
X31500Y228750D02*
X72146D01*
X31500Y238750D02*
X72146D01*
X31500Y248750D02*
X72146D01*
X31500Y258750D02*
X72146D01*
X31500Y268750D02*
X72146D01*
X31500Y278750D02*
X72146D01*
X31500Y288750D02*
X72146D01*
X31500Y298750D02*
X72146D01*
X31500Y308750D02*
X72146D01*
X31500Y318750D02*
X72146D01*
X31500Y328750D02*
X72146D01*
X31500Y338750D02*
X72146D01*
X31500Y348750D02*
X72146D01*
X31500Y358750D02*
X72146D01*
X288700Y198400D02*
X317400Y169700D01*
X288700Y198400D02*
Y226400D01*
X253750Y293750D02*
X258500Y289000D01*
X293750Y293750D02*
X298800Y288700D01*
Y195100D02*
Y288700D01*
Y195100D02*
X307900Y186000D01*
X325500D01*
X273750Y213750D02*
X278900Y208600D01*
Y197600D02*
Y208600D01*
X263750Y213750D02*
X268700Y208800D01*
Y196600D02*
Y208800D01*
Y196600D02*
X283946Y181354D01*
Y81446D02*
Y181354D01*
X283800Y81300D02*
X283946Y81446D01*
X253750Y213750D02*
X258800Y208700D01*
Y198000D02*
Y208700D01*
Y198000D02*
X273946Y182854D01*
Y81446D02*
Y182854D01*
X273800Y81300D02*
X273946Y81446D01*
X243750Y213750D02*
X248600Y208900D01*
Y200500D02*
Y208900D01*
X233750Y213750D02*
X238900Y208600D01*
Y198500D02*
Y208600D01*
X223750Y213750D02*
X228200Y209300D01*
Y198800D02*
Y209300D01*
Y198800D02*
X243800Y183200D01*
Y81300D02*
Y183200D01*
X328750Y33450D02*
X333850Y38550D01*
Y66946D01*
X328700Y72096D02*
X333850Y66946D01*
X318750Y33450D02*
X323850Y38550D01*
Y66946D01*
X318700Y72096D02*
X323850Y66946D01*
X308750Y33450D02*
X313850Y38550D01*
Y66946D01*
X308700Y72096D02*
X313850Y66946D01*
X298750Y33450D02*
X303850Y38550D01*
Y66946D01*
X298700Y72096D02*
X303850Y66946D01*
X288750Y33450D02*
X293850Y38550D01*
Y66946D01*
X288700Y72096D02*
X293850Y66946D01*
X278750Y33450D02*
X283850Y38550D01*
Y66946D01*
X278700Y72096D02*
X283850Y66946D01*
X268750Y33450D02*
X273850Y38550D01*
Y66946D01*
X268700Y72096D02*
X273850Y66946D01*
X258750Y33450D02*
X263850Y38550D01*
Y66946D01*
X258700Y72096D02*
X263850Y66946D01*
X248750Y33450D02*
X253850Y38550D01*
Y66946D01*
X248700Y72096D02*
X253850Y66946D01*
X238750Y33450D02*
X243850Y38550D01*
Y66946D01*
X238700Y72096D02*
X243850Y66946D01*
X228750Y33450D02*
X233850Y38550D01*
Y66946D01*
X228700Y72096D02*
X233850Y66946D01*
X218700Y72096D02*
X223850Y66946D01*
Y38550D02*
Y66946D01*
X218750Y33450D02*
X223850Y38550D01*
X208700Y72096D02*
X213850Y66946D01*
Y38550D02*
Y66946D01*
X208750Y33450D02*
X213850Y38550D01*
X188700Y72096D02*
X193850Y66946D01*
Y38550D02*
Y66946D01*
X188750Y33450D02*
X193850Y38550D01*
X198700Y72096D02*
X203850Y66946D01*
Y38550D02*
Y66946D01*
X198750Y33450D02*
X203850Y38550D01*
X178800Y33500D02*
X183900Y38600D01*
Y66996D01*
X178750Y72146D02*
X183900Y66996D01*
X328750Y102854D02*
Y112450D01*
X318750Y102854D02*
Y112450D01*
X308750Y102854D02*
Y112450D01*
X298750Y102854D02*
Y112450D01*
X288750Y102854D02*
Y112450D01*
X278750Y102854D02*
Y112450D01*
X268750Y102854D02*
Y112450D01*
X258750Y102854D02*
Y112450D01*
X248750Y102854D02*
Y112450D01*
X238750Y102854D02*
Y112450D01*
X228750Y102854D02*
Y112450D01*
X218750Y102854D02*
Y112450D01*
X208750Y102854D02*
Y112450D01*
X198750Y102854D02*
Y112450D01*
X188750Y102854D02*
Y112450D01*
X178750Y102854D02*
Y112450D01*
X213700Y449696D02*
X218750Y444646D01*
X213700Y449696D02*
Y514200D01*
X223700Y449696D02*
X228750Y444646D01*
X223700Y449696D02*
Y514200D01*
X363700Y449696D02*
X368750Y444646D01*
X363700Y449696D02*
Y514200D01*
X353700Y449696D02*
X358750Y444646D01*
X353700Y449696D02*
Y514200D01*
X343700Y449696D02*
X348750Y444646D01*
X343700Y449696D02*
Y514200D01*
X333700Y449696D02*
X338750Y444646D01*
X333700Y449696D02*
Y514200D01*
X323700Y449696D02*
X328750Y444646D01*
X323700Y449696D02*
Y514200D01*
X313700Y449696D02*
X318750Y444646D01*
X313700Y449696D02*
Y514200D01*
X303700Y449696D02*
X308750Y444646D01*
X303700Y449696D02*
Y514200D01*
X293700Y449696D02*
X298750Y444646D01*
X293700Y449696D02*
Y514200D01*
X283700Y449696D02*
X288750Y444646D01*
X283700Y449696D02*
Y514200D01*
X273700Y449696D02*
X278750Y444646D01*
X273700Y449696D02*
Y514200D01*
X263700Y449696D02*
X268750Y444646D01*
X263700Y449696D02*
Y514200D01*
X253700Y449696D02*
X258750Y444646D01*
X253700Y449696D02*
Y514200D01*
X243700Y449696D02*
X248750Y444646D01*
X243700Y449696D02*
Y514200D01*
X233700Y449696D02*
Y514200D01*
Y449696D02*
X238750Y444646D01*
X368750Y460650D02*
Y475354D01*
X358750Y460650D02*
Y475354D01*
X348750Y460650D02*
Y475354D01*
X338750Y460650D02*
Y475354D01*
X328750Y460650D02*
Y475354D01*
X318750Y460650D02*
Y475354D01*
X308750Y460650D02*
Y475354D01*
X298750Y460650D02*
Y475354D01*
X288750Y460650D02*
Y475354D01*
X278750Y460650D02*
Y475354D01*
X268750Y460650D02*
Y475354D01*
X258750Y460650D02*
Y475354D01*
X248750Y460650D02*
Y475354D01*
X238750Y460650D02*
Y475354D01*
X228750Y460650D02*
Y475354D01*
X218750Y460650D02*
Y475354D01*
D19*
X0Y0D02*
Y547500D01*
X547500D01*
Y0D02*
Y547500D01*
X0Y0D02*
X547500D01*
D20*
X333750Y203750D02*
D03*
Y213750D02*
D03*
Y223750D02*
D03*
Y233750D02*
D03*
Y243750D02*
D03*
Y253750D02*
D03*
Y263750D02*
D03*
Y273750D02*
D03*
Y283750D02*
D03*
Y293750D02*
D03*
Y303750D02*
D03*
Y313750D02*
D03*
Y323750D02*
D03*
X323750Y203750D02*
D03*
Y213750D02*
D03*
Y223750D02*
D03*
Y233750D02*
D03*
Y243750D02*
D03*
Y253750D02*
D03*
Y263750D02*
D03*
Y273750D02*
D03*
Y283750D02*
D03*
Y293750D02*
D03*
Y303750D02*
D03*
Y313750D02*
D03*
Y323750D02*
D03*
X313750Y203750D02*
D03*
Y213750D02*
D03*
Y223750D02*
D03*
Y233750D02*
D03*
Y243750D02*
D03*
Y253750D02*
D03*
Y263750D02*
D03*
Y273750D02*
D03*
Y283750D02*
D03*
Y293750D02*
D03*
Y303750D02*
D03*
Y313750D02*
D03*
Y323750D02*
D03*
X303750Y203750D02*
D03*
Y213750D02*
D03*
Y223750D02*
D03*
Y233750D02*
D03*
Y243750D02*
D03*
Y253750D02*
D03*
Y263750D02*
D03*
Y273750D02*
D03*
Y283750D02*
D03*
Y293750D02*
D03*
Y303750D02*
D03*
Y313750D02*
D03*
Y323750D02*
D03*
X293750Y203750D02*
D03*
Y213750D02*
D03*
Y223750D02*
D03*
Y233750D02*
D03*
Y243750D02*
D03*
Y253750D02*
D03*
Y263750D02*
D03*
Y273750D02*
D03*
Y283750D02*
D03*
Y293750D02*
D03*
Y303750D02*
D03*
Y313750D02*
D03*
Y323750D02*
D03*
X283750Y203750D02*
D03*
Y213750D02*
D03*
Y223750D02*
D03*
Y233750D02*
D03*
Y243750D02*
D03*
Y253750D02*
D03*
Y263750D02*
D03*
Y273750D02*
D03*
Y283750D02*
D03*
Y293750D02*
D03*
Y303750D02*
D03*
Y313750D02*
D03*
Y323750D02*
D03*
X273750Y203750D02*
D03*
Y213750D02*
D03*
Y223750D02*
D03*
Y233750D02*
D03*
Y243750D02*
D03*
Y253750D02*
D03*
Y263750D02*
D03*
Y273750D02*
D03*
Y283750D02*
D03*
Y293750D02*
D03*
Y303750D02*
D03*
Y313750D02*
D03*
Y323750D02*
D03*
X263750Y203750D02*
D03*
Y213750D02*
D03*
Y223750D02*
D03*
Y233750D02*
D03*
Y243750D02*
D03*
Y253750D02*
D03*
Y263750D02*
D03*
Y273750D02*
D03*
Y283750D02*
D03*
Y293750D02*
D03*
Y303750D02*
D03*
Y313750D02*
D03*
Y323750D02*
D03*
X253750Y203750D02*
D03*
Y213750D02*
D03*
Y223750D02*
D03*
Y233750D02*
D03*
Y243750D02*
D03*
Y253750D02*
D03*
Y263750D02*
D03*
Y273750D02*
D03*
Y283750D02*
D03*
Y293750D02*
D03*
Y303750D02*
D03*
Y313750D02*
D03*
Y323750D02*
D03*
X243750Y203750D02*
D03*
Y213750D02*
D03*
Y223750D02*
D03*
Y233750D02*
D03*
Y243750D02*
D03*
Y253750D02*
D03*
Y263750D02*
D03*
Y273750D02*
D03*
Y283750D02*
D03*
Y293750D02*
D03*
Y303750D02*
D03*
Y313750D02*
D03*
Y323750D02*
D03*
X233750Y203750D02*
D03*
Y213750D02*
D03*
Y223750D02*
D03*
Y233750D02*
D03*
Y243750D02*
D03*
Y253750D02*
D03*
Y263750D02*
D03*
Y273750D02*
D03*
Y283750D02*
D03*
Y293750D02*
D03*
Y303750D02*
D03*
Y313750D02*
D03*
Y323750D02*
D03*
X223750Y203750D02*
D03*
Y213750D02*
D03*
Y223750D02*
D03*
Y233750D02*
D03*
Y243750D02*
D03*
Y253750D02*
D03*
Y263750D02*
D03*
Y273750D02*
D03*
Y283750D02*
D03*
Y293750D02*
D03*
Y303750D02*
D03*
Y313750D02*
D03*
Y323750D02*
D03*
X213750Y203750D02*
D03*
Y213750D02*
D03*
Y223750D02*
D03*
Y233750D02*
D03*
Y243750D02*
D03*
Y253750D02*
D03*
Y263750D02*
D03*
Y273750D02*
D03*
Y283750D02*
D03*
Y293750D02*
D03*
Y303750D02*
D03*
Y313750D02*
D03*
D21*
Y323750D02*
D03*
D22*
X156100Y400700D02*
D03*
X116100D02*
D03*
X76100D02*
D03*
X36100D02*
D03*
X39100Y436400D02*
D03*
X21500Y424800D02*
D03*
X26300Y424300D02*
D03*
X32700Y423500D02*
D03*
X20900Y434800D02*
D03*
X26800Y435800D02*
D03*
X31700Y435900D02*
D03*
Y442200D02*
D03*
X135566Y410514D02*
D03*
X95566D02*
D03*
X55566D02*
D03*
X15763Y410200D02*
D03*
X15800Y424600D02*
D03*
X13400Y432100D02*
D03*
X13600Y438100D02*
D03*
X13500Y444900D02*
D03*
X13362Y450638D02*
D03*
X15600Y399400D02*
D03*
X24400Y489900D02*
D03*
X135700Y401700D02*
D03*
X95700D02*
D03*
X55700D02*
D03*
X20100Y430000D02*
D03*
X60100D02*
D03*
X100100D02*
D03*
X140100D02*
D03*
X65800Y492900D02*
D03*
X154200Y445600D02*
D03*
X161400Y489100D02*
D03*
X117500Y489900D02*
D03*
X112400Y493100D02*
D03*
X164700D02*
D03*
X175200Y539900D02*
D03*
X189100Y507100D02*
D03*
X199000D02*
D03*
X208700D02*
D03*
X178600D02*
D03*
X175200Y516700D02*
D03*
X178750Y416300D02*
D03*
X208600Y413996D02*
D03*
X198600D02*
D03*
X188600D02*
D03*
X485500Y333400D02*
D03*
Y323400D02*
D03*
Y313400D02*
D03*
Y303400D02*
D03*
Y293400D02*
D03*
Y283400D02*
D03*
Y273400D02*
D03*
Y263400D02*
D03*
Y253400D02*
D03*
Y243400D02*
D03*
Y233400D02*
D03*
Y223400D02*
D03*
Y213400D02*
D03*
Y203400D02*
D03*
Y193400D02*
D03*
Y183400D02*
D03*
X514804Y328750D02*
D03*
Y318750D02*
D03*
X514350Y308750D02*
D03*
Y298750D02*
D03*
Y288750D02*
D03*
Y278750D02*
D03*
Y258750D02*
D03*
Y268750D02*
D03*
Y248750D02*
D03*
Y238750D02*
D03*
Y228750D02*
D03*
Y218750D02*
D03*
Y208750D02*
D03*
Y198750D02*
D03*
Y188750D02*
D03*
Y178750D02*
D03*
X339300Y163902D02*
D03*
X329400Y164300D02*
D03*
X319200D02*
D03*
X310500Y164700D02*
D03*
X299700D02*
D03*
X289800Y164100D02*
D03*
X279800Y164300D02*
D03*
X269800Y164200D02*
D03*
X259900Y164100D02*
D03*
X250100Y164204D02*
D03*
X434950Y178750D02*
D03*
Y188750D02*
D03*
Y198750D02*
D03*
Y208750D02*
D03*
Y218750D02*
D03*
Y228750D02*
D03*
Y238750D02*
D03*
Y248750D02*
D03*
Y258750D02*
D03*
Y268750D02*
D03*
Y278750D02*
D03*
Y288750D02*
D03*
Y298750D02*
D03*
Y308750D02*
D03*
Y318750D02*
D03*
Y328750D02*
D03*
X350400Y313400D02*
D03*
X353600Y304100D02*
D03*
X365050Y298750D02*
D03*
X368800Y288600D02*
D03*
X351700Y285600D02*
D03*
X364100Y266100D02*
D03*
X379200Y254900D02*
D03*
X187400Y208400D02*
D03*
X187300Y194200D02*
D03*
X190200Y223000D02*
D03*
X163700Y184000D02*
D03*
X140400Y298200D02*
D03*
Y253600D02*
D03*
X62850Y233850D02*
D03*
Y213850D02*
D03*
Y223850D02*
D03*
Y243850D02*
D03*
Y253850D02*
D03*
Y263850D02*
D03*
Y273850D02*
D03*
Y283850D02*
D03*
Y293850D02*
D03*
X62696Y304004D02*
D03*
X62850Y313850D02*
D03*
Y323850D02*
D03*
Y333850D02*
D03*
Y343850D02*
D03*
Y353850D02*
D03*
Y363850D02*
D03*
X167954Y223900D02*
D03*
X168000Y217100D02*
D03*
Y208300D02*
D03*
X167954Y233900D02*
D03*
Y243900D02*
D03*
X168004Y273600D02*
D03*
X167954Y263900D02*
D03*
X167700Y253900D02*
D03*
X182100Y235600D02*
D03*
Y245400D02*
D03*
X182200Y253700D02*
D03*
X186900Y260700D02*
D03*
X112550Y218750D02*
D03*
Y228750D02*
D03*
Y238750D02*
D03*
Y248750D02*
D03*
Y258750D02*
D03*
Y268750D02*
D03*
Y278750D02*
D03*
Y288750D02*
D03*
Y298750D02*
D03*
Y308750D02*
D03*
Y318750D02*
D03*
Y328750D02*
D03*
Y338750D02*
D03*
Y348750D02*
D03*
Y358750D02*
D03*
Y368750D02*
D03*
X31500D02*
D03*
Y218750D02*
D03*
Y228750D02*
D03*
Y238750D02*
D03*
Y248750D02*
D03*
Y258750D02*
D03*
Y268750D02*
D03*
Y278750D02*
D03*
Y288750D02*
D03*
Y298750D02*
D03*
Y308750D02*
D03*
Y318750D02*
D03*
Y328750D02*
D03*
Y338750D02*
D03*
Y348750D02*
D03*
Y358750D02*
D03*
X333800Y81300D02*
D03*
X323800D02*
D03*
X313800D02*
D03*
X303450Y81746D02*
D03*
X293800Y81300D02*
D03*
X283800D02*
D03*
X273800D02*
D03*
X263800D02*
D03*
X253800D02*
D03*
X243800D02*
D03*
X233800D02*
D03*
X223800Y80546D02*
D03*
X213800Y81300D02*
D03*
X203800D02*
D03*
X193800D02*
D03*
X183800D02*
D03*
X328800Y131800D02*
D03*
X318800Y132000D02*
D03*
X308800D02*
D03*
X298800Y135800D02*
D03*
X288700Y139100D02*
D03*
X278700Y142700D02*
D03*
X328750Y33450D02*
D03*
X318750D02*
D03*
X308750D02*
D03*
X298750D02*
D03*
X288750D02*
D03*
X278750D02*
D03*
X268750D02*
D03*
X258750D02*
D03*
X248750D02*
D03*
X238750D02*
D03*
X228750D02*
D03*
X218750D02*
D03*
X208750D02*
D03*
X188750D02*
D03*
X198750D02*
D03*
X178800Y33500D02*
D03*
X328750Y112450D02*
D03*
X318750D02*
D03*
X308750D02*
D03*
X298750D02*
D03*
X288750D02*
D03*
X278750D02*
D03*
X268750D02*
D03*
X258750D02*
D03*
X248750D02*
D03*
X238750D02*
D03*
X228750D02*
D03*
X218750D02*
D03*
X208750D02*
D03*
X198750D02*
D03*
X188750D02*
D03*
X178750D02*
D03*
X358500Y485600D02*
D03*
X338800Y485700D02*
D03*
X348200Y485300D02*
D03*
X328900Y485500D02*
D03*
X318500Y485300D02*
D03*
X253700Y435600D02*
D03*
X243700Y435300D02*
D03*
X233700Y416700D02*
D03*
X223700Y410600D02*
D03*
X174800Y368200D02*
D03*
X230400Y371200D02*
D03*
X208000D02*
D03*
X224700Y377400D02*
D03*
X207900D02*
D03*
X219000Y383700D02*
D03*
X208100Y383600D02*
D03*
X243700Y533600D02*
D03*
X253600Y533100D02*
D03*
X264100Y533300D02*
D03*
X284100Y532700D02*
D03*
X273700Y533200D02*
D03*
X293800Y532900D02*
D03*
X213700Y514200D02*
D03*
X223700D02*
D03*
X363700D02*
D03*
X353700D02*
D03*
X343700D02*
D03*
X333700D02*
D03*
X323700D02*
D03*
X313700D02*
D03*
X303700D02*
D03*
X293700D02*
D03*
X283700D02*
D03*
X273700D02*
D03*
X263700D02*
D03*
X253700D02*
D03*
X243700D02*
D03*
X233700D02*
D03*
X368750Y460650D02*
D03*
X358750D02*
D03*
X348750D02*
D03*
X338750D02*
D03*
X328750D02*
D03*
X318750D02*
D03*
X308750D02*
D03*
X298750D02*
D03*
X288750D02*
D03*
X278750D02*
D03*
X268750D02*
D03*
X258750D02*
D03*
X248750D02*
D03*
X238750D02*
D03*
X228750D02*
D03*
X218750D02*
D03*
X344500Y346800D02*
D03*
X336100D02*
D03*
X336200Y356800D02*
D03*
Y367600D02*
D03*
X336300Y377096D02*
D03*
X308800Y374700D02*
D03*
X298500Y375000D02*
D03*
X288700Y375100D02*
D03*
X278296D02*
D03*
X378600Y375196D02*
D03*
X379000Y382096D02*
D03*
X385900Y396896D02*
D03*
X373900Y400600D02*
D03*
X353400Y434096D02*
D03*
X363600Y434296D02*
D03*
X365400Y417996D02*
D03*
X375700Y448996D02*
D03*
X375000Y443596D02*
D03*
X386200Y442700D02*
D03*
X393200Y502696D02*
D03*
X401900Y519200D02*
D03*
X405400Y523700D02*
D03*
X408700Y527900D02*
D03*
X411800Y535200D02*
D03*
X415800Y539300D02*
D03*
X160700Y85396D02*
D03*
X170300Y88996D02*
D03*
X177400Y92596D02*
D03*
X169100Y99796D02*
D03*
X167000Y125096D02*
D03*
X170200Y120800D02*
D03*
M02*
