G04 Layer_Color=65535*
%FSLAX25Y25*%
%MOIN*%
G70*
G01*
G75*
%ADD19C,0.01000*%
%ADD23C,0.02362*%
%ADD24C,0.00984*%
%ADD25C,0.10000*%
%ADD26C,0.00787*%
D19*
X199800Y347798D02*
X203799D01*
Y346798D01*
X199800Y342800D01*
Y341800D01*
X203799D01*
X205798Y347798D02*
X207797D01*
X206798D01*
Y341800D01*
X205798D01*
X207797D01*
X214795Y347798D02*
X210796D01*
Y344799D01*
X212796D01*
X210796D01*
Y341800D01*
X265800Y512998D02*
X269799D01*
X267799D01*
Y507000D01*
X271798Y512998D02*
Y507000D01*
Y509999D01*
X275797D01*
Y512998D01*
Y507000D01*
X277796Y511998D02*
X278796Y512998D01*
X280795D01*
X281795Y511998D01*
Y510999D01*
X280795Y509999D01*
X281795Y508999D01*
Y508000D01*
X280795Y507000D01*
X278796D01*
X277796Y508000D01*
Y508999D01*
X278796Y509999D01*
X277796Y510999D01*
Y511998D01*
X278796Y509999D02*
X280795D01*
X265800Y412998D02*
X269799D01*
X267799D01*
Y407000D01*
X271798Y412998D02*
Y407000D01*
Y409999D01*
X275797D01*
Y412998D01*
Y407000D01*
X277796Y412998D02*
X281795D01*
Y411998D01*
X277796Y408000D01*
Y407000D01*
X129500Y276798D02*
X133499D01*
X131499D01*
Y270800D01*
X135498Y276798D02*
Y270800D01*
Y273799D01*
X139497D01*
Y276798D01*
Y270800D01*
X145495Y276798D02*
X143496Y275798D01*
X141496Y273799D01*
Y271800D01*
X142496Y270800D01*
X144495D01*
X145495Y271800D01*
Y272799D01*
X144495Y273799D01*
X141496D01*
X29500Y276798D02*
X33499D01*
X31499D01*
Y270800D01*
X35498Y276798D02*
Y270800D01*
Y273799D01*
X39497D01*
Y276798D01*
Y270800D01*
X45495Y276798D02*
X41496D01*
Y273799D01*
X43496Y274799D01*
X44495D01*
X45495Y273799D01*
Y271800D01*
X44495Y270800D01*
X42496D01*
X41496Y271800D01*
X402000Y276798D02*
X405999D01*
X403999D01*
Y270800D01*
X407998Y276798D02*
Y270800D01*
Y273799D01*
X411997D01*
Y276798D01*
Y270800D01*
X416995D02*
Y276798D01*
X413996Y273799D01*
X417995D01*
X502000Y276798D02*
X505999D01*
X503999D01*
Y270800D01*
X507998Y276798D02*
Y270800D01*
Y273799D01*
X511997D01*
Y276798D01*
Y270800D01*
X513996Y275798D02*
X514996Y276798D01*
X516995D01*
X517995Y275798D01*
Y274799D01*
X516995Y273799D01*
X515996D01*
X516995D01*
X517995Y272799D01*
Y271800D01*
X516995Y270800D01*
X514996D01*
X513996Y271800D01*
X265800Y140498D02*
X269799D01*
X267799D01*
Y134500D01*
X271798Y140498D02*
Y134500D01*
Y137499D01*
X275797D01*
Y140498D01*
Y134500D01*
X281795D02*
X277796D01*
X281795Y138499D01*
Y139498D01*
X280795Y140498D01*
X278796D01*
X277796Y139498D01*
X265800Y40498D02*
X269799D01*
X267799D01*
Y34500D01*
X271798Y40498D02*
Y34500D01*
Y37499D01*
X275797D01*
Y40498D01*
Y34500D01*
X277796Y39498D02*
X278796Y40498D01*
X280795D01*
X281795Y39498D01*
Y38499D01*
X280795Y37499D01*
X279796D01*
X280795D01*
X281795Y36499D01*
Y35500D01*
X280795Y34500D01*
X278796D01*
X277796Y35500D01*
X418999Y101698D02*
X417999Y102698D01*
X416000D01*
X415000Y101698D01*
Y100699D01*
X416000Y99699D01*
X417999D01*
X418999Y98699D01*
Y97700D01*
X417999Y96700D01*
X416000D01*
X415000Y97700D01*
X423997Y96700D02*
Y102698D01*
X420998Y99699D01*
X424997D01*
X371700Y482198D02*
Y478199D01*
X373699Y476200D01*
X375699Y478199D01*
Y482198D01*
X377698Y476200D02*
X379697D01*
X378698D01*
Y482198D01*
X377698Y481198D01*
X385696Y476200D02*
Y482198D01*
X382696Y479199D01*
X386695D01*
X371700Y522198D02*
Y518199D01*
X373699Y516200D01*
X375699Y518199D01*
Y522198D01*
X377698Y516200D02*
X379697D01*
X378698D01*
Y522198D01*
X377698Y521198D01*
X382696D02*
X383696Y522198D01*
X385696D01*
X386695Y521198D01*
Y520199D01*
X385696Y519199D01*
X384696D01*
X385696D01*
X386695Y518199D01*
Y517200D01*
X385696Y516200D01*
X383696D01*
X382696Y517200D01*
X371700Y402198D02*
Y398199D01*
X373699Y396200D01*
X375699Y398199D01*
Y402198D01*
X377698Y396200D02*
X379697D01*
X378698D01*
Y402198D01*
X377698Y401198D01*
X386695Y402198D02*
X384696Y401198D01*
X382696Y399199D01*
Y397200D01*
X383696Y396200D01*
X385696D01*
X386695Y397200D01*
Y398199D01*
X385696Y399199D01*
X382696D01*
X371700Y442198D02*
Y438199D01*
X373699Y436200D01*
X375699Y438199D01*
Y442198D01*
X377698Y436200D02*
X379697D01*
X378698D01*
Y442198D01*
X377698Y441198D01*
X386695Y442198D02*
X382696D01*
Y439199D01*
X384696Y440199D01*
X385696D01*
X386695Y439199D01*
Y437200D01*
X385696Y436200D01*
X383696D01*
X382696Y437200D01*
X140300Y386598D02*
Y382599D01*
X142299Y380600D01*
X144299Y382599D01*
Y386598D01*
X146298Y380600D02*
X148297D01*
X147298D01*
Y386598D01*
X146298Y385598D01*
X155295Y380600D02*
X151296D01*
X155295Y384599D01*
Y385598D01*
X154296Y386598D01*
X152296D01*
X151296Y385598D01*
X101300Y386598D02*
Y382599D01*
X103299Y380600D01*
X105299Y382599D01*
Y386598D01*
X107298Y380600D02*
X109297D01*
X108298D01*
Y386598D01*
X107298Y385598D01*
X112296Y380600D02*
X114296D01*
X113296D01*
Y386598D01*
X112296Y385598D01*
X60300Y386598D02*
Y382599D01*
X62299Y380600D01*
X64299Y382599D01*
Y386598D01*
X66298Y380600D02*
X68297D01*
X67298D01*
Y386598D01*
X66298Y385598D01*
X71296D02*
X72296Y386598D01*
X74296D01*
X75295Y385598D01*
Y381600D01*
X74296Y380600D01*
X72296D01*
X71296Y381600D01*
Y385598D01*
X23000Y386598D02*
Y382599D01*
X24999Y380600D01*
X26999Y382599D01*
Y386598D01*
X28998Y381600D02*
X29998Y380600D01*
X31997D01*
X32997Y381600D01*
Y385598D01*
X31997Y386598D01*
X29998D01*
X28998Y385598D01*
Y384599D01*
X29998Y383599D01*
X32997D01*
X394200Y166898D02*
Y162899D01*
X396199Y160900D01*
X398199Y162899D01*
Y166898D01*
X400198Y165898D02*
X401198Y166898D01*
X403197D01*
X404197Y165898D01*
Y164899D01*
X403197Y163899D01*
X404197Y162899D01*
Y161900D01*
X403197Y160900D01*
X401198D01*
X400198Y161900D01*
Y162899D01*
X401198Y163899D01*
X400198Y164899D01*
Y165898D01*
X401198Y163899D02*
X403197D01*
X434200Y166898D02*
Y162899D01*
X436199Y160900D01*
X438199Y162899D01*
Y166898D01*
X440198D02*
X444197D01*
Y165898D01*
X440198Y161900D01*
Y160900D01*
X474200Y166898D02*
Y162899D01*
X476199Y160900D01*
X478199Y162899D01*
Y166898D01*
X484197D02*
X482197Y165898D01*
X480198Y163899D01*
Y161900D01*
X481198Y160900D01*
X483197D01*
X484197Y161900D01*
Y162899D01*
X483197Y163899D01*
X480198D01*
X514200Y166898D02*
Y162899D01*
X516199Y160900D01*
X518199Y162899D01*
Y166898D01*
X524197D02*
X520198D01*
Y163899D01*
X522197Y164899D01*
X523197D01*
X524197Y163899D01*
Y161900D01*
X523197Y160900D01*
X521198D01*
X520198Y161900D01*
X160900Y148798D02*
Y144799D01*
X162899Y142800D01*
X164899Y144799D01*
Y148798D01*
X169897Y142800D02*
Y148798D01*
X166898Y145799D01*
X170897D01*
X160900Y108798D02*
Y104799D01*
X162899Y102800D01*
X164899Y104799D01*
Y108798D01*
X166898Y107798D02*
X167898Y108798D01*
X169897D01*
X170897Y107798D01*
Y106799D01*
X169897Y105799D01*
X168897D01*
X169897D01*
X170897Y104799D01*
Y103800D01*
X169897Y102800D01*
X167898D01*
X166898Y103800D01*
X160900Y68798D02*
Y64799D01*
X162899Y62800D01*
X164899Y64799D01*
Y68798D01*
X170897Y62800D02*
X166898D01*
X170897Y66799D01*
Y67798D01*
X169897Y68798D01*
X167898D01*
X166898Y67798D01*
X160900Y28798D02*
Y24799D01*
X162899Y22800D01*
X164899Y24799D01*
Y28798D01*
X166898Y22800D02*
X168897D01*
X167898D01*
Y28798D01*
X166898Y27798D01*
X444799Y513498D02*
X443799Y514498D01*
X441800D01*
X440800Y513498D01*
Y512499D01*
X441800Y511499D01*
X443799D01*
X444799Y510499D01*
Y509500D01*
X443799Y508500D01*
X441800D01*
X440800Y509500D01*
X446798Y514498D02*
X450797D01*
Y513498D01*
X446798Y509500D01*
Y508500D01*
X444799Y421998D02*
X443799Y422998D01*
X441800D01*
X440800Y421998D01*
Y420999D01*
X441800Y419999D01*
X443799D01*
X444799Y418999D01*
Y418000D01*
X443799Y417000D01*
X441800D01*
X440800Y418000D01*
X446798Y421998D02*
X447798Y422998D01*
X449797D01*
X450797Y421998D01*
Y420999D01*
X449797Y419999D01*
X450797Y418999D01*
Y418000D01*
X449797Y417000D01*
X447798D01*
X446798Y418000D01*
Y418999D01*
X447798Y419999D01*
X446798Y420999D01*
Y421998D01*
X447798Y419999D02*
X449797D01*
X126999Y449798D02*
X125999Y450798D01*
X124000D01*
X123000Y449798D01*
Y448799D01*
X124000Y447799D01*
X125999D01*
X126999Y446799D01*
Y445800D01*
X125999Y444800D01*
X124000D01*
X123000Y445800D01*
X132997Y450798D02*
X130997Y449798D01*
X128998Y447799D01*
Y445800D01*
X129998Y444800D01*
X131997D01*
X132997Y445800D01*
Y446799D01*
X131997Y447799D01*
X128998D01*
X34999Y449798D02*
X33999Y450798D01*
X32000D01*
X31000Y449798D01*
Y448799D01*
X32000Y447799D01*
X33999D01*
X34999Y446799D01*
Y445800D01*
X33999Y444800D01*
X32000D01*
X31000Y445800D01*
X40997Y450798D02*
X36998D01*
Y447799D01*
X38997Y448799D01*
X39997D01*
X40997Y447799D01*
Y445800D01*
X39997Y444800D01*
X37998D01*
X36998Y445800D01*
X510499Y101698D02*
X509499Y102698D01*
X507500D01*
X506500Y101698D01*
Y100699D01*
X507500Y99699D01*
X509499D01*
X510499Y98699D01*
Y97700D01*
X509499Y96700D01*
X507500D01*
X506500Y97700D01*
X512498Y101698D02*
X513498Y102698D01*
X515497D01*
X516497Y101698D01*
Y100699D01*
X515497Y99699D01*
X514497D01*
X515497D01*
X516497Y98699D01*
Y97700D01*
X515497Y96700D01*
X513498D01*
X512498Y97700D01*
X98699Y129498D02*
X97699Y130498D01*
X95700D01*
X94700Y129498D01*
Y128499D01*
X95700Y127499D01*
X97699D01*
X98699Y126499D01*
Y125500D01*
X97699Y124500D01*
X95700D01*
X94700Y125500D01*
X104697Y124500D02*
X100698D01*
X104697Y128499D01*
Y129498D01*
X103697Y130498D01*
X101698D01*
X100698Y129498D01*
X98699Y37998D02*
X97699Y38998D01*
X95700D01*
X94700Y37998D01*
Y36999D01*
X95700Y35999D01*
X97699D01*
X98699Y34999D01*
Y34000D01*
X97699Y33000D01*
X95700D01*
X94700Y34000D01*
X100698Y33000D02*
X102697D01*
X101698D01*
Y38998D01*
X100698Y37998D01*
X428100Y529898D02*
X429100Y530898D01*
X431099D01*
X432099Y529898D01*
Y525900D01*
X431099Y524900D01*
X429100D01*
X428100Y525900D01*
Y529898D01*
X434098Y524900D02*
Y525900D01*
X435098D01*
Y524900D01*
X434098D01*
X439096D02*
X441096D01*
X440096D01*
Y530898D01*
X439096Y529898D01*
X444095Y528899D02*
Y525900D01*
X445094Y524900D01*
X448094D01*
Y528899D01*
X454092Y530898D02*
X450093D01*
Y527899D01*
X452092D01*
X450093D01*
Y524900D01*
X456091Y523900D02*
X460090D01*
X462089Y524900D02*
X464088D01*
X463089D01*
Y530898D01*
X462089Y529898D01*
X467087Y523900D02*
X471086D01*
X473085Y530898D02*
Y525900D01*
X474085Y524900D01*
X476085D01*
X477084Y525900D01*
Y530898D01*
X479083Y523900D02*
X483082D01*
X485082Y530898D02*
Y526899D01*
X487081Y524900D01*
X489080Y526899D01*
Y530898D01*
X491080D02*
X495078D01*
X493079D01*
Y524900D01*
X497078Y523900D02*
X501076D01*
X503076Y530898D02*
Y524900D01*
X505075Y526899D01*
X507074Y524900D01*
Y530898D01*
X509074Y524900D02*
Y530898D01*
X512073D01*
X513072Y529898D01*
Y527899D01*
X512073Y526899D01*
X509074D01*
X511073D02*
X513072Y524900D01*
X515072D02*
Y530898D01*
X518071D01*
X519071Y529898D01*
Y527899D01*
X518071Y526899D01*
X515072D01*
X525069Y524900D02*
X521070D01*
X525069Y528899D01*
Y529898D01*
X524069Y530898D01*
X522070D01*
X521070Y529898D01*
X428100Y489898D02*
X429100Y490898D01*
X431099D01*
X432099Y489898D01*
Y485900D01*
X431099Y484900D01*
X429100D01*
X428100Y485900D01*
Y489898D01*
X434098Y484900D02*
Y485900D01*
X435098D01*
Y484900D01*
X434098D01*
X439096D02*
X441096D01*
X440096D01*
Y490898D01*
X439096Y489898D01*
X444095Y488899D02*
Y485900D01*
X445094Y484900D01*
X448094D01*
Y488899D01*
X454092Y490898D02*
X450093D01*
Y487899D01*
X452092D01*
X450093D01*
Y484900D01*
X456091Y483900D02*
X460090D01*
X462089Y484900D02*
X464088D01*
X463089D01*
Y490898D01*
X462089Y489898D01*
X467087Y483900D02*
X471086D01*
X473085Y490898D02*
Y485900D01*
X474085Y484900D01*
X476085D01*
X477084Y485900D01*
Y490898D01*
X479083Y483900D02*
X483082D01*
X485082Y490898D02*
Y486899D01*
X487081Y484900D01*
X489080Y486899D01*
Y490898D01*
X491080D02*
X495078D01*
X493079D01*
Y484900D01*
X497078Y483900D02*
X501076D01*
X503076Y490898D02*
Y484900D01*
X505075Y486899D01*
X507074Y484900D01*
Y490898D01*
X509074Y484900D02*
Y490898D01*
X512073D01*
X513072Y489898D01*
Y487899D01*
X512073Y486899D01*
X509074D01*
X511073D02*
X513072Y484900D01*
X515072D02*
Y490898D01*
X518071D01*
X519071Y489898D01*
Y487899D01*
X518071Y486899D01*
X515072D01*
X521070Y489898D02*
X522070Y490898D01*
X524069D01*
X525069Y489898D01*
Y488899D01*
X524069Y487899D01*
X523069D01*
X524069D01*
X525069Y486899D01*
Y485900D01*
X524069Y484900D01*
X522070D01*
X521070Y485900D01*
X0Y0D02*
Y547500D01*
X547500D01*
Y0D02*
Y547500D01*
X0Y0D02*
X547500D01*
D23*
X51945Y459020D02*
G03*
X51945Y459020I-1181J0D01*
G01*
X143945D02*
G03*
X143945Y459020I-1181J0D01*
G01*
X37433Y408347D02*
G03*
X37433Y408347I-1181J0D01*
G01*
X77236D02*
G03*
X77236Y408347I-1181J0D01*
G01*
X117236D02*
G03*
X117236Y408347I-1181J0D01*
G01*
X157236D02*
G03*
X157236Y408347I-1181J0D01*
G01*
X392126Y139154D02*
G03*
X392126Y139154I-1181J0D01*
G01*
X432126D02*
G03*
X432126Y139154I-1181J0D01*
G01*
X472126D02*
G03*
X472126Y139154I-1181J0D01*
G01*
X512126D02*
G03*
X512126Y139154I-1181J0D01*
G01*
X406417Y88480D02*
G03*
X406417Y88480I-1181J0D01*
G01*
X497917D02*
G03*
X497917Y88480I-1181J0D01*
G01*
X409528Y430945D02*
G03*
X409528Y430945I-1181J0D01*
G01*
Y390945D02*
G03*
X409528Y390945I-1181J0D01*
G01*
Y510945D02*
G03*
X409528Y510945I-1181J0D01*
G01*
Y470945D02*
G03*
X409528Y470945I-1181J0D01*
G01*
X460201Y405236D02*
G03*
X460201Y405236I-1181J0D01*
G01*
Y496736D02*
G03*
X460201Y496736I-1181J0D01*
G01*
X87661Y50764D02*
G03*
X87661Y50764I-1181J0D01*
G01*
Y142264D02*
G03*
X87661Y142264I-1181J0D01*
G01*
X140335Y154055D02*
G03*
X140335Y154055I-1181J0D01*
G01*
Y114055D02*
G03*
X140335Y114055I-1181J0D01*
G01*
Y74055D02*
G03*
X140335Y74055I-1181J0D01*
G01*
Y34055D02*
G03*
X140335Y34055I-1181J0D01*
G01*
D24*
X59130Y455181D02*
G03*
X59130Y455181I-492J0D01*
G01*
X151130D02*
G03*
X151130Y455181I-492J0D01*
G01*
X42404Y416614D02*
G03*
X42404Y416614I-492J0D01*
G01*
X82207D02*
G03*
X82207Y416614I-492J0D01*
G01*
X122207D02*
G03*
X122207Y416614I-492J0D01*
G01*
X162207D02*
G03*
X162207Y416614I-492J0D01*
G01*
X385778Y130886D02*
G03*
X385778Y130886I-492J0D01*
G01*
X425777D02*
G03*
X425777Y130886I-492J0D01*
G01*
X465777D02*
G03*
X465777Y130886I-492J0D01*
G01*
X505778D02*
G03*
X505778Y130886I-492J0D01*
G01*
X397854Y92319D02*
G03*
X397854Y92319I-492J0D01*
G01*
X489354D02*
G03*
X489354Y92319I-492J0D01*
G01*
X417106Y425285D02*
G03*
X417106Y425285I-492J0D01*
G01*
Y385285D02*
G03*
X417106Y385285I-492J0D01*
G01*
Y505285D02*
G03*
X417106Y505285I-492J0D01*
G01*
Y465285D02*
G03*
X417106Y465285I-492J0D01*
G01*
X455673Y397362D02*
G03*
X455673Y397362I-492J0D01*
G01*
Y488862D02*
G03*
X455673Y488862I-492J0D01*
G01*
X90811Y58638D02*
G03*
X90811Y58638I-492J0D01*
G01*
Y150138D02*
G03*
X90811Y150138I-492J0D01*
G01*
X131378Y159715D02*
G03*
X131378Y159715I-492J0D01*
G01*
Y119715D02*
G03*
X131378Y119715I-492J0D01*
G01*
Y79715D02*
G03*
X131378Y79715I-492J0D01*
G01*
Y39715D02*
G03*
X131378Y39715I-492J0D01*
G01*
D25*
X203750Y193750D02*
Y328750D01*
Y193750D02*
X343750D01*
Y333750D01*
X208750D02*
X343750D01*
X203750Y328750D02*
X208750Y333750D01*
D26*
X17299Y527917D02*
X54701D01*
X17299Y455083D02*
X54701D01*
X17299D02*
Y527917D01*
X54701Y455083D02*
Y527917D01*
X146701Y455083D02*
Y527917D01*
X109299Y455083D02*
Y527917D01*
Y455083D02*
X146701D01*
X109299Y527917D02*
X146701D01*
X14205Y412283D02*
X40189D01*
X14205Y397717D02*
X40189D01*
Y412283D01*
X14205Y397717D02*
Y412283D01*
X54008D02*
X79992D01*
X54008Y397717D02*
X79992D01*
Y412283D01*
X54008Y397717D02*
Y412283D01*
X94008D02*
X119992D01*
X94008Y397717D02*
X119992D01*
Y412283D01*
X94008Y397717D02*
Y412283D01*
X134008D02*
X159992D01*
X134008Y397717D02*
X159992D01*
Y412283D01*
X134008Y397717D02*
Y412283D01*
X387008Y135217D02*
X412992D01*
X387008Y149783D02*
X412992D01*
X387008Y135217D02*
Y149783D01*
X412992Y135217D02*
Y149783D01*
X427008Y135217D02*
X452992D01*
X427008Y149783D02*
X452992D01*
X427008Y135217D02*
Y149783D01*
X452992Y135217D02*
Y149783D01*
X467008Y135217D02*
X492992D01*
X467008Y149783D02*
X492992D01*
X467008Y135217D02*
Y149783D01*
X492992Y135217D02*
Y149783D01*
X507008Y135217D02*
X532992D01*
X507008Y149783D02*
X532992D01*
X507008Y135217D02*
Y149783D01*
X532992Y135217D02*
Y149783D01*
X401299Y19583D02*
X438701D01*
X401299Y92417D02*
X438701D01*
Y19583D02*
Y92417D01*
X401299Y19583D02*
Y92417D01*
X492799Y19583D02*
Y92417D01*
X530201Y19583D02*
Y92417D01*
X492799D02*
X530201D01*
X492799Y19583D02*
X530201D01*
X412283Y427008D02*
Y452992D01*
X397717Y427008D02*
Y452992D01*
Y427008D02*
X412283D01*
X397717Y452992D02*
X412283D01*
Y387008D02*
Y412992D01*
X397717Y387008D02*
Y412992D01*
Y387008D02*
X412283D01*
X397717Y412992D02*
X412283D01*
Y507008D02*
Y532992D01*
X397717Y507008D02*
Y532992D01*
Y507008D02*
X412283D01*
X397717Y532992D02*
X412283D01*
Y467008D02*
Y492992D01*
X397717Y467008D02*
Y492992D01*
Y467008D02*
X412283D01*
X397717Y492992D02*
X412283D01*
X527917Y401299D02*
Y438701D01*
X455083Y401299D02*
Y438701D01*
X527917D01*
X455083Y401299D02*
X527917D01*
X455083Y492799D02*
X527917D01*
X455083Y530201D02*
X527917D01*
X455083Y492799D02*
Y530201D01*
X527917Y492799D02*
Y530201D01*
X17583Y54701D02*
X90417D01*
X17583Y17299D02*
X90417D01*
Y54701D01*
X17583Y17299D02*
Y54701D01*
Y108799D02*
Y146201D01*
X90417Y108799D02*
Y146201D01*
X17583Y108799D02*
X90417D01*
X17583Y146201D02*
X90417D01*
X135217Y132008D02*
Y157992D01*
X149783Y132008D02*
Y157992D01*
X135217D02*
X149783D01*
X135217Y132008D02*
X149783D01*
X135217Y92008D02*
Y117992D01*
X149783Y92008D02*
Y117992D01*
X135217D02*
X149783D01*
X135217Y92008D02*
X149783D01*
X135217Y52008D02*
Y77992D01*
X149783Y52008D02*
Y77992D01*
X135217D02*
X149783D01*
X135217Y52008D02*
X149783D01*
X135217Y12008D02*
Y37992D01*
X149783Y12008D02*
Y37992D01*
X135217D02*
X149783D01*
X135217Y12008D02*
X149783D01*
M02*
