G04 Layer_Color=8388736*
%FSLAX25Y25*%
%MOIN*%
G70*
G01*
G75*
%ADD19C,0.01000*%
%ADD27O,0.05524X0.03261*%
%ADD28O,0.02670X0.06312*%
%ADD29R,0.04737X0.08674*%
%ADD30R,0.08674X0.04737*%
%ADD31O,0.06312X0.02670*%
%ADD32O,0.03261X0.05524*%
%ADD33R,0.05800X0.05800*%
%ADD34R,0.05800X0.05800*%
%ADD35C,0.06706*%
%ADD36R,0.06706X0.06706*%
%ADD37C,0.03800*%
D19*
X0Y0D02*
Y547500D01*
X547500D01*
Y0D02*
Y547500D01*
X0Y0D02*
X547500D01*
D27*
X13362Y524571D02*
D03*
Y521421D02*
D03*
Y518272D02*
D03*
Y515122D02*
D03*
Y511972D02*
D03*
Y508823D02*
D03*
Y505673D02*
D03*
Y502524D02*
D03*
Y499374D02*
D03*
Y496224D02*
D03*
Y493075D02*
D03*
Y489925D02*
D03*
Y486776D02*
D03*
Y483626D02*
D03*
Y480476D02*
D03*
Y477327D02*
D03*
Y474177D02*
D03*
Y471028D02*
D03*
Y467878D02*
D03*
Y464728D02*
D03*
Y461579D02*
D03*
Y458429D02*
D03*
X58638Y524571D02*
D03*
Y521421D02*
D03*
Y518272D02*
D03*
Y515122D02*
D03*
Y511972D02*
D03*
Y508823D02*
D03*
Y505673D02*
D03*
Y502524D02*
D03*
Y499374D02*
D03*
Y496224D02*
D03*
Y493075D02*
D03*
Y489925D02*
D03*
Y486776D02*
D03*
Y483626D02*
D03*
Y480476D02*
D03*
Y477327D02*
D03*
Y474177D02*
D03*
Y471028D02*
D03*
Y467878D02*
D03*
Y464728D02*
D03*
Y461579D02*
D03*
Y458429D02*
D03*
X150638D02*
D03*
Y461579D02*
D03*
Y464728D02*
D03*
Y467878D02*
D03*
Y471028D02*
D03*
Y474177D02*
D03*
Y477327D02*
D03*
Y480476D02*
D03*
Y483626D02*
D03*
Y486776D02*
D03*
Y489925D02*
D03*
Y493075D02*
D03*
Y496224D02*
D03*
Y499374D02*
D03*
Y502524D02*
D03*
Y505673D02*
D03*
Y508823D02*
D03*
Y511972D02*
D03*
Y515122D02*
D03*
Y518272D02*
D03*
Y521421D02*
D03*
Y524571D02*
D03*
X105362Y458429D02*
D03*
Y461579D02*
D03*
Y464728D02*
D03*
Y467878D02*
D03*
Y471028D02*
D03*
Y474177D02*
D03*
Y477327D02*
D03*
Y480476D02*
D03*
Y483626D02*
D03*
Y486776D02*
D03*
Y489925D02*
D03*
Y493075D02*
D03*
Y496224D02*
D03*
Y499374D02*
D03*
Y502524D02*
D03*
Y505673D02*
D03*
Y508823D02*
D03*
Y511972D02*
D03*
Y515122D02*
D03*
Y518272D02*
D03*
Y521421D02*
D03*
Y524571D02*
D03*
X442638Y22929D02*
D03*
Y26079D02*
D03*
Y29228D02*
D03*
Y32378D02*
D03*
Y35528D02*
D03*
Y38677D02*
D03*
Y41827D02*
D03*
Y44976D02*
D03*
Y48126D02*
D03*
Y51276D02*
D03*
Y54425D02*
D03*
Y57575D02*
D03*
Y60724D02*
D03*
Y63874D02*
D03*
Y67024D02*
D03*
Y70173D02*
D03*
Y73323D02*
D03*
Y76472D02*
D03*
Y79622D02*
D03*
Y82772D02*
D03*
Y85921D02*
D03*
Y89071D02*
D03*
X397362Y22929D02*
D03*
Y26079D02*
D03*
Y29228D02*
D03*
Y32378D02*
D03*
Y35528D02*
D03*
Y38677D02*
D03*
Y41827D02*
D03*
Y44976D02*
D03*
Y48126D02*
D03*
Y51276D02*
D03*
Y54425D02*
D03*
Y57575D02*
D03*
Y60724D02*
D03*
Y63874D02*
D03*
Y67024D02*
D03*
Y70173D02*
D03*
Y73323D02*
D03*
Y76472D02*
D03*
Y79622D02*
D03*
Y82772D02*
D03*
Y85921D02*
D03*
Y89071D02*
D03*
X488862D02*
D03*
Y85921D02*
D03*
Y82772D02*
D03*
Y79622D02*
D03*
Y76472D02*
D03*
Y73323D02*
D03*
Y70173D02*
D03*
Y67024D02*
D03*
Y63874D02*
D03*
Y60724D02*
D03*
Y57575D02*
D03*
Y54425D02*
D03*
Y51276D02*
D03*
Y48126D02*
D03*
Y44976D02*
D03*
Y41827D02*
D03*
Y38677D02*
D03*
Y35528D02*
D03*
Y32378D02*
D03*
Y29228D02*
D03*
Y26079D02*
D03*
Y22929D02*
D03*
X534138Y89071D02*
D03*
Y85921D02*
D03*
Y82772D02*
D03*
Y79622D02*
D03*
Y76472D02*
D03*
Y73323D02*
D03*
Y70173D02*
D03*
Y67024D02*
D03*
Y63874D02*
D03*
Y60724D02*
D03*
Y57575D02*
D03*
Y54425D02*
D03*
Y51276D02*
D03*
Y48126D02*
D03*
Y44976D02*
D03*
Y41827D02*
D03*
Y38677D02*
D03*
Y35528D02*
D03*
Y32378D02*
D03*
Y29228D02*
D03*
Y26079D02*
D03*
Y22929D02*
D03*
D28*
X38713Y416614D02*
D03*
X36154D02*
D03*
X33595D02*
D03*
X31036D02*
D03*
X28477D02*
D03*
X25918D02*
D03*
X23359D02*
D03*
X20800D02*
D03*
X18241D02*
D03*
X15681D02*
D03*
X38713Y393386D02*
D03*
X36154D02*
D03*
X33595D02*
D03*
X31036D02*
D03*
X28477D02*
D03*
X25918D02*
D03*
X23359D02*
D03*
X20800D02*
D03*
X18241D02*
D03*
X15681D02*
D03*
X78516Y416614D02*
D03*
X75957D02*
D03*
X73398D02*
D03*
X70839D02*
D03*
X68280D02*
D03*
X65720D02*
D03*
X63161D02*
D03*
X60602D02*
D03*
X58043D02*
D03*
X55484D02*
D03*
X78516Y393386D02*
D03*
X75957D02*
D03*
X73398D02*
D03*
X70839D02*
D03*
X68280D02*
D03*
X65720D02*
D03*
X63161D02*
D03*
X60602D02*
D03*
X58043D02*
D03*
X55484D02*
D03*
X118516Y416614D02*
D03*
X115957D02*
D03*
X113398D02*
D03*
X110839D02*
D03*
X108280D02*
D03*
X105720D02*
D03*
X103161D02*
D03*
X100602D02*
D03*
X98043D02*
D03*
X95484D02*
D03*
X118516Y393386D02*
D03*
X115957D02*
D03*
X113398D02*
D03*
X110839D02*
D03*
X108280D02*
D03*
X105720D02*
D03*
X103161D02*
D03*
X100602D02*
D03*
X98043D02*
D03*
X95484D02*
D03*
X158516Y416614D02*
D03*
X155957D02*
D03*
X153398D02*
D03*
X150839D02*
D03*
X148280D02*
D03*
X145720D02*
D03*
X143161D02*
D03*
X140602D02*
D03*
X138043D02*
D03*
X135484D02*
D03*
X158516Y393386D02*
D03*
X155957D02*
D03*
X153398D02*
D03*
X150839D02*
D03*
X148280D02*
D03*
X145720D02*
D03*
X143161D02*
D03*
X140602D02*
D03*
X138043D02*
D03*
X135484D02*
D03*
X388484Y130886D02*
D03*
X391043D02*
D03*
X393602D02*
D03*
X396161D02*
D03*
X398720D02*
D03*
X401280D02*
D03*
X403839D02*
D03*
X406398D02*
D03*
X408957D02*
D03*
X411516D02*
D03*
X388484Y154114D02*
D03*
X391043D02*
D03*
X393602D02*
D03*
X396161D02*
D03*
X398720D02*
D03*
X401280D02*
D03*
X403839D02*
D03*
X406398D02*
D03*
X408957D02*
D03*
X411516D02*
D03*
X428484Y130886D02*
D03*
X431043D02*
D03*
X433602D02*
D03*
X436161D02*
D03*
X438720D02*
D03*
X441280D02*
D03*
X443839D02*
D03*
X446398D02*
D03*
X448957D02*
D03*
X451516D02*
D03*
X428484Y154114D02*
D03*
X431043D02*
D03*
X433602D02*
D03*
X436161D02*
D03*
X438720D02*
D03*
X441280D02*
D03*
X443839D02*
D03*
X446398D02*
D03*
X448957D02*
D03*
X451516D02*
D03*
X468484Y130886D02*
D03*
X471043D02*
D03*
X473602D02*
D03*
X476161D02*
D03*
X478720D02*
D03*
X481280D02*
D03*
X483839D02*
D03*
X486398D02*
D03*
X488957D02*
D03*
X491516D02*
D03*
X468484Y154114D02*
D03*
X471043D02*
D03*
X473602D02*
D03*
X476161D02*
D03*
X478720D02*
D03*
X481280D02*
D03*
X483839D02*
D03*
X486398D02*
D03*
X488957D02*
D03*
X491516D02*
D03*
X508484Y130886D02*
D03*
X511043D02*
D03*
X513602D02*
D03*
X516161D02*
D03*
X518720D02*
D03*
X521280D02*
D03*
X523839D02*
D03*
X526398D02*
D03*
X528957D02*
D03*
X531516D02*
D03*
X508484Y154114D02*
D03*
X511043D02*
D03*
X513602D02*
D03*
X516161D02*
D03*
X518720D02*
D03*
X521280D02*
D03*
X523839D02*
D03*
X526398D02*
D03*
X528957D02*
D03*
X531516D02*
D03*
D29*
X328750Y525354D02*
D03*
X348750D02*
D03*
X358750D02*
D03*
X368750D02*
D03*
X338750D02*
D03*
X288750D02*
D03*
X318750D02*
D03*
X308750D02*
D03*
X298750D02*
D03*
X278750D02*
D03*
X238750D02*
D03*
X268750D02*
D03*
X258750D02*
D03*
X248750D02*
D03*
X228750D02*
D03*
X188750D02*
D03*
X218750D02*
D03*
X208750D02*
D03*
X198750D02*
D03*
X178750D02*
D03*
Y494646D02*
D03*
X198750D02*
D03*
X208750D02*
D03*
X218750D02*
D03*
X188750D02*
D03*
X228750D02*
D03*
X248750D02*
D03*
X258750D02*
D03*
X268750D02*
D03*
X238750D02*
D03*
X278750D02*
D03*
X298750D02*
D03*
X308750D02*
D03*
X318750D02*
D03*
X288750D02*
D03*
X338750D02*
D03*
X368750D02*
D03*
X358750D02*
D03*
X348750D02*
D03*
X328750D02*
D03*
Y425354D02*
D03*
X348750D02*
D03*
X358750D02*
D03*
X368750D02*
D03*
X338750D02*
D03*
X288750D02*
D03*
X318750D02*
D03*
X308750D02*
D03*
X298750D02*
D03*
X278750D02*
D03*
X238750D02*
D03*
X268750D02*
D03*
X258750D02*
D03*
X248750D02*
D03*
X228750D02*
D03*
X188750D02*
D03*
X218750D02*
D03*
X208750D02*
D03*
X198750D02*
D03*
X178750D02*
D03*
Y394646D02*
D03*
X198750D02*
D03*
X208750D02*
D03*
X218750D02*
D03*
X188750D02*
D03*
X228750D02*
D03*
X248750D02*
D03*
X258750D02*
D03*
X268750D02*
D03*
X238750D02*
D03*
X278750D02*
D03*
X298750D02*
D03*
X308750D02*
D03*
X318750D02*
D03*
X288750D02*
D03*
X338750D02*
D03*
X368750D02*
D03*
X358750D02*
D03*
X348750D02*
D03*
X328750D02*
D03*
X218750Y22146D02*
D03*
X198750D02*
D03*
X188750D02*
D03*
X178750D02*
D03*
X208750D02*
D03*
X258750D02*
D03*
X228750D02*
D03*
X238750D02*
D03*
X248750D02*
D03*
X268750D02*
D03*
X308750D02*
D03*
X278750D02*
D03*
X288750D02*
D03*
X298750D02*
D03*
X318750D02*
D03*
X358750D02*
D03*
X328750D02*
D03*
X338750D02*
D03*
X348750D02*
D03*
X368750D02*
D03*
Y52854D02*
D03*
X348750D02*
D03*
X338750D02*
D03*
X328750D02*
D03*
X358750D02*
D03*
X318750D02*
D03*
X298750D02*
D03*
X288750D02*
D03*
X278750D02*
D03*
X308750D02*
D03*
X268750D02*
D03*
X248750D02*
D03*
X238750D02*
D03*
X228750D02*
D03*
X258750D02*
D03*
X208750D02*
D03*
X178750D02*
D03*
X188750D02*
D03*
X198750D02*
D03*
X218750D02*
D03*
Y122146D02*
D03*
X198750D02*
D03*
X188750D02*
D03*
X178750D02*
D03*
X208750D02*
D03*
X258750D02*
D03*
X228750D02*
D03*
X238750D02*
D03*
X248750D02*
D03*
X268750D02*
D03*
X308750D02*
D03*
X278750D02*
D03*
X288750D02*
D03*
X298750D02*
D03*
X318750D02*
D03*
X358750D02*
D03*
X328750D02*
D03*
X338750D02*
D03*
X348750D02*
D03*
X368750D02*
D03*
Y152854D02*
D03*
X348750D02*
D03*
X338750D02*
D03*
X328750D02*
D03*
X358750D02*
D03*
X318750D02*
D03*
X298750D02*
D03*
X288750D02*
D03*
X278750D02*
D03*
X308750D02*
D03*
X268750D02*
D03*
X248750D02*
D03*
X238750D02*
D03*
X228750D02*
D03*
X258750D02*
D03*
X208750D02*
D03*
X178750D02*
D03*
X188750D02*
D03*
X198750D02*
D03*
X218750D02*
D03*
D30*
X525354Y218750D02*
D03*
Y198750D02*
D03*
Y188750D02*
D03*
Y178750D02*
D03*
Y208750D02*
D03*
Y258750D02*
D03*
Y228750D02*
D03*
Y238750D02*
D03*
Y248750D02*
D03*
Y268750D02*
D03*
Y308750D02*
D03*
Y278750D02*
D03*
Y288750D02*
D03*
Y298750D02*
D03*
Y318750D02*
D03*
Y358750D02*
D03*
Y328750D02*
D03*
Y338750D02*
D03*
Y348750D02*
D03*
Y368750D02*
D03*
X494646D02*
D03*
Y348750D02*
D03*
Y338750D02*
D03*
Y328750D02*
D03*
Y358750D02*
D03*
Y318750D02*
D03*
Y298750D02*
D03*
Y288750D02*
D03*
Y278750D02*
D03*
Y308750D02*
D03*
Y268750D02*
D03*
Y248750D02*
D03*
Y238750D02*
D03*
Y228750D02*
D03*
Y258750D02*
D03*
Y208750D02*
D03*
Y178750D02*
D03*
Y188750D02*
D03*
Y198750D02*
D03*
Y218750D02*
D03*
X425354D02*
D03*
Y198750D02*
D03*
Y188750D02*
D03*
Y178750D02*
D03*
Y208750D02*
D03*
Y258750D02*
D03*
Y228750D02*
D03*
Y238750D02*
D03*
Y248750D02*
D03*
Y268750D02*
D03*
Y308750D02*
D03*
Y278750D02*
D03*
Y288750D02*
D03*
Y298750D02*
D03*
Y318750D02*
D03*
Y358750D02*
D03*
Y328750D02*
D03*
Y338750D02*
D03*
Y348750D02*
D03*
Y368750D02*
D03*
X394646D02*
D03*
Y348750D02*
D03*
Y338750D02*
D03*
Y328750D02*
D03*
Y358750D02*
D03*
Y318750D02*
D03*
Y298750D02*
D03*
Y288750D02*
D03*
Y278750D02*
D03*
Y308750D02*
D03*
Y268750D02*
D03*
Y248750D02*
D03*
Y238750D02*
D03*
Y228750D02*
D03*
Y258750D02*
D03*
Y208750D02*
D03*
Y178750D02*
D03*
Y188750D02*
D03*
Y198750D02*
D03*
Y218750D02*
D03*
X22146Y328750D02*
D03*
Y348750D02*
D03*
Y358750D02*
D03*
Y368750D02*
D03*
Y338750D02*
D03*
Y288750D02*
D03*
Y318750D02*
D03*
Y308750D02*
D03*
Y298750D02*
D03*
Y278750D02*
D03*
Y238750D02*
D03*
Y268750D02*
D03*
Y258750D02*
D03*
Y248750D02*
D03*
Y228750D02*
D03*
Y188750D02*
D03*
Y218750D02*
D03*
Y208750D02*
D03*
Y198750D02*
D03*
Y178750D02*
D03*
X52854D02*
D03*
Y198750D02*
D03*
Y208750D02*
D03*
Y218750D02*
D03*
Y188750D02*
D03*
Y228750D02*
D03*
Y248750D02*
D03*
Y258750D02*
D03*
Y268750D02*
D03*
Y238750D02*
D03*
Y278750D02*
D03*
Y298750D02*
D03*
Y308750D02*
D03*
Y318750D02*
D03*
Y288750D02*
D03*
Y338750D02*
D03*
Y368750D02*
D03*
Y358750D02*
D03*
Y348750D02*
D03*
Y328750D02*
D03*
X122146D02*
D03*
Y348750D02*
D03*
Y358750D02*
D03*
Y368750D02*
D03*
Y338750D02*
D03*
Y288750D02*
D03*
Y318750D02*
D03*
Y308750D02*
D03*
Y298750D02*
D03*
Y278750D02*
D03*
Y238750D02*
D03*
Y268750D02*
D03*
Y258750D02*
D03*
Y248750D02*
D03*
Y228750D02*
D03*
Y188750D02*
D03*
Y218750D02*
D03*
Y208750D02*
D03*
Y198750D02*
D03*
Y178750D02*
D03*
X152854D02*
D03*
Y198750D02*
D03*
Y208750D02*
D03*
Y218750D02*
D03*
Y188750D02*
D03*
Y228750D02*
D03*
Y248750D02*
D03*
Y258750D02*
D03*
Y268750D02*
D03*
Y238750D02*
D03*
Y278750D02*
D03*
Y298750D02*
D03*
Y308750D02*
D03*
Y318750D02*
D03*
Y288750D02*
D03*
Y338750D02*
D03*
Y368750D02*
D03*
Y358750D02*
D03*
Y348750D02*
D03*
Y328750D02*
D03*
D31*
X416614Y428484D02*
D03*
Y431043D02*
D03*
Y433602D02*
D03*
Y436161D02*
D03*
Y438720D02*
D03*
Y441280D02*
D03*
Y443839D02*
D03*
Y446398D02*
D03*
Y448957D02*
D03*
Y451516D02*
D03*
X393386Y428484D02*
D03*
Y431043D02*
D03*
Y433602D02*
D03*
Y436161D02*
D03*
Y438720D02*
D03*
Y441280D02*
D03*
Y443839D02*
D03*
Y446398D02*
D03*
Y448957D02*
D03*
Y451516D02*
D03*
X416614Y388484D02*
D03*
Y391043D02*
D03*
Y393602D02*
D03*
Y396161D02*
D03*
Y398720D02*
D03*
Y401280D02*
D03*
Y403839D02*
D03*
Y406398D02*
D03*
Y408957D02*
D03*
Y411516D02*
D03*
X393386Y388484D02*
D03*
Y391043D02*
D03*
Y393602D02*
D03*
Y396161D02*
D03*
Y398720D02*
D03*
Y401280D02*
D03*
Y403839D02*
D03*
Y406398D02*
D03*
Y408957D02*
D03*
Y411516D02*
D03*
X416614Y508484D02*
D03*
Y511043D02*
D03*
Y513602D02*
D03*
Y516161D02*
D03*
Y518720D02*
D03*
Y521280D02*
D03*
Y523839D02*
D03*
Y526398D02*
D03*
Y528957D02*
D03*
Y531516D02*
D03*
X393386Y508484D02*
D03*
Y511043D02*
D03*
Y513602D02*
D03*
Y516161D02*
D03*
Y518720D02*
D03*
Y521280D02*
D03*
Y523839D02*
D03*
Y526398D02*
D03*
Y528957D02*
D03*
Y531516D02*
D03*
X416614Y468484D02*
D03*
Y471043D02*
D03*
Y473602D02*
D03*
Y476161D02*
D03*
Y478720D02*
D03*
Y481280D02*
D03*
Y483839D02*
D03*
Y486398D02*
D03*
Y488957D02*
D03*
Y491516D02*
D03*
X393386Y468484D02*
D03*
Y471043D02*
D03*
Y473602D02*
D03*
Y476161D02*
D03*
Y478720D02*
D03*
Y481280D02*
D03*
Y483839D02*
D03*
Y486398D02*
D03*
Y488957D02*
D03*
Y491516D02*
D03*
X130886Y156516D02*
D03*
Y153957D02*
D03*
Y151398D02*
D03*
Y148839D02*
D03*
Y146280D02*
D03*
Y143720D02*
D03*
Y141161D02*
D03*
Y138602D02*
D03*
Y136043D02*
D03*
Y133484D02*
D03*
X154114Y156516D02*
D03*
Y153957D02*
D03*
Y151398D02*
D03*
Y148839D02*
D03*
Y146280D02*
D03*
Y143720D02*
D03*
Y141161D02*
D03*
Y138602D02*
D03*
Y136043D02*
D03*
Y133484D02*
D03*
X130886Y116516D02*
D03*
Y113957D02*
D03*
Y111398D02*
D03*
Y108839D02*
D03*
Y106280D02*
D03*
Y103720D02*
D03*
Y101161D02*
D03*
Y98602D02*
D03*
Y96043D02*
D03*
Y93484D02*
D03*
X154114Y116516D02*
D03*
Y113957D02*
D03*
Y111398D02*
D03*
Y108839D02*
D03*
Y106280D02*
D03*
Y103720D02*
D03*
Y101161D02*
D03*
Y98602D02*
D03*
Y96043D02*
D03*
Y93484D02*
D03*
X130886Y76516D02*
D03*
Y73957D02*
D03*
Y71398D02*
D03*
Y68839D02*
D03*
Y66280D02*
D03*
Y63720D02*
D03*
Y61161D02*
D03*
Y58602D02*
D03*
Y56043D02*
D03*
Y53484D02*
D03*
X154114Y76516D02*
D03*
Y73957D02*
D03*
Y71398D02*
D03*
Y68839D02*
D03*
Y66280D02*
D03*
Y63720D02*
D03*
Y61161D02*
D03*
Y58602D02*
D03*
Y56043D02*
D03*
Y53484D02*
D03*
X130886Y36516D02*
D03*
Y33957D02*
D03*
Y31398D02*
D03*
Y28839D02*
D03*
Y26280D02*
D03*
Y23720D02*
D03*
Y21161D02*
D03*
Y18602D02*
D03*
Y16043D02*
D03*
Y13484D02*
D03*
X154114Y36516D02*
D03*
Y33957D02*
D03*
Y31398D02*
D03*
Y28839D02*
D03*
Y26280D02*
D03*
Y23720D02*
D03*
Y21161D02*
D03*
Y18602D02*
D03*
Y16043D02*
D03*
Y13484D02*
D03*
D32*
X524571Y442638D02*
D03*
X521421D02*
D03*
X518272D02*
D03*
X515122D02*
D03*
X511972D02*
D03*
X508823D02*
D03*
X505673D02*
D03*
X502524D02*
D03*
X499374D02*
D03*
X496224D02*
D03*
X493075D02*
D03*
X489925D02*
D03*
X486776D02*
D03*
X483626D02*
D03*
X480476D02*
D03*
X477327D02*
D03*
X474177D02*
D03*
X471028D02*
D03*
X467878D02*
D03*
X464728D02*
D03*
X461579D02*
D03*
X458429D02*
D03*
X524571Y397362D02*
D03*
X521421D02*
D03*
X518272D02*
D03*
X515122D02*
D03*
X511972D02*
D03*
X508823D02*
D03*
X505673D02*
D03*
X502524D02*
D03*
X499374D02*
D03*
X496224D02*
D03*
X493075D02*
D03*
X489925D02*
D03*
X486776D02*
D03*
X483626D02*
D03*
X480476D02*
D03*
X477327D02*
D03*
X474177D02*
D03*
X471028D02*
D03*
X467878D02*
D03*
X464728D02*
D03*
X461579D02*
D03*
X458429D02*
D03*
Y488862D02*
D03*
X461579D02*
D03*
X464728D02*
D03*
X467878D02*
D03*
X471028D02*
D03*
X474177D02*
D03*
X477327D02*
D03*
X480476D02*
D03*
X483626D02*
D03*
X486776D02*
D03*
X489925D02*
D03*
X493075D02*
D03*
X496224D02*
D03*
X499374D02*
D03*
X502524D02*
D03*
X505673D02*
D03*
X508823D02*
D03*
X511972D02*
D03*
X515122D02*
D03*
X518272D02*
D03*
X521421D02*
D03*
X524571D02*
D03*
X458429Y534138D02*
D03*
X461579D02*
D03*
X464728D02*
D03*
X467878D02*
D03*
X471028D02*
D03*
X474177D02*
D03*
X477327D02*
D03*
X480476D02*
D03*
X483626D02*
D03*
X486776D02*
D03*
X489925D02*
D03*
X493075D02*
D03*
X496224D02*
D03*
X499374D02*
D03*
X502524D02*
D03*
X505673D02*
D03*
X508823D02*
D03*
X511972D02*
D03*
X515122D02*
D03*
X518272D02*
D03*
X521421D02*
D03*
X524571D02*
D03*
X87071Y58638D02*
D03*
X83921D02*
D03*
X80772D02*
D03*
X77622D02*
D03*
X74472D02*
D03*
X71323D02*
D03*
X68173D02*
D03*
X65024D02*
D03*
X61874D02*
D03*
X58724D02*
D03*
X55575D02*
D03*
X52425D02*
D03*
X49276D02*
D03*
X46126D02*
D03*
X42976D02*
D03*
X39827D02*
D03*
X36677D02*
D03*
X33528D02*
D03*
X30378D02*
D03*
X27228D02*
D03*
X24079D02*
D03*
X20929D02*
D03*
X87071Y13362D02*
D03*
X83921D02*
D03*
X80772D02*
D03*
X77622D02*
D03*
X74472D02*
D03*
X71323D02*
D03*
X68173D02*
D03*
X65024D02*
D03*
X61874D02*
D03*
X58724D02*
D03*
X55575D02*
D03*
X52425D02*
D03*
X49276D02*
D03*
X46126D02*
D03*
X42976D02*
D03*
X39827D02*
D03*
X36677D02*
D03*
X33528D02*
D03*
X30378D02*
D03*
X27228D02*
D03*
X24079D02*
D03*
X20929D02*
D03*
Y104862D02*
D03*
X24079D02*
D03*
X27228D02*
D03*
X30378D02*
D03*
X33528D02*
D03*
X36677D02*
D03*
X39827D02*
D03*
X42976D02*
D03*
X46126D02*
D03*
X49276D02*
D03*
X52425D02*
D03*
X55575D02*
D03*
X58724D02*
D03*
X61874D02*
D03*
X65024D02*
D03*
X68173D02*
D03*
X71323D02*
D03*
X74472D02*
D03*
X77622D02*
D03*
X80772D02*
D03*
X83921D02*
D03*
X87071D02*
D03*
X20929Y150138D02*
D03*
X24079D02*
D03*
X27228D02*
D03*
X30378D02*
D03*
X33528D02*
D03*
X36677D02*
D03*
X39827D02*
D03*
X42976D02*
D03*
X46126D02*
D03*
X49276D02*
D03*
X52425D02*
D03*
X55575D02*
D03*
X58724D02*
D03*
X61874D02*
D03*
X65024D02*
D03*
X68173D02*
D03*
X71323D02*
D03*
X74472D02*
D03*
X77622D02*
D03*
X80772D02*
D03*
X83921D02*
D03*
X87071D02*
D03*
D33*
X156200Y430000D02*
D03*
X149200D02*
D03*
X116200D02*
D03*
X109200D02*
D03*
X76200D02*
D03*
X69200D02*
D03*
X36200D02*
D03*
X29200D02*
D03*
X398000Y120000D02*
D03*
X391000D02*
D03*
X438000D02*
D03*
X431000D02*
D03*
X478000D02*
D03*
X471000D02*
D03*
X518000D02*
D03*
X511000D02*
D03*
D34*
X430000Y478000D02*
D03*
Y471000D02*
D03*
Y518000D02*
D03*
Y511000D02*
D03*
Y391000D02*
D03*
Y398000D02*
D03*
Y431000D02*
D03*
Y438000D02*
D03*
X117500Y154000D02*
D03*
Y147000D02*
D03*
Y114000D02*
D03*
Y107000D02*
D03*
Y74000D02*
D03*
Y67000D02*
D03*
Y34500D02*
D03*
Y27500D02*
D03*
D35*
X333750Y203750D02*
D03*
Y213750D02*
D03*
Y223750D02*
D03*
Y233750D02*
D03*
Y243750D02*
D03*
Y253750D02*
D03*
Y263750D02*
D03*
Y273750D02*
D03*
Y283750D02*
D03*
Y293750D02*
D03*
Y303750D02*
D03*
Y313750D02*
D03*
Y323750D02*
D03*
X323750Y203750D02*
D03*
Y213750D02*
D03*
Y223750D02*
D03*
Y233750D02*
D03*
Y243750D02*
D03*
Y253750D02*
D03*
Y263750D02*
D03*
Y273750D02*
D03*
Y283750D02*
D03*
Y293750D02*
D03*
Y303750D02*
D03*
Y313750D02*
D03*
Y323750D02*
D03*
X313750Y203750D02*
D03*
Y213750D02*
D03*
Y223750D02*
D03*
Y233750D02*
D03*
Y243750D02*
D03*
Y253750D02*
D03*
Y263750D02*
D03*
Y273750D02*
D03*
Y283750D02*
D03*
Y293750D02*
D03*
Y303750D02*
D03*
Y313750D02*
D03*
Y323750D02*
D03*
X303750Y203750D02*
D03*
Y213750D02*
D03*
Y223750D02*
D03*
Y233750D02*
D03*
Y243750D02*
D03*
Y253750D02*
D03*
Y263750D02*
D03*
Y273750D02*
D03*
Y283750D02*
D03*
Y293750D02*
D03*
Y303750D02*
D03*
Y313750D02*
D03*
Y323750D02*
D03*
X293750Y203750D02*
D03*
Y213750D02*
D03*
Y223750D02*
D03*
Y233750D02*
D03*
Y243750D02*
D03*
Y253750D02*
D03*
Y263750D02*
D03*
Y273750D02*
D03*
Y283750D02*
D03*
Y293750D02*
D03*
Y303750D02*
D03*
Y313750D02*
D03*
Y323750D02*
D03*
X283750Y203750D02*
D03*
Y213750D02*
D03*
Y223750D02*
D03*
Y233750D02*
D03*
Y243750D02*
D03*
Y253750D02*
D03*
Y263750D02*
D03*
Y273750D02*
D03*
Y283750D02*
D03*
Y293750D02*
D03*
Y303750D02*
D03*
Y313750D02*
D03*
Y323750D02*
D03*
X273750Y203750D02*
D03*
Y213750D02*
D03*
Y223750D02*
D03*
Y233750D02*
D03*
Y243750D02*
D03*
Y253750D02*
D03*
Y263750D02*
D03*
Y273750D02*
D03*
Y283750D02*
D03*
Y293750D02*
D03*
Y303750D02*
D03*
Y313750D02*
D03*
Y323750D02*
D03*
X263750Y203750D02*
D03*
Y213750D02*
D03*
Y223750D02*
D03*
Y233750D02*
D03*
Y243750D02*
D03*
Y253750D02*
D03*
Y263750D02*
D03*
Y273750D02*
D03*
Y283750D02*
D03*
Y293750D02*
D03*
Y303750D02*
D03*
Y313750D02*
D03*
Y323750D02*
D03*
X253750Y203750D02*
D03*
Y213750D02*
D03*
Y223750D02*
D03*
Y233750D02*
D03*
Y243750D02*
D03*
Y253750D02*
D03*
Y263750D02*
D03*
Y273750D02*
D03*
Y283750D02*
D03*
Y293750D02*
D03*
Y303750D02*
D03*
Y313750D02*
D03*
Y323750D02*
D03*
X243750Y203750D02*
D03*
Y213750D02*
D03*
Y223750D02*
D03*
Y233750D02*
D03*
Y243750D02*
D03*
Y253750D02*
D03*
Y263750D02*
D03*
Y273750D02*
D03*
Y283750D02*
D03*
Y293750D02*
D03*
Y303750D02*
D03*
Y313750D02*
D03*
Y323750D02*
D03*
X233750Y203750D02*
D03*
Y213750D02*
D03*
Y223750D02*
D03*
Y233750D02*
D03*
Y243750D02*
D03*
Y253750D02*
D03*
Y263750D02*
D03*
Y273750D02*
D03*
Y283750D02*
D03*
Y293750D02*
D03*
Y303750D02*
D03*
Y313750D02*
D03*
Y323750D02*
D03*
X223750Y203750D02*
D03*
Y213750D02*
D03*
Y223750D02*
D03*
Y233750D02*
D03*
Y243750D02*
D03*
Y253750D02*
D03*
Y263750D02*
D03*
Y273750D02*
D03*
Y283750D02*
D03*
Y293750D02*
D03*
Y303750D02*
D03*
Y313750D02*
D03*
Y323750D02*
D03*
X213750Y203750D02*
D03*
Y213750D02*
D03*
Y223750D02*
D03*
Y233750D02*
D03*
Y243750D02*
D03*
Y253750D02*
D03*
Y263750D02*
D03*
Y273750D02*
D03*
Y283750D02*
D03*
Y293750D02*
D03*
Y303750D02*
D03*
Y313750D02*
D03*
D36*
Y323750D02*
D03*
D37*
X156100Y400700D02*
D03*
X116100D02*
D03*
X76100D02*
D03*
X36100D02*
D03*
X39100Y436400D02*
D03*
X21500Y424800D02*
D03*
X26300Y424300D02*
D03*
X32700Y423500D02*
D03*
X20900Y434800D02*
D03*
X26800Y435800D02*
D03*
X31700Y435900D02*
D03*
Y442200D02*
D03*
X135566Y410514D02*
D03*
X95566D02*
D03*
X55566D02*
D03*
X15763Y410200D02*
D03*
X15800Y424600D02*
D03*
X13400Y432100D02*
D03*
X13600Y438100D02*
D03*
X13500Y444900D02*
D03*
X13362Y450638D02*
D03*
X15600Y399400D02*
D03*
X24400Y489900D02*
D03*
X135700Y401700D02*
D03*
X95700D02*
D03*
X55700D02*
D03*
X20100Y430000D02*
D03*
X60100D02*
D03*
X100100D02*
D03*
X140100D02*
D03*
X65800Y492900D02*
D03*
X154200Y445600D02*
D03*
X161400Y489100D02*
D03*
X117500Y489900D02*
D03*
X112400Y493100D02*
D03*
X164700D02*
D03*
X175200Y539900D02*
D03*
X189100Y507100D02*
D03*
X199000D02*
D03*
X208700D02*
D03*
X178600D02*
D03*
X175200Y516700D02*
D03*
X178750Y416300D02*
D03*
X208600Y413996D02*
D03*
X198600D02*
D03*
X188600D02*
D03*
X485500Y333400D02*
D03*
Y323400D02*
D03*
Y313400D02*
D03*
Y303400D02*
D03*
Y293400D02*
D03*
Y283400D02*
D03*
Y273400D02*
D03*
Y263400D02*
D03*
Y253400D02*
D03*
Y243400D02*
D03*
Y233400D02*
D03*
Y223400D02*
D03*
Y213400D02*
D03*
Y203400D02*
D03*
Y193400D02*
D03*
Y183400D02*
D03*
X514804Y328750D02*
D03*
Y318750D02*
D03*
X514350Y308750D02*
D03*
Y298750D02*
D03*
Y288750D02*
D03*
Y278750D02*
D03*
Y258750D02*
D03*
Y268750D02*
D03*
Y248750D02*
D03*
Y238750D02*
D03*
Y228750D02*
D03*
Y218750D02*
D03*
Y208750D02*
D03*
Y198750D02*
D03*
Y188750D02*
D03*
Y178750D02*
D03*
X339300Y163902D02*
D03*
X329400Y164300D02*
D03*
X319200D02*
D03*
X310500Y164700D02*
D03*
X299700D02*
D03*
X289800Y164100D02*
D03*
X279800Y164300D02*
D03*
X269800Y164200D02*
D03*
X259900Y164100D02*
D03*
X250100Y164204D02*
D03*
X434950Y178750D02*
D03*
Y188750D02*
D03*
Y198750D02*
D03*
Y208750D02*
D03*
Y218750D02*
D03*
Y228750D02*
D03*
Y238750D02*
D03*
Y248750D02*
D03*
Y258750D02*
D03*
Y268750D02*
D03*
Y278750D02*
D03*
Y288750D02*
D03*
Y298750D02*
D03*
Y308750D02*
D03*
Y318750D02*
D03*
Y328750D02*
D03*
X350400Y313400D02*
D03*
X353600Y304100D02*
D03*
X365050Y298750D02*
D03*
X368800Y288600D02*
D03*
X351700Y285600D02*
D03*
X364100Y266100D02*
D03*
X379200Y254900D02*
D03*
X187400Y208400D02*
D03*
X187300Y194200D02*
D03*
X190200Y223000D02*
D03*
X163700Y184000D02*
D03*
X140400Y298200D02*
D03*
Y253600D02*
D03*
X62850Y233850D02*
D03*
Y213850D02*
D03*
Y223850D02*
D03*
Y243850D02*
D03*
Y253850D02*
D03*
Y263850D02*
D03*
Y273850D02*
D03*
Y283850D02*
D03*
Y293850D02*
D03*
X62696Y304004D02*
D03*
X62850Y313850D02*
D03*
Y323850D02*
D03*
Y333850D02*
D03*
Y343850D02*
D03*
Y353850D02*
D03*
Y363850D02*
D03*
X167954Y223900D02*
D03*
X168000Y217100D02*
D03*
Y208300D02*
D03*
X167954Y233900D02*
D03*
Y243900D02*
D03*
X168004Y273600D02*
D03*
X167954Y263900D02*
D03*
X167700Y253900D02*
D03*
X182100Y235600D02*
D03*
Y245400D02*
D03*
X182200Y253700D02*
D03*
X186900Y260700D02*
D03*
X112550Y218750D02*
D03*
Y228750D02*
D03*
Y238750D02*
D03*
Y248750D02*
D03*
Y258750D02*
D03*
Y268750D02*
D03*
Y278750D02*
D03*
Y288750D02*
D03*
Y298750D02*
D03*
Y308750D02*
D03*
Y318750D02*
D03*
Y328750D02*
D03*
Y338750D02*
D03*
Y348750D02*
D03*
Y358750D02*
D03*
Y368750D02*
D03*
X31500D02*
D03*
Y218750D02*
D03*
Y228750D02*
D03*
Y238750D02*
D03*
Y248750D02*
D03*
Y258750D02*
D03*
Y268750D02*
D03*
Y278750D02*
D03*
Y288750D02*
D03*
Y298750D02*
D03*
Y308750D02*
D03*
Y318750D02*
D03*
Y328750D02*
D03*
Y338750D02*
D03*
Y348750D02*
D03*
Y358750D02*
D03*
X333800Y81300D02*
D03*
X323800D02*
D03*
X313800D02*
D03*
X303450Y81746D02*
D03*
X293800Y81300D02*
D03*
X283800D02*
D03*
X273800D02*
D03*
X263800D02*
D03*
X253800D02*
D03*
X243800D02*
D03*
X233800D02*
D03*
X223800Y80546D02*
D03*
X213800Y81300D02*
D03*
X203800D02*
D03*
X193800D02*
D03*
X183800D02*
D03*
X328800Y131800D02*
D03*
X318800Y132000D02*
D03*
X308800D02*
D03*
X298800Y135800D02*
D03*
X288700Y139100D02*
D03*
X278700Y142700D02*
D03*
X328750Y33450D02*
D03*
X318750D02*
D03*
X308750D02*
D03*
X298750D02*
D03*
X288750D02*
D03*
X278750D02*
D03*
X268750D02*
D03*
X258750D02*
D03*
X248750D02*
D03*
X238750D02*
D03*
X228750D02*
D03*
X218750D02*
D03*
X208750D02*
D03*
X188750D02*
D03*
X198750D02*
D03*
X178800Y33500D02*
D03*
X328750Y112450D02*
D03*
X318750D02*
D03*
X308750D02*
D03*
X298750D02*
D03*
X288750D02*
D03*
X278750D02*
D03*
X268750D02*
D03*
X258750D02*
D03*
X248750D02*
D03*
X238750D02*
D03*
X228750D02*
D03*
X218750D02*
D03*
X208750D02*
D03*
X198750D02*
D03*
X188750D02*
D03*
X178750D02*
D03*
X358500Y485600D02*
D03*
X338800Y485700D02*
D03*
X348200Y485300D02*
D03*
X328900Y485500D02*
D03*
X318500Y485300D02*
D03*
X253700Y435600D02*
D03*
X243700Y435300D02*
D03*
X233700Y416700D02*
D03*
X223700Y410600D02*
D03*
X174800Y368200D02*
D03*
X230400Y371200D02*
D03*
X208000D02*
D03*
X224700Y377400D02*
D03*
X207900D02*
D03*
X219000Y383700D02*
D03*
X208100Y383600D02*
D03*
X243700Y533600D02*
D03*
X253600Y533100D02*
D03*
X264100Y533300D02*
D03*
X284100Y532700D02*
D03*
X273700Y533200D02*
D03*
X293800Y532900D02*
D03*
X213700Y514200D02*
D03*
X223700D02*
D03*
X363700D02*
D03*
X353700D02*
D03*
X343700D02*
D03*
X333700D02*
D03*
X323700D02*
D03*
X313700D02*
D03*
X303700D02*
D03*
X293700D02*
D03*
X283700D02*
D03*
X273700D02*
D03*
X263700D02*
D03*
X253700D02*
D03*
X243700D02*
D03*
X233700D02*
D03*
X368750Y460650D02*
D03*
X358750D02*
D03*
X348750D02*
D03*
X338750D02*
D03*
X328750D02*
D03*
X318750D02*
D03*
X308750D02*
D03*
X298750D02*
D03*
X288750D02*
D03*
X278750D02*
D03*
X268750D02*
D03*
X258750D02*
D03*
X248750D02*
D03*
X238750D02*
D03*
X228750D02*
D03*
X218750D02*
D03*
X344500Y346800D02*
D03*
X336100D02*
D03*
X336200Y356800D02*
D03*
Y367600D02*
D03*
X336300Y377096D02*
D03*
X308800Y374700D02*
D03*
X298500Y375000D02*
D03*
X288700Y375100D02*
D03*
X278296D02*
D03*
X378600Y375196D02*
D03*
X379000Y382096D02*
D03*
X385900Y396896D02*
D03*
X373900Y400600D02*
D03*
X353400Y434096D02*
D03*
X363600Y434296D02*
D03*
X365400Y417996D02*
D03*
X375700Y448996D02*
D03*
X375000Y443596D02*
D03*
X386200Y442700D02*
D03*
X393200Y502696D02*
D03*
X401900Y519200D02*
D03*
X405400Y523700D02*
D03*
X408700Y527900D02*
D03*
X411800Y535200D02*
D03*
X415800Y539300D02*
D03*
X160700Y85396D02*
D03*
X170300Y88996D02*
D03*
X177400Y92596D02*
D03*
X169100Y99796D02*
D03*
X167000Y125096D02*
D03*
X170200Y120800D02*
D03*
M02*
