G04 Layer_Physical_Order=2*
G04 Layer_Color=16711680*
%FSLAX25Y25*%
%MOIN*%
G70*
G01*
G75*
%ADD10R,0.05000X0.05000*%
%ADD16R,0.03937X0.07874*%
%ADD17R,0.07874X0.03937*%
%ADD22C,0.01000*%
%ADD23R,0.07874X0.07874*%
%ADD24C,0.07874*%
%ADD25R,0.07874X0.07874*%
%ADD26C,0.07284*%
%ADD27R,0.07284X0.07284*%
%ADD28C,0.16000*%
%ADD29C,0.05906*%
%ADD30R,0.05906X0.05906*%
%ADD31R,0.05906X0.05906*%
%ADD32C,0.09100*%
%ADD33C,0.03000*%
D10*
X830000Y226500D02*
D03*
Y233500D02*
D03*
X930000Y226500D02*
D03*
Y233500D02*
D03*
X890000Y226500D02*
D03*
Y233500D02*
D03*
X870000Y226500D02*
D03*
Y233500D02*
D03*
X850000Y226500D02*
D03*
Y233500D02*
D03*
X810000Y226500D02*
D03*
Y233500D02*
D03*
X790000Y226500D02*
D03*
Y233500D02*
D03*
X910000Y226500D02*
D03*
Y233500D02*
D03*
D16*
X790000Y70354D02*
D03*
X770000D02*
D03*
X760000D02*
D03*
X750000D02*
D03*
X780000D02*
D03*
X830000D02*
D03*
X800000D02*
D03*
X810000D02*
D03*
X820000D02*
D03*
X840000D02*
D03*
X880000D02*
D03*
X850000D02*
D03*
X860000D02*
D03*
X870000D02*
D03*
X890000D02*
D03*
X930000D02*
D03*
X900000D02*
D03*
X910000D02*
D03*
X920000D02*
D03*
X940000D02*
D03*
Y39646D02*
D03*
X920000D02*
D03*
X910000D02*
D03*
X900000D02*
D03*
X930000D02*
D03*
X890000D02*
D03*
X870000D02*
D03*
X860000D02*
D03*
X850000D02*
D03*
X880000D02*
D03*
X840000D02*
D03*
X820000D02*
D03*
X810000D02*
D03*
X800000D02*
D03*
X830000D02*
D03*
X780000D02*
D03*
X750000D02*
D03*
X760000D02*
D03*
X770000D02*
D03*
X790000D02*
D03*
X900000Y429646D02*
D03*
X920000D02*
D03*
X930000D02*
D03*
X940000D02*
D03*
X910000D02*
D03*
X860000D02*
D03*
X890000D02*
D03*
X880000D02*
D03*
X870000D02*
D03*
X850000D02*
D03*
X810000D02*
D03*
X840000D02*
D03*
X830000D02*
D03*
X820000D02*
D03*
X800000D02*
D03*
X760000D02*
D03*
X790000D02*
D03*
X780000D02*
D03*
X770000D02*
D03*
X750000D02*
D03*
Y460354D02*
D03*
X770000D02*
D03*
X780000D02*
D03*
X790000D02*
D03*
X760000D02*
D03*
X800000D02*
D03*
X820000D02*
D03*
X830000D02*
D03*
X840000D02*
D03*
X810000D02*
D03*
X850000D02*
D03*
X870000D02*
D03*
X880000D02*
D03*
X890000D02*
D03*
X860000D02*
D03*
X910000D02*
D03*
X940000D02*
D03*
X930000D02*
D03*
X920000D02*
D03*
X900000D02*
D03*
D17*
X130291Y140000D02*
D03*
Y150000D02*
D03*
X99583Y210000D02*
D03*
Y190000D02*
D03*
Y180000D02*
D03*
Y170000D02*
D03*
Y200000D02*
D03*
Y250000D02*
D03*
Y220000D02*
D03*
Y230000D02*
D03*
Y240000D02*
D03*
Y260000D02*
D03*
Y300000D02*
D03*
Y270000D02*
D03*
Y280000D02*
D03*
Y290000D02*
D03*
Y310000D02*
D03*
Y350000D02*
D03*
Y320000D02*
D03*
Y330000D02*
D03*
Y340000D02*
D03*
Y360000D02*
D03*
X130291D02*
D03*
Y340000D02*
D03*
Y330000D02*
D03*
Y320000D02*
D03*
Y350000D02*
D03*
Y310000D02*
D03*
Y290000D02*
D03*
Y280000D02*
D03*
Y270000D02*
D03*
Y300000D02*
D03*
Y260000D02*
D03*
Y240000D02*
D03*
Y230000D02*
D03*
Y220000D02*
D03*
Y250000D02*
D03*
Y200000D02*
D03*
Y170000D02*
D03*
Y180000D02*
D03*
Y190000D02*
D03*
Y210000D02*
D03*
X289291D02*
D03*
Y190000D02*
D03*
Y180000D02*
D03*
Y170000D02*
D03*
Y200000D02*
D03*
Y250000D02*
D03*
Y220000D02*
D03*
Y230000D02*
D03*
Y240000D02*
D03*
Y260000D02*
D03*
Y300000D02*
D03*
Y270000D02*
D03*
Y280000D02*
D03*
Y290000D02*
D03*
Y310000D02*
D03*
Y350000D02*
D03*
Y320000D02*
D03*
Y330000D02*
D03*
Y340000D02*
D03*
Y360000D02*
D03*
X320000D02*
D03*
Y340000D02*
D03*
Y330000D02*
D03*
Y320000D02*
D03*
Y350000D02*
D03*
Y310000D02*
D03*
Y290000D02*
D03*
Y280000D02*
D03*
Y270000D02*
D03*
Y300000D02*
D03*
Y260000D02*
D03*
Y240000D02*
D03*
Y230000D02*
D03*
Y220000D02*
D03*
Y250000D02*
D03*
Y200000D02*
D03*
Y170000D02*
D03*
Y180000D02*
D03*
Y190000D02*
D03*
Y210000D02*
D03*
X130291Y160000D02*
D03*
X99583Y140000D02*
D03*
Y150000D02*
D03*
Y160000D02*
D03*
X320000D02*
D03*
Y150000D02*
D03*
Y140000D02*
D03*
X289291D02*
D03*
Y150000D02*
D03*
Y160000D02*
D03*
X1060354Y305000D02*
D03*
Y325000D02*
D03*
Y335000D02*
D03*
Y345000D02*
D03*
Y315000D02*
D03*
Y265000D02*
D03*
Y295000D02*
D03*
Y285000D02*
D03*
Y275000D02*
D03*
Y255000D02*
D03*
Y215000D02*
D03*
Y245000D02*
D03*
Y235000D02*
D03*
Y225000D02*
D03*
Y205000D02*
D03*
Y165000D02*
D03*
Y195000D02*
D03*
Y185000D02*
D03*
Y175000D02*
D03*
Y155000D02*
D03*
X1029646D02*
D03*
Y175000D02*
D03*
Y185000D02*
D03*
Y195000D02*
D03*
Y165000D02*
D03*
Y205000D02*
D03*
Y225000D02*
D03*
Y235000D02*
D03*
Y245000D02*
D03*
Y215000D02*
D03*
Y255000D02*
D03*
Y275000D02*
D03*
Y285000D02*
D03*
Y295000D02*
D03*
Y265000D02*
D03*
Y315000D02*
D03*
Y345000D02*
D03*
Y335000D02*
D03*
Y325000D02*
D03*
Y305000D02*
D03*
X639646Y195000D02*
D03*
Y175000D02*
D03*
Y165000D02*
D03*
Y155000D02*
D03*
Y185000D02*
D03*
Y235000D02*
D03*
Y205000D02*
D03*
Y215000D02*
D03*
Y225000D02*
D03*
Y245000D02*
D03*
Y285000D02*
D03*
Y255000D02*
D03*
Y265000D02*
D03*
Y275000D02*
D03*
Y295000D02*
D03*
Y335000D02*
D03*
Y305000D02*
D03*
Y315000D02*
D03*
Y325000D02*
D03*
Y345000D02*
D03*
X670354D02*
D03*
Y325000D02*
D03*
Y315000D02*
D03*
Y305000D02*
D03*
Y335000D02*
D03*
Y295000D02*
D03*
Y275000D02*
D03*
Y265000D02*
D03*
Y255000D02*
D03*
Y285000D02*
D03*
Y245000D02*
D03*
Y225000D02*
D03*
Y215000D02*
D03*
Y205000D02*
D03*
Y235000D02*
D03*
Y185000D02*
D03*
Y155000D02*
D03*
Y165000D02*
D03*
Y175000D02*
D03*
Y195000D02*
D03*
D22*
X773000Y412900D02*
X790100D01*
X791700Y406500D02*
X798000Y412800D01*
X774300Y406500D02*
X791700D01*
X782000Y409700D02*
X792000D01*
X793100Y410800D01*
X760000Y425900D02*
X773000Y412900D01*
X771000Y409800D02*
X774300Y406500D01*
X793100Y410800D02*
Y418900D01*
X338800Y464900D02*
X342000Y461700D01*
Y305400D02*
Y461700D01*
Y305400D02*
X368900Y278500D01*
X484000Y417000D02*
X517000Y384000D01*
X561000D01*
X566000Y379000D01*
Y362000D02*
Y379000D01*
X561800Y357800D02*
X566000Y362000D01*
X538100Y357800D02*
X561800D01*
X449000Y408000D02*
X460000Y419000D01*
X449000Y361000D02*
Y408000D01*
X443800Y355800D02*
X449000Y361000D01*
X397100Y355800D02*
X443800D01*
X316400Y165337D02*
Y170000D01*
X976000Y315000D02*
X1029646D01*
X943516D02*
X976000D01*
X936750D02*
X943516D01*
X765000Y323000D02*
X774500D01*
X761600D02*
X765000D01*
X772200Y315800D01*
X759000Y329000D02*
X765000Y323000D01*
X101300Y290000D02*
Y292000D01*
X915800Y361500D02*
X941036Y386736D01*
X912500Y358200D02*
X915800Y361500D01*
X618900Y240000D02*
X624800D01*
X430091D02*
X618900D01*
X1031900Y245000D02*
X1060354D01*
X1031900D02*
Y248900D01*
X940000Y70700D02*
X980000D01*
X289291Y360000D02*
X297700D01*
X470000Y290000D02*
Y296000D01*
X146500Y78300D02*
X402500D01*
X344300Y136500D02*
X373400Y107400D01*
X1060400Y345000D02*
Y368200D01*
X685100Y35500D02*
X750000D01*
X861900Y39646D02*
Y43200D01*
X890000Y41600D02*
X893017D01*
X900000Y38400D02*
X902340D01*
X787283Y68400D02*
X790000D01*
X742100Y72800D02*
X750000D01*
X668400Y172100D02*
Y175000D01*
X667600Y252500D02*
Y255000D01*
X637700Y162000D02*
Y165000D01*
X638900Y148900D02*
Y155000D01*
X940000Y458400D02*
X946300D01*
X910000D02*
X913017D01*
X850000Y464700D02*
X853400D01*
X837800Y462300D02*
X840000D01*
X830000Y458400D02*
X832900D01*
X816969Y462300D02*
X820000D01*
X727200Y102800D02*
X793800Y169400D01*
X722700Y102800D02*
X745600Y125700D01*
X716000Y96100D02*
X722700Y102800D01*
X727200D01*
X720326D02*
X722700D01*
X713626Y96100D02*
X716000D01*
X669300D02*
X713626D01*
X905500Y233500D02*
X910000D01*
X890000D02*
X905500D01*
X936500Y230000D02*
X1036300D01*
X934100Y232400D02*
X934900Y231600D01*
X933000Y233500D02*
X934100Y232400D01*
X936500Y231600D02*
X952900D01*
X934900D02*
X936500D01*
X1029100Y147100D02*
Y155000D01*
X515300Y292300D02*
X535400Y312400D01*
X950400Y180200D02*
X985700D01*
X995500Y190000D01*
X1033400D01*
X1048400Y205000D01*
X1060354D01*
X1051700Y215000D02*
X1060354D01*
X1037435Y200735D02*
X1051700Y215000D01*
X1025465Y200735D02*
X1037435D01*
X1023400Y202800D02*
X1025465Y200735D01*
X999900Y202800D02*
X1023400D01*
X981800Y184700D02*
X999900Y202800D01*
X943200Y184700D02*
X981800D01*
X136000Y210000D02*
X141900Y215900D01*
X130291Y210000D02*
X136000D01*
X99583Y230000D02*
X112500D01*
X118900Y223600D01*
X110200Y190000D02*
X130291D01*
X126000Y195300D02*
X143200D01*
X121300Y200000D02*
X126000Y195300D01*
X99583Y200000D02*
X121300D01*
X111800Y180000D02*
X130291D01*
X109200Y177400D02*
X111800Y180000D01*
X90375D02*
X99583D01*
X114500Y172200D02*
X116700Y170000D01*
X130291D01*
X62300Y440400D02*
X152500D01*
X169300Y183500D02*
X185000D01*
X161000Y175200D02*
X169300Y183500D01*
X111528Y175200D02*
X161000D01*
X106328Y170000D02*
X111528Y175200D01*
X99583Y170000D02*
X106328D01*
X130291Y330000D02*
X136000D01*
X141700Y335700D01*
Y340000D01*
X137600Y344100D02*
X141700Y340000D01*
X87300Y344100D02*
X137600D01*
X85800Y342600D02*
X87300Y344100D01*
X42300Y410400D02*
X47300Y405400D01*
X111500D01*
X157500Y250000D02*
X289291D01*
X62300Y370400D02*
X149700D01*
X183569Y336531D01*
X293931D01*
X297400Y340000D01*
X320000D01*
X62300Y380400D02*
X144539D01*
X176839Y348100D01*
X277554D01*
X285654Y340000D01*
X289291D01*
X286500Y240000D02*
X289291D01*
X280600Y245900D02*
X286500Y240000D01*
X146600Y245900D02*
X280600D01*
X57000Y375700D02*
X112100D01*
X42300Y390400D02*
X57000Y375700D01*
X289291Y220000D02*
X293800D01*
X294800Y219000D01*
Y206000D02*
Y219000D01*
X292400Y203600D02*
X294800Y206000D01*
X70600Y203600D02*
X292400D01*
X62300Y195300D02*
X70600Y203600D01*
X56000Y181600D02*
X62300Y175300D01*
X56000Y181600D02*
Y196100D01*
X60000Y200100D01*
X64400D01*
X70800Y206500D01*
X266400D01*
X269900Y210000D01*
X289291D01*
X235800Y190000D02*
X289291D01*
X67200Y130400D02*
X176200D01*
X62300Y135300D02*
X67200Y130400D01*
X315700Y180000D02*
X320000D01*
X313700Y178000D02*
X315700Y180000D01*
X313700Y166206D02*
Y178000D01*
X300963Y153469D02*
X313700Y166206D01*
X201931Y153469D02*
X300963D01*
X193900Y161500D02*
X201931Y153469D01*
X190800Y161500D02*
X193900D01*
X189200Y159900D02*
X190800Y161500D01*
X189200Y131338D02*
Y159900D01*
X175762Y117900D02*
X189200Y131338D01*
X74900Y117900D02*
X175762D01*
X62300Y105300D02*
X74900Y117900D01*
X171600Y180000D02*
X289291D01*
X164000Y172400D02*
X171600Y180000D01*
X73200Y126200D02*
X164000D01*
X62300Y115300D02*
X73200Y126200D01*
X62300Y95300D02*
X64944Y92656D01*
X179656D01*
X182300Y95300D01*
X257000Y170000D02*
X289291D01*
X320000Y160000D02*
X324500D01*
X325500Y159000D01*
Y146000D02*
Y159000D01*
X323000Y143500D02*
X325500Y146000D01*
X311935Y143500D02*
X323000D01*
X311130Y142695D02*
X311935Y143500D01*
X304095Y142695D02*
X311130D01*
X290200Y128800D02*
X304095Y142695D01*
X236800Y128800D02*
X290200D01*
X197600Y89600D02*
X236800Y128800D01*
X117200Y89600D02*
X197600D01*
X316000Y150000D02*
X320000D01*
X311700Y145700D02*
X316000Y150000D01*
X309000Y145700D02*
X311700D01*
X192300Y157800D02*
X200100Y150000D01*
X289291D01*
X142500Y95900D02*
X146300Y99700D01*
X189962D01*
X230262Y140000D01*
X289291D01*
X46800Y264500D02*
X106500D01*
X112000Y270000D01*
X130291D01*
X42300Y460400D02*
X47700Y455000D01*
X240800D01*
X327300Y368500D01*
Y280400D02*
Y368500D01*
X320000Y280000D02*
X327300Y280400D01*
X36000Y386700D02*
X42300Y380400D01*
X36000Y386700D02*
Y463100D01*
X37800Y464900D01*
X338800D01*
X368900Y260000D02*
Y278500D01*
X361300Y252400D02*
X368900Y260000D01*
X320000Y240000D02*
X361300D01*
X77400Y300300D02*
X77700Y300000D01*
X99583D01*
X309969Y290000D02*
X320000D01*
X304700Y284731D02*
X309969Y290000D01*
X274000Y284731D02*
X304700D01*
X271068Y287664D02*
X274000Y284731D01*
X148900Y287664D02*
X271068D01*
X145068Y283831D02*
X148900Y287664D01*
X65731Y283831D02*
X145068D01*
X62300Y280400D02*
X65731Y283831D01*
X308900Y310000D02*
X320000D01*
X304700Y314200D02*
X308900Y310000D01*
X286000Y314200D02*
X304700D01*
X283600Y316600D02*
X286000Y314200D01*
X283600Y316600D02*
Y321200D01*
X282000Y322800D02*
X283600Y321200D01*
X236000Y322800D02*
X282000D01*
X228500Y315300D02*
X236000Y322800D01*
X123086Y315300D02*
X228500D01*
X121986Y314200D02*
X123086Y315300D01*
X68500Y314200D02*
X121986D01*
X62300Y320400D02*
X68500Y314200D01*
X308200Y300000D02*
X320000D01*
X304700Y303500D02*
X308200Y300000D01*
X65400Y303500D02*
X304700D01*
X62300Y300400D02*
X65400Y303500D01*
X57700Y305800D02*
X62300Y310400D01*
X57700Y298100D02*
Y305800D01*
Y298100D02*
X60000Y295800D01*
X66100D01*
X66800Y296500D01*
X222500D01*
X226000Y300000D01*
X289291D01*
X267175Y270000D02*
X289291D01*
X263675Y273500D02*
X267175Y270000D01*
X65100Y273500D02*
X263675D01*
X61800Y270200D02*
X65100Y273500D01*
X114200Y290000D02*
X130291D01*
X665000Y395600D02*
Y405900D01*
X744500Y296507D02*
X746200Y298207D01*
X763193D01*
X763900Y297500D01*
X714300Y148900D02*
X723700D01*
X671300Y105900D02*
X714300Y148900D01*
X662000Y105900D02*
X671300D01*
X665000Y395600D02*
X676600Y384000D01*
X706300Y336500D02*
X709906D01*
X747506Y298900D01*
X757500D01*
X759500Y300900D01*
X997900Y127900D02*
X1032000D01*
X975700Y150100D02*
X997900Y127900D01*
X965900Y150100D02*
X975700D01*
X99583Y280000D02*
X117200D01*
X307100Y225800D02*
X329000D01*
X354300Y200500D01*
Y174400D02*
Y200500D01*
X130291Y280000D02*
X267400D01*
X271000Y276400D01*
X325900D01*
X332500Y283000D01*
Y308182D01*
X264200Y264200D02*
X361700D01*
X262600Y262600D02*
X264200Y264200D01*
X258200Y262600D02*
X262600D01*
X256600Y264200D02*
X258200Y262600D01*
X123400Y264200D02*
X256600D01*
X113200Y254000D02*
X123400Y264200D01*
X95100Y254000D02*
X113200D01*
X94100Y253000D02*
X95100Y254000D01*
X94100Y247000D02*
Y253000D01*
Y247000D02*
X95400Y245700D01*
X104000D01*
X125500Y224200D01*
Y220000D02*
Y224200D01*
Y220000D02*
X130291D01*
X257400Y260000D02*
X258400Y259000D01*
X130291Y260000D02*
X257400D01*
X99583Y250000D02*
X107000D01*
X112000Y245000D01*
X140100D01*
X143000Y242100D01*
X275600D01*
X281200Y236500D01*
X357700D01*
X359700Y234500D01*
X99583Y290000D02*
X101300D01*
Y292000D02*
X113800Y293000D01*
X115400Y294600D01*
X310100D01*
X312000Y296500D01*
X659464Y415380D02*
X661282Y413561D01*
X627775Y415380D02*
X659464D01*
X700400Y21300D02*
X773500D01*
X670500Y60984D02*
X718301D01*
X721668Y57617D01*
X840436D01*
X844119Y61300D01*
X870117D01*
X872000Y59417D01*
X883983D01*
X683900Y11400D02*
X804900D01*
X806900Y9400D01*
X811946D01*
X950308Y25108D02*
X952200Y27000D01*
X839300Y25108D02*
X950308D01*
X837508Y26900D02*
X839300Y25108D01*
X806400Y26900D02*
X837508D01*
X815400Y482700D02*
X817000Y484300D01*
X997745D01*
X999589Y486144D01*
X1008496D01*
X1024700Y469940D01*
Y461389D02*
Y469940D01*
X819000Y471000D02*
X819300Y471300D01*
X881860D01*
X885260Y474700D01*
X951499D01*
X964000Y462199D01*
X969392D01*
X969696Y457814D01*
X975098Y452411D01*
X998774D01*
X1004600Y471700D02*
X1007200Y469100D01*
Y435600D02*
Y469100D01*
X978000Y413000D02*
X996900D01*
X975400Y415600D02*
X978000Y413000D01*
X975400Y415600D02*
Y437500D01*
X974000Y438900D02*
X975400Y437500D01*
X962000Y438900D02*
X974000D01*
X959900Y436800D02*
X962000Y438900D01*
X940400Y436800D02*
X959900D01*
X938000Y439200D02*
X940400Y436800D01*
X938000Y439200D02*
Y442900D01*
X935000Y445900D02*
X938000Y442900D01*
X907298Y445900D02*
X935000D01*
X905198Y448000D02*
X907298Y445900D01*
X874551Y448000D02*
X905198D01*
X870151Y443600D02*
X874551Y448000D01*
X867000Y443600D02*
X870151D01*
X759429Y409800D02*
X771000D01*
X742629Y426600D02*
X759429Y409800D01*
X739700Y426600D02*
X742629D01*
X713118Y449085D02*
Y451082D01*
Y449085D02*
X723303Y438900D01*
X772149D01*
X777449Y444200D01*
X825714D01*
X831214Y438700D01*
X876000D01*
X879000Y441700D01*
X915000Y420600D02*
Y436300D01*
Y420600D02*
X930300Y405300D01*
X936000D01*
X966000Y435300D01*
X970500D01*
X971800Y434000D01*
Y405300D02*
Y434000D01*
Y405300D02*
X972800Y404300D01*
Y396000D02*
Y404300D01*
X970700Y393900D02*
X972800Y396000D01*
X944750Y393900D02*
X970700D01*
X942650Y396000D02*
X944750Y393900D01*
X887900Y396000D02*
X942650D01*
X884200Y392300D02*
X887900Y396000D01*
X769413Y392300D02*
X884200D01*
X751813Y409900D02*
X769413Y392300D01*
X731100Y409900D02*
X751813D01*
X716300Y424700D02*
X731100Y409900D01*
X697300Y438000D02*
X698233Y437067D01*
X773916D01*
X779231Y442383D01*
X788900D01*
X794383Y436900D01*
X879900D01*
X887400Y444400D01*
X903290D01*
X905490Y442200D01*
X922197D01*
X925000Y439397D01*
X330000Y170300D02*
X367283D01*
X370724Y173740D01*
X442540D01*
X941036Y386736D02*
X980900D01*
X981891Y387727D01*
Y388300D01*
X1054407D01*
X1055207Y387500D01*
X836043Y352157D02*
X839500Y348700D01*
X849200D01*
X850500Y350000D01*
Y359000D01*
X848900Y360600D02*
X850500Y359000D01*
X848900Y360600D02*
Y373100D01*
X850000Y374200D01*
X855000D01*
X857200Y372000D01*
X888600D01*
X890600Y374000D01*
Y378100D01*
X897900Y385400D01*
X901200D01*
X902600Y384000D01*
Y368100D02*
Y384000D01*
Y368100D02*
X912500D01*
Y358200D02*
Y368100D01*
X1004200Y466200D02*
X1005300Y465100D01*
Y451300D02*
Y465100D01*
X991800Y437800D02*
X1005300Y451300D01*
X987600Y437800D02*
X991800D01*
X954700Y145100D02*
X974000D01*
X915800Y361500D02*
X966000D01*
X975800Y351700D01*
Y346000D02*
Y351700D01*
X1034000Y251000D02*
X1037500D01*
X1031900Y248900D02*
X1034000Y251000D01*
X1029646Y245000D02*
X1031900D01*
X550000Y70000D02*
X668000D01*
X683000Y85000D01*
X768522Y263816D02*
X771606Y266900D01*
X897000D01*
X907000Y256900D01*
Y249800D02*
X912000Y244800D01*
X925900D01*
X926100Y245000D01*
X130291Y360000D02*
X149513D01*
X174813Y334700D01*
X323700D01*
X325500Y336500D01*
Y359000D01*
X320000Y360000D02*
X325500Y359000D01*
X451700Y78300D02*
X460000Y70000D01*
X373400Y107400D02*
Y170100D01*
Y107400D02*
X402500Y78300D01*
X451700D01*
X967600Y268700D02*
X1047400D01*
X1051100Y265000D01*
X1060354D01*
X1054436Y285000D02*
X1060354D01*
X1053636Y285800D02*
X1054436Y285000D01*
X1038857Y285800D02*
X1053636D01*
X1034457Y281400D02*
X1038857Y285800D01*
X988700Y281400D02*
X1034457D01*
X981800Y288300D02*
X988700Y281400D01*
X964498Y288300D02*
X981800D01*
X961500Y285302D02*
X964498Y288300D01*
X961500Y262800D02*
Y285302D01*
Y262800D02*
X965600Y258700D01*
X1046200Y295000D02*
X1060354D01*
X1041500Y290300D02*
X1046200Y295000D01*
X990645Y290300D02*
X1041500D01*
X987145Y293800D02*
X990645Y290300D01*
X945063Y293800D02*
X987145D01*
X943563Y292300D02*
X945063Y293800D01*
X939882Y286618D02*
Y293663D01*
X942000Y295782D01*
X957947D01*
X961065Y298900D01*
X1045028D01*
X1051128Y305000D01*
X1060354D01*
Y325000D02*
X1063100D01*
X1067700Y320400D01*
Y284100D02*
Y320400D01*
X1064300Y280700D02*
X1067700Y284100D01*
X1055904Y280700D02*
X1064300D01*
X1052636Y283969D02*
X1055904Y280700D01*
X1042000Y283969D02*
X1052636D01*
X1037431Y279400D02*
X1042000Y283969D01*
X987100Y279400D02*
X1037431D01*
X980000Y286500D02*
X987100Y279400D01*
X974900Y286500D02*
X980000D01*
X970800Y282400D02*
X974900Y286500D01*
X964600Y282400D02*
X970800D01*
X1040150Y335000D02*
X1060354D01*
X1038700Y333550D02*
X1040150Y335000D01*
X1038700Y327000D02*
Y333550D01*
Y327000D02*
X1042700Y326000D01*
X1045300Y323400D01*
Y311000D02*
Y323400D01*
X1043950Y309650D02*
X1045300Y311000D01*
X932450Y309650D02*
X1043950D01*
X780000Y22300D02*
Y39646D01*
Y22300D02*
X786200Y16100D01*
X807400D01*
X809200Y14300D01*
X827200D01*
X829100Y12400D01*
X1035500D01*
X1091988Y68888D01*
X1090600Y393100D02*
Y395100D01*
X1057200Y428500D02*
X1090600Y395100D01*
X1047400Y428500D02*
X1057200D01*
X790000Y39646D02*
Y44100D01*
X789000Y45100D02*
X790000Y44100D01*
X776500Y45100D02*
X789000D01*
X776500Y20000D02*
Y45100D01*
Y20000D02*
X782200Y14300D01*
X805600D01*
X807400Y12500D01*
X824200D01*
X826300Y10400D01*
X1038000D01*
X1086200Y58600D01*
X1087700Y374000D02*
Y377000D01*
X1053700Y411000D02*
X1087700Y377000D01*
X1034100Y411000D02*
X1053700D01*
X1032600Y412500D02*
X1034100Y411000D01*
X810000Y35600D02*
Y39646D01*
X807900Y33500D02*
X810000Y35600D01*
X796900Y33500D02*
X807900D01*
X794400Y36000D02*
X796900Y33500D01*
X794400Y36000D02*
Y45200D01*
X792000Y47600D02*
X794400Y45200D01*
X758000Y47600D02*
X792000D01*
X755000Y44600D02*
X758000Y47600D01*
X755000Y36000D02*
Y44600D01*
X752600Y33600D02*
X755000Y36000D01*
X696400Y33600D02*
X752600D01*
X680000Y17200D02*
X696400Y33600D01*
X680000Y9100D02*
Y17200D01*
Y9100D02*
X684700Y4400D01*
X1044800D01*
X1095500Y55100D01*
Y97200D01*
X1094700Y98000D02*
X1095500Y97200D01*
X820000Y35200D02*
Y39646D01*
X816600Y31800D02*
X820000Y35200D01*
X835600Y62500D02*
X838017Y64917D01*
X873500D01*
Y78700D01*
X932300Y137500D01*
X934000D01*
X938500Y133000D01*
X944700D01*
X951600Y139900D01*
Y146900D01*
X957800Y153100D01*
X1007700D01*
X1022400Y138400D01*
X1025800D01*
X1026700Y137500D01*
X1065400D01*
X1083800Y155900D01*
Y159900D01*
X1084700Y385700D02*
Y387300D01*
X1081100Y390900D02*
X1084700Y387300D01*
X1081100Y390900D02*
Y397600D01*
X1067400Y411300D02*
X1081100Y397600D01*
X840000Y39646D02*
Y43800D01*
X842000Y45800D01*
X860800D01*
X867400Y52400D01*
X881983D01*
X886983Y57400D01*
Y61000D01*
X884600Y63383D02*
X886983Y61000D01*
X884600Y63383D02*
Y83400D01*
X917100Y115900D01*
X1040262D01*
X1041400Y114762D01*
Y108400D02*
Y114762D01*
X1038800Y93000D02*
Y93100D01*
X1037400Y91600D02*
X1038800Y93000D01*
X1015130Y91600D02*
X1037400D01*
X1010330Y86800D02*
X1015130Y91600D01*
X931500Y86800D02*
X1010330D01*
X850000Y37700D02*
X855900Y31800D01*
X850000Y37700D02*
Y39646D01*
X860000D02*
X861900D01*
Y43200D02*
X869200Y50500D01*
X884000D01*
X888900Y55400D01*
Y61628D01*
X886500Y64028D02*
X888900Y61628D01*
X886500Y64028D02*
Y79350D01*
X919550Y112400D01*
X1037570D01*
X1025600Y108600D02*
X1033100D01*
X1007000Y90000D02*
X1025600Y108600D01*
X907561Y90000D02*
X1007000D01*
X894600Y77039D02*
X907561Y90000D01*
X894600Y55300D02*
Y77039D01*
X887900Y48600D02*
X894600Y55300D01*
X874600Y48600D02*
X887900D01*
X870000Y44000D02*
X874600Y48600D01*
X870000Y39646D02*
Y44000D01*
X1040494Y89100D02*
X1045049Y93655D01*
X1019119Y89100D02*
X1040494D01*
X1011119Y81100D02*
X1019119Y89100D01*
X901831Y81100D02*
X1011119D01*
X896500Y75769D02*
X901831Y81100D01*
X896500Y51383D02*
Y75769D01*
X891917Y46800D02*
X896500Y51383D01*
X882700Y46800D02*
X891917D01*
X880000Y44100D02*
X882700Y46800D01*
X880000Y39646D02*
Y44100D01*
X890000Y39646D02*
Y41600D01*
X893017D02*
X903600Y52183D01*
Y76869D01*
X982421Y77600D01*
X984121Y79300D01*
X1012277D01*
X1020277Y87300D01*
X1045148D01*
X1050648Y92800D01*
X900000Y38400D02*
Y39646D01*
X902340Y38400D02*
X906531Y34208D01*
X943469D01*
X945000Y36800D01*
X951000D01*
X985622Y71422D01*
X993472D01*
X996950Y74900D01*
X1018017D01*
X1028617Y85500D01*
X1048843D01*
X1056000Y92657D01*
Y94200D01*
X900000Y62400D02*
Y70354D01*
X911000Y255800D02*
X912000Y254800D01*
X911000Y255800D02*
Y277973D01*
X888373Y300600D02*
X911000Y277973D01*
X771200Y300600D02*
X888373D01*
X756500Y315300D02*
X771200Y300600D01*
X890000Y70354D02*
Y74900D01*
X891900Y76800D01*
Y81600D01*
X907000Y96700D01*
X931700D01*
X909200Y251600D02*
X928300D01*
X909000Y251800D02*
X909200Y251600D01*
X909000Y251800D02*
Y259000D01*
X877442Y290558D02*
X909000Y259000D01*
X740042Y290558D02*
X877442D01*
X736000Y294600D02*
X740042Y290558D01*
X736000Y294600D02*
Y298600D01*
X734000Y300600D02*
X736000Y298600D01*
X811500Y149000D02*
X870000Y90500D01*
Y70354D02*
Y90500D01*
X860000Y70354D02*
Y90500D01*
X808400Y142100D02*
X860000Y90500D01*
X808400Y142100D02*
Y150900D01*
X809500Y152000D01*
X814500D01*
X817400Y149100D01*
X746200Y273700D02*
X750700D01*
X739600Y280300D02*
X746200Y273700D01*
X850000Y70354D02*
Y91000D01*
X846500Y94500D02*
X850000Y91000D01*
X828100Y94500D02*
X846500D01*
X764400Y304100D02*
X773700Y294800D01*
X756300Y304100D02*
X764400D01*
X753000Y300800D02*
X756300Y304100D01*
X749961Y300800D02*
X753000D01*
X737100Y313661D02*
X749961Y300800D01*
X840000Y70354D02*
Y80500D01*
X840100Y80600D01*
Y91400D01*
X839000Y92500D02*
X840100Y91400D01*
X830900Y92500D02*
X839000D01*
X829000Y90600D02*
X830900Y92500D01*
X812400Y90600D02*
X829000D01*
X803300Y99700D02*
X812400Y90600D01*
X803300Y99700D02*
Y148400D01*
X728000Y88300D02*
X728700Y89000D01*
Y94300D01*
X730000Y95600D01*
X770800D01*
X777900Y88500D01*
X825500D01*
X830000Y84000D01*
Y70354D02*
Y84000D01*
X800000Y70354D02*
Y76100D01*
X792800Y83300D02*
X800000Y76100D01*
X741100Y83300D02*
X792800D01*
X731800Y92600D02*
X741100Y83300D01*
X790000Y68400D02*
Y70354D01*
X781983Y63100D02*
X787283Y68400D01*
X744749Y63100D02*
X781983D01*
X742450Y65399D02*
X744749Y63100D01*
X742450Y65399D02*
Y67050D01*
X736200Y82300D02*
X737300Y81200D01*
X777800D01*
X780000Y79000D01*
Y70354D02*
Y79000D01*
X726386D02*
X768000D01*
X770000Y77000D01*
Y70354D02*
Y77000D01*
X737200Y206200D02*
Y222400D01*
X733200Y202200D02*
X737200Y206200D01*
X733000Y71100D02*
Y73100D01*
Y71100D02*
X744431Y70100D01*
X746531Y68000D01*
Y64917D02*
Y68000D01*
Y64917D02*
X758117D01*
X760000Y66800D01*
Y70354D01*
X741200Y73700D02*
X742100Y72800D01*
X750000Y70354D02*
Y72800D01*
X670354Y165000D02*
X675900D01*
X676900Y118100D01*
X667700Y108900D02*
X676900Y118100D01*
X655100Y108900D02*
X667700D01*
X654400Y108200D02*
X655100Y108900D01*
X618800Y147200D02*
X619700Y146300D01*
X618800Y147200D02*
Y201400D01*
X626000Y208600D01*
X645000D01*
X648600Y205000D01*
X670354D01*
X667600Y255000D02*
X670354D01*
X661500Y246400D02*
X667600Y252500D01*
X647200Y246400D02*
X661500D01*
X645000Y248600D02*
X647200Y246400D01*
X628026Y248600D02*
X645000D01*
X621100Y255526D02*
X628026Y248600D01*
X621100Y255526D02*
Y364300D01*
X643400Y386600D01*
Y392600D01*
X657100Y406300D01*
X670354Y285000D02*
X688000D01*
X660100Y391700D02*
X674600Y377200D01*
X660100Y391700D02*
Y407600D01*
X658000Y409700D02*
X660100Y407600D01*
X651500Y409700D02*
X658000D01*
X647700Y405900D02*
X651500Y409700D01*
X665200Y305000D02*
X670354D01*
X662200Y308000D02*
X665200Y305000D01*
X662200Y308000D02*
Y369500D01*
X650400Y381300D02*
X662200Y369500D01*
X670354Y325000D02*
X701100D01*
X728052Y298048D01*
X731539D01*
X733587Y296000D01*
Y292513D02*
Y296000D01*
Y292513D02*
X740600Y285500D01*
X761100D01*
X766000Y280600D01*
X738100Y342500D02*
X745100Y335500D01*
X696900Y342500D02*
X738100D01*
X694400Y345000D02*
X696900Y342500D01*
X670354Y345000D02*
X694400D01*
X816000Y164500D02*
X826400Y154100D01*
X798600Y164500D02*
X816000D01*
X756507Y293207D02*
X758500Y295200D01*
X742193Y293207D02*
X756507D01*
X739000Y296400D02*
X742193Y293207D01*
X739000Y296400D02*
Y302600D01*
X738000Y303600D02*
X739000Y302600D01*
X725800Y303600D02*
X738000D01*
X695400Y334000D02*
X725800Y303600D01*
X651500Y394000D02*
X674600Y370900D01*
X648900Y394000D02*
X651500D01*
X645200Y390300D02*
X648900Y394000D01*
X645200Y326200D02*
Y390300D01*
X644000Y325000D02*
X645200Y326200D01*
X639646Y325000D02*
X644000D01*
X639646Y315000D02*
X650300D01*
X664900Y300400D01*
X694700D01*
X696700Y302400D01*
X697800Y278700D02*
X702518Y273982D01*
X704518D01*
X728200Y250300D01*
X818700D01*
X820100Y248900D01*
X639646Y305000D02*
X651100D01*
X664700Y291400D01*
X689634D01*
X692905Y288128D01*
X697672D01*
X730060Y255740D01*
X777640D01*
X782900Y261000D01*
X871800D01*
X639646Y295000D02*
X651449D01*
X664949Y281500D01*
X692400D01*
X692900Y282000D01*
X697400Y291700D02*
X731100Y258000D01*
X765500D01*
X771500Y264000D01*
X873800D01*
X874800Y263000D01*
Y259000D02*
Y263000D01*
X873700Y257900D02*
X874800Y259000D01*
X867200Y257900D02*
X873700D01*
X866800Y257500D02*
X867200Y257900D01*
X635600Y285000D02*
X639646D01*
X634200Y283600D02*
X635600Y285000D01*
X634200Y271500D02*
Y283600D01*
Y271500D02*
X652200Y271400D01*
X663300Y260300D01*
X706500D01*
X722000Y244800D01*
X811000D01*
X813600Y242200D01*
X878200D01*
X879500Y243500D01*
X738637Y201600D02*
X901400D01*
X736200Y199163D02*
X738637Y201600D01*
X724461Y199163D02*
X736200D01*
X702524Y221100D02*
X724461Y199163D01*
X657100Y221100D02*
X702524D01*
X651500Y244600D02*
X657100Y239000D01*
X645515Y244600D02*
X651500D01*
X639646Y245000D02*
X645515Y244600D01*
X749700Y230600D02*
X751700Y232600D01*
X651200Y230600D02*
X749700D01*
X645600Y225000D02*
X651200Y230600D01*
X639646Y225000D02*
X645600D01*
X667900Y88000D02*
X694800D01*
X661657Y81757D02*
X667900Y88000D01*
X643643Y81757D02*
X661657D01*
X639600Y85800D02*
X643643Y81757D01*
X639600Y85800D02*
Y131000D01*
X620700Y149900D02*
X639600Y131000D01*
X620700Y149900D02*
Y199700D01*
X626000Y205000D01*
X639646D01*
X736500Y101000D02*
X750200Y114700D01*
X724200Y101000D02*
X736500D01*
X716100Y92900D02*
X724200Y101000D01*
X665800Y92900D02*
X716100D01*
X658900Y86000D02*
X665800Y92900D01*
X654800Y86000D02*
X658900D01*
X643900Y96900D02*
X654800Y86000D01*
X643900Y96900D02*
Y119500D01*
X645100Y120700D01*
Y168500D01*
X628100D02*
X645100D01*
X622500Y174100D02*
X628100Y168500D01*
X622500Y174100D02*
Y189500D01*
X628000Y195000D01*
X639646D01*
X723731Y189800D02*
X723800Y189731D01*
X686069Y189800D02*
X723731D01*
X685969Y189700D02*
X686069Y189800D01*
X664969Y189700D02*
X685969D01*
X663493Y188225D02*
X664969Y189700D01*
X663493Y182993D02*
Y188225D01*
X655500Y175000D02*
X663493Y182993D01*
X639646Y175000D02*
X655500D01*
X637700Y165000D02*
X639646D01*
X634200Y158500D02*
X637700Y162000D01*
X634200Y148500D02*
Y158500D01*
Y148500D02*
X641900Y140800D01*
Y93900D02*
Y140800D01*
Y93900D02*
X651800Y84000D01*
X660300D01*
X667300Y91000D01*
X717600D01*
X725800Y99200D01*
X742200D01*
X751600Y108600D01*
X1028800Y60800D02*
X1079100D01*
X1089300Y71000D01*
Y369587D01*
X1093600Y373887D01*
Y416800D01*
X1073600Y436800D02*
X1093600Y416800D01*
X1032400Y436800D02*
X1073600D01*
X1028100Y432500D02*
X1032400Y436800D01*
X988100Y432500D02*
X1028100D01*
X984500Y436100D02*
X988100Y432500D01*
X984500Y436100D02*
Y445400D01*
X982000Y447900D02*
X984500Y445400D01*
X956800Y447900D02*
X982000D01*
X946300Y458400D02*
X956800Y447900D01*
X940000Y458400D02*
Y460354D01*
X930000D02*
Y464700D01*
X932000Y466700D01*
X945200D01*
X962200Y449700D01*
X988200D01*
X989300Y448600D01*
X1000000D01*
X1003400Y452000D01*
Y460300D01*
X1001100Y462600D02*
X1003400Y460300D01*
X1001100Y462600D02*
Y472900D01*
X1002900Y474700D01*
X1006000D01*
X1009235Y471465D01*
Y469129D02*
Y471465D01*
Y469129D02*
X1035464Y442900D01*
X1077500D01*
X1077900Y442500D01*
X1068322Y435000D02*
X1078900Y424422D01*
X1034200Y435000D02*
X1068322D01*
X1029900Y430700D02*
X1034200Y435000D01*
X986100Y430700D02*
X1029900D01*
X982700Y434100D02*
X986100Y430700D01*
X982700Y434100D02*
Y444100D01*
X980700Y446100D02*
X982700Y444100D01*
X955840Y446100D02*
X980700D01*
X947040Y454900D02*
X955840Y446100D01*
X921805Y454900D02*
X947040D01*
X920000Y456705D02*
X921805Y454900D01*
X920000Y456705D02*
Y460354D01*
X910000Y458400D02*
Y460354D01*
X913017Y458400D02*
X918317Y453100D01*
X944909D01*
X953709Y444300D01*
X979200D01*
X980900Y442600D01*
Y432300D02*
Y442600D01*
Y432300D02*
X984300Y428900D01*
X1038166D01*
X1042466Y433200D01*
X1064800D01*
X1083000Y415000D01*
X958100Y458300D02*
X966100D01*
X943800Y472600D02*
X958100Y458300D01*
X886815Y472600D02*
X943800D01*
X882915Y468700D02*
X886815Y472600D01*
X862800Y468700D02*
X882915D01*
X860000Y465900D02*
X862800Y468700D01*
X860000Y460354D02*
Y465900D01*
X840000Y460354D02*
Y462300D01*
X832508Y467592D02*
X837800Y462300D01*
X816000Y467592D02*
X832508D01*
X815600Y467992D02*
X816000Y467592D01*
X815600Y467992D02*
Y472000D01*
X817600Y474000D01*
X847500D01*
X848400Y473100D01*
X879961D01*
X883561Y476700D01*
X960872D01*
X970247Y467325D01*
X812800Y366500D02*
X816200Y363100D01*
X736676Y366500D02*
X812800D01*
X676000Y427176D02*
X736676Y366500D01*
X676000Y427176D02*
Y433200D01*
X680100Y437300D01*
Y463500D01*
X687800Y471200D01*
X764000D01*
X770000Y465200D01*
Y460354D02*
Y465200D01*
X750000Y451900D02*
Y460354D01*
X748500Y450400D02*
X750000Y451900D01*
X748500Y400361D02*
X767861Y381000D01*
X803433D01*
X808833Y375600D01*
X750000Y425900D02*
Y429646D01*
Y425900D02*
X763000Y412900D01*
X760000Y425900D02*
Y429646D01*
X780000Y431600D02*
X785000Y436600D01*
X780000Y429646D02*
Y431600D01*
X790000Y424700D02*
Y429646D01*
Y424700D02*
X792000Y422700D01*
X798895D01*
X823095Y398500D01*
X836200D01*
X845800Y378800D02*
X888000D01*
X896500Y387300D01*
X913600D01*
X914100Y386800D01*
X925300D01*
X927100Y388600D01*
X975968D01*
X985100Y397732D01*
X800000Y426732D02*
Y429646D01*
Y426732D02*
X819832Y406900D01*
X821500D01*
X852000Y369000D02*
Y371200D01*
Y369000D02*
X875200Y345800D01*
X959200D01*
X967300Y353900D01*
X924900Y392100D02*
X975100D01*
X921500Y388700D02*
X924900Y392100D01*
X915500Y388700D02*
X921500D01*
X915100Y389100D02*
X915500Y388700D01*
X895400Y389100D02*
X915100D01*
X888100Y381800D02*
X895400Y389100D01*
X825900Y381800D02*
X888100D01*
X810000Y421500D02*
X818500Y413000D01*
X810000Y421500D02*
Y429646D01*
X967700Y395700D02*
X969300Y397300D01*
X953800Y395700D02*
X967700D01*
X951668Y397832D02*
X953800Y395700D01*
X907668Y397832D02*
X951668D01*
X907200Y398300D02*
X907668Y397832D01*
X841700Y398300D02*
X907200D01*
X820000Y420000D02*
X841700Y398300D01*
X820000Y420000D02*
Y429646D01*
X830000Y420000D02*
Y429646D01*
Y420000D02*
X849900Y400100D01*
X909000D01*
X952700Y399700D01*
X954900Y397500D01*
X962000D01*
X968800Y404300D01*
Y432300D01*
X860000Y416900D02*
Y429646D01*
Y416900D02*
X864000Y412900D01*
X875900D01*
X881100Y407700D01*
X917500D01*
X923400Y401800D01*
X955800D01*
X964800Y465800D02*
X966800D01*
X968500Y464100D01*
X970753D01*
X975000Y459853D01*
Y455900D02*
Y459853D01*
Y455900D02*
X980000Y454900D01*
X982800Y457700D01*
Y474500D01*
X984000Y475700D01*
X992000D01*
X703000Y409200D02*
X735000Y377200D01*
X779500D01*
X785500Y371200D01*
X809673D01*
X823773Y385300D01*
X879200D01*
X888600Y409800D02*
X891000Y412200D01*
X881658Y409800D02*
X888600D01*
X870000Y421458D02*
X881658Y409800D01*
X870000Y421458D02*
Y429646D01*
X890000Y421100D02*
Y429646D01*
Y421100D02*
X896700Y414400D01*
Y410700D02*
Y414400D01*
X887100Y376100D02*
X887600Y375600D01*
X847700Y376100D02*
X887100D01*
X841800Y370200D02*
X847700Y376100D01*
X819600Y370200D02*
X841800D01*
X802000Y362600D02*
X803800Y360800D01*
X712000Y362600D02*
X802000D01*
X706100Y368500D02*
X712000Y362600D01*
X685900Y436000D02*
Y453700D01*
Y436000D02*
X692000Y429900D01*
X731800D01*
X748500Y413200D01*
X752113D01*
X757513Y407800D01*
X762954D01*
X775454Y395300D01*
X878000D01*
X904900Y411000D02*
X910000Y416100D01*
Y429646D01*
X685200Y374000D02*
X699403Y359797D01*
X798803D01*
X816800Y341800D01*
X960665D01*
X961365Y341100D01*
X992218D01*
X1037611Y386493D01*
X1049707D01*
X1052300Y383900D01*
X1058200D01*
X1060150Y385850D01*
Y389350D01*
X1059000Y390500D02*
X1060150Y389350D01*
X996700Y390500D02*
X1059000D01*
X973600Y413600D02*
X996700Y390500D01*
X973600Y413600D02*
Y436000D01*
X972500Y437100D02*
X973600Y436000D01*
X963000Y437100D02*
X972500D01*
X933300Y407400D02*
X963000Y437100D01*
X931000Y407400D02*
X933300D01*
X920000Y418400D02*
X931000Y407400D01*
X920000Y418400D02*
Y429646D01*
X701700Y420800D02*
X711700D01*
X724500Y408000D01*
X749751D01*
X767251Y390500D01*
X885800D01*
X887000Y391700D01*
X918500D01*
X930000Y413000D02*
Y429646D01*
X689300Y459400D02*
X712000D01*
X716200Y455200D01*
Y450500D02*
Y455200D01*
Y450500D02*
X725300Y441400D01*
X769500D01*
X774300Y446200D01*
X827249D01*
X827549Y445900D01*
X859700D01*
X865000Y440600D01*
X870200D01*
X875800Y446200D01*
X904453D01*
X906553Y444100D01*
X931200D01*
X934000Y441300D01*
Y437600D02*
Y441300D01*
Y437600D02*
X940000Y431600D01*
Y429646D02*
Y431600D01*
X670300Y416000D02*
Y419600D01*
X661900Y407600D02*
X670300Y416000D01*
X661900Y394100D02*
Y407600D01*
Y394100D02*
X675400Y380600D01*
X677600Y379000D01*
Y359200D02*
Y379000D01*
X713626Y96100D02*
X720326Y102800D01*
X793800Y169400D02*
X859000D01*
X859900Y168500D01*
X712500Y242000D02*
X715200Y239300D01*
X736800D01*
X738200Y237900D01*
X756200D01*
X767600Y226500D01*
X790000D01*
X725600Y373200D02*
X734200Y364600D01*
X808400D01*
X828100Y344900D01*
X860000D01*
X944000Y368500D02*
X1002400D01*
X986800Y343000D02*
X993800Y350000D01*
X971600Y343000D02*
X986800D01*
X970900Y343700D02*
X971600Y343000D01*
X861200Y343700D02*
X970900D01*
X860000Y344900D02*
X861200Y343700D01*
X1060354Y185000D02*
X1064600D01*
X1067600Y188000D01*
Y240400D01*
X765500D02*
X1067600D01*
X762900Y243000D02*
X765500Y240400D01*
X719800Y243000D02*
X762900D01*
X715900Y246900D02*
X719800Y243000D01*
X693700Y246900D02*
X715900D01*
X687900Y241100D02*
X693700Y246900D01*
X664454Y241100D02*
X687900D01*
X659354Y236000D02*
X664454Y241100D01*
X654100Y236000D02*
X659354D01*
X649000Y241100D02*
X654100Y236000D01*
X627100Y241100D02*
X649000D01*
X620100Y248100D02*
X627100Y241100D01*
X332000Y248100D02*
X620100D01*
X326600Y253500D02*
X332000Y248100D01*
X156700Y253500D02*
X326600D01*
X153200Y250000D02*
X156700Y253500D01*
X130291Y250000D02*
X153200D01*
X118100Y266400D02*
X259200D01*
X111700Y260000D02*
X118100Y266400D01*
X99583Y260000D02*
X111700D01*
X1029646Y265000D02*
X1033300D01*
X1038900Y259400D01*
X1065600D01*
X1071300Y253700D01*
Y181300D02*
Y253700D01*
X1068200Y178200D02*
X1071300Y181300D01*
X1066600Y144000D02*
Y149687D01*
X1062300Y139700D02*
X1066600Y144000D01*
X1027326Y139700D02*
X1062300D01*
X1022849Y144176D02*
X1027326Y139700D01*
X1019424Y144176D02*
X1022849D01*
X1008600Y155000D02*
X1019424Y144176D01*
X955638Y155000D02*
X1008600D01*
X942500Y141862D02*
X955638Y155000D01*
X942500Y136600D02*
Y141862D01*
X506800Y281100D02*
X531900D01*
X985900Y472700D02*
X994000D01*
X997900Y476600D01*
X1006646D01*
X1014500Y468746D01*
Y467000D02*
Y468746D01*
Y467000D02*
X1026900Y454600D01*
X1055207D01*
X930000Y233500D02*
X933000D01*
X936500Y231600D01*
Y230000D02*
Y231600D01*
X1036300Y230000D02*
X1037900Y228400D01*
X1023300Y47500D02*
X1027300Y43500D01*
X1023300Y47500D02*
Y64962D01*
X1030438Y72100D01*
X1072800D01*
X1082500Y81800D01*
Y98900D01*
X1052100Y129300D02*
X1082500Y98900D01*
X1040200Y129300D02*
X1052100D01*
X354700Y492700D02*
X535900D01*
X640400Y388200D01*
X823100Y230500D02*
X827000D01*
X830000Y233500D01*
X249700Y125200D02*
X317600D01*
X347700Y155300D01*
X356100D01*
X1016000Y195000D02*
X1029646D01*
X1013000Y198000D02*
X1016000Y195000D01*
X1004500Y93600D02*
X1012100Y101200D01*
X915000Y93600D02*
X1004500D01*
X979598Y165000D02*
X1029646D01*
X970548Y174050D02*
X979598Y165000D01*
X701750Y174050D02*
X970548D01*
X690800Y185000D02*
X701750Y174050D01*
X787000Y307700D02*
X789700Y305000D01*
X1029646D01*
X925000Y201582D02*
Y210000D01*
X940000Y225000D01*
X1029646D01*
X1017200Y345000D02*
X1029646D01*
X992100Y319900D02*
X1017200Y345000D01*
X894100Y319900D02*
X992100D01*
X886500Y327500D02*
X894100Y319900D01*
X811609Y327500D02*
X886500D01*
X655700Y189300D02*
Y194200D01*
X660100Y198600D01*
X706246D01*
X710546Y194300D01*
X720449D01*
X722649Y196500D01*
X737137D01*
X739137Y198500D01*
X939000D01*
X955500Y215000D01*
X1029646D01*
X1034900Y185000D02*
X1037900Y188000D01*
X1029646Y185000D02*
X1034900D01*
X939300Y248200D02*
X963600D01*
X970400Y255000D01*
X1029646D01*
Y325000D02*
Y327446D01*
X1033700Y331500D01*
X1035100D01*
Y348800D01*
X1034000Y349900D02*
X1035100Y348800D01*
X1017800Y349900D02*
X1034000D01*
X990100Y322200D02*
X1017800Y349900D01*
X948900Y322200D02*
X990100D01*
X944400Y326700D02*
X948900Y322200D01*
X932400Y326700D02*
X944400D01*
X930600Y324900D02*
X932400Y326700D01*
X906100Y324900D02*
X930600D01*
X904100Y326900D02*
X906100Y324900D01*
X868700Y281100D02*
X882400D01*
X864300Y276700D02*
X868700Y281100D01*
X751575Y276700D02*
X864300D01*
X744675Y283600D02*
X751575Y276700D01*
X739100Y283600D02*
X744675D01*
X730000Y292700D02*
X739100Y283600D01*
X956700Y205000D02*
X1029646D01*
X945400Y193700D02*
X956700Y205000D01*
X723567Y193700D02*
X945400D01*
X722300Y192433D02*
X723567Y193700D01*
X685101Y192433D02*
X722300D01*
X684200Y191531D02*
X685101Y192433D01*
X663131Y191531D02*
X684200D01*
X661455Y189855D02*
X663131Y191531D01*
X661455Y183608D02*
Y189855D01*
X656346Y178500D02*
X661455Y183608D01*
X634200Y178500D02*
X656346D01*
X634200Y171500D02*
Y178500D01*
Y171500D02*
X657100D01*
X1029646Y175000D02*
X1042300D01*
X1045900Y171400D01*
X1068400D01*
X1073400Y176400D01*
Y321100D01*
X1063800Y330700D02*
X1073400Y321100D01*
X1041700Y330700D02*
X1063800D01*
X985500Y275000D02*
X1029646D01*
X977000Y283500D02*
X985500Y275000D01*
X1029100Y155000D02*
X1029646D01*
X1038900Y165000D02*
X1060354D01*
X1035200Y161300D02*
X1038900Y165000D01*
X826100Y161300D02*
X1035200D01*
X819900Y167500D02*
X826100Y161300D01*
X795600Y167500D02*
X819900D01*
X784900Y156800D02*
X795600Y167500D01*
X784900Y137400D02*
Y156800D01*
X744900Y97400D02*
X784900Y137400D01*
X727800Y97400D02*
X744900D01*
X698200Y67800D02*
X727800Y97400D01*
X566000Y67800D02*
X698200D01*
X563600Y65400D02*
X566000Y67800D01*
X453600Y65400D02*
X563600D01*
X444500Y74500D02*
X453600Y65400D01*
X239500Y74500D02*
X444500D01*
X190000Y25000D02*
X239500Y74500D01*
X42300Y74800D02*
X51400Y83900D01*
Y216906D01*
X74494Y240000D01*
X99583D01*
X87800Y160000D02*
X99583D01*
X85800Y162000D02*
X87800Y160000D01*
X120200D02*
X130291D01*
X115900Y155700D02*
X120200Y160000D01*
X78836Y155700D02*
X115900D01*
X99583Y190000D02*
X104000D01*
X108900Y194900D01*
X122000D01*
X99583Y340000D02*
X130291D01*
X87600D02*
X99583D01*
X85983Y338383D02*
X87600Y340000D01*
X81600Y338383D02*
X85983D01*
X79083Y340900D02*
X81600Y338383D01*
X70600Y340900D02*
X79083D01*
X99583Y350000D02*
X130291D01*
X50500Y355900D02*
X91700D01*
X97600Y350000D01*
X99583D01*
X69900Y310000D02*
X99583D01*
X64900Y315000D02*
X69900Y310000D01*
X52100Y315000D02*
X64900D01*
X47900Y310800D02*
X52100Y315000D01*
X47900Y272100D02*
Y310800D01*
X43800Y268000D02*
X47900Y272100D01*
X43800Y228700D02*
Y268000D01*
Y228700D02*
X46900Y225600D01*
Y139400D02*
Y225600D01*
X42300Y134800D02*
X46900Y139400D01*
X119800Y320000D02*
X130291D01*
X116200Y316400D02*
X119800Y320000D01*
X77000Y316400D02*
X116200D01*
X68400Y325000D02*
X77000Y316400D01*
X57800Y325000D02*
X68400D01*
X48200Y315400D02*
X57800Y325000D01*
X40000Y315400D02*
X48200D01*
X37700Y313100D02*
X40000Y315400D01*
X37700Y149400D02*
Y313100D01*
Y149400D02*
X42300Y144800D01*
X99583Y330000D02*
X130291D01*
X80500Y320000D02*
X99583D01*
X308200Y350000D02*
X320000D01*
X304700Y353500D02*
X308200Y350000D01*
X188200Y353500D02*
X304700D01*
X151300Y390400D02*
X188200Y353500D01*
X62300Y390400D02*
X151300D01*
X181500Y350000D02*
X289291D01*
X146500Y385000D02*
X181500Y350000D01*
X59900Y385000D02*
X146500D01*
X57700Y387200D02*
X59900Y385000D01*
X57700Y387200D02*
Y395800D01*
X62300Y400400D01*
X320000Y260000D02*
X328600D01*
X329100Y260500D01*
X37800Y404900D02*
X42300Y400400D01*
X37800Y404900D02*
Y433200D01*
X40000Y435400D01*
X112400D01*
X184400Y363400D01*
X301000Y246300D02*
X304700Y250000D01*
X320000D01*
X304700Y270000D02*
X320000D01*
X301100Y266400D02*
X304700Y270000D01*
X265600Y266400D02*
X301100D01*
X262000Y270000D02*
X265600Y266400D01*
X151500Y270000D02*
X262000D01*
X289291Y260000D02*
X311000D01*
X314600Y256400D01*
X359800D01*
X366900Y263500D01*
Y269900D01*
X362800Y274000D02*
X366900Y269900D01*
X266300Y274000D02*
X362800D01*
X264400Y275900D02*
X266300Y274000D01*
X57700Y275900D02*
X264400D01*
X53700Y279900D02*
X57700Y275900D01*
X142700Y230000D02*
X289291D01*
X136000Y223300D02*
X142700Y230000D01*
X136000Y217300D02*
Y223300D01*
X134000Y215300D02*
X136000Y217300D01*
X62300Y215300D02*
X134000D01*
X301900Y230000D02*
X320000D01*
X295400Y223500D02*
X301900Y230000D01*
X143900Y223500D02*
X295400D01*
X138000Y217600D02*
X143900Y223500D01*
X138000Y215300D02*
Y217600D01*
X136200Y213500D02*
X138000Y215300D01*
X70500Y213500D02*
X136200D01*
X62300Y205300D02*
X70500Y213500D01*
X62300Y165300D02*
X77000Y180000D01*
X80600D01*
X94100Y166500D01*
X169400D01*
X177900Y175000D01*
X301500D01*
X306500Y180000D01*
Y204500D01*
X312000Y210000D01*
X320000D01*
X57700Y159900D02*
X62300Y155300D01*
X57700Y159900D02*
Y167900D01*
X59900Y170100D01*
X64000D01*
X66900Y173000D01*
Y177900D01*
X64900Y179900D02*
X66900Y177900D01*
X60500Y179900D02*
X64900D01*
X57800Y182600D02*
X60500Y179900D01*
X57800Y182600D02*
Y188200D01*
X59400Y189800D01*
X90831D01*
X94100Y186531D01*
X135700D01*
X136769Y187600D01*
X152000D01*
X164400Y200000D01*
X289291D01*
X62300Y145300D02*
X84000Y167000D01*
X90500D01*
X94000Y163500D01*
X184062D01*
X185662Y165100D01*
X304000D01*
X310100Y171200D01*
Y196000D01*
X314100Y200000D01*
X320000D01*
X316000Y190000D02*
X320000D01*
X311900Y185900D02*
X316000Y190000D01*
X311900Y167069D02*
Y185900D01*
X300131Y155300D02*
X311900Y167069D01*
X204352Y155300D02*
X300131D01*
X196352Y163300D02*
X204352Y155300D01*
X189262Y163300D02*
X196352D01*
X162362Y136400D02*
X189262Y163300D01*
X73400Y136400D02*
X162362D01*
X59000Y85300D02*
X62300D01*
X57700Y86600D02*
X59000Y85300D01*
X57700Y86600D02*
Y97500D01*
X60000Y99800D01*
X138700D01*
X144000Y105100D01*
X166300D01*
X204800Y143600D01*
X298884D01*
X304198Y148915D01*
X311646D01*
X314563Y151831D01*
Y163500D01*
X316400Y165337D01*
Y170000D02*
X320000D01*
X274900Y160000D02*
X289291D01*
X62300Y75300D02*
X190200D01*
X308700Y220000D02*
X320000D01*
X304700Y216000D02*
X308700Y220000D01*
X304700Y190000D02*
Y216000D01*
X300000Y185300D02*
X304700Y190000D01*
X190641Y185300D02*
X300000D01*
X188038Y187903D02*
X190641Y185300D01*
X184641Y187903D02*
X188038D01*
X182038Y185300D02*
X184641Y187903D01*
X138097Y185300D02*
X182038D01*
X137497Y184700D02*
X138097Y185300D01*
X93300Y184700D02*
X137497D01*
X92700Y185300D02*
X93300Y184700D01*
X62300Y185300D02*
X92700D01*
X66900Y270000D02*
X99583D01*
X63800Y266900D02*
X66900Y270000D01*
X56200Y266900D02*
X63800D01*
X52300Y270800D02*
X56200Y266900D01*
X59000Y350400D02*
X62300D01*
X57700Y349100D02*
X59000Y350400D01*
X57700Y337800D02*
Y349100D01*
Y337800D02*
X59800Y335700D01*
X73700D01*
X84800Y324600D01*
X282800D01*
X287400Y320000D01*
X289291D01*
X304700D02*
X320000D01*
X298300Y326400D02*
X304700Y320000D01*
X86600Y326400D02*
X298300D01*
X75300Y337700D02*
X86600Y326400D01*
X65000Y337700D02*
X75300D01*
X62300Y340400D02*
X65000Y337700D01*
X162700Y330000D02*
X289291D01*
X136300Y356400D02*
X162700Y330000D01*
X94200Y356400D02*
X136300D01*
X92500Y358100D02*
X94200Y356400D01*
X64600Y358100D02*
X92500D01*
X62300Y360400D02*
X64600Y358100D01*
X62300Y290400D02*
X66200Y286500D01*
X139469D01*
X142969Y290000D01*
X289291D01*
X62300Y330400D02*
X72100D01*
Y306800D02*
X72500Y306400D01*
X117731D01*
X124800Y313469D01*
X229669D01*
X237200Y321000D01*
X280800D01*
X281800Y320000D01*
Y312000D02*
Y320000D01*
Y312000D02*
X283800Y310000D01*
X289291D01*
X271600Y280000D02*
X289291D01*
X267000Y284600D02*
X271600Y280000D01*
X151900Y284600D02*
X267000D01*
X110200Y300000D02*
X130291D01*
X308400Y140000D02*
X320000D01*
X306400Y138000D02*
X308400Y140000D01*
X130291Y310000D02*
X228746D01*
X237946Y319200D01*
X279000D01*
X280000Y318200D01*
Y308800D02*
Y318200D01*
Y308800D02*
X282700Y306100D01*
X307000D01*
X309800Y303300D01*
X1032000Y127900D02*
X1035414D01*
X1068614Y94700D01*
X1079000D01*
X1080700Y93000D01*
Y86036D02*
Y93000D01*
X1072364Y77700D02*
X1080700Y86036D01*
X1031703Y77700D02*
X1072364D01*
X1011703Y57700D02*
X1031703Y77700D01*
X1002500Y57700D02*
X1011703D01*
X1001100Y59100D02*
X1002500Y57700D01*
X1001100Y59100D02*
Y63800D01*
X1007400Y70100D01*
X972900Y318100D02*
X976000Y315000D01*
X862916Y318100D02*
X972900D01*
X856516Y324500D02*
X862916Y318100D01*
X779400Y163100D02*
X781006Y161494D01*
X737900Y163100D02*
X779400D01*
X723700Y148900D02*
X737900Y163100D01*
X935950Y315800D02*
X936750Y315000D01*
X772200Y315800D02*
X935950D01*
X870250Y164900D02*
X872600D01*
X862950Y172200D02*
X870250Y164900D01*
X788254Y172200D02*
X862950D01*
X786550Y170496D02*
X788254Y172200D01*
X1036900Y325300D02*
X1042300Y319900D01*
X1036900Y325300D02*
Y334400D01*
X1051100Y348600D01*
Y359800D01*
X1043700Y280900D02*
X1043800Y281000D01*
X1047200D01*
X1049600Y278600D01*
X1070400D01*
X1055000Y341400D02*
X1070400D01*
X1054800Y341600D02*
X1055000Y341400D01*
X1054800Y341600D02*
Y362000D01*
X1042400Y374400D02*
X1054800Y362000D01*
X654600Y150700D02*
X662900Y159000D01*
X654600Y113900D02*
Y150700D01*
X646400Y425900D02*
X652500Y432000D01*
X630800Y425900D02*
X646400D01*
X872000Y56300D02*
X878000D01*
X868900Y59400D02*
X872000Y56300D01*
X845819Y59400D02*
X868900D01*
X842236Y55817D02*
X845819Y59400D01*
X686000Y55817D02*
X842236D01*
X876400Y63100D02*
X877000Y62500D01*
X842236Y63100D02*
X876400D01*
X838636Y59500D02*
X842236Y63100D01*
X744749Y59500D02*
X838636D01*
X739649Y64600D02*
X744749Y59500D01*
X666000Y64600D02*
X739649D01*
X707000Y8000D02*
X708600Y6400D01*
X840400D01*
X841400Y7400D01*
X665600Y44100D02*
Y51800D01*
Y44100D02*
X668000Y41700D01*
X740400D01*
X750900Y52200D01*
X853700D01*
X857900Y56400D01*
X846319Y56300D02*
X850500D01*
X844036Y54017D02*
X846319Y56300D01*
X749759Y54017D02*
X844036D01*
X742342Y46600D02*
X749759Y54017D01*
X669452Y46600D02*
X742342D01*
X829000Y30900D02*
X831100Y28800D01*
X841177D01*
X843068Y26908D01*
X943369D01*
X948160Y31700D01*
X993500D01*
X994300Y32500D01*
X823000Y31700D02*
X825400Y34100D01*
X830408D01*
X832108Y32400D01*
X840500D01*
X844100Y28800D01*
X941660D01*
X946813Y33952D01*
X953447D01*
X979642Y60148D01*
X816500Y23800D02*
X817000Y23300D01*
X957676D01*
X963276Y28900D01*
X995200D01*
X998300Y32000D01*
Y50200D01*
X785000Y30600D02*
X797600Y18000D01*
X809100D01*
X810900Y16200D01*
X971025D01*
X972125Y15100D01*
X989200D01*
X990500Y16400D01*
X796000Y27100D02*
X803200Y19900D01*
X811800D01*
X812700Y19000D01*
X974725D01*
X908400Y373100D02*
X912400D01*
X915400Y376100D01*
X915050Y349950D02*
X920850D01*
X897600Y367400D02*
X915050Y349950D01*
X897600Y367400D02*
Y379976D01*
X855000Y479700D02*
X857400Y482100D01*
X1001100D01*
X894101Y466301D02*
X895500Y467700D01*
X887301Y466301D02*
X894101D01*
X885000Y464000D02*
X887301Y466301D01*
X885000Y456000D02*
Y464000D01*
X880700Y451700D02*
X885000Y456000D01*
X871051Y451700D02*
X880700D01*
X868869Y449517D02*
X871051Y451700D01*
X830300Y449517D02*
X868869D01*
X828717Y451100D02*
X830300Y449517D01*
X753700Y451100D02*
X828717D01*
X749900Y447300D02*
X753700Y451100D01*
X747100Y447300D02*
X749900D01*
X736300Y458100D02*
X747100Y447300D01*
X736300Y458100D02*
Y465100D01*
X692300Y435500D02*
X692829Y434971D01*
X700003D01*
X700233Y435200D01*
X775626D01*
X780926Y440500D01*
X787500D01*
X792900Y435100D01*
X891200D01*
X898700Y442600D01*
X901490D01*
X903690Y440400D01*
X917697D01*
X921797Y436300D01*
X928000D01*
X931000Y439300D01*
X941700Y439800D02*
Y441800D01*
X935800Y447700D02*
X941700Y441800D01*
X909850Y447700D02*
X935800D01*
X907750Y449800D02*
X909850Y447700D01*
X872751Y449800D02*
X907750D01*
X870669Y447717D02*
X872751Y449800D01*
X829331Y447717D02*
X870669D01*
X828151Y448898D02*
X829331Y447717D01*
X754617Y448898D02*
X828151D01*
X751019Y445300D02*
X754617Y448898D01*
X742100Y445300D02*
X751019D01*
X721600Y465800D02*
X742100Y445300D01*
X404100Y340800D02*
X418609D01*
X460000Y299409D01*
X448691Y149409D02*
X460000D01*
X439500Y158600D02*
X448691Y149409D01*
X1059300Y83600D02*
X1064200Y88500D01*
X1030995Y83600D02*
X1059300D01*
X1020495Y73100D02*
X1030995Y83600D01*
X1004000Y73100D02*
X1020495D01*
X999300Y68400D02*
X1004000Y73100D01*
X999300Y54500D02*
Y68400D01*
Y54500D02*
X1002900Y50900D01*
Y31800D02*
Y50900D01*
X996000Y24900D02*
X1002900Y31800D01*
X964300Y24900D02*
X996000D01*
X624800Y240000D02*
X626700Y238100D01*
X1064200Y88500D02*
Y96248D01*
X1040710Y119737D02*
X1064200Y96248D01*
X999363Y119737D02*
X1040710D01*
X974200Y144900D02*
X999363Y119737D01*
X770409Y270000D02*
X786500D01*
X766409Y266000D02*
X770409Y270000D01*
X729500Y266000D02*
X766409D01*
X706000Y289500D02*
X729500Y266000D01*
X706000Y289500D02*
Y300300D01*
X430000Y370000D02*
X440000D01*
X420000D02*
X430000D01*
X350000D02*
X360000D01*
X370000D01*
X380000D01*
X410000D02*
X420000D01*
X400000D02*
X410000D01*
X380000D02*
X390000D01*
X400000D01*
X926100Y245000D02*
X1029646D01*
X907000Y249800D02*
Y256900D01*
X737816Y263816D02*
X768522D01*
X736600Y262600D02*
X737816Y263816D01*
X1031400Y354300D02*
X1041900D01*
X910000Y39646D02*
X920000D01*
X930000D01*
X940000D01*
X910000D02*
Y70354D01*
X920000D01*
X930000D01*
X940000D01*
X500000Y70000D02*
X510000D01*
X490000D02*
X500000D01*
X480000D02*
X490000D01*
X470000D02*
X480000D01*
X460000D02*
X470000D01*
X940000Y70354D02*
Y70700D01*
X980000D02*
X986100Y76800D01*
X1014900D01*
X1019700Y81600D01*
X540000Y70000D02*
X550000D01*
X510000D02*
X520000D01*
X530000D02*
X540000D01*
X520000D02*
X530000D01*
X540000Y370000D02*
X550000D01*
X530000D02*
X540000D01*
X520000D02*
X530000D01*
X510000D02*
X520000D01*
X500000D02*
X510000D01*
X490000D02*
X500000D01*
X480000D02*
X490000D01*
X470000D02*
X480000D01*
X460000D02*
X470000D01*
X130291Y150000D02*
X146500D01*
X130291Y140000D02*
Y150000D01*
X99583D02*
X130291D01*
X99583Y140000D02*
Y150000D01*
Y360000D02*
X130291D01*
X83500D02*
X99583D01*
X78200Y365300D02*
X83500Y360000D01*
X47200Y365300D02*
X78200D01*
X42300Y360400D02*
X47200Y365300D01*
X297700Y360000D02*
X320000D01*
X470000Y296000D02*
Y370000D01*
X464800Y290800D02*
X470000Y296000D01*
X371700Y290800D02*
X464800D01*
X1058000Y225000D02*
X1060354D01*
X1043000Y210000D02*
X1058000Y225000D01*
X956400Y210000D02*
X1043000D01*
X944000Y197600D02*
X956400Y210000D01*
X947500Y221500D02*
X1038000D01*
X1051500Y235000D01*
X1060354D01*
X948550Y190850D02*
X950500Y192800D01*
X942750Y190850D02*
X948550D01*
X938000Y186100D02*
X942750Y190850D01*
X938000Y182500D02*
Y186100D01*
Y182500D02*
X943400Y177100D01*
X1008500D01*
X1011669Y180269D01*
X1065669D01*
X1069400Y184000D01*
Y252000D01*
X1066400Y255000D02*
X1069400Y252000D01*
X1060354Y255000D02*
X1066400D01*
X1039600Y275000D02*
X1060354D01*
X1036000Y271400D02*
X1039600Y275000D01*
X977900Y271400D02*
X1036000D01*
X974800Y274500D02*
X977900Y271400D01*
X968000Y274500D02*
X974800D01*
X963400Y269900D02*
X968000Y274500D01*
X963400Y268600D02*
Y269900D01*
Y268600D02*
X968600Y263400D01*
Y257000D02*
Y263400D01*
X967200Y255600D02*
X968600Y257000D01*
X952500Y255600D02*
X967200D01*
X950400Y257700D02*
X952500Y255600D01*
X1060354Y315000D02*
X1064800D01*
X1065900Y313900D01*
Y292100D02*
Y313900D01*
X1062269Y288469D02*
X1065900Y292100D01*
X988876Y288469D02*
X1062269D01*
X985445Y291900D02*
X988876Y288469D01*
X960255Y291900D02*
X985445D01*
X950500Y282145D02*
X960255Y291900D01*
X950500Y270600D02*
Y282145D01*
X935300Y331500D02*
X935400D01*
X937000Y333100D01*
X979800D01*
X980900Y332000D01*
Y325200D02*
Y332000D01*
Y325200D02*
X982100Y324000D01*
X985900D01*
X987900Y326000D01*
Y331700D01*
X1040893Y384693D01*
X1043907D01*
X1060400Y368200D01*
X1060354Y345000D02*
X1060400D01*
X1044800Y439900D02*
X1076100D01*
X1095400Y420600D01*
Y102743D02*
Y420600D01*
Y102743D02*
X1097700Y100443D01*
Y53400D02*
Y100443D01*
X1046900Y2600D02*
X1097700Y53400D01*
X680597Y2600D02*
X1046900D01*
X678100Y5097D02*
X680597Y2600D01*
X678100Y5097D02*
Y28500D01*
X685100Y35500D01*
X750000D02*
Y39646D01*
X760000Y35600D02*
Y39646D01*
X755000Y30600D02*
X760000Y35600D01*
X747800Y30600D02*
X755000D01*
X1039100Y415500D02*
X1040400Y414200D01*
X1031000Y415500D02*
X1039100D01*
X1029500Y414000D02*
X1031000Y415500D01*
X1029500Y410100D02*
Y414000D01*
Y410100D02*
X1031900Y407700D01*
X1049200D01*
X1075300Y381600D01*
Y161600D02*
Y381600D01*
X1072600Y158900D02*
X1075300Y161600D01*
X938200Y158900D02*
X1072600D01*
X891300Y112000D02*
X938200Y158900D01*
X770000Y26400D02*
Y39646D01*
X934200Y301600D02*
X957600D01*
X921000Y288400D02*
X934200Y301600D01*
X921000Y257000D02*
Y288400D01*
X843692Y34208D02*
X846000Y31900D01*
X836992Y34208D02*
X843692D01*
X835200Y36000D02*
X836992Y34208D01*
X835200Y36000D02*
Y44000D01*
X832200Y47000D02*
X835200Y44000D01*
X802000Y47000D02*
X832200D01*
X800000Y45000D02*
X802000Y47000D01*
X800000Y39646D02*
Y45000D01*
X1034100Y134500D02*
X1055700D01*
X1084400Y105800D01*
Y72500D02*
Y105800D01*
X1078400Y66500D02*
X1084400Y72500D01*
X1029112Y66500D02*
X1078400D01*
X1025700Y63088D02*
X1029112Y66500D01*
X1025700Y54500D02*
Y63088D01*
Y54500D02*
X1030300Y49900D01*
Y27600D02*
Y49900D01*
X1024900Y22200D02*
X1030300Y27600D01*
X973300Y22200D02*
X1024900D01*
X971900Y20800D02*
X973300Y22200D01*
X813500Y20800D02*
X971900D01*
X812600Y21700D02*
X813500Y20800D01*
X806600Y21700D02*
X812600D01*
X803200Y25100D02*
X806600Y21700D01*
X803200Y25100D02*
Y28900D01*
X804300Y30000D01*
X809700D01*
X813600Y33900D01*
Y42700D01*
X816000Y45100D01*
X829000D01*
X830000Y44100D01*
Y39646D02*
Y44100D01*
X880000Y70354D02*
Y81388D01*
X929312Y130700D01*
X933300D01*
X914000Y261000D02*
Y287400D01*
X898900Y302500D02*
X914000Y287400D01*
X780900Y302500D02*
X898900D01*
X765100Y318300D02*
X780900Y302500D01*
X754539Y318300D02*
X765100D01*
X751500Y321339D02*
X754539Y318300D01*
X754600Y91600D02*
X759700Y86500D01*
X816000D01*
X820000Y82500D01*
Y70354D02*
Y82500D01*
X810000Y65917D02*
Y70354D01*
Y65917D02*
X811017Y64900D01*
X833483D01*
X833600Y65017D01*
Y86000D01*
X837100Y89500D01*
X780150Y210800D02*
X837100D01*
X754850Y236100D02*
X780150Y210800D01*
X735200Y236100D02*
X754850D01*
X666400Y155000D02*
X670354D01*
X664000Y152600D02*
X666400Y155000D01*
X664000Y112543D02*
Y152600D01*
X668400Y175000D02*
X670354D01*
X650000Y153700D02*
X668400Y172100D01*
X650000Y95839D02*
Y153700D01*
Y95839D02*
X656739Y89100D01*
X646900Y114300D02*
X647000Y114200D01*
X646900Y114300D02*
Y153492D01*
X660740Y167331D01*
Y173740D01*
X665955Y178955D01*
Y184495D01*
X666459Y185000D01*
X670354D01*
X625700Y176000D02*
X631100Y181400D01*
X655254D01*
X659346Y185492D01*
Y192346D01*
X662000Y195000D01*
X670354D01*
X616600Y125179D02*
X632379Y109400D01*
X616600Y125179D02*
Y203600D01*
X624000Y211000D01*
X650750D01*
X652850Y208900D01*
X699951D01*
X712751Y196100D01*
X716949D01*
X718700Y197851D01*
Y200809D01*
X704509Y215000D02*
X718700Y200809D01*
X670354Y215000D02*
X704509D01*
X652169Y225000D02*
X670354D01*
X646869Y219700D02*
X652169Y225000D01*
X627000Y219700D02*
X646869D01*
X614800Y207500D02*
X627000Y219700D01*
X614800Y119700D02*
Y207500D01*
Y119700D02*
X629000Y105500D01*
X636600D01*
X627700Y229000D02*
X644900D01*
X648300Y232400D01*
X663795D01*
X666395Y235000D01*
X670354D01*
X643500Y320400D02*
X656900Y333800D01*
X632500Y320400D02*
X643500D01*
X625100Y313000D02*
X632500Y320400D01*
X625100Y261600D02*
Y313000D01*
Y261600D02*
X626000Y260700D01*
X636253D01*
X638484Y258469D01*
X675800D01*
Y246000D02*
Y258469D01*
X674800Y245000D02*
X675800Y246000D01*
X670354Y245000D02*
X674800D01*
X670354Y265000D02*
X698000D01*
X709094Y290894D02*
X710000Y289988D01*
X709094Y290894D02*
Y303986D01*
X703349Y309731D02*
X709094Y303986D01*
X666000Y309731D02*
X703349D01*
X664800Y310931D02*
X666000Y309731D01*
X664800Y310931D02*
Y376200D01*
X657600Y383400D02*
X664800Y376200D01*
X633975Y412380D02*
X650100D01*
X627296Y405700D02*
X633975Y412380D01*
X631800Y289000D02*
X649500D01*
X663500Y275000D01*
X670354D01*
X666000Y295000D02*
X670354D01*
X651400Y309600D02*
X666000Y295000D01*
X636600Y309600D02*
X651400D01*
X634100Y312100D02*
X636600Y309600D01*
X634100Y312100D02*
Y318400D01*
X634200Y318500D01*
X654500D01*
X659900Y323900D01*
Y350600D01*
X647100Y363400D02*
X659900Y350600D01*
X647100Y363400D02*
Y387898D01*
X649602Y390400D01*
X743814Y269091D02*
X764409D01*
X711099Y301806D02*
X743814Y269091D01*
X711099Y301806D02*
Y305786D01*
X701886Y315000D02*
X711099Y305786D01*
X670354Y315000D02*
X701886D01*
X728748Y340600D02*
X736948Y332400D01*
X683300Y340600D02*
X728748D01*
X677700Y335000D02*
X683300Y340600D01*
X670354Y335000D02*
X677700D01*
X634300Y345000D02*
X639646D01*
X626200Y336900D02*
X634300Y345000D01*
X800200Y119700D02*
Y151900D01*
X802800Y154500D01*
X817600D01*
X823400Y148700D01*
X633900Y335000D02*
X639646D01*
X623300Y324400D02*
X633900Y335000D01*
X623300Y259800D02*
Y324400D01*
Y259800D02*
X632600Y250500D01*
X656300D01*
X686400Y180400D02*
Y187600D01*
X686800Y188000D01*
X692200D01*
X694400Y185800D01*
X818839D01*
X639646Y275000D02*
X658400D01*
X663400Y270000D01*
X688900D01*
X690600Y268300D01*
X703633D01*
X725333Y246600D01*
X813400D01*
X815900Y244100D01*
X833700D01*
X836400Y246800D01*
X892500D01*
X630683Y265000D02*
X639646D01*
X627000Y268683D02*
X630683Y265000D01*
X627000Y268683D02*
Y294900D01*
X632000Y299900D01*
X652500D01*
X662800Y289600D01*
X688684D01*
X692442Y285842D01*
X697158D01*
X702600Y280400D01*
Y277076D02*
Y280400D01*
Y277076D02*
X703876Y275800D01*
X707200D01*
X730500Y252500D01*
X817900D01*
X819800Y254400D01*
X868000D01*
X869700Y256100D01*
X896900D01*
X902100Y250900D01*
X632400Y255000D02*
X639646D01*
X629700Y257700D02*
X632400Y255000D01*
X628800Y273400D02*
X631200Y271000D01*
X628800Y273400D02*
Y291000D01*
X629800Y292000D01*
X633200D01*
X633800Y291400D01*
X651400D01*
X663200Y279600D01*
X684100D01*
X693500Y270200D01*
X705400D01*
X727100Y248500D01*
X814500D01*
X817100Y245900D01*
X823100D01*
X829700Y252500D01*
X883000D01*
X778800Y207400D02*
X906516D01*
X757600Y228600D02*
X778800Y207400D01*
X652050Y228600D02*
X757600D01*
X644981Y221531D02*
X652050Y228600D01*
X629169Y221531D02*
X644981D01*
X624600Y226100D02*
X629169Y221531D01*
X624600Y226100D02*
Y230900D01*
X625700Y232000D01*
X631800D01*
X634800Y235000D01*
X639646D01*
Y215000D02*
X657900D01*
X661500Y211400D01*
X703451D01*
X715700Y199151D01*
X628200Y185000D02*
X639646D01*
X625500Y182300D02*
X628200Y185000D01*
X625300Y57600D02*
X670100D01*
X676300Y51400D01*
X708400D01*
X720300Y143600D02*
X759000D01*
X677700Y101000D02*
X720300Y143600D01*
X638900Y148900D02*
X641500Y146300D01*
X638900Y155000D02*
X639646D01*
X900000Y456000D02*
Y460354D01*
Y456000D02*
X902300Y453700D01*
X914631D01*
X917031Y451300D01*
X943364D01*
X952164Y442500D01*
X978000D01*
X979000Y441500D01*
Y424200D02*
Y441500D01*
Y424200D02*
X983500Y419700D01*
X1046711D01*
X1049211Y417200D01*
X1065954D01*
X1084200Y398954D01*
Y396800D02*
Y398954D01*
X1004200Y60800D02*
X1011300D01*
X1032200Y81700D01*
X1069100D01*
X1077400Y90000D01*
X1058200Y415100D02*
X1068100Y405200D01*
X1047511Y415100D02*
X1058200D01*
X1044711Y417900D02*
X1047511Y415100D01*
X979500Y417900D02*
X1044711D01*
X977200Y420200D02*
X979500Y417900D01*
X977200Y420200D02*
Y439500D01*
X976000Y440700D02*
X977200Y439500D01*
X945346Y440700D02*
X976000D01*
X936546Y449500D02*
X945346Y440700D01*
X912000Y449500D02*
X936546D01*
X909700Y451800D02*
X912000Y449500D01*
X894200Y451800D02*
X909700D01*
X890000Y456000D02*
X894200Y451800D01*
X890000Y456000D02*
Y460354D01*
X880000Y456900D02*
Y460354D01*
X876705Y453605D02*
X880000Y456900D01*
X869356Y453605D02*
X876705D01*
X867069Y451317D02*
X869356Y453605D01*
X832300Y451317D02*
X867069D01*
X830617Y453000D02*
X832300Y451317D01*
X798000Y453000D02*
X830617D01*
X795000Y456000D02*
X798000Y453000D01*
X795000Y456000D02*
Y465300D01*
X792000Y468300D02*
X795000Y465300D01*
X792000Y487000D02*
X996426D01*
X997370Y487944D01*
X1072056D01*
X1073000Y487000D01*
X791000Y492000D02*
X1045100D01*
X788900Y489900D02*
X791000Y492000D01*
X788900Y482400D02*
Y489900D01*
Y482400D02*
X790449Y480851D01*
X799049D01*
X806500Y473400D01*
Y454900D02*
Y473400D01*
Y454900D02*
X831757D01*
X833540Y453117D01*
X865269D01*
X868320Y456169D01*
X869569D01*
X870000Y456600D01*
Y460354D01*
X899300Y323100D02*
X938398D01*
X853400Y464700D02*
X857000Y468300D01*
X850000Y460354D02*
Y464700D01*
X830000Y458400D02*
Y460354D01*
X832900Y458400D02*
X836383Y454917D01*
X863469D01*
Y462269D01*
X867900Y466700D01*
X883800D01*
X886500Y469400D01*
X890900D01*
X892200Y470700D01*
X921200D01*
X924400Y467500D01*
X950000Y383100D02*
X956200D01*
X820000Y460354D02*
Y462300D01*
X812000Y467269D02*
X816969Y462300D01*
X812000Y467269D02*
Y474100D01*
X813700Y475800D01*
X849300D01*
X850200Y474900D01*
X878116D01*
X881716Y478500D01*
X968936D01*
X976000Y471436D01*
X810000Y460354D02*
Y475900D01*
X812000Y477900D01*
X850800D01*
X852000Y476700D01*
X877370D01*
X880970Y480300D01*
X976000D01*
X980000Y476300D01*
Y461300D02*
Y476300D01*
X978600Y459900D02*
X980000Y461300D01*
X953261Y348861D02*
X962900Y358500D01*
X928161Y348861D02*
X953261D01*
X921902Y333400D02*
X925500Y329802D01*
X839000Y333400D02*
X921902D01*
X838200Y334200D02*
X839000Y333400D01*
X755892Y334200D02*
X838200D01*
X744992Y345100D02*
X755892Y334200D01*
X702300Y345100D02*
X744992D01*
X679600Y367800D02*
X702300Y345100D01*
X679600Y367800D02*
Y415400D01*
X672300Y422700D02*
X679600Y415400D01*
X672300Y422700D02*
Y436700D01*
X676300Y440700D01*
Y474229D01*
X678671Y476600D01*
X792943D01*
X800000Y469543D01*
Y460354D02*
Y469543D01*
X915400Y336800D02*
X915500Y336900D01*
X807200Y336800D02*
X915400D01*
X789708Y354292D02*
X807200Y336800D01*
X697608Y354292D02*
X789708D01*
X681500Y370400D02*
X697608Y354292D01*
X681500Y370400D02*
Y417100D01*
X674200Y424400D02*
X681500Y417100D01*
X674200Y424400D02*
Y435000D01*
X678300Y439100D01*
Y470600D01*
X682500Y474800D01*
X779600D01*
X790000Y464400D01*
Y460354D02*
Y464400D01*
X776000Y460354D02*
X780000D01*
X774000Y462354D02*
X776000Y460354D01*
X774000Y462354D02*
Y468200D01*
X772500Y374200D02*
X774500D01*
X780000Y368700D01*
X815094D01*
X816602Y367192D01*
X832108D01*
X847500Y351800D01*
X760000Y460354D02*
Y464400D01*
X755400Y469000D02*
X760000Y464400D01*
X719600Y469000D02*
X755400D01*
X718500Y467900D02*
X719600Y469000D01*
X718500Y452172D02*
Y467900D01*
Y452172D02*
X727172Y443500D01*
X758800D01*
X760000Y444700D01*
X792200Y419800D02*
X793100Y418900D01*
X774200Y419800D02*
X792200D01*
X770000Y424000D02*
X774200Y419800D01*
X770000Y424000D02*
Y429646D01*
X840000Y415700D02*
Y429646D01*
Y415700D02*
X853800Y401900D01*
X911200D01*
X914000Y404700D01*
X850000Y409700D02*
Y429646D01*
Y409700D02*
X854800Y404900D01*
X878000D01*
X880000Y417500D02*
Y429646D01*
Y417500D02*
X884600Y412900D01*
X765309Y388700D02*
X890000D01*
X748009Y406000D02*
X765309Y388700D01*
X722200Y406000D02*
X748009D01*
X712789Y415411D02*
X722200Y406000D01*
X693789Y415411D02*
X712789D01*
X679000Y430200D02*
X693789Y415411D01*
X671500Y451900D02*
X673800Y454200D01*
Y476500D01*
X676000Y478700D01*
X796521D01*
X801400Y473821D01*
X900000Y429646D02*
Y438831D01*
X1020334Y441200D02*
X1023000D01*
X1026900Y437300D01*
X988900Y383600D02*
X997200Y375300D01*
X1013600D01*
X749100Y125700D02*
X762000Y138600D01*
X745600Y125700D02*
X749100D01*
X790000Y226500D02*
X810000D01*
X830000D01*
X850000D01*
X870000D01*
X910000D02*
X930000D01*
X863800Y220300D02*
X870000Y226500D01*
X890000D01*
X910000D01*
X350000Y70000D02*
X360000D01*
X638465Y77800D02*
X667400D01*
X616265Y100000D02*
X638465Y77800D01*
X430091Y100000D02*
X616265D01*
X430000Y70000D02*
X440000D01*
X420000D02*
X430000D01*
X410000D02*
X420000D01*
X400000D02*
X410000D01*
X360000D02*
X370000D01*
X390000D02*
X400000D01*
X370000D02*
X380000D01*
X390000D01*
X130291Y240000D02*
X256800D01*
X262400Y234400D01*
X353542D01*
X356486Y231455D01*
X362700D01*
X365645Y234400D01*
X630600D01*
X635500Y239300D01*
X647200D01*
X652300Y234200D01*
X660100D01*
X665200Y239300D01*
X703800D01*
X709500Y245000D01*
X714576D01*
X718376Y241200D01*
X738500D01*
X740000Y239700D01*
X757885D01*
X758985Y238600D01*
X1065692D01*
X1065792Y238500D01*
Y196000D02*
Y238500D01*
X1064792Y195000D02*
X1065792Y196000D01*
X1060354Y195000D02*
X1064792D01*
X58100Y220000D02*
X99583D01*
X54200Y216100D02*
X58100Y220000D01*
X54200Y84400D02*
Y216100D01*
Y84400D02*
X57900Y80700D01*
X72400D01*
X76400Y84700D01*
X284100D01*
X343400Y144000D01*
X356600D01*
X360600Y148000D01*
Y159900D01*
X354300Y166200D02*
X360600Y159900D01*
X636600Y83250D02*
Y91600D01*
Y83250D02*
X640150Y79700D01*
X664450D01*
X665650Y80900D01*
X672200D01*
X672400Y80700D01*
X354700Y492700D02*
X356700Y494700D01*
X632993D01*
X668893Y458800D01*
X976000Y328500D02*
X976800Y329300D01*
X928799Y328500D02*
X976000D01*
X926999Y326700D02*
X928799Y328500D01*
X922300Y326700D02*
X926999D01*
X919000Y330000D02*
X922300Y326700D01*
X836043Y331200D02*
X837243Y330000D01*
X919000D01*
X719900Y212200D02*
X733200Y225500D01*
X746500D01*
X751500Y220500D01*
X742666Y312534D02*
X751400Y303800D01*
X742666Y312534D02*
Y324866D01*
X749800Y332000D01*
X835243D01*
X836043Y331200D01*
X810000Y233500D02*
X830000D01*
X751500Y220500D02*
X767400Y204600D01*
X904200D01*
X904500Y204300D01*
X915800D01*
X934100Y222600D01*
Y232400D01*
X790000Y233500D02*
X810000D01*
X903400Y231400D02*
X905500Y233500D01*
X830000D02*
X850000D01*
X910000D02*
X930000D01*
X850000D02*
X870000D01*
X890000D01*
X623000Y105200D02*
X636600Y91600D01*
X445200Y105200D02*
X623000D01*
X380400Y170000D02*
X445200Y105200D01*
X1052000Y175000D02*
X1060354D01*
X1048531Y178469D02*
X1052000Y175000D01*
X1024200Y178469D02*
X1048531D01*
X1015331Y169600D02*
X1024200Y178469D01*
X983400Y169600D02*
X1015331D01*
X936600Y235000D02*
X1029646D01*
X936500Y235100D02*
X936600Y235000D01*
X988745Y285000D02*
X1029646D01*
X983645Y290100D02*
X988745Y285000D01*
X961054Y290100D02*
X983645D01*
X958155Y287202D02*
X961054Y290100D01*
X958155Y273647D02*
Y287202D01*
X932409Y247900D02*
X958155Y273647D01*
X917000Y247900D02*
X932409D01*
X1025200Y335000D02*
X1029646D01*
X1024200Y334000D02*
X1025200Y335000D01*
X1024200Y322000D02*
Y334000D01*
Y322000D02*
X1025721Y320479D01*
X1034621D01*
X1035100Y320000D01*
Y311531D02*
Y320000D01*
X936669Y311531D02*
X1035100D01*
X934300Y313900D02*
X936669Y311531D01*
X783500Y313900D02*
X934300D01*
X781800Y312200D02*
X783500Y313900D01*
X994300Y295000D02*
X1029646D01*
X984057Y327100D02*
Y331843D01*
X976600Y339300D02*
X984057Y331843D01*
X959565Y339300D02*
X976600D01*
X958965Y339900D02*
X959565Y339300D01*
X811900Y339900D02*
X958965D01*
X0Y0D02*
Y500000D01*
X1100000D01*
Y0D02*
Y500000D01*
X0Y0D02*
X1100000D01*
D23*
X460000Y299409D02*
D03*
Y149409D02*
D03*
D24*
Y340591D02*
D03*
Y190591D02*
D03*
X388909Y240000D02*
D03*
Y100000D02*
D03*
D25*
X430091Y240000D02*
D03*
Y100000D02*
D03*
D26*
X190000Y25000D02*
D03*
D27*
X210000D02*
D03*
D28*
X20000Y20000D02*
D03*
Y480000D02*
D03*
D29*
X42300Y214800D02*
D03*
Y204800D02*
D03*
Y194800D02*
D03*
Y184800D02*
D03*
Y174800D02*
D03*
Y164800D02*
D03*
Y154800D02*
D03*
Y144800D02*
D03*
Y134800D02*
D03*
Y124800D02*
D03*
Y114800D02*
D03*
Y104800D02*
D03*
Y94800D02*
D03*
Y84800D02*
D03*
Y74800D02*
D03*
Y64800D02*
D03*
Y54800D02*
D03*
Y44800D02*
D03*
Y34800D02*
D03*
X62300Y25300D02*
D03*
Y35300D02*
D03*
Y45300D02*
D03*
Y55300D02*
D03*
Y65300D02*
D03*
Y75300D02*
D03*
Y85300D02*
D03*
Y95300D02*
D03*
Y105300D02*
D03*
Y115300D02*
D03*
Y125300D02*
D03*
Y135300D02*
D03*
Y145300D02*
D03*
Y155300D02*
D03*
Y165300D02*
D03*
Y175300D02*
D03*
Y185300D02*
D03*
Y195300D02*
D03*
Y205300D02*
D03*
Y470400D02*
D03*
Y460400D02*
D03*
Y450400D02*
D03*
Y440400D02*
D03*
Y430400D02*
D03*
Y420400D02*
D03*
Y410400D02*
D03*
Y400400D02*
D03*
Y390400D02*
D03*
Y380400D02*
D03*
Y370400D02*
D03*
Y360400D02*
D03*
Y350400D02*
D03*
Y340400D02*
D03*
Y330400D02*
D03*
Y320400D02*
D03*
Y310400D02*
D03*
Y300400D02*
D03*
Y290400D02*
D03*
X42300Y470400D02*
D03*
Y460400D02*
D03*
Y450400D02*
D03*
Y440400D02*
D03*
Y430400D02*
D03*
Y420400D02*
D03*
Y410400D02*
D03*
Y400400D02*
D03*
Y390400D02*
D03*
Y380400D02*
D03*
Y370400D02*
D03*
Y360400D02*
D03*
Y350400D02*
D03*
Y340400D02*
D03*
Y330400D02*
D03*
Y320400D02*
D03*
Y310400D02*
D03*
Y300400D02*
D03*
Y290400D02*
D03*
X360000Y370000D02*
D03*
X380000D02*
D03*
X390000D02*
D03*
X400000D02*
D03*
X410000D02*
D03*
X420000D02*
D03*
X430000D02*
D03*
X440000D02*
D03*
X370000D02*
D03*
X360000Y70000D02*
D03*
X380000D02*
D03*
X390000D02*
D03*
X400000D02*
D03*
X410000D02*
D03*
X420000D02*
D03*
X430000D02*
D03*
X440000D02*
D03*
X370000D02*
D03*
X470000Y370000D02*
D03*
X490000D02*
D03*
X500000D02*
D03*
X510000D02*
D03*
X520000D02*
D03*
X530000D02*
D03*
X540000D02*
D03*
X550000D02*
D03*
X480000D02*
D03*
X470000Y70000D02*
D03*
X490000D02*
D03*
X500000D02*
D03*
X510000D02*
D03*
X520000D02*
D03*
X530000D02*
D03*
X540000D02*
D03*
X550000D02*
D03*
X480000D02*
D03*
D30*
X42300Y24800D02*
D03*
X62300Y215300D02*
D03*
Y280400D02*
D03*
X42300D02*
D03*
D31*
X350000Y370000D02*
D03*
Y70000D02*
D03*
X460000Y370000D02*
D03*
Y70000D02*
D03*
D32*
X449483Y475315D02*
D03*
Y457598D02*
D03*
X376983Y475315D02*
D03*
Y457598D02*
D03*
X525483Y475315D02*
D03*
Y457598D02*
D03*
D33*
X790100Y412900D02*
D03*
X782000Y409700D02*
D03*
X484100Y416800D02*
D03*
X538100Y357800D02*
D03*
X460100Y418800D02*
D03*
X397100Y355800D02*
D03*
X535400Y312400D02*
D03*
X515300Y292300D02*
D03*
X950400Y180200D02*
D03*
X943200Y184700D02*
D03*
X141900Y215900D02*
D03*
X118900Y223600D02*
D03*
X110200Y190000D02*
D03*
X143200Y195300D02*
D03*
X109200Y177400D02*
D03*
X90375Y180000D02*
D03*
X114500Y172200D02*
D03*
X152500Y440400D02*
D03*
X185000Y183500D02*
D03*
X85800Y342600D02*
D03*
X111500Y405400D02*
D03*
X157500Y250000D02*
D03*
X146600Y245900D02*
D03*
X112100Y375700D02*
D03*
X235800Y190000D02*
D03*
X176200Y130400D02*
D03*
X164000Y172400D02*
D03*
Y126200D02*
D03*
X182300Y95300D02*
D03*
X257000Y170000D02*
D03*
X117200Y89600D02*
D03*
X309000Y145700D02*
D03*
X192300Y157800D02*
D03*
X142500Y95900D02*
D03*
X46800Y264500D02*
D03*
X361300Y252400D02*
D03*
Y240000D02*
D03*
X77400Y300300D02*
D03*
X61800Y270200D02*
D03*
X114200Y290000D02*
D03*
X665000Y405900D02*
D03*
X676600Y384000D02*
D03*
X744500Y296507D02*
D03*
X763900Y297500D02*
D03*
X774500Y323000D02*
D03*
X761600D02*
D03*
X723700Y148900D02*
D03*
X662000Y105900D02*
D03*
X706300Y336500D02*
D03*
X759500Y300900D02*
D03*
X965900Y150100D02*
D03*
X117200Y280000D02*
D03*
X307100Y225800D02*
D03*
X354300Y174400D02*
D03*
X332500Y308182D02*
D03*
X361700Y264200D02*
D03*
X258400Y259000D02*
D03*
X359700Y234500D02*
D03*
X312000Y296500D02*
D03*
X661282Y413561D02*
D03*
X627775Y415380D02*
D03*
X700400Y21300D02*
D03*
X773500D02*
D03*
X670500Y60984D02*
D03*
X883983Y59417D02*
D03*
X683900Y11400D02*
D03*
X811946Y9400D02*
D03*
X952200Y27000D02*
D03*
X806400Y26900D02*
D03*
X815400Y482700D02*
D03*
X1024700Y461389D02*
D03*
X819000Y471000D02*
D03*
X998774Y452411D02*
D03*
X1004600Y471700D02*
D03*
X1007200Y435600D02*
D03*
X996900Y413000D02*
D03*
X867000Y443600D02*
D03*
X798000Y412800D02*
D03*
X739700Y426600D02*
D03*
X713118Y451082D02*
D03*
X879000Y441700D02*
D03*
X915000Y436300D02*
D03*
X716300Y424700D02*
D03*
X697300Y438000D02*
D03*
X925000Y439397D02*
D03*
X330000Y170300D02*
D03*
X442540Y173740D02*
D03*
X912500Y358200D02*
D03*
X1055207Y387500D02*
D03*
X836043Y352157D02*
D03*
X1004200Y466200D02*
D03*
X987600Y437800D02*
D03*
X980900Y386736D02*
D03*
X618900Y240000D02*
D03*
X954700Y145100D02*
D03*
X975800Y346000D02*
D03*
X1037500Y251000D02*
D03*
X683000Y85000D02*
D03*
X736600Y262600D02*
D03*
X297700Y360000D02*
D03*
X146500Y78300D02*
D03*
X373400Y170100D02*
D03*
X344300Y136500D02*
D03*
X967600Y268700D02*
D03*
X965600Y258700D02*
D03*
X943563Y292300D02*
D03*
X939882Y286618D02*
D03*
X964600Y282400D02*
D03*
X932450Y309650D02*
D03*
X1091988Y68888D02*
D03*
X1090600Y393100D02*
D03*
X1047400Y428500D02*
D03*
X1086200Y58600D02*
D03*
X1087700Y374000D02*
D03*
X1032600Y412500D02*
D03*
X1094700Y98000D02*
D03*
X816600Y31800D02*
D03*
X835600Y62500D02*
D03*
X1083800Y159900D02*
D03*
X1084700Y385700D02*
D03*
X1067400Y411300D02*
D03*
X1041400Y108400D02*
D03*
X1038800Y93100D02*
D03*
X931500Y86800D02*
D03*
X855900Y31800D02*
D03*
X1037570Y112400D02*
D03*
X1033100Y108600D02*
D03*
X1045049Y93655D02*
D03*
X1050648Y92800D02*
D03*
X1056000Y94200D02*
D03*
X900000Y62400D02*
D03*
X912000Y254800D02*
D03*
X756500Y315300D02*
D03*
X931700Y96700D02*
D03*
X928300Y251600D02*
D03*
X734000Y300600D02*
D03*
X811500Y149000D02*
D03*
X817400Y149100D02*
D03*
X750700Y273700D02*
D03*
X739600Y280300D02*
D03*
X828100Y94500D02*
D03*
X773700Y294800D02*
D03*
X737100Y313661D02*
D03*
X803300Y148400D02*
D03*
X728000Y88300D02*
D03*
X731800Y92600D02*
D03*
X742450Y67050D02*
D03*
X736200Y82300D02*
D03*
X726386Y79000D02*
D03*
X737200Y222400D02*
D03*
X733200Y202200D02*
D03*
X733000Y73100D02*
D03*
X741200Y73700D02*
D03*
X654400Y108200D02*
D03*
X619700Y146300D02*
D03*
X657100Y406300D02*
D03*
X688000Y285000D02*
D03*
X674600Y377200D02*
D03*
X647700Y405900D02*
D03*
X650400Y381300D02*
D03*
X766000Y280600D02*
D03*
X745100Y335500D02*
D03*
X826400Y154100D02*
D03*
X798600Y164500D02*
D03*
X758500Y295200D02*
D03*
X695400Y334000D02*
D03*
X674600Y370900D02*
D03*
X696700Y302400D02*
D03*
X697800Y278700D02*
D03*
X820100Y248900D02*
D03*
X871800Y261000D02*
D03*
X692900Y282000D02*
D03*
X697400Y291700D02*
D03*
X866800Y257500D02*
D03*
X879500Y243500D02*
D03*
X901400Y201600D02*
D03*
X657100Y221100D02*
D03*
Y239000D02*
D03*
X751700Y232600D02*
D03*
X694800Y88000D02*
D03*
X750200Y114700D02*
D03*
X723800Y189731D02*
D03*
X751600Y108600D02*
D03*
X1028800Y60800D02*
D03*
X1077900Y442500D02*
D03*
X1078900Y424422D02*
D03*
X1083000Y415000D02*
D03*
X966100Y458300D02*
D03*
X970247Y467325D02*
D03*
X816200Y363100D02*
D03*
X748500Y450400D02*
D03*
Y400361D02*
D03*
X808833Y375600D02*
D03*
X763000Y412900D02*
D03*
X785000Y436600D02*
D03*
X836200Y398500D02*
D03*
X845800Y378800D02*
D03*
X985100Y397732D02*
D03*
X821500Y406900D02*
D03*
X852000Y371200D02*
D03*
X967300Y353900D02*
D03*
X975100Y392100D02*
D03*
X825900Y381800D02*
D03*
X818500Y413000D02*
D03*
X969300Y397300D02*
D03*
X968800Y432300D02*
D03*
X955800Y401800D02*
D03*
X964800Y465800D02*
D03*
X992000Y475700D02*
D03*
X703000Y409200D02*
D03*
X879200Y385300D02*
D03*
X891000Y412200D02*
D03*
X896700Y410700D02*
D03*
X887600Y375600D02*
D03*
X819600Y370200D02*
D03*
X803800Y360800D02*
D03*
X706100Y368500D02*
D03*
X685900Y453700D02*
D03*
X878000Y395300D02*
D03*
X904900Y411000D02*
D03*
X685200Y374000D02*
D03*
X701700Y420800D02*
D03*
X918500Y391700D02*
D03*
X930000Y413000D02*
D03*
X689300Y459400D02*
D03*
X670300Y419600D02*
D03*
X677600Y359200D02*
D03*
X859900Y168500D02*
D03*
X712500Y242000D02*
D03*
X725600Y373200D02*
D03*
X1002400Y368500D02*
D03*
X944000D02*
D03*
X993800Y350000D02*
D03*
X860000Y344900D02*
D03*
X259200Y266400D02*
D03*
X1068200Y178200D02*
D03*
X1066600Y149687D02*
D03*
X942500Y136600D02*
D03*
X531900Y281100D02*
D03*
X506800D02*
D03*
X985900Y472700D02*
D03*
X1055207Y454600D02*
D03*
X1037900Y228400D02*
D03*
X1027300Y43500D02*
D03*
X1040200Y129300D02*
D03*
X354700Y492700D02*
D03*
X640400Y388200D02*
D03*
X823100Y230500D02*
D03*
X249700Y125200D02*
D03*
X356100Y155300D02*
D03*
X1013000Y198000D02*
D03*
X1012100Y101200D02*
D03*
X915000Y93600D02*
D03*
X690800Y185000D02*
D03*
X787000Y307700D02*
D03*
X925000Y201582D02*
D03*
X811609Y327500D02*
D03*
X655700Y189300D02*
D03*
X1037900Y188000D02*
D03*
X939300Y248200D02*
D03*
X904100Y326900D02*
D03*
X882400Y281100D02*
D03*
X730000Y292700D02*
D03*
X657100Y171500D02*
D03*
X1041700Y330700D02*
D03*
X977000Y283500D02*
D03*
X1029100Y147100D02*
D03*
X85800Y162000D02*
D03*
X78836Y155700D02*
D03*
X122000Y194900D02*
D03*
X70600Y340900D02*
D03*
X50500Y355900D02*
D03*
X80500Y320000D02*
D03*
X329100Y260500D02*
D03*
X184400Y363400D02*
D03*
X301000Y246300D02*
D03*
X151500Y270000D02*
D03*
X53700Y279900D02*
D03*
X73400Y136400D02*
D03*
X274900Y160000D02*
D03*
X190200Y75300D02*
D03*
X52300Y270800D02*
D03*
X72100Y330400D02*
D03*
Y306800D02*
D03*
X151900Y284600D02*
D03*
X110200Y300000D02*
D03*
X306400Y138000D02*
D03*
X309800Y303300D02*
D03*
X1032000Y127900D02*
D03*
X1007400Y70100D02*
D03*
X943516Y315000D02*
D03*
X856516Y324500D02*
D03*
X781006Y161494D02*
D03*
X759000Y329000D02*
D03*
X872600Y164900D02*
D03*
X786550Y170496D02*
D03*
X1042300Y319900D02*
D03*
X1051100Y359800D02*
D03*
X1043700Y280900D02*
D03*
X1070400Y278600D02*
D03*
Y341400D02*
D03*
X1042400Y374400D02*
D03*
X662900Y159000D02*
D03*
X654600Y113900D02*
D03*
X652500Y432000D02*
D03*
X630800Y425900D02*
D03*
X878000Y56300D02*
D03*
X686000Y55817D02*
D03*
X877000Y62500D02*
D03*
X666000Y64600D02*
D03*
X707000Y8000D02*
D03*
X841400Y7400D02*
D03*
X665600Y51800D02*
D03*
X857900Y56400D02*
D03*
X850500Y56300D02*
D03*
X669452Y46600D02*
D03*
X829000Y30900D02*
D03*
X994300Y32500D02*
D03*
X823000Y31700D02*
D03*
X979642Y60148D02*
D03*
X816500Y23800D02*
D03*
X998300Y50200D02*
D03*
X785000Y30600D02*
D03*
X990500Y16400D02*
D03*
X796000Y27100D02*
D03*
X974725Y19000D02*
D03*
X908400Y373100D02*
D03*
X915400Y376100D02*
D03*
X920850Y349950D02*
D03*
X897600Y379976D02*
D03*
X855000Y479700D02*
D03*
X1001100Y482100D02*
D03*
X895500Y467700D02*
D03*
X736300Y465100D02*
D03*
X692300Y435500D02*
D03*
X931000Y439300D02*
D03*
X941700Y439800D02*
D03*
X721600Y465800D02*
D03*
X404100Y340800D02*
D03*
X439500Y158600D02*
D03*
X1064200Y88500D02*
D03*
X964300Y24900D02*
D03*
X626700Y238100D02*
D03*
X974200Y144900D02*
D03*
X786500Y270000D02*
D03*
X706000Y300300D02*
D03*
X1041900Y354300D02*
D03*
X1031400D02*
D03*
X1019700Y81600D02*
D03*
X470000Y290000D02*
D03*
X146500Y150000D02*
D03*
X371700Y290800D02*
D03*
X944000Y197600D02*
D03*
X947500Y221500D02*
D03*
X950500Y192800D02*
D03*
X950400Y257700D02*
D03*
X950500Y270600D02*
D03*
X935300Y331500D02*
D03*
X1044800Y439900D02*
D03*
X747800Y30600D02*
D03*
X1040400Y414200D02*
D03*
X891300Y112000D02*
D03*
X770000Y26400D02*
D03*
X957600Y301600D02*
D03*
X921000Y257000D02*
D03*
X846000Y31900D02*
D03*
X1034100Y134500D02*
D03*
X933300Y130700D02*
D03*
X914000Y261000D02*
D03*
X751500Y321339D02*
D03*
X754600Y91600D02*
D03*
X837100Y89500D02*
D03*
Y210800D02*
D03*
X735200Y236100D02*
D03*
X664000Y112543D02*
D03*
X656739Y89100D02*
D03*
X647000Y114200D02*
D03*
X625700Y176000D02*
D03*
X632379Y109400D02*
D03*
X636600Y105500D02*
D03*
X627700Y229000D02*
D03*
X656900Y333800D02*
D03*
X698000Y265000D02*
D03*
X710000Y289988D02*
D03*
X657600Y383400D02*
D03*
X650100Y412380D02*
D03*
X627296Y405700D02*
D03*
X631800Y289000D02*
D03*
X649602Y390400D02*
D03*
X764409Y269091D02*
D03*
X736948Y332400D02*
D03*
X626200Y336900D02*
D03*
X800200Y119700D02*
D03*
X823400Y148700D02*
D03*
X656300Y250500D02*
D03*
X686400Y180400D02*
D03*
X818839Y185800D02*
D03*
X892500Y246800D02*
D03*
X902100Y250900D02*
D03*
X629700Y257700D02*
D03*
X631200Y271000D02*
D03*
X883000Y252500D02*
D03*
X906516Y207400D02*
D03*
X715700Y199151D02*
D03*
X625500Y182300D02*
D03*
X625300Y57600D02*
D03*
X708400Y51400D02*
D03*
X759000Y143600D02*
D03*
X677700Y101000D02*
D03*
X641500Y146300D02*
D03*
X1084200Y396800D02*
D03*
X1004200Y60800D02*
D03*
X1077400Y90000D02*
D03*
X1068100Y405200D02*
D03*
X792000Y468300D02*
D03*
Y487000D02*
D03*
X1073000D02*
D03*
X1045100Y492000D02*
D03*
X938398Y323100D02*
D03*
X899300D02*
D03*
X857000Y468300D02*
D03*
X924400Y467500D02*
D03*
X950000Y383100D02*
D03*
X956200D02*
D03*
X976000Y471436D02*
D03*
X978600Y459900D02*
D03*
X962900Y358500D02*
D03*
X928161Y348861D02*
D03*
X925500Y329802D02*
D03*
X915500Y336900D02*
D03*
X774000Y468200D02*
D03*
X772500Y374200D02*
D03*
X847500Y351800D02*
D03*
X760000Y444700D02*
D03*
X914000Y404700D02*
D03*
X878000Y404900D02*
D03*
X884600Y412900D02*
D03*
X890000Y388700D02*
D03*
X679000Y430200D02*
D03*
X671500Y451900D02*
D03*
X801400Y473821D02*
D03*
X900000Y438831D02*
D03*
X1020334Y441200D02*
D03*
X1026900Y437300D02*
D03*
X988900Y383600D02*
D03*
X1013600Y375300D02*
D03*
X762000Y138600D02*
D03*
X669300Y96100D02*
D03*
X863800Y220300D02*
D03*
X667400Y77800D02*
D03*
X354300Y166200D02*
D03*
X636600Y91600D02*
D03*
X672400Y80700D02*
D03*
X668893Y458800D02*
D03*
X976800Y329300D02*
D03*
X919000Y330000D02*
D03*
X836043Y331200D02*
D03*
X719900Y212200D02*
D03*
X751400Y303800D02*
D03*
X751500Y220500D02*
D03*
X903400Y231400D02*
D03*
X952900Y231600D02*
D03*
X380400Y170000D02*
D03*
X983400Y169600D02*
D03*
X936500Y235100D02*
D03*
X917000Y247900D02*
D03*
X781800Y312200D02*
D03*
X994300Y295000D02*
D03*
X984057Y327100D02*
D03*
X811900Y339900D02*
D03*
M02*
