G04 Layer_Color=8388736*
%FSLAX25Y25*%
%MOIN*%
G70*
G01*
G75*
%ADD22C,0.01000*%
%ADD37R,0.05800X0.05800*%
%ADD38O,0.06509X0.03162*%
%ADD39R,0.05800X0.05800*%
%ADD40R,0.11824X0.10249*%
%ADD41R,0.10249X0.13398*%
%ADD42R,0.10249X0.04737*%
%ADD43O,0.02572X0.07099*%
%ADD44O,0.07099X0.02572*%
%ADD45O,0.06902X0.02572*%
%ADD46R,0.08674X0.04737*%
%ADD47R,0.04737X0.08674*%
%ADD48O,0.06902X0.03162*%
%ADD49C,0.09900*%
%ADD50C,0.06706*%
%ADD51R,0.06706X0.06706*%
%ADD52R,0.06706X0.06706*%
%ADD53C,0.08674*%
%ADD54R,0.08674X0.08674*%
%ADD55R,0.08083X0.08083*%
%ADD56C,0.08083*%
%ADD57C,0.16800*%
%ADD58C,0.03800*%
D22*
X0Y0D02*
X1100000D01*
Y500000D01*
X0D02*
X1100000D01*
X0Y0D02*
Y500000D01*
D37*
X598000Y21500D02*
D03*
Y28500D02*
D03*
X618000D02*
D03*
Y21500D02*
D03*
Y470500D02*
D03*
Y477500D02*
D03*
Y458500D02*
D03*
Y451500D02*
D03*
X1064000D02*
D03*
Y458500D02*
D03*
X1084000Y451500D02*
D03*
Y458500D02*
D03*
X1064000Y478500D02*
D03*
Y471500D02*
D03*
Y41500D02*
D03*
Y48500D02*
D03*
X598000Y41500D02*
D03*
Y48500D02*
D03*
X1064000Y21500D02*
D03*
Y28500D02*
D03*
X598000Y470500D02*
D03*
Y477500D02*
D03*
X338000Y465500D02*
D03*
Y458500D02*
D03*
X328000Y270000D02*
D03*
Y263000D02*
D03*
X160000Y453500D02*
D03*
Y460500D02*
D03*
X196000Y454000D02*
D03*
Y461000D02*
D03*
Y407000D02*
D03*
Y400000D02*
D03*
X160000Y407000D02*
D03*
Y400000D02*
D03*
X328000Y219500D02*
D03*
Y212500D02*
D03*
X1084000Y48500D02*
D03*
Y41500D02*
D03*
Y21500D02*
D03*
Y28500D02*
D03*
X618000Y48500D02*
D03*
Y41500D02*
D03*
X598000Y451398D02*
D03*
Y458398D02*
D03*
X1084000Y478500D02*
D03*
Y471500D02*
D03*
X375000Y303700D02*
D03*
Y296700D02*
D03*
Y119000D02*
D03*
Y126000D02*
D03*
X400000Y278500D02*
D03*
Y271500D02*
D03*
Y219000D02*
D03*
Y226000D02*
D03*
X307500Y416000D02*
D03*
Y409000D02*
D03*
X297500D02*
D03*
Y416000D02*
D03*
X375000Y343700D02*
D03*
Y336700D02*
D03*
Y159100D02*
D03*
Y166100D02*
D03*
X570000Y321500D02*
D03*
Y328500D02*
D03*
Y193900D02*
D03*
Y186900D02*
D03*
X287500Y416000D02*
D03*
Y409000D02*
D03*
X317500D02*
D03*
Y416000D02*
D03*
D38*
X314228Y452000D02*
D03*
Y457000D02*
D03*
Y462000D02*
D03*
Y467000D02*
D03*
X292772Y452000D02*
D03*
Y457000D02*
D03*
Y462000D02*
D03*
Y467000D02*
D03*
D39*
X307000Y486500D02*
D03*
X300000D02*
D03*
X438500Y252500D02*
D03*
X431500D02*
D03*
Y127500D02*
D03*
X438500D02*
D03*
Y280000D02*
D03*
X431500D02*
D03*
Y155000D02*
D03*
X438500D02*
D03*
X523500Y450000D02*
D03*
X530500D02*
D03*
Y460000D02*
D03*
X523500D02*
D03*
X346500Y303700D02*
D03*
X353500D02*
D03*
Y126000D02*
D03*
X346500D02*
D03*
Y343700D02*
D03*
X353500D02*
D03*
Y166100D02*
D03*
X346500D02*
D03*
X523500Y440000D02*
D03*
X530500D02*
D03*
Y470000D02*
D03*
X523500D02*
D03*
X271500Y25000D02*
D03*
X278500D02*
D03*
D40*
X432500Y476000D02*
D03*
Y451500D02*
D03*
X481000Y476000D02*
D03*
Y451500D02*
D03*
D41*
X244417Y463000D02*
D03*
Y416000D02*
D03*
X494917Y269200D02*
D03*
X496417Y142500D02*
D03*
D42*
X221583Y453945D02*
D03*
Y463000D02*
D03*
Y472055D02*
D03*
Y406945D02*
D03*
Y416000D02*
D03*
Y425055D02*
D03*
X472083Y260145D02*
D03*
Y269200D02*
D03*
Y278255D02*
D03*
X473583Y151555D02*
D03*
Y142500D02*
D03*
Y133445D02*
D03*
D43*
X975984Y363681D02*
D03*
X978543D02*
D03*
X981102D02*
D03*
X983661D02*
D03*
X986220D02*
D03*
X988780D02*
D03*
X991339D02*
D03*
X993898D02*
D03*
X996457D02*
D03*
X999016D02*
D03*
X975984Y386319D02*
D03*
X978543D02*
D03*
X981102D02*
D03*
X983661D02*
D03*
X986220D02*
D03*
X988780D02*
D03*
X991339D02*
D03*
X993898D02*
D03*
X996457D02*
D03*
X999016D02*
D03*
Y136319D02*
D03*
X996457D02*
D03*
X993898D02*
D03*
X991339D02*
D03*
X988780D02*
D03*
X986220D02*
D03*
X983661D02*
D03*
X981102D02*
D03*
X978543D02*
D03*
X975984D02*
D03*
X999016Y113681D02*
D03*
X996457D02*
D03*
X993898D02*
D03*
X991339D02*
D03*
X988780D02*
D03*
X986220D02*
D03*
X983661D02*
D03*
X981102D02*
D03*
X978543D02*
D03*
X975984D02*
D03*
X724016Y136319D02*
D03*
X721457D02*
D03*
X718898D02*
D03*
X716339D02*
D03*
X713780D02*
D03*
X711220D02*
D03*
X708661D02*
D03*
X706102D02*
D03*
X703543D02*
D03*
X700984D02*
D03*
X724016Y113681D02*
D03*
X721457D02*
D03*
X718898D02*
D03*
X716339D02*
D03*
X713780D02*
D03*
X711220D02*
D03*
X708661D02*
D03*
X706102D02*
D03*
X703543D02*
D03*
X700984D02*
D03*
Y363681D02*
D03*
X703543D02*
D03*
X706102D02*
D03*
X708661D02*
D03*
X711220D02*
D03*
X713780D02*
D03*
X716339D02*
D03*
X718898D02*
D03*
X721457D02*
D03*
X724016D02*
D03*
X700984Y386319D02*
D03*
X703543D02*
D03*
X706102D02*
D03*
X708661D02*
D03*
X711220D02*
D03*
X713780D02*
D03*
X716339D02*
D03*
X718898D02*
D03*
X721457D02*
D03*
X724016D02*
D03*
X903484Y188681D02*
D03*
X906043D02*
D03*
X908602D02*
D03*
X911161D02*
D03*
X913720D02*
D03*
X916280D02*
D03*
X918839D02*
D03*
X921398D02*
D03*
X923957D02*
D03*
X926516D02*
D03*
X903484Y211319D02*
D03*
X906043D02*
D03*
X908602D02*
D03*
X911161D02*
D03*
X913720D02*
D03*
X916280D02*
D03*
X918839D02*
D03*
X921398D02*
D03*
X923957D02*
D03*
X926516D02*
D03*
X773484Y288681D02*
D03*
X776043D02*
D03*
X778602D02*
D03*
X781161D02*
D03*
X783720D02*
D03*
X786280D02*
D03*
X788839D02*
D03*
X791398D02*
D03*
X793957D02*
D03*
X796516D02*
D03*
X773484Y311319D02*
D03*
X776043D02*
D03*
X778602D02*
D03*
X781161D02*
D03*
X783720D02*
D03*
X786280D02*
D03*
X788839D02*
D03*
X791398D02*
D03*
X793957D02*
D03*
X796516D02*
D03*
X926516D02*
D03*
X923957D02*
D03*
X921398D02*
D03*
X918839D02*
D03*
X916280D02*
D03*
X913720D02*
D03*
X911161D02*
D03*
X908602D02*
D03*
X906043D02*
D03*
X903484D02*
D03*
X926516Y288681D02*
D03*
X923957D02*
D03*
X921398D02*
D03*
X918839D02*
D03*
X916280D02*
D03*
X913720D02*
D03*
X911161D02*
D03*
X908602D02*
D03*
X906043D02*
D03*
X903484D02*
D03*
X796516Y211319D02*
D03*
X793957D02*
D03*
X791398D02*
D03*
X788839D02*
D03*
X786280D02*
D03*
X783720D02*
D03*
X781161D02*
D03*
X778602D02*
D03*
X776043D02*
D03*
X773484D02*
D03*
X796516Y188681D02*
D03*
X793957D02*
D03*
X791398D02*
D03*
X788839D02*
D03*
X786280D02*
D03*
X783720D02*
D03*
X781161D02*
D03*
X778602D02*
D03*
X776043D02*
D03*
X773484D02*
D03*
D44*
X673819Y433484D02*
D03*
Y436043D02*
D03*
Y438602D02*
D03*
Y441161D02*
D03*
Y443720D02*
D03*
Y446280D02*
D03*
Y448839D02*
D03*
Y451398D02*
D03*
Y453957D02*
D03*
Y456516D02*
D03*
X651181Y433484D02*
D03*
Y436043D02*
D03*
Y438602D02*
D03*
Y441161D02*
D03*
Y443720D02*
D03*
Y446280D02*
D03*
Y448839D02*
D03*
Y451398D02*
D03*
Y453957D02*
D03*
Y456516D02*
D03*
X1026181D02*
D03*
Y453957D02*
D03*
Y451398D02*
D03*
Y448839D02*
D03*
Y446280D02*
D03*
Y443720D02*
D03*
Y441161D02*
D03*
Y438602D02*
D03*
Y436043D02*
D03*
Y433484D02*
D03*
X1048819Y456516D02*
D03*
Y453957D02*
D03*
Y451398D02*
D03*
Y448839D02*
D03*
Y446280D02*
D03*
Y443720D02*
D03*
Y441161D02*
D03*
Y438602D02*
D03*
Y436043D02*
D03*
Y433484D02*
D03*
X1026181Y66516D02*
D03*
Y63957D02*
D03*
Y61398D02*
D03*
Y58839D02*
D03*
Y56280D02*
D03*
Y53720D02*
D03*
Y51161D02*
D03*
Y48602D02*
D03*
Y46043D02*
D03*
Y43484D02*
D03*
X1048819Y66516D02*
D03*
Y63957D02*
D03*
Y61398D02*
D03*
Y58839D02*
D03*
Y56280D02*
D03*
Y53720D02*
D03*
Y51161D02*
D03*
Y48602D02*
D03*
Y46043D02*
D03*
Y43484D02*
D03*
X673819D02*
D03*
Y46043D02*
D03*
Y48602D02*
D03*
Y51161D02*
D03*
Y53720D02*
D03*
Y56280D02*
D03*
Y58839D02*
D03*
Y61398D02*
D03*
Y63957D02*
D03*
Y66516D02*
D03*
X651181Y43484D02*
D03*
Y46043D02*
D03*
Y48602D02*
D03*
Y51161D02*
D03*
Y53720D02*
D03*
Y56280D02*
D03*
Y58839D02*
D03*
Y61398D02*
D03*
Y63957D02*
D03*
Y66516D02*
D03*
X876181Y136516D02*
D03*
Y133957D02*
D03*
Y131398D02*
D03*
Y128839D02*
D03*
Y126280D02*
D03*
Y123720D02*
D03*
Y121161D02*
D03*
Y118602D02*
D03*
Y116043D02*
D03*
Y113484D02*
D03*
X898819Y136516D02*
D03*
Y133957D02*
D03*
Y131398D02*
D03*
Y128839D02*
D03*
Y126280D02*
D03*
Y123720D02*
D03*
Y121161D02*
D03*
Y118602D02*
D03*
Y116043D02*
D03*
Y113484D02*
D03*
X823819D02*
D03*
Y116043D02*
D03*
Y118602D02*
D03*
Y121161D02*
D03*
Y123720D02*
D03*
Y126280D02*
D03*
Y128839D02*
D03*
Y131398D02*
D03*
Y133957D02*
D03*
Y136516D02*
D03*
X801181Y113484D02*
D03*
Y116043D02*
D03*
Y118602D02*
D03*
Y121161D02*
D03*
Y123720D02*
D03*
Y126280D02*
D03*
Y128839D02*
D03*
Y131398D02*
D03*
Y133957D02*
D03*
Y136516D02*
D03*
X898819Y363484D02*
D03*
Y366043D02*
D03*
Y368602D02*
D03*
Y371161D02*
D03*
Y373720D02*
D03*
Y376280D02*
D03*
Y378839D02*
D03*
Y381398D02*
D03*
Y383957D02*
D03*
Y386516D02*
D03*
X876181Y363484D02*
D03*
Y366043D02*
D03*
Y368602D02*
D03*
Y371161D02*
D03*
Y373720D02*
D03*
Y376280D02*
D03*
Y378839D02*
D03*
Y381398D02*
D03*
Y383957D02*
D03*
Y386516D02*
D03*
X801181D02*
D03*
Y383957D02*
D03*
Y381398D02*
D03*
Y378839D02*
D03*
Y376280D02*
D03*
Y373720D02*
D03*
Y371161D02*
D03*
Y368602D02*
D03*
Y366043D02*
D03*
Y363484D02*
D03*
X823819Y386516D02*
D03*
Y383957D02*
D03*
Y381398D02*
D03*
Y378839D02*
D03*
Y376280D02*
D03*
Y373720D02*
D03*
Y371161D02*
D03*
Y368602D02*
D03*
Y366043D02*
D03*
Y363484D02*
D03*
D45*
X348681Y272677D02*
D03*
Y270118D02*
D03*
Y267559D02*
D03*
Y265000D02*
D03*
Y262441D02*
D03*
Y259882D02*
D03*
Y257323D02*
D03*
X371319Y272677D02*
D03*
Y270118D02*
D03*
Y267559D02*
D03*
Y265000D02*
D03*
Y262441D02*
D03*
Y259882D02*
D03*
Y257323D02*
D03*
Y207323D02*
D03*
Y209882D02*
D03*
Y212441D02*
D03*
Y215000D02*
D03*
Y217559D02*
D03*
Y220118D02*
D03*
Y222677D02*
D03*
X348681Y207323D02*
D03*
Y209882D02*
D03*
Y212441D02*
D03*
Y215000D02*
D03*
Y217559D02*
D03*
Y220118D02*
D03*
Y222677D02*
D03*
D46*
X1051604Y195000D02*
D03*
Y175000D02*
D03*
Y165000D02*
D03*
Y155000D02*
D03*
Y185000D02*
D03*
Y235000D02*
D03*
Y205000D02*
D03*
Y215000D02*
D03*
Y225000D02*
D03*
Y245000D02*
D03*
Y285000D02*
D03*
Y255000D02*
D03*
Y265000D02*
D03*
Y275000D02*
D03*
Y295000D02*
D03*
Y335000D02*
D03*
Y305000D02*
D03*
Y315000D02*
D03*
Y325000D02*
D03*
Y345000D02*
D03*
X1020896D02*
D03*
Y325000D02*
D03*
Y315000D02*
D03*
Y305000D02*
D03*
Y335000D02*
D03*
Y295000D02*
D03*
Y275000D02*
D03*
Y265000D02*
D03*
Y255000D02*
D03*
Y285000D02*
D03*
Y245000D02*
D03*
Y225000D02*
D03*
Y215000D02*
D03*
Y205000D02*
D03*
Y235000D02*
D03*
Y185000D02*
D03*
Y155000D02*
D03*
Y165000D02*
D03*
Y175000D02*
D03*
Y195000D02*
D03*
X679104Y305000D02*
D03*
Y325000D02*
D03*
Y335000D02*
D03*
Y345000D02*
D03*
Y315000D02*
D03*
Y265000D02*
D03*
Y295000D02*
D03*
Y285000D02*
D03*
Y275000D02*
D03*
Y255000D02*
D03*
Y215000D02*
D03*
Y245000D02*
D03*
Y235000D02*
D03*
Y225000D02*
D03*
Y205000D02*
D03*
Y165000D02*
D03*
Y195000D02*
D03*
Y185000D02*
D03*
Y175000D02*
D03*
Y155000D02*
D03*
X648396D02*
D03*
Y175000D02*
D03*
Y185000D02*
D03*
Y195000D02*
D03*
Y165000D02*
D03*
Y205000D02*
D03*
Y225000D02*
D03*
Y235000D02*
D03*
Y245000D02*
D03*
Y215000D02*
D03*
Y255000D02*
D03*
Y275000D02*
D03*
Y285000D02*
D03*
Y295000D02*
D03*
Y265000D02*
D03*
Y315000D02*
D03*
Y345000D02*
D03*
Y335000D02*
D03*
Y325000D02*
D03*
Y305000D02*
D03*
D47*
X795000Y48396D02*
D03*
X775000D02*
D03*
X765000D02*
D03*
X755000D02*
D03*
X785000D02*
D03*
X835000D02*
D03*
X805000D02*
D03*
X815000D02*
D03*
X825000D02*
D03*
X845000D02*
D03*
X885000D02*
D03*
X855000D02*
D03*
X865000D02*
D03*
X875000D02*
D03*
X895000D02*
D03*
X935000D02*
D03*
X905000D02*
D03*
X915000D02*
D03*
X925000D02*
D03*
X945000D02*
D03*
Y79104D02*
D03*
X925000D02*
D03*
X915000D02*
D03*
X905000D02*
D03*
X935000D02*
D03*
X895000D02*
D03*
X875000D02*
D03*
X865000D02*
D03*
X855000D02*
D03*
X885000D02*
D03*
X845000D02*
D03*
X825000D02*
D03*
X815000D02*
D03*
X805000D02*
D03*
X835000D02*
D03*
X785000D02*
D03*
X755000D02*
D03*
X765000D02*
D03*
X775000D02*
D03*
X795000D02*
D03*
X905000Y420896D02*
D03*
X925000D02*
D03*
X935000D02*
D03*
X945000D02*
D03*
X915000D02*
D03*
X865000D02*
D03*
X895000D02*
D03*
X885000D02*
D03*
X875000D02*
D03*
X855000D02*
D03*
X815000D02*
D03*
X845000D02*
D03*
X835000D02*
D03*
X825000D02*
D03*
X805000D02*
D03*
X765000D02*
D03*
X795000D02*
D03*
X785000D02*
D03*
X775000D02*
D03*
X755000D02*
D03*
Y451604D02*
D03*
X775000D02*
D03*
X785000D02*
D03*
X795000D02*
D03*
X765000D02*
D03*
X805000D02*
D03*
X825000D02*
D03*
X835000D02*
D03*
X845000D02*
D03*
X815000D02*
D03*
X855000D02*
D03*
X875000D02*
D03*
X885000D02*
D03*
X895000D02*
D03*
X865000D02*
D03*
X915000D02*
D03*
X945000D02*
D03*
X935000D02*
D03*
X925000D02*
D03*
X905000D02*
D03*
D48*
X404429Y296260D02*
D03*
Y303740D02*
D03*
X395571Y296260D02*
D03*
Y300000D02*
D03*
Y303740D02*
D03*
Y126240D02*
D03*
Y122500D02*
D03*
Y118760D02*
D03*
X404429Y126240D02*
D03*
Y118760D02*
D03*
Y336260D02*
D03*
Y343740D02*
D03*
X395571Y336260D02*
D03*
Y340000D02*
D03*
Y343740D02*
D03*
Y166240D02*
D03*
Y162500D02*
D03*
Y158760D02*
D03*
X404429Y166240D02*
D03*
Y158760D02*
D03*
D49*
X456783Y458098D02*
D03*
Y475815D02*
D03*
D50*
X530000Y383000D02*
D03*
X460000D02*
D03*
X470000D02*
D03*
X480000D02*
D03*
X490000D02*
D03*
X500000D02*
D03*
X510000D02*
D03*
X520000D02*
D03*
X540000D02*
D03*
X420000D02*
D03*
X350000D02*
D03*
X360000D02*
D03*
X370000D02*
D03*
X380000D02*
D03*
X390000D02*
D03*
X400000D02*
D03*
X410000D02*
D03*
X430000D02*
D03*
X440000Y40000D02*
D03*
X450000D02*
D03*
X20000Y35000D02*
D03*
Y45000D02*
D03*
Y55000D02*
D03*
Y65000D02*
D03*
Y75000D02*
D03*
Y85000D02*
D03*
Y95000D02*
D03*
Y105000D02*
D03*
Y115000D02*
D03*
Y125000D02*
D03*
Y135000D02*
D03*
Y145000D02*
D03*
Y155000D02*
D03*
Y165000D02*
D03*
Y175000D02*
D03*
Y185000D02*
D03*
Y195000D02*
D03*
Y205000D02*
D03*
Y215000D02*
D03*
X50000Y35000D02*
D03*
Y45000D02*
D03*
Y55000D02*
D03*
Y65000D02*
D03*
Y75000D02*
D03*
Y85000D02*
D03*
Y95000D02*
D03*
Y105000D02*
D03*
Y115000D02*
D03*
Y125000D02*
D03*
Y135000D02*
D03*
Y145000D02*
D03*
Y155000D02*
D03*
Y165000D02*
D03*
Y175000D02*
D03*
Y185000D02*
D03*
Y195000D02*
D03*
Y205000D02*
D03*
Y215000D02*
D03*
Y295000D02*
D03*
Y305000D02*
D03*
Y315000D02*
D03*
Y325000D02*
D03*
Y335000D02*
D03*
Y345000D02*
D03*
Y355000D02*
D03*
Y365000D02*
D03*
Y375000D02*
D03*
Y385000D02*
D03*
Y395000D02*
D03*
Y405000D02*
D03*
Y415000D02*
D03*
Y425000D02*
D03*
Y435000D02*
D03*
Y445000D02*
D03*
Y455000D02*
D03*
Y465000D02*
D03*
Y475000D02*
D03*
X20000Y295000D02*
D03*
Y305000D02*
D03*
Y315000D02*
D03*
Y325000D02*
D03*
Y335000D02*
D03*
Y345000D02*
D03*
Y355000D02*
D03*
Y365000D02*
D03*
Y375000D02*
D03*
Y385000D02*
D03*
Y395000D02*
D03*
Y405000D02*
D03*
Y415000D02*
D03*
Y425000D02*
D03*
Y435000D02*
D03*
Y445000D02*
D03*
Y455000D02*
D03*
Y465000D02*
D03*
Y475000D02*
D03*
X411000Y420000D02*
D03*
X401000D02*
D03*
X480000Y370000D02*
D03*
X550000D02*
D03*
X540000D02*
D03*
X530000D02*
D03*
X520000D02*
D03*
X510000D02*
D03*
X500000D02*
D03*
X490000D02*
D03*
X470000D02*
D03*
X370000D02*
D03*
X440000D02*
D03*
X430000D02*
D03*
X420000D02*
D03*
X410000D02*
D03*
X400000D02*
D03*
X390000D02*
D03*
X380000D02*
D03*
X360000D02*
D03*
X480000Y70000D02*
D03*
X550000D02*
D03*
X540000D02*
D03*
X530000D02*
D03*
X520000D02*
D03*
X510000D02*
D03*
X500000D02*
D03*
X490000D02*
D03*
X470000D02*
D03*
X370000D02*
D03*
X440000D02*
D03*
X430000D02*
D03*
X420000D02*
D03*
X410000D02*
D03*
X400000D02*
D03*
X390000D02*
D03*
X380000D02*
D03*
X360000D02*
D03*
D51*
X550000Y383000D02*
D03*
X440000D02*
D03*
X430000Y40000D02*
D03*
X421000Y420000D02*
D03*
X460000Y370000D02*
D03*
X350000D02*
D03*
X460000Y70000D02*
D03*
X350000D02*
D03*
D52*
X20000Y25000D02*
D03*
X50000D02*
D03*
Y285000D02*
D03*
X20000D02*
D03*
D53*
X535000Y275591D02*
D03*
Y135591D02*
D03*
Y345591D02*
D03*
Y205591D02*
D03*
D54*
Y234409D02*
D03*
Y94409D02*
D03*
Y304409D02*
D03*
Y164409D02*
D03*
D55*
X190000Y25000D02*
D03*
D56*
X210000D02*
D03*
D57*
X75000Y475000D02*
D03*
Y25000D02*
D03*
D58*
X230300Y413200D02*
D03*
X75889Y180000D02*
D03*
X86100Y200000D02*
D03*
X68900Y178000D02*
D03*
X169700Y277700D02*
D03*
X216100Y287900D02*
D03*
X189128Y75000D02*
D03*
X209600Y296300D02*
D03*
X60300Y83700D02*
D03*
X191200Y210000D02*
D03*
X40600Y200600D02*
D03*
X118900Y290100D02*
D03*
X190000Y298000D02*
D03*
X88800Y320000D02*
D03*
X141000Y336300D02*
D03*
X701700Y128400D02*
D03*
X1038800Y166000D02*
D03*
X111900Y262100D02*
D03*
X798900Y348100D02*
D03*
X911600Y339600D02*
D03*
X805200Y284400D02*
D03*
X763000Y408800D02*
D03*
X679900Y429900D02*
D03*
X911600Y144200D02*
D03*
X970600Y384100D02*
D03*
X670000Y103900D02*
D03*
X729500Y107700D02*
D03*
X945000Y63200D02*
D03*
X925000Y87100D02*
D03*
X1056842Y124442D02*
D03*
X1042900Y216000D02*
D03*
X1037500Y191000D02*
D03*
X656500Y228300D02*
D03*
X1005900Y175000D02*
D03*
X342600Y231900D02*
D03*
X331000D02*
D03*
X693700Y365500D02*
D03*
X799800Y106600D02*
D03*
X891600Y118300D02*
D03*
X923957Y329443D02*
D03*
X774800Y220500D02*
D03*
X781800Y198400D02*
D03*
X735100Y204400D02*
D03*
X974200Y176400D02*
D03*
X925200Y204000D02*
D03*
X978200Y180400D02*
D03*
X1042300Y174900D02*
D03*
X703543Y97700D02*
D03*
X604400Y463000D02*
D03*
X898000Y396000D02*
D03*
X866948Y119652D02*
D03*
X929500Y197900D02*
D03*
X733000Y400400D02*
D03*
X796516Y338600D02*
D03*
X845600Y172900D02*
D03*
X911900D02*
D03*
X723500Y129100D02*
D03*
X798500Y141400D02*
D03*
X1035300Y75500D02*
D03*
X1026200D02*
D03*
X590400Y46400D02*
D03*
X609700Y48500D02*
D03*
X658600Y41500D02*
D03*
X1043500Y428600D02*
D03*
X1047400Y461500D02*
D03*
X110100Y150000D02*
D03*
X236000Y360000D02*
D03*
X652700Y75900D02*
D03*
X778300Y474800D02*
D03*
X1032500Y459400D02*
D03*
X1012100Y438600D02*
D03*
X890000Y441300D02*
D03*
X1019200Y431400D02*
D03*
X808200Y364800D02*
D03*
X790100Y373053D02*
D03*
X778300Y409400D02*
D03*
X771800Y412100D02*
D03*
X695450Y420050D02*
D03*
X683700Y417800D02*
D03*
X682800Y424200D02*
D03*
X659400Y432500D02*
D03*
X772100Y475300D02*
D03*
X762300Y468300D02*
D03*
X868300Y386800D02*
D03*
X878300Y408100D02*
D03*
X876000Y441700D02*
D03*
X867400Y379200D02*
D03*
X850600Y437900D02*
D03*
X860600Y407831D02*
D03*
X868000Y372600D02*
D03*
X883500Y375800D02*
D03*
X781161Y272439D02*
D03*
X901200Y301300D02*
D03*
X951300Y430600D02*
D03*
X788000Y279600D02*
D03*
X823800Y108500D02*
D03*
X813700Y112100D02*
D03*
X817600Y148900D02*
D03*
X810300Y138100D02*
D03*
X813200Y144600D02*
D03*
X809800Y152300D02*
D03*
X888900Y274400D02*
D03*
X870600Y331900D02*
D03*
X812500Y319600D02*
D03*
X871100Y320400D02*
D03*
X697600Y356500D02*
D03*
X706800Y288500D02*
D03*
X715200Y277500D02*
D03*
X734300Y245000D02*
D03*
X737400Y222500D02*
D03*
X694600Y182800D02*
D03*
X660700Y165000D02*
D03*
X701499Y71600D02*
D03*
X714000Y65200D02*
D03*
X715900Y74600D02*
D03*
X720708Y80992D02*
D03*
X724200Y87100D02*
D03*
X837400Y62400D02*
D03*
X836800Y161200D02*
D03*
X776600Y181100D02*
D03*
X776400Y87100D02*
D03*
X967700Y33200D02*
D03*
X958708Y29008D02*
D03*
X964900Y53300D02*
D03*
X946900Y18900D02*
D03*
X1082200Y63100D02*
D03*
X780000Y26300D02*
D03*
X940300Y20600D02*
D03*
X1072400Y412900D02*
D03*
X1048900Y376400D02*
D03*
X1070900Y355800D02*
D03*
X988286Y395500D02*
D03*
X1038300Y320600D02*
D03*
X1068300Y314900D02*
D03*
X1073400Y396200D02*
D03*
X1083300Y272300D02*
D03*
X1074000Y255000D02*
D03*
X1071800Y231000D02*
D03*
X1056100Y55700D02*
D03*
Y62900D02*
D03*
X1075800Y205000D02*
D03*
X395300Y209700D02*
D03*
X1044100Y465900D02*
D03*
X958900Y448700D02*
D03*
X926000Y443600D02*
D03*
X1041700Y450000D02*
D03*
X785400Y412900D02*
D03*
X691000Y432000D02*
D03*
X825000Y436200D02*
D03*
X694500Y448300D02*
D03*
X666700Y447200D02*
D03*
X831700Y437600D02*
D03*
X688500Y438100D02*
D03*
X826400Y395200D02*
D03*
X881900Y105700D02*
D03*
X809500D02*
D03*
X793200Y97200D02*
D03*
X857400Y95200D02*
D03*
X808400Y123700D02*
D03*
X876200Y102400D02*
D03*
X790600Y105400D02*
D03*
X889700Y96000D02*
D03*
X954288Y151505D02*
D03*
X920900Y111600D02*
D03*
X917100Y195900D02*
D03*
Y138900D02*
D03*
X939100Y125600D02*
D03*
X948700Y148400D02*
D03*
X957300Y146150D02*
D03*
X878300Y91100D02*
D03*
X909500Y195900D02*
D03*
X841200Y178100D02*
D03*
X837000Y169300D02*
D03*
X905300D02*
D03*
X810700Y89900D02*
D03*
X873400Y88600D02*
D03*
X882500Y141500D02*
D03*
X775200Y163800D02*
D03*
X765000Y171440D02*
D03*
X874200Y145000D02*
D03*
X655400Y379600D02*
D03*
X675000D02*
D03*
X644200Y353600D02*
D03*
X702400Y371300D02*
D03*
X626900Y60000D02*
D03*
X644000Y53300D02*
D03*
X713600Y216900D02*
D03*
X773200Y204100D02*
D03*
X710700Y225400D02*
D03*
X783100Y219100D02*
D03*
X1006000Y112600D02*
D03*
X1049000Y123400D02*
D03*
X1002600Y102300D02*
D03*
X1044800D02*
D03*
X931400Y282800D02*
D03*
X1068300Y275600D02*
D03*
X930457Y250800D02*
D03*
X1039500Y220400D02*
D03*
X1040300Y301600D02*
D03*
X913900D02*
D03*
X1010700Y92600D02*
D03*
X1014600Y55161D02*
D03*
X258300Y269700D02*
D03*
X310700Y264900D02*
D03*
X279700Y220000D02*
D03*
X311200Y259400D02*
D03*
X378200Y327400D02*
D03*
X301800Y467000D02*
D03*
X107600Y170900D02*
D03*
X79200Y185800D02*
D03*
X179700Y274600D02*
D03*
X219700Y292100D02*
D03*
X241700Y120300D02*
D03*
X110700Y200000D02*
D03*
X222000Y45000D02*
D03*
X309100Y297200D02*
D03*
X226200Y288000D02*
D03*
X186300Y65000D02*
D03*
X304700Y290000D02*
D03*
X238600Y287900D02*
D03*
X325400Y411200D02*
D03*
X332238Y287162D02*
D03*
X197900Y297600D02*
D03*
X211200Y108900D02*
D03*
X218000Y299200D02*
D03*
X91700Y236000D02*
D03*
X81500Y76500D02*
D03*
X59100Y104900D02*
D03*
X71927Y96100D02*
D03*
X164400Y230000D02*
D03*
X156700Y260000D02*
D03*
X204000Y298000D02*
D03*
X183800Y250000D02*
D03*
X333200Y380900D02*
D03*
X84000Y355600D02*
D03*
X81200Y366300D02*
D03*
X86000Y348100D02*
D03*
X108300Y210000D02*
D03*
X799600Y473000D02*
D03*
X926000Y127700D02*
D03*
X781700Y399100D02*
D03*
X881500Y350100D02*
D03*
X892500Y305000D02*
D03*
X880000Y315000D02*
D03*
X897100Y141500D02*
D03*
X811400Y157800D02*
D03*
X1048600Y83800D02*
D03*
X1009000Y51500D02*
D03*
X978800Y90600D02*
D03*
X959400Y132800D02*
D03*
X970600Y409500D02*
D03*
X1018100Y424800D02*
D03*
X944800Y112200D02*
D03*
X1037500Y159400D02*
D03*
Y231000D02*
D03*
X1024200Y354000D02*
D03*
X1054000Y352500D02*
D03*
X808800Y474500D02*
D03*
X657400Y239900D02*
D03*
X1090400Y263500D02*
D03*
X941200Y93100D02*
D03*
X1038900Y418400D02*
D03*
X1073700Y422600D02*
D03*
X784000Y480300D02*
D03*
X964900Y132900D02*
D03*
X1004100Y139000D02*
D03*
X1008439Y231800D02*
D03*
X920000Y388100D02*
D03*
X1083482Y261600D02*
D03*
X638300Y453957D02*
D03*
X866400Y204700D02*
D03*
X759400Y365700D02*
D03*
X868300Y339700D02*
D03*
X1052700Y427600D02*
D03*
X1006400Y381300D02*
D03*
X934500Y192900D02*
D03*
X757800Y196000D02*
D03*
X836400Y372300D02*
D03*
X1056700Y451500D02*
D03*
X1004200Y352900D02*
D03*
X993300Y173300D02*
D03*
X973600Y319000D02*
D03*
X689800Y128800D02*
D03*
X642000Y43700D02*
D03*
X691800Y68500D02*
D03*
Y121000D02*
D03*
X709700Y128800D02*
D03*
X757800Y117600D02*
D03*
Y180600D02*
D03*
X775100Y197900D02*
D03*
X808500Y118043D02*
D03*
X985800Y86900D02*
D03*
X996457Y123600D02*
D03*
X669300Y360600D02*
D03*
X888077Y348700D02*
D03*
X907400Y358100D02*
D03*
X951600Y348700D02*
D03*
X721200Y338000D02*
D03*
X779000Y146700D02*
D03*
X959100Y140500D02*
D03*
X975500Y96400D02*
D03*
X745200Y372000D02*
D03*
X1071000Y245000D02*
D03*
X975600Y427700D02*
D03*
X1014900Y451200D02*
D03*
X1009100Y457000D02*
D03*
X905900Y442800D02*
D03*
X900000Y440000D02*
D03*
X1034443Y432900D02*
D03*
X858300Y439200D02*
D03*
X793931Y390000D02*
D03*
X794100Y396300D02*
D03*
X790800Y402231D02*
D03*
X740000Y419100D02*
D03*
X739800Y471892D02*
D03*
X659695Y460600D02*
D03*
X664800Y455900D02*
D03*
X754550Y467750D02*
D03*
X742800Y432900D02*
D03*
X658300Y442600D02*
D03*
X663700Y440300D02*
D03*
X890400Y378839D02*
D03*
X850100Y403000D02*
D03*
X820000Y444600D02*
D03*
X866900Y353200D02*
D03*
X844400Y468200D02*
D03*
X852900Y407969D02*
D03*
X883500Y368700D02*
D03*
X869000Y361100D02*
D03*
X766293Y281600D02*
D03*
X743800Y293300D02*
D03*
X753200Y353600D02*
D03*
Y371500D02*
D03*
X865700Y468500D02*
D03*
X791200Y248800D02*
D03*
X854600D02*
D03*
X871700Y438100D02*
D03*
X785239Y301300D02*
D03*
X705700Y301000D02*
D03*
X684000Y374000D02*
D03*
X787000Y295800D02*
D03*
X780700Y297800D02*
D03*
X712400Y302300D02*
D03*
X708300Y350200D02*
D03*
X750000Y397600D02*
D03*
X876587Y471100D02*
D03*
X791300Y262000D02*
D03*
X861100Y268100D02*
D03*
Y384700D02*
D03*
X816600Y118300D02*
D03*
X814200Y127700D02*
D03*
X926516Y239400D02*
D03*
X919219Y242800D02*
D03*
X907800Y204100D02*
D03*
X862800Y194000D02*
D03*
X860700Y245900D02*
D03*
X891700Y253600D02*
D03*
X894800Y248500D02*
D03*
X897800Y243394D02*
D03*
X886100Y333700D02*
D03*
Y225000D02*
D03*
X909058Y220400D02*
D03*
X804515Y274185D02*
D03*
X812400Y185800D02*
D03*
X908100Y132000D02*
D03*
X825900Y281500D02*
D03*
X817400Y309900D02*
D03*
X848900Y321500D02*
D03*
X866500Y324500D02*
D03*
X687000Y310900D02*
D03*
X724000Y279200D02*
D03*
X731498Y271602D02*
D03*
X738600Y282000D02*
D03*
X666700Y50500D02*
D03*
X687000Y177700D02*
D03*
X687200Y149000D02*
D03*
X678300Y82700D02*
D03*
X663900Y99600D02*
D03*
X719500Y64500D02*
D03*
X724100Y70000D02*
D03*
X726100Y78000D02*
D03*
X744150Y58150D02*
D03*
X744300Y193000D02*
D03*
X768700D02*
D03*
X776000Y62600D02*
D03*
X781500Y204000D02*
D03*
X743400Y215400D02*
D03*
X740143Y51100D02*
D03*
X778600Y92600D02*
D03*
X779200Y56000D02*
D03*
X793000Y139300D02*
D03*
X754900Y134800D02*
D03*
X757800Y87000D02*
D03*
X965200Y144800D02*
D03*
X928900Y119000D02*
D03*
X870000Y31700D02*
D03*
X960900Y37000D02*
D03*
X934200Y23600D02*
D03*
X971100Y132562D02*
D03*
Y141200D02*
D03*
X952608Y32400D02*
D03*
X854800Y24200D02*
D03*
X738700Y45000D02*
D03*
X746600Y328400D02*
D03*
X920000Y325000D02*
D03*
X944100Y13400D02*
D03*
X951000Y93700D02*
D03*
X951400Y132600D02*
D03*
X699800Y51800D02*
D03*
X737200Y312800D02*
D03*
X911300Y319700D02*
D03*
X1059300Y378000D02*
D03*
X1072000Y382100D02*
D03*
X1076300Y373700D02*
D03*
X1042500Y265000D02*
D03*
X476300Y294100D02*
D03*
X396041Y262441D02*
D03*
X485900Y278255D02*
D03*
X392200Y270200D02*
D03*
X409100Y287100D02*
D03*
X431500Y168400D02*
D03*
X384900Y215000D02*
D03*
X400600Y131500D02*
D03*
X1056401Y445999D02*
D03*
X952600Y446700D02*
D03*
X1040000Y455900D02*
D03*
X920000Y443000D02*
D03*
X786996Y443600D02*
D03*
X745700D02*
D03*
X752700Y378000D02*
D03*
X786900Y343800D02*
D03*
X681000Y451700D02*
D03*
X802200Y443700D02*
D03*
X810000Y440800D02*
D03*
X661800Y450000D02*
D03*
X843000Y412900D02*
D03*
X689800Y457500D02*
D03*
X736000Y484100D02*
D03*
X854500Y480500D02*
D03*
X800500Y62400D02*
D03*
X737100Y69800D02*
D03*
X808400Y129400D02*
D03*
X888000Y105300D02*
D03*
X871400Y56200D02*
D03*
X931700Y59865D02*
D03*
X929700Y132100D02*
D03*
X914300Y201900D02*
D03*
X950997Y139459D02*
D03*
X856600Y87100D02*
D03*
X888500Y61600D02*
D03*
X793000Y56400D02*
D03*
X845800Y102000D02*
D03*
X784800Y111100D02*
D03*
X846000Y87100D02*
D03*
X755000Y93500D02*
D03*
X661500Y353000D02*
D03*
X708300Y373600D02*
D03*
X654100Y373000D02*
D03*
X715780Y375900D02*
D03*
X724200Y210000D02*
D03*
X767700Y200900D02*
D03*
X720000Y233400D02*
D03*
X787320Y203404D02*
D03*
X782280Y226000D02*
D03*
X720300Y218300D02*
D03*
X694800Y299900D02*
D03*
X794100Y280757D02*
D03*
X796300Y259100D02*
D03*
X699600Y282400D02*
D03*
X797400Y204000D02*
D03*
X726000Y228849D02*
D03*
X1047900Y115900D02*
D03*
X1006000Y106700D02*
D03*
X990600Y120800D02*
D03*
X1010200Y127000D02*
D03*
X1011500Y136800D02*
D03*
X980800Y149300D02*
D03*
X971200Y184600D02*
D03*
X1043700Y181200D02*
D03*
X1061600Y149000D02*
D03*
X993000Y103800D02*
D03*
X1005700Y168500D02*
D03*
X1037500Y171500D02*
D03*
X981300Y106500D02*
D03*
X1043650Y204750D02*
D03*
X1042900Y96300D02*
D03*
X1001300Y93400D02*
D03*
X1068522Y285378D02*
D03*
X919100Y281500D02*
D03*
X916300Y275400D02*
D03*
X1043700Y259000D02*
D03*
X965031Y278269D02*
D03*
X1042900Y274200D02*
D03*
X1041569Y280069D02*
D03*
X912100Y295800D02*
D03*
X1038000Y295000D02*
D03*
X913500Y281500D02*
D03*
X346300Y245100D02*
D03*
X373300Y250800D02*
D03*
X368800Y401100D02*
D03*
X342700Y405400D02*
D03*
X420000Y48800D02*
D03*
X442700Y55500D02*
D03*
X452500Y58500D02*
D03*
X406600Y446100D02*
D03*
X374000Y413500D02*
D03*
X428100Y402000D02*
D03*
X431100Y426600D02*
D03*
X336276Y282297D02*
D03*
X331100Y256500D02*
D03*
X341500Y257323D02*
D03*
X338900Y265700D02*
D03*
X341700Y271200D02*
D03*
X329000Y278200D02*
D03*
M02*
