M48
;Layer_Color=9474304
;FILE_FORMAT=2:5
INCH,LZ
;TYPE=PLATED
T1F00S00C0.01500
T2F00S00C0.03543
T3F00S00C0.04331
T4F00S00C0.04724
;TYPE=NON_PLATED
T5F00S00C0.07087
T6F00S00C0.14000
%
T01
X0811946Y00094
X08414Y00074
X0707Y0008
X06839Y00114
X00734Y01364
X0078836Y01557
X00858Y0162
X01465Y015
X0164Y01262
X01762Y01304
X01823Y00953
X01902Y00753
X01465Y00783
X01425Y00959
X01172Y00896
X01923Y01578
X02497Y01252
X02749Y016
X0309Y01457
X03064Y0138
X03443Y01365
X03561Y01553
X03543Y01662
X04395Y01586
X06197Y01463
X06415
X06629Y0159
X0664Y0112543
X0662Y01059
X06544Y01082
X06546Y01139
X0647Y01142
X06366Y01055
X0632379Y01094
X06366Y00916
X0656739Y00891
X06693Y00961
X06777Y0101
X0683Y0085
X06948Y0088
X06724Y00807
X06674Y00778
X0666Y00646
X06705Y0060984
X06656Y00518
X0669452Y00466
X0686Y0055817
X07084Y00514
X07004Y00213
X0726386Y0079
X0728Y00883
X07318Y00926
X07362Y00823
X0733Y00731
X07237Y01489
X06253Y00576
X074245Y006705
X07412Y00737
X07546Y00916
X07516Y01086
X07502Y01147
X0762Y01386
X0759Y01436
X0781006Y0161494
X07986Y01645
X08033Y01484
X08115Y0149
X08174Y01491
X08234Y01487
X08264Y01541
X08599Y01685
X08726Y01649
X08913Y0112
X0883983Y0059417
X0878Y00563
X0877Y00625
X08579Y00564
X08505Y00563
X08356Y00625
X08371Y00895
X08281Y00945
X08002Y01197
X0796Y00271
X08064Y00269
X08165Y00238
X08166Y00318
X0823Y00317
X0829Y00309
X0846Y00319
X08559Y00318
X0785Y00306
X077Y00264
X07735Y00213
X07478Y00306
X09Y00624
X0915Y00936
X09317Y00967
X09315Y00868
X09333Y01307
X09425Y01366
X09547Y01451
X09659Y01501
X09742Y01449
X10291Y01471
X10341Y01345
X1032Y01279
X10402Y01293
X103757Y01124
X10414Y01084
X10331Y01086
X10388Y00931
X1045049Y0093655
X10197Y00816
X10074Y00701
X10042Y00608
X09983Y00502
X09943Y00325
X09905Y00164
X0974725Y0019
X09643Y00249
X09522Y0027
X0979642Y0060148
X10288Y00608
X10273Y00435
X10121Y01012
X1050648Y00928
X1056Y00942
X10642Y00885
X10774Y009
X10947Y0098
X1091988Y0068888
X10862Y00586
X10838Y01599
X10666Y0149687
X10682Y01782
X10704Y02786
X10437Y02809
X10375Y0251
X10379Y02284
Y0188
X1013Y0198
X09834Y01696
X09504Y01802
X09432Y01847
X0944Y01976
X09505Y01928
X09475Y02215
X09529Y02316
X09365Y02351
X09393Y02482
X09283Y02516
X0921Y0257
X0914Y0261
X0912Y02548
X0917Y02479
X09021Y02509
X09034Y02314
X0906516Y02074
X09014Y02016
X0925Y0201582
X09504Y02577
X09505Y02706
X09676Y02687
X09656Y02587
X09646Y02824
X0977Y02835
X09943Y0295
X09576Y03016
X0943563Y02923
X0939882Y0286618
X093245Y030965
X0943516Y0315
X0938398Y03231
X08993
X10423Y03199
X0856516Y03245
X08824Y02811
X0883Y02525
X08795Y02435
X08925Y02468
X08718Y0261
X08668Y02575
X08638Y02203
X08371Y02108
X08231Y02305
X08201Y02489
X07865Y027
X0764409Y0269091
X0766Y02806
X07639Y02975
X07585Y02952
X07595Y03009
X07514Y03038
X07445Y0296507
X07396Y02803
X07507Y02737
X07517Y02326
X07515Y02205
X078655Y0170496
X0818839Y01858
X0787Y03077
X07818Y03122
X07745Y0323
X07616
X07515Y0321339
X07565Y03153
X07737Y02948
X0734Y03006
X073Y02927
X071Y0289988
X06974Y02917
X06967Y03024
X0706Y03003
X06978Y02787
X06929Y0282
X0688Y0285
X0698Y0265
X07125Y0242
X07352Y02361
X07372Y02224
X07332Y02022
X07157Y0199151
X07199Y02122
X07238Y0189731
X06908Y0185
X06864Y01804
X06571Y01715
X06557Y01893
X06571Y02211
Y0239
X06563Y02505
X06297Y02577
X06312Y0271
X06318Y0289
X06267Y02381
X06189Y024
X06277Y0229
X06255Y01823
X06257Y0176
X07366Y02626
X07371Y0313661
X05354Y03124
X05319Y02811
X05068
X05153Y02923
X047Y029
X044254Y017374
X03804Y017
X03734Y01701
X03543Y01744
X033Y01703
X03071Y02258
X0301Y02463
X03291Y02605
X03617Y02642
X03613Y02524
Y024
X03597Y02345
X03717Y02908
X03325Y0308182
X03098Y03033
X0312Y02965
X02592Y02664
X02584Y0259
X0257Y017
X02358Y019
X0185Y01835
X0164Y01724
X01432Y01953
X0122Y01949
X01145Y01722
X01189Y02236
X01419Y02159
X01466Y02459
X01575Y025
X01515Y027
X01519Y02846
X01172Y028
X01142Y029
X01102Y03
X00774Y03003
X00721Y03068
X00805Y032
X00537Y02799
X00523Y02708
X00618Y02702
X00468Y02645
X0090375Y018
X01092Y01774
X01102Y019
X00858Y03426
X00706Y03409
X00721Y03304
X00505Y03559
X01121Y03757
X01115Y04054
X01525Y04404
X01844Y03634
X02977Y036
X03971Y03558
X04041Y03408
X04601Y04188
X04841Y04168
X05381Y03578
X06262Y03369
X06569Y03338
X06954Y0334
X07063Y03365
X07061Y03685
X07256Y03732
X06852Y0374
X06746Y03709
Y03772
X06766Y0384
X06576Y03834
X06504Y03813
X0649602Y03904
X06404Y03882
X06477Y04059
X06501Y041238
X0661282Y0413561
X0665Y04059
X06571Y04063
X06703Y04196
X0679Y04302
X06923Y04355
X06973Y0438
X07017Y04208
X0703Y04092
X07163Y04247
X0713118Y0451082
X07216Y04658
X07363Y04651
X06893Y04594
X06859Y04537
X06715Y04519
X0668893Y04588
X06525Y0432
X06308Y04259
X0627775Y041538
X0627296Y04057
X06776Y03592
X0736948Y03324
X07451Y03355
X0759Y0329
X0811609Y03275
X08119Y03399
X08162Y03631
X08196Y03702
X0808833Y03756
X08038Y03608
X0836043Y0352157
X08475Y03518
X086Y03449
X0852Y03712
X08458Y03788
X08259Y03818
X08362Y03985
X08215Y04069
X08185Y0413
X0798Y04128
X07901Y04129
X0782Y04097
X0763Y04129
X07485Y0400361
X07397Y04266
X07485Y04504
X076Y04447
X0785Y04366
X0792Y04683
X08014Y0473821
X0819Y0471
X0857Y04683
X0855Y04797
X0867Y04436
X0879Y04417
X08846Y04129
X0891Y04122
X0878Y04049
Y03953
X08792Y03853
X089Y03887
X08876Y03756
X0836043Y03312
X07725Y03742
X0774Y04682
X08955Y04677
X09244Y04675
X0925Y0439397
X0931Y04393
X09417Y04398
X0915Y04363
X09Y0438831
X08967Y04107
X09049Y0411
X0914Y04047
X09185Y03917
X09154Y03761
X09084Y03731
X08976Y0379976
X09125Y03582
X092085Y034995
X0928161Y0348861
X09255Y0329802
X0919Y033
X09155Y03369
X09041Y03269
X09353Y03315
X09768Y03293
X0984057Y03271
X09758Y0346
X09673Y03539
X09629Y03585
X0944Y03685
X095Y03831
X09562
X09558Y04018
X09693Y03973
X09751Y03921
X09809Y0386736
X09889Y03836
X09851Y0397732
X09969Y0413
X10072Y04356
X1020334Y04412
X10269Y04373
X10448Y04399
X10474Y04285
X10404Y04142
X10326Y04125
X10424Y03744
X10419Y03543
X10314
X10417Y03307
X09938Y035
X10024Y03685
X10136Y03753
X09876Y04378
X09688Y04323
X09661Y04583
X09648Y04658
X0970247Y0467325
X0976Y0471436
X09859Y04727
X0992Y04757
X10046Y04717
X10042Y04662
X0998774Y0452411
X09786Y04599
X10247Y0461389
X093Y0413
X10674Y04113
X10681Y04052
X10842Y03968
X10906Y03931
X10847Y03857
X10877Y0374
X1083Y0415
X10789Y0424422
X10779Y04425
X1055207Y04546
Y03875
X10511Y03598
X10704Y03414
X1073Y0487
X10451Y0492
X10011Y04821
X08154Y04827
X0792Y0487
X03547Y04927
T02
X00423Y00248
Y00348
Y00448
Y00548
Y00648
Y00748
Y00848
Y00948
Y01048
Y01148
Y01248
Y01348
Y01448
Y01548
Y01648
X00623Y01653
Y01553
Y01453
Y01353
Y01253
Y01153
Y01053
Y00953
Y00853
Y00753
Y00653
Y00553
Y00453
Y00353
Y00253
X035Y007
X036
X037
X038
X039
X04
X041
X042
X043
X044
X046
X047
X048
X049
X05
X051
X052
X053
X054
X055
X00623Y01753
Y01853
Y01953
Y02053
Y02153
X00423Y02148
Y02048
Y01948
Y01848
Y01748
Y02804
Y02904
Y03004
Y03104
Y03204
X00623
Y03104
Y03004
Y02904
Y02804
Y03304
Y03404
Y03504
Y03604
Y03704
Y03804
Y03904
Y04004
Y04104
Y04204
Y04304
Y04404
Y04504
Y04604
Y04704
X00423
Y04604
Y04504
Y04404
Y04304
Y04204
Y04104
Y04004
Y03904
Y03804
Y03704
Y03604
Y03504
Y03404
Y03304
X035Y037
X036
X037
X038
X039
X04
X041
X042
X043
X044
X046
X047
X048
X049
X05
X051
X052
X053
X054
X055
T03
X019Y0025
X021
T04
X0388909Y01
X0430091
X046Y0149409
Y0190591
X0430091Y024
X046Y0299409
X0388909Y024
X046Y0340591
T05
X0376983Y0457598
Y0475315
X0449483
Y0457598
X0525483
Y0475315
T06
X002Y002
Y048
M30
