G04 Layer_Physical_Order=2*
G04 Layer_Color=16711680*
%FSLAX25Y25*%
%MOIN*%
G70*
G01*
G75*
%ADD19R,0.07874X0.03937*%
%ADD20R,0.03937X0.07874*%
%ADD22C,0.01000*%
%ADD23C,0.09100*%
%ADD24C,0.05906*%
%ADD25R,0.05906X0.05906*%
%ADD26R,0.05906X0.05906*%
%ADD27C,0.07874*%
%ADD28R,0.07874X0.07874*%
%ADD29R,0.07284X0.07284*%
%ADD30C,0.07284*%
%ADD31C,0.16000*%
%ADD32C,0.03000*%
%ADD33C,0.05000*%
D19*
X130291Y140000D02*
D03*
Y150000D02*
D03*
X99583Y210000D02*
D03*
Y190000D02*
D03*
Y180000D02*
D03*
Y170000D02*
D03*
Y200000D02*
D03*
Y250000D02*
D03*
Y220000D02*
D03*
Y230000D02*
D03*
Y240000D02*
D03*
Y260000D02*
D03*
Y300000D02*
D03*
Y270000D02*
D03*
Y280000D02*
D03*
Y290000D02*
D03*
Y310000D02*
D03*
Y350000D02*
D03*
Y320000D02*
D03*
Y330000D02*
D03*
Y340000D02*
D03*
Y360000D02*
D03*
X130291D02*
D03*
Y340000D02*
D03*
Y330000D02*
D03*
Y320000D02*
D03*
Y350000D02*
D03*
Y310000D02*
D03*
Y290000D02*
D03*
Y280000D02*
D03*
Y270000D02*
D03*
Y300000D02*
D03*
Y260000D02*
D03*
Y240000D02*
D03*
Y230000D02*
D03*
Y220000D02*
D03*
Y250000D02*
D03*
Y200000D02*
D03*
Y170000D02*
D03*
Y180000D02*
D03*
Y190000D02*
D03*
Y210000D02*
D03*
X289291D02*
D03*
Y190000D02*
D03*
Y180000D02*
D03*
Y170000D02*
D03*
Y200000D02*
D03*
Y250000D02*
D03*
Y220000D02*
D03*
Y230000D02*
D03*
Y240000D02*
D03*
Y260000D02*
D03*
Y300000D02*
D03*
Y270000D02*
D03*
Y280000D02*
D03*
Y290000D02*
D03*
Y310000D02*
D03*
Y350000D02*
D03*
Y320000D02*
D03*
Y330000D02*
D03*
Y340000D02*
D03*
Y360000D02*
D03*
X320000D02*
D03*
Y340000D02*
D03*
Y330000D02*
D03*
Y320000D02*
D03*
Y350000D02*
D03*
Y310000D02*
D03*
Y290000D02*
D03*
Y280000D02*
D03*
Y270000D02*
D03*
Y300000D02*
D03*
Y260000D02*
D03*
Y240000D02*
D03*
Y230000D02*
D03*
Y220000D02*
D03*
Y250000D02*
D03*
Y200000D02*
D03*
Y170000D02*
D03*
Y180000D02*
D03*
Y190000D02*
D03*
Y210000D02*
D03*
X130291Y160000D02*
D03*
X99583Y140000D02*
D03*
Y150000D02*
D03*
Y160000D02*
D03*
X320000D02*
D03*
Y150000D02*
D03*
Y140000D02*
D03*
X289291D02*
D03*
Y150000D02*
D03*
Y160000D02*
D03*
X670354Y195000D02*
D03*
Y175000D02*
D03*
Y165000D02*
D03*
Y155000D02*
D03*
Y185000D02*
D03*
Y235000D02*
D03*
Y205000D02*
D03*
Y215000D02*
D03*
Y225000D02*
D03*
Y245000D02*
D03*
Y285000D02*
D03*
Y255000D02*
D03*
Y265000D02*
D03*
Y275000D02*
D03*
Y295000D02*
D03*
Y335000D02*
D03*
Y305000D02*
D03*
Y315000D02*
D03*
Y325000D02*
D03*
Y345000D02*
D03*
X639646D02*
D03*
Y325000D02*
D03*
Y315000D02*
D03*
Y305000D02*
D03*
Y335000D02*
D03*
Y295000D02*
D03*
Y275000D02*
D03*
Y265000D02*
D03*
Y255000D02*
D03*
Y285000D02*
D03*
Y245000D02*
D03*
Y225000D02*
D03*
Y215000D02*
D03*
Y205000D02*
D03*
Y235000D02*
D03*
Y185000D02*
D03*
Y155000D02*
D03*
Y165000D02*
D03*
Y175000D02*
D03*
Y195000D02*
D03*
X1029646Y305000D02*
D03*
Y325000D02*
D03*
Y335000D02*
D03*
Y345000D02*
D03*
Y315000D02*
D03*
Y265000D02*
D03*
Y295000D02*
D03*
Y285000D02*
D03*
Y275000D02*
D03*
Y255000D02*
D03*
Y215000D02*
D03*
Y245000D02*
D03*
Y235000D02*
D03*
Y225000D02*
D03*
Y205000D02*
D03*
Y165000D02*
D03*
Y195000D02*
D03*
Y185000D02*
D03*
Y175000D02*
D03*
Y155000D02*
D03*
X1060354D02*
D03*
Y175000D02*
D03*
Y185000D02*
D03*
Y195000D02*
D03*
Y165000D02*
D03*
Y205000D02*
D03*
Y225000D02*
D03*
Y235000D02*
D03*
Y245000D02*
D03*
Y215000D02*
D03*
Y255000D02*
D03*
Y275000D02*
D03*
Y285000D02*
D03*
Y295000D02*
D03*
Y265000D02*
D03*
Y315000D02*
D03*
Y345000D02*
D03*
Y335000D02*
D03*
Y325000D02*
D03*
Y305000D02*
D03*
D20*
X900000Y429646D02*
D03*
X920000D02*
D03*
X930000D02*
D03*
X940000D02*
D03*
X910000D02*
D03*
X860000D02*
D03*
X890000D02*
D03*
X880000D02*
D03*
X870000D02*
D03*
X850000D02*
D03*
X810000D02*
D03*
X840000D02*
D03*
X830000D02*
D03*
X820000D02*
D03*
X800000D02*
D03*
X760000D02*
D03*
X790000D02*
D03*
X780000D02*
D03*
X770000D02*
D03*
X750000D02*
D03*
Y460354D02*
D03*
X770000D02*
D03*
X780000D02*
D03*
X790000D02*
D03*
X760000D02*
D03*
X800000D02*
D03*
X820000D02*
D03*
X830000D02*
D03*
X840000D02*
D03*
X810000D02*
D03*
X850000D02*
D03*
X870000D02*
D03*
X880000D02*
D03*
X890000D02*
D03*
X860000D02*
D03*
X910000D02*
D03*
X940000D02*
D03*
X930000D02*
D03*
X920000D02*
D03*
X900000D02*
D03*
X790000Y70354D02*
D03*
X770000D02*
D03*
X760000D02*
D03*
X750000D02*
D03*
X780000D02*
D03*
X830000D02*
D03*
X800000D02*
D03*
X810000D02*
D03*
X820000D02*
D03*
X840000D02*
D03*
X880000D02*
D03*
X850000D02*
D03*
X860000D02*
D03*
X870000D02*
D03*
X890000D02*
D03*
X930000D02*
D03*
X900000D02*
D03*
X910000D02*
D03*
X920000D02*
D03*
X940000D02*
D03*
Y39646D02*
D03*
X920000D02*
D03*
X910000D02*
D03*
X900000D02*
D03*
X930000D02*
D03*
X890000D02*
D03*
X870000D02*
D03*
X860000D02*
D03*
X850000D02*
D03*
X880000D02*
D03*
X840000D02*
D03*
X820000D02*
D03*
X810000D02*
D03*
X800000D02*
D03*
X830000D02*
D03*
X780000D02*
D03*
X750000D02*
D03*
X760000D02*
D03*
X770000D02*
D03*
X790000D02*
D03*
D22*
X667100Y150500D02*
X670300Y147300D01*
Y144300D02*
Y147300D01*
X661300Y151200D02*
Y158700D01*
X652600Y157321D02*
X656600Y153321D01*
Y110100D02*
Y153321D01*
X658500Y145240D02*
Y156991D01*
Y145240D02*
X668040Y135700D01*
X676300Y145400D02*
Y164000D01*
X669400Y138500D02*
X676300Y145400D01*
X669200Y138500D02*
X669400D01*
X675300Y165000D02*
X676300Y164000D01*
X668040Y135700D02*
X671316D01*
X682300Y124716D01*
X656600Y110100D02*
X679500Y87200D01*
X667100Y150500D02*
Y155000D01*
X684100Y76329D02*
Y159500D01*
X687000Y133227D02*
Y149900D01*
X530500Y432000D02*
X555800D01*
X575400Y373700D02*
X713500D01*
X553700D02*
X575400D01*
X555800Y432000D02*
X575400Y412400D01*
Y373700D02*
Y412400D01*
X434400Y90800D02*
X447100Y103500D01*
X413000Y90800D02*
X434400D01*
X343500Y405300D02*
X354300D01*
X330200Y392000D02*
X343500Y405300D01*
X330200Y375400D02*
Y392000D01*
Y375400D02*
X350200Y355400D01*
X357900D01*
X385600Y293979D02*
Y315900D01*
X333700Y367800D02*
X385600Y315900D01*
X210500Y367800D02*
X333700D01*
X369500Y408600D02*
X400800D01*
X364700Y403800D02*
X369500Y408600D01*
X364700Y399100D02*
Y403800D01*
X357500Y391900D02*
X364700Y399100D01*
X344000Y391900D02*
X357500D01*
X335000Y382900D02*
X344000Y391900D01*
X335000Y378200D02*
Y382900D01*
X400800Y408600D02*
X401600Y407800D01*
X335000Y378200D02*
X343200Y370000D01*
X350000D01*
X289300Y207500D02*
Y210000D01*
X20000Y168300D02*
X24000D01*
X98300Y300000D02*
Y302700D01*
X1003000Y315000D02*
X1029646D01*
X986700D02*
X1003000D01*
X908600Y321300D02*
X980400D01*
X886500D02*
X908600D01*
X968600Y340200D02*
Y369659D01*
X908600Y321300D02*
X908700Y321400D01*
X906100Y318800D02*
X908600Y321300D01*
X820304Y145500D02*
X902000D01*
X809700D02*
X820304D01*
X823800Y142004D01*
X817304Y148500D02*
X820304Y145500D01*
X1056000Y185000D02*
Y187698D01*
X1027700Y345000D02*
Y375400D01*
X743100Y140600D02*
X763900Y161400D01*
X629400Y370900D02*
X710700D01*
X592760D02*
X629400D01*
X732000Y362700D02*
X747000Y347700D01*
X731200Y363500D02*
X732000Y362700D01*
X446500Y363500D02*
X731200D01*
X1067000Y451500D02*
X1072600Y457100D01*
X1051100Y435600D02*
X1067000Y451500D01*
X943000Y125800D02*
Y130900D01*
Y122700D02*
Y125800D01*
X948000Y120800D01*
X942800Y126000D02*
X943000Y125800D01*
X756700Y380800D02*
X761900Y375600D01*
X642700Y73600D02*
X643802Y72498D01*
X940000Y74400D02*
X968600D01*
X331600Y354100D02*
X352400Y333300D01*
X940000Y433100D02*
X948064D01*
X920000Y427700D02*
X922908D01*
X804969D02*
X810000D01*
X796861Y431290D02*
X800000D01*
X648400Y429600D02*
X750000D01*
X691560Y458400D02*
X750000D01*
X641600Y93400D02*
Y155000D01*
X637700Y161600D02*
Y165000D01*
X705150Y71600D02*
X750000D01*
X755812Y68512D02*
X760000D01*
X765700Y68400D02*
X770000D01*
X776600Y72300D02*
X780000D01*
X1056000Y325000D02*
Y329900D01*
X99500Y250000D02*
Y252000D01*
X116700Y170000D02*
X130291D01*
X113000Y173700D02*
X116700Y170000D01*
X94800Y173700D02*
X113000D01*
X93500Y175000D02*
X94800Y173700D01*
X50000Y175000D02*
X93500D01*
X82553Y180000D02*
X99583D01*
X43700Y172000D02*
Y175000D01*
X48100Y179400D01*
X51900D01*
X54200Y177100D01*
X93900D01*
X94400Y176600D01*
X116800D01*
X120200Y180000D01*
X130291D01*
X107400Y190000D02*
X130291D01*
X102100Y184700D02*
X107400Y190000D01*
X71647Y184700D02*
X102100D01*
X86200Y190000D02*
X99583D01*
X90800Y297800D02*
X92600Y296000D01*
X106100D01*
X110100Y300000D01*
X130291D01*
X248200D02*
X289291D01*
X115000Y200000D02*
X130291D01*
X99583Y160000D02*
Y162000D01*
X96583Y165000D02*
X99583Y162000D01*
X50000Y165000D02*
X96583D01*
X208000Y280000D02*
X289291D01*
X203000Y285000D02*
X208000Y280000D01*
X320000Y310000D02*
X327200D01*
X328200Y309000D01*
X237800Y310000D02*
X289291D01*
X312100Y284100D02*
Y288000D01*
X314100Y290000D01*
X320000D01*
X289291D02*
X306000D01*
X50000Y385000D02*
Y388747D01*
X45747Y393000D02*
X50000Y388747D01*
X45747Y393000D02*
Y397847D01*
X47900Y400000D01*
X178300D01*
X210500Y367800D01*
X385600Y293979D02*
X391300Y288279D01*
Y260802D02*
Y288279D01*
X370498Y240000D02*
X391300Y260802D01*
X320000Y240000D02*
X370498D01*
X193200Y280000D02*
X196469Y276731D01*
X293931D01*
X297200Y280000D01*
X320000D01*
X164300Y308800D02*
X230200D01*
X237400Y316000D01*
X293600D01*
X294600Y317000D01*
Y329000D01*
X293600Y330000D02*
X294600Y329000D01*
X289291Y330000D02*
X293600D01*
X114700Y305200D02*
X124500Y315000D01*
X173500D01*
X175500Y313000D01*
X228300D01*
X235300Y320000D01*
X289291D01*
X20000Y325000D02*
X45600Y299400D01*
Y271300D02*
Y299400D01*
Y271300D02*
X86900Y230000D01*
X99583D01*
X20000Y335000D02*
X45600Y309400D01*
X51900D01*
X56700Y304600D01*
Y271100D02*
Y304600D01*
Y271100D02*
X87800Y240000D01*
X99583D01*
X59600Y279500D02*
X69100Y270000D01*
X99583D01*
X20000Y345000D02*
X24000D01*
X36000Y333000D01*
Y324500D02*
Y333000D01*
Y324500D02*
X40000Y320500D01*
X70175D01*
X75000Y315675D01*
Y291500D02*
Y315675D01*
Y291500D02*
X91500Y275000D01*
X123300D01*
X128300Y270000D01*
X130291D01*
X15600Y29400D02*
X20000Y25000D01*
X15600Y29400D02*
Y36900D01*
X18000Y39300D01*
X21000D01*
X41000Y59300D01*
X196200D01*
X276900Y140000D01*
X289291D01*
X61100Y96300D02*
X209900D01*
X277200Y163600D01*
X300000D01*
X304700Y158900D01*
Y156000D02*
Y158900D01*
Y156000D02*
X310700Y150000D01*
X320000D01*
X280800Y160000D02*
X289291D01*
X262900Y142100D02*
X280800Y160000D01*
X13800Y68800D02*
X20000Y75000D01*
X13800Y22900D02*
Y68800D01*
Y22900D02*
X21300Y15400D01*
X190400D01*
X310200Y135200D01*
X346900D01*
X351700Y140000D01*
Y183900D01*
X381200Y213400D01*
Y230300D01*
X380100Y231400D02*
X381200Y230300D01*
X352000Y231400D02*
X380100D01*
X347100Y226500D02*
X352000Y231400D01*
X347100Y164000D02*
Y226500D01*
X343100Y160000D02*
X347100Y164000D01*
X320000Y160000D02*
X343100D01*
X20000Y105000D02*
X24300Y109300D01*
X197000D01*
X267700Y180000D01*
X289291D01*
X20000Y115000D02*
X24300Y119300D01*
X198864D01*
X262833Y183269D01*
X294331D01*
X297600Y180000D01*
X320000D01*
X304900Y190000D02*
X320000D01*
X312100Y186100D02*
X312400Y186400D01*
X325400D01*
Y198900D01*
X320000Y200000D02*
X325400Y198900D01*
X15600Y170600D02*
X20000Y175000D01*
X15600Y153100D02*
Y170600D01*
Y153100D02*
X18100Y150600D01*
X88500D01*
X91400Y153500D01*
X178200D01*
X215500Y190800D01*
X274100D01*
X277800Y194500D01*
X300000D01*
X304700Y199200D01*
Y204000D01*
X310700Y210000D01*
X320000D01*
X289291Y220000D02*
X302200D01*
X305500Y223300D01*
X325300D01*
Y216000D02*
Y223300D01*
X322600Y213300D02*
X325300Y216000D01*
X203066Y213300D02*
X322600D01*
X201866Y212100D02*
X203066Y213300D01*
X147300Y212100D02*
X201866D01*
X144600Y214800D02*
X147300Y212100D01*
X56453Y214800D02*
X144600D01*
X51953Y219300D02*
X56453Y214800D01*
X34300Y219300D02*
X51953D01*
X20000Y205000D02*
X34300Y219300D01*
X320000Y230000D02*
X338600D01*
X341300Y227300D01*
Y196100D02*
Y227300D01*
X328500Y183300D02*
X341300Y196100D01*
X296856Y183300D02*
X328500D01*
X295056Y185100D02*
X296856Y183300D01*
X252700Y185100D02*
X295056D01*
X196900Y129300D02*
X252700Y185100D01*
X17400Y129300D02*
X196900D01*
X13800Y132900D02*
X17400Y129300D01*
X13800Y132900D02*
Y178800D01*
X20000Y185000D01*
X15600Y199400D02*
X20000Y195000D01*
X15600Y199400D02*
Y225500D01*
X19900Y229800D01*
X55900D01*
X59400Y226300D01*
X147900D01*
X151600Y230000D01*
X289291D01*
X50000Y445000D02*
X212200D01*
X261400Y395800D01*
Y266700D02*
X296400D01*
X299700Y270000D01*
X320000D01*
X161400Y338200D02*
X177400Y354200D01*
X293400D01*
X294600Y353000D01*
Y341000D02*
Y353000D01*
X289291Y340000D02*
X294600Y341000D01*
X298500Y340000D02*
X320000D01*
X292100Y333600D02*
X298500Y340000D01*
X224600Y333600D02*
X292100D01*
X207800Y316800D02*
X224600Y333600D01*
X185000Y350000D02*
X289291D01*
X167200Y332200D02*
X185000Y350000D01*
X207600Y357200D02*
X208100Y356700D01*
X298000D01*
X304700Y350000D01*
X320000D01*
X79200Y329700D02*
X88900Y320000D01*
X99583D01*
X87000Y335900D02*
X92900Y330000D01*
X99583D01*
X92600Y340000D02*
X99583D01*
X82100Y350500D02*
X92600Y340000D01*
X139600Y210000D02*
X141600Y212000D01*
X130291Y210000D02*
X139600D01*
X1029646Y295000D02*
X1044000D01*
X1048500Y299500D01*
Y333769D01*
X1042200Y340069D02*
X1048500Y333769D01*
X1026031Y340069D02*
X1042200D01*
X970100Y396000D02*
X1026031Y340069D01*
X908700Y396000D02*
X970100D01*
X904284Y391584D02*
X908700Y396000D01*
X839884Y391584D02*
X904284D01*
X823500Y375200D02*
X839884Y391584D01*
X784000Y375200D02*
X823500D01*
X782300Y376900D02*
X784000Y375200D01*
X782300Y376900D02*
Y394500D01*
X775300Y401500D02*
X782300Y394500D01*
X1040300Y155000D02*
X1043700Y158400D01*
X1029646Y155000D02*
X1040300D01*
X727100Y91400D02*
Y91975D01*
X720500Y84800D02*
X727100Y91400D01*
X687400Y84800D02*
X720500D01*
X686900Y84300D02*
X687400Y84800D01*
X972600Y372716D02*
X998000Y347316D01*
Y320000D02*
Y347316D01*
Y320000D02*
X1003000Y315000D01*
X803500Y295000D02*
X834200D01*
X839247Y300047D01*
X878161Y337400D01*
X923641D01*
X925552Y339311D01*
X938252D01*
X968600Y369659D01*
Y376716D01*
X923900Y164300D02*
X958798D01*
X917500Y157900D02*
X923900Y164300D01*
X917500Y143700D02*
Y157900D01*
X914300Y140500D02*
X917500Y143700D01*
X908700Y140500D02*
X914300D01*
X726016Y100382D02*
X745759D01*
X750841Y95300D01*
X774000D01*
X778000Y91300D01*
X785500D01*
X788700Y94500D01*
Y139000D01*
X798200Y148500D01*
X817304D01*
X796400Y358900D02*
X880900D01*
X1050900Y175000D02*
X1060354D01*
X1043700Y167800D02*
X1050900Y175000D01*
X1002500Y81500D02*
X1045600Y124600D01*
X990800Y81500D02*
X1002500D01*
X990200Y82100D02*
X990800Y81500D01*
X979400Y82100D02*
X990200D01*
X975200Y77900D02*
X979400Y82100D01*
X1055500Y195000D02*
X1060354D01*
X1052500Y198000D02*
X1055500Y195000D01*
X1052500Y198000D02*
Y211535D01*
X1048734Y215300D02*
X1052500Y211535D01*
X1041100Y215300D02*
X1048734D01*
X1035300Y221100D02*
X1041100Y215300D01*
X972800Y221100D02*
X1035300D01*
X971400Y219700D02*
X972800Y221100D01*
X944138Y219700D02*
X971400D01*
X903138Y260700D02*
X944138Y219700D01*
X775800Y260700D02*
X903138D01*
X773300Y258200D02*
X775800Y260700D01*
X756700Y258200D02*
X773300D01*
X754300Y255800D02*
X756700Y258200D01*
X736800Y255800D02*
X754300D01*
X732400Y260200D02*
X736800Y255800D01*
X650950Y260200D02*
X732400D01*
X650650Y259900D02*
X650950Y260200D01*
X578400Y259900D02*
X650650D01*
X570100Y251600D02*
X578400Y259900D01*
X402580Y251600D02*
X570100D01*
X390097Y239116D02*
X402580Y251600D01*
X381616Y239116D02*
X390097D01*
X377700Y235200D02*
X381616Y239116D01*
X275500Y235200D02*
X377700D01*
X270700Y240000D02*
X275500Y235200D01*
X130291Y240000D02*
X270700D01*
X1006200Y235000D02*
X1029646D01*
X126000Y250000D02*
X130291D01*
X125000Y249000D02*
X126000Y250000D01*
X125000Y237200D02*
Y249000D01*
Y237200D02*
X128900Y233300D01*
X379400D01*
X381700Y235600D01*
X388300D01*
X402200Y221700D01*
X644900D01*
X655200Y232000D01*
X657400D01*
X660800Y228600D01*
X735496D01*
X740496Y233600D01*
X900100D01*
X915800Y217900D01*
X972500D01*
X973300Y218700D01*
X1034900D01*
X1041600Y212000D01*
X1044500D01*
X1046600Y209900D01*
Y197098D02*
Y209900D01*
Y197098D02*
X1056000Y187698D01*
Y185000D02*
X1060354D01*
X808500Y405300D02*
X860600D01*
X861600Y406300D01*
Y409500D01*
X864000Y411900D01*
X867800D01*
X869500Y410200D01*
X898600D01*
X901100Y407700D01*
X962335D01*
X963935Y406100D01*
X997000D01*
X1027700Y375400D01*
Y345000D02*
X1029646D01*
X907463Y215000D02*
X1029646D01*
X897163Y204700D02*
X907463Y215000D01*
X866315Y204700D02*
X897163D01*
X865401Y203785D02*
X866315Y204700D01*
X829317Y203785D02*
X865401D01*
X825763Y200231D02*
X829317Y203785D01*
X785769Y200231D02*
X825763D01*
X765740Y220260D02*
X785769Y200231D01*
X758160Y220260D02*
X765740D01*
X741500Y203600D02*
X758160Y220260D01*
X697900Y203600D02*
X741500D01*
X675900Y181600D02*
X697900Y203600D01*
X665900Y181600D02*
X675900D01*
X662500Y178200D02*
X665900Y181600D01*
X662500Y172769D02*
Y178200D01*
X659000Y169269D02*
X662500Y172769D01*
X992900Y185000D02*
X1029646D01*
X968700Y266300D02*
X986900D01*
X990600Y270000D01*
Y301300D02*
X1037500D01*
X1010500Y285000D02*
X1029646D01*
X981600Y256100D02*
X1010500Y285000D01*
X1029646Y265000D02*
X1037830D01*
X1038430Y265600D01*
X1042300D01*
X1055100Y252800D01*
Y251500D02*
Y252800D01*
Y251500D02*
X1077700D01*
X1083500Y245700D01*
X1059100Y41400D02*
X1073700Y56000D01*
X958000Y41400D02*
X1059100D01*
X1024400Y325000D02*
X1029646D01*
X969884Y379516D02*
X1024400Y325000D01*
X954816Y379516D02*
X969884D01*
X931400Y356100D02*
X954816Y379516D01*
X788300Y356100D02*
X931400D01*
X765500Y378900D02*
X788300Y356100D01*
X765500Y378900D02*
Y437100D01*
X985800Y205000D02*
X1029646D01*
X983600Y202800D02*
X985800Y205000D01*
X889700Y202800D02*
X983600D01*
X886921Y200021D02*
X889700Y202800D01*
X828952Y200021D02*
X886921D01*
X827362Y198431D02*
X828952Y200021D01*
X780825Y198431D02*
X827362D01*
X777700Y201557D02*
X780825Y198431D01*
X777700Y201557D02*
Y205600D01*
X765300Y218000D02*
X777700Y205600D01*
X759700Y218000D02*
X765300D01*
X758600Y216900D02*
X759700Y218000D01*
X758600Y213900D02*
Y216900D01*
X746467Y201767D02*
X758600Y213900D01*
X698967Y201767D02*
X746467D01*
X676100Y178900D02*
X698967Y201767D01*
X666000Y178900D02*
X676100D01*
X664500Y177400D02*
X666000Y178900D01*
X664500Y168969D02*
Y177400D01*
X661931Y166400D02*
X664500Y168969D01*
X657800Y166400D02*
X661931D01*
X656200Y168000D02*
X657800Y166400D01*
X656200Y168000D02*
Y173500D01*
X657700Y175000D01*
X925700Y21700D02*
X1082700D01*
X1089200Y28200D01*
Y55000D01*
X1052200Y280000D02*
X1076950D01*
X1047200Y275000D02*
X1052200Y280000D01*
X1029646Y275000D02*
X1047200D01*
X1008300Y398900D02*
X1019700Y410300D01*
X1031700D01*
X440000Y383000D02*
X455700Y367300D01*
Y365700D02*
Y367300D01*
Y365700D02*
X587560D01*
X592760Y370900D01*
X798900Y397800D02*
X856000D01*
X866200Y408000D01*
X1007600Y103400D02*
X1009700Y105500D01*
Y120500D01*
X770100Y260100D02*
X774400Y264400D01*
X742500Y260100D02*
X770100D01*
X710100Y158000D02*
X738700D01*
X703800Y151700D02*
X710100Y158000D01*
X684600Y167900D02*
X687000Y170300D01*
Y149900D02*
Y161500D01*
X688800Y151700D02*
X703800D01*
X687000Y149900D02*
X688800Y151700D01*
X987085Y429400D02*
X990085Y432400D01*
X1003600D01*
X1005500Y430500D01*
X1034600D01*
X1040770Y424330D01*
X1056630D01*
X1064000Y431700D01*
X843556Y383957D02*
X846400Y386800D01*
X910900D01*
X911000Y386700D01*
X778400Y257700D02*
X851800D01*
X628500Y87800D02*
X642700Y73600D01*
X650100D01*
X948000Y120800D02*
X963000D01*
X942800Y126000D02*
Y130700D01*
X940900Y133000D02*
X942800Y130700D01*
X1016700Y75000D02*
X1023400Y81700D01*
X971500Y75000D02*
X1016700D01*
X956800Y89700D02*
X971500Y75000D01*
X954300Y89700D02*
X956800D01*
X954300Y96500D02*
Y111400D01*
X943000Y122700D02*
X954300Y111400D01*
X940900Y133000D02*
X943000Y130900D01*
X171500Y140000D02*
X173500Y138000D01*
X130291Y140000D02*
X171500D01*
X1013880Y449400D02*
X1017000Y446280D01*
X952700Y449400D02*
X1013880D01*
X950100Y452000D02*
X952700Y449400D01*
X950100Y452000D02*
Y474400D01*
X906500Y441800D02*
X907900Y440400D01*
Y435800D02*
Y440400D01*
Y435800D02*
X910000Y433700D01*
Y429646D02*
Y433700D01*
X900000Y424900D02*
Y429646D01*
Y424900D02*
X903208Y423900D01*
X908100Y419008D01*
X947622D01*
X948814Y420200D01*
X966200D01*
X880000Y429646D02*
Y434100D01*
X879200Y434900D02*
X880000Y434100D01*
X866700Y434900D02*
X879200D01*
X866700Y418500D02*
Y434900D01*
Y418500D02*
X872000Y413200D01*
X898669D01*
X902169Y409700D01*
X963935D01*
X965673Y407962D01*
X1002762D01*
X1004400Y409600D01*
X796100Y409800D02*
X797026D01*
X809826Y422600D01*
X826400D01*
X830000Y426200D01*
Y429646D01*
X789400Y413000D02*
Y413431D01*
X800378Y424408D01*
X803269D01*
X804969Y427700D01*
X810000D02*
Y429646D01*
X780600Y409831D02*
Y411831D01*
X786266Y417496D01*
Y434883D01*
X793269D01*
X796861Y431290D01*
X800000Y429646D02*
Y431290D01*
X683300Y447500D02*
Y449500D01*
Y447500D02*
X686100Y444700D01*
X778600D01*
X780000Y443300D01*
Y429646D02*
Y443300D01*
X633200Y435700D02*
X638500Y430400D01*
X646500D01*
X654100Y438000D01*
X755700D01*
X760000Y433700D01*
Y429646D02*
Y433700D01*
X770000Y460354D02*
Y465700D01*
X768000Y467700D02*
X770000Y465700D01*
X688060Y467700D02*
X768000D01*
X680079Y459720D02*
X688060Y467700D01*
X680079Y456179D02*
Y459720D01*
X669300Y445400D02*
X680079Y456179D01*
X664000Y445400D02*
X669300D01*
X657400Y452000D02*
X664000Y445400D01*
X629300Y452000D02*
X657400D01*
X625300Y448000D02*
X629300Y452000D01*
X625300Y441600D02*
Y448000D01*
X800000Y460354D02*
Y468695D01*
X803105Y471800D01*
X808329D01*
X809229Y470900D01*
X860950D01*
X862950Y472900D01*
X938900D01*
X947700Y464100D01*
Y441861D02*
Y464100D01*
X946000Y440161D02*
X947700Y441861D01*
X940956Y440161D02*
X946000D01*
X940294Y439500D02*
X940956Y440161D01*
X919487Y439500D02*
X940294D01*
X911887Y447100D02*
X919487Y439500D01*
X881000Y447100D02*
X911887D01*
X874000Y440100D02*
X881000Y447100D01*
X869000Y371200D02*
X870200Y370000D01*
X919639D01*
X925300Y375661D01*
Y377400D01*
X903400Y461600D02*
X910100Y468300D01*
X903400Y455200D02*
Y461600D01*
X903200Y455000D02*
X903400Y455200D01*
X877100Y455000D02*
X903200D01*
X876000Y456100D02*
X877100Y455000D01*
X876000Y456100D02*
Y464600D01*
X873100Y467500D02*
X876000Y464600D01*
X842100Y467500D02*
X873100D01*
X840000Y465400D02*
X842100Y467500D01*
X840000Y460354D02*
Y465400D01*
X773200Y281500D02*
X783100Y291400D01*
Y298000D01*
X784700Y299600D01*
X827400D01*
X870800Y343000D01*
X912500D01*
X907260Y417208D02*
X956000D01*
X905269Y419200D02*
X907260Y417208D01*
X901500Y419200D02*
X905269D01*
X896500Y424200D02*
X901500Y419200D01*
X896500Y424200D02*
Y432000D01*
X891700Y436800D02*
X896500Y432000D01*
X872000Y436800D02*
X891700D01*
X870000Y438800D02*
X872000Y436800D01*
X870000Y438800D02*
Y460354D01*
X880000D02*
Y465200D01*
X876900Y468300D02*
X880000Y465200D01*
X855095Y299800D02*
X878900D01*
X833895Y278600D02*
X855095Y299800D01*
X780000Y278600D02*
X833895D01*
X793300Y273700D02*
X842700D01*
X848500Y279500D01*
X878300D01*
X882800Y284000D01*
Y304300D01*
X890000Y466600D02*
X891700Y468300D01*
X890000Y460354D02*
Y466600D01*
X785900Y294900D02*
Y295900D01*
Y294900D02*
X787000Y293800D01*
X795700D01*
X799700Y297800D01*
X834000D01*
X875600Y339400D01*
X920000D01*
X924900Y344300D01*
X937300D01*
X933300Y442700D02*
Y465592D01*
X933292Y465600D02*
X933300Y465592D01*
X911600Y465600D02*
X933292D01*
X910000Y464000D02*
X911600Y465600D01*
X910000Y460354D02*
Y464000D01*
X920000Y443195D02*
Y460354D01*
X881810Y335000D02*
X926800D01*
X845000Y298190D02*
X881810Y335000D01*
X840190Y298190D02*
X845000D01*
X830000Y288000D02*
X840190Y298190D01*
X793200Y288000D02*
X830000D01*
X786700Y281500D02*
X793200Y288000D01*
X792300Y281600D02*
X829800D01*
X844187Y295987D01*
X847480D01*
X882925Y331431D01*
X942073D01*
X959400Y348759D01*
X925900Y443600D02*
X930000Y447700D01*
Y460354D01*
X771800Y302700D02*
Y332000D01*
X775800Y336000D01*
X839900D01*
X857700Y353800D01*
X932700D01*
X939200Y360300D01*
X944650D01*
X940000Y447800D02*
X944800Y443000D01*
X940000Y447800D02*
Y460354D01*
X637700Y165000D02*
X639646D01*
X634400Y158300D02*
X637700Y161600D01*
X634400Y95546D02*
Y158300D01*
Y95546D02*
X653000Y76946D01*
Y66500D02*
Y76946D01*
Y66500D02*
X661352Y58148D01*
X664652D01*
X665100Y57700D01*
X758700D01*
X762500Y61500D01*
X766851D01*
X768651Y63300D01*
X821991D01*
X823400Y64709D01*
Y75673D01*
X822400Y76673D02*
X823400Y75673D01*
X822400Y76673D02*
Y105800D01*
X822200Y106000D02*
X822400Y105800D01*
X809600Y207300D02*
X821531D01*
X806000Y210900D02*
X809600Y207300D01*
X782300Y210900D02*
X806000D01*
X774800Y218400D02*
X782300Y210900D01*
X774800Y218400D02*
Y221243D01*
X772183Y223860D02*
X774800Y221243D01*
X751960Y223860D02*
X772183D01*
X737300Y209200D02*
X751960Y223860D01*
X723069Y209200D02*
X737300D01*
X722069Y210200D02*
X723069Y209200D01*
X663449Y210200D02*
X722069D01*
X663000Y209751D02*
X663449Y210200D01*
X663000Y204950D02*
Y209751D01*
X661400Y203350D02*
X663000Y204950D01*
X661400Y199600D02*
Y203350D01*
X646800Y185000D02*
X661400Y199600D01*
X639646Y185000D02*
X646800D01*
X635400Y195000D02*
X639646D01*
X634400Y194000D02*
X635400Y195000D01*
X634400Y182000D02*
Y194000D01*
Y182000D02*
X636400Y180000D01*
X647954D01*
X663300Y195346D01*
Y200900D01*
X665100Y202700D01*
Y208251D01*
X665117Y208269D01*
X720400D01*
X721269Y207400D01*
X742000D01*
X756660Y222060D01*
X771358D01*
X773000Y220418D01*
Y216600D02*
Y220418D01*
Y216600D02*
X780600Y209000D01*
X804300D01*
X809469Y203831D01*
X822163D01*
X824400Y206069D01*
Y210000D01*
X821400Y213000D02*
X824400Y210000D01*
X810600Y213000D02*
X821400D01*
X788400Y241100D02*
X816931D01*
X786500Y243000D02*
X788400Y241100D01*
X732955Y243000D02*
X786500D01*
X731055Y241100D02*
X732955Y243000D01*
X631700Y241100D02*
X731055D01*
X631700Y215000D02*
X639646D01*
Y245000D02*
X645800D01*
X649500Y248700D01*
X708517D01*
X711217Y251400D01*
X715060D01*
X717960Y248500D01*
X767874D01*
X769974Y250600D01*
X783600D01*
X784300Y249900D01*
X900598D01*
X913098Y237400D01*
X639646Y265000D02*
X659100D01*
X663200Y269100D01*
X780541D01*
X784841Y264800D01*
X844100D01*
X852500Y273200D01*
X902700D01*
X911330Y264570D01*
X909100Y275000D02*
X913250Y270850D01*
X850700Y275000D02*
X909100D01*
X846800Y271100D02*
X850700Y275000D01*
X796348Y271100D02*
X846800D01*
X795248Y270000D02*
X796348Y271100D01*
X788248Y270000D02*
X795248D01*
X787248Y271000D02*
X788248Y270000D01*
X666600Y271000D02*
X787248D01*
X662600Y275000D02*
X666600Y271000D01*
X639646Y275000D02*
X662600D01*
X846200Y284600D02*
X861500D01*
X838400Y276800D02*
X846200Y284600D01*
X785800Y276800D02*
X838400D01*
X781800Y272800D02*
X785800Y276800D01*
X760500Y272800D02*
X781800D01*
X759200Y274100D02*
X760500Y272800D01*
X759200Y274100D02*
Y294100D01*
X756700Y296600D02*
X759200Y294100D01*
X720000Y296600D02*
X756700D01*
X714500Y291100D02*
X720000Y296600D01*
X663200Y291100D02*
X714500D01*
X657100Y285000D02*
X663200Y291100D01*
X639646Y285000D02*
X657100D01*
X639646Y295000D02*
X662582D01*
X666082Y298500D01*
X713700D01*
X727000Y212100D02*
X737400D01*
X750960Y225660D01*
X774958D01*
X776700Y223918D01*
Y221400D02*
Y223918D01*
Y221400D02*
X782000Y216100D01*
X903700D01*
X907000Y219400D01*
X735300Y194800D02*
X876300D01*
X656000Y310700D02*
X732200D01*
X651700Y315000D02*
X656000Y310700D01*
X639646Y315000D02*
X651700D01*
X901600Y86000D02*
Y99700D01*
X896600Y81000D02*
X901600Y86000D01*
X896600Y65400D02*
Y81000D01*
X894100Y62900D02*
X896600Y65400D01*
X883100Y62900D02*
X894100D01*
X870800Y50600D02*
X883100Y62900D01*
X648800Y50600D02*
X870800D01*
X626100Y73300D02*
X648800Y50600D01*
X628600Y325000D02*
X639646D01*
Y345000D02*
X645800D01*
X652400Y338400D01*
X694800D01*
X713800Y319400D01*
X731400Y190400D02*
X733000Y192000D01*
X876100D01*
X881600Y186500D01*
X891400D01*
X900700Y195800D01*
X670354Y345000D02*
X703400D01*
X761500Y215000D02*
X762415D01*
X775415Y202000D01*
Y201085D02*
Y202000D01*
Y201085D02*
X779869Y196631D01*
X829184D01*
X830552Y198000D01*
X889900D01*
X670354Y335000D02*
X690600D01*
X709700Y315900D01*
X733000D01*
X762900Y345800D01*
X845200D01*
X670354Y325000D02*
X685300D01*
X696300Y314000D01*
X737000D01*
X763900Y340900D01*
X804500D01*
X865100Y142100D02*
X891498D01*
X906200Y127398D01*
X670354Y285000D02*
X742800D01*
X751600Y293800D01*
X712400Y348400D02*
X712500Y348300D01*
X630400Y348400D02*
X712400D01*
X623900Y341900D02*
X630400Y348400D01*
X623900Y282500D02*
Y341900D01*
Y282500D02*
X628100Y278300D01*
X663300D01*
X666600Y275000D01*
X670354D01*
X626400Y354200D02*
X713300D01*
X622100Y349900D02*
X626400Y354200D01*
X622100Y273331D02*
Y349900D01*
Y273331D02*
X633700Y261731D01*
X648331D01*
X649200Y262600D01*
X662100D01*
X664500Y265000D01*
X670354D01*
X761323Y252100D02*
X762400Y253177D01*
X721960Y252100D02*
X761323D01*
X719060Y255000D02*
X721960Y252100D01*
X670354Y255000D02*
X719060D01*
X777800Y244800D02*
X778800Y245800D01*
X714460Y244800D02*
X777800D01*
X670354Y245000D02*
X714460Y244800D01*
X739900Y238400D02*
X779900D01*
X736500Y235000D02*
X739900Y238400D01*
X670354Y235000D02*
X736500D01*
X665100Y225000D02*
X670354D01*
X646833Y206733D02*
X665100Y225000D01*
X646833Y203533D02*
Y206733D01*
X644000Y200700D02*
X646833Y203533D01*
X631700Y200700D02*
X644000D01*
X670204Y205000D02*
X670354D01*
X665100Y199896D02*
X670204Y205000D01*
X665100Y194600D02*
Y199896D01*
X650700Y180200D02*
X665100Y194600D01*
X650700Y99400D02*
Y180200D01*
Y99400D02*
X663900Y86200D01*
X652600Y157321D02*
Y179200D01*
X668400Y195000D01*
X670354D01*
X680300Y77200D02*
X682300Y79200D01*
Y124716D01*
X654400Y161091D02*
X658500Y156991D01*
X654400Y161091D02*
Y176200D01*
X663200Y185000D01*
X670354D01*
X723300Y68800D02*
X724300Y69800D01*
X744000D01*
X746700Y67100D01*
Y65117D02*
Y67100D01*
Y65117D02*
X753300D01*
X755812Y68512D01*
X760000D02*
Y70354D01*
X790000Y66117D02*
Y70354D01*
X789000Y65117D02*
X790000Y66117D01*
X766869Y65117D02*
X789000D01*
X765069Y63317D02*
X766869Y65117D01*
X758700Y63317D02*
X765069D01*
X754883Y59500D02*
X758700Y63317D01*
X748749Y59500D02*
X754883D01*
X741300Y66949D02*
X748749Y59500D01*
X800000Y70354D02*
Y75200D01*
X797700Y77500D02*
X800000Y75200D01*
X740600Y77500D02*
X797700D01*
X736500Y81600D02*
X740600Y77500D01*
X740500Y86700D02*
X748840D01*
X754140Y81400D01*
X803700D01*
X810000Y75100D01*
Y70354D02*
Y75100D01*
X820000Y66100D02*
Y70354D01*
X819009Y65109D02*
X820000Y66100D01*
X805991Y65109D02*
X819009D01*
X804800Y66300D02*
X805991Y65109D01*
X804800Y66300D02*
Y73387D01*
X798687Y79500D02*
X804800Y73387D01*
X752440Y79500D02*
X798687D01*
X749540Y82400D02*
X752440Y79500D01*
X744000Y82400D02*
X749540D01*
X830000Y70354D02*
Y78400D01*
X824400Y84000D02*
X830000Y78400D01*
X824400Y84000D02*
Y95900D01*
X848400Y119900D01*
X854200D01*
X859000Y115100D01*
X869900D01*
X874800Y120000D01*
Y127200D01*
X871100Y130900D02*
X874800Y127200D01*
X818000Y130900D02*
X871100D01*
X812100Y125000D02*
X818000Y130900D01*
X800100Y125000D02*
X812100D01*
X795300Y129800D02*
X800100Y125000D01*
X795300Y129800D02*
Y141400D01*
X777900Y175900D02*
X778800Y176800D01*
X802200D01*
X807100Y181700D01*
X851100D01*
Y117000D02*
X857400Y110700D01*
X880000D01*
X882661Y108039D01*
Y94203D02*
Y108039D01*
X868658Y80200D02*
X882661Y94203D01*
X844000Y80200D02*
X868658D01*
X840000Y76200D02*
X844000Y80200D01*
X840000Y70354D02*
Y76200D01*
X787700Y152900D02*
X849300D01*
X852200Y150000D01*
X848300Y60900D02*
X850000Y62600D01*
Y70354D01*
X791700Y168700D02*
X797000D01*
X800000Y165700D01*
X856400D01*
X860000Y62400D02*
X862600Y59800D01*
X860000Y62400D02*
Y70354D01*
X870000D02*
Y75000D01*
X868000Y77000D02*
X870000Y75000D01*
X857900Y77000D02*
X868000D01*
X854000Y73100D02*
X857900Y77000D01*
X854000Y59900D02*
Y73100D01*
X831700Y210000D02*
X847600D01*
X823731Y202031D02*
X831700Y210000D01*
X805669Y202031D02*
X823731D01*
X801500Y206200D02*
X805669Y202031D01*
X880000Y70354D02*
Y84189D01*
X888100Y92289D01*
Y122100D01*
X877500Y132700D02*
X888100Y122100D01*
X816553Y132700D02*
X877500D01*
X810753Y126900D02*
X816553Y132700D01*
X806000Y126900D02*
X810753D01*
X800900Y132000D02*
X806000Y126900D01*
X800900Y132000D02*
Y145600D01*
X900000Y70354D02*
Y76561D01*
X904000Y80561D01*
X907194D01*
X931700Y105067D01*
Y141957D01*
X942000Y152257D01*
X953655D01*
X963398Y162000D01*
Y167102D01*
X948600Y181900D02*
X963398Y167102D01*
X880400Y181900D02*
X948600D01*
X874600Y187700D02*
X880400Y181900D01*
X803900Y187700D02*
X874600D01*
X797700Y181500D02*
X803900Y187700D01*
X870000Y39646D02*
Y44000D01*
X871000Y45000D01*
X884100D01*
X896100Y57000D01*
X940100Y123602D02*
Y128200D01*
X938100Y130200D02*
X940100Y128200D01*
X938100Y130200D02*
Y135800D01*
X940600Y138300D01*
X960000D01*
X975800Y154100D01*
X988800D01*
X986000Y129100D02*
X989800Y125300D01*
Y118005D02*
Y125300D01*
Y118005D02*
X1001300Y106505D01*
Y102100D02*
Y106505D01*
X999100Y99900D02*
X1001300Y102100D01*
X993000Y99900D02*
X999100D01*
X870323Y30477D02*
X876400D01*
X866400Y34400D02*
X870323Y30477D01*
X866400Y34400D02*
Y43200D01*
X864463Y45137D02*
X866400Y43200D01*
X850962Y45137D02*
X864463D01*
X850000Y39646D02*
X850962Y45137D01*
X830000Y39646D02*
X832154D01*
X841300Y30500D01*
Y28000D02*
Y30500D01*
Y28000D02*
X842400Y26900D01*
X877092D01*
X879200Y29008D01*
X908308D01*
X910900Y31600D01*
X927000D01*
X967600Y100100D02*
Y119300D01*
X971200Y122900D01*
X820000Y35000D02*
Y39646D01*
X816800Y31800D02*
X820000Y35000D01*
X889900Y189500D02*
X899100Y198700D01*
X904500D01*
X906400Y196800D01*
X940900D01*
X950100Y252700D02*
X964100Y238700D01*
X1037800D01*
X1038500Y238000D01*
X1054800D01*
X1055200Y238400D01*
X1094800D01*
X1097300Y235900D01*
Y231600D02*
Y235900D01*
X1094600Y228900D02*
X1097300Y231600D01*
X1094600Y22800D02*
Y228900D01*
X1083100Y11300D02*
X1094600Y22800D01*
X829000Y11300D02*
X1083100D01*
X824600Y15700D02*
X829000Y11300D01*
X821200Y28900D02*
X824600Y32300D01*
X812900Y28900D02*
X821200D01*
X810000Y31800D02*
X812900Y28900D01*
X810000Y31800D02*
Y39646D01*
X800000Y32900D02*
Y39646D01*
Y32900D02*
X801300Y31600D01*
Y13100D02*
X810000Y4400D01*
X1090000D01*
X1066669Y272800D02*
X1079800D01*
X1065600Y271731D02*
X1066669Y272800D01*
X1004931Y271731D02*
X1065600D01*
X1003000Y269800D02*
X1004931Y271731D01*
X1003000Y267700D02*
Y269800D01*
X988700Y253400D02*
X1003000Y267700D01*
X971700Y318500D02*
X975600Y314600D01*
X918839Y318500D02*
X971700D01*
X922600Y304200D02*
X971000D01*
X983700Y291500D01*
X1069500D01*
X1082700Y278300D01*
Y263300D02*
Y278300D01*
X1076100Y256700D02*
X1082700Y263300D01*
X1078691Y44000D02*
Y63900D01*
X1067037Y32345D02*
X1078691Y44000D01*
X933345Y32345D02*
X1067037D01*
X929800Y28800D02*
X933345Y32345D01*
X911237Y28800D02*
X929800D01*
X909645Y27208D02*
X911237Y28800D01*
X881000Y27208D02*
X909645D01*
X878892Y25100D02*
X881000Y27208D01*
X838400Y25100D02*
X878892D01*
X836600Y26900D02*
X838400Y25100D01*
X797445Y26900D02*
X836600D01*
X790000Y34345D02*
X797445Y26900D01*
X790000Y34345D02*
Y39646D01*
X911400Y318500D02*
X915700Y314200D01*
X955200D01*
Y230300D02*
X955700Y229800D01*
X1066500D01*
X1085300Y211000D01*
Y42800D02*
Y211000D01*
X1070900Y28400D02*
X1085300Y42800D01*
X935600Y28400D02*
X1070900D01*
X932400Y25200D02*
X935600Y28400D01*
X913800Y25200D02*
X932400D01*
X912208Y23608D02*
X913800Y25200D01*
X885900Y23608D02*
X912208D01*
X883792Y21500D02*
X885900Y23608D01*
X834800Y21500D02*
X883792D01*
X833400Y22900D02*
X834800Y21500D01*
X775100Y22900D02*
X833400D01*
X770000Y28000D02*
X775100Y22900D01*
X770000Y28000D02*
Y39646D01*
X963100Y172600D02*
Y187600D01*
Y172600D02*
X965198Y170502D01*
Y159292D02*
Y170502D01*
X951500Y145594D02*
X965198Y159292D01*
X941294Y145594D02*
X951500D01*
X934400Y138700D02*
X941294Y145594D01*
X934400Y118500D02*
Y138700D01*
Y118500D02*
X937500Y115400D01*
X888400Y21800D02*
X919900D01*
X886300Y19700D02*
X888400Y21800D01*
X833000Y19700D02*
X886300D01*
X831600Y21100D02*
X833000Y19700D01*
X768100Y21100D02*
X831600D01*
X760000Y29200D02*
X768100Y21100D01*
X760000Y29200D02*
Y39646D01*
X750000Y24000D02*
Y39646D01*
Y24000D02*
X754700Y19300D01*
X826600D01*
X828000Y17900D01*
X911600D01*
X911700Y18000D01*
X1038200Y347700D02*
Y376400D01*
Y347700D02*
X1056000Y329900D01*
Y325000D02*
X1060354D01*
Y305000D02*
X1066000D01*
X1068200Y307200D01*
Y389600D01*
X1029400Y428400D02*
X1068200Y389600D01*
X1004600Y428400D02*
X1029400D01*
X1002400Y430600D02*
X1004600Y428400D01*
X993506Y430600D02*
X1002400D01*
X986220Y423315D02*
X993506Y430600D01*
X986220Y419320D02*
Y423315D01*
X1060354Y285000D02*
X1068500D01*
X1060354Y235000D02*
X1093800D01*
X1094400Y234400D01*
X383200Y242500D02*
X398000Y257300D01*
X483600D01*
X491900Y265600D01*
Y302491D01*
X535000Y345591D01*
X1042000Y165000D02*
X1060354D01*
X1038700Y168300D02*
X1042000Y165000D01*
X983300Y168300D02*
X1038700D01*
X955300Y140300D02*
X983300Y168300D01*
X939600Y140300D02*
X955300D01*
X936300Y137000D02*
X939600Y140300D01*
X936300Y122200D02*
Y137000D01*
Y122200D02*
X942000Y116500D01*
Y111600D02*
Y116500D01*
X908500Y78100D02*
X942000Y111600D01*
X905400Y78100D02*
X908500D01*
X903400Y76100D02*
X905400Y78100D01*
X903400Y65200D02*
Y76100D01*
X900600Y62400D02*
X903400Y65200D01*
X880637Y46937D02*
X890600Y56900D01*
X747037Y46937D02*
X880637D01*
X727700Y27600D02*
X747037Y46937D01*
X212600Y27600D02*
X727700D01*
X210000Y25000D02*
X212600Y27600D01*
X385400Y196700D02*
X420100Y162000D01*
X438500D01*
X452155Y260145D02*
X462300D01*
X400600Y311700D02*
X452155Y260145D01*
X1033700Y440600D02*
X1039700Y434600D01*
X1000000Y440600D02*
X1033700D01*
X997000Y443600D02*
X1000000Y440600D01*
X957039Y443600D02*
X997000D01*
X950000Y436561D02*
X957039Y443600D01*
X944488Y436561D02*
X950000D01*
X942926Y435000D02*
X944488Y436561D01*
X914105Y435000D02*
X942926D01*
X910028Y439077D02*
X914105Y435000D01*
X910028Y439077D02*
Y442572D01*
X907900Y444700D02*
X910028Y442572D01*
X887900Y444700D02*
X907900D01*
X885000Y441800D02*
X887900Y444700D01*
X802511Y446789D02*
X810400Y438900D01*
X691010Y446789D02*
X802511D01*
X686960Y450839D02*
X691010Y446789D01*
X686960Y450839D02*
Y454839D01*
X697342Y484400D02*
X848900D01*
X666600Y453658D02*
X697342Y484400D01*
X666600Y450000D02*
Y453658D01*
X693700Y449800D02*
X832400D01*
X843200Y439000D01*
X837500Y451800D02*
X850500Y438800D01*
X830400Y451800D02*
X837500D01*
X826200Y456000D02*
X830400Y451800D01*
X826200Y456000D02*
Y464800D01*
X822100Y468900D02*
X826200Y464800D01*
X806300Y468900D02*
X822100D01*
X717400Y436100D02*
X718600Y434900D01*
X668700Y436100D02*
X717400D01*
X666700Y434100D02*
X668700Y436100D01*
X886300Y384000D02*
X888300Y382000D01*
X914418D01*
X918761Y373161D02*
Y375161D01*
X928000Y384400D01*
X922800Y364900D02*
X935000Y377100D01*
X938864Y385300D02*
X943000D01*
X921264Y367700D02*
X938864Y385300D01*
X908800Y367700D02*
X921264D01*
X905900Y364800D02*
X908800Y367700D01*
X692400Y304600D02*
X764900D01*
X765000Y58000D02*
X771491D01*
X774891Y61400D01*
X825200D01*
X814900Y314700D02*
X835500D01*
X810600Y319000D02*
X814900Y314700D01*
X781002Y323000D02*
X806600D01*
X778602Y320600D02*
X781002Y323000D01*
X773700Y98500D02*
Y154600D01*
X779000Y159900D01*
Y162900D01*
X777600Y164300D02*
X779000Y162900D01*
X757900Y164300D02*
X777600D01*
X755600Y166600D02*
X757900Y164300D01*
X755600Y166600D02*
Y178200D01*
X758000Y180600D01*
X764900D01*
X772500Y173000D01*
X783600D01*
X785600Y175000D01*
X804800D01*
X789600Y171900D02*
X856700D01*
X788800Y171100D02*
X789600Y171900D01*
X770800Y171100D02*
X788800D01*
X764600Y177300D02*
X770800Y171100D01*
X758800Y177300D02*
X764600D01*
X757500Y176000D02*
X758800Y177300D01*
X757500Y167800D02*
Y176000D01*
Y167800D02*
X759200Y166100D01*
X779600D01*
X780800Y164900D01*
Y158100D02*
Y164900D01*
X775600Y152900D02*
X780800Y158100D01*
X775600Y126289D02*
Y152900D01*
Y126289D02*
X776500Y125389D01*
Y97100D02*
Y125389D01*
Y97100D02*
X779600Y94000D01*
X783800D01*
X785800Y96000D01*
Y123720D01*
X805600Y132500D02*
X808400Y129700D01*
X805600Y132500D02*
Y137000D01*
X806600Y138000D01*
X888600D01*
X911500Y115100D01*
X808400Y135200D02*
X883000D01*
X907600Y110600D01*
X929700Y145656D02*
X939644Y155600D01*
X929700Y108300D02*
Y145656D01*
X919322Y97922D02*
X929700Y108300D01*
X913822Y97922D02*
X919322D01*
X905000Y89100D02*
X913822Y97922D01*
X922200Y117500D02*
Y148600D01*
X910900Y106200D02*
X922200Y117500D01*
X896100Y106200D02*
X910900D01*
X893000Y103100D02*
X896100Y106200D01*
X918139Y200700D02*
X918839Y200000D01*
X897000Y200700D02*
X918139D01*
X885700Y189400D02*
X897000Y200700D01*
X882900Y189400D02*
X885700D01*
X827300Y87100D02*
X864900D01*
X878800Y101000D01*
X815000Y58400D02*
X816500Y56900D01*
X864100D01*
X869600Y62400D01*
X781500Y98500D02*
Y148500D01*
X784800Y151800D01*
Y154900D01*
X785900Y156000D01*
X792300D01*
X793300Y155000D01*
X863231D01*
X869931Y148300D01*
X782200Y57200D02*
X786950Y52450D01*
X869438D01*
X873400Y56412D01*
Y80749D01*
X885300Y92649D01*
Y119700D01*
X869000Y128000D02*
Y128100D01*
Y128000D02*
X871900Y125100D01*
Y120100D02*
Y125100D01*
X869000Y117200D02*
X871900Y120100D01*
X861400Y117200D02*
X869000D01*
X856900Y121700D02*
X861400Y117200D01*
X831400Y121700D02*
X856900D01*
X819300Y109600D02*
X831400Y121700D01*
X819300Y103900D02*
Y109600D01*
Y103900D02*
X820200Y103000D01*
Y85400D02*
Y103000D01*
X818100Y83300D02*
X820200Y85400D01*
X769900Y83300D02*
X818100D01*
X766100Y87100D02*
X769900Y83300D01*
X626900Y94977D02*
X644731Y77146D01*
X626900Y94977D02*
Y207717D01*
X628983Y209800D01*
X643800D01*
X656300Y222300D01*
Y228900D01*
X717800Y219700D02*
X736888D01*
X746488Y229300D01*
X778218D01*
X781300Y226218D01*
Y224700D02*
Y226218D01*
X780700Y231800D02*
X782200Y230300D01*
X744400Y231800D02*
X780700D01*
X737500Y224900D02*
X744400Y231800D01*
X719600Y224900D02*
X737500D01*
X662400Y300500D02*
X700300D01*
X702529Y302729D01*
X732080D01*
X733509Y301300D01*
X765000D01*
X770400Y295900D01*
X1043700Y178800D02*
Y184000D01*
X1041200Y186500D02*
X1043700Y184000D01*
X1037600Y186500D02*
X1041200D01*
X1036000Y184900D02*
X1037600Y186500D01*
X1036000Y181900D02*
Y184900D01*
X1034100Y180000D02*
X1036000Y181900D01*
X1024400Y180000D02*
X1034100D01*
X1017800Y173400D02*
X1024400Y180000D01*
X973800Y173400D02*
X1017800D01*
X970400Y170000D02*
X973800Y173400D01*
X970400Y165700D02*
Y170000D01*
X1000000Y138200D02*
X1034300D01*
X993800Y132000D02*
X1000000Y138200D01*
X993800Y124300D02*
Y132000D01*
X983180Y126393D02*
X986220Y123352D01*
X983180Y126393D02*
Y145000D01*
X984580Y146400D01*
X1056118D01*
X1057618Y144900D01*
X1062471D01*
X1067400Y149829D01*
Y180100D01*
X1065900Y181600D02*
X1067400Y180100D01*
X1053235Y181600D02*
X1065900D01*
X1048800Y186035D02*
X1053235Y181600D01*
X1048800Y186035D02*
Y189726D01*
X1043700Y194826D02*
X1048800Y189726D01*
X1043700Y194826D02*
Y201600D01*
X974600Y170100D02*
X1040600D01*
X1043800Y173300D01*
X1038900Y178200D02*
X1043800Y173300D01*
X1038900Y178200D02*
Y182700D01*
X967000Y160200D02*
X968100Y159100D01*
X967000Y160200D02*
Y174700D01*
X980700Y188400D01*
X1036300D01*
X1038100Y190200D01*
X1038800Y288300D02*
X1042100Y285000D01*
X983300Y288300D02*
X1038800D01*
X972800Y298800D02*
X983300Y288300D01*
X917800Y298800D02*
X972800D01*
X915000Y296000D02*
X917800Y298800D01*
X99500Y250000D02*
X99583D01*
X99500Y252000D02*
X100800Y253300D01*
X208900D01*
X210500Y254900D01*
X353300D01*
X354900Y253300D01*
X201766Y222800D02*
X252800D01*
X196566Y217600D02*
X201766Y222800D01*
X188800Y217600D02*
X196566D01*
X184800Y221600D02*
X188800Y217600D01*
X136800Y221600D02*
X184800D01*
X135200Y220000D02*
X136800Y221600D01*
X130291Y220000D02*
X135200D01*
X332525Y263400D02*
X350063Y280937D01*
X125100Y263400D02*
X332525D01*
X117000Y255300D02*
X125100Y263400D01*
X95900Y255300D02*
X117000D01*
X90600Y250000D02*
X95900Y255300D01*
X90600Y248000D02*
Y250000D01*
Y248000D02*
X95000Y243600D01*
X104600D01*
X118200Y230000D01*
X130291D01*
X47200Y170000D02*
X99583D01*
X46300Y169100D02*
X47200Y170000D01*
X42100Y169100D02*
X46300D01*
X40800Y170400D02*
X42100Y169100D01*
X40800Y170400D02*
Y175800D01*
X50000Y185000D01*
X44700Y200000D02*
X99583D01*
X42700Y198000D02*
X44700Y200000D01*
X20000Y35000D02*
X34400Y49400D01*
X209100D01*
X299700Y140000D01*
X320000D01*
X116700Y160000D02*
X130291D01*
X113100Y156400D02*
X116700Y160000D01*
X91800Y156400D02*
X113100D01*
X90400Y155000D02*
X91800Y156400D01*
X50000Y155000D02*
X90400D01*
X115800Y290000D02*
X130291D01*
X112000Y286200D02*
X115800Y290000D01*
X90189Y286200D02*
X112000D01*
X88000Y288389D02*
X90189Y286200D01*
X88000Y288389D02*
Y306275D01*
X64275Y330000D02*
X88000Y306275D01*
X46200Y330000D02*
X64275D01*
X32168Y344032D02*
X46200Y330000D01*
X32168Y344032D02*
Y352832D01*
X20000Y365000D02*
X32168Y352832D01*
X146100Y270000D02*
X289291D01*
X320000Y300000D02*
X333800D01*
X320000Y320000D02*
X338100D01*
X384200Y273900D01*
Y269200D02*
Y273900D01*
X348900Y199200D02*
X377400Y227700D01*
X348900Y149900D02*
Y199200D01*
X344000Y145000D02*
X348900Y149900D01*
X276700Y145000D02*
X344000D01*
X216700Y85000D02*
X276700Y145000D01*
X50000Y85000D02*
X216700D01*
X304800Y220000D02*
X320000D01*
X299900Y215100D02*
X304800Y220000D01*
X201266Y215100D02*
X299900D01*
X200066Y213900D02*
X201266Y215100D01*
X150300Y213900D02*
X200066D01*
X147600Y216600D02*
X150300Y213900D01*
X60598Y216600D02*
X147600D01*
X49298Y227900D02*
X60598Y216600D01*
X32900Y227900D02*
X49298D01*
X20000Y215000D02*
X32900Y227900D01*
X276500Y150000D02*
X289291D01*
X219400Y92900D02*
X276500Y150000D01*
X66500Y92900D02*
X219400D01*
X66400Y92800D02*
X66500Y92900D01*
X20000Y85000D02*
X35600Y100600D01*
X55300D01*
X61500Y106800D01*
X198300D01*
X261500Y170000D01*
X289291D01*
X303100D02*
X320000D01*
X299200Y166100D02*
X303100Y170000D01*
X263820Y166100D02*
X299200D01*
X199320Y101600D02*
X263820Y166100D01*
X61300Y101600D02*
X199320D01*
X55500Y95800D02*
X61300Y101600D01*
X55500Y92000D02*
Y95800D01*
X53500Y90000D02*
X55500Y92000D01*
X32000Y90000D02*
X53500D01*
X22100Y80100D02*
X32000Y90000D01*
X18000Y80100D02*
X22100D01*
X15600Y82500D02*
X18000Y80100D01*
X15600Y82500D02*
Y90600D01*
X20000Y95000D01*
X279900Y190000D02*
X289291D01*
X278000Y188100D02*
X279900Y190000D01*
X252100Y188100D02*
X278000D01*
X198700Y134700D02*
X252100Y188100D01*
X93900Y134700D02*
X198700D01*
X88600Y140000D02*
X93900Y134700D01*
X25000Y140000D02*
X88600D01*
X20000Y145000D02*
X25000Y140000D01*
X20000Y155000D02*
Y158300D01*
X39223Y177523D01*
Y180523D01*
X48100Y189400D01*
X69100D01*
X74700Y195000D01*
X269100D01*
X274100Y200000D01*
X289291D01*
X20000Y165000D02*
Y168300D01*
X24000D02*
X29000Y173300D01*
Y192600D01*
X45800Y209400D01*
X73100D01*
X78300Y204200D01*
X105700D01*
X109200Y207700D01*
X114500D01*
X118000Y204200D01*
X286000D01*
X289300Y207500D01*
X289291Y210000D02*
X289300D01*
X201100Y260000D02*
X289291D01*
X50000Y395000D02*
X79000Y366000D01*
X328200D01*
X379800Y314400D01*
Y289500D02*
Y314400D01*
Y289500D02*
X387403Y281897D01*
Y260881D02*
Y281897D01*
X373222Y246700D02*
X387403Y260881D01*
X308900Y246700D02*
X373222D01*
X302200Y240000D02*
X308900Y246700D01*
X289291Y240000D02*
X302200D01*
X301600Y250000D02*
X320000D01*
X296600Y245000D02*
X301600Y250000D01*
X228200Y245000D02*
X296600D01*
X195200Y420000D02*
X228200Y387000D01*
X47700Y420000D02*
X195200D01*
X45600Y417900D02*
X47700Y420000D01*
X45600Y409400D02*
Y417900D01*
Y409400D02*
X50000Y405000D01*
X215200Y250000D02*
X289291D01*
X213200Y252000D02*
X215200Y250000D01*
X168900Y415000D02*
X213200Y370700D01*
X50000Y415000D02*
X168900D01*
X320000Y260000D02*
X333863D01*
X352900Y279037D01*
Y283700D01*
X340100Y296500D02*
X352900Y283700D01*
X170400Y296500D02*
X340100D01*
X157700Y283800D02*
X170400Y296500D01*
X87900Y283800D02*
X157700D01*
X81500Y290200D02*
X87900Y283800D01*
X81500Y290200D02*
Y302800D01*
X99583Y330000D02*
X130291D01*
X20000Y405000D02*
X29900D01*
X44400Y390500D01*
Y383800D02*
Y390500D01*
Y383800D02*
X48000Y380200D01*
X60400D01*
X76400Y364200D01*
X135100D01*
X135700Y363600D01*
Y321100D02*
Y363600D01*
X134600Y320000D02*
X135700Y321100D01*
X130291Y320000D02*
X134600D01*
X99583Y310000D02*
X103900D01*
X104900Y311000D01*
Y324000D01*
X102300Y326600D02*
X104900Y324000D01*
X88100Y326600D02*
X102300D01*
X65300Y349400D02*
X88100Y326600D01*
X44000Y349400D02*
X65300D01*
X38300Y355100D02*
X44000Y349400D01*
X38300Y355100D02*
Y376700D01*
X20000Y395000D02*
X38300Y376700D01*
X98300Y300000D02*
X99583D01*
X61700Y339300D02*
X98300Y302700D01*
X45200Y339300D02*
X61700D01*
X34340Y350160D02*
X45200Y339300D01*
X34340Y350160D02*
Y370660D01*
X20000Y385000D02*
X34340Y370660D01*
X99583Y350000D02*
X130291D01*
X90826D02*
X99583D01*
X81426Y359400D02*
X90826Y350000D01*
X46000Y359400D02*
X81426D01*
X42000Y363400D02*
X46000Y359400D01*
X42000Y363400D02*
Y383800D01*
X26000Y399800D02*
X42000Y383800D01*
X17900Y399800D02*
X26000D01*
X15700Y402000D02*
X17900Y399800D01*
X15700Y402000D02*
Y460700D01*
X20000Y465000D01*
X99583Y340000D02*
X130291D01*
X942800Y149000D02*
X948700D01*
X937300Y188600D02*
X943700Y195000D01*
X1029646D01*
Y165000D02*
X1038065D01*
X1041765Y161300D01*
X1065600D01*
Y178300D01*
X1065500Y178400D02*
X1065600Y178300D01*
X1053634Y178400D02*
X1065500D01*
X1046900Y185134D02*
X1053634Y178400D01*
X1046900Y185134D02*
Y188953D01*
X1042753Y193100D02*
X1046900Y188953D01*
X1036700Y193100D02*
X1042753D01*
X1034100Y190500D02*
X1036700Y193100D01*
X960400Y190500D02*
X1034100D01*
X953700Y183800D02*
X960400Y190500D01*
X881700Y183800D02*
X953700D01*
X876000Y189500D02*
X881700Y183800D01*
X736100Y189500D02*
X876000D01*
X734200Y187600D02*
X736100Y189500D01*
X689200Y187600D02*
X734200D01*
X688200Y186600D02*
X689200Y187600D01*
X771700Y382300D02*
X780600Y373400D01*
X861000D01*
X864300Y376700D01*
X900900D01*
X905800Y371800D01*
X911564D01*
X919500Y379736D01*
Y382900D01*
X924800Y388200D01*
X969069D01*
X1019000Y338269D01*
X1036331D01*
X1046600Y328000D01*
Y307600D02*
Y328000D01*
X1044000Y305000D02*
X1046600Y307600D01*
X1029646Y305000D02*
X1044000D01*
X329900Y226000D02*
X338341Y217559D01*
X286700Y226000D02*
X329900D01*
X278500Y217800D02*
X286700Y226000D01*
X200366Y217800D02*
X278500D01*
X198366Y215800D02*
X200366Y217800D01*
X156700Y215800D02*
X198366D01*
X154100Y218400D02*
X156700Y215800D01*
X99583Y260000D02*
X112500D01*
X99583Y220000D02*
X119300D01*
X123700Y224400D01*
X189300D01*
X193300Y220400D01*
X247700Y449200D02*
X371800D01*
X401000Y420000D01*
X442700Y400300D02*
X460000Y383000D01*
X420700Y400300D02*
X442700D01*
X401000Y420000D02*
X420700Y400300D01*
X460000Y383000D02*
X470000D01*
X520000D02*
X530000D01*
X540000D01*
X550000D01*
X510000D02*
X520000D01*
X500000D02*
X510000D01*
X490000D02*
X500000D01*
X470000D02*
X480000D01*
X490000D01*
X1004300Y425300D02*
X1025000D01*
X1000800Y428800D02*
X1004300Y425300D01*
X995200Y428800D02*
X1000800D01*
X995100Y428700D02*
X995200Y428800D01*
X995100Y424100D02*
Y428700D01*
X987200Y416200D02*
X995100Y424100D01*
X973800Y416200D02*
X987200D01*
X972100Y414500D02*
X973800Y416200D01*
X1058600Y149600D02*
X1060400Y147800D01*
X1015900Y149600D02*
X1058600D01*
X1006200Y159300D02*
X1015900Y149600D01*
X981400Y159300D02*
X1006200D01*
X809700Y145500D02*
X813196Y142004D01*
X823800D01*
X631400Y358900D02*
X728900D01*
X630600Y359700D02*
X631400Y358900D01*
X897900Y304100D02*
X906100D01*
X893700Y299900D02*
X897900Y304100D01*
X893700Y283900D02*
Y299900D01*
X880900Y358900D02*
X886500D01*
X980400Y321300D02*
X986700Y315000D01*
X949800Y321400D02*
X968600Y340200D01*
X908700Y321400D02*
X949800D01*
X906100Y304100D02*
Y318800D01*
X968700Y222600D02*
X969300Y223200D01*
X1014300D01*
X1016100Y225000D01*
X1029646D01*
X1018600Y335000D02*
X1029646D01*
X972200Y381400D02*
X1018600Y335000D01*
X954000Y381400D02*
X972200D01*
X934600Y362000D02*
X954000Y381400D01*
X825700Y362000D02*
X934600D01*
X822400Y365300D02*
X825700Y362000D01*
X781846Y365300D02*
X822400D01*
X768303Y378843D02*
X781846Y365300D01*
X768303Y378843D02*
Y408603D01*
X775000Y415300D01*
Y439200D01*
X777000Y441200D01*
X987800Y79200D02*
X1016900D01*
X1059200Y121500D01*
X1026300Y269900D02*
X1070016D01*
X1024400Y268000D02*
X1026300Y269900D01*
X1024400Y256000D02*
Y268000D01*
Y256000D02*
X1025400Y255000D01*
X1029646D01*
Y175000D02*
X1037300D01*
X1039300Y173000D01*
X687500Y165300D02*
X737800D01*
X743100Y160000D01*
Y140600D02*
Y160000D01*
X728400Y125900D02*
X743100Y140600D01*
X1051700Y136300D02*
X1056400Y131600D01*
X1037100Y136300D02*
X1051700D01*
X1034100Y133300D02*
X1037100Y136300D01*
X1000900Y133300D02*
X1034100D01*
X996700Y129100D02*
X1000900Y133300D01*
X763900Y161400D02*
X776100D01*
X925350Y249250D02*
X926600Y248000D01*
X925350Y249250D02*
Y262350D01*
X870800Y396500D02*
X876900Y402600D01*
X990257D01*
X996457Y396400D01*
X974500Y131700D02*
X980400Y125800D01*
X947700Y131700D02*
X974500D01*
X624800Y366300D02*
X629400Y370900D01*
X430000Y383000D02*
X440000D01*
X400000D02*
X410000D01*
X420000D02*
X430000D01*
X410000D02*
X420000D01*
X390000D02*
X400000D01*
X380000D02*
X390000D01*
X370000D02*
X380000D01*
X350000D02*
X360000D01*
X370000D01*
X693400Y362700D02*
X732000D01*
X857300Y270400D02*
X863300Y264400D01*
X774400D02*
X775900Y262900D01*
X849800D01*
X857300Y270400D01*
X440000Y370000D02*
X446500Y363500D01*
X687000Y170300D02*
Y171000D01*
X684600Y163900D02*
Y167900D01*
Y163900D02*
X687000Y161500D01*
Y133227D02*
X723398Y96829D01*
X745712D01*
X749041Y93500D01*
X772500D01*
Y92000D02*
Y93500D01*
Y92000D02*
X775000Y89500D01*
X804500D01*
X807000Y92000D01*
Y106600D01*
X863300Y264400D02*
X900600D01*
X430000Y370000D02*
X440000D01*
X591200Y362700D02*
X693400D01*
X590700Y363200D02*
X591200Y362700D01*
X420000Y370000D02*
X430000D01*
X410000D02*
X420000D01*
X400000D02*
X410000D01*
X390000D02*
X400000D01*
X370000D02*
X380000D01*
X390000D01*
X360000D02*
X370000D01*
X350000D02*
X360000D01*
X430000Y70000D02*
X440000D01*
X420000D02*
X430000D01*
X360000D02*
X370000D01*
X350000D02*
X360000D01*
X370000D02*
X380000D01*
X390000D01*
X410000D02*
X420000D01*
X390000D02*
X400000D01*
X410000D01*
X1051100Y428200D02*
Y435600D01*
X615700Y378300D02*
X724016D01*
X712600Y433300D02*
X713900Y432000D01*
X721300D01*
X724600Y435300D01*
X755500D01*
X756700Y434100D01*
Y380800D02*
Y434100D01*
X440000Y70000D02*
X461500Y48500D01*
X1032000Y45500D02*
X1057500D01*
X1031500Y46000D02*
X1032000Y45500D01*
X1031500Y46000D02*
Y71000D01*
X747400Y55800D02*
X748900Y54300D01*
X659493Y55800D02*
X747400D01*
X648769Y66523D02*
X659493Y55800D01*
X648769Y66523D02*
Y70000D01*
X646271Y72498D02*
X648769Y70000D01*
X643802Y72498D02*
X646271D01*
X598000Y87800D02*
X628500D01*
X969400Y452800D02*
X970700Y451500D01*
X1067000D01*
X896600Y293900D02*
X906855D01*
X910300Y297345D01*
Y299700D01*
X911200Y300600D01*
Y304800D01*
X913400Y307000D01*
X972800D01*
X730316Y375600D02*
X761900D01*
X785000Y352500D01*
X1029646Y245000D02*
X1060354D01*
X930000Y39646D02*
X940000D01*
X920000D02*
X930000D01*
X910000D02*
X920000D01*
X910000Y70354D02*
X920000D01*
X1060354Y245000D02*
X1067600D01*
X1068300Y245700D01*
X1027121Y83021D02*
X1049500Y105400D01*
X1027121Y81360D02*
Y83021D01*
X1018764Y73002D02*
X1027121Y81360D01*
X969998Y73002D02*
X1018764D01*
X968600Y74400D02*
X969998Y73002D01*
X940000Y70354D02*
Y74400D01*
Y39646D02*
Y70354D01*
X920000D02*
X930000D01*
X940000D01*
X719200Y368000D02*
X753000D01*
X713500Y373700D02*
X719200Y368000D01*
X550000Y370000D02*
X553700Y373700D01*
X470000Y370000D02*
X480000D01*
X460000D02*
X470000D01*
X540000D02*
X550000D01*
X530000D02*
X540000D01*
X520000D02*
X530000D01*
X480000D02*
X490000D01*
X510000D02*
X520000D01*
X490000D02*
X500000D01*
X510000D01*
X550000Y70000D02*
X597200D01*
X624400Y42800D01*
X735600D01*
X741575Y48775D01*
X876575D01*
X887700Y59900D01*
X898000D01*
X899000Y58900D01*
Y54300D02*
Y58900D01*
X895694Y50994D02*
X899000Y54300D01*
X895694Y35714D02*
Y50994D01*
Y35714D02*
X897000Y34408D01*
X903269D01*
Y46469D01*
X910000Y53200D01*
Y70354D01*
X659900Y160100D02*
X661300Y158700D01*
X460000Y70000D02*
X470000D01*
X643100Y69100D02*
X643900D01*
X635500Y76700D02*
X643100Y69100D01*
X556700Y76700D02*
X635500D01*
X550000Y70000D02*
X556700Y76700D01*
X540000Y70000D02*
X550000D01*
X530000D02*
X540000D01*
X510000D02*
X520000D01*
X530000D01*
X500000D02*
X510000D01*
X490000D02*
X500000D01*
X470000D02*
X480000D01*
X490000D01*
X289291Y360000D02*
X320000D01*
X99583Y140000D02*
Y150000D01*
Y140000D02*
X130291D01*
Y150000D01*
X99583Y360000D02*
X130291D01*
X50000Y365000D02*
X64000D01*
X66600Y362400D01*
X94100D01*
X96500Y360000D01*
X99583D01*
X320000D02*
X325700D01*
X331600Y354100D01*
X957939Y440700D02*
X993700D01*
X952000Y434761D02*
X957939Y440700D01*
X949725Y434761D02*
X952000D01*
X948064Y433100D02*
X949725Y434761D01*
X940000Y429646D02*
Y433100D01*
X959639Y437800D02*
X963639D01*
X954739Y432900D02*
X959639Y437800D01*
X951768Y432900D02*
X954739D01*
X943277Y424408D02*
X951768Y432900D01*
X931000Y424408D02*
X943277D01*
X930000Y425408D02*
X931000Y424408D01*
X930000Y425408D02*
Y429646D01*
X920000Y427700D02*
Y429646D01*
X922908Y427700D02*
X928000Y422608D01*
X944354D01*
X952373Y430627D01*
X956600D01*
X960373Y434400D01*
X984943D01*
X986743Y436200D01*
X1008900D01*
X890000Y424000D02*
Y429646D01*
Y424000D02*
X896700Y417300D01*
X903569D01*
X906917Y413952D01*
X966883D01*
X969273Y411562D01*
X974873D01*
X977262Y413952D01*
X987952D01*
X998000Y424000D01*
Y426000D01*
X1007000Y416400D02*
X1018030D01*
X1002000Y411400D02*
X1007000Y416400D01*
X978310Y411400D02*
X1002000D01*
X976673Y409762D02*
X978310Y411400D01*
X967473Y409762D02*
X976673D01*
X965735Y411500D02*
X967473Y409762D01*
X903969Y411500D02*
X965735D01*
X900069Y415400D02*
X903969Y411500D01*
X879000Y415400D02*
X900069D01*
X870000Y424400D02*
X879000Y415400D01*
X870000Y424400D02*
Y429646D01*
X802500Y405133D02*
X805467Y408100D01*
X858000D01*
X859800Y409900D01*
Y415500D01*
X860000Y415700D01*
Y429646D01*
X850000Y425400D02*
Y429646D01*
X837858Y413258D02*
X850000Y425400D01*
X803898Y413258D02*
X837858D01*
X793400Y402760D02*
X803898Y413258D01*
X793400Y383726D02*
Y402760D01*
X840000Y429646D02*
Y433900D01*
X838900Y435000D02*
X840000Y433900D01*
X796751Y435000D02*
X838900D01*
X795051Y436700D02*
X796751Y435000D01*
X785017Y436700D02*
X795051D01*
X783719Y435402D02*
X785017Y436700D01*
X783719Y421019D02*
Y435402D01*
X777600Y414900D02*
X783719Y421019D01*
X777600Y408431D02*
Y414900D01*
Y408431D02*
X786031Y400000D01*
X788700D01*
X785200Y378022D02*
Y391100D01*
X791500Y397400D01*
Y409441D01*
X806467Y424408D01*
X819000D01*
X820000Y425408D01*
Y429646D01*
X786100Y408500D02*
Y413734D01*
X790000Y417634D01*
Y429646D01*
X770000D02*
Y438600D01*
X768700Y439900D02*
X770000Y438600D01*
X652400Y439900D02*
X768700D01*
X644800Y432300D02*
X652400Y439900D01*
X640900Y432300D02*
X644800D01*
X639200Y434000D02*
X640900Y432300D01*
X639200Y434000D02*
Y435000D01*
X632200Y442000D02*
X639200Y435000D01*
X631500Y446100D02*
X642500D01*
X629300Y443900D02*
X631500Y446100D01*
X629300Y435400D02*
Y443900D01*
Y435400D02*
X636100Y428600D01*
X647400D01*
X648400Y429600D01*
X750000D02*
Y429646D01*
X638000Y440600D02*
X642600D01*
X645500Y443500D01*
X669946D01*
X682080Y455635D01*
Y459159D01*
X682422Y459500D01*
X690460D01*
X691560Y458400D01*
X750000D02*
Y460354D01*
X760000Y455800D02*
Y460354D01*
X758000Y453800D02*
X760000Y455800D01*
X693599Y453800D02*
X758000D01*
X689760Y457639D02*
X693599Y453800D01*
X685799Y457639D02*
X689760D01*
X684160Y456000D02*
X685799Y457639D01*
X684160Y455060D02*
Y456000D01*
X670800Y441700D02*
X684160Y455060D01*
X648100Y441700D02*
X670800D01*
X642000Y435600D02*
X648100Y441700D01*
X780000Y460354D02*
Y465500D01*
X775900Y469600D02*
X780000Y465500D01*
X686152Y469600D02*
X775900D01*
X673100Y456548D02*
X686152Y469600D01*
X673100Y452300D02*
Y456548D01*
X668000Y447200D02*
X673100Y452300D01*
X665000Y447200D02*
X668000D01*
X663700Y448500D02*
X665000Y447200D01*
X663700Y448500D02*
Y455200D01*
X660900Y458000D02*
X663700Y455200D01*
X628000Y458000D02*
X660900D01*
X622400Y452400D02*
X628000Y458000D01*
X622400Y436800D02*
Y452400D01*
Y436800D02*
X628800Y430400D01*
X864100Y475700D02*
X880300D01*
X862600Y477200D02*
X864100Y475700D01*
X795200Y477200D02*
X862600D01*
X790000Y472000D02*
X795200Y477200D01*
X790000Y460354D02*
Y472000D01*
X802700Y474000D02*
X858300D01*
X796600Y467900D02*
X802700Y474000D01*
X796600Y455200D02*
Y467900D01*
Y455200D02*
X796800Y455000D01*
X808900D01*
X810000Y456100D01*
Y460354D01*
X795200Y481400D02*
X881700D01*
X786600Y472800D02*
X795200Y481400D01*
X786600Y455900D02*
Y472800D01*
Y455900D02*
X790000Y452500D01*
X818000D01*
X820000Y454500D01*
Y460354D01*
X856600Y411900D02*
X857000Y411500D01*
X856600Y411900D02*
Y462260D01*
X853269Y465592D02*
X856600Y462260D01*
X846731Y465592D02*
X853269D01*
X846700Y465560D02*
X846731Y465592D01*
X846700Y455969D02*
Y465560D01*
X844531Y453800D02*
X846700Y455969D01*
X832000Y453800D02*
X844531D01*
X830000Y455800D02*
X832000Y453800D01*
X830000Y455800D02*
Y460354D01*
X850000Y455663D02*
Y460354D01*
Y455663D02*
X853400Y452263D01*
Y424500D02*
Y452263D01*
X840100Y411200D02*
X853400Y424500D01*
X804385Y411200D02*
X840100D01*
X795500Y402315D02*
X804385Y411200D01*
X795500Y397200D02*
Y402315D01*
Y397200D02*
X798000Y394700D01*
X847900D01*
X860000Y440200D02*
X862000Y438200D01*
X860000Y440200D02*
Y460354D01*
X900000D02*
Y464392D01*
X906708Y471100D01*
X931392D01*
X935100Y467392D01*
Y446900D02*
Y467392D01*
Y446900D02*
X939300Y442700D01*
X937583Y351700D02*
X940200Y354317D01*
X875500Y351700D02*
X937583D01*
X846500Y322700D02*
X875500Y351700D01*
X810300Y322700D02*
X846500D01*
X795600Y308000D02*
X810300Y322700D01*
X780400Y308000D02*
X795600D01*
X778400Y306000D02*
X780400Y308000D01*
X778400Y298200D02*
Y306000D01*
X817300Y91200D02*
Y100200D01*
X811900Y85800D02*
X817300Y91200D01*
X771100Y85800D02*
X811900D01*
X768900Y88000D02*
X771100Y85800D01*
X768900Y88000D02*
Y89900D01*
X736400D02*
X768900D01*
X727600Y81100D02*
X736400Y89900D01*
X695900Y81100D02*
X727600D01*
X679100Y64300D02*
X695900Y81100D01*
X659500Y64300D02*
X679100D01*
X657700Y66100D02*
X659500Y64300D01*
X657700Y66100D02*
Y77300D01*
X641600Y93400D02*
X657700Y77300D01*
X639646Y155000D02*
X641600D01*
X639646Y175000D02*
X646900D01*
X647000Y174900D01*
Y91493D02*
Y174900D01*
Y91493D02*
X661800Y76693D01*
Y68557D02*
Y76693D01*
Y68557D02*
X664057Y66300D01*
X677400D01*
X694000Y82900D01*
X724145D01*
X732945Y91700D01*
X770700D01*
Y90000D02*
Y91700D01*
Y90000D02*
X773000Y87700D01*
X809701D01*
X813299Y91298D01*
Y116733D01*
X816600Y120035D01*
X631900Y205000D02*
X639646D01*
X628800Y201900D02*
X631900Y205000D01*
X628800Y199100D02*
Y201900D01*
Y199100D02*
X630100Y197800D01*
X633900D01*
X634500Y198400D01*
X646000D01*
X649400Y201800D01*
Y205900D01*
X662368Y218868D01*
X712132D01*
X714100Y216900D01*
X738600D01*
X749160Y227460D01*
X776758D01*
X778500Y225718D01*
Y223000D02*
Y225718D01*
Y223000D02*
X779600Y221900D01*
X810584D01*
X635400Y225000D02*
X639646D01*
X634400Y226000D02*
X635400Y225000D01*
X634400Y226000D02*
Y238200D01*
X634500Y238300D01*
X735200D01*
X737900Y241000D01*
X757220D01*
X757420Y241200D01*
X783500D01*
X786600Y238100D01*
X818900D01*
X820100Y239300D01*
Y243600D01*
X818000Y245700D02*
X820100Y243600D01*
X812200Y245700D02*
X818000D01*
X908300Y230500D02*
X926516D01*
X903300Y235500D02*
X908300Y230500D01*
X739850Y235500D02*
X903300D01*
X735550Y231200D02*
X739850Y235500D01*
X665700Y231200D02*
X735550D01*
X661900Y235000D02*
X665700Y231200D01*
X639646Y235000D02*
X661900D01*
X796049Y253000D02*
X906000D01*
X793449Y255600D02*
X796049Y253000D01*
X787951Y255600D02*
X793449D01*
X786751Y254400D02*
X787951Y255600D01*
X767423Y254400D02*
X786751D01*
X765523Y256300D02*
X767423Y254400D01*
X757400Y256300D02*
X765523D01*
X755100Y254000D02*
X757400Y256300D01*
X723600Y254000D02*
X755100D01*
X719200Y258400D02*
X723600Y254000D01*
X665200Y258400D02*
X719200D01*
X661800Y255000D02*
X665200Y258400D01*
X639646Y255000D02*
X661800D01*
X851028Y342377D02*
X860500D01*
X834552Y325900D02*
X851028Y342377D01*
X778753Y325900D02*
X834552D01*
X775700Y322847D02*
X778753Y325900D01*
X775700Y300100D02*
Y322847D01*
X775300Y299700D02*
X775700Y300100D01*
X769200Y299700D02*
X775300D01*
X768900Y300000D02*
X769200Y299700D01*
X768900Y300000D02*
Y306700D01*
X766800Y308800D02*
X768900Y306700D01*
X762000Y308800D02*
X766800D01*
X759600Y306400D02*
X762000Y308800D01*
X718350Y306400D02*
X759600D01*
X716350Y308400D02*
X718350Y306400D01*
X645000Y308400D02*
X716350D01*
X641600Y305000D02*
X645000Y308400D01*
X639646Y305000D02*
X641600D01*
X639646Y335000D02*
X661600D01*
X665300Y331300D01*
X688100D01*
X726600Y184400D02*
X764300D01*
X770000Y178700D01*
X800500D01*
X807600Y185800D01*
X869499D01*
X875299Y180000D01*
X912600D01*
X914600Y178000D01*
Y145000D02*
Y178000D01*
X663700Y315000D02*
X670354D01*
X649100Y329600D02*
X663700Y315000D01*
X627600Y329600D02*
X649100D01*
X625700Y327700D02*
X627600Y329600D01*
X625700Y286700D02*
Y327700D01*
Y286700D02*
X632000Y280400D01*
X740600D01*
X745400Y275600D01*
X760300Y174000D02*
X766400Y167900D01*
X784416D01*
X786716Y165600D01*
X796500D01*
X800491Y161609D01*
X904391D01*
X909500Y156500D01*
Y145800D02*
Y156500D01*
X905700Y142000D02*
X909500Y145800D01*
X905700Y137700D02*
Y142000D01*
Y137700D02*
X909400Y134000D01*
X656800Y305000D02*
X670354D01*
Y295000D02*
X681900D01*
X682500Y295600D01*
X716400D01*
X720700Y299900D01*
X727500D01*
X659700Y209400D02*
X665300Y215000D01*
X670354D01*
X664700Y74200D02*
X681971D01*
X684100Y76329D01*
X682800Y160800D02*
X684100Y159500D01*
X682800Y160800D02*
Y168200D01*
X676000Y175000D02*
X682800Y168200D01*
X670354Y175000D02*
X676000D01*
X670354Y165000D02*
X675300D01*
X667100Y155000D02*
X670354D01*
X697600Y78300D02*
X698450D01*
X705150Y71600D01*
X750000Y70354D02*
Y71600D01*
X751400Y62300D02*
X752400Y63300D01*
X755083D01*
X756900Y65117D01*
X763300D01*
Y66000D01*
X765700Y68400D01*
X770000D02*
Y70354D01*
X780000D02*
Y72300D01*
X773308Y75592D02*
X776600Y72300D01*
X733141Y75592D02*
X773308D01*
X732549Y75000D02*
X733141Y75592D01*
X796400Y160100D02*
X797600Y158900D01*
X896400D01*
X906600Y148700D01*
Y145446D02*
Y148700D01*
X903900Y142746D02*
X906600Y145446D01*
X903900Y134000D02*
Y142746D01*
Y134000D02*
X906800Y131100D01*
X912800D01*
X919400Y137700D01*
Y150000D01*
X920900Y151500D01*
X924300D01*
X925700Y150100D01*
Y112974D02*
Y150100D01*
X917126Y104400D02*
X925700Y112974D01*
X898100Y104400D02*
X917126D01*
X897000Y103300D02*
X898100Y104400D01*
X897000Y101625D02*
Y103300D01*
X890000Y94625D02*
X897000Y101625D01*
X890000Y70354D02*
Y94625D01*
X1008100Y125900D02*
Y126800D01*
X1006800Y124600D02*
X1008100Y125900D01*
X1006800Y113200D02*
Y124600D01*
X1004400Y110800D02*
X1006800Y113200D01*
X1004400Y101600D02*
Y110800D01*
X995300Y92500D02*
X1004400Y101600D01*
X940200Y92500D02*
X995300D01*
X923400Y75700D02*
X940200Y92500D01*
X906600Y75700D02*
X923400D01*
X906600Y59000D02*
Y75700D01*
X900000Y52400D02*
X906600Y59000D01*
X900000Y39646D02*
Y52400D01*
X890000Y35406D02*
Y39646D01*
Y35406D02*
X892797Y32608D01*
X905069D01*
X905100Y32640D01*
Y44800D01*
X919000Y58700D01*
X992700Y143500D02*
X1055240D01*
X1062100Y136640D01*
Y110300D02*
Y136640D01*
X1001500Y49700D02*
X1062100Y110300D01*
X958600Y49700D02*
X1001500D01*
X943300Y34400D02*
X958600Y49700D01*
X910460Y34400D02*
X943300D01*
X906869Y30808D02*
X910460Y34400D01*
X884592Y30808D02*
X906869D01*
X880000Y35400D02*
X884592Y30808D01*
X880000Y35400D02*
Y39646D01*
X986000Y142800D02*
Y143500D01*
Y142800D02*
X988400Y140400D01*
X1026100D01*
X1026920Y141220D01*
X1052280D01*
X1059400Y134100D01*
Y130000D02*
Y134100D01*
X1056900Y127500D02*
X1059400Y130000D01*
X1043700Y127500D02*
X1056900D01*
X1000600Y84400D02*
X1043700Y127500D01*
X992800Y84400D02*
X1000600D01*
X860000Y35800D02*
X865400Y30400D01*
X860000Y35800D02*
Y39646D01*
X840000Y34700D02*
Y39646D01*
Y34700D02*
X845000Y29700D01*
X860000Y14700D02*
X985000D01*
X976300Y125700D02*
X998400Y103600D01*
X949200Y125700D02*
X976300D01*
X944800Y130100D02*
X949200Y125700D01*
X944800Y130100D02*
Y133400D01*
X945900Y134500D01*
X966102D01*
X981102Y149500D01*
X780000Y34500D02*
Y39646D01*
Y34500D02*
X789500Y25000D01*
X834900D01*
X836600Y23300D01*
X882700D01*
X884808Y25408D01*
X911445D01*
X913037Y27000D01*
X931600D01*
X935100Y30500D01*
X1069500D01*
X1082500Y43500D01*
Y79400D01*
X1078200Y231700D02*
X1082500Y227400D01*
X962554Y231700D02*
X1078200D01*
X929241Y265013D02*
X962554Y231700D01*
X926374Y265013D02*
X929241D01*
X914587Y276800D02*
X926374Y265013D01*
X905800Y276800D02*
X914587D01*
X904500Y278100D02*
X905800Y276800D01*
X904500Y278100D02*
Y284880D01*
X912200Y292580D01*
Y298000D01*
X915200Y301000D01*
Y304200D01*
X1055100Y346000D02*
Y376400D01*
Y346000D02*
X1056100Y345000D01*
X1060354D01*
X1024700Y399500D02*
X1050700Y373500D01*
Y340000D02*
Y373500D01*
Y340000D02*
X1055700Y335000D01*
X1060354D01*
X994811Y414200D02*
X1000811Y420200D01*
X1028597D01*
X1066200Y382597D01*
Y315900D02*
Y382597D01*
X1065300Y315000D02*
X1066200Y315900D01*
X1060354Y315000D02*
X1065300D01*
X1060354Y295000D02*
X1065500D01*
X1068500Y298000D01*
X1066800Y275000D02*
X1068700Y276900D01*
X1060354Y275000D02*
X1066800D01*
X1060354Y265000D02*
X1079750D01*
X1088200Y253800D02*
X1091400Y257000D01*
X1074500Y253800D02*
X1088200D01*
X1073300Y255000D02*
X1074500Y253800D01*
X1060354Y255000D02*
X1073300D01*
X1039500Y53720D02*
Y55720D01*
X1069300Y85520D01*
Y194100D01*
X1064400Y199000D02*
X1069300Y194100D01*
X1058000Y199000D02*
X1064400D01*
X1055100Y201900D02*
X1058000Y199000D01*
X1055100Y201900D02*
Y208000D01*
X1057500Y210400D01*
X1064300D01*
X1065900Y212000D01*
Y224000D01*
X1064900Y225000D02*
X1065900Y224000D01*
X1060354Y225000D02*
X1064900D01*
X1042300Y221800D02*
X1044800D01*
X1051600Y215000D01*
X1060354D01*
X1060545Y71345D02*
X1071100Y81900D01*
Y200100D01*
X1066200Y205000D02*
X1071100Y200100D01*
X1060354Y205000D02*
X1066200D01*
X365500Y303700D02*
Y315000D01*
X384991Y205591D02*
X535000D01*
X365900Y186500D02*
X384991Y205591D01*
X377940Y159600D02*
X384540Y166200D01*
X368500Y159600D02*
X377940D01*
X387500Y252200D02*
X404600Y269300D01*
Y279400D01*
X388500Y295500D02*
X404600Y279400D01*
X398700Y149100D02*
X480309D01*
X535000Y94409D01*
X958200Y457500D02*
X1057100D01*
X953500Y452800D02*
X958200Y457500D01*
X1037600Y443200D02*
X1041700Y447300D01*
X1014287Y443200D02*
X1037600D01*
X1011715Y445772D02*
X1014287Y443200D01*
X955410Y445772D02*
X1011715D01*
X948000Y438361D02*
X955410Y445772D01*
X941990Y438361D02*
X948000D01*
X940628Y437000D02*
X941990Y438361D01*
X917700Y437000D02*
X940628D01*
X915000Y439700D02*
X917700Y437000D01*
X1041600Y440700D02*
X1044500Y437800D01*
Y433800D02*
Y437800D01*
X1042400Y431700D02*
X1044500Y433800D01*
X1037500Y431700D02*
X1042400D01*
X1036800Y432400D02*
X1037500Y431700D01*
X1008000Y432400D02*
X1036800D01*
X1006100Y434300D02*
X1008000Y432400D01*
X989300Y434300D02*
X1006100D01*
X987600Y432600D02*
X989300Y434300D01*
X962552Y432600D02*
X987600D01*
X958400Y428448D02*
X962552Y432600D01*
X954440Y428448D02*
X958400D01*
X946800Y420808D02*
X954440Y428448D01*
X909992Y420808D02*
X946800D01*
X905000Y425800D02*
X909992Y420808D01*
X905000Y425800D02*
Y436300D01*
X1056000Y436043D02*
X1075500Y455543D01*
Y465400D01*
X1048300Y492600D02*
X1075500Y465400D01*
X873500Y492600D02*
X1048300D01*
X716066Y478600D02*
X755900D01*
X867000Y398000D02*
X875000Y406000D01*
X867000Y396000D02*
Y398000D01*
Y396000D02*
X869400Y393600D01*
X897500D01*
X903700Y399800D01*
X911300Y392600D02*
X917300Y386600D01*
Y380082D02*
Y386600D01*
X911918Y374700D02*
X917300Y380082D01*
X908459Y374700D02*
X911918D01*
X763000Y104200D02*
Y151500D01*
X762100Y275600D02*
X781300Y294800D01*
Y303900D01*
X866600Y210600D02*
X895100D01*
X862600Y206600D02*
X866600Y210600D01*
X918200Y169300D02*
X958100D01*
X961598Y165802D01*
Y163000D02*
Y165802D01*
X960098Y161500D02*
X961598Y163000D01*
X940900Y161500D02*
X960098D01*
X927700Y148300D02*
X940900Y161500D01*
X927700Y112340D02*
Y148300D01*
X917860Y102500D02*
X927700Y112340D01*
X900000Y102500D02*
X917860D01*
X898800Y101300D02*
X900000Y102500D01*
X898800Y98220D02*
Y101300D01*
X893600Y93020D02*
X898800Y98220D01*
X893600Y65431D02*
Y93020D01*
X893062Y64893D02*
X893600Y65431D01*
X880093Y64893D02*
X893062D01*
X877100Y61900D02*
X880093Y64893D01*
X893600Y221700D02*
X894500Y222600D01*
X862600Y221700D02*
X893600D01*
X908629Y168900D02*
X911100Y171371D01*
X843500Y168900D02*
X908629D01*
X843000Y177200D02*
X908300D01*
X805000Y57400D02*
X808100Y54300D01*
X866000D01*
X868300Y56600D01*
X867100Y123500D02*
X869000Y121600D01*
X825777Y123500D02*
X867100D01*
X825277Y123000D02*
X825777Y123500D01*
X809399Y123000D02*
X825277D01*
X795000Y108601D02*
X809399Y123000D01*
X795000Y94300D02*
Y108601D01*
X778700Y128100D02*
Y148400D01*
X781300Y151000D01*
Y154800D01*
X785100Y158600D01*
X793400D01*
X795000Y157000D01*
X871400D01*
X877400Y151000D01*
X628900Y58300D02*
X637300Y49900D01*
X704300Y263000D02*
X767000D01*
X784500Y246800D02*
X788100D01*
X782500Y248800D02*
X784500Y246800D01*
X773600Y248800D02*
X782500D01*
X771500Y246700D02*
X773600Y248800D01*
X715800Y246700D02*
X771500D01*
X714000Y248500D02*
X715800Y246700D01*
X790500Y252500D02*
X790700Y252700D01*
X768923Y252500D02*
X790500D01*
X766723Y250300D02*
X768923Y252500D01*
X720200Y250300D02*
X766723D01*
X717300Y253200D02*
X720200Y250300D01*
X706700Y253200D02*
X717300D01*
X705100Y251600D02*
X706700Y253200D01*
X662100Y251600D02*
X705100D01*
X762700Y201300D02*
X772100D01*
X760300Y198900D02*
X762700Y201300D01*
X729400Y198900D02*
X760300D01*
X1003900Y120100D02*
Y122000D01*
X1005000Y123100D01*
Y128600D01*
X1006000Y129600D01*
X1009700D01*
X1010800Y128500D01*
X1041600D01*
X1046500Y133400D01*
X1002100Y127800D02*
Y130700D01*
X1002800Y131400D01*
X1037000D01*
X981300Y206100D02*
X983700Y208500D01*
X1043700D01*
X928300Y273816D02*
X942384D01*
X975100Y241100D01*
X1039900D01*
X998900Y286500D02*
X1002700Y282700D01*
X930600Y286500D02*
X998900D01*
X921200Y295900D02*
X930600Y286500D01*
X1041100Y258700D02*
Y262700D01*
X1034000Y251600D02*
X1041100Y258700D01*
X1022200Y251600D02*
X1034000D01*
X1005800Y268000D02*
X1022200Y251600D01*
X992300Y281500D02*
X996300Y277500D01*
X922700Y281500D02*
X992300D01*
X1035900Y249300D02*
X1042600Y256000D01*
X973085Y249300D02*
X1035900D01*
X945585Y276800D02*
X973085Y249300D01*
X919200Y276800D02*
X945585D01*
X917300Y278700D02*
X919200Y276800D01*
X908400Y278700D02*
X917300D01*
X907400Y279700D02*
X908400Y278700D01*
X1008900Y279000D02*
X1041500D01*
X982900Y253000D02*
X1008900Y279000D01*
X977900Y253000D02*
X982900D01*
X952200Y278700D02*
X977900Y253000D01*
X920900Y278700D02*
X952200D01*
X918100Y281500D02*
X920900Y278700D01*
X913400Y281500D02*
X918100D01*
X904800Y298000D02*
X909200Y302400D01*
Y306000D01*
X913400Y310200D01*
X1043800D01*
X900700Y270400D02*
X907400Y263700D01*
Y262000D02*
Y263700D01*
Y262000D02*
X924900Y244500D01*
X927700D01*
X945300Y226900D01*
X1012900D01*
X99583Y290000D02*
X109700D01*
X113100Y293400D01*
X160700D01*
X170700Y303400D01*
X344100D01*
X361026Y286474D01*
Y269100D02*
Y286474D01*
X130291Y260000D02*
X176500D01*
X179800Y256700D01*
X356400D01*
X360800Y261100D01*
X328300Y277900D02*
Y290100D01*
X324000Y294400D02*
X328300Y290100D01*
X203300Y294400D02*
X324000D01*
X188900Y280000D02*
X203300Y294400D01*
X130291Y280000D02*
X188900D01*
X99583D02*
X122300D01*
X127369Y274931D01*
X332831D01*
X335500Y277600D01*
X130291Y310000D02*
X148100D01*
X152800Y305300D01*
X348600D01*
X379300Y274600D01*
Y257323D02*
Y274600D01*
X384400Y211323D02*
Y232700D01*
X380400Y207323D02*
X384400Y211323D01*
X0Y0D02*
X1100000D01*
Y500000D01*
X0D02*
X1100000D01*
X0Y0D02*
Y500000D01*
D23*
X456783Y458098D02*
D03*
Y475815D02*
D03*
D24*
X530000Y383000D02*
D03*
X460000D02*
D03*
X470000D02*
D03*
X480000D02*
D03*
X490000D02*
D03*
X500000D02*
D03*
X510000D02*
D03*
X520000D02*
D03*
X540000D02*
D03*
X420000D02*
D03*
X350000D02*
D03*
X360000D02*
D03*
X370000D02*
D03*
X380000D02*
D03*
X390000D02*
D03*
X400000D02*
D03*
X410000D02*
D03*
X430000D02*
D03*
X440000Y40000D02*
D03*
X450000D02*
D03*
X20000Y35000D02*
D03*
Y45000D02*
D03*
Y55000D02*
D03*
Y65000D02*
D03*
Y75000D02*
D03*
Y85000D02*
D03*
Y95000D02*
D03*
Y105000D02*
D03*
Y115000D02*
D03*
Y125000D02*
D03*
Y135000D02*
D03*
Y145000D02*
D03*
Y155000D02*
D03*
Y165000D02*
D03*
Y175000D02*
D03*
Y185000D02*
D03*
Y195000D02*
D03*
Y205000D02*
D03*
Y215000D02*
D03*
X50000Y35000D02*
D03*
Y45000D02*
D03*
Y55000D02*
D03*
Y65000D02*
D03*
Y75000D02*
D03*
Y85000D02*
D03*
Y95000D02*
D03*
Y105000D02*
D03*
Y115000D02*
D03*
Y125000D02*
D03*
Y135000D02*
D03*
Y145000D02*
D03*
Y155000D02*
D03*
Y165000D02*
D03*
Y175000D02*
D03*
Y185000D02*
D03*
Y195000D02*
D03*
Y205000D02*
D03*
Y215000D02*
D03*
Y295000D02*
D03*
Y305000D02*
D03*
Y315000D02*
D03*
Y325000D02*
D03*
Y335000D02*
D03*
Y345000D02*
D03*
Y355000D02*
D03*
Y365000D02*
D03*
Y375000D02*
D03*
Y385000D02*
D03*
Y395000D02*
D03*
Y405000D02*
D03*
Y415000D02*
D03*
Y425000D02*
D03*
Y435000D02*
D03*
Y445000D02*
D03*
Y455000D02*
D03*
Y465000D02*
D03*
Y475000D02*
D03*
X20000Y295000D02*
D03*
Y305000D02*
D03*
Y315000D02*
D03*
Y325000D02*
D03*
Y335000D02*
D03*
Y345000D02*
D03*
Y355000D02*
D03*
Y365000D02*
D03*
Y375000D02*
D03*
Y385000D02*
D03*
Y395000D02*
D03*
Y405000D02*
D03*
Y415000D02*
D03*
Y425000D02*
D03*
Y435000D02*
D03*
Y445000D02*
D03*
Y455000D02*
D03*
Y465000D02*
D03*
Y475000D02*
D03*
X411000Y420000D02*
D03*
X401000D02*
D03*
X480000Y370000D02*
D03*
X550000D02*
D03*
X540000D02*
D03*
X530000D02*
D03*
X520000D02*
D03*
X510000D02*
D03*
X500000D02*
D03*
X490000D02*
D03*
X470000D02*
D03*
X370000D02*
D03*
X440000D02*
D03*
X430000D02*
D03*
X420000D02*
D03*
X410000D02*
D03*
X400000D02*
D03*
X390000D02*
D03*
X380000D02*
D03*
X360000D02*
D03*
X480000Y70000D02*
D03*
X550000D02*
D03*
X540000D02*
D03*
X530000D02*
D03*
X520000D02*
D03*
X510000D02*
D03*
X500000D02*
D03*
X490000D02*
D03*
X470000D02*
D03*
X370000D02*
D03*
X440000D02*
D03*
X430000D02*
D03*
X420000D02*
D03*
X410000D02*
D03*
X400000D02*
D03*
X390000D02*
D03*
X380000D02*
D03*
X360000D02*
D03*
D25*
X550000Y383000D02*
D03*
X440000D02*
D03*
X430000Y40000D02*
D03*
X421000Y420000D02*
D03*
X460000Y370000D02*
D03*
X350000D02*
D03*
X460000Y70000D02*
D03*
X350000D02*
D03*
D26*
X20000Y25000D02*
D03*
X50000D02*
D03*
Y285000D02*
D03*
X20000D02*
D03*
D27*
X535000Y275591D02*
D03*
Y135591D02*
D03*
Y345591D02*
D03*
Y205591D02*
D03*
D28*
Y234409D02*
D03*
Y94409D02*
D03*
Y304409D02*
D03*
Y164409D02*
D03*
D29*
X190000Y25000D02*
D03*
D30*
X210000D02*
D03*
D31*
X75000Y475000D02*
D03*
Y25000D02*
D03*
D32*
X670300Y144300D02*
D03*
X661300Y151200D02*
D03*
X669200Y138500D02*
D03*
X82553Y180000D02*
D03*
X43700Y172000D02*
D03*
X71647Y184700D02*
D03*
X86200Y190000D02*
D03*
X90800Y297800D02*
D03*
X248200Y300000D02*
D03*
X115000Y200000D02*
D03*
X203000Y285000D02*
D03*
X328200Y309000D02*
D03*
X237800Y310000D02*
D03*
X312100Y284100D02*
D03*
X306000Y290000D02*
D03*
X193200Y280000D02*
D03*
X164300Y308800D02*
D03*
X114700Y305200D02*
D03*
X59600Y279500D02*
D03*
X61100Y96300D02*
D03*
X262900Y142100D02*
D03*
X304900Y190000D02*
D03*
X312100Y186100D02*
D03*
X261400Y395800D02*
D03*
Y266700D02*
D03*
X161400Y338200D02*
D03*
X207800Y316800D02*
D03*
X167200Y332200D02*
D03*
X207600Y357200D02*
D03*
X79200Y329700D02*
D03*
X87000Y335900D02*
D03*
X82100Y350500D02*
D03*
X141600Y212000D02*
D03*
X775300Y401500D02*
D03*
X1043700Y158400D02*
D03*
X727100Y91975D02*
D03*
X686900Y84300D02*
D03*
X972600Y372716D02*
D03*
X803500Y295000D02*
D03*
X958798Y164300D02*
D03*
X908700Y140500D02*
D03*
X726016Y100382D02*
D03*
X796400Y358900D02*
D03*
X880900D02*
D03*
X1043700Y167800D02*
D03*
X1045600Y124600D02*
D03*
X975200Y77900D02*
D03*
X1006200Y235000D02*
D03*
X808500Y405300D02*
D03*
X659000Y169269D02*
D03*
X992900Y185000D02*
D03*
X968700Y266300D02*
D03*
X990600Y270000D02*
D03*
Y301300D02*
D03*
X1037500D02*
D03*
X981600Y256100D02*
D03*
X1083500Y245700D02*
D03*
X1073700Y56000D02*
D03*
X958000Y41400D02*
D03*
X765500Y437100D02*
D03*
X657700Y175000D02*
D03*
X925700Y21700D02*
D03*
X1089200Y55000D02*
D03*
X1076950Y280000D02*
D03*
X1008300Y398900D02*
D03*
X1031700Y410300D02*
D03*
X710700Y370900D02*
D03*
X798900Y397800D02*
D03*
X866200Y408000D02*
D03*
X1007600Y103400D02*
D03*
X1009700Y120500D02*
D03*
X742500Y260100D02*
D03*
X738700Y158000D02*
D03*
X687000Y149900D02*
D03*
X703800Y151700D02*
D03*
X987085Y429400D02*
D03*
X1064000Y431700D02*
D03*
X843556Y383957D02*
D03*
X911000Y386700D02*
D03*
X778400Y257700D02*
D03*
X851800D02*
D03*
X598000Y87800D02*
D03*
X650100Y73600D02*
D03*
X963000Y120800D02*
D03*
X1023400Y81700D02*
D03*
X954300Y89700D02*
D03*
Y96500D02*
D03*
X940900Y133000D02*
D03*
X173500Y138000D02*
D03*
X1017000Y446280D02*
D03*
X950100Y474400D02*
D03*
X906500Y441800D02*
D03*
X966200Y420200D02*
D03*
X1004400Y409600D02*
D03*
X796100Y409800D02*
D03*
X789400Y413000D02*
D03*
X780600Y409831D02*
D03*
X683300Y449500D02*
D03*
X633200Y435700D02*
D03*
X625300Y441600D02*
D03*
X874000Y440100D02*
D03*
X869000Y371200D02*
D03*
X925300Y377400D02*
D03*
X910100Y468300D02*
D03*
X773200Y281500D02*
D03*
X912500Y343000D02*
D03*
X956000Y417208D02*
D03*
X876900Y468300D02*
D03*
X878900Y299800D02*
D03*
X780000Y278600D02*
D03*
X793300Y273700D02*
D03*
X882800Y304300D02*
D03*
X891700Y468300D02*
D03*
X785900Y295900D02*
D03*
X937300Y344300D02*
D03*
X933300Y442700D02*
D03*
X920000Y443195D02*
D03*
X926800Y335000D02*
D03*
X786700Y281500D02*
D03*
X792300Y281600D02*
D03*
X959400Y348759D02*
D03*
X925900Y443600D02*
D03*
X771800Y302700D02*
D03*
X944650Y360300D02*
D03*
X944800Y443000D02*
D03*
X822200Y106000D02*
D03*
X821531Y207300D02*
D03*
X810600Y213000D02*
D03*
X816931Y241100D02*
D03*
X631700D02*
D03*
Y215000D02*
D03*
X913098Y237400D02*
D03*
X911330Y264570D02*
D03*
X913250Y270850D02*
D03*
X861500Y284600D02*
D03*
X713700Y298500D02*
D03*
X727000Y212100D02*
D03*
X907000Y219400D02*
D03*
X876300Y194800D02*
D03*
X735300D02*
D03*
X732200Y310700D02*
D03*
X901600Y99700D02*
D03*
X626100Y73300D02*
D03*
X628600Y325000D02*
D03*
X713800Y319400D02*
D03*
X731400Y190400D02*
D03*
X900700Y195800D02*
D03*
X703400Y345000D02*
D03*
X761500Y215000D02*
D03*
X889900Y198000D02*
D03*
X845200Y345800D02*
D03*
X804500Y340900D02*
D03*
X865100Y142100D02*
D03*
X906200Y127398D02*
D03*
X751600Y293800D02*
D03*
X712500Y348300D02*
D03*
X713300Y354200D02*
D03*
X762400Y253177D02*
D03*
X778800Y245800D02*
D03*
X779900Y238400D02*
D03*
X631700Y200700D02*
D03*
X663900Y86200D02*
D03*
X679500Y87200D02*
D03*
X680300Y77200D02*
D03*
X723300Y68800D02*
D03*
X741300Y66949D02*
D03*
X736500Y81600D02*
D03*
X740500Y86700D02*
D03*
X744000Y82400D02*
D03*
X795300Y141400D02*
D03*
X777900Y175900D02*
D03*
X851100Y181700D02*
D03*
Y117000D02*
D03*
X787700Y152900D02*
D03*
X852200Y150000D02*
D03*
X848300Y60900D02*
D03*
X791700Y168700D02*
D03*
X856400Y165700D02*
D03*
X862600Y59800D02*
D03*
X854000Y59900D02*
D03*
X847600Y210000D02*
D03*
X801500Y206200D02*
D03*
X800900Y145600D02*
D03*
X797700Y181500D02*
D03*
X896100Y57000D02*
D03*
X940100Y123602D02*
D03*
X988800Y154100D02*
D03*
X986000Y129100D02*
D03*
X993000Y99900D02*
D03*
X876400Y30477D02*
D03*
X927000Y31600D02*
D03*
X967600Y100100D02*
D03*
X971200Y122900D02*
D03*
X816800Y31800D02*
D03*
X889900Y189500D02*
D03*
X940900Y196800D02*
D03*
X950100Y252700D02*
D03*
X824600Y15700D02*
D03*
Y32300D02*
D03*
X801300Y31600D02*
D03*
Y13100D02*
D03*
X1090000Y4400D02*
D03*
X1079800Y272800D02*
D03*
X988700Y253400D02*
D03*
X975600Y314600D02*
D03*
X918839Y318500D02*
D03*
X922600Y304200D02*
D03*
X1076100Y256700D02*
D03*
X1078691Y63900D02*
D03*
X911400Y318500D02*
D03*
X955200Y314200D02*
D03*
Y230300D02*
D03*
X963100Y187600D02*
D03*
X937500Y115400D02*
D03*
X919900Y21800D02*
D03*
X911700Y18000D02*
D03*
X1038200Y376400D02*
D03*
X986220Y419320D02*
D03*
X1068500Y285000D02*
D03*
X1094400Y234400D02*
D03*
X383200Y242500D02*
D03*
X900600Y62400D02*
D03*
X890600Y56900D02*
D03*
X385400Y196700D02*
D03*
X438500Y162000D02*
D03*
X462300Y260145D02*
D03*
X400600Y311700D02*
D03*
X1039700Y434600D02*
D03*
X885000Y441800D02*
D03*
X810400Y438900D02*
D03*
X686960Y454839D02*
D03*
X848900Y484400D02*
D03*
X666600Y450000D02*
D03*
X693700Y449800D02*
D03*
X843200Y439000D02*
D03*
X850500Y438800D02*
D03*
X806300Y468900D02*
D03*
X718600Y434900D02*
D03*
X666700Y434100D02*
D03*
X886300Y384000D02*
D03*
X914418Y382000D02*
D03*
X918761Y373161D02*
D03*
X928000Y384400D02*
D03*
X922800Y364900D02*
D03*
X935000Y377100D02*
D03*
X943000Y385300D02*
D03*
X905900Y364800D02*
D03*
X764900Y304600D02*
D03*
X692400D02*
D03*
X765000Y58000D02*
D03*
X825200Y61400D02*
D03*
X835500Y314700D02*
D03*
X810600Y319000D02*
D03*
X806600Y323000D02*
D03*
X778602Y320600D02*
D03*
X773700Y98500D02*
D03*
X804800Y175000D02*
D03*
X856700Y171900D02*
D03*
X785800Y123720D02*
D03*
X808400Y129700D02*
D03*
X911500Y115100D02*
D03*
X808400Y135200D02*
D03*
X907600Y110600D02*
D03*
X939644Y155600D02*
D03*
X905000Y89100D02*
D03*
X922200Y148600D02*
D03*
X893000Y103100D02*
D03*
X918839Y200000D02*
D03*
X882900Y189400D02*
D03*
X827300Y87100D02*
D03*
X878800Y101000D02*
D03*
X815000Y58400D02*
D03*
X869600Y62400D02*
D03*
X781500Y98500D02*
D03*
X869931Y148300D02*
D03*
X782200Y57200D02*
D03*
X885300Y119700D02*
D03*
X869000Y128100D02*
D03*
X766100Y87100D02*
D03*
X644731Y77146D02*
D03*
X656300Y228900D02*
D03*
X717800Y219700D02*
D03*
X781300Y224700D02*
D03*
X782200Y230300D02*
D03*
X719600Y224900D02*
D03*
X662400Y300500D02*
D03*
X770400Y295900D02*
D03*
X1043700Y178800D02*
D03*
X970400Y165700D02*
D03*
X1034300Y138200D02*
D03*
X993800Y124300D02*
D03*
X986220Y123352D02*
D03*
X1043700Y201600D02*
D03*
X974600Y170100D02*
D03*
X1038900Y182700D02*
D03*
X968100Y159100D02*
D03*
X1038100Y190200D02*
D03*
X1042100Y285000D02*
D03*
X915000Y296000D02*
D03*
X354900Y253300D02*
D03*
X252800Y222800D02*
D03*
X350063Y280937D02*
D03*
X42700Y198000D02*
D03*
X146100Y270000D02*
D03*
X333800Y300000D02*
D03*
X384200Y269200D02*
D03*
X377400Y227700D02*
D03*
X66400Y92800D02*
D03*
X201100Y260000D02*
D03*
X228200Y245000D02*
D03*
Y387000D02*
D03*
X213200Y252000D02*
D03*
Y370700D02*
D03*
X81500Y302800D02*
D03*
X948700Y149000D02*
D03*
X942800D02*
D03*
X937300Y188600D02*
D03*
X688200Y186600D02*
D03*
X771700Y382300D02*
D03*
X338341Y217559D02*
D03*
X154100Y218400D02*
D03*
X112500Y260000D02*
D03*
X193300Y220400D02*
D03*
X247700Y449200D02*
D03*
X1025000Y425300D02*
D03*
X972100Y414500D02*
D03*
X1060400Y147800D02*
D03*
X981400Y159300D02*
D03*
X809700Y145500D02*
D03*
X823800Y142004D02*
D03*
X902000Y145500D02*
D03*
X728900Y358900D02*
D03*
X630600Y359700D02*
D03*
X906100Y304100D02*
D03*
X893700Y283900D02*
D03*
X886500Y358900D02*
D03*
Y321300D02*
D03*
X968600Y376716D02*
D03*
X968700Y222600D02*
D03*
X777000Y441200D02*
D03*
X987800Y79200D02*
D03*
X1059200Y121500D02*
D03*
X1070016Y269900D02*
D03*
X1039300Y173000D02*
D03*
X687500Y165300D02*
D03*
X728400Y125900D02*
D03*
X1056400Y131600D02*
D03*
X996700Y129100D02*
D03*
X776100Y161400D02*
D03*
X926600Y248000D02*
D03*
X925350Y262350D02*
D03*
X870800Y396500D02*
D03*
X996457Y396400D02*
D03*
X980400Y125800D02*
D03*
X947700Y131700D02*
D03*
X624800Y366300D02*
D03*
X774400Y264400D02*
D03*
X747000Y347700D02*
D03*
X687000Y171000D02*
D03*
X807000Y106600D02*
D03*
X857300Y270400D02*
D03*
X900600Y264400D02*
D03*
X693400Y362700D02*
D03*
X590700Y363200D02*
D03*
X1051100Y428200D02*
D03*
X1072600Y457100D02*
D03*
X615700Y378300D02*
D03*
X724016D02*
D03*
X712600Y433300D02*
D03*
X785000Y352500D02*
D03*
X461500Y48500D02*
D03*
X1057500Y45500D02*
D03*
X1031500Y71000D02*
D03*
X748900Y54300D02*
D03*
X969400Y452800D02*
D03*
X896600Y293900D02*
D03*
X972800Y307000D02*
D03*
X730316Y375600D02*
D03*
X1068300Y245700D02*
D03*
X1049500Y105400D02*
D03*
X753000Y368000D02*
D03*
X659900Y160100D02*
D03*
X643900Y69100D02*
D03*
X352400Y333300D02*
D03*
X331600Y354100D02*
D03*
X993700Y440700D02*
D03*
X963639Y437800D02*
D03*
X1008900Y436200D02*
D03*
X998000Y426000D02*
D03*
X1018030Y416400D02*
D03*
X802500Y405133D02*
D03*
X793400Y383726D02*
D03*
X788700Y400000D02*
D03*
X785200Y378022D02*
D03*
X786100Y408500D02*
D03*
X632200Y442000D02*
D03*
X642500Y446100D02*
D03*
X638000Y440600D02*
D03*
X642000Y435600D02*
D03*
X628800Y430400D02*
D03*
X880300Y475700D02*
D03*
X858300Y474000D02*
D03*
X881700Y481400D02*
D03*
X857000Y411500D02*
D03*
X847900Y394700D02*
D03*
X862000Y438200D02*
D03*
X939300Y442700D02*
D03*
X940200Y354317D02*
D03*
X778400Y298200D02*
D03*
X817300Y100200D02*
D03*
X816600Y120035D02*
D03*
X810584Y221900D02*
D03*
X812200Y245700D02*
D03*
X926516Y230500D02*
D03*
X906000Y253000D02*
D03*
X860500Y342377D02*
D03*
X688100Y331300D02*
D03*
X726600Y184400D02*
D03*
X914600Y145000D02*
D03*
X745400Y275600D02*
D03*
X760300Y174000D02*
D03*
X909400Y134000D02*
D03*
X656800Y305000D02*
D03*
X727500Y299900D02*
D03*
X659700Y209400D02*
D03*
X664700Y74200D02*
D03*
X697600Y78300D02*
D03*
X751400Y62300D02*
D03*
X732549Y75000D02*
D03*
X796400Y160100D02*
D03*
X1008100Y126800D02*
D03*
X919000Y58700D02*
D03*
X992700Y143500D02*
D03*
X986000D02*
D03*
X992800Y84400D02*
D03*
X865400Y30400D02*
D03*
X845000Y29700D02*
D03*
X860000Y14700D02*
D03*
X985000D02*
D03*
X998400Y103600D02*
D03*
X981102Y149500D02*
D03*
X1082500Y79400D02*
D03*
Y227400D02*
D03*
X915200Y304200D02*
D03*
X1055100Y376400D02*
D03*
X1024700Y399500D02*
D03*
X994811Y414200D02*
D03*
X1068500Y298000D02*
D03*
X1068700Y276900D02*
D03*
X1079750Y265000D02*
D03*
X1091400Y257000D02*
D03*
X1039500Y53720D02*
D03*
X1042300Y221800D02*
D03*
X1060545Y71345D02*
D03*
X365500Y315000D02*
D03*
Y303700D02*
D03*
X365900Y186500D02*
D03*
X384540Y166200D02*
D03*
X368500Y159600D02*
D03*
X387500Y252200D02*
D03*
X388500Y295500D02*
D03*
X398700Y149100D02*
D03*
X1057100Y457500D02*
D03*
X953500Y452800D02*
D03*
X1041700Y447300D02*
D03*
X915000Y439700D02*
D03*
X1041600Y440700D02*
D03*
X905000Y436300D02*
D03*
X1056000Y436043D02*
D03*
X873500Y492600D02*
D03*
X755900Y478600D02*
D03*
X716066D02*
D03*
X875000Y406000D02*
D03*
X903700Y399800D02*
D03*
X911300Y392600D02*
D03*
X908459Y374700D02*
D03*
X763000Y104200D02*
D03*
Y151500D02*
D03*
X762100Y275600D02*
D03*
X781300Y303900D02*
D03*
X895100Y210600D02*
D03*
X862600Y206600D02*
D03*
X918200Y169300D02*
D03*
X877100Y61900D02*
D03*
X894500Y222600D02*
D03*
X862600Y221700D02*
D03*
X911100Y171371D02*
D03*
X843500Y168900D02*
D03*
X843000Y177200D02*
D03*
X908300D02*
D03*
X805000Y57400D02*
D03*
X868300Y56600D02*
D03*
X869000Y121600D02*
D03*
X795000Y94300D02*
D03*
X778700Y128100D02*
D03*
X877400Y151000D02*
D03*
X637300Y49900D02*
D03*
X628900Y58300D02*
D03*
X767000Y263000D02*
D03*
X704300D02*
D03*
X788100Y246800D02*
D03*
X714000Y248500D02*
D03*
X790700Y252700D02*
D03*
X662100Y251600D02*
D03*
X772100Y201300D02*
D03*
X729400Y198900D02*
D03*
X1003900Y120100D02*
D03*
X1046500Y133400D02*
D03*
X1002100Y127800D02*
D03*
X1037000Y131400D02*
D03*
X981300Y206100D02*
D03*
X1043700Y208500D02*
D03*
X928300Y273816D02*
D03*
X1039900Y241100D02*
D03*
X1002700Y282700D02*
D03*
X921200Y295900D02*
D03*
X1041100Y262700D02*
D03*
X1005800Y268000D02*
D03*
X996300Y277500D02*
D03*
X922700Y281500D02*
D03*
X1042600Y256000D02*
D03*
X907400Y279700D02*
D03*
X1041500Y279000D02*
D03*
X913400Y281500D02*
D03*
X904800Y298000D02*
D03*
X1043800Y310200D02*
D03*
X900700Y270400D02*
D03*
X1012900Y226900D02*
D03*
X361026Y269100D02*
D03*
X360800Y261100D02*
D03*
X328300Y277900D02*
D03*
X335500Y277600D02*
D03*
X379300Y257323D02*
D03*
X384400Y232700D02*
D03*
X380400Y207323D02*
D03*
D33*
X530500Y432000D02*
D03*
X413000Y90800D02*
D03*
X447100Y103500D02*
D03*
X357900Y355400D02*
D03*
X354300Y405300D02*
D03*
X401600Y407800D02*
D03*
M02*
