G04 Layer_Physical_Order=1*
G04 Layer_Color=255*
%FSLAX25Y25*%
%MOIN*%
G70*
G01*
G75*
%ADD10R,0.05000X0.05000*%
%ADD11R,0.03937X0.09449*%
%ADD12R,0.12598X0.09449*%
%ADD13O,0.02362X0.06102*%
%ADD14R,0.05000X0.05000*%
%ADD15O,0.06102X0.02362*%
%ADD16R,0.03937X0.07874*%
%ADD17R,0.07874X0.03937*%
%ADD18R,0.11024X0.09449*%
%ADD19O,0.06299X0.01772*%
%ADD20O,0.01772X0.06299*%
%ADD21O,0.06102X0.01772*%
%ADD22C,0.01000*%
%ADD23R,0.07874X0.07874*%
%ADD24C,0.07874*%
%ADD25R,0.07874X0.07874*%
%ADD26C,0.07284*%
%ADD27R,0.07284X0.07284*%
%ADD28C,0.16000*%
%ADD29C,0.05906*%
%ADD30R,0.05906X0.05906*%
%ADD31R,0.05906X0.05906*%
%ADD32C,0.09100*%
%ADD33C,0.03000*%
D10*
X880000Y273500D02*
D03*
Y266500D02*
D03*
X860000Y273500D02*
D03*
Y266500D02*
D03*
X900000Y273500D02*
D03*
Y266500D02*
D03*
X820000Y273500D02*
D03*
Y266500D02*
D03*
X840000Y273500D02*
D03*
Y266500D02*
D03*
X920000Y273500D02*
D03*
Y266500D02*
D03*
X800000Y273500D02*
D03*
Y266500D02*
D03*
X301700Y323400D02*
D03*
Y316400D02*
D03*
X380100Y176600D02*
D03*
Y183600D02*
D03*
X560000Y173500D02*
D03*
Y166500D02*
D03*
Y147500D02*
D03*
Y140500D02*
D03*
X320000Y166500D02*
D03*
Y173500D02*
D03*
X459500Y266500D02*
D03*
Y273500D02*
D03*
X550000Y312400D02*
D03*
Y305400D02*
D03*
Y331000D02*
D03*
Y324000D02*
D03*
X523500D02*
D03*
Y331000D02*
D03*
Y305400D02*
D03*
Y312400D02*
D03*
X380000Y333500D02*
D03*
Y326500D02*
D03*
X320000Y323500D02*
D03*
Y316500D02*
D03*
X380000Y156500D02*
D03*
Y163500D02*
D03*
X780000Y273500D02*
D03*
Y266500D02*
D03*
X523500Y166500D02*
D03*
Y173500D02*
D03*
Y140500D02*
D03*
Y147500D02*
D03*
D11*
X400945Y158583D02*
D03*
X410000D02*
D03*
X419055D02*
D03*
Y331417D02*
D03*
X410000D02*
D03*
X400945D02*
D03*
D12*
X410000Y181417D02*
D03*
Y308583D02*
D03*
D13*
X496260Y140571D02*
D03*
X503740D02*
D03*
X496260Y149429D02*
D03*
X500000D02*
D03*
X503740D02*
D03*
X496260Y315571D02*
D03*
X503740D02*
D03*
X496260Y324429D02*
D03*
X500000D02*
D03*
X503740D02*
D03*
D14*
X497600Y190600D02*
D03*
X504600D02*
D03*
X496500Y120000D02*
D03*
X503500D02*
D03*
X489800Y100000D02*
D03*
X496800D02*
D03*
X347300Y120000D02*
D03*
X354300D02*
D03*
X347300Y130000D02*
D03*
X354300D02*
D03*
X412900Y262200D02*
D03*
X405900D02*
D03*
X345500Y270000D02*
D03*
X352500D02*
D03*
X345500Y280000D02*
D03*
X352500D02*
D03*
X489300Y340600D02*
D03*
X496300D02*
D03*
X153500Y25000D02*
D03*
X146500D02*
D03*
D15*
X495571Y173740D02*
D03*
Y166260D02*
D03*
X504429Y173740D02*
D03*
Y170000D02*
D03*
Y166260D02*
D03*
X495571Y293740D02*
D03*
Y286260D02*
D03*
X504429Y293740D02*
D03*
Y290000D02*
D03*
Y286260D02*
D03*
D16*
X795000Y79104D02*
D03*
X775000D02*
D03*
X765000D02*
D03*
X755000D02*
D03*
X785000D02*
D03*
X835000D02*
D03*
X805000D02*
D03*
X815000D02*
D03*
X825000D02*
D03*
X845000D02*
D03*
X885000D02*
D03*
X855000D02*
D03*
X865000D02*
D03*
X875000D02*
D03*
X895000D02*
D03*
X935000D02*
D03*
X905000D02*
D03*
X915000D02*
D03*
X925000D02*
D03*
X945000D02*
D03*
Y48396D02*
D03*
X925000D02*
D03*
X915000D02*
D03*
X905000D02*
D03*
X935000D02*
D03*
X895000D02*
D03*
X875000D02*
D03*
X865000D02*
D03*
X855000D02*
D03*
X885000D02*
D03*
X845000D02*
D03*
X825000D02*
D03*
X815000D02*
D03*
X805000D02*
D03*
X835000D02*
D03*
X785000D02*
D03*
X755000D02*
D03*
X765000D02*
D03*
X775000D02*
D03*
X795000D02*
D03*
X905000Y420896D02*
D03*
X925000D02*
D03*
X935000D02*
D03*
X945000D02*
D03*
X915000D02*
D03*
X865000D02*
D03*
X895000D02*
D03*
X885000D02*
D03*
X875000D02*
D03*
X855000D02*
D03*
X815000D02*
D03*
X845000D02*
D03*
X835000D02*
D03*
X825000D02*
D03*
X805000D02*
D03*
X765000D02*
D03*
X795000D02*
D03*
X785000D02*
D03*
X775000D02*
D03*
X755000D02*
D03*
Y451604D02*
D03*
X775000D02*
D03*
X785000D02*
D03*
X795000D02*
D03*
X765000D02*
D03*
X805000D02*
D03*
X825000D02*
D03*
X835000D02*
D03*
X845000D02*
D03*
X815000D02*
D03*
X855000D02*
D03*
X875000D02*
D03*
X885000D02*
D03*
X895000D02*
D03*
X865000D02*
D03*
X915000D02*
D03*
X945000D02*
D03*
X935000D02*
D03*
X925000D02*
D03*
X905000D02*
D03*
D17*
X679104Y305000D02*
D03*
Y325000D02*
D03*
Y335000D02*
D03*
Y345000D02*
D03*
Y315000D02*
D03*
Y265000D02*
D03*
Y295000D02*
D03*
Y285000D02*
D03*
Y275000D02*
D03*
Y255000D02*
D03*
Y215000D02*
D03*
Y245000D02*
D03*
Y235000D02*
D03*
Y225000D02*
D03*
Y205000D02*
D03*
Y165000D02*
D03*
Y195000D02*
D03*
Y185000D02*
D03*
Y175000D02*
D03*
Y155000D02*
D03*
X648396D02*
D03*
Y175000D02*
D03*
Y185000D02*
D03*
Y195000D02*
D03*
Y165000D02*
D03*
Y205000D02*
D03*
Y225000D02*
D03*
Y235000D02*
D03*
Y245000D02*
D03*
Y215000D02*
D03*
Y255000D02*
D03*
Y275000D02*
D03*
Y285000D02*
D03*
Y295000D02*
D03*
Y265000D02*
D03*
Y315000D02*
D03*
Y345000D02*
D03*
Y335000D02*
D03*
Y325000D02*
D03*
Y305000D02*
D03*
X1020896Y195000D02*
D03*
Y175000D02*
D03*
Y165000D02*
D03*
Y155000D02*
D03*
Y185000D02*
D03*
Y235000D02*
D03*
Y205000D02*
D03*
Y215000D02*
D03*
Y225000D02*
D03*
Y245000D02*
D03*
Y285000D02*
D03*
Y255000D02*
D03*
Y265000D02*
D03*
Y275000D02*
D03*
Y295000D02*
D03*
Y335000D02*
D03*
Y305000D02*
D03*
Y315000D02*
D03*
Y325000D02*
D03*
Y345000D02*
D03*
X1051604D02*
D03*
Y325000D02*
D03*
Y315000D02*
D03*
Y305000D02*
D03*
Y335000D02*
D03*
Y295000D02*
D03*
Y275000D02*
D03*
Y265000D02*
D03*
Y255000D02*
D03*
Y285000D02*
D03*
Y245000D02*
D03*
Y225000D02*
D03*
Y215000D02*
D03*
Y205000D02*
D03*
Y235000D02*
D03*
Y185000D02*
D03*
Y155000D02*
D03*
Y165000D02*
D03*
Y175000D02*
D03*
Y195000D02*
D03*
D18*
X473700Y451000D02*
D03*
Y475500D02*
D03*
X425200Y451000D02*
D03*
Y475500D02*
D03*
X401200Y451000D02*
D03*
Y475500D02*
D03*
X352700Y451000D02*
D03*
Y475500D02*
D03*
X549700Y451000D02*
D03*
Y475500D02*
D03*
X501200Y451000D02*
D03*
Y475500D02*
D03*
D19*
X988681Y467766D02*
D03*
Y465207D02*
D03*
Y462648D02*
D03*
Y460089D02*
D03*
Y457530D02*
D03*
Y454970D02*
D03*
Y452411D02*
D03*
Y449852D02*
D03*
Y447293D02*
D03*
Y444734D02*
D03*
X1011319Y467766D02*
D03*
Y465207D02*
D03*
Y462648D02*
D03*
Y460089D02*
D03*
Y457530D02*
D03*
Y454970D02*
D03*
Y452411D02*
D03*
Y449852D02*
D03*
Y447293D02*
D03*
Y444734D02*
D03*
X701319Y42234D02*
D03*
Y44793D02*
D03*
Y47352D02*
D03*
Y49911D02*
D03*
Y52470D02*
D03*
Y55030D02*
D03*
Y57589D02*
D03*
Y60148D02*
D03*
Y62707D02*
D03*
Y65266D02*
D03*
X678681Y42234D02*
D03*
Y44793D02*
D03*
Y47352D02*
D03*
Y49911D02*
D03*
Y52470D02*
D03*
Y55030D02*
D03*
Y57589D02*
D03*
Y60148D02*
D03*
Y62707D02*
D03*
Y65266D02*
D03*
X721681Y329016D02*
D03*
Y326457D02*
D03*
Y323898D02*
D03*
Y321339D02*
D03*
Y318780D02*
D03*
Y316220D02*
D03*
Y313661D02*
D03*
Y311102D02*
D03*
Y308543D02*
D03*
Y305984D02*
D03*
X744319Y329016D02*
D03*
Y326457D02*
D03*
Y323898D02*
D03*
Y321339D02*
D03*
Y318780D02*
D03*
Y316220D02*
D03*
Y313661D02*
D03*
Y311102D02*
D03*
Y308543D02*
D03*
Y305984D02*
D03*
X980319Y174484D02*
D03*
Y177043D02*
D03*
Y179602D02*
D03*
Y182161D02*
D03*
Y184720D02*
D03*
Y187280D02*
D03*
Y189839D02*
D03*
Y192398D02*
D03*
Y194957D02*
D03*
Y197516D02*
D03*
X957681Y174484D02*
D03*
Y177043D02*
D03*
Y179602D02*
D03*
Y182161D02*
D03*
Y184720D02*
D03*
Y187280D02*
D03*
Y189839D02*
D03*
Y192398D02*
D03*
Y194957D02*
D03*
Y197516D02*
D03*
X678681Y467766D02*
D03*
Y465207D02*
D03*
Y462648D02*
D03*
Y460089D02*
D03*
Y457530D02*
D03*
Y454970D02*
D03*
Y452411D02*
D03*
Y449852D02*
D03*
Y447293D02*
D03*
Y444734D02*
D03*
X701319Y467766D02*
D03*
Y465207D02*
D03*
Y462648D02*
D03*
Y460089D02*
D03*
Y457530D02*
D03*
Y454970D02*
D03*
Y452411D02*
D03*
Y449852D02*
D03*
Y447293D02*
D03*
Y444734D02*
D03*
X1011319Y42234D02*
D03*
Y44793D02*
D03*
Y47352D02*
D03*
Y49911D02*
D03*
Y52470D02*
D03*
Y55030D02*
D03*
Y57589D02*
D03*
Y60148D02*
D03*
Y62707D02*
D03*
Y65266D02*
D03*
X988681Y42234D02*
D03*
Y44793D02*
D03*
Y47352D02*
D03*
Y49911D02*
D03*
Y52470D02*
D03*
Y55030D02*
D03*
Y57589D02*
D03*
Y60148D02*
D03*
Y62707D02*
D03*
Y65266D02*
D03*
X721681Y241516D02*
D03*
Y238957D02*
D03*
Y236398D02*
D03*
Y233839D02*
D03*
Y231280D02*
D03*
Y228720D02*
D03*
Y226161D02*
D03*
Y223602D02*
D03*
Y221043D02*
D03*
Y218484D02*
D03*
X744319Y241516D02*
D03*
Y238957D02*
D03*
Y236398D02*
D03*
Y233839D02*
D03*
Y231280D02*
D03*
Y228720D02*
D03*
Y226161D02*
D03*
Y223602D02*
D03*
Y221043D02*
D03*
Y218484D02*
D03*
X980319Y254484D02*
D03*
Y257043D02*
D03*
Y259602D02*
D03*
Y262161D02*
D03*
Y264720D02*
D03*
Y267280D02*
D03*
Y269839D02*
D03*
Y272398D02*
D03*
Y274957D02*
D03*
Y277516D02*
D03*
X957681Y254484D02*
D03*
Y257043D02*
D03*
Y259602D02*
D03*
Y262161D02*
D03*
Y264720D02*
D03*
Y267280D02*
D03*
Y269839D02*
D03*
Y272398D02*
D03*
Y274957D02*
D03*
Y277516D02*
D03*
D20*
X943516Y361319D02*
D03*
X940957D02*
D03*
X938398D02*
D03*
X935839D02*
D03*
X933280D02*
D03*
X930720D02*
D03*
X928161D02*
D03*
X925602D02*
D03*
X923043D02*
D03*
X920484D02*
D03*
X943516Y338681D02*
D03*
X940957D02*
D03*
X938398D02*
D03*
X935839D02*
D03*
X933280D02*
D03*
X930720D02*
D03*
X928161D02*
D03*
X925602D02*
D03*
X923043D02*
D03*
X920484D02*
D03*
X803484Y138681D02*
D03*
X806043D02*
D03*
X808602D02*
D03*
X811161D02*
D03*
X813720D02*
D03*
X816280D02*
D03*
X818839D02*
D03*
X821398D02*
D03*
X823957D02*
D03*
X826516D02*
D03*
X803484Y161319D02*
D03*
X806043D02*
D03*
X808602D02*
D03*
X811161D02*
D03*
X813720D02*
D03*
X816280D02*
D03*
X818839D02*
D03*
X821398D02*
D03*
X823957D02*
D03*
X826516D02*
D03*
X638484Y98681D02*
D03*
X641043D02*
D03*
X643602D02*
D03*
X646161D02*
D03*
X648720D02*
D03*
X651280D02*
D03*
X653839D02*
D03*
X656398D02*
D03*
X658957D02*
D03*
X661516D02*
D03*
X638484Y121319D02*
D03*
X641043D02*
D03*
X643602D02*
D03*
X646161D02*
D03*
X648720D02*
D03*
X651280D02*
D03*
X653839D02*
D03*
X656398D02*
D03*
X658957D02*
D03*
X661516D02*
D03*
X1057766Y421319D02*
D03*
X1055207D02*
D03*
X1052648D02*
D03*
X1050089D02*
D03*
X1047530D02*
D03*
X1044970D02*
D03*
X1042411D02*
D03*
X1039852D02*
D03*
X1037293D02*
D03*
X1034734D02*
D03*
X1057766Y398681D02*
D03*
X1055207D02*
D03*
X1052648D02*
D03*
X1050089D02*
D03*
X1047530D02*
D03*
X1044970D02*
D03*
X1042411D02*
D03*
X1039852D02*
D03*
X1037293D02*
D03*
X1034734D02*
D03*
X856516Y361319D02*
D03*
X853957D02*
D03*
X851398D02*
D03*
X848839D02*
D03*
X846280D02*
D03*
X843720D02*
D03*
X841161D02*
D03*
X838602D02*
D03*
X836043D02*
D03*
X833484D02*
D03*
X856516Y338681D02*
D03*
X853957D02*
D03*
X851398D02*
D03*
X848839D02*
D03*
X846280D02*
D03*
X843720D02*
D03*
X841161D02*
D03*
X838602D02*
D03*
X836043D02*
D03*
X833484D02*
D03*
X883484Y138681D02*
D03*
X886043D02*
D03*
X888602D02*
D03*
X891161D02*
D03*
X893720D02*
D03*
X896280D02*
D03*
X898839D02*
D03*
X901398D02*
D03*
X903957D02*
D03*
X906516D02*
D03*
X883484Y161319D02*
D03*
X886043D02*
D03*
X888602D02*
D03*
X891161D02*
D03*
X893720D02*
D03*
X896280D02*
D03*
X898839D02*
D03*
X901398D02*
D03*
X903957D02*
D03*
X906516D02*
D03*
X640484Y398681D02*
D03*
X643043D02*
D03*
X645602D02*
D03*
X648161D02*
D03*
X650720D02*
D03*
X653280D02*
D03*
X655839D02*
D03*
X658398D02*
D03*
X660957D02*
D03*
X663516D02*
D03*
X640484Y421319D02*
D03*
X643043D02*
D03*
X645602D02*
D03*
X648161D02*
D03*
X650720D02*
D03*
X653280D02*
D03*
X655839D02*
D03*
X658398D02*
D03*
X660957D02*
D03*
X663516D02*
D03*
X1057766Y101319D02*
D03*
X1055207D02*
D03*
X1052648D02*
D03*
X1050089D02*
D03*
X1047530D02*
D03*
X1044970D02*
D03*
X1042411D02*
D03*
X1039852D02*
D03*
X1037293D02*
D03*
X1034734D02*
D03*
X1057766Y78681D02*
D03*
X1055207D02*
D03*
X1052648D02*
D03*
X1050089D02*
D03*
X1047530D02*
D03*
X1044970D02*
D03*
X1042411D02*
D03*
X1039852D02*
D03*
X1037293D02*
D03*
X1034734D02*
D03*
D21*
X338681Y327677D02*
D03*
Y325118D02*
D03*
Y322559D02*
D03*
Y320000D02*
D03*
Y317441D02*
D03*
Y314882D02*
D03*
Y312323D02*
D03*
X361319Y327677D02*
D03*
Y325118D02*
D03*
Y322559D02*
D03*
Y320000D02*
D03*
Y317441D02*
D03*
Y314882D02*
D03*
Y312323D02*
D03*
X338681Y177677D02*
D03*
Y175118D02*
D03*
Y172559D02*
D03*
Y170000D02*
D03*
Y167441D02*
D03*
Y164882D02*
D03*
Y162323D02*
D03*
X361319Y177677D02*
D03*
Y175118D02*
D03*
Y172559D02*
D03*
Y170000D02*
D03*
Y167441D02*
D03*
Y164882D02*
D03*
Y162323D02*
D03*
D22*
X788600Y415558D02*
Y433000D01*
X788500Y415458D02*
X788600Y415558D01*
X785000Y436600D02*
X788600Y433000D01*
X790100Y369700D02*
Y412900D01*
X782000Y409700D02*
X783100Y408600D01*
X779400Y350100D02*
Y405450D01*
X776850Y408000D02*
X779400Y405450D01*
X776850Y408000D02*
Y417258D01*
X774700Y404700D02*
Y412800D01*
Y404700D02*
X775900Y403500D01*
Y370000D02*
Y403500D01*
X781300Y357809D02*
Y406130D01*
X779000Y408430D02*
X781300Y406130D01*
X779000Y408430D02*
Y438551D01*
X770500Y376200D02*
Y411742D01*
Y376200D02*
X772500Y374200D01*
X790100Y369700D02*
X816400Y343400D01*
X769731Y412510D02*
X770500Y411742D01*
X765000Y418900D02*
X766000D01*
Y376200D02*
Y418900D01*
Y376200D02*
X774500Y367700D01*
X763000Y374376D02*
Y412900D01*
Y374376D02*
X771400Y365976D01*
X519000Y339000D02*
X538000Y358000D01*
X503500Y339000D02*
X519000D01*
X500000Y335500D02*
X503500Y339000D01*
X473700Y451000D02*
X484000Y440700D01*
Y417200D02*
Y440700D01*
X550000Y370000D02*
Y477000D01*
X560000Y311800D02*
Y481000D01*
X558100Y482900D02*
X560000Y481000D01*
X503000Y482900D02*
X558100D01*
X553600Y305400D02*
X560000Y311800D01*
X462400Y483400D02*
X479600D01*
X460000Y481000D02*
X462400Y483400D01*
X460000Y419000D02*
Y481000D01*
X394350Y353350D02*
X397000Y356000D01*
X383900Y322200D02*
X394350Y332650D01*
Y353350D01*
X401200Y428800D02*
X460000Y370000D01*
X382800Y326500D02*
X385000Y328700D01*
X379000Y345000D02*
X385000Y339000D01*
Y328700D02*
Y339000D01*
X340000Y345000D02*
X379000D01*
X335000Y350000D02*
X340000Y345000D01*
X335000Y350000D02*
Y387000D01*
X342000Y394000D01*
X394200D01*
X401200Y401000D01*
X330000Y401900D02*
X352700Y424600D01*
X330000Y327677D02*
Y401900D01*
X324177Y327677D02*
X338681D01*
X503740Y149500D02*
X506500D01*
X342000Y177677D02*
X344000D01*
X943516Y338600D02*
X957500D01*
X943516Y315000D02*
Y338600D01*
Y313084D02*
Y315000D01*
Y338600D02*
Y338681D01*
X953918Y299835D02*
Y302682D01*
Y297752D02*
Y299835D01*
X1032000Y104566D02*
X1034734D01*
X803484Y161494D02*
Y214626D01*
X876200Y161300D02*
X883484D01*
X756000Y329016D02*
X758984D01*
X744319D02*
X756000D01*
X759500Y325516D02*
X761500Y323516D01*
X677700Y365100D02*
Y374887D01*
X761500Y323516D02*
X761502Y323000D01*
X761600Y297500D01*
Y323000D01*
X795552Y161494D02*
X803484D01*
X781006D02*
X795552D01*
X744500Y241516D02*
Y296507D01*
X298700Y225800D02*
X307100D01*
X225100D02*
X298700D01*
X334000Y261100D01*
X268900Y196000D02*
X298700Y225800D01*
X225100Y196000D02*
X268900D01*
X195300D02*
X225100D01*
X359700Y177677D02*
Y234500D01*
X335600Y306782D02*
Y312323D01*
X1057766Y81531D02*
X1062031D01*
X683300Y295000D02*
Y297287D01*
X681100Y282700D02*
Y285000D01*
X645200Y190800D02*
Y195000D01*
X650400Y335000D02*
Y340000D01*
X646400Y345000D02*
Y361000D01*
X835000Y83500D02*
X838000D01*
X678600Y16700D02*
Y42234D01*
X895000Y417300D02*
X900200D01*
X419055Y158600D02*
X439500D01*
X492000Y313420D02*
X496260Y317679D01*
X437328Y232763D02*
X446963D01*
X387737D02*
X437328D01*
X495571Y173740D02*
X500000D01*
X458240D02*
X495571D01*
X442540D02*
X458240D01*
X419055Y311900D02*
Y315056D01*
X400945Y112035D02*
Y153845D01*
X918522Y352178D02*
X923043Y356700D01*
X912500Y346157D02*
X918522Y352178D01*
X912500Y298400D02*
Y346157D01*
Y358200D01*
X668500Y470700D02*
X672000D01*
X702600Y295200D02*
X707700Y300300D01*
X673500Y200000D02*
X683756D01*
X673400D02*
X673500D01*
Y275000D02*
Y278400D01*
Y268600D02*
Y275000D01*
Y200000D02*
Y268600D01*
Y198000D02*
Y200000D01*
X624600Y193400D02*
Y227700D01*
X755000Y420896D02*
Y451604D01*
Y392000D02*
Y420896D01*
X1032100Y256800D02*
Y317500D01*
Y144100D02*
Y256800D01*
X683000Y85000D02*
Y155000D01*
X401200Y401000D02*
Y428800D01*
X470000Y290000D02*
X493000D01*
X371700Y192000D02*
X380100Y183600D01*
X369500Y194200D02*
X371700Y192000D01*
X376000Y167500D02*
X380000Y163500D01*
X373400Y170100D02*
X376000Y167500D01*
X146500Y78300D02*
Y150000D01*
Y25000D02*
Y78300D01*
X957700Y277516D02*
Y289694D01*
X931000Y62600D02*
Y86800D01*
X742100Y74600D02*
Y218484D01*
X818532Y338700D02*
X833484D01*
X1034734Y395000D02*
Y398681D01*
Y392834D02*
Y395000D01*
Y390934D02*
Y392834D01*
X1018000Y379700D02*
X1033300Y395000D01*
X1013600Y375300D02*
X1018000Y379700D01*
X1013600Y369800D02*
Y371700D01*
Y313900D02*
Y369800D01*
X1034734Y390934D01*
X993800Y350000D02*
X1013600Y369800D01*
X860000Y344900D02*
Y359319D01*
X980300Y144447D02*
Y174484D01*
X1005134Y78400D02*
X1034734D01*
X863800Y172400D02*
Y220300D01*
Y163684D02*
Y172400D01*
X725600Y373200D02*
Y437534D01*
Y329232D02*
Y373200D01*
X762000Y138600D02*
X803484D01*
X712984Y241516D02*
X721600D01*
Y267800D01*
X663516Y420300D02*
X669600D01*
X669300Y96100D02*
Y113121D01*
Y67966D02*
Y77800D01*
Y96100D01*
X667400Y69866D02*
X669300Y67966D01*
X1067364Y150451D02*
Y178200D01*
X922500Y327560D02*
X949980Y300081D01*
X919530Y330530D02*
X922500Y327560D01*
X923043Y334043D02*
Y338681D01*
Y332700D02*
Y334043D01*
X919000Y330000D02*
X919530Y330530D01*
X922500Y327560D02*
Y332157D01*
Y294125D02*
Y327560D01*
X919530Y330530D02*
X923043Y334043D01*
X1039000Y123107D02*
Y173800D01*
X1040200Y121907D02*
X1055207Y106900D01*
X1039000Y123107D02*
X1040200Y121907D01*
X952900Y231600D02*
Y241716D01*
Y196057D02*
Y231600D01*
X691100Y49693D02*
X696000Y44793D01*
X691000Y49793D02*
X691100Y49693D01*
X380400Y176300D02*
X384000Y172700D01*
X775000Y417258D02*
X776850D01*
X535400Y312400D02*
X550000D01*
X509260Y286260D02*
X515300Y292300D01*
X504429Y286260D02*
X509260D01*
X952361Y182161D02*
X957681D01*
X950400Y180200D02*
X952361Y182161D01*
X943200Y184700D02*
X943220Y184720D01*
X957681D01*
X42300Y54800D02*
X48300Y60800D01*
X96008D01*
X128800Y93592D01*
Y202800D01*
X141900Y215900D01*
X118900Y189100D02*
Y223600D01*
Y189100D02*
X121300Y186700D01*
Y131200D02*
Y186700D01*
X69900Y79800D02*
X121300Y131200D01*
X57300Y79800D02*
X69900D01*
X42300Y64800D02*
X57300Y79800D01*
X62300Y470400D02*
X98600Y434100D01*
Y201600D02*
Y434100D01*
Y201600D02*
X110200Y190000D01*
X42300Y44800D02*
X48300Y50800D01*
X95755D01*
X132800Y87845D01*
Y184900D01*
X143200Y195300D01*
X106268Y177400D02*
X109200D01*
X91300Y192368D02*
X106268Y177400D01*
X91300Y192368D02*
Y421400D01*
X62300Y450400D02*
X91300Y421400D01*
X62300Y460400D02*
X93100Y429600D01*
Y194300D02*
Y429600D01*
Y194300D02*
X106500Y180900D01*
X110100D01*
X112728Y178272D01*
Y175200D02*
Y178272D01*
X110528Y173000D02*
X112728Y175200D01*
X97375Y173000D02*
X110528D01*
X90375Y180000D02*
X97375Y173000D01*
X57600Y435100D02*
X62300Y430400D01*
X57600Y435100D02*
Y462453D01*
X60147Y465000D01*
X64853D01*
X95800Y434053D01*
Y195400D02*
Y434053D01*
Y195400D02*
X108200Y183000D01*
X113700D01*
X115100Y181600D01*
Y172800D02*
Y181600D01*
X114500Y172200D02*
X115100Y172800D01*
X152500Y440400D02*
X160600Y432300D01*
Y207900D02*
Y432300D01*
Y207900D02*
X185000Y183500D01*
X85800Y342600D02*
X87600Y340800D01*
Y275800D02*
Y340800D01*
X80590Y268790D02*
X87600Y275800D01*
X80590Y162000D02*
Y268790D01*
Y162000D02*
X84000Y158590D01*
Y154590D02*
Y158590D01*
X80000Y150590D02*
X84000Y154590D01*
X60290Y150590D02*
X80000D01*
X53000Y143300D02*
X60290Y150590D01*
X53000Y128184D02*
Y143300D01*
X45116Y120300D02*
X53000Y128184D01*
X40047Y120300D02*
X45116D01*
X37847Y122500D02*
X40047Y120300D01*
X37847Y122500D02*
Y160347D01*
X42300Y164800D01*
X111500Y405400D02*
X134900Y382000D01*
Y272600D02*
Y382000D01*
Y272600D02*
X157500Y250000D01*
X126500Y266000D02*
X146600Y245900D01*
X126500Y266000D02*
Y361300D01*
X112100Y375700D02*
X126500Y361300D01*
X176200Y130400D02*
X235800Y190000D01*
X164000Y126200D02*
Y172400D01*
X182300Y95300D02*
X257000Y170000D01*
X92900Y65300D02*
X117200Y89600D01*
X62300Y65300D02*
X92900D01*
X309000Y145700D02*
X313950Y140750D01*
Y113650D02*
Y140750D01*
X216400Y16100D02*
X313950Y113650D01*
X59700Y16100D02*
X216400D01*
X57700Y18100D02*
X59700Y16100D01*
X57700Y18100D02*
Y40700D01*
X62300Y45300D01*
Y55300D02*
X94000D01*
X130700Y92000D01*
Y195100D01*
X135700Y200100D01*
X150000D01*
X192300Y157800D01*
X62300Y35300D02*
X137800D01*
X142500Y40000D01*
Y95900D01*
X36000Y91100D02*
X42300Y84800D01*
X36000Y91100D02*
Y253700D01*
X46800Y264500D01*
X361300Y240000D02*
Y252400D01*
X42300Y124800D02*
X50600Y133100D01*
Y248379D01*
X84000Y281779D01*
Y324400D01*
X78900Y325500D02*
X84000Y324400D01*
X77400Y324000D02*
X78900Y325500D01*
X77400Y300300D02*
Y324000D01*
X61800Y270200D02*
X66800Y275200D01*
Y332700D01*
X64000Y335500D02*
X66800Y332700D01*
X60000Y335500D02*
X64000D01*
X55600Y339900D02*
X60000Y335500D01*
X55600Y339900D02*
Y437100D01*
X42300Y450400D02*
X55600Y437100D01*
X114200Y197097D02*
Y290000D01*
Y197097D02*
X115300Y195997D01*
Y189675D02*
Y195997D01*
Y189675D02*
X119400Y185575D01*
Y152200D02*
Y185575D01*
X67900Y100700D02*
X119400Y152200D01*
X46400Y100700D02*
X67900D01*
X42300Y104800D02*
X46400Y100700D01*
X324177Y162323D02*
X338681D01*
X320000Y166500D02*
X324177Y162323D01*
X663516Y398681D02*
Y404416D01*
X665000Y405900D01*
X676600Y384000D02*
X677700Y382900D01*
Y374887D02*
Y382900D01*
Y374887D02*
X682241Y370346D01*
X686000D01*
X688854Y373200D01*
Y403446D01*
X683000Y409300D02*
X688854Y403446D01*
X683000Y409300D02*
Y443034D01*
X681300Y444734D02*
X683000Y443034D01*
X678681Y444734D02*
X681300D01*
X761600Y292807D02*
Y297500D01*
X744319Y241516D02*
X744500D01*
X761600Y297500D02*
X763900D01*
X765000Y418900D02*
Y420896D01*
X774500Y323000D02*
Y367700D01*
X761000Y257111D02*
X761600Y292807D01*
X761000Y257111D02*
X803484Y214626D01*
X661516Y105416D02*
X662000Y105900D01*
X661516Y98681D02*
Y105416D01*
X1033619Y421319D02*
X1034734D01*
X992800Y380500D02*
X1033619Y421319D01*
X986600Y380500D02*
X992800D01*
X985800Y381300D02*
X986600Y380500D01*
X985800Y381300D02*
Y392200D01*
X982050Y395950D02*
X985800Y392200D01*
X982050Y395950D02*
Y424750D01*
X992500Y435200D01*
Y444134D01*
X991900Y444734D02*
X992500Y444134D01*
X988681Y444734D02*
X991900D01*
X677700Y365100D02*
X706300Y336500D01*
X759500Y300900D02*
Y325516D01*
X756000Y329016D02*
X759500Y325516D01*
X1034734Y101319D02*
Y104566D01*
X1029964Y106602D02*
X1032000Y104566D01*
X1029964Y125864D02*
X1032000Y127900D01*
X965900Y150100D02*
Y170584D01*
X962000Y174484D02*
X965900Y170584D01*
X957681Y174484D02*
X962000D01*
X953918Y299835D02*
X972000Y281752D01*
Y271599D02*
Y281752D01*
Y271599D02*
X972200Y271399D01*
Y253100D02*
Y271399D01*
X966818Y247718D02*
X972200Y253100D01*
X966818Y179302D02*
Y247718D01*
X962000Y174484D02*
X966818Y179302D01*
X117200Y245700D02*
Y280000D01*
X188200Y188900D02*
X195300Y196000D01*
X334000Y261100D02*
Y264700D01*
X304000Y294700D02*
X334000Y264700D01*
X304000Y294700D02*
Y302534D01*
X307866Y306400D01*
X322884D01*
X333925Y317441D01*
X338681D01*
X117200Y245700D02*
X184000Y178900D01*
X186000D01*
X188200Y181100D01*
Y188900D01*
X225100Y196000D02*
Y225800D01*
X354300Y174400D02*
X356141Y172559D01*
X361319D01*
X332500Y308182D02*
Y312382D01*
X335000Y314882D01*
X338681D01*
X361319Y175118D02*
X365900D01*
X366000Y175218D01*
Y259900D01*
X361700Y264200D02*
X366000Y259900D01*
X333938Y320000D02*
X338681D01*
X322338Y308400D02*
X333938Y320000D01*
X306066Y308400D02*
X322338D01*
X258400Y260734D02*
X306066Y308400D01*
X258400Y259000D02*
Y260734D01*
X359700Y177677D02*
X361319D01*
X312000Y296500D02*
X314000Y298500D01*
X327318D01*
X335600Y306782D01*
Y312323D02*
X338681D01*
X1013200Y165000D02*
X1020896D01*
X998598Y179602D02*
X1013200Y165000D01*
X980319Y179602D02*
X998598D01*
X1010108Y195000D02*
X1020896D01*
X1002388Y187280D02*
X1010108Y195000D01*
X980319Y187280D02*
X1002388D01*
X1011300Y225000D02*
X1020896D01*
X983816Y197516D02*
X1011300Y225000D01*
X980319Y197516D02*
X983816D01*
X1010900Y305000D02*
X1020896D01*
X983416Y277516D02*
X1010900Y305000D01*
X980319Y277516D02*
X983416D01*
X1050089Y373511D02*
Y398681D01*
Y373511D02*
X1059000Y364600D01*
Y257900D02*
Y364600D01*
X1056100Y255000D02*
X1059000Y257900D01*
X1051604Y255000D02*
X1056100D01*
X1052648Y390941D02*
Y398681D01*
X1052200Y390493D02*
X1052648Y390941D01*
X1052200Y374900D02*
Y390493D01*
Y374900D02*
X1060800Y366300D01*
Y249300D02*
Y366300D01*
X1056500Y245000D02*
X1060800Y249300D01*
X1051604Y245000D02*
X1056500D01*
X1051604Y235000D02*
X1060000D01*
X1062600Y237600D01*
Y390166D01*
X1057766Y395000D02*
X1062600Y390166D01*
X1057766Y395000D02*
Y398681D01*
X1037293Y69506D02*
Y78681D01*
Y69506D02*
X1038300Y68500D01*
X1067300D01*
X1074400Y75600D01*
Y98700D01*
X1073092Y100008D02*
X1074400Y98700D01*
X1073092Y100008D02*
Y213608D01*
X1061700Y225000D02*
X1073092Y213608D01*
X1051604Y225000D02*
X1061700D01*
X1039852Y72547D02*
Y78681D01*
Y72547D02*
X1042000Y70400D01*
X1063700D01*
X1072600Y79300D01*
Y96900D01*
X1071292Y98208D02*
X1072600Y96900D01*
X1071292Y98208D02*
Y210308D01*
X1060400Y221200D02*
X1071292Y210308D01*
X1045500Y221200D02*
X1060400D01*
X1044200Y219900D02*
X1045500Y221200D01*
X1044200Y204100D02*
Y219900D01*
Y204100D02*
X1047700Y200600D01*
X1056000D01*
X1058600Y203200D01*
Y212400D01*
X1056000Y215000D02*
X1058600Y212400D01*
X1051604Y215000D02*
X1056000D01*
X1044970Y75000D02*
Y78681D01*
Y75000D02*
X1045970Y74000D01*
X1059000D01*
X1069000Y84000D01*
Y93300D01*
X1065552Y96748D02*
X1069000Y93300D01*
X1065552Y96748D02*
Y141348D01*
X1061700Y145200D02*
X1065552Y141348D01*
X1061700Y145200D02*
Y191500D01*
X1058200Y195000D02*
X1061700Y191500D01*
X1051604Y195000D02*
X1058200D01*
X1052648Y78681D02*
Y84000D01*
X1056426Y87779D01*
X1059620D01*
X1061382Y89541D01*
Y95966D01*
X1061952Y96535D01*
Y107648D01*
X1045100Y124500D02*
X1061952Y107648D01*
X1045100Y124500D02*
Y162800D01*
X1047300Y165000D01*
X1051604D01*
X679104Y265000D02*
X684500D01*
X710543Y238957D01*
X721681D01*
X703101Y226161D02*
X721681D01*
X691940Y215000D02*
X703101Y226161D01*
X679104Y215000D02*
X691940D01*
X679104Y195000D02*
X694485D01*
X717969Y218484D01*
X721681D01*
X658957Y121319D02*
Y128243D01*
X646200Y141000D02*
X658957Y128243D01*
X642300Y141000D02*
X646200D01*
X638400Y144900D02*
X642300Y141000D01*
X638400Y144900D02*
Y147900D01*
X642958Y152458D01*
Y188558D01*
X645200Y190800D01*
Y195000D02*
X648396D01*
X653839Y121319D02*
Y130348D01*
X644992Y139195D02*
X653839Y130348D01*
X640994Y139195D02*
X644992D01*
X636600Y143588D02*
X640994Y139195D01*
X636600Y143588D02*
Y149900D01*
X641158Y154458D01*
Y190269D01*
X642600Y191710D01*
Y213300D01*
X644300Y215000D01*
X648396D01*
X651280Y121319D02*
Y129704D01*
X643589Y137395D02*
X651280Y129704D01*
X638000Y137395D02*
X643589D01*
X634800Y140595D02*
X638000Y137395D01*
X634800Y140595D02*
Y151700D01*
X639358Y156258D01*
Y192805D01*
X640700Y194147D01*
Y221400D01*
X644300Y225000D01*
X648396D01*
X648720Y121319D02*
Y127769D01*
X640989Y135500D02*
X648720Y127769D01*
X635895Y135500D02*
X640989D01*
X633000Y138395D02*
X635895Y135500D01*
X633000Y138395D02*
Y156303D01*
X637558Y160861D01*
Y193869D01*
X638800Y195110D01*
Y225784D01*
X643300Y230284D01*
Y234300D01*
X648396Y235000D01*
X646161Y121319D02*
Y125969D01*
X638530Y133600D02*
X646161Y125969D01*
X634688Y133600D02*
X638530D01*
X631200Y137088D02*
X634688Y133600D01*
X631200Y137088D02*
Y158103D01*
X635758Y162661D01*
Y195669D01*
X637000Y196910D01*
Y229143D01*
X641451Y233594D01*
Y242000D01*
X644451Y245000D01*
X648396D01*
X643602Y121319D02*
Y125300D01*
X642743Y126160D02*
X643602Y125300D01*
X638329Y126160D02*
X642743D01*
X629400Y135088D02*
X638329Y126160D01*
X629400Y135088D02*
Y159859D01*
X633900Y164359D01*
Y197410D01*
X635200Y198710D01*
Y230943D01*
X639400Y235143D01*
Y250400D01*
X644000Y255000D01*
X648396D01*
X642813Y265000D02*
X648396D01*
X636500Y258687D02*
X642813Y265000D01*
X636500Y235600D02*
Y258687D01*
X633400Y232500D02*
X636500Y235600D01*
X633400Y205000D02*
Y232500D01*
X630900Y202500D02*
X633400Y205000D01*
X630900Y165000D02*
Y202500D01*
X627600Y161700D02*
X630900Y165000D01*
X627600Y134300D02*
Y161700D01*
Y134300D02*
X638484Y123416D01*
Y121319D02*
Y123416D01*
X658398Y416446D02*
Y421319D01*
Y416446D02*
X661282Y413561D01*
X624296Y411900D02*
X627775Y415380D01*
X624296Y344904D02*
Y411900D01*
Y344904D02*
X629200Y340000D01*
Y290500D02*
Y340000D01*
X628000Y289300D02*
X629200Y290500D01*
X628000Y286700D02*
Y289300D01*
Y286700D02*
X629700Y285000D01*
X648396D01*
X650720Y418000D02*
Y421319D01*
X636298Y403578D02*
X650720Y418000D01*
X636298Y386253D02*
Y403578D01*
Y386253D02*
X655700Y366852D01*
Y339147D02*
Y366852D01*
X653900Y337347D02*
X655700Y339147D01*
X653900Y316000D02*
Y337347D01*
X648396Y315000D02*
X653900Y316000D01*
X645602Y415702D02*
Y421319D01*
X634498Y404598D02*
X645602Y415702D01*
X634498Y383502D02*
Y404598D01*
Y383502D02*
X636600Y381400D01*
Y377100D02*
Y381400D01*
Y377100D02*
X650100Y363600D01*
Y352201D02*
Y363600D01*
Y352201D02*
X653833Y348469D01*
Y341500D02*
Y348469D01*
X651900Y341500D02*
X653833D01*
X650400Y340000D02*
X651900Y341500D01*
X648396Y335000D02*
X650400D01*
X646400Y345000D02*
X648396D01*
X634800Y372600D02*
X646400Y361000D01*
X634800Y372600D02*
Y377860D01*
X632698Y379962D02*
X634800Y377860D01*
X632698Y379962D02*
Y411314D01*
X640484Y419100D01*
Y421319D01*
X808602Y135000D02*
Y138681D01*
X807602Y134000D02*
X808602Y135000D01*
X797999Y134000D02*
X807602D01*
X765000Y101001D02*
X797999Y134000D01*
X765000Y79104D02*
Y101001D01*
X813720Y127909D02*
Y138681D01*
X785000Y99188D02*
X813720Y127909D01*
X785000Y79104D02*
Y99188D01*
X795000Y79104D02*
Y103620D01*
X816280Y124900D01*
Y138681D01*
X805000Y79104D02*
Y110020D01*
X818839Y123859D01*
Y138681D01*
X886043Y134643D02*
Y138681D01*
X846200Y94800D02*
X886043Y134643D01*
X846200Y91700D02*
Y94800D01*
X838000Y83500D02*
X846200Y91700D01*
X835000Y79104D02*
Y83500D01*
X888602Y134657D02*
Y138681D01*
X854700Y100754D02*
X888602Y134657D01*
X854700Y92800D02*
Y100754D01*
X845000Y83100D02*
X854700Y92800D01*
X845000Y79104D02*
Y83100D01*
X855000Y79104D02*
Y85500D01*
X861800Y92300D01*
Y99448D01*
X891161Y128809D01*
Y138681D01*
X893720Y127768D02*
Y138681D01*
X865000Y99048D02*
X893720Y127768D01*
X865000Y79104D02*
Y99048D01*
X896280Y126241D02*
Y138681D01*
X875000Y104961D02*
X896280Y126241D01*
X875000Y79104D02*
Y104961D01*
X678681Y62707D02*
X683993D01*
X689100Y57600D01*
Y32600D02*
Y57600D01*
Y32600D02*
X700400Y21300D01*
X773500D02*
X774018Y20782D01*
X818000D01*
X820500Y23282D01*
X818100Y26900D02*
X820500Y23282D01*
X811900Y26900D02*
X818100D01*
X810000Y28800D02*
X811900Y26900D01*
X810000Y28800D02*
Y60900D01*
X814600Y65500D01*
X886700D01*
X893000Y59200D01*
X900100D01*
X905000Y54300D01*
Y48396D02*
Y54300D01*
X673896Y57589D02*
X678681D01*
X670500Y60984D02*
X673896Y57589D01*
X883983Y59417D02*
X885000Y58400D01*
Y48396D02*
Y58400D01*
X678600Y42234D02*
X678681D01*
X678600Y16700D02*
X683900Y11400D01*
X811946Y9400D02*
X835000Y32454D01*
Y48396D01*
X982789Y57589D02*
X988681D01*
X952200Y27000D02*
X982789Y57589D01*
X805000Y28300D02*
X806400Y26900D01*
X805000Y28300D02*
Y48396D01*
X979752Y47352D02*
X988681D01*
X936700Y4300D02*
X979752Y47352D01*
X784700Y4300D02*
X936700D01*
X765000Y24000D02*
X784700Y4300D01*
X765000Y24000D02*
Y48396D01*
X843720Y361319D02*
Y371380D01*
X825000Y390100D02*
X843720Y371380D01*
X825000Y390100D02*
Y420896D01*
X805000Y393051D02*
Y420896D01*
Y393051D02*
X819936Y378115D01*
X827988D01*
X838602Y367500D01*
Y361319D02*
Y367500D01*
X795000Y398844D02*
Y420896D01*
Y398844D02*
X818136Y375708D01*
X827776D01*
X833484Y370000D01*
Y361319D02*
Y370000D01*
X805000Y451604D02*
Y472300D01*
X815400Y482700D01*
X1024700Y454000D02*
Y461389D01*
X1020552Y449852D02*
X1024700Y454000D01*
X1011319Y449852D02*
X1020552D01*
X815000Y451604D02*
Y467000D01*
X819000Y471000D01*
X998774Y452411D02*
X1011319D01*
X825000Y451604D02*
Y467667D01*
X843633Y486300D01*
X1001500D01*
X1016100Y471700D01*
Y456070D02*
Y471700D01*
X1015000Y454970D02*
X1016100Y456070D01*
X1011319Y454970D02*
X1015000D01*
X835000Y451604D02*
Y464700D01*
X853000Y482700D01*
X990198D01*
X995870Y477028D01*
Y461659D02*
Y477028D01*
Y461659D02*
X1000000Y457530D01*
X1011319D01*
X1007900Y467766D02*
X1011319D01*
X1004600Y471066D02*
X1007900Y467766D01*
X1004600Y471066D02*
Y471700D01*
X996900Y425300D02*
X1007200Y435600D01*
X996900Y413000D02*
Y425300D01*
X865000Y445600D02*
X867000Y443600D01*
X865000Y445600D02*
Y451604D01*
X875000Y438200D02*
Y451604D01*
X869100Y432300D02*
X875000Y438200D01*
X804000Y432300D02*
X869100D01*
X800000Y428300D02*
X804000Y432300D01*
X800000Y414800D02*
Y428300D01*
X798000Y412800D02*
X800000Y414800D01*
X719007Y447293D02*
X739700Y426600D01*
X701319Y447293D02*
X719007D01*
X701319Y449852D02*
X711889D01*
X713118Y451082D01*
X879000Y441700D02*
X884300Y447000D01*
X885000Y451604D01*
X915000Y436300D02*
Y451604D01*
X700000Y441000D02*
X716300Y424700D01*
X697600Y441000D02*
X700000D01*
X696600Y442000D02*
X697600Y441000D01*
X696600Y442000D02*
Y456130D01*
X698000Y457530D01*
X701319D01*
X695759Y460089D02*
X701319D01*
X694500Y458830D02*
X695759Y460089D01*
X694500Y440800D02*
Y458830D01*
Y440800D02*
X697300Y438000D01*
X925000Y439397D02*
Y451604D01*
X465669Y293740D02*
X495571D01*
X460000Y299409D02*
X465669Y293740D01*
X496260Y315571D02*
Y317679D01*
X456500Y270500D02*
X459500Y273500D01*
X455500Y270500D02*
X456500D01*
X455500Y250935D02*
Y270500D01*
X437328Y232763D02*
X455500Y250935D01*
X383300Y237200D02*
X387737Y232763D01*
X383300Y237200D02*
Y305800D01*
X361319Y317441D02*
X371659D01*
X496260Y317679D02*
Y324429D01*
X459536Y313420D02*
X492000D01*
X452700Y306584D02*
X459536Y313420D01*
X452700Y292235D02*
Y306584D01*
Y292235D02*
X456300Y292100D01*
X465400Y283000D01*
Y251200D02*
Y283000D01*
X446963Y232763D02*
X465400Y251200D01*
X371659Y317441D02*
X383300Y305800D01*
X332259Y172559D02*
X338681D01*
X330000Y170300D02*
X332259Y172559D01*
X361319Y320000D02*
X381200D01*
X405900Y295300D01*
Y262200D02*
Y295300D01*
Y253316D02*
Y262200D01*
Y253316D02*
X424653Y234563D01*
X435528D01*
Y295427D01*
X419055Y311900D02*
X435528Y295427D01*
X926900Y269400D02*
Y284000D01*
X912500Y298400D02*
X926900Y284000D01*
X1055207Y387500D02*
Y398681D01*
X836043Y352157D02*
Y361319D01*
X924000Y266500D02*
X926900Y269400D01*
X1005193Y465207D02*
X1011319D01*
X1004200Y466200D02*
X1005193Y465207D01*
X978168Y428368D02*
X987600Y437800D01*
X978168Y389468D02*
Y428368D01*
Y389468D02*
X980900Y386736D01*
X920000Y266500D02*
X924000D01*
X716991Y221043D02*
X721681D01*
X716169Y220222D02*
X716991Y221043D01*
X703978Y220222D02*
X716169D01*
X683756Y200000D02*
X703978Y220222D01*
X673400Y200000D02*
X673500Y198000D01*
Y176100D02*
Y198000D01*
X674600Y175000D02*
X679104D01*
X614900Y93100D02*
X665650Y42350D01*
X624600Y227700D02*
Y236000D01*
Y227700D02*
X626400Y225900D01*
X629600D01*
X631600Y227900D01*
Y237600D01*
X634100Y240100D01*
Y259400D01*
X643300Y268600D01*
X673500D01*
Y176100D02*
X679104Y175000D01*
X672000Y470700D02*
X687507D01*
X664900Y463600D02*
X672000Y470700D01*
X664900Y435500D02*
Y463600D01*
Y435500D02*
X677700Y422700D01*
Y394500D02*
Y422700D01*
X671600Y388400D02*
X677700Y394500D01*
X671600Y377546D02*
Y388400D01*
X669800Y375746D02*
X671600Y377546D01*
X669800Y275000D02*
Y375746D01*
Y275000D02*
X673500D01*
X976000Y194957D02*
X980319D01*
X974200Y144900D02*
Y193157D01*
X974000Y145100D02*
X974200Y144900D01*
X937500Y162300D02*
X954700Y145100D01*
X937500Y162300D02*
Y205600D01*
X939500Y207600D01*
Y238000D01*
X933500Y244000D02*
X939500Y238000D01*
X933500Y244000D02*
Y253000D01*
X920000Y266500D02*
X933500Y253000D01*
X923043Y356700D02*
Y361319D01*
X912500Y358200D02*
X918522Y352178D01*
X973700Y343900D02*
X975800Y346000D01*
X973700Y327289D02*
Y343900D01*
Y327289D02*
X980900Y320089D01*
Y281000D02*
Y320089D01*
X980000Y280100D02*
X980900Y281000D01*
X975869Y280100D02*
X980000D01*
X975669Y279900D02*
X975869Y280100D01*
X975669Y276387D02*
Y279900D01*
Y276387D02*
X977100Y274957D01*
X980319D01*
X903957Y138681D02*
Y145500D01*
X910000Y151543D01*
Y251635D01*
X900000Y261635D02*
X910000Y251635D01*
X900000Y261635D02*
Y266500D01*
X412900Y262200D02*
X430091Y245009D01*
Y240000D02*
Y245009D01*
X410000Y265100D02*
Y308583D01*
Y265100D02*
X412900Y262200D01*
X1024600Y325000D02*
X1032100Y317500D01*
Y256800D02*
X1037500Y251000D01*
X679104Y155000D02*
X683000D01*
X500000Y70000D02*
X507600Y77600D01*
Y123500D01*
X500000Y131100D02*
X507600Y123500D01*
X500000Y131100D02*
Y149429D01*
X730400Y367400D02*
X755000Y392000D01*
X730400Y297467D02*
Y367400D01*
Y297467D02*
X736600Y291267D01*
Y262600D02*
Y291267D01*
X358000Y314882D02*
X361319D01*
X356700Y313582D02*
X358000Y314882D01*
X356700Y311200D02*
Y313582D01*
Y311200D02*
X369500Y298400D01*
Y194200D02*
Y298400D01*
X371200Y451000D02*
X401200D01*
X366200Y456000D02*
X371200Y451000D01*
X366200Y456000D02*
Y488700D01*
X357700Y497200D02*
X366200Y488700D01*
X342200Y497200D02*
X357700D01*
X297700Y452700D02*
X342200Y497200D01*
X297700Y360000D02*
Y452700D01*
Y319400D02*
Y360000D01*
Y319400D02*
X301700Y316400D01*
X330118Y175118D02*
X334100D01*
X328500Y173500D02*
X330118Y175118D01*
X320000Y173500D02*
X328500D01*
X352500Y264236D02*
Y270000D01*
X334100Y245836D02*
X352500Y264236D01*
X334100Y175118D02*
Y245836D01*
Y175118D02*
X338681D01*
X317400Y170900D02*
X320000Y173500D01*
X317000Y170900D02*
X317400D01*
X315900Y169800D02*
X317000Y170900D01*
X315900Y158900D02*
Y169800D01*
Y158900D02*
X338300Y136500D01*
X344300D01*
X957681Y197516D02*
X961800D01*
X964617Y200332D01*
Y249917D01*
X970400Y255700D01*
Y265900D01*
X967600Y268700D02*
X970400Y265900D01*
X964698Y259602D02*
X965600Y258700D01*
X957681Y259602D02*
X964698D01*
X939700Y292300D02*
X943563D01*
X936000Y288600D02*
X939700Y292300D01*
X936000Y284600D02*
Y288600D01*
Y284600D02*
X937100Y283500D01*
Y268100D02*
Y283500D01*
Y268100D02*
X943039Y262161D01*
X957681D01*
X951780Y264720D02*
X957681D01*
X939882Y276618D02*
X951780Y264720D01*
X939882Y276618D02*
Y286618D01*
X963731Y282400D02*
X964600D01*
X962331Y281000D02*
X963731Y282400D01*
X962331Y270970D02*
Y281000D01*
X961200Y269839D02*
X962331Y270970D01*
X957681Y269839D02*
X961200D01*
X932450Y309650D02*
X948100Y294000D01*
Y278254D02*
Y294000D01*
Y278254D02*
X953957Y272398D01*
X957681D01*
X1089900Y70975D02*
X1091988Y68888D01*
X1089900Y70975D02*
Y149900D01*
X1092300Y152300D01*
Y369000D01*
X1092500Y369200D01*
Y391200D01*
X1090600Y393100D02*
X1092500Y391200D01*
X1044970Y426070D02*
X1047400Y428500D01*
X1044970Y421319D02*
Y426070D01*
X1086200Y58600D02*
Y153400D01*
X1087500Y154700D01*
Y373800D01*
X1087700Y374000D01*
X1032600Y412500D02*
X1036100D01*
X1037400Y411200D01*
X1042000D01*
X1043411Y412611D01*
Y413378D01*
X1047530Y417496D01*
Y421319D01*
X1094700Y98000D02*
X1096100Y99400D01*
Y455200D01*
X1056100Y495200D02*
X1096100Y455200D01*
X1043300Y495200D02*
X1056100D01*
X1042000Y493900D02*
X1043300Y495200D01*
X1042000Y462300D02*
Y493900D01*
Y462300D02*
X1052648Y451652D01*
Y421319D02*
Y451652D01*
X816600Y31800D02*
X818500Y33700D01*
Y50400D01*
X830600Y62500D01*
X835600D01*
X1083800Y159900D02*
X1084700Y160800D01*
Y385700D01*
X1062466Y411300D02*
X1067400D01*
X1057766Y416000D02*
X1062466Y411300D01*
X1057766Y416000D02*
Y421319D01*
X1039852Y106852D02*
X1041400Y108400D01*
X1039852Y101319D02*
Y106852D01*
X1042411Y96711D02*
Y101319D01*
X1038800Y93100D02*
X1042411Y96711D01*
X931000Y86800D02*
X931500D01*
X918600Y50200D02*
X931000Y62600D01*
X918600Y43758D02*
Y50200D01*
X906642Y31800D02*
X918600Y43758D01*
X855900Y31800D02*
X906642D01*
X1037570Y112400D02*
X1043970D01*
X1044970Y111400D01*
Y101319D02*
Y111400D01*
X1047530Y101319D02*
Y111670D01*
X1043400Y115800D02*
X1047530Y111670D01*
X1036000Y115800D02*
X1043400D01*
X1033100Y112900D02*
X1036000Y115800D01*
X1033100Y108600D02*
Y112900D01*
X1050089Y97189D02*
Y101319D01*
X1046555Y93655D02*
X1050089Y97189D01*
X1045049Y93655D02*
X1046555D01*
X1050648Y92800D02*
X1052648Y94800D01*
Y101319D01*
X1056000Y94200D02*
Y94734D01*
X1057766Y96500D01*
Y101319D01*
X900000Y62400D02*
X909100Y71500D01*
Y144200D01*
X912000Y147100D01*
Y254800D01*
X756500Y315300D02*
Y323000D01*
X753043Y326457D02*
X756500Y323000D01*
X744319Y326457D02*
X753043D01*
X931700Y96700D02*
Y122300D01*
X936300Y126900D01*
Y136471D01*
X932100Y140671D02*
X936300Y136471D01*
X932100Y140671D02*
Y210147D01*
X928300Y213947D02*
X932100Y210147D01*
X928300Y213947D02*
Y251600D01*
X732300Y302300D02*
X734000Y300600D01*
X732300Y302300D02*
Y318198D01*
X738000Y323898D01*
X744319D01*
Y318780D02*
X748000D01*
X756300Y310480D01*
Y299007D02*
Y310480D01*
X755500Y298207D02*
X756300Y299007D01*
X755500Y252955D02*
Y298207D01*
Y252955D02*
X775400Y233055D01*
Y161100D02*
Y233055D01*
Y161100D02*
X783400Y153100D01*
X807400D01*
X811500Y149000D01*
X813700Y145400D02*
X817400Y149100D01*
X774500Y145400D02*
X813700D01*
X764800Y155100D02*
X774500Y145400D01*
X764800Y155100D02*
Y232800D01*
X750700Y246900D02*
X764800Y232800D01*
X750700Y246900D02*
Y273700D01*
X738600Y281300D02*
X739600Y280300D01*
X738600Y281300D02*
Y300700D01*
X734100Y305200D02*
X738600Y300700D01*
X734100Y305200D02*
Y316000D01*
X735100Y317000D01*
X739020D01*
X739800Y316220D01*
X744319D01*
X828100Y94500D02*
X829400Y95800D01*
Y249200D01*
X816430Y262170D02*
X829400Y249200D01*
X777000Y262170D02*
X816430D01*
X773700Y265470D02*
X777000Y262170D01*
X773700Y265470D02*
Y294800D01*
X737100Y313661D02*
X744319D01*
X800500Y151200D02*
X803300Y148400D01*
X778873Y151200D02*
X800500D01*
X772600Y157473D02*
X778873Y151200D01*
X772600Y157473D02*
Y232495D01*
X753700Y251395D02*
X772600Y232495D01*
X753700Y251395D02*
Y300007D01*
X754400Y300707D01*
Y308900D01*
X752198Y311102D02*
X754400Y308900D01*
X744319Y311102D02*
X752198D01*
X740500Y305984D02*
X744319D01*
X740500Y290784D02*
Y305984D01*
Y290784D02*
X742600Y288684D01*
Y249600D02*
Y288684D01*
X728700Y235700D02*
X742600Y249600D01*
X728700Y214200D02*
Y235700D01*
X727900Y213400D02*
X728700Y214200D01*
X727900Y194900D02*
Y213400D01*
Y194900D02*
X728700Y194100D01*
Y89000D02*
Y194100D01*
X728000Y88300D02*
X728700Y89000D01*
X730800Y93600D02*
X731800Y92600D01*
X730800Y93600D02*
Y194800D01*
X729800Y195800D02*
X730800Y194800D01*
X729800Y195800D02*
Y206437D01*
X730569Y207206D01*
Y226269D01*
X738139Y233839D01*
X744319D01*
X742450Y67050D02*
X744500Y69100D01*
Y209000D01*
X754500Y219000D01*
Y222019D01*
X749100Y227419D02*
X754500Y222019D01*
X749100Y227419D02*
Y231080D01*
X744319Y231280D02*
X749100Y231080D01*
X736200Y228720D02*
X744319D01*
X732369Y224890D02*
X736200Y228720D01*
X732369Y217591D02*
Y224890D01*
Y217591D02*
X736700Y213260D01*
Y82800D02*
Y213260D01*
X736200Y82300D02*
X736700Y82800D01*
X736361Y226161D02*
X744319D01*
X734200Y224000D02*
X736361Y226161D01*
X734200Y219391D02*
Y224000D01*
Y219391D02*
X739300Y214291D01*
Y77300D02*
Y214291D01*
X736611Y74611D02*
X739300Y77300D01*
X736611Y72000D02*
Y74611D01*
X734483Y69871D02*
X736611Y72000D01*
X731000Y69871D02*
X734483D01*
X726386Y74485D02*
X731000Y69871D01*
X726386Y74485D02*
Y79000D01*
X738402Y223602D02*
X744319D01*
X737200Y222400D02*
X738402Y223602D01*
X733200Y97200D02*
Y202200D01*
Y97200D02*
X734800Y95600D01*
Y91200D02*
Y95600D01*
X733000Y89400D02*
X734800Y91200D01*
X733000Y73100D02*
Y89400D01*
X742100Y218484D02*
X744319D01*
X741200Y73700D02*
X742100Y74600D01*
X654400Y108200D02*
X656398Y106202D01*
Y98681D02*
Y106202D01*
X646161Y98681D02*
Y107251D01*
X640912Y112500D02*
X646161Y107251D01*
X631900Y112500D02*
X640912D01*
X619700Y124700D02*
X631900Y112500D01*
X619700Y124700D02*
Y146300D01*
X655839Y405039D02*
X657100Y406300D01*
X655839Y398681D02*
Y405039D01*
X688000Y285000D02*
Y289100D01*
X700900Y302000D01*
Y304800D01*
X700300Y305400D02*
X700900Y304800D01*
X694800Y305400D02*
X700300D01*
X685200Y295800D02*
X694800Y305400D01*
X685200Y292158D02*
Y295800D01*
X684542Y291500D02*
X685200Y292158D01*
X674000Y291500D02*
X684542D01*
X671600Y293900D02*
X674000Y291500D01*
X671600Y293900D02*
Y374200D01*
X674600Y377200D01*
X647700Y405900D02*
X648161Y405439D01*
Y398681D02*
Y405439D01*
X650400Y381300D02*
Y385300D01*
X640484Y395216D02*
X650400Y385300D01*
X640484Y395216D02*
Y398681D01*
X766000Y280600D02*
X767500Y279100D01*
Y259679D02*
Y279100D01*
Y259679D02*
X808602Y218576D01*
Y161319D02*
Y218576D01*
X813720Y161319D02*
Y221380D01*
X771900Y263200D02*
X813720Y221380D01*
X771900Y263200D02*
Y285492D01*
X770500Y286892D02*
X771900Y285492D01*
X770500Y286892D02*
Y308700D01*
X766900Y312300D02*
X770500Y308700D01*
X766900Y312300D02*
Y332600D01*
X764000Y335500D02*
X766900Y332600D01*
X745100Y335500D02*
X764000D01*
X821398Y157802D02*
Y161319D01*
Y157802D02*
X825100Y154100D01*
X826400D01*
X778900Y184200D02*
X798600Y164500D01*
X778900Y184200D02*
Y234311D01*
X758500Y254711D02*
X778900Y234311D01*
X758500Y254711D02*
Y295200D01*
X695400Y334000D02*
Y338338D01*
X677738Y356000D02*
X695400Y338338D01*
X675600Y356000D02*
X677738D01*
X674600Y357000D02*
X675600Y356000D01*
X674600Y357000D02*
Y370900D01*
X696700Y300400D02*
Y302400D01*
X684900Y288600D02*
X696700Y300400D01*
X684900Y283617D02*
Y288600D01*
Y283617D02*
X689817Y278700D01*
X697800D01*
X820100Y248900D02*
X826516Y242484D01*
Y161319D02*
Y242484D01*
X871800Y244200D02*
Y261000D01*
Y244200D02*
X886043Y229957D01*
Y161319D02*
Y229957D01*
X692900Y282000D02*
X697400Y286500D01*
Y291700D01*
X866800Y164000D02*
Y257500D01*
Y164000D02*
X874200Y156600D01*
X887202D01*
X888602Y158000D01*
Y161319D01*
X879500Y243500D02*
X891161Y231839D01*
Y161319D02*
Y231839D01*
X901398Y161319D02*
Y201598D01*
X901400Y201600D01*
X657100Y221100D02*
Y239000D01*
X701319Y62707D02*
X742657D01*
X746500Y66550D01*
Y208200D01*
X756300Y218000D01*
Y228000D01*
X751700Y232600D02*
X756300Y228000D01*
X698111Y57589D02*
X701319D01*
X694800Y60900D02*
X698111Y57589D01*
X694800Y60900D02*
Y88000D01*
X701319Y55030D02*
X713926D01*
X719697Y60800D01*
X744550D01*
X748400Y64650D01*
Y112900D01*
X750200Y114700D01*
X697889Y49911D02*
X701319D01*
X692900Y54900D02*
X697889Y49911D01*
X692900Y54900D02*
Y84000D01*
X691800Y85100D02*
X692900Y84000D01*
X691800Y85100D02*
Y157731D01*
X723800Y189731D01*
X751050Y108050D02*
X751600Y108600D01*
X751050Y63704D02*
Y108050D01*
X746293Y58946D02*
X751050Y63704D01*
X720573Y58946D02*
X746293D01*
X708980Y47352D02*
X720573Y58946D01*
X701319Y47352D02*
X708980D01*
X1011319Y62707D02*
X1026893D01*
X1028800Y60800D01*
X1075800Y440400D02*
X1077900Y442500D01*
X1075800Y387200D02*
Y440400D01*
Y387200D02*
X1079700Y383300D01*
Y165400D02*
Y383300D01*
X1078900Y164600D02*
X1079700Y165400D01*
X1078900Y156000D02*
Y164600D01*
Y156000D02*
X1082500Y152400D01*
Y66600D02*
Y152400D01*
X1071748Y55848D02*
X1082500Y66600D01*
X1027200Y55848D02*
X1071748D01*
X1022900Y60148D02*
X1027200Y55848D01*
X1011319Y60148D02*
X1022900D01*
X1011319Y57589D02*
X1018411D01*
X1022100Y53900D01*
X1076311D01*
X1084400Y61989D01*
Y154350D01*
X1080800Y157950D02*
X1084400Y154350D01*
X1080800Y157950D02*
Y162900D01*
X1082700Y164800D01*
Y366142D01*
X1081656Y367187D02*
X1082700Y366142D01*
X1081656Y367187D02*
Y388244D01*
X1078900Y391000D02*
X1081656Y388244D01*
X1078900Y391000D02*
Y424422D01*
X1083000Y404100D02*
Y415000D01*
X1081100Y402200D02*
X1083000Y404100D01*
X1081100Y395100D02*
Y402200D01*
Y395100D02*
X1090700Y385500D01*
Y370937D02*
Y385500D01*
X1089500Y369737D02*
X1090700Y370937D01*
X1089500Y153925D02*
Y369737D01*
X1088100Y152525D02*
X1089500Y153925D01*
X1088100Y66900D02*
Y152525D01*
Y66900D02*
X1091400Y63600D01*
Y58000D02*
Y63600D01*
X1085500Y52100D02*
X1091400Y58000D01*
X1020730Y52100D02*
X1085500D01*
X1017800Y55030D02*
X1020730Y52100D01*
X1011319Y55030D02*
X1017800D01*
X940957Y338681D02*
Y342000D01*
X943235Y344278D01*
X953578D01*
X959878Y350578D01*
Y361500D01*
X963572Y365195D01*
Y455772D01*
X966100Y458300D01*
X970247Y463547D02*
Y467325D01*
X968100Y461400D02*
X970247Y463547D01*
X964500Y461400D02*
X968100D01*
X961600Y458500D02*
X964500Y461400D01*
X961600Y366822D02*
Y458500D01*
X958078Y363300D02*
X961600Y366822D01*
X958078Y355007D02*
Y363300D01*
X950571Y347500D02*
X958078Y355007D01*
X937917Y347500D02*
X950571D01*
X935839Y345422D02*
X937917Y347500D01*
X935839Y338681D02*
Y345422D01*
X851398Y338681D02*
Y343402D01*
X845900Y348900D02*
X851398Y343402D01*
X830400Y348900D02*
X845900D01*
X816200Y363100D02*
X830400Y348900D01*
X748500Y400361D02*
Y450400D01*
X808833Y365667D02*
Y375600D01*
Y365667D02*
X828343Y346157D01*
X844704D01*
X846280Y344581D01*
Y338681D02*
Y344581D01*
X771400Y317300D02*
Y365976D01*
Y317300D02*
X784100Y304600D01*
X820600D01*
X843720Y327720D01*
Y338681D01*
X816400Y343400D02*
X840000D01*
X841161Y342239D01*
Y338681D02*
Y342239D01*
X833484Y338681D02*
Y338700D01*
X786900Y370332D02*
X818532Y338700D01*
X786900Y370332D02*
Y415258D01*
X787100Y415458D01*
X788500D01*
X836200Y388400D02*
Y398500D01*
Y388400D02*
X845800Y378800D01*
X985100Y397732D02*
Y421418D01*
X994300Y430618D01*
Y445400D01*
X992407Y447293D02*
X994300Y445400D01*
X988681Y447293D02*
X992407D01*
X821500Y406900D02*
Y426400D01*
X848500D01*
Y390500D02*
Y426400D01*
Y390500D02*
X852000Y387000D01*
Y371200D02*
Y387000D01*
X967300Y353900D02*
Y363000D01*
X983900Y379600D01*
Y388000D01*
X980200Y391700D02*
X983900Y388000D01*
X980200Y391700D02*
Y425500D01*
X990600Y435900D01*
Y440000D01*
X988400Y442200D02*
X990600Y440000D01*
X985100Y442200D02*
X988400D01*
X984000Y443300D02*
X985100Y442200D01*
X984000Y443300D02*
Y448852D01*
X985000Y449852D01*
X988681D01*
X983911Y452411D02*
X988681D01*
X975900Y444400D02*
X983911Y452411D01*
X975900Y392900D02*
Y444400D01*
X975100Y392100D02*
X975900Y392900D01*
X811400Y396300D02*
X825900Y381800D01*
X811400Y396300D02*
Y425900D01*
X813700Y428200D01*
X816300D01*
X818500Y426000D01*
Y413000D02*
Y426000D01*
X983718Y454970D02*
X988681D01*
X973800Y445053D02*
X983718Y454970D01*
X973800Y424650D02*
Y445053D01*
X969300Y420150D02*
X973800Y424650D01*
X969300Y397300D02*
Y420150D01*
X968800Y432300D02*
Y444098D01*
X982231Y457530D01*
X988681D01*
X955800Y401800D02*
X958100Y404100D01*
Y459100D01*
X964800Y465800D01*
X992000Y470857D02*
Y475700D01*
X988909Y467766D02*
X992000Y470857D01*
X988681Y467766D02*
X988909D01*
X678681Y447293D02*
X682038D01*
X684989Y444342D01*
Y427211D02*
Y444342D01*
Y427211D02*
X703000Y409200D01*
X879200Y385300D02*
X885100Y391200D01*
Y406300D01*
X891000Y412200D01*
X887000Y401000D02*
X896700Y410700D01*
X887000Y376200D02*
Y401000D01*
Y376200D02*
X887600Y375600D01*
X811000Y378800D02*
X819600Y370200D01*
X807100Y378800D02*
X811000D01*
X803800Y375500D02*
X807100Y378800D01*
X803800Y360800D02*
Y375500D01*
X706100Y368500D02*
Y411665D01*
X687000Y430765D02*
X706100Y411665D01*
X687000Y430765D02*
Y447300D01*
X681889Y452411D02*
X687000Y447300D01*
X678681Y452411D02*
X681889D01*
X678681Y457530D02*
X682070D01*
X685900Y453700D01*
X878000Y390100D02*
Y395300D01*
X876200Y388300D02*
X878000Y390100D01*
X876200Y382300D02*
Y388300D01*
Y382300D02*
X886500Y372000D01*
X898900D01*
X904900Y378000D01*
Y411000D01*
X674982Y460089D02*
X678681D01*
X668500Y453607D02*
X674982Y460089D01*
X668500Y436015D02*
Y453607D01*
Y436015D02*
X680000Y424515D01*
Y379200D02*
Y424515D01*
Y379200D02*
X685200Y374000D01*
X678681Y462648D02*
X684952D01*
X685764Y458600D01*
X689000Y455364D01*
Y433500D02*
Y455364D01*
Y433500D02*
X701700Y420800D01*
X918500Y391700D02*
X930000Y403200D01*
Y413000D01*
X678681Y467766D02*
X685134D01*
X689300Y463600D01*
Y459400D02*
Y463600D01*
X663516Y420300D02*
Y421319D01*
X669600Y420300D02*
X670300Y419600D01*
X677600Y359200D02*
X707784Y329016D01*
X721681D01*
X859900Y168500D02*
X863800Y172400D01*
X712500Y242000D02*
X712984Y241516D01*
X1018000Y379700D02*
X1034734Y395000D01*
X1013600Y379700D02*
X1018000D01*
X1002400Y368500D02*
X1013600Y379700D01*
X943516Y368016D02*
X944000Y368500D01*
X943516Y361319D02*
Y368016D01*
X860000Y273500D02*
Y344900D01*
X330312Y322559D02*
X338681D01*
X324067Y316314D02*
X330312Y322559D01*
X324067Y312929D02*
Y316314D01*
X323038Y311900D02*
X324067Y312929D01*
X304700Y311900D02*
X323038D01*
X259200Y266400D02*
X304700Y311900D01*
X1067364Y178200D02*
X1068200D01*
X1066600Y149687D02*
X1067364Y150451D01*
X939900Y134000D02*
X942500Y136600D01*
X939900Y71100D02*
Y134000D01*
X935000Y66200D02*
X939900Y71100D01*
X935000Y48396D02*
Y66200D01*
X550000Y299200D02*
Y305400D01*
X531900Y281100D02*
X550000Y299200D01*
X505279Y282621D02*
X506800Y281100D01*
X501939Y282621D02*
X505279D01*
X498300Y286260D02*
X501939Y282621D01*
X495571Y286260D02*
X498300D01*
X560000Y140500D02*
X563000D01*
X564000Y141500D01*
Y291400D01*
X550000Y305400D02*
X564000Y291400D01*
X361319Y325118D02*
X364482D01*
X367400Y322200D01*
X383900D01*
X479600Y483400D02*
X487500Y475500D01*
X501200D01*
X985000Y465207D02*
X988681D01*
X984000Y466207D02*
X985000Y465207D01*
X984000Y466207D02*
Y470800D01*
X985900Y472700D01*
X1055207Y421319D02*
Y454600D01*
X1037900Y197480D02*
Y228400D01*
Y197480D02*
X1045380Y190000D01*
X1056300D01*
X1058300Y188000D01*
Y182700D02*
Y188000D01*
X1056900Y181300D02*
X1058300Y182700D01*
X1046500Y181300D02*
X1056900D01*
X1039000Y173800D02*
X1046500Y181300D01*
X1011319Y44793D02*
X1026007D01*
X1027300Y43500D01*
X1040200Y121907D02*
Y129300D01*
X1055207Y101319D02*
Y106900D01*
X640400Y388200D02*
Y392525D01*
X638098Y394827D02*
X640400Y392525D01*
X638098Y394827D02*
Y402000D01*
X639498Y403400D01*
X642000D01*
X643043Y402357D01*
Y398681D02*
Y402357D01*
X823957Y161319D02*
Y229643D01*
X823100Y230500D02*
X823957Y229643D01*
X953943Y274957D02*
X957681D01*
X949980Y278920D02*
X953943Y274957D01*
X949980Y278920D02*
Y300081D01*
X922500Y332157D02*
X923043Y332700D01*
X922500Y294125D02*
X935300Y281325D01*
Y259316D02*
Y281325D01*
Y259316D02*
X952900Y241716D01*
Y196057D02*
X954000Y194957D01*
X957681D01*
X357523Y162323D02*
X361319D01*
X352120D02*
X357523D01*
X351200Y163243D02*
X352120Y162323D01*
X351200Y163243D02*
Y177332D01*
X356600Y182732D01*
Y261900D01*
X358400Y263700D01*
Y285239D01*
X354900Y288739D02*
X358400Y285239D01*
X354900Y288739D02*
Y320777D01*
X348000Y327677D02*
X354900Y320777D01*
X338681Y327677D02*
X348000D01*
X210000Y25000D02*
Y85500D01*
X249700Y125200D01*
X356100Y155300D02*
Y160900D01*
X357523Y162323D01*
X384000Y157500D02*
Y172700D01*
X380000Y156500D02*
X384000Y157500D01*
X500000Y307100D02*
Y324429D01*
X497747Y304847D02*
X500000Y307100D01*
X454563Y304847D02*
X497747D01*
X454563Y293972D02*
Y304847D01*
Y293972D02*
X459128D01*
X523500Y229600D01*
Y173500D02*
Y229600D01*
X1013000Y198000D02*
X1013600Y198600D01*
X1026300D01*
X1026500Y198400D01*
Y152200D02*
Y198400D01*
X1013200Y138900D02*
X1026500Y152200D01*
X1013200Y102300D02*
Y138900D01*
X1012100Y101200D02*
X1013200Y102300D01*
X915000Y79104D02*
Y93600D01*
X679104Y185000D02*
X690800D01*
X775000Y417258D02*
Y420896D01*
X779400Y350100D02*
X787000Y342500D01*
Y307700D02*
Y342500D01*
X925000Y79104D02*
Y201582D01*
X781300Y357809D02*
X811609Y327500D01*
X779000Y438551D02*
X785000Y444551D01*
Y451604D01*
X648396Y185000D02*
X652500D01*
X655700Y188200D01*
Y189300D01*
X1051604Y315000D02*
Y316096D01*
X1043700Y324000D02*
X1051604Y316096D01*
X1036900Y324000D02*
X1043700D01*
X1034900Y322000D02*
X1036900Y324000D01*
X1034900Y259600D02*
Y322000D01*
Y259600D02*
X1040500Y254000D01*
Y248468D02*
Y254000D01*
X1034900Y242868D02*
X1040500Y248468D01*
X1034900Y191000D02*
Y242868D01*
Y191000D02*
X1037900Y188000D01*
X945000Y79104D02*
Y109100D01*
X962800Y126900D01*
Y159520D01*
X939500Y182820D02*
X962800Y159520D01*
X939500Y182820D02*
Y200700D01*
X941300Y202500D01*
Y246200D01*
X939300Y248200D02*
X941300Y246200D01*
X904100Y302800D02*
Y326900D01*
X882400Y281100D02*
X904100Y302800D01*
X730000Y292700D02*
Y295200D01*
X728600Y296600D02*
X730000Y295200D01*
X728600Y296600D02*
Y395100D01*
X742800Y409300D01*
Y454700D01*
X745400Y457300D01*
X764000D01*
X765000Y456300D01*
Y451604D02*
Y456300D01*
X653600Y175000D02*
X657100Y171500D01*
X648396Y175000D02*
X653600D01*
X1041700Y330700D02*
X1047400Y325000D01*
X1051604D01*
X976000Y282500D02*
X977000Y283500D01*
X975000Y282500D02*
X976000D01*
X973869Y281369D02*
X975000Y282500D01*
X973869Y273461D02*
Y281369D01*
Y273461D02*
X974000Y273330D01*
Y202100D02*
Y273330D01*
X968900Y197000D02*
X974000Y202100D01*
X968900Y88590D02*
Y197000D01*
X940310Y60000D02*
X968900Y88590D01*
X940310Y44799D02*
Y60000D01*
X938469Y42958D02*
X940310Y44799D01*
X926742Y42958D02*
X938469D01*
X925000Y44700D02*
X926742Y42958D01*
X925000Y44700D02*
Y48396D01*
X1020896Y315000D02*
X1026100D01*
X1029100Y312000D01*
Y147100D02*
Y312000D01*
X503740Y149429D02*
Y149500D01*
X506500D02*
X519600Y136400D01*
X529900D01*
X560000Y166500D01*
Y147500D02*
Y166500D01*
X550000Y312400D02*
Y324000D01*
X153500Y25000D02*
X190000D01*
X85800Y162000D02*
Y271059D01*
X89400Y274659D01*
Y393300D01*
X62300Y420400D02*
X89400Y393300D01*
X78168Y156368D02*
X78836Y155700D01*
X78168Y156368D02*
Y272316D01*
X85800Y279948D01*
Y333002D01*
X66900Y351902D02*
X85800Y333002D01*
X66900Y351902D02*
Y405800D01*
X62300Y410400D02*
X66900Y405800D01*
X122000Y194900D02*
X123200Y193700D01*
Y108228D02*
Y193700D01*
X85572Y70600D02*
X123200Y108228D01*
X55400Y70600D02*
X85572D01*
X45000Y60200D02*
X55400Y70600D01*
X39853Y60200D02*
X45000D01*
X37700Y58047D02*
X39853Y60200D01*
X37700Y29400D02*
Y58047D01*
Y29400D02*
X42300Y24800D01*
X68700Y339000D02*
X70600Y340900D01*
X68700Y272400D02*
Y339000D01*
X46753Y250453D02*
X68700Y272400D01*
X46753Y199253D02*
Y250453D01*
X42300Y194800D02*
X46753Y199253D01*
X42300Y184800D02*
Y194800D01*
Y214800D02*
Y252200D01*
X56800Y266700D01*
Y317100D01*
X50500Y323400D02*
X56800Y317100D01*
X50500Y323400D02*
Y355900D01*
X42300Y204800D02*
Y214800D01*
Y164800D02*
Y174800D01*
Y154800D02*
X48553Y161053D01*
Y249553D01*
X80500Y281500D01*
Y320000D01*
X323600Y255000D02*
X329100Y260500D01*
X256600Y255000D02*
X323600D01*
X252600Y259000D02*
X256600Y255000D01*
X252600Y259000D02*
Y356100D01*
X128500Y480200D02*
X252600Y356100D01*
X42000Y480200D02*
X128500D01*
X36000Y474200D02*
X42000Y480200D01*
X36000Y438900D02*
Y474200D01*
Y438900D02*
X39900Y435000D01*
X44900D01*
X46800Y433100D01*
Y424900D02*
Y433100D01*
X42300Y420400D02*
X46800Y424900D01*
X184400Y309400D02*
Y363400D01*
Y309400D02*
X247500Y246300D01*
X301000D01*
X143000Y278500D02*
X151500Y270000D01*
X143000Y278500D02*
Y398553D01*
X66700Y474853D02*
X143000Y398553D01*
X59953Y474853D02*
X66700D01*
X54600Y469500D02*
X59953Y474853D01*
X54600Y460000D02*
Y469500D01*
X49500Y454900D02*
X54600Y460000D01*
X40047Y454900D02*
X49500D01*
X37847Y452700D02*
X40047Y454900D01*
X37847Y444853D02*
Y452700D01*
Y444853D02*
X42300Y440400D01*
X49600Y275800D02*
X53700Y279900D01*
X37900Y275800D02*
X49600D01*
X37700Y276000D02*
X37900Y275800D01*
X37700Y276000D02*
Y425800D01*
X42300Y430400D01*
X62300Y125300D02*
X73400Y136400D01*
X190200Y75300D02*
X274900Y160000D01*
X41500Y270800D02*
X52300D01*
X34100Y263400D02*
X41500Y270800D01*
X34100Y86200D02*
Y263400D01*
Y86200D02*
X40100Y80200D01*
X45000D01*
X46900Y82100D01*
Y90200D01*
X42300Y94800D02*
X46900Y90200D01*
X72100Y306800D02*
Y330400D01*
X151900Y284600D02*
Y400600D01*
X75800Y476700D02*
X151900Y400600D01*
X48600Y476700D02*
X75800D01*
X42300Y470400D02*
X48600Y476700D01*
X110200Y203500D02*
Y300000D01*
Y203500D02*
X112000Y201700D01*
Y195697D02*
Y201700D01*
Y195697D02*
X113400Y194297D01*
Y186795D02*
Y194297D01*
Y186795D02*
X117528Y182667D01*
Y170728D02*
Y182667D01*
X87500Y140700D02*
X117528Y170728D01*
X59900Y140700D02*
X87500D01*
X55400Y136200D02*
X59900Y140700D01*
X55400Y127900D02*
Y136200D01*
X42300Y114800D02*
X55400Y127900D01*
X306400Y110391D02*
Y138000D01*
X214609Y18600D02*
X306400Y110391D01*
X69000Y18600D02*
X214609D01*
X62300Y25300D02*
X69000Y18600D01*
X367142Y333500D02*
X380000D01*
X361319Y327677D02*
X367142Y333500D01*
X308900Y302400D02*
X309800Y303300D01*
X308900Y294600D02*
Y302400D01*
Y294600D02*
X313400Y290100D01*
X350400D01*
X356600Y283900D01*
Y265500D02*
Y283900D01*
X354300Y263200D02*
X356600Y265500D01*
X354300Y189977D02*
Y263200D01*
X342000Y177677D02*
X354300Y189977D01*
X338681Y177677D02*
X342000D01*
X344000D02*
X347300Y174377D01*
Y159500D02*
Y174377D01*
Y159500D02*
X354800Y152000D01*
X383800D01*
X385800Y154000D01*
Y214400D01*
X374800Y225400D02*
X385800Y214400D01*
X374800Y225400D02*
Y301023D01*
X363500Y312323D02*
X374800Y301023D01*
X361319Y312323D02*
X363500D01*
X1029964Y106602D02*
Y125864D01*
X1007400Y65266D02*
Y70100D01*
Y65266D02*
X1011319D01*
X957500Y338600D02*
X974200Y355300D01*
Y360166D01*
X1034734Y420700D01*
Y421319D01*
X856516Y324500D02*
Y338681D01*
X723700Y102000D02*
Y148900D01*
X719900Y98200D02*
X723700Y102000D01*
X719900Y72000D02*
Y98200D01*
X713166Y65266D02*
X719900Y72000D01*
X701319Y65266D02*
X713166D01*
X758984Y329016D02*
X759000Y329000D01*
X883484Y161300D02*
Y161319D01*
X872600Y164900D02*
X876200Y161300D01*
X786550Y170496D02*
X795552Y161494D01*
X803484Y161319D02*
Y161494D01*
X957681Y254484D02*
X966400D01*
X968600Y256684D01*
Y261100D01*
X964200Y265500D02*
X968600Y261100D01*
X964200Y265500D02*
Y273594D01*
X967700Y277094D01*
Y283970D01*
X953918Y297752D02*
X967700Y283970D01*
X943516Y313084D02*
X953918Y302682D01*
X1014200Y155000D02*
X1020896D01*
X992157Y177043D02*
X1014200Y155000D01*
X980319Y177043D02*
X992157D01*
X980319Y182161D02*
X1004439D01*
X1011600Y175000D01*
X1020896D01*
X1000680Y185000D02*
X1020896D01*
X1000400Y184720D02*
X1000680Y185000D01*
X980319Y184720D02*
X1000400D01*
X980319Y189839D02*
X997339D01*
X1012500Y205000D01*
X1020896D01*
X1014900Y215000D02*
X1020896D01*
X992298Y192398D02*
X1014900Y215000D01*
X980319Y192398D02*
X992298D01*
X1014643Y235000D02*
X1020896D01*
X992600Y257043D02*
X1014643Y235000D01*
X980319Y257043D02*
X992600D01*
X980319Y259602D02*
X993398D01*
X1008000Y245000D01*
X1020896D01*
X1012100Y255000D02*
X1020896D01*
X1004939Y262161D02*
X1012100Y255000D01*
X980319Y262161D02*
X1004939D01*
X1000680Y265000D02*
X1020896D01*
X1000400Y264720D02*
X1000680Y265000D01*
X980319Y264720D02*
X1000400D01*
X980319Y267280D02*
X1004980D01*
X1012700Y275000D01*
X1020896D01*
X1003500Y285000D02*
X1020896D01*
X988339Y269839D02*
X1003500Y285000D01*
X980319Y269839D02*
X988339D01*
X980319Y272398D02*
X984000D01*
X1006602Y295000D01*
X1020896D01*
X1037293Y340207D02*
Y398681D01*
Y340207D02*
X1046100Y331400D01*
X1054000D01*
X1057100Y328300D01*
Y306000D02*
Y328300D01*
X1056100Y305000D02*
X1057100Y306000D01*
X1051604Y305000D02*
X1056100D01*
X1043300Y295000D02*
X1051604D01*
X1042300Y296000D02*
X1043300Y295000D01*
X1042300Y296000D02*
Y319900D01*
X1039300Y371600D02*
X1051100Y359800D01*
X1039300Y371600D02*
Y386248D01*
X1039852Y386800D01*
Y398681D01*
X1047800Y285000D02*
X1051604D01*
X1043700Y280900D02*
X1047800Y285000D01*
X1070400Y278600D02*
Y341400D01*
X1042400Y374400D02*
Y380989D01*
X1042411Y381000D01*
Y398681D01*
X1044970D02*
Y402470D01*
X1048100Y405600D01*
X1061700D01*
X1067300Y400000D01*
Y231900D02*
Y400000D01*
X1065000Y229600D02*
X1067300Y231900D01*
X1044600Y229600D02*
X1065000D01*
X1042400Y231800D02*
X1044600Y229600D01*
X1042400Y231800D02*
Y272200D01*
X1045200Y275000D01*
X1051604D01*
X1047530Y398681D02*
Y402000D01*
X1049230Y403700D01*
X1060000D01*
X1065500Y398200D01*
Y235900D02*
Y398200D01*
X1061100Y231500D02*
X1065500Y235900D01*
X1047000Y231500D02*
X1061100D01*
X1045900Y232600D02*
X1047000Y231500D01*
X1045900Y232600D02*
Y263900D01*
X1047000Y265000D01*
X1051604D01*
X1042411Y73820D02*
Y78681D01*
Y73820D02*
X1044032Y72200D01*
X1060422D01*
X1070800Y82578D01*
Y95100D01*
X1067400Y98500D02*
X1070800Y95100D01*
X1067400Y98500D02*
Y142887D01*
X1063500Y146787D02*
X1067400Y142887D01*
X1063500Y146787D02*
Y212300D01*
X1057100Y218700D02*
X1063500Y212300D01*
X1046100Y218700D02*
X1057100D01*
X1046100Y206000D02*
Y218700D01*
Y206000D02*
X1047100Y205000D01*
X1051604D01*
X1038900Y185000D02*
X1051604D01*
X1034000Y180100D02*
X1038900Y185000D01*
X1034000Y142673D02*
Y180100D01*
X1026027Y134700D02*
X1034000Y142673D01*
X1026027Y92000D02*
Y134700D01*
Y92000D02*
X1030827Y87200D01*
X1044330D01*
X1047530Y84000D01*
Y78681D02*
Y84000D01*
X1043800Y175000D02*
X1051604D01*
X1043300Y174500D02*
X1043800Y175000D01*
X1043300Y122852D02*
Y174500D01*
Y122852D02*
X1060152Y106000D01*
Y97821D02*
Y106000D01*
X1059582Y97252D02*
X1060152Y97821D01*
X1059582Y91910D02*
Y97252D01*
X1058000Y90327D02*
X1059582Y91910D01*
X1056148Y90327D02*
X1058000D01*
X1050089Y84268D02*
X1056148Y90327D01*
X1050089Y78681D02*
Y84268D01*
X1057766Y78681D02*
Y81531D01*
X1062031D02*
X1067200Y86700D01*
Y90300D01*
X1063752Y93748D02*
X1067200Y90300D01*
X1063752Y93748D02*
Y110123D01*
X1059900Y113975D02*
X1063752Y110123D01*
X1059900Y113975D02*
Y151100D01*
X1056000Y155000D02*
X1059900Y151100D01*
X1051604Y155000D02*
X1056000D01*
X707593Y326457D02*
X721681D01*
X703150Y330900D02*
X707593Y326457D01*
X693500Y330900D02*
X703150D01*
X692300Y332100D02*
X693500Y330900D01*
X692300Y332100D02*
Y336309D01*
X683609Y345000D02*
X692300Y336309D01*
X679104Y345000D02*
X683609D01*
X679104Y335000D02*
X685200D01*
X693300Y326900D01*
X701100D01*
X704102Y323898D01*
X721681D01*
X679104Y325000D02*
X697264D01*
X700925Y321339D01*
X721681D01*
X709823Y318780D02*
X721681D01*
X706043Y315000D02*
X709823Y318780D01*
X679104Y315000D02*
X706043D01*
X679104Y305000D02*
X685448D01*
X692473Y312025D01*
X706668D01*
X710863Y316220D01*
X721681D01*
X679104Y295000D02*
X683300D01*
Y297287D02*
X693313Y307300D01*
X708955D01*
X715317Y313661D01*
X721681D01*
X679104Y285000D02*
X681100D01*
Y282700D02*
X683271D01*
X690471Y275500D01*
X699200D01*
X700800Y277100D01*
Y295946D01*
X702800Y297946D01*
Y302521D01*
X704000Y303721D01*
X708575D01*
X715957Y311102D01*
X721681D01*
X717320Y305984D02*
X721681D01*
X704932Y293596D02*
X717320Y305984D01*
X704932Y274832D02*
Y293596D01*
X701500Y271400D02*
X704932Y274832D01*
X686900Y271400D02*
X701500D01*
X683300Y275000D02*
X686900Y271400D01*
X679104Y275000D02*
X683300D01*
X679104Y255000D02*
X689300D01*
X707902Y236398D01*
X721681D01*
X698661Y233839D02*
X721681D01*
X687500Y245000D02*
X698661Y233839D01*
X679104Y245000D02*
X687500D01*
X688420Y231280D02*
X721681D01*
X684700Y235000D02*
X688420Y231280D01*
X679104Y235000D02*
X684700D01*
X679104Y225000D02*
X693918D01*
X697639Y228720D01*
X721681D01*
X715981Y223602D02*
X721681D01*
X714400Y222022D02*
X715981Y223602D01*
X702022Y222022D02*
X714400D01*
X685000Y205000D02*
X702022Y222022D01*
X679104Y205000D02*
X685000D01*
X648396D02*
X660000D01*
X662900Y202100D01*
Y159000D02*
Y202100D01*
X654600Y113900D02*
X656398Y115698D01*
Y121319D01*
X660957Y417643D02*
Y421319D01*
Y417643D02*
X662000Y416600D01*
X668000D01*
X672000Y412600D01*
Y403300D02*
Y412600D01*
X667900Y399200D02*
X672000Y403300D01*
X667900Y381046D02*
Y399200D01*
X666100Y379246D02*
X667900Y381046D01*
X666100Y278300D02*
Y379246D01*
X662800Y275000D02*
X666100Y278300D01*
X648396Y275000D02*
X662800D01*
X648396Y295000D02*
X654000D01*
X656800Y292200D01*
Y281300D02*
Y292200D01*
X654100Y278600D02*
X656800Y281300D01*
X643000Y278600D02*
X654100D01*
X642800Y278400D02*
X643000Y278600D01*
X642800Y272100D02*
Y278400D01*
Y272100D02*
X644400Y270500D01*
X664100D01*
X668000Y274400D01*
Y377546D01*
X669700Y379246D01*
Y396840D01*
X673900Y401040D01*
Y422569D01*
X669900Y426569D02*
X673900Y422569D01*
X657846Y426569D02*
X669900D01*
X655839Y424561D02*
X657846Y426569D01*
X655839Y421319D02*
Y424561D01*
X653280Y416220D02*
Y421319D01*
Y416220D02*
X659000Y410500D01*
X664966D01*
X668100Y407366D01*
Y404000D02*
Y407366D01*
X666000Y401900D02*
X668100Y404000D01*
X666000Y382746D02*
Y401900D01*
X664300Y381046D02*
X666000Y382746D01*
X664300Y318900D02*
Y381046D01*
X650400Y305000D02*
X664300Y318900D01*
X648396Y305000D02*
X650400D01*
X648161Y421319D02*
Y427661D01*
X652500Y432000D01*
X630800Y377500D02*
Y425900D01*
Y377500D02*
X632800Y375500D01*
Y332000D02*
Y375500D01*
Y332000D02*
X639800Y325000D01*
X648396D01*
X755000Y79104D02*
Y83600D01*
X759400Y88000D01*
Y96000D01*
X756500Y98900D02*
X759400Y96000D01*
X756500Y98900D02*
Y113300D01*
X755900Y113900D02*
X756500Y113300D01*
X755900Y113900D02*
Y145600D01*
X756900Y146600D01*
X769891D01*
X772991Y143500D01*
X805055D01*
X806043Y142512D01*
Y138681D02*
Y142512D01*
X775000Y79104D02*
Y103661D01*
X794700Y123361D01*
X800812D01*
X811161Y133710D01*
Y138681D01*
X815000Y79104D02*
Y114271D01*
X821398Y120669D01*
Y138681D01*
X826516Y109616D02*
Y138681D01*
X825000Y108100D02*
X826516Y109616D01*
X825000Y79104D02*
Y108100D01*
X885000Y79104D02*
Y111100D01*
X898839Y124939D01*
Y138681D01*
X901398Y112198D02*
Y138681D01*
X895000Y105800D02*
X901398Y112198D01*
X895000Y79104D02*
Y105800D01*
X905000Y79104D02*
Y115084D01*
X906516Y116600D01*
Y138681D01*
X895000Y48396D02*
Y53874D01*
X886274Y62600D02*
X895000Y53874D01*
X882100Y62600D02*
X886274D01*
X878000Y58500D02*
X882100Y62600D01*
X878000Y56300D02*
Y58500D01*
X686000Y55817D02*
Y57717D01*
X683570Y60148D02*
X686000Y57717D01*
X678681Y60148D02*
X683570D01*
X875000Y48396D02*
Y60500D01*
X877000Y62500D01*
X666000Y59628D02*
Y64600D01*
Y59628D02*
X670598Y55030D01*
X678681D01*
Y52470D02*
X682000D01*
X684000Y50470D01*
Y31000D02*
Y50470D01*
Y31000D02*
X707000Y8000D01*
X841400Y7400D02*
Y52900D01*
X848000Y59500D01*
X860000D01*
X865000Y54500D01*
Y48396D02*
Y54500D01*
X667489Y49911D02*
X678681D01*
X665600Y51800D02*
X667489Y49911D01*
X855000Y53500D02*
X857900Y56400D01*
X855000Y48396D02*
Y53500D01*
X845000Y48396D02*
Y50800D01*
X850500Y56300D01*
X669452Y46600D02*
X670205Y47352D01*
X678681D01*
X825000Y34900D02*
Y48396D01*
Y34900D02*
X829000Y30900D01*
X994300Y32500D02*
X1002800Y41000D01*
Y50279D01*
X999007Y54072D02*
X1002800Y50279D01*
X999007Y54072D02*
Y56549D01*
X992850Y62707D02*
X999007Y56549D01*
X988681Y62707D02*
X992850D01*
X815000Y43108D02*
Y48396D01*
X813400Y41508D02*
X815000Y43108D01*
X813400Y30022D02*
Y41508D01*
Y30022D02*
X814622Y28800D01*
X820100D01*
X823000Y31700D01*
X979642Y60148D02*
X988681D01*
X795000Y37307D02*
Y48396D01*
Y37307D02*
X802679Y29628D01*
Y26000D02*
Y29628D01*
Y26000D02*
X804879Y23800D01*
X816500D01*
X993470Y55030D02*
X998300Y50200D01*
X988681Y55030D02*
X993470D01*
X785000Y30600D02*
Y48396D01*
X990500Y16400D02*
Y34700D01*
X995300Y39500D01*
Y49900D01*
X992730Y52470D02*
X995300Y49900D01*
X988681Y52470D02*
X992730D01*
X775000Y32000D02*
Y48396D01*
Y32000D02*
X779900Y27100D01*
X796000D01*
X974725Y19000D02*
Y22477D01*
X993400Y41152D01*
Y48511D01*
X992000Y49911D02*
X993400Y48511D01*
X988681Y49911D02*
X992000D01*
X755000Y23000D02*
Y48396D01*
Y23000D02*
X775500Y2500D01*
X946666D01*
X986400Y42234D01*
X988681D01*
X945000Y374500D02*
Y420896D01*
X940957Y370457D02*
X945000Y374500D01*
X940957Y361319D02*
Y370457D01*
X935000Y368298D02*
Y420896D01*
Y368298D02*
X938398Y364900D01*
Y361319D02*
Y364900D01*
X925000Y420896D02*
Y426000D01*
X927300Y428300D01*
X947000D01*
X948600Y426700D01*
Y412100D02*
Y426700D01*
X947000Y410500D02*
X948600Y412100D01*
X947000Y359086D02*
Y410500D01*
X944364Y356450D02*
X947000Y359086D01*
X936050Y356450D02*
X944364D01*
X935839Y356661D02*
X936050Y356450D01*
X935839Y356661D02*
Y361319D01*
X915000Y409700D02*
Y420896D01*
Y409700D02*
X917100Y407600D01*
Y401800D02*
Y407600D01*
X915000Y399700D02*
X917100Y401800D01*
X915000Y384280D02*
Y399700D01*
Y384280D02*
X933280Y366000D01*
Y361319D02*
Y366000D01*
X905000Y416900D02*
Y420896D01*
Y416900D02*
X907900Y414000D01*
Y373600D02*
Y414000D01*
Y373600D02*
X908400Y373100D01*
X915400Y376100D02*
X920120D01*
X930720Y365500D01*
Y361319D02*
Y365500D01*
X928161Y357261D02*
Y361319D01*
X920850Y349950D02*
X928161Y357261D01*
X897600Y379976D02*
Y399400D01*
X901600Y403400D01*
Y415900D01*
X900200Y417300D02*
X901600Y415900D01*
X895000Y417300D02*
Y420896D01*
X925602Y361319D02*
Y368000D01*
X925202Y368400D02*
X925602Y368000D01*
X917380Y368400D02*
X925202D01*
X909700Y376080D02*
X917380Y368400D01*
X909700Y376080D02*
Y429000D01*
X908500Y430200D02*
X909700Y429000D01*
X887200Y430200D02*
X908500D01*
X885000Y428000D02*
X887200Y430200D01*
X885000Y420896D02*
Y428000D01*
X920484Y361300D02*
Y361319D01*
X920384Y361200D02*
X920484Y361300D01*
X893700Y361200D02*
X920384D01*
X874300Y380600D02*
X893700Y361200D01*
X874300Y380600D02*
Y389400D01*
X875000Y390100D01*
Y420896D01*
X853957Y361319D02*
Y366000D01*
X865000Y377043D01*
Y420896D01*
X855000Y369602D02*
Y420896D01*
X851398Y366000D02*
X855000Y369602D01*
X851398Y361319D02*
Y366000D01*
X848839Y361319D02*
Y385055D01*
X845000Y388894D02*
X848839Y385055D01*
X845000Y388894D02*
Y420896D01*
X835000Y403971D02*
Y420896D01*
X833100Y402071D02*
X835000Y403971D01*
X833100Y385380D02*
Y402071D01*
Y385380D02*
X846280Y372200D01*
Y361319D02*
Y372200D01*
X815000Y397472D02*
Y420896D01*
Y397472D02*
X841161Y371311D01*
Y361319D02*
Y371311D01*
X1011319Y447293D02*
X1025993D01*
X1027800Y449100D01*
Y469500D01*
X1009100Y488200D02*
X1027800Y469500D01*
X810400Y488200D02*
X1009100D01*
X795000Y472800D02*
X810400Y488200D01*
X795000Y451604D02*
Y472800D01*
X1002000Y460089D02*
X1011319D01*
X998900Y463189D02*
X1002000Y460089D01*
X998900Y463189D02*
Y477718D01*
X992118Y484500D02*
X998900Y477718D01*
X849400Y484500D02*
X992118D01*
X831400Y466500D02*
X849400Y484500D01*
X831400Y446200D02*
Y466500D01*
Y446200D02*
X831600Y446000D01*
X843900D01*
X845000Y447100D01*
Y451604D01*
X855000D02*
Y459300D01*
X850300Y464000D02*
X855000Y459300D01*
X850300Y464000D02*
Y475000D01*
X855000Y479700D01*
X1001100Y464100D02*
Y482100D01*
Y464100D02*
X1002552Y462648D01*
X1011319D01*
X895000Y451604D02*
Y456100D01*
X894000Y457100D02*
X895000Y456100D01*
X872000Y457100D02*
X894000D01*
X870100Y455200D02*
X872000Y457100D01*
X870100Y441700D02*
Y455200D01*
X867100Y438700D02*
X870100Y441700D01*
X796000Y438700D02*
X867100D01*
X790704Y443996D02*
X796000Y438700D01*
X790704Y443996D02*
Y459556D01*
X778960Y471300D02*
X790704Y459556D01*
X771008Y471300D02*
X778960D01*
X760308Y460600D02*
X771008Y471300D01*
X713189Y460600D02*
X760308D01*
X705000Y452411D02*
X713189Y460600D01*
X701319Y452411D02*
X705000D01*
X905000Y451604D02*
Y459400D01*
X896700Y467700D02*
X905000Y459400D01*
X895500Y467700D02*
X896700D01*
X733900Y462700D02*
X736300Y465100D01*
X712500Y462700D02*
X733900D01*
X704770Y454970D02*
X712500Y462700D01*
X701319Y454970D02*
X704770D01*
X695548Y462648D02*
X701319D01*
X692300Y459400D02*
X695548Y462648D01*
X692300Y435500D02*
Y459400D01*
X931000Y439300D02*
X935000Y443300D01*
Y451604D01*
X945000Y443100D02*
Y451604D01*
X941700Y439800D02*
X945000Y443100D01*
X719634Y467766D02*
X721600Y465800D01*
X701319Y467766D02*
X719634D01*
X400945Y331417D02*
Y337645D01*
X404100Y340800D01*
X503740Y304989D02*
Y315571D01*
Y304989D02*
X504429Y304300D01*
Y293740D02*
Y304300D01*
X495571Y293740D02*
X504429D01*
X419055Y158583D02*
Y158600D01*
X478120Y149429D02*
X496260D01*
X478100Y149409D02*
X478120Y149429D01*
X460000Y149409D02*
X478100D01*
X495571Y158189D02*
Y166260D01*
Y158189D02*
X496260Y157500D01*
Y149429D02*
Y157500D01*
Y140571D02*
Y149429D01*
X496300Y332440D02*
Y340600D01*
X496260Y332400D02*
X496300Y332440D01*
X496260Y324429D02*
Y332400D01*
X500500Y123000D02*
X503500Y120000D01*
X500500Y123000D02*
Y124000D01*
X492300Y132200D02*
X500500Y124000D01*
X460000Y132200D02*
X492300D01*
X454400Y137800D02*
X460000Y132200D01*
X454400Y137800D02*
Y169900D01*
X458240Y173740D01*
X504600Y182171D02*
Y190600D01*
X504429Y182000D02*
X504600Y182171D01*
X504429Y173740D02*
Y182000D01*
X500000Y173740D02*
X504429D01*
X513829Y324000D02*
X523500D01*
X513400Y324429D02*
X513829Y324000D01*
X503740Y324429D02*
X513400D01*
X523500Y312400D02*
Y324000D01*
X514040Y166500D02*
X523500D01*
X513800Y166260D02*
X514040Y166500D01*
X504429Y166260D02*
X513800D01*
X523500Y147500D02*
Y166500D01*
X459500Y266500D02*
X463500D01*
Y279900D01*
X463288Y280112D02*
X463500Y279900D01*
X454000Y280112D02*
X463288D01*
X419055Y315056D02*
X454000Y280112D01*
X419055Y315056D02*
Y331417D01*
X388909Y240000D02*
Y245209D01*
X405900Y262200D01*
X496500Y110100D02*
Y120000D01*
Y110100D02*
X496800Y109800D01*
Y100000D02*
Y109800D01*
Y88000D02*
Y100000D01*
X492800Y84000D02*
X496800Y88000D01*
X477500Y84000D02*
X492800D01*
X465400Y71900D02*
X477500Y84000D01*
X465400Y66900D02*
Y71900D01*
X463900Y65400D02*
X465400Y66900D01*
X428100Y65400D02*
X463900D01*
X425400Y68100D02*
X428100Y65400D01*
X425400Y68100D02*
Y87200D01*
X412600Y100000D02*
X425400Y87200D01*
X388909Y100000D02*
X412600D01*
X338681Y170000D02*
X343700D01*
X345500Y168200D01*
Y155400D02*
Y168200D01*
Y155400D02*
X352000Y148900D01*
X396000D01*
X400945Y153845D01*
Y158583D01*
X388909Y100000D02*
X400945Y112035D01*
X643043Y421319D02*
Y445243D01*
X668500Y470700D01*
X687507D02*
X693000Y465207D01*
X701319D01*
X1055207Y78681D02*
Y82918D01*
X1056169Y83880D02*
X1059580D01*
X1064200Y88500D01*
X964300Y24900D02*
X984193Y44793D01*
X988681D01*
X823957Y111457D02*
Y138681D01*
X821400Y108900D02*
X823957Y111457D01*
X821400Y73700D02*
Y108900D01*
Y73700D02*
X821600Y73500D01*
X828700D01*
X831300Y76100D01*
Y257800D01*
X840000Y266500D01*
X614900Y236000D02*
X618900Y240000D01*
X614900Y93100D02*
Y236000D01*
X665650Y42350D02*
X671650D01*
X674093Y44793D01*
X678681D01*
X641043Y117143D02*
Y121319D01*
X639900Y116000D02*
X641043Y117143D01*
X637166Y116000D02*
X639900D01*
X625800Y127366D02*
X637166Y116000D01*
X625800Y127366D02*
Y163403D01*
X628800Y166403D01*
Y189200D01*
X624600Y193400D02*
X628800Y189200D01*
X624600Y236000D02*
X626700Y238100D01*
X715943Y308543D02*
X721681D01*
X702600Y276100D02*
Y295200D01*
X700200Y273700D02*
X702600Y276100D01*
X689043Y273700D02*
X700200D01*
X684143Y278600D02*
X689043Y273700D01*
X673700Y278600D02*
X684143D01*
X673500Y278400D02*
X673700Y278600D01*
X673500Y176100D02*
X674600Y175000D01*
X1055207Y82918D02*
X1056169Y83880D01*
X974200Y193157D02*
X976000Y194957D01*
X900000Y266500D02*
X920000D01*
X880000D02*
X900000D01*
X780000D02*
X783000D01*
X786500Y270000D01*
X706000Y300300D02*
X707700D01*
X715943Y308543D01*
X783000Y266500D02*
X800000D01*
X820000D01*
X840000D01*
X860000D02*
X880000D01*
X840000D02*
X860000D01*
X474609Y340600D02*
X489300D01*
X474600Y340591D02*
X474609Y340600D01*
X460000Y340591D02*
X474600D01*
X410000Y308583D02*
Y331417D01*
X413091Y340591D02*
X460000D01*
X410000Y337500D02*
X413091Y340591D01*
X410000Y331417D02*
Y337500D01*
Y370000D01*
X726800Y252800D02*
X736600Y262600D01*
X726800Y217900D02*
Y252800D01*
X724700Y215800D02*
X726800Y217900D01*
X718600Y215800D02*
X724700D01*
X693900Y191100D02*
X718600Y215800D01*
X693900Y172400D02*
Y191100D01*
X686500Y165000D02*
X693900Y172400D01*
X679104Y165000D02*
X686500D01*
X1020896Y335000D02*
Y345000D01*
Y325000D02*
Y335000D01*
X1047000Y345000D02*
X1051604D01*
X1047000D02*
Y349200D01*
X1041900Y354300D02*
X1047000Y349200D01*
X1022100Y345000D02*
X1031400Y354300D01*
X1020896Y345000D02*
X1022100D01*
X1051604Y335000D02*
Y345000D01*
X1019700Y81600D02*
Y131700D01*
X1032100Y144100D01*
X1020896Y325000D02*
X1024600D01*
X648396Y155000D02*
X679104D01*
Y165000D01*
X546500Y173500D02*
X560000D01*
X535700Y162700D02*
X546500Y173500D01*
X535700Y148000D02*
Y162700D01*
X528200Y140500D02*
X535700Y148000D01*
X523500Y140500D02*
X528200D01*
X500000Y149429D02*
Y153000D01*
X501000Y154000D01*
X509000D01*
X519500Y143500D01*
X520500D01*
X523500Y140500D01*
X493000Y290000D02*
X504429D01*
X490900Y287900D02*
X493000Y290000D01*
X490900Y284100D02*
Y287900D01*
Y284100D02*
X497000Y278000D01*
X513500D01*
X523500Y288000D01*
Y305400D01*
X550000Y331000D02*
Y370000D01*
X401200Y475500D02*
X425200D01*
X401200Y451000D02*
Y475500D01*
X380000Y326500D02*
X382800D01*
X401200Y451000D02*
X425200D01*
X42300Y310400D02*
Y320400D01*
Y280400D02*
Y290400D01*
Y300400D02*
Y310400D01*
Y290400D02*
Y300400D01*
Y360400D02*
Y370400D01*
Y320400D02*
Y330400D01*
Y340400D01*
Y350400D02*
Y360400D01*
Y340400D02*
Y350400D01*
X352500Y270000D02*
Y280000D01*
X401200Y428800D02*
Y451000D01*
X371700Y192000D02*
Y290800D01*
X328858Y325118D02*
X338681D01*
X323320Y319581D02*
X328858Y325118D01*
X323081Y319581D02*
X323320D01*
X320000Y316500D02*
X323081Y319581D01*
X310900Y316500D02*
X320000D01*
X310800Y316400D02*
X310900Y316500D01*
X301700Y316400D02*
X310800D01*
X354300Y120000D02*
Y130000D01*
X470000Y65700D02*
Y70000D01*
X467900Y63600D02*
X470000Y65700D01*
X408900Y63600D02*
X467900D01*
X404600Y67900D02*
X408900Y63600D01*
X404600Y67900D02*
Y75300D01*
X400000Y79900D02*
X404600Y75300D01*
X394400Y79900D02*
X400000D01*
X354300Y120000D02*
X394400Y79900D01*
X377300Y180800D02*
X380100Y183600D01*
X377000Y180800D02*
X377300D01*
X376000Y179800D02*
X377000Y180800D01*
X376000Y167500D02*
Y179800D01*
X371282Y163500D02*
X380000D01*
X369900Y164882D02*
X371282Y163500D01*
X361319Y164882D02*
X369900D01*
X944000Y190636D02*
Y197600D01*
Y190636D02*
X947356Y187280D01*
X957681D01*
X953500Y189839D02*
X957681D01*
X953261Y189600D02*
X953500Y189839D01*
X948900Y189600D02*
X953261D01*
X947500Y191000D02*
X948900Y189600D01*
X947500Y191000D02*
Y221500D01*
X950902Y192398D02*
X957681D01*
X950500Y192800D02*
X950902Y192398D01*
X950400Y257700D02*
X951057Y257043D01*
X957681D01*
X950500Y270600D02*
X953820Y267280D01*
X957681D01*
Y277516D02*
X957700D01*
X951800Y295594D02*
X957700Y289694D01*
X951800Y295594D02*
Y301500D01*
X935300Y318000D02*
X951800Y301500D01*
X935300Y318000D02*
Y331500D01*
X1037293Y421319D02*
Y432393D01*
X1044800Y439900D01*
X720000Y2800D02*
X747800Y30600D01*
X613500Y2800D02*
X720000D01*
X608200Y8100D02*
X613500Y2800D01*
X608200Y8100D02*
Y422900D01*
X677100Y491800D01*
X1021600D01*
X1038800Y474600D01*
Y452800D02*
Y474600D01*
Y452800D02*
X1047900Y443700D01*
Y437000D02*
Y443700D01*
X1039852Y428952D02*
X1047900Y437000D01*
X1039852Y421319D02*
Y428952D01*
X1042411Y416211D02*
Y421319D01*
X1040400Y414200D02*
X1042411Y416211D01*
X891300Y75900D02*
Y112000D01*
X886200Y70800D02*
X891300Y75900D01*
X796000Y70800D02*
X886200D01*
X791400Y66200D02*
X796000Y70800D01*
X791400Y36500D02*
Y66200D01*
Y36500D02*
X799000Y28900D01*
Y25200D02*
Y28900D01*
X797700Y23900D02*
X799000Y25200D01*
X794300Y23900D02*
X797700D01*
X793800Y24400D02*
X794300Y23900D01*
X772000Y24400D02*
X793800D01*
X770000Y26400D02*
X772000Y24400D01*
X1050089Y415977D02*
Y421319D01*
X1043481Y409369D02*
X1050089Y415977D01*
X1033547Y409369D02*
X1043481D01*
X957600Y333423D02*
X1033547Y409369D01*
X957600Y301600D02*
Y333423D01*
X914000Y250000D02*
X921000Y257000D01*
X914000Y102500D02*
Y250000D01*
X911000Y99500D02*
X914000Y102500D01*
X911000Y46000D02*
Y99500D01*
X907958Y42958D02*
X911000Y46000D01*
X857058Y42958D02*
X907958D01*
X846000Y31900D02*
X857058Y42958D01*
X1037293Y97893D02*
Y101319D01*
X1036000Y96600D02*
X1037293Y97893D01*
X1031500Y96600D02*
X1036000D01*
X1028000Y100100D02*
X1031500Y96600D01*
X1028000Y100100D02*
Y128400D01*
X1034100Y134500D01*
X930100Y133900D02*
X933300Y130700D01*
X930100Y133900D02*
Y208500D01*
X924000Y214600D02*
X930100Y208500D01*
X924000Y214600D02*
Y259000D01*
X922000Y261000D02*
X924000Y259000D01*
X914000Y261000D02*
X922000D01*
X744319Y321339D02*
X751500D01*
X744319Y238957D02*
X751693D01*
X758200Y232450D01*
Y214000D02*
Y232450D01*
X754000Y209800D02*
X758200Y214000D01*
X754000Y112200D02*
Y209800D01*
Y112200D02*
X754600Y111600D01*
Y91600D02*
Y111600D01*
X837100Y89500D02*
Y210800D01*
X735200Y236100D02*
X735498Y236398D01*
X744319D01*
X658957Y107500D02*
X664000Y112543D01*
X658957Y98681D02*
Y107500D01*
X653839Y92000D02*
X656739Y89100D01*
X653839Y92000D02*
Y98681D01*
X651280D02*
Y109920D01*
X647000Y114200D02*
X651280Y109920D01*
X648720Y95000D02*
Y98681D01*
X642220Y88500D02*
X648720Y95000D01*
X634570Y88500D02*
X642220D01*
X616700Y106370D02*
X634570Y88500D01*
X616700Y106370D02*
Y167000D01*
X625700Y176000D01*
X643602Y98681D02*
Y103798D01*
X638000Y109400D02*
X643602Y103798D01*
X632379Y109400D02*
X638000D01*
X636600Y105500D02*
X638484Y103616D01*
Y98681D02*
Y103616D01*
X660957Y389643D02*
Y398681D01*
Y389643D02*
X662400Y388200D01*
Y320900D02*
Y388200D01*
X652000Y310500D02*
X662400Y320900D01*
X644000Y310500D02*
X652000D01*
X640000Y306500D02*
X644000Y310500D01*
X640000Y294000D02*
Y306500D01*
Y294000D02*
X644000Y290000D01*
X652900D01*
X654900Y288000D01*
Y282000D02*
Y288000D01*
X653600Y280700D02*
X654900Y282000D01*
X634257Y280700D02*
X653600D01*
X626600Y273043D02*
X634257Y280700D01*
X626600Y254837D02*
Y273043D01*
Y254837D02*
X629800Y251637D01*
Y231100D02*
Y251637D01*
X627700Y229000D02*
X629800Y231100D01*
X658398Y387202D02*
Y398681D01*
Y387202D02*
X660600Y385000D01*
Y337500D02*
Y385000D01*
X656900Y333800D02*
X660600Y337500D01*
X698000Y265000D02*
X710000Y277000D01*
Y289988D01*
X653280Y387720D02*
X657600Y383400D01*
X653280Y387720D02*
Y398681D01*
X650720D02*
Y411759D01*
X650100Y412380D02*
X650720Y411759D01*
X627296Y378027D02*
Y405700D01*
Y378027D02*
X631000Y374323D01*
Y289800D02*
Y374323D01*
Y289800D02*
X631800Y289000D01*
X645602Y394400D02*
X649602Y390400D01*
X645602Y394400D02*
Y398681D01*
X806043Y161319D02*
Y217535D01*
X764409Y259170D02*
X806043Y217535D01*
X764409Y259170D02*
Y269091D01*
X811161Y161319D02*
Y220840D01*
X769504Y262497D02*
X811161Y220840D01*
X769504Y262497D02*
Y284677D01*
X767900Y286282D02*
X769504Y284677D01*
X767900Y286282D02*
Y300400D01*
X764900Y303400D02*
X767900Y300400D01*
X764900Y303400D02*
Y328100D01*
X760600Y332400D02*
X764900Y328100D01*
X736948Y332400D02*
X760600D01*
X610100Y320800D02*
X626200Y336900D01*
X610100Y10900D02*
Y320800D01*
Y10900D02*
X616100Y4900D01*
X709900D01*
X734000Y29000D01*
Y49100D01*
X739900Y55000D01*
X760400D01*
X778500Y73100D01*
Y98000D01*
X800200Y119700D01*
X816280Y155820D02*
X823400Y148700D01*
X816280Y155820D02*
Y161319D01*
X656300Y250500D02*
X668300Y238500D01*
Y176000D02*
Y238500D01*
Y176000D02*
X672900Y171400D01*
X684600D01*
Y178600D01*
X686400Y180400D01*
X818839Y161319D02*
Y185800D01*
X892500Y246800D02*
X893720Y245580D01*
Y161319D02*
Y245580D01*
X896280Y245080D02*
X902100Y250900D01*
X896280Y161319D02*
Y245080D01*
X629700Y257700D02*
X631200Y259200D01*
Y271000D01*
X883000Y252500D02*
X884400Y253900D01*
X904200D01*
X905200Y252900D01*
Y242500D02*
Y252900D01*
X898300Y235600D02*
X905200Y242500D01*
X898300Y197939D02*
Y235600D01*
Y197939D02*
X898839Y197400D01*
Y161319D02*
Y197400D01*
X906516Y161319D02*
Y207400D01*
X715700Y199151D02*
X719849D01*
X726800Y192200D01*
Y164100D02*
Y192200D01*
X717451Y154751D02*
X726800Y164100D01*
X717451Y87421D02*
Y154751D01*
X696600Y66570D02*
X717451Y87421D01*
X696600Y61700D02*
Y66570D01*
Y61700D02*
X698152Y60148D01*
X701319D01*
X622700Y185100D02*
X625500Y182300D01*
X622700Y185100D02*
Y241700D01*
X620700Y243700D02*
X622700Y241700D01*
X616000Y243700D02*
X620700D01*
X612000Y239700D02*
X616000Y243700D01*
X612000Y70900D02*
Y239700D01*
Y70900D02*
X625300Y57600D01*
X707330Y52470D02*
X708400Y51400D01*
X701319Y52470D02*
X707330D01*
X701319Y42234D02*
X709834D01*
X724700Y57100D01*
X749853D01*
X761300Y68547D01*
Y97700D01*
X759000Y100000D02*
X761300Y97700D01*
X759000Y100000D02*
Y143600D01*
X677700Y101000D02*
Y137600D01*
X669000Y146300D02*
X677700Y137600D01*
X641500Y146300D02*
X669000D01*
X1084200Y396800D02*
X1092000D01*
X1094300Y394500D01*
Y367387D02*
Y394500D01*
X1094200Y367287D02*
X1094300Y367387D01*
X1094200Y150600D02*
Y367287D01*
X1091700Y148100D02*
X1094200Y150600D01*
X1091700Y76200D02*
Y148100D01*
Y76200D02*
X1095500Y72400D01*
Y59200D02*
Y72400D01*
X1086600Y50300D02*
X1095500Y59200D01*
X1017720Y50300D02*
X1086600D01*
X1015550Y52470D02*
X1017720Y50300D01*
X1011319Y52470D02*
X1015550D01*
X1007589Y49911D02*
X1011319D01*
X1006500Y51000D02*
X1007589Y49911D01*
X1006500Y51000D02*
Y58500D01*
X1004200Y60800D02*
X1006500Y58500D01*
X1077400Y90000D02*
Y100000D01*
X1074900Y102500D02*
X1077400Y100000D01*
X1074900Y102500D02*
Y379600D01*
X1071500Y383000D02*
X1074900Y379600D01*
X1071500Y383000D02*
Y401800D01*
X1068100Y405200D02*
X1071500Y401800D01*
X792000Y468300D02*
Y487000D01*
X1073000D02*
X1097900Y462100D01*
Y52900D02*
Y462100D01*
X1092352Y47352D02*
X1097900Y52900D01*
X1011319Y47352D02*
X1092352D01*
X1008000Y42234D02*
X1011319D01*
X1004700Y45534D02*
X1008000Y42234D01*
X1004700Y45534D02*
Y52300D01*
X1001100Y55900D02*
X1004700Y52300D01*
X1001100Y55900D02*
Y69800D01*
X1004500Y73200D01*
X1017900D01*
X1026500Y64600D01*
X1076700D01*
X1080600Y68500D01*
Y149900D01*
X1077100Y153400D02*
X1080600Y149900D01*
X1077100Y153400D02*
Y165600D01*
X1077900Y166400D01*
Y379700D01*
X1074000Y383600D02*
X1077900Y379700D01*
X1074000Y383600D02*
Y463100D01*
X1045100Y492000D02*
X1074000Y463100D01*
X938398Y323100D02*
Y338681D01*
X871400Y351000D02*
X899300Y323100D01*
X871400Y351000D02*
Y427400D01*
X879500Y435500D01*
X902000D01*
X903100Y436600D01*
Y444599D01*
X901531Y446167D02*
X903100Y444599D01*
X901531Y446167D02*
Y459269D01*
X898100Y462700D02*
X901531Y459269D01*
X862600Y462700D02*
X898100D01*
X857000Y468300D02*
X862600Y462700D01*
X924400Y467500D02*
X947600D01*
X950400Y464700D01*
Y383500D02*
Y464700D01*
X950000Y383100D02*
X950400Y383500D01*
X956200Y356400D02*
Y383100D01*
X949200Y349400D02*
X956200Y356400D01*
X936017Y349400D02*
X949200D01*
X933280Y346663D02*
X936017Y349400D01*
X933280Y338681D02*
Y346663D01*
X964136Y471436D02*
X976000D01*
X952600Y459900D02*
X964136Y471436D01*
X952600Y386509D02*
Y459900D01*
Y386509D02*
X953000Y386109D01*
Y355939D02*
Y386109D01*
X949425Y352363D02*
X953000Y355939D01*
X936000Y352363D02*
X949425D01*
X930720Y347084D02*
X936000Y352363D01*
X930720Y338681D02*
Y347084D01*
X978600Y458500D02*
Y459900D01*
X965500Y445400D02*
X978600Y458500D01*
X965500Y361100D02*
Y445400D01*
X962900Y358500D02*
X965500Y361100D01*
X928161Y338681D02*
Y348861D01*
X925602Y329905D02*
Y338681D01*
X925500Y329802D02*
X925602Y329905D01*
X917281Y338681D02*
X920484D01*
X915500Y336900D02*
X917281Y338681D01*
X774000Y461600D02*
Y468200D01*
X769731Y457331D02*
X774000Y461600D01*
X769731Y412510D02*
Y457331D01*
X847500Y351800D02*
X848000D01*
X853957Y345843D01*
Y338681D02*
Y345843D01*
X760000Y373500D02*
Y444700D01*
Y373500D02*
X768800Y364700D01*
Y314210D02*
Y364700D01*
Y314210D02*
X780617Y302393D01*
X823231D01*
X848839Y328000D01*
Y338681D01*
X838602Y334000D02*
Y338681D01*
Y334000D02*
X839100Y333502D01*
Y330000D02*
Y333502D01*
X836900Y327800D02*
X839100Y330000D01*
X818197Y327800D02*
X836900D01*
X783100Y362897D02*
X818197Y327800D01*
X783100Y362897D02*
Y408600D01*
X911500Y407200D02*
X914000Y404700D01*
X911500Y407200D02*
Y427300D01*
X921300Y437100D01*
Y469932D01*
X928168Y476800D01*
X979600D01*
X980300Y476100D01*
Y463507D02*
Y476100D01*
Y463507D02*
X983718Y460089D01*
X988681D01*
X878000Y404900D02*
X881400Y408300D01*
Y427900D01*
X885700Y432200D01*
X905000D01*
X910100Y437300D01*
Y466100D01*
X923100Y479100D01*
X980000D01*
X982200Y476900D01*
Y464448D02*
Y476900D01*
Y464448D02*
X984000Y462648D01*
X988681D01*
X884600Y412900D02*
X886900Y415200D01*
X898200D01*
X899700Y413700D01*
Y409117D02*
Y413700D01*
X890000Y399417D02*
X899700Y409117D01*
X890000Y388700D02*
Y399417D01*
X674000Y435200D02*
X679000Y430200D01*
X674000Y435200D02*
Y448852D01*
X675000Y449852D01*
X678681D01*
X674570Y454970D02*
X678681D01*
X671500Y451900D02*
X674570Y454970D01*
X801400Y446100D02*
Y473821D01*
Y446100D02*
X803900Y443600D01*
X856900D01*
X861300Y448000D01*
Y456200D01*
X864100Y459000D01*
X895700D01*
X899700Y455000D01*
Y439131D02*
Y455000D01*
Y439131D02*
X900000Y438831D01*
X1011319Y444734D02*
X1016800D01*
X1020334Y441200D01*
X988900Y399300D02*
X1026900Y437300D01*
X988900Y383600D02*
Y399300D01*
X1033300Y395000D02*
X1034734D01*
X980319Y254484D02*
X992614D01*
X1015598Y231500D01*
X1026400D01*
Y309100D01*
X1024100Y311400D02*
X1026400Y309100D01*
X1016100Y311400D02*
X1024100D01*
X1013600Y313900D02*
X1016100Y311400D01*
X1013600Y371700D02*
X1034734Y392834D01*
X900000Y273500D02*
X920000D01*
X880000D02*
X900000D01*
X856516Y361319D02*
X858000D01*
X860000Y359319D01*
Y273500D02*
X880000D01*
X840000D02*
X860000D01*
X820000D02*
X840000D01*
X780000D02*
X800000D01*
X820000D01*
X666878Y115543D02*
X669300Y113121D01*
X665072Y115543D02*
X666878D01*
X661516Y119100D02*
X665072Y115543D01*
X661516Y119100D02*
Y121319D01*
X988681Y65266D02*
X992000D01*
X1005134Y78400D01*
X1034734D02*
Y78681D01*
X803484Y138600D02*
Y138681D01*
X669300Y67966D02*
X672000Y65266D01*
X678681D01*
X725384Y329016D02*
X725600Y329232D01*
X718400Y444734D02*
X725600Y437534D01*
X701319Y444734D02*
X718400D01*
X721681Y329016D02*
X725384D01*
X726400Y328000D01*
Y272600D02*
Y328000D01*
X721600Y267800D02*
X726400Y272600D01*
X721600Y241516D02*
X721681D01*
X985000Y65266D02*
X988681D01*
X985000D02*
Y165198D01*
X986500Y166698D01*
Y171984D01*
X984000Y174484D02*
X986500Y171984D01*
X980319Y174484D02*
X984000D01*
X980300D02*
X980319D01*
X977653Y141800D02*
X980300Y144447D01*
X972000Y141800D02*
X977653D01*
X970800Y143000D02*
X972000Y141800D01*
X970800Y143000D02*
Y194500D01*
X976300Y200000D01*
Y254484D01*
X980319D01*
X863800Y163684D02*
X883484Y144000D01*
Y138681D02*
Y144000D01*
X667400Y69866D02*
Y77800D01*
X430091Y100000D02*
X489800D01*
X430091Y84991D02*
Y100000D01*
X430000Y84900D02*
X430091Y84991D01*
X430000Y70000D02*
Y84900D01*
X478709Y190600D02*
X497600D01*
X478700Y190591D02*
X478709Y190600D01*
X460000Y190591D02*
X478700D01*
X460000Y186100D02*
Y190591D01*
X414683Y186100D02*
X460000D01*
X410000Y181417D02*
X414683Y186100D01*
X410000Y120091D02*
Y158583D01*
Y120091D02*
X430091Y100000D01*
X410000Y158583D02*
Y181417D01*
X354300Y166200D02*
X355541Y167441D01*
X361319D01*
X501200Y451000D02*
Y475500D01*
X550000Y305400D02*
X553600D01*
X501200Y481100D02*
X503000Y482900D01*
X501200Y475500D02*
Y481100D01*
X503740Y140571D02*
X511329D01*
X517300Y134600D01*
X554100D01*
X560000Y140500D01*
X347300Y109500D02*
Y120000D01*
Y109500D02*
X354600Y102200D01*
Y63500D02*
Y102200D01*
Y63500D02*
X360000Y58100D01*
X500000D01*
X505000Y63100D01*
Y72000D01*
X509400Y76400D01*
Y134911D01*
X503740Y140571D02*
X509400Y134911D01*
X345500Y270000D02*
Y280000D01*
X342200Y130000D02*
X347300D01*
X314100Y158100D02*
X342200Y130000D01*
X314100Y158100D02*
Y238600D01*
X345500Y270000D01*
X347300Y130000D02*
Y147100D01*
X343400Y151000D02*
X347300Y147100D01*
X343400Y151000D02*
Y164582D01*
X343100Y164882D02*
X343400Y164582D01*
X338681Y164882D02*
X343100D01*
X347300Y120000D02*
Y130000D01*
X636600Y91600D02*
X638800D01*
X672400Y80700D02*
X691000Y62100D01*
Y49793D02*
Y62100D01*
X696000Y44793D02*
X701319D01*
X352700Y475500D02*
Y490700D01*
X354700Y492700D01*
X668893Y458800D02*
X675300Y465207D01*
X678681D01*
X1055207Y414335D02*
Y421319D01*
X1048440Y407569D02*
X1055207Y414335D01*
X1035869Y407569D02*
X1048440D01*
X978900Y350600D02*
X1035869Y407569D01*
X978900Y331400D02*
Y350600D01*
X976800Y329300D02*
X978900Y331400D01*
X836043Y331200D02*
Y338681D01*
X691100Y49693D02*
Y63300D01*
X690000Y64400D02*
X691100Y63300D01*
X690000Y64400D02*
Y163800D01*
X706000Y179800D01*
Y198300D01*
X719900Y212200D01*
X750957Y221043D02*
X751500Y220500D01*
X744319Y221043D02*
X750957D01*
X744319Y308543D02*
X748857D01*
X751400Y306000D01*
Y303800D02*
Y306000D01*
X903957Y161319D02*
Y198600D01*
X904500Y199143D01*
Y203116D01*
X903400Y204216D02*
X904500Y203116D01*
X903400Y204216D02*
Y231400D01*
X641043Y93843D02*
Y98681D01*
X638800Y91600D02*
X641043Y93843D01*
X380400Y170000D02*
Y176300D01*
X380100Y176600D02*
X380400Y176300D01*
X361319Y159181D02*
Y162323D01*
Y159181D02*
X364000Y156500D01*
X380000D01*
X352700Y451000D02*
Y475500D01*
Y424600D02*
Y451000D01*
X320000Y323500D02*
X324177Y327677D01*
X310900Y323500D02*
X320000D01*
X310800Y323400D02*
X310900Y323500D01*
X301700Y323400D02*
X310800D01*
X515700Y173500D02*
X523500D01*
X512200Y170000D02*
X515700Y173500D01*
X504429Y170000D02*
X512200D01*
X473700Y451000D02*
Y475500D01*
X500000Y324429D02*
Y335500D01*
X523500Y331000D02*
X526500D01*
X527500Y330000D01*
Y177500D02*
Y330000D01*
X523500Y173500D02*
X527500Y177500D01*
X982200Y168400D02*
X983400Y169600D01*
X982200Y98788D02*
Y168400D01*
X945000Y61588D02*
X982200Y98788D01*
X945000Y48396D02*
Y61588D01*
X935000Y233600D02*
X936500Y235100D01*
X935000Y141800D02*
Y233600D01*
Y141800D02*
X938100Y138700D01*
Y125100D02*
Y138700D01*
X935000Y122000D02*
X938100Y125100D01*
X935000Y79104D02*
Y122000D01*
X917000Y217847D02*
Y247900D01*
Y217847D02*
X928200Y206647D01*
Y128931D02*
Y206647D01*
Y128931D02*
X928500Y128631D01*
Y66500D02*
Y128631D01*
X915000Y53000D02*
X928500Y66500D01*
X915000Y48396D02*
Y53000D01*
X777600Y316400D02*
X781800Y312200D01*
X777600Y316400D02*
Y368300D01*
X775900Y370000D02*
X777600Y368300D01*
X771531Y415969D02*
X774700Y412800D01*
X771531Y415969D02*
Y435731D01*
X775000Y439200D01*
Y451604D01*
X984057Y305243D02*
X994300Y295000D01*
X984057Y305243D02*
Y327100D01*
X785000Y366800D02*
X811900Y339900D01*
X785000Y366800D02*
Y420896D01*
X0Y0D02*
Y500000D01*
X1100000D01*
Y0D02*
Y500000D01*
X0Y0D02*
X1100000D01*
D23*
X460000Y299409D02*
D03*
Y149409D02*
D03*
D24*
Y340591D02*
D03*
Y190591D02*
D03*
X388909Y240000D02*
D03*
Y100000D02*
D03*
D25*
X430091Y240000D02*
D03*
Y100000D02*
D03*
D26*
X190000Y25000D02*
D03*
D27*
X210000D02*
D03*
D28*
X20000Y20000D02*
D03*
Y480000D02*
D03*
D29*
X42300Y214800D02*
D03*
Y204800D02*
D03*
Y194800D02*
D03*
Y184800D02*
D03*
Y174800D02*
D03*
Y164800D02*
D03*
Y154800D02*
D03*
Y144800D02*
D03*
Y134800D02*
D03*
Y124800D02*
D03*
Y114800D02*
D03*
Y104800D02*
D03*
Y94800D02*
D03*
Y84800D02*
D03*
Y74800D02*
D03*
Y64800D02*
D03*
Y54800D02*
D03*
Y44800D02*
D03*
Y34800D02*
D03*
X62300Y25300D02*
D03*
Y35300D02*
D03*
Y45300D02*
D03*
Y55300D02*
D03*
Y65300D02*
D03*
Y75300D02*
D03*
Y85300D02*
D03*
Y95300D02*
D03*
Y105300D02*
D03*
Y115300D02*
D03*
Y125300D02*
D03*
Y135300D02*
D03*
Y145300D02*
D03*
Y155300D02*
D03*
Y165300D02*
D03*
Y175300D02*
D03*
Y185300D02*
D03*
Y195300D02*
D03*
Y205300D02*
D03*
Y470400D02*
D03*
Y460400D02*
D03*
Y450400D02*
D03*
Y440400D02*
D03*
Y430400D02*
D03*
Y420400D02*
D03*
Y410400D02*
D03*
Y400400D02*
D03*
Y390400D02*
D03*
Y380400D02*
D03*
Y370400D02*
D03*
Y360400D02*
D03*
Y350400D02*
D03*
Y340400D02*
D03*
Y330400D02*
D03*
Y320400D02*
D03*
Y310400D02*
D03*
Y300400D02*
D03*
Y290400D02*
D03*
X42300Y470400D02*
D03*
Y460400D02*
D03*
Y450400D02*
D03*
Y440400D02*
D03*
Y430400D02*
D03*
Y420400D02*
D03*
Y410400D02*
D03*
Y400400D02*
D03*
Y390400D02*
D03*
Y380400D02*
D03*
Y370400D02*
D03*
Y360400D02*
D03*
Y350400D02*
D03*
Y340400D02*
D03*
Y330400D02*
D03*
Y320400D02*
D03*
Y310400D02*
D03*
Y300400D02*
D03*
Y290400D02*
D03*
X360000Y370000D02*
D03*
X380000D02*
D03*
X390000D02*
D03*
X400000D02*
D03*
X410000D02*
D03*
X420000D02*
D03*
X430000D02*
D03*
X440000D02*
D03*
X370000D02*
D03*
X360000Y70000D02*
D03*
X380000D02*
D03*
X390000D02*
D03*
X400000D02*
D03*
X410000D02*
D03*
X420000D02*
D03*
X430000D02*
D03*
X440000D02*
D03*
X370000D02*
D03*
X470000Y370000D02*
D03*
X490000D02*
D03*
X500000D02*
D03*
X510000D02*
D03*
X520000D02*
D03*
X530000D02*
D03*
X540000D02*
D03*
X550000D02*
D03*
X480000D02*
D03*
X470000Y70000D02*
D03*
X490000D02*
D03*
X500000D02*
D03*
X510000D02*
D03*
X520000D02*
D03*
X530000D02*
D03*
X540000D02*
D03*
X550000D02*
D03*
X480000D02*
D03*
D30*
X42300Y24800D02*
D03*
X62300Y215300D02*
D03*
Y280400D02*
D03*
X42300D02*
D03*
D31*
X350000Y370000D02*
D03*
Y70000D02*
D03*
X460000Y370000D02*
D03*
Y70000D02*
D03*
D32*
X449483Y475315D02*
D03*
Y457598D02*
D03*
X376983Y475315D02*
D03*
Y457598D02*
D03*
X525483Y475315D02*
D03*
Y457598D02*
D03*
D33*
X790100Y412900D02*
D03*
X782000Y409700D02*
D03*
X484100Y416800D02*
D03*
X538100Y357800D02*
D03*
X460100Y418800D02*
D03*
X397100Y355800D02*
D03*
X535400Y312400D02*
D03*
X515300Y292300D02*
D03*
X950400Y180200D02*
D03*
X943200Y184700D02*
D03*
X141900Y215900D02*
D03*
X118900Y223600D02*
D03*
X110200Y190000D02*
D03*
X143200Y195300D02*
D03*
X109200Y177400D02*
D03*
X90375Y180000D02*
D03*
X114500Y172200D02*
D03*
X152500Y440400D02*
D03*
X185000Y183500D02*
D03*
X85800Y342600D02*
D03*
X111500Y405400D02*
D03*
X157500Y250000D02*
D03*
X146600Y245900D02*
D03*
X112100Y375700D02*
D03*
X235800Y190000D02*
D03*
X176200Y130400D02*
D03*
X164000Y172400D02*
D03*
Y126200D02*
D03*
X182300Y95300D02*
D03*
X257000Y170000D02*
D03*
X117200Y89600D02*
D03*
X309000Y145700D02*
D03*
X192300Y157800D02*
D03*
X142500Y95900D02*
D03*
X46800Y264500D02*
D03*
X361300Y252400D02*
D03*
Y240000D02*
D03*
X77400Y300300D02*
D03*
X61800Y270200D02*
D03*
X114200Y290000D02*
D03*
X665000Y405900D02*
D03*
X676600Y384000D02*
D03*
X744500Y296507D02*
D03*
X763900Y297500D02*
D03*
X774500Y323000D02*
D03*
X761600D02*
D03*
X723700Y148900D02*
D03*
X662000Y105900D02*
D03*
X706300Y336500D02*
D03*
X759500Y300900D02*
D03*
X965900Y150100D02*
D03*
X117200Y280000D02*
D03*
X307100Y225800D02*
D03*
X354300Y174400D02*
D03*
X332500Y308182D02*
D03*
X361700Y264200D02*
D03*
X258400Y259000D02*
D03*
X359700Y234500D02*
D03*
X312000Y296500D02*
D03*
X661282Y413561D02*
D03*
X627775Y415380D02*
D03*
X700400Y21300D02*
D03*
X773500D02*
D03*
X670500Y60984D02*
D03*
X883983Y59417D02*
D03*
X683900Y11400D02*
D03*
X811946Y9400D02*
D03*
X952200Y27000D02*
D03*
X806400Y26900D02*
D03*
X815400Y482700D02*
D03*
X1024700Y461389D02*
D03*
X819000Y471000D02*
D03*
X998774Y452411D02*
D03*
X1004600Y471700D02*
D03*
X1007200Y435600D02*
D03*
X996900Y413000D02*
D03*
X867000Y443600D02*
D03*
X798000Y412800D02*
D03*
X739700Y426600D02*
D03*
X713118Y451082D02*
D03*
X879000Y441700D02*
D03*
X915000Y436300D02*
D03*
X716300Y424700D02*
D03*
X697300Y438000D02*
D03*
X925000Y439397D02*
D03*
X330000Y170300D02*
D03*
X442540Y173740D02*
D03*
X912500Y358200D02*
D03*
X1055207Y387500D02*
D03*
X836043Y352157D02*
D03*
X1004200Y466200D02*
D03*
X987600Y437800D02*
D03*
X980900Y386736D02*
D03*
X618900Y240000D02*
D03*
X954700Y145100D02*
D03*
X975800Y346000D02*
D03*
X1037500Y251000D02*
D03*
X683000Y85000D02*
D03*
X736600Y262600D02*
D03*
X297700Y360000D02*
D03*
X146500Y78300D02*
D03*
X373400Y170100D02*
D03*
X344300Y136500D02*
D03*
X967600Y268700D02*
D03*
X965600Y258700D02*
D03*
X943563Y292300D02*
D03*
X939882Y286618D02*
D03*
X964600Y282400D02*
D03*
X932450Y309650D02*
D03*
X1091988Y68888D02*
D03*
X1090600Y393100D02*
D03*
X1047400Y428500D02*
D03*
X1086200Y58600D02*
D03*
X1087700Y374000D02*
D03*
X1032600Y412500D02*
D03*
X1094700Y98000D02*
D03*
X816600Y31800D02*
D03*
X835600Y62500D02*
D03*
X1083800Y159900D02*
D03*
X1084700Y385700D02*
D03*
X1067400Y411300D02*
D03*
X1041400Y108400D02*
D03*
X1038800Y93100D02*
D03*
X931500Y86800D02*
D03*
X855900Y31800D02*
D03*
X1037570Y112400D02*
D03*
X1033100Y108600D02*
D03*
X1045049Y93655D02*
D03*
X1050648Y92800D02*
D03*
X1056000Y94200D02*
D03*
X900000Y62400D02*
D03*
X912000Y254800D02*
D03*
X756500Y315300D02*
D03*
X931700Y96700D02*
D03*
X928300Y251600D02*
D03*
X734000Y300600D02*
D03*
X811500Y149000D02*
D03*
X817400Y149100D02*
D03*
X750700Y273700D02*
D03*
X739600Y280300D02*
D03*
X828100Y94500D02*
D03*
X773700Y294800D02*
D03*
X737100Y313661D02*
D03*
X803300Y148400D02*
D03*
X728000Y88300D02*
D03*
X731800Y92600D02*
D03*
X742450Y67050D02*
D03*
X736200Y82300D02*
D03*
X726386Y79000D02*
D03*
X737200Y222400D02*
D03*
X733200Y202200D02*
D03*
X733000Y73100D02*
D03*
X741200Y73700D02*
D03*
X654400Y108200D02*
D03*
X619700Y146300D02*
D03*
X657100Y406300D02*
D03*
X688000Y285000D02*
D03*
X674600Y377200D02*
D03*
X647700Y405900D02*
D03*
X650400Y381300D02*
D03*
X766000Y280600D02*
D03*
X745100Y335500D02*
D03*
X826400Y154100D02*
D03*
X798600Y164500D02*
D03*
X758500Y295200D02*
D03*
X695400Y334000D02*
D03*
X674600Y370900D02*
D03*
X696700Y302400D02*
D03*
X697800Y278700D02*
D03*
X820100Y248900D02*
D03*
X871800Y261000D02*
D03*
X692900Y282000D02*
D03*
X697400Y291700D02*
D03*
X866800Y257500D02*
D03*
X879500Y243500D02*
D03*
X901400Y201600D02*
D03*
X657100Y221100D02*
D03*
Y239000D02*
D03*
X751700Y232600D02*
D03*
X694800Y88000D02*
D03*
X750200Y114700D02*
D03*
X723800Y189731D02*
D03*
X751600Y108600D02*
D03*
X1028800Y60800D02*
D03*
X1077900Y442500D02*
D03*
X1078900Y424422D02*
D03*
X1083000Y415000D02*
D03*
X966100Y458300D02*
D03*
X970247Y467325D02*
D03*
X816200Y363100D02*
D03*
X748500Y450400D02*
D03*
Y400361D02*
D03*
X808833Y375600D02*
D03*
X763000Y412900D02*
D03*
X785000Y436600D02*
D03*
X836200Y398500D02*
D03*
X845800Y378800D02*
D03*
X985100Y397732D02*
D03*
X821500Y406900D02*
D03*
X852000Y371200D02*
D03*
X967300Y353900D02*
D03*
X975100Y392100D02*
D03*
X825900Y381800D02*
D03*
X818500Y413000D02*
D03*
X969300Y397300D02*
D03*
X968800Y432300D02*
D03*
X955800Y401800D02*
D03*
X964800Y465800D02*
D03*
X992000Y475700D02*
D03*
X703000Y409200D02*
D03*
X879200Y385300D02*
D03*
X891000Y412200D02*
D03*
X896700Y410700D02*
D03*
X887600Y375600D02*
D03*
X819600Y370200D02*
D03*
X803800Y360800D02*
D03*
X706100Y368500D02*
D03*
X685900Y453700D02*
D03*
X878000Y395300D02*
D03*
X904900Y411000D02*
D03*
X685200Y374000D02*
D03*
X701700Y420800D02*
D03*
X918500Y391700D02*
D03*
X930000Y413000D02*
D03*
X689300Y459400D02*
D03*
X670300Y419600D02*
D03*
X677600Y359200D02*
D03*
X859900Y168500D02*
D03*
X712500Y242000D02*
D03*
X725600Y373200D02*
D03*
X1002400Y368500D02*
D03*
X944000D02*
D03*
X993800Y350000D02*
D03*
X860000Y344900D02*
D03*
X259200Y266400D02*
D03*
X1068200Y178200D02*
D03*
X1066600Y149687D02*
D03*
X942500Y136600D02*
D03*
X531900Y281100D02*
D03*
X506800D02*
D03*
X985900Y472700D02*
D03*
X1055207Y454600D02*
D03*
X1037900Y228400D02*
D03*
X1027300Y43500D02*
D03*
X1040200Y129300D02*
D03*
X354700Y492700D02*
D03*
X640400Y388200D02*
D03*
X823100Y230500D02*
D03*
X249700Y125200D02*
D03*
X356100Y155300D02*
D03*
X1013000Y198000D02*
D03*
X1012100Y101200D02*
D03*
X915000Y93600D02*
D03*
X690800Y185000D02*
D03*
X787000Y307700D02*
D03*
X925000Y201582D02*
D03*
X811609Y327500D02*
D03*
X655700Y189300D02*
D03*
X1037900Y188000D02*
D03*
X939300Y248200D02*
D03*
X904100Y326900D02*
D03*
X882400Y281100D02*
D03*
X730000Y292700D02*
D03*
X657100Y171500D02*
D03*
X1041700Y330700D02*
D03*
X977000Y283500D02*
D03*
X1029100Y147100D02*
D03*
X85800Y162000D02*
D03*
X78836Y155700D02*
D03*
X122000Y194900D02*
D03*
X70600Y340900D02*
D03*
X50500Y355900D02*
D03*
X80500Y320000D02*
D03*
X329100Y260500D02*
D03*
X184400Y363400D02*
D03*
X301000Y246300D02*
D03*
X151500Y270000D02*
D03*
X53700Y279900D02*
D03*
X73400Y136400D02*
D03*
X274900Y160000D02*
D03*
X190200Y75300D02*
D03*
X52300Y270800D02*
D03*
X72100Y330400D02*
D03*
Y306800D02*
D03*
X151900Y284600D02*
D03*
X110200Y300000D02*
D03*
X306400Y138000D02*
D03*
X309800Y303300D02*
D03*
X1032000Y127900D02*
D03*
X1007400Y70100D02*
D03*
X943516Y315000D02*
D03*
X856516Y324500D02*
D03*
X781006Y161494D02*
D03*
X759000Y329000D02*
D03*
X872600Y164900D02*
D03*
X786550Y170496D02*
D03*
X1042300Y319900D02*
D03*
X1051100Y359800D02*
D03*
X1043700Y280900D02*
D03*
X1070400Y278600D02*
D03*
Y341400D02*
D03*
X1042400Y374400D02*
D03*
X662900Y159000D02*
D03*
X654600Y113900D02*
D03*
X652500Y432000D02*
D03*
X630800Y425900D02*
D03*
X878000Y56300D02*
D03*
X686000Y55817D02*
D03*
X877000Y62500D02*
D03*
X666000Y64600D02*
D03*
X707000Y8000D02*
D03*
X841400Y7400D02*
D03*
X665600Y51800D02*
D03*
X857900Y56400D02*
D03*
X850500Y56300D02*
D03*
X669452Y46600D02*
D03*
X829000Y30900D02*
D03*
X994300Y32500D02*
D03*
X823000Y31700D02*
D03*
X979642Y60148D02*
D03*
X816500Y23800D02*
D03*
X998300Y50200D02*
D03*
X785000Y30600D02*
D03*
X990500Y16400D02*
D03*
X796000Y27100D02*
D03*
X974725Y19000D02*
D03*
X908400Y373100D02*
D03*
X915400Y376100D02*
D03*
X920850Y349950D02*
D03*
X897600Y379976D02*
D03*
X855000Y479700D02*
D03*
X1001100Y482100D02*
D03*
X895500Y467700D02*
D03*
X736300Y465100D02*
D03*
X692300Y435500D02*
D03*
X931000Y439300D02*
D03*
X941700Y439800D02*
D03*
X721600Y465800D02*
D03*
X404100Y340800D02*
D03*
X439500Y158600D02*
D03*
X1064200Y88500D02*
D03*
X964300Y24900D02*
D03*
X626700Y238100D02*
D03*
X974200Y144900D02*
D03*
X786500Y270000D02*
D03*
X706000Y300300D02*
D03*
X1041900Y354300D02*
D03*
X1031400D02*
D03*
X1019700Y81600D02*
D03*
X470000Y290000D02*
D03*
X146500Y150000D02*
D03*
X371700Y290800D02*
D03*
X944000Y197600D02*
D03*
X947500Y221500D02*
D03*
X950500Y192800D02*
D03*
X950400Y257700D02*
D03*
X950500Y270600D02*
D03*
X935300Y331500D02*
D03*
X1044800Y439900D02*
D03*
X747800Y30600D02*
D03*
X1040400Y414200D02*
D03*
X891300Y112000D02*
D03*
X770000Y26400D02*
D03*
X957600Y301600D02*
D03*
X921000Y257000D02*
D03*
X846000Y31900D02*
D03*
X1034100Y134500D02*
D03*
X933300Y130700D02*
D03*
X914000Y261000D02*
D03*
X751500Y321339D02*
D03*
X754600Y91600D02*
D03*
X837100Y89500D02*
D03*
Y210800D02*
D03*
X735200Y236100D02*
D03*
X664000Y112543D02*
D03*
X656739Y89100D02*
D03*
X647000Y114200D02*
D03*
X625700Y176000D02*
D03*
X632379Y109400D02*
D03*
X636600Y105500D02*
D03*
X627700Y229000D02*
D03*
X656900Y333800D02*
D03*
X698000Y265000D02*
D03*
X710000Y289988D02*
D03*
X657600Y383400D02*
D03*
X650100Y412380D02*
D03*
X627296Y405700D02*
D03*
X631800Y289000D02*
D03*
X649602Y390400D02*
D03*
X764409Y269091D02*
D03*
X736948Y332400D02*
D03*
X626200Y336900D02*
D03*
X800200Y119700D02*
D03*
X823400Y148700D02*
D03*
X656300Y250500D02*
D03*
X686400Y180400D02*
D03*
X818839Y185800D02*
D03*
X892500Y246800D02*
D03*
X902100Y250900D02*
D03*
X629700Y257700D02*
D03*
X631200Y271000D02*
D03*
X883000Y252500D02*
D03*
X906516Y207400D02*
D03*
X715700Y199151D02*
D03*
X625500Y182300D02*
D03*
X625300Y57600D02*
D03*
X708400Y51400D02*
D03*
X759000Y143600D02*
D03*
X677700Y101000D02*
D03*
X641500Y146300D02*
D03*
X1084200Y396800D02*
D03*
X1004200Y60800D02*
D03*
X1077400Y90000D02*
D03*
X1068100Y405200D02*
D03*
X792000Y468300D02*
D03*
Y487000D02*
D03*
X1073000D02*
D03*
X1045100Y492000D02*
D03*
X938398Y323100D02*
D03*
X899300D02*
D03*
X857000Y468300D02*
D03*
X924400Y467500D02*
D03*
X950000Y383100D02*
D03*
X956200D02*
D03*
X976000Y471436D02*
D03*
X978600Y459900D02*
D03*
X962900Y358500D02*
D03*
X928161Y348861D02*
D03*
X925500Y329802D02*
D03*
X915500Y336900D02*
D03*
X774000Y468200D02*
D03*
X772500Y374200D02*
D03*
X847500Y351800D02*
D03*
X760000Y444700D02*
D03*
X914000Y404700D02*
D03*
X878000Y404900D02*
D03*
X884600Y412900D02*
D03*
X890000Y388700D02*
D03*
X679000Y430200D02*
D03*
X671500Y451900D02*
D03*
X801400Y473821D02*
D03*
X900000Y438831D02*
D03*
X1020334Y441200D02*
D03*
X1026900Y437300D02*
D03*
X988900Y383600D02*
D03*
X1013600Y375300D02*
D03*
X762000Y138600D02*
D03*
X669300Y96100D02*
D03*
X863800Y220300D02*
D03*
X667400Y77800D02*
D03*
X354300Y166200D02*
D03*
X636600Y91600D02*
D03*
X672400Y80700D02*
D03*
X668893Y458800D02*
D03*
X976800Y329300D02*
D03*
X919000Y330000D02*
D03*
X836043Y331200D02*
D03*
X719900Y212200D02*
D03*
X751400Y303800D02*
D03*
X751500Y220500D02*
D03*
X903400Y231400D02*
D03*
X952900Y231600D02*
D03*
X380400Y170000D02*
D03*
X983400Y169600D02*
D03*
X936500Y235100D02*
D03*
X917000Y247900D02*
D03*
X781800Y312200D02*
D03*
X994300Y295000D02*
D03*
X984057Y327100D02*
D03*
X811900Y339900D02*
D03*
M02*
