G04 Layer_Physical_Order=2*
G04 Layer_Color=16711680*
%FSLAX25Y25*%
%MOIN*%
G70*
G01*
G75*
%ADD16R,0.03937X0.07874*%
%ADD17R,0.07874X0.03937*%
%ADD21C,0.01000*%
%ADD22C,0.16000*%
%ADD23C,0.07284*%
%ADD24R,0.07284X0.07284*%
%ADD25R,0.05906X0.05906*%
%ADD26C,0.05906*%
%ADD27R,0.07874X0.07874*%
%ADD28C,0.07874*%
%ADD29R,0.05906X0.05906*%
%ADD30C,0.09100*%
%ADD31C,0.03000*%
D16*
X900000Y460354D02*
D03*
X920000D02*
D03*
X930000D02*
D03*
X940000D02*
D03*
X910000D02*
D03*
X860000D02*
D03*
X890000D02*
D03*
X880000D02*
D03*
X870000D02*
D03*
X850000D02*
D03*
X810000D02*
D03*
X840000D02*
D03*
X830000D02*
D03*
X820000D02*
D03*
X800000D02*
D03*
X760000D02*
D03*
X790000D02*
D03*
X780000D02*
D03*
X770000D02*
D03*
X750000D02*
D03*
Y429646D02*
D03*
X770000D02*
D03*
X780000D02*
D03*
X790000D02*
D03*
X760000D02*
D03*
X800000D02*
D03*
X820000D02*
D03*
X830000D02*
D03*
X840000D02*
D03*
X810000D02*
D03*
X850000D02*
D03*
X870000D02*
D03*
X880000D02*
D03*
X890000D02*
D03*
X860000D02*
D03*
X910000D02*
D03*
X940000D02*
D03*
X930000D02*
D03*
X920000D02*
D03*
X900000D02*
D03*
X790000Y39646D02*
D03*
X770000D02*
D03*
X760000D02*
D03*
X750000D02*
D03*
X780000D02*
D03*
X830000D02*
D03*
X800000D02*
D03*
X810000D02*
D03*
X820000D02*
D03*
X840000D02*
D03*
X880000D02*
D03*
X850000D02*
D03*
X860000D02*
D03*
X870000D02*
D03*
X890000D02*
D03*
X930000D02*
D03*
X900000D02*
D03*
X910000D02*
D03*
X920000D02*
D03*
X940000D02*
D03*
Y70354D02*
D03*
X920000D02*
D03*
X910000D02*
D03*
X900000D02*
D03*
X930000D02*
D03*
X890000D02*
D03*
X870000D02*
D03*
X860000D02*
D03*
X850000D02*
D03*
X880000D02*
D03*
X840000D02*
D03*
X820000D02*
D03*
X810000D02*
D03*
X800000D02*
D03*
X830000D02*
D03*
X780000D02*
D03*
X750000D02*
D03*
X760000D02*
D03*
X770000D02*
D03*
X790000D02*
D03*
D17*
X1029646Y305000D02*
D03*
Y325000D02*
D03*
Y335000D02*
D03*
Y345000D02*
D03*
Y315000D02*
D03*
Y265000D02*
D03*
Y295000D02*
D03*
Y285000D02*
D03*
Y275000D02*
D03*
Y255000D02*
D03*
Y215000D02*
D03*
Y245000D02*
D03*
Y235000D02*
D03*
Y225000D02*
D03*
Y205000D02*
D03*
Y165000D02*
D03*
Y195000D02*
D03*
Y185000D02*
D03*
Y175000D02*
D03*
Y155000D02*
D03*
X1060354D02*
D03*
Y175000D02*
D03*
Y185000D02*
D03*
Y195000D02*
D03*
Y165000D02*
D03*
Y205000D02*
D03*
Y225000D02*
D03*
Y235000D02*
D03*
Y245000D02*
D03*
Y215000D02*
D03*
Y255000D02*
D03*
Y275000D02*
D03*
Y285000D02*
D03*
Y295000D02*
D03*
Y265000D02*
D03*
Y315000D02*
D03*
Y345000D02*
D03*
Y335000D02*
D03*
Y325000D02*
D03*
Y305000D02*
D03*
X670354Y195000D02*
D03*
Y175000D02*
D03*
Y165000D02*
D03*
Y155000D02*
D03*
Y185000D02*
D03*
Y235000D02*
D03*
Y205000D02*
D03*
Y215000D02*
D03*
Y225000D02*
D03*
Y245000D02*
D03*
Y285000D02*
D03*
Y255000D02*
D03*
Y265000D02*
D03*
Y275000D02*
D03*
Y295000D02*
D03*
Y335000D02*
D03*
Y305000D02*
D03*
Y315000D02*
D03*
Y325000D02*
D03*
Y345000D02*
D03*
X639646D02*
D03*
Y325000D02*
D03*
Y315000D02*
D03*
Y305000D02*
D03*
Y335000D02*
D03*
Y295000D02*
D03*
Y275000D02*
D03*
Y265000D02*
D03*
Y255000D02*
D03*
Y285000D02*
D03*
Y245000D02*
D03*
Y225000D02*
D03*
Y215000D02*
D03*
Y205000D02*
D03*
Y235000D02*
D03*
Y185000D02*
D03*
Y155000D02*
D03*
Y165000D02*
D03*
Y175000D02*
D03*
Y195000D02*
D03*
X289291Y160000D02*
D03*
Y150000D02*
D03*
Y140000D02*
D03*
X320000D02*
D03*
Y150000D02*
D03*
Y160000D02*
D03*
X99583D02*
D03*
Y150000D02*
D03*
Y140000D02*
D03*
X130291Y160000D02*
D03*
X320000Y210000D02*
D03*
Y190000D02*
D03*
Y180000D02*
D03*
Y170000D02*
D03*
Y200000D02*
D03*
Y250000D02*
D03*
Y220000D02*
D03*
Y230000D02*
D03*
Y240000D02*
D03*
Y260000D02*
D03*
Y300000D02*
D03*
Y270000D02*
D03*
Y280000D02*
D03*
Y290000D02*
D03*
Y310000D02*
D03*
Y350000D02*
D03*
Y320000D02*
D03*
Y330000D02*
D03*
Y340000D02*
D03*
Y360000D02*
D03*
X289291D02*
D03*
Y340000D02*
D03*
Y330000D02*
D03*
Y320000D02*
D03*
Y350000D02*
D03*
Y310000D02*
D03*
Y290000D02*
D03*
Y280000D02*
D03*
Y270000D02*
D03*
Y300000D02*
D03*
Y260000D02*
D03*
Y240000D02*
D03*
Y230000D02*
D03*
Y220000D02*
D03*
Y250000D02*
D03*
Y200000D02*
D03*
Y170000D02*
D03*
Y180000D02*
D03*
Y190000D02*
D03*
Y210000D02*
D03*
X130291D02*
D03*
Y190000D02*
D03*
Y180000D02*
D03*
Y170000D02*
D03*
Y200000D02*
D03*
Y250000D02*
D03*
Y220000D02*
D03*
Y230000D02*
D03*
Y240000D02*
D03*
Y260000D02*
D03*
Y300000D02*
D03*
Y270000D02*
D03*
Y280000D02*
D03*
Y290000D02*
D03*
Y310000D02*
D03*
Y350000D02*
D03*
Y320000D02*
D03*
Y330000D02*
D03*
Y340000D02*
D03*
Y360000D02*
D03*
X99583D02*
D03*
Y340000D02*
D03*
Y330000D02*
D03*
Y320000D02*
D03*
Y350000D02*
D03*
Y310000D02*
D03*
Y290000D02*
D03*
Y280000D02*
D03*
Y270000D02*
D03*
Y300000D02*
D03*
Y260000D02*
D03*
Y240000D02*
D03*
Y230000D02*
D03*
Y220000D02*
D03*
Y250000D02*
D03*
Y200000D02*
D03*
Y170000D02*
D03*
Y180000D02*
D03*
Y190000D02*
D03*
Y210000D02*
D03*
X130291Y150000D02*
D03*
Y140000D02*
D03*
D21*
X247200Y290600D02*
X248200Y291600D01*
X155491Y290600D02*
X247200D01*
X144891Y280000D02*
X155491Y290600D01*
X130291Y280000D02*
X144891D01*
X130291Y220000D02*
X234100D01*
X240200Y226100D01*
X335042D01*
X336742Y227800D01*
X344900D01*
X350400Y233300D01*
X989500Y283200D02*
X990300Y284000D01*
X940500Y283200D02*
X989500D01*
X936400Y279100D02*
X940500Y283200D01*
X930000Y279100D02*
X936400D01*
X928500Y280600D02*
X930000Y279100D01*
X928500Y280600D02*
Y280700D01*
X994500Y290800D02*
X995000Y290300D01*
X981800Y290800D02*
X994500D01*
X981600Y290600D02*
X981800Y290800D01*
X973700Y290600D02*
X981600D01*
X973500Y290400D02*
X973700Y290600D01*
X923100Y290400D02*
X973500D01*
X918600Y285900D02*
X923100Y290400D01*
X918600Y281000D02*
Y285900D01*
X921100Y275500D02*
X921880Y276280D01*
Y282280D01*
X927500Y287900D01*
X982500D01*
X977200Y100500D02*
Y104500D01*
Y100500D02*
X982100Y95600D01*
X986200D01*
X987400Y96800D01*
Y128493D01*
X988998Y130090D01*
X1020536D01*
X1042900Y152454D01*
Y168872D01*
X1055228Y181200D01*
X1067637D01*
X1075700Y189263D01*
Y192400D01*
X1043700Y199600D02*
X1045000Y198300D01*
X1066596D01*
X1071092Y193804D01*
Y190387D02*
Y193804D01*
X1069328Y188623D02*
X1071092Y190387D01*
X1048892Y188623D02*
X1069328D01*
X1046500Y186231D02*
X1048892Y188623D01*
X1046500Y176200D02*
Y186231D01*
X1041100Y170800D02*
X1046500Y176200D01*
X1041100Y153200D02*
Y170800D01*
X1021600Y133700D02*
X1041100Y153200D01*
X989863Y133700D02*
X1021600D01*
X983800Y127637D02*
X989863Y133700D01*
X983800Y98500D02*
Y127637D01*
X992038Y74500D02*
X1032038Y114500D01*
X1046200D01*
X1046300Y114400D01*
X763100Y301600D02*
Y314300D01*
X717500Y359900D02*
X763100Y314300D01*
X686400Y359900D02*
X717500D01*
X741200Y224000D02*
X743312Y226112D01*
X771212D01*
X774100Y229000D01*
X783700D01*
X784700Y230000D01*
X752579Y282100D02*
X769500D01*
X749705Y284974D02*
X752579Y282100D01*
X689574Y284974D02*
X749705D01*
X687600Y283000D02*
X689574Y284974D01*
X711500Y280000D02*
X718000Y273500D01*
X768100D01*
X768700Y272900D01*
X631600Y358800D02*
X680600D01*
X627000Y354200D02*
X631600Y358800D01*
X627000Y334700D02*
Y354200D01*
Y334700D02*
X629900Y331800D01*
X650000Y367800D02*
X658200Y376000D01*
X682000D01*
X758000Y126500D02*
X758700Y125800D01*
X758000Y126500D02*
Y145300D01*
X766000Y153300D01*
X832600D01*
X842000Y162700D01*
X846300D01*
X848300Y160700D01*
X880600D01*
X766200Y100600D02*
X773000Y93800D01*
X728000Y100600D02*
X766200D01*
X723800Y104800D02*
X728000Y100600D01*
X723800Y104800D02*
Y125400D01*
X755500Y157100D01*
X776700D01*
X783122Y163522D01*
X809100D01*
X810578Y165000D01*
X861100D01*
X832262Y94900D02*
X834962Y97600D01*
X866000D01*
X867400Y99000D01*
Y99600D01*
X905000Y194700D02*
X906400Y196100D01*
X861000Y194700D02*
X905000D01*
X861500Y125600D02*
X864400Y128500D01*
X887000D01*
X900400Y141900D01*
X904300D01*
X906600Y144200D01*
X895000Y87400D02*
X911800Y104200D01*
X884400Y137100D02*
X887300Y140000D01*
X859500Y137100D02*
X884400D01*
X858300Y138300D02*
X859500Y137100D01*
X786400Y138300D02*
X858300D01*
X778900Y130800D02*
X786400Y138300D01*
X803100Y144300D02*
X856500D01*
X756000Y58200D02*
X775000D01*
X761900Y107800D02*
Y127100D01*
X759800Y129200D02*
X761900Y127100D01*
X759800Y129200D02*
Y142700D01*
X761500Y144400D01*
X914643Y366043D02*
X945000Y396400D01*
X842700Y438800D02*
X843800Y437700D01*
X835100Y438800D02*
X842700D01*
X832200Y441700D02*
X835100Y438800D01*
X689461Y441700D02*
X832200D01*
X688661Y440900D02*
X689461Y441700D01*
X773500Y466300D02*
X774900Y467700D01*
X766003Y466300D02*
X773500D01*
X763003Y469300D02*
X766003Y466300D01*
X741054Y469300D02*
X763003D01*
X740354Y468600D02*
X741054Y469300D01*
X672500Y468600D02*
X740354D01*
X1036000Y433800D02*
X1043800Y426000D01*
X1024500Y433800D02*
X1036000D01*
X1016900Y441400D02*
X1024500Y433800D01*
X993200Y441400D02*
X1016900D01*
X992200Y440400D02*
X993200Y441400D01*
X897400Y440400D02*
X992200D01*
X896600Y439600D02*
X897400Y440400D01*
X417891Y94409D02*
X535000D01*
X398600Y113700D02*
X417891Y94409D01*
X398600Y113700D02*
Y134200D01*
X379900Y200300D02*
X442100Y138100D01*
X408100Y112600D02*
X427700D01*
X422900Y257700D02*
X431500Y266300D01*
X364100Y257700D02*
X422900D01*
X1058620Y51720D02*
X1086900Y80000D01*
Y199632D01*
X1074800Y211732D02*
X1086900Y199632D01*
X1074800Y211732D02*
Y214600D01*
X1064400Y225000D02*
X1074800Y214600D01*
X1060354Y225000D02*
X1064400D01*
X1047500Y255000D02*
X1060354D01*
X1041500Y249000D02*
X1047500Y255000D01*
X1060354Y265000D02*
X1071100D01*
X957300Y250600D02*
X977600D01*
X986800Y259800D01*
X1070600D01*
X1076500Y265700D01*
Y273900D01*
X1075400Y275000D02*
X1076500Y273900D01*
X1060354Y275000D02*
X1075400D01*
X972400Y274100D02*
X974000Y272500D01*
X1013200D01*
X1021300Y280600D01*
X1056400D01*
X1058400Y282600D01*
Y285000D02*
X1060354D01*
X974000Y294000D02*
X974900Y293100D01*
X1016500D01*
X1019400Y290200D01*
X1047000D01*
X1058400Y301600D01*
Y305000D02*
X1060354D01*
X1056700Y353800D02*
X1063000D01*
X1065592Y351208D01*
Y335992D02*
Y351208D01*
X1064600Y335000D02*
X1065592Y335992D01*
X1060354Y335000D02*
X1064600D01*
X830000Y33700D02*
Y39646D01*
Y33700D02*
X834000Y29700D01*
X837200D01*
X971100Y96300D02*
Y131700D01*
X954580Y145780D02*
X986220D01*
X933400Y124600D02*
X954580Y145780D01*
X926521Y124600D02*
X933400D01*
X916821Y114900D02*
X926521Y124600D01*
X890800Y114900D02*
X916821D01*
X885400Y109500D02*
X890800Y114900D01*
X885400Y105968D02*
Y109500D01*
X874000Y94568D02*
X885400Y105968D01*
X874000Y58400D02*
Y94568D01*
X860000Y44400D02*
X874000Y58400D01*
X860000Y39646D02*
Y44400D01*
X860523Y29177D02*
X865546Y34200D01*
X869000D01*
X870000Y35200D01*
Y39646D01*
Y57605D02*
Y70354D01*
X855700Y43305D02*
X870000Y57605D01*
X855700Y33800D02*
Y43305D01*
X842800Y20900D02*
X855700Y33800D01*
X837300Y20900D02*
X842800D01*
X832000Y26200D02*
X837300Y20900D01*
X785000Y26200D02*
X832000D01*
X741600Y196200D02*
X753100D01*
X755300Y198400D01*
X773100D01*
X776800Y194700D01*
X785080D01*
X786280Y195900D01*
X860000Y70354D02*
Y88900D01*
X856000Y92900D02*
X860000Y88900D01*
X841800Y92900D02*
X856000D01*
X843200Y193000D02*
X844900Y194700D01*
X800000Y193000D02*
X843200D01*
X794200Y198800D02*
X800000Y193000D01*
X780700Y198800D02*
X794200D01*
X779800Y197900D02*
X780700Y198800D01*
X850000Y70354D02*
Y75300D01*
X849300Y76000D02*
X850000Y75300D01*
X837100Y76000D02*
X849300D01*
X836100Y75000D02*
X837100Y76000D01*
X836100Y64100D02*
Y75000D01*
X831400Y59400D02*
X836100Y64100D01*
X817000Y59400D02*
X831400D01*
X814931Y61469D02*
X817000Y59400D01*
X814931Y61469D02*
Y85629D01*
X834202Y104900D01*
X840700D01*
X837600Y178700D02*
X840100Y181200D01*
X784000Y178700D02*
X837600D01*
X781500Y181200D02*
X784000Y178700D01*
X824400Y101546D02*
Y107500D01*
X803400Y80546D02*
X824400Y101546D01*
X803400Y60100D02*
Y80546D01*
Y60100D02*
X808400Y55100D01*
X832600D01*
X840000Y62500D01*
Y70354D01*
X830000Y66100D02*
Y70354D01*
X828900Y65000D02*
X830000Y66100D01*
X816831Y65000D02*
X828900D01*
X816731Y65100D02*
X816831Y65000D01*
X816731Y65100D02*
Y74931D01*
X837600Y95800D01*
X868600D01*
X873500Y100700D01*
Y104800D01*
X887600Y118900D01*
X911400D01*
X920900Y128400D01*
X929200D01*
X933400Y132600D01*
Y186300D01*
X932100Y187600D02*
X933400Y186300D01*
X779300Y187600D02*
X932100D01*
X773200Y181500D02*
X779300Y187600D01*
X820000Y70354D02*
Y75228D01*
X834772Y90000D01*
X850100D01*
X856600Y83500D01*
Y64600D02*
Y83500D01*
Y64600D02*
X858000Y63200D01*
X862600D01*
X863065Y62735D01*
Y58265D02*
Y62735D01*
X856200Y51400D02*
X863065Y58265D01*
X796400Y51400D02*
X856200D01*
X794400Y53400D02*
X796400Y51400D01*
X743900Y53400D02*
X794400D01*
X737400Y59900D02*
X743900Y53400D01*
X732000Y59900D02*
X737400D01*
X723800Y51700D02*
X732000Y59900D01*
X717700Y51700D02*
X723800D01*
X800000Y63200D02*
Y70354D01*
X796000Y59200D02*
X800000Y63200D01*
X786031Y59200D02*
X796000D01*
X782131Y55300D02*
X786031Y59200D01*
X746638Y55300D02*
X782131D01*
X740238Y61700D02*
X746638Y55300D01*
X728700Y61700D02*
X740238D01*
X725000Y58000D02*
X728700Y61700D01*
X719300Y58000D02*
X725000D01*
X790000Y70354D02*
Y74000D01*
X784300Y79700D02*
X790000Y74000D01*
X725900Y79700D02*
X784300D01*
X724100Y77900D02*
X725900Y79700D01*
X718100Y77900D02*
X724100D01*
X712700Y79000D02*
X716600Y75100D01*
X728997D01*
X731797Y77900D01*
X777500D01*
X780000Y75400D01*
Y70354D02*
Y75400D01*
X770000Y66100D02*
Y70354D01*
X769017Y65117D02*
X770000Y66100D01*
X746700Y65117D02*
X769017D01*
X744617Y67200D02*
X746700Y65117D01*
X713500Y67200D02*
X744617D01*
X692700Y76400D02*
X698800Y70300D01*
X750000D02*
Y70354D01*
X677100Y86400D02*
Y154100D01*
X676200Y155000D02*
X677100Y154100D01*
X670354Y155000D02*
X676200D01*
X670354Y175000D02*
X676000D01*
X679900Y171100D01*
Y91900D02*
Y171100D01*
X661800Y185000D02*
X670354D01*
X654250Y177450D02*
X661800Y185000D01*
X654250Y152150D02*
Y177450D01*
Y152150D02*
X665100Y141300D01*
Y79400D02*
Y141300D01*
X650296Y205000D02*
X670354D01*
X646296Y201000D02*
X650296Y205000D01*
X631800Y201000D02*
X646296D01*
X629000Y215100D02*
Y216080D01*
X633020Y220100D01*
X656300D01*
X661200Y225000D01*
X670354D01*
X662400Y245000D02*
X670354D01*
Y305000D02*
X672300D01*
X675000Y307700D01*
X688600D01*
X692600Y303700D01*
X892083Y252483D02*
X893700Y254100D01*
X879417Y252483D02*
X892083D01*
X877200Y254700D02*
X879417Y252483D01*
X706300Y254700D02*
X877200D01*
X702500Y258500D02*
X706300Y254700D01*
X657000Y258500D02*
X702500D01*
X646800Y268700D02*
X657000Y258500D01*
X637708Y268700D02*
X646800D01*
X634400Y272008D02*
X637708Y268700D01*
X634400Y272008D02*
Y278492D01*
X650192D01*
X654900Y283200D01*
Y321500D01*
X658400Y325000D01*
X670354D01*
X656900Y335000D02*
X670354D01*
X661400Y269500D02*
X680700D01*
X684700Y273500D01*
X696355D01*
X705055Y264800D01*
X767120D01*
X772820Y259100D01*
X885700D01*
X887700Y257100D01*
X639646Y275000D02*
X647498D01*
X660998Y261500D01*
X707700D01*
X712600Y256600D01*
X882583D01*
X884900Y254283D01*
X889000D01*
X891717Y257000D01*
X905600D01*
X910000Y252600D01*
X939400D01*
X923800Y250600D02*
X930500Y243900D01*
X750400Y250600D02*
X923800D01*
X748100Y252900D02*
X750400Y250600D01*
X743700Y252900D02*
X748100D01*
X742500Y251700D02*
X743700Y252900D01*
X659650Y251700D02*
X742500D01*
X646350Y265000D02*
X659650Y251700D01*
X639646Y265000D02*
X646350D01*
X639646Y255000D02*
X644600D01*
X658900Y240700D01*
X879900D01*
X883900Y236700D01*
X931900D01*
X936600Y232000D01*
Y224000D02*
Y232000D01*
X934900Y222300D02*
X936600Y224000D01*
X918839Y222300D02*
X934900D01*
X639646Y245000D02*
X647019D01*
X653619Y238400D01*
X876933D01*
X880633Y234700D01*
X924300D01*
X933700Y225300D01*
X792000Y231100D02*
X914703D01*
X788400Y234700D02*
X792000Y231100D01*
X771512Y234700D02*
X788400D01*
X767912Y231100D02*
X771512Y234700D01*
X641000Y231100D02*
X767912D01*
X639600Y232500D02*
X641000Y231100D01*
X639600Y235000D02*
X639646D01*
X795200Y223600D02*
X823100D01*
X785900Y232900D02*
X795200Y223600D01*
X773312Y232900D02*
X785900D01*
X768712Y228300D02*
X773312Y232900D01*
X661400Y228300D02*
X768712D01*
X658100Y225000D02*
X661400Y228300D01*
X639646Y225000D02*
X658100D01*
X823800Y213300D02*
X826000Y211100D01*
X791309Y213300D02*
X823800D01*
X789709Y211700D02*
X791309Y213300D01*
X757497Y211700D02*
X789709D01*
X756697Y210900D02*
X757497Y211700D01*
X751754Y210900D02*
X756697D01*
X751054Y211600D02*
X751754Y210900D01*
X726911Y211600D02*
X751054D01*
X724811Y209500D02*
X726911Y211600D01*
X651000Y209500D02*
X724811D01*
X646500Y205000D02*
X651000Y209500D01*
X639646Y205000D02*
X646500D01*
X793400Y268000D02*
X909300D01*
X917400Y259900D01*
X922300D01*
X927900Y265500D01*
X950700D01*
X959200Y257000D01*
X981200D01*
X985800Y261600D01*
X1046100D01*
X1056100Y271600D01*
X1073500D01*
X1055100Y456300D02*
X1066800Y444600D01*
X1038969Y456300D02*
X1055100D01*
X1037769Y455100D02*
X1038969Y456300D01*
X936700Y455100D02*
X1037769D01*
X933400Y458400D02*
X936700Y455100D01*
X930000Y458400D02*
Y460354D01*
X809200Y274700D02*
X916300D01*
X918300Y272700D01*
X922600D01*
X924000Y274100D01*
Y280912D01*
X928188Y285100D01*
X985302D01*
X987602Y287400D01*
X1003600D01*
X1004600Y288400D01*
X1070900D01*
X1072900Y290400D01*
Y465946D01*
X1071146Y467700D02*
X1072900Y465946D01*
X922500Y467700D02*
X1071146D01*
X920000Y465200D02*
X922500Y467700D01*
X920000Y460354D02*
Y465200D01*
X789000Y281500D02*
X801200D01*
Y271900D02*
X908000D01*
X914000Y265900D01*
X917980D01*
X921180Y269100D01*
X974450D01*
X975950Y270600D01*
X1015050D01*
X1023250Y278800D01*
X1065500D01*
X1074800Y288100D01*
Y468011D01*
X1072511Y470300D02*
X1074800Y468011D01*
X916000Y470300D02*
X1072511D01*
X910000Y464300D02*
X916000Y470300D01*
X910000Y460354D02*
Y464300D01*
X789820Y275900D02*
X804600D01*
X806200Y277500D01*
X870200D01*
X882455Y289755D01*
X892955D01*
X904900Y301700D01*
X1035231D01*
X1053900Y320369D01*
Y358800D01*
X1067868Y372768D01*
Y428232D01*
X1045508Y450592D02*
X1067868Y428232D01*
X1038869Y450592D02*
X1045508D01*
X1036261Y453200D02*
X1038869Y450592D01*
X902100Y453200D02*
X1036261D01*
X900000Y455300D02*
X902100Y453200D01*
X900000Y455300D02*
Y460354D01*
X782700Y278700D02*
X804400D01*
X805100Y279400D01*
X863400D01*
X889400Y305400D01*
X986400D01*
X990122Y309122D01*
X1039000D01*
X1052000Y322122D01*
Y360562D01*
X1066068Y374630D01*
Y426445D01*
X1053313Y439200D02*
X1066068Y426445D01*
X1046478Y439200D02*
X1053313D01*
X1035178Y450500D02*
X1046478Y439200D01*
X884000Y450500D02*
X1035178D01*
X880000Y454500D02*
X884000Y450500D01*
X880000Y454500D02*
Y460354D01*
X770500Y300300D02*
Y309800D01*
X718500Y361800D02*
X770500Y309800D01*
X705300Y361800D02*
X718500D01*
X633400Y433700D02*
X705300Y361800D01*
X625700Y433700D02*
X633400D01*
X623400Y436000D02*
X625700Y433700D01*
X623400Y436000D02*
Y468100D01*
X637700Y482400D01*
X871660D01*
X872160Y482900D01*
X891300D01*
X893400Y480800D01*
Y456000D02*
Y480800D01*
X892000Y454600D02*
X893400Y456000D01*
X888000Y454600D02*
X892000D01*
X885100Y457500D02*
X888000Y454600D01*
X885100Y457500D02*
Y464000D01*
X883100Y466000D02*
X885100Y464000D01*
X871000Y466000D02*
X883100D01*
X870000Y465000D02*
X871000Y466000D01*
X870000Y460354D02*
Y465000D01*
X860000Y457100D02*
X874000Y443100D01*
X860000Y457100D02*
Y460354D01*
X850000Y455900D02*
Y460354D01*
Y455900D02*
X865200Y440700D01*
Y415300D02*
Y440700D01*
Y415300D02*
X871900Y408600D01*
X896700D01*
X901400Y403900D01*
Y387800D02*
Y403900D01*
X881200Y367600D02*
X901400Y387800D01*
X869100Y367600D02*
X881200D01*
X874600Y437200D02*
X875700D01*
X855000Y456800D02*
X874600Y437200D01*
X855000Y456800D02*
Y464600D01*
X854000Y465600D02*
X855000Y464600D01*
X845500Y465600D02*
X854000D01*
X842200Y462300D02*
X845500Y465600D01*
X840000Y460354D02*
Y462300D01*
X830000Y456700D02*
Y460354D01*
X828300Y455000D02*
X830000Y456700D01*
X816800Y455000D02*
X828300D01*
X816700Y455100D02*
X816800Y455000D01*
X816700Y455100D02*
Y466000D01*
X819900Y469200D01*
X881600D01*
X810000Y456100D02*
Y460354D01*
X809000Y455100D02*
X810000Y456100D01*
X796700Y455100D02*
X809000D01*
X796700D02*
Y461900D01*
X792000Y466600D02*
X796700Y461900D01*
X788000Y466600D02*
X792000D01*
X786600Y465200D02*
X788000Y466600D01*
X786600Y454100D02*
Y465200D01*
Y454100D02*
X789500Y451200D01*
X848700D01*
X863400Y436500D01*
Y414100D02*
Y436500D01*
X852000Y402700D02*
X863400Y414100D01*
X852000Y397700D02*
Y402700D01*
Y397700D02*
X856000Y393700D01*
X867300D01*
X870400Y390600D01*
Y382100D02*
Y390600D01*
X869000Y380700D02*
X870400Y382100D01*
X800000Y460354D02*
Y471900D01*
X803700Y475600D01*
X873700D01*
X874000Y475300D01*
X882000D01*
X883400Y387000D02*
X898500Y402100D01*
X883400Y384500D02*
Y387000D01*
X760000Y460354D02*
Y465400D01*
X757900Y467500D02*
X760000Y465400D01*
X741800Y467500D02*
X757900D01*
X739500Y465200D02*
X741800Y467500D01*
X641800Y465200D02*
X739500D01*
X630600Y454000D02*
X641800Y465200D01*
X630600Y442300D02*
Y454000D01*
Y442300D02*
X632200Y440700D01*
X638500D01*
X638000Y449500D02*
X639800Y451300D01*
X643800D01*
X653000Y460500D01*
X749900D01*
X750000Y460400D01*
Y460354D02*
Y460400D01*
X644000Y446600D02*
X650800Y439800D01*
X683942D01*
X685742Y438000D01*
X746000D01*
X750000Y434000D01*
Y429646D02*
Y434000D01*
X780000Y429646D02*
Y433900D01*
X778100Y435800D02*
X780000Y433900D01*
X755800Y435800D02*
X778100D01*
X753300Y433300D02*
X755800Y435800D01*
X753300Y424440D02*
Y433300D01*
X753269Y424408D02*
X753300Y424440D01*
X746731Y424408D02*
X753269D01*
X735240Y435900D02*
X746731Y424408D01*
X659700Y435900D02*
X735240D01*
X787800Y411000D02*
X790000Y413200D01*
Y429646D01*
X784900Y405200D02*
Y422508D01*
X785100Y422708D01*
Y432900D01*
X789600Y437400D01*
X824500D01*
X826900Y435000D01*
X838800D01*
X840000Y433800D01*
Y429646D02*
Y433800D01*
X850000Y419600D02*
Y429646D01*
X849000Y418600D02*
X850000Y419600D01*
X812300Y418600D02*
X849000D01*
X796300Y402600D02*
X812300Y418600D01*
X803900Y395100D02*
X823300Y414500D01*
X855900D01*
X860000Y418600D01*
Y429646D01*
X1013800Y420600D02*
Y428200D01*
X1004900Y411700D02*
X1013800Y420600D01*
X883800Y411700D02*
X1004900D01*
X870000Y425500D02*
X883800Y411700D01*
X870000Y425500D02*
Y429646D01*
X910000D02*
Y433900D01*
X911000Y434900D01*
X998500D01*
X920000Y425200D02*
Y429646D01*
X919000Y424200D02*
X920000Y425200D01*
X896700Y424200D02*
X919000D01*
X896700D02*
Y434100D01*
X901200Y438600D01*
X994000D01*
X995000Y439600D01*
X1003700D01*
X1005000Y438300D01*
X986400Y431000D02*
X1033100D01*
X978700Y423300D02*
X986400Y431000D01*
X931100Y423300D02*
X978700D01*
X930000Y424400D02*
X931100Y423300D01*
X930000Y424400D02*
Y429646D01*
X430000Y340000D02*
X460000Y370000D01*
X288800Y360000D02*
X289291D01*
X320000D01*
X130291D02*
X288800D01*
X470000Y70000D02*
X480000D01*
X460000D02*
X470000D01*
X480000D02*
X490000D01*
X500000D01*
X510000D01*
X520000D01*
X530000D01*
X540000D01*
X550000D01*
X500000Y370000D02*
X510000D01*
X490000D02*
X500000D01*
X510000D02*
X520000D01*
X530000D01*
X540000D01*
X470000D02*
X480000D01*
X460000D02*
X470000D01*
X480000D02*
X490000D01*
X540000D02*
X550000D01*
X50000Y365000D02*
X86500D01*
X87200Y365700D01*
X95883D01*
X99583Y362000D01*
Y360000D02*
Y362000D01*
Y360000D02*
X130291D01*
X99583Y140000D02*
Y150000D01*
X130291D01*
Y140000D02*
Y150000D01*
X1029646Y245000D02*
X1036900D01*
X1046000Y244300D02*
X1046700Y245000D01*
X1060354D01*
X930000Y39646D02*
X940000D01*
X920000D02*
X930000D01*
X910000D02*
X920000D01*
Y70354D02*
X930000D01*
X940000D01*
X910000D02*
X920000D01*
X1052500Y423200D02*
X1063200D01*
X653800Y71400D02*
X667400D01*
X712500Y116500D01*
Y125000D01*
X400000Y70000D02*
X410000D01*
X420000D01*
X390000D02*
X400000D01*
X380000D02*
X390000D01*
X370000D02*
X380000D01*
X350000D02*
X360000D01*
X370000D01*
X420000D02*
X430000D01*
X440000D01*
X350000Y370000D02*
X360000D01*
X370000D01*
X380000D01*
X390000D01*
X400000D01*
X410000D01*
X420000D01*
X430000D01*
X440000D01*
X460200Y420200D02*
X553600D01*
X440000Y400000D02*
X460200Y420200D01*
X822600Y364600D02*
X845000Y387000D01*
X800417Y364600D02*
X822600D01*
X788819Y376198D02*
X800417Y364600D01*
X736228Y376198D02*
X788819D01*
X735430Y375400D02*
X736228Y376198D01*
X705700Y375400D02*
X735430D01*
X702100Y379000D02*
X705700Y375400D01*
X1057400Y417100D02*
X1060200D01*
X1050100Y409800D02*
X1057400Y417100D01*
X933600Y409800D02*
X1050100D01*
X888500Y364700D02*
X933600Y409800D01*
X867500Y364700D02*
X888500D01*
X866100Y366100D02*
X867500Y364700D01*
X866100Y366100D02*
Y376000D01*
X867900Y377800D01*
X871000D01*
X872300Y379100D01*
Y393200D01*
X868000Y397500D02*
X872300Y393200D01*
X857500Y397500D02*
X868000D01*
X661700Y299100D02*
X678642D01*
X683342Y303800D01*
X689700D01*
Y302100D02*
Y303800D01*
Y302100D02*
X691000Y300800D01*
X728365D01*
X737365Y291800D01*
X754900D01*
X760700Y286000D01*
X658300Y47700D02*
X690100D01*
X996457Y106300D02*
X1005757Y115600D01*
X1009100D01*
X669300Y411800D02*
X702100Y379000D01*
X669300Y411800D02*
Y421500D01*
X1041700Y453400D02*
X1050200D01*
X1061900Y441700D01*
X1068300D01*
X1069600Y443000D01*
Y463200D01*
X1068000Y464800D02*
X1069600Y463200D01*
X863800Y391600D02*
X867600Y387800D01*
X839913Y391600D02*
X863800D01*
X795800Y390287D02*
X838600D01*
X923157Y329500D02*
X923957Y328700D01*
X863300Y329500D02*
X923157D01*
X786400Y301500D02*
X835300D01*
X780800Y295900D02*
X786400Y301500D01*
X190000Y25000D02*
X199900Y15100D01*
X594300D01*
X665900Y178600D02*
X685500D01*
X697200Y166900D01*
X804300D01*
X663300Y169900D02*
Y176000D01*
X665900Y178600D01*
X693600D02*
X701700Y170500D01*
X774043D01*
X386500Y427500D02*
X626700D01*
X999200Y255000D02*
X1029646D01*
X984900Y240700D02*
X999200Y255000D01*
X847500Y215000D02*
X1029646D01*
X830700Y198200D02*
X847500Y215000D01*
X813600Y198200D02*
X830700D01*
X807300Y204500D02*
X813600Y198200D01*
X785800Y204500D02*
X807300D01*
X784200Y206100D02*
X785800Y204500D01*
X766850Y206100D02*
X784200D01*
X764050Y203300D02*
X766850Y206100D01*
X726488Y203300D02*
X764050D01*
X721457Y198269D02*
X726488Y203300D01*
X657900Y198269D02*
X721457D01*
X656300Y196669D02*
X657900Y198269D01*
X656300Y188800D02*
Y196669D01*
X130291Y250000D02*
X180402D01*
X202882Y272480D01*
X238200D01*
X240170Y274450D01*
X298339D01*
X307189Y283300D01*
X409659D01*
X411134Y281824D01*
X604476D01*
X624700Y261600D01*
X642515D01*
X654315Y249800D01*
X732200D01*
X735600Y246400D01*
X745200D01*
X747200Y244400D01*
X924400D01*
X927800Y241000D01*
X933200D01*
X944400Y229800D01*
X1033000D01*
X1038500Y224300D01*
Y210600D02*
Y224300D01*
Y210600D02*
X1048400Y200700D01*
X1068892D01*
X1072892Y196700D01*
Y189000D02*
Y196700D01*
X1068892Y185000D02*
X1072892Y189000D01*
X1060354Y185000D02*
X1068892D01*
X960000Y225000D02*
X1029646D01*
X956800Y221800D02*
X960000Y225000D01*
X962900Y235700D02*
X963600Y235000D01*
X1029646D01*
X130291Y240000D02*
X254900D01*
X258300Y236600D01*
X515000D01*
X541900Y209700D01*
X627900D01*
X633100Y214900D01*
Y216969D01*
X634400Y218269D01*
X660269D01*
X662315Y220315D01*
X768144D01*
X775029Y227200D01*
X788600D01*
X796200Y219600D01*
X901000D01*
X902600Y218000D01*
X966900D01*
X968900Y220000D01*
X1033300D01*
X1036600Y216700D01*
Y202700D02*
Y216700D01*
Y202700D02*
X1044300Y195000D01*
X1060354D01*
X863000Y360600D02*
X873577D01*
X896900Y337277D01*
X759800Y359900D02*
X765000Y365100D01*
X741800Y359900D02*
X759800D01*
X722100Y373500D02*
X735700Y359900D01*
X703300Y373500D02*
X722100D01*
X659400Y417400D02*
X703300Y373500D01*
X659400Y417400D02*
Y423284D01*
X722300Y9100D02*
X824600D01*
X825500Y8200D01*
X1038800D01*
X1062800Y32200D01*
Y39900D01*
X1055700Y47000D02*
X1062800Y39900D01*
X1055700Y47000D02*
Y53600D01*
X1058900Y56800D01*
Y71900D01*
X1053000Y77800D02*
X1058900Y71900D01*
X1052300Y77800D02*
X1053000D01*
X410200Y419800D02*
X430000Y400000D01*
X295500Y419800D02*
X410200D01*
X99583Y220000D02*
X115300D01*
X118700Y223400D01*
X230800D01*
X99583Y350000D02*
X130291D01*
X20000Y385000D02*
X24400Y380600D01*
X55400D01*
X60000Y376000D01*
X69500Y300000D02*
X99583D01*
X114223Y330000D02*
X115523Y331300D01*
X123341D01*
X124641Y330000D01*
X130291D01*
X313800Y260000D02*
X320000D01*
X309800Y264000D02*
X313800Y260000D01*
X309800Y264000D02*
Y273400D01*
X50000Y425000D02*
X248500D01*
X320000Y270000D02*
X325800D01*
X331800Y276000D01*
Y279800D01*
X50000Y445000D02*
X256800D01*
X259105Y260000D02*
X289291D01*
X255605Y263500D02*
X259105Y260000D01*
X229100Y263500D02*
X255605D01*
X221800Y256200D02*
X229100Y263500D01*
X198800Y256200D02*
X221800D01*
X194800Y260200D02*
X198800Y256200D01*
X229732Y230000D02*
X289291D01*
X225932Y226200D02*
X229732Y230000D01*
X114635Y226200D02*
X225932D01*
X113335Y224900D02*
X114635Y226200D01*
X60800Y224900D02*
X113335D01*
X55900Y229800D02*
X60800Y224900D01*
X19900Y229800D02*
X55900D01*
X15700Y225600D02*
X19900Y229800D01*
X15700Y199300D02*
Y225600D01*
Y199300D02*
X20000Y195000D01*
X15700Y160700D02*
X20000Y165000D01*
X15700Y141600D02*
Y160700D01*
Y141600D02*
X17900Y139400D01*
X22400D01*
X31100Y130700D01*
X182900D01*
X238000Y185800D01*
X324100D01*
X325400Y187100D01*
Y213169D01*
X325269Y213300D02*
X325400Y213169D01*
X314831Y213300D02*
X325269D01*
X313331Y211800D02*
X314831Y213300D01*
X300300Y211800D02*
X313331D01*
X298500Y210000D02*
X300300Y211800D01*
X289291Y210000D02*
X298500D01*
X20000Y155000D02*
X27500Y162500D01*
Y179000D01*
X39100Y190600D01*
X61500D01*
X66900Y196000D01*
X135900D01*
X139900Y200000D01*
X289291D01*
X232000Y190000D02*
X289291D01*
X195800Y153800D02*
X232000Y190000D01*
X75700Y153800D02*
X195800D01*
X62500Y140600D02*
X75700Y153800D01*
X24400Y140600D02*
X62500D01*
X20000Y145000D02*
X24400Y140600D01*
X20000Y115000D02*
X24600Y119600D01*
X197300D01*
X261000Y183300D01*
X295500D01*
X298800Y180000D01*
X320000D01*
X20000Y85000D02*
X40800D01*
X45800Y90000D01*
X158800D01*
X167900Y99100D01*
X215600D01*
X272300Y155800D01*
X293400D01*
X294600Y157000D01*
Y169000D01*
X293600Y170000D02*
X294600Y169000D01*
X289291Y170000D02*
X293600D01*
X15700Y69300D02*
X20000Y65000D01*
X15700Y69300D02*
Y87000D01*
X18100Y89400D01*
X36432D01*
X46432Y99400D01*
X51100D01*
X53500Y101800D01*
X192900D01*
X251100Y160000D01*
X289291D01*
X13800Y61200D02*
X20000Y55000D01*
X13800Y61200D02*
Y97600D01*
X15600Y99400D01*
X40500D01*
X79500Y113600D02*
X201400D01*
X262000Y174200D01*
X300000D01*
X304700Y169500D01*
Y156000D02*
Y169500D01*
Y156000D02*
X310700Y150000D01*
X320000D01*
X20000Y215000D02*
X32900Y227900D01*
X49298D01*
X61398Y215800D01*
X304700D01*
X308900Y220000D01*
X320000D01*
X84400Y240000D02*
X99583D01*
X26100Y298300D02*
X84400Y240000D01*
X26100Y298300D02*
Y328900D01*
X20000Y335000D02*
X26100Y328900D01*
X20000Y325000D02*
X24300Y320700D01*
Y293100D02*
Y320700D01*
Y293100D02*
X87400Y230000D01*
X99583D01*
X289291Y330000D02*
X294600D01*
X296600Y328000D01*
Y298000D02*
Y328000D01*
X294100Y295500D02*
X296600Y298000D01*
X279754Y295500D02*
X294100D01*
X274054Y289800D02*
X279754Y295500D01*
X271400Y289800D02*
X274054D01*
X258000Y284400D02*
X258900Y285300D01*
X166400Y284400D02*
X258000D01*
X159400Y277400D02*
X166400Y284400D01*
X50000Y105000D02*
X159400D01*
X320000Y290000D02*
X324900D01*
X329000Y294100D01*
Y300400D01*
X331687Y303087D01*
X395513D01*
X412600Y286000D01*
X310800Y78900D02*
X385100D01*
X266500Y34600D02*
X310800Y78900D01*
X59600Y34600D02*
X266500D01*
X50000Y25000D02*
X59600Y34600D01*
X50000Y75000D02*
X148600D01*
X119800Y311931D02*
Y314900D01*
Y311931D02*
X125000Y306731D01*
X272531D01*
X275800Y310000D01*
X289291D01*
X156000Y269600D02*
X167900D01*
X177300Y279000D01*
X231800D01*
X308800Y310000D02*
X320000D01*
X305200Y300000D02*
X320000D01*
X298600Y293400D02*
X305200Y300000D01*
X280200Y293400D02*
X298600D01*
X273700Y286900D02*
X280200Y293400D01*
X268626Y286900D02*
X273700D01*
X260726Y294800D02*
X268626Y286900D01*
X256000Y294800D02*
X260726D01*
X249900Y288700D02*
X256000Y294800D01*
X159500Y288700D02*
X249900D01*
X146000Y275200D02*
X159500Y288700D01*
X140000Y275200D02*
X146000D01*
X50000Y165000D02*
X96583D01*
X99583Y162000D01*
Y160000D02*
Y162000D01*
X281196Y300000D02*
X289291D01*
X273896Y292700D02*
X281196Y300000D01*
X265800Y292700D02*
X273896D01*
X261800Y296700D02*
X265800Y292700D01*
X249100Y296700D02*
X261800D01*
X244800Y292400D02*
X249100Y296700D01*
X152100Y292400D02*
X244800D01*
X145200Y285500D02*
X152100Y292400D01*
X201700Y261500D02*
X210200Y270000D01*
X289291D01*
X136800Y290000D02*
X138300Y291500D01*
X130291Y290000D02*
X136800D01*
X12100Y375000D02*
X20000D01*
X7100Y370000D02*
X12100Y375000D01*
X7100Y364000D02*
Y370000D01*
Y364000D02*
X11800Y359300D01*
X58600D01*
X93900Y324000D01*
X103900D01*
X104900Y323000D01*
Y307000D02*
Y323000D01*
X103900Y306000D02*
X104900Y307000D01*
X70700Y306000D02*
X103900D01*
X66600Y301900D02*
X70700Y306000D01*
X66600Y298600D02*
Y301900D01*
Y298600D02*
X79600Y285600D01*
X104600D01*
X112900Y293900D01*
Y297900D01*
X115000Y300000D01*
X130291D01*
X50000Y155000D02*
X74300D01*
X75600Y156300D01*
X113000D01*
X116700Y160000D01*
X130291D01*
X42700Y200000D02*
X99583D01*
X40000Y175000D02*
X50000Y185000D01*
X40000Y171600D02*
Y175000D01*
Y171600D02*
X42700Y168900D01*
X45300D01*
X46400Y170000D01*
X99583D01*
X130291Y310000D02*
X185700D01*
X222000Y346300D01*
X302700D01*
X306500Y350100D01*
X333000Y298000D02*
X344600Y286400D01*
X406300D01*
X130291Y230000D02*
X226132D01*
X229432Y233300D01*
X233600D01*
X99583Y280000D02*
X112000D01*
X126338Y294338D01*
X238904D01*
X243067Y298500D01*
X265600D01*
X267700Y296400D01*
X130291Y260000D02*
X185100D01*
X354000Y246200D02*
X355100Y245100D01*
X103000Y246200D02*
X354000D01*
X101600Y247600D02*
X103000Y246200D01*
X99583Y250000D02*
X101600D01*
X99583Y290000D02*
X104000D01*
X109100Y295100D01*
Y302657D01*
X111343Y304900D01*
X216000D01*
X221900Y299000D01*
X907200Y278600D02*
X921900Y293300D01*
X963800D01*
Y275600D02*
X965100Y276900D01*
X975200D01*
X977100Y275000D01*
X1009500D01*
X1013500Y279000D01*
X908602Y296000D02*
X911202Y298600D01*
X1042400D01*
X919500Y263000D02*
X923800Y267300D01*
X976250D01*
X977650Y268700D01*
X1019700D01*
X1021100Y270100D01*
X1034800D01*
X1038800Y274100D01*
X915700Y270900D02*
X937400D01*
X947607Y281107D01*
X1002300D01*
X925700Y259100D02*
X930300Y263700D01*
X944600D01*
X954400Y253900D01*
Y241740D02*
Y253900D01*
Y241740D02*
X959900Y236240D01*
Y234700D02*
Y236240D01*
Y234700D02*
X962869Y231731D01*
X1036631D01*
X1039900Y235000D01*
X1042687Y93300D02*
X1052400D01*
X1000887Y51500D02*
X1042687Y93300D01*
X997700Y51500D02*
X1000887D01*
X1040189Y104000D02*
X1045200D01*
X1000489Y64300D02*
X1040189Y104000D01*
X997000Y64300D02*
X1000489D01*
X967900Y67765D02*
X999965D01*
X1041100Y108900D01*
X990000Y103200D02*
X990600Y102600D01*
X990000Y103200D02*
Y127802D01*
X990198Y128000D01*
X1024000D01*
X1030500Y121500D01*
X1039000D01*
X1041200Y123700D01*
X993800Y70900D02*
X1034500Y111600D01*
X974700Y70900D02*
X993800D01*
X771600Y275700D02*
X780900Y266400D01*
X721400Y275700D02*
X771600D01*
X714200Y282900D02*
X721400Y275700D01*
X694200Y282900D02*
X714200D01*
X693000Y281700D02*
X694200Y282900D01*
X784400Y213800D02*
X789100Y218500D01*
X754500Y213800D02*
X784400D01*
X724700Y287500D02*
X754500D01*
X720300Y291900D02*
X724700Y287500D01*
X691700Y291900D02*
X720300D01*
X688400Y288600D02*
X691700Y291900D01*
X685600Y288600D02*
X688400D01*
X684100Y290100D02*
X685600Y288600D01*
X684100Y290100D02*
Y298100D01*
X687000Y301000D01*
X705700Y270500D02*
X709200Y267000D01*
X771100D01*
X773300Y264800D01*
X776300Y216700D02*
X782100Y222500D01*
X751800Y216700D02*
X776300D01*
X750800Y215700D02*
X751800Y216700D01*
X735100Y215700D02*
X750800D01*
X728900Y296000D02*
X734300Y290600D01*
X691600Y296000D02*
X728900D01*
X687000Y291400D02*
X691600Y296000D01*
X655569Y63400D02*
X658300D01*
X650969Y68000D02*
X655569Y63400D01*
X650969Y68000D02*
Y143937D01*
X648400Y146506D02*
X650969Y143937D01*
X648400Y146506D02*
Y193100D01*
X655300Y200000D01*
X626200Y71900D02*
X640800Y57300D01*
X616000Y305400D02*
X630700D01*
X613400Y308000D02*
X616000Y305400D01*
X613400Y308000D02*
Y358600D01*
X633700Y378900D01*
X684700D01*
X684900Y378700D01*
Y370400D02*
Y378700D01*
X625600Y364300D02*
X673600D01*
X616500Y355200D02*
X625600Y364300D01*
X616500Y328600D02*
Y355200D01*
Y328600D02*
X620800Y324300D01*
X629900D01*
X863484Y151100D02*
X871000Y143584D01*
X773100Y151100D02*
X863484D01*
X762700Y140700D02*
X773100Y151100D01*
X762700Y134600D02*
Y140700D01*
X769700Y104500D02*
X781000Y93200D01*
X769700Y104500D02*
Y143500D01*
X775300Y149100D01*
X858400D01*
X864400Y143100D01*
X783700Y106300D02*
X795000Y95000D01*
X783700Y106300D02*
Y124800D01*
X784400Y125500D01*
X811886D01*
X813886Y123500D01*
X818037D01*
X819500Y124963D01*
Y128037D01*
X817337Y130200D02*
X819500Y128037D01*
X807000Y130200D02*
X817337D01*
X805500Y131700D02*
X807000Y130200D01*
X805500Y131700D02*
Y134900D01*
X807000Y136400D01*
X857337D01*
X861137Y132600D01*
X884000D01*
X890200Y138800D01*
Y141600D01*
X888900Y142900D02*
X890200Y141600D01*
X880000Y142900D02*
X888900D01*
X879600Y142500D02*
X880000Y142900D01*
X867800Y107100D02*
X883400Y122700D01*
X860800Y107100D02*
X867800D01*
X858400Y109500D02*
X860800Y107100D01*
X835800Y109500D02*
X858400D01*
X806400Y80100D02*
X835800Y109500D01*
X806400Y62700D02*
Y80100D01*
X843500Y159900D02*
X849600Y153800D01*
X883800D01*
X900043Y170043D01*
X827300Y92300D02*
Y94200D01*
X833900Y100800D01*
X864600D01*
X882550Y118750D01*
X883774D01*
X886993Y121970D01*
X903270D01*
X906300Y125000D01*
X910478D01*
X919378Y133900D01*
X925000D01*
X926900Y135800D01*
Y172100D01*
X918900Y180100D02*
X926900Y172100D01*
X905900Y180100D02*
X918900D01*
X898403Y111000D02*
X907700D01*
X881100Y93697D02*
X898403Y111000D01*
X881100Y88100D02*
Y93697D01*
X880300Y87300D02*
X881100Y88100D01*
X898146Y103500D02*
X906300D01*
X884900Y90254D02*
X898146Y103500D01*
X884900Y63500D02*
Y90254D01*
X883900Y62500D02*
X884900Y63500D01*
X808400Y133600D02*
X852000D01*
X855500Y130100D01*
Y125900D02*
Y130100D01*
Y125900D02*
X860000Y121400D01*
X865300D01*
X866100Y122200D01*
X788800Y56300D02*
X801400D01*
X804400Y53300D01*
X853900D01*
X859000Y58400D01*
X794000Y120800D02*
X797600Y117200D01*
X839400D01*
X851700Y129500D01*
X787720Y296700D02*
X789820Y298800D01*
X847200D01*
X833500Y76000D02*
X844595Y87095D01*
X833500Y65700D02*
Y76000D01*
X830100Y62300D02*
X833500Y65700D01*
X818400Y62300D02*
X830100D01*
X818300Y62200D02*
X818400Y62300D01*
X884200Y391800D02*
X889000Y396600D01*
X875200Y391800D02*
X884200D01*
X837187Y392087D02*
X855000Y409900D01*
X800700Y392087D02*
X837187D01*
X799587Y393200D02*
X800700Y392087D01*
X788700Y393200D02*
X799587D01*
X787500Y392000D02*
X788700Y393200D01*
X766964Y392000D02*
X787500D01*
X732464Y426500D02*
X766964Y392000D01*
X678921Y426500D02*
X732464D01*
X678121Y425700D02*
X678921Y426500D01*
X842600Y445900D02*
X849452Y439048D01*
X687000Y445900D02*
X842600D01*
X685100Y447800D02*
X687000Y445900D01*
X685100Y447800D02*
Y452200D01*
X686900Y454000D01*
X692500D01*
X666020Y446280D02*
X668600Y443700D01*
X838200D01*
X838900Y443000D01*
X814600Y412900D02*
X818300Y416600D01*
X852600D01*
X853400Y417400D01*
Y442125D01*
X846687Y448839D02*
X853400Y442125D01*
X689000Y448839D02*
X846687D01*
X662500Y451400D02*
X667900Y456800D01*
X738971D01*
X744271Y451500D01*
X780183D01*
X783400Y454717D01*
Y468100D01*
X785600Y470300D01*
X792900D01*
X1031700Y445600D02*
X1049300Y428000D01*
X893300Y445600D02*
X1031700D01*
X889700Y442000D02*
X893300Y445600D01*
X889700Y440800D02*
Y442000D01*
X416260Y310200D02*
X539700D01*
X541900Y308000D01*
Y291000D02*
Y308000D01*
X1053536Y165000D02*
X1060354D01*
X1049100Y160564D02*
X1053536Y165000D01*
X1049100Y103630D02*
Y160564D01*
X1001970Y56500D02*
X1049100Y103630D01*
X997838Y56500D02*
X1001970D01*
X971232Y29893D02*
X997838Y56500D01*
X934499Y29893D02*
X971232D01*
X931906Y27300D02*
X934499Y29893D01*
X904800Y27300D02*
X931906D01*
X894500Y17000D02*
X904800Y27300D01*
X853300Y17000D02*
X894500D01*
X850000Y13700D02*
X853300Y17000D01*
X830000Y13700D02*
X850000D01*
X826700Y17000D02*
X830000Y13700D01*
X760800Y17000D02*
X826700D01*
X752800Y25000D02*
X760800Y17000D01*
X210000Y25000D02*
X752800D01*
X526991Y213600D02*
X535000Y205591D01*
X380400Y213600D02*
X526991D01*
X387400Y273100D02*
X438500D01*
X379300Y265000D02*
X387400Y273100D01*
X1060354Y205000D02*
X1070000D01*
X1082300Y192700D01*
X1042600Y72100D02*
X1056000Y58700D01*
X1043100Y216500D02*
X1044600Y215000D01*
X1060354D01*
X1049061Y235000D02*
X1060354D01*
X1043900Y229839D02*
X1049061Y235000D01*
X982100Y375900D02*
X997100Y390900D01*
X1021300D01*
X1060900Y361300D02*
X1071100Y351100D01*
Y300000D02*
Y351100D01*
X1066100Y295000D02*
X1071100Y300000D01*
X1060354Y295000D02*
X1066100D01*
X1060354Y315000D02*
X1066400D01*
X1068300Y316900D01*
X1060354Y325000D02*
X1061500D01*
X1068200Y331700D01*
X1060354Y345000D02*
X1061700D01*
X1061600Y348300D02*
Y351000D01*
X750000Y37600D02*
Y39646D01*
X729100Y6100D02*
X731200Y4000D01*
X1050600D01*
X1088700Y42100D01*
Y234100D01*
X1071500Y251300D02*
X1088700Y234100D01*
X1049400Y251300D02*
X1071500D01*
X1044300Y246200D02*
X1049400Y251300D01*
X1038700Y246200D02*
X1044300D01*
X1035300Y249600D02*
X1038700Y246200D01*
X1001014Y249600D02*
X1035300D01*
X908300Y308200D02*
X985000D01*
X899700Y316800D02*
X908300Y308200D01*
X899700Y316800D02*
Y318500D01*
X903900Y323100D02*
X906700Y320300D01*
X896200Y323100D02*
X903900D01*
X895000Y321900D02*
X896200Y323100D01*
X895000Y315700D02*
Y321900D01*
X892000Y312700D02*
X895000Y315700D01*
X890400Y312700D02*
X892000D01*
X864336Y286636D02*
X890400Y312700D01*
X816800Y286636D02*
X864336D01*
X815636Y287800D02*
X816800Y286636D01*
X799000Y287800D02*
X815636D01*
X794200Y292600D02*
X799000Y287800D01*
X760300Y292600D02*
X794200D01*
X740200Y312700D02*
X760300Y292600D01*
X729700Y45600D02*
X744900D01*
X745983Y46683D01*
X755017D01*
X760000Y41700D01*
Y39646D02*
Y41700D01*
X882200Y362500D02*
X906300Y338400D01*
X866100Y362500D02*
X882200D01*
X864300Y364300D02*
X866100Y362500D01*
X864300Y364300D02*
Y386900D01*
X861400Y389800D02*
X864300Y386900D01*
X842200Y389800D02*
X861400D01*
X838800Y386400D02*
X842200Y389800D01*
X733800Y386400D02*
X838800D01*
X709200Y411000D02*
X733800Y386400D01*
X613400Y72600D02*
X643700Y42300D01*
X745400D01*
X746731Y43631D01*
Y44883D01*
X753269D01*
X756700Y41451D01*
Y34440D02*
Y41451D01*
Y34440D02*
X756731Y34408D01*
X769000D01*
X770000Y35408D01*
Y39646D01*
X780000Y35308D02*
Y39646D01*
X777300Y32608D02*
X780000Y35308D01*
X755792Y32608D02*
X777300D01*
X754100Y34300D02*
X755792Y32608D01*
X732100Y34300D02*
X754100D01*
X754300Y12100D02*
X824400D01*
X826400Y10100D01*
X1034900D01*
X1059900Y35100D01*
X1034900Y348100D02*
X1052200Y365400D01*
X1034900Y311700D02*
Y348100D01*
X920520Y311700D02*
X1034900D01*
X913720Y318500D02*
X920520Y311700D01*
X790000Y35400D02*
Y39646D01*
X785550Y30950D02*
X790000Y35400D01*
X780100Y30950D02*
X785550D01*
X747100Y200400D02*
X766150D01*
X770050Y204300D01*
X782300D01*
X784000Y202600D01*
X799600D01*
X803600Y198600D01*
X808000Y284800D02*
X865500D01*
X890367Y309667D01*
X893551D01*
X896800Y312916D01*
Y319729D01*
X898371Y321300D01*
X901175D01*
X905075Y317400D01*
X908100D01*
X912000Y321300D01*
X918800D01*
X800000Y31700D02*
Y39646D01*
X810000D02*
Y43900D01*
X807867Y46033D02*
X810000Y43900D01*
X759350Y46033D02*
X807867D01*
X756900Y48483D02*
X759350Y46033D01*
X738200Y48483D02*
X756900D01*
X738200Y173300D02*
X778900D01*
X783000Y169200D01*
X793400D01*
X794300Y170100D01*
X842600D01*
X845300Y291500D02*
X860800D01*
X891400Y322100D01*
X929600Y254500D02*
X934100Y259000D01*
X913740Y254500D02*
X929600D01*
X907040Y261200D02*
X913740Y254500D01*
X790500Y261200D02*
X907040D01*
X782500Y269200D02*
X790500Y261200D01*
X781400Y269200D02*
X782500D01*
X772000Y278600D02*
X781400Y269200D01*
X730200Y278600D02*
X772000D01*
X735300Y57100D02*
X742100Y50300D01*
X793833D01*
X794533Y49600D01*
X814600D01*
X820000Y44200D01*
Y39646D02*
Y44200D01*
X840000Y23700D02*
Y39646D01*
X966300Y100000D02*
Y120200D01*
X850000Y39646D02*
Y44000D01*
X852200D02*
X865600Y57400D01*
Y89800D01*
X883491Y107691D01*
Y110491D01*
X889900Y116900D01*
X912600D01*
X922200Y126500D01*
X930100D01*
X953000Y149400D01*
X975061D01*
X917200Y56500D02*
X938245D01*
X904000Y43300D02*
X917200Y56500D01*
X904000Y34500D02*
Y43300D01*
X901900Y32400D02*
X904000Y34500D01*
X882100Y32400D02*
X901900D01*
X880000Y34500D02*
X882100Y32400D01*
X880000Y34500D02*
Y39646D01*
X992898Y125100D02*
X1006800D01*
X1012000Y119900D01*
Y114100D02*
Y119900D01*
X988468Y90568D02*
X1012000Y114100D01*
X965868Y90568D02*
X988468D01*
X950900Y75600D02*
X965868Y90568D01*
X897000Y75600D02*
X950900D01*
X896000Y74600D02*
X897000Y75600D01*
X896000Y58500D02*
Y74600D01*
X890000Y52500D02*
X896000Y58500D01*
X890000Y39646D02*
Y52500D01*
X900000Y35400D02*
Y39646D01*
X898900Y34300D02*
X900000Y35400D01*
X886800Y34300D02*
X898900D01*
X886600Y34500D02*
X886800Y34300D01*
X886600Y34500D02*
Y53500D01*
X893400Y60300D01*
Y75000D01*
X910400Y92000D01*
X914900D01*
X918900Y96000D01*
Y102300D01*
X918100Y103100D02*
X918900Y102300D01*
X918100Y103100D02*
Y110000D01*
X928400Y120300D01*
X938800D01*
X957400Y138900D01*
X993000D01*
X998200Y144100D01*
X900000Y64600D02*
Y70354D01*
Y64600D02*
X908400Y56200D01*
X732500Y208700D02*
X760400D01*
X761500Y209800D01*
X801600D01*
X890000Y70354D02*
Y76800D01*
X911300Y98100D01*
X916000D01*
X909400Y173200D02*
X914200Y168400D01*
X791600Y173200D02*
X909400D01*
X790700Y172300D02*
X791600Y173200D01*
X789600Y181500D02*
X835800D01*
X838300Y184000D01*
X923600D01*
X928700Y178900D01*
X935000Y122100D02*
X936100Y123200D01*
X927618Y122100D02*
X935000D01*
X913618Y108100D02*
X927618Y122100D01*
X898298Y108100D02*
X913618D01*
X883100Y92902D02*
X898298Y108100D01*
X883100Y84300D02*
Y92902D01*
X880000Y81200D02*
X883100Y84300D01*
X880000Y70354D02*
Y81200D01*
X810000Y57900D02*
Y70354D01*
X740600Y88700D02*
X791600D01*
X730500Y98800D02*
X740600Y88700D01*
X726000Y98800D02*
X730500D01*
X719100Y105700D02*
X726000Y98800D01*
X760000Y70354D02*
Y74300D01*
X758400Y75900D02*
X760000Y74300D01*
X736152Y75900D02*
X758400D01*
X733452Y73200D02*
X736152Y75900D01*
X708800Y73200D02*
X733452D01*
X705700Y76300D02*
X708800Y73200D01*
X665000Y163900D02*
X670354Y165000D01*
X665000Y147600D02*
Y163900D01*
Y147600D02*
X670400Y142200D01*
Y84000D02*
Y142200D01*
X662300Y95000D02*
Y137500D01*
X652200Y147600D02*
X662300Y137500D01*
X652200Y147600D02*
Y179300D01*
X659200Y186300D01*
Y190200D01*
X664000Y195000D01*
X670354D01*
X662000Y215000D02*
X670354D01*
X662400Y235400D02*
X662800Y235000D01*
X670354D01*
X662400Y255000D02*
X670354D01*
X662000Y255400D02*
X662400Y255000D01*
X631700Y338900D02*
X649000D01*
X660300Y350200D01*
X710500D01*
X710800Y349900D01*
X670354Y265000D02*
X686565D01*
X689765Y268200D01*
X692000Y321600D02*
X707900Y337500D01*
X665000Y321600D02*
X692000D01*
X656800Y313400D02*
X665000Y321600D01*
X656800Y280100D02*
Y313400D01*
Y280100D02*
X661900Y275000D01*
X670354D01*
X698800Y286800D02*
X701000Y289000D01*
X679500Y286800D02*
X698800D01*
X677700Y285000D02*
X679500Y286800D01*
X670354Y285000D02*
X677700D01*
X698800Y309700D02*
X701400Y307100D01*
X664100Y309700D02*
X698800D01*
X658600Y304200D02*
X664100Y309700D01*
X658600Y298100D02*
Y304200D01*
Y298100D02*
X661700Y295000D01*
X670354D01*
X748000Y247400D02*
X899300D01*
X745300Y250100D02*
X748000Y247400D01*
X738050Y294750D02*
X743300D01*
X717800Y315000D02*
X738050Y294750D01*
X670354Y315000D02*
X717800D01*
X908500Y122100D02*
X911194D01*
X919294Y130200D01*
X926700D01*
X931500Y135000D01*
Y183300D01*
X929000Y185800D02*
X931500Y183300D01*
X782100Y185800D02*
X929000D01*
X775000Y178700D02*
X782100Y185800D01*
X771700Y178700D02*
X775000D01*
X765600Y184800D02*
X771700Y178700D01*
X738100Y184800D02*
X765600D01*
X721000Y324200D02*
X737700Y307500D01*
X721000Y324200D02*
Y337400D01*
X715600Y342800D02*
X721000Y337400D01*
X679600Y342800D02*
X715600D01*
X677400Y345000D02*
X679600Y342800D01*
X670354Y345000D02*
X677400D01*
X907100Y130100D02*
Y135784D01*
X909569Y138253D01*
X920079D01*
X923100Y141274D01*
Y171900D01*
X918100Y176900D02*
X923100Y171900D01*
X770100Y176900D02*
X918100D01*
X766000Y181000D02*
X770100Y176900D01*
X744400Y181000D02*
X766000D01*
X713600Y352800D02*
X748800Y317600D01*
X656500Y352800D02*
X713600D01*
X648700Y345000D02*
X656500Y352800D01*
X639646Y345000D02*
X648700D01*
X639646Y335000D02*
X651331D01*
X664631Y348300D01*
X698200D01*
X701000Y345500D01*
X716400D01*
X749900Y312000D01*
Y176900D02*
X751700Y175100D01*
X915046D01*
X921100Y169046D01*
Y142400D02*
Y169046D01*
X918753Y140053D02*
X921100Y142400D01*
X903453Y140053D02*
X918753D01*
X890800Y127400D02*
X903453Y140053D01*
X876500Y93468D02*
X890800Y107768D01*
X876500Y50192D02*
Y93468D01*
X874900Y48592D02*
X876500Y50192D01*
X874900Y35300D02*
Y48592D01*
X867416Y29400D02*
X874900Y35300D01*
X860516Y22500D02*
X867416Y29400D01*
X848000Y22500D02*
X860516D01*
X844600Y19100D02*
X848000Y22500D01*
X836500Y19100D02*
X844600D01*
X833100Y22500D02*
X836500Y19100D01*
X783261Y22500D02*
X833100D01*
X774953Y30808D02*
X783261Y22500D01*
X695492Y30808D02*
X774953D01*
X692800Y33500D02*
X695492Y30808D01*
X646900Y33500D02*
X692800D01*
X616200Y64200D02*
X646900Y33500D01*
X616200Y309200D02*
X619900D01*
X635700Y325000D01*
X639646D01*
Y315000D02*
X644600D01*
X645500Y315900D01*
Y328100D01*
X644700Y328900D02*
X645500Y328100D01*
X627200Y328900D02*
X644700D01*
X626200Y329900D02*
X627200Y328900D01*
X619400Y329900D02*
X626200D01*
X626800Y31600D02*
X691100D01*
X693700Y29000D01*
X773161D01*
X781461Y20700D01*
X831300D01*
X834700Y17300D01*
X846400D01*
X849800Y20700D01*
X865431D01*
X876731Y32000D01*
Y47131D01*
X886700Y57100D01*
Y86300D01*
X900604Y100204D01*
X844600Y224100D02*
X901300D01*
X842400Y226300D02*
X844600Y224100D01*
X788000Y305900D02*
X835000D01*
X780900Y298800D02*
X788000Y305900D01*
X773584Y298800D02*
X780900D01*
X770284Y295500D02*
X773584Y298800D01*
X762636Y295500D02*
X770284D01*
X753136Y305000D02*
X762636Y295500D01*
X753136Y305000D02*
Y320664D01*
X718800Y355000D02*
X753136Y320664D01*
X631900Y355000D02*
X718800D01*
X628800Y351900D02*
X631900Y355000D01*
X628800Y337331D02*
Y351900D01*
Y337331D02*
X634431Y331700D01*
X646031D01*
X647300Y330431D01*
Y307900D02*
Y330431D01*
X644400Y305000D02*
X647300Y307900D01*
X639646Y305000D02*
X644400D01*
X639646Y295000D02*
X647200D01*
X653000Y300800D01*
Y323300D01*
X656643Y326943D01*
X663443D01*
X664900Y328400D01*
X676400D01*
X688739Y340739D01*
X709341D01*
X718225Y331855D01*
Y318763D02*
Y331855D01*
Y318763D02*
X738289Y298700D01*
X751653D01*
X760753Y289600D01*
X766028D01*
X792278Y263350D01*
X910350D01*
X917400Y256300D01*
X927121D01*
X932621Y261800D01*
X940000D01*
X943300Y258500D01*
X909061Y242500D02*
X911161Y240400D01*
X743500Y242500D02*
X909061D01*
X742500Y243500D02*
X743500Y242500D01*
X710500Y270600D02*
X740800D01*
X703700Y277400D02*
X710500Y270600D01*
X681500Y277400D02*
X703700D01*
X677400Y281500D02*
X681500Y277400D01*
X664000Y281500D02*
X677400D01*
X662000Y283500D02*
X664000Y281500D01*
X662000Y283500D02*
Y289300D01*
X656300Y329800D02*
X662000D01*
X650200Y323700D02*
X656300Y329800D01*
X650200Y306800D02*
Y323700D01*
X644000Y300600D02*
X650200Y306800D01*
X637000Y300600D02*
X644000D01*
X634400Y298000D02*
X637000Y300600D01*
X634400Y286000D02*
Y298000D01*
Y286000D02*
X635400Y285000D01*
X639646D01*
Y215000D02*
X645200D01*
X648700Y211500D01*
X679500D01*
X686515Y218515D01*
X772515D01*
X779300Y225300D01*
X787900D01*
X795600Y217600D01*
X824100D01*
X829000Y212700D01*
Y209200D02*
Y212700D01*
X822700Y202900D02*
X829000Y209200D01*
X817200Y202900D02*
X822700D01*
X634400Y194000D02*
X639646Y195000D01*
X634400Y181900D02*
Y194000D01*
Y181900D02*
X637900Y178400D01*
X644200D01*
X646600Y176000D01*
Y143300D02*
Y176000D01*
Y143300D02*
X649169Y140731D01*
Y63961D02*
Y140731D01*
Y63961D02*
X652630Y60500D01*
X668600D01*
X692800Y84700D01*
X792300D01*
X794600Y87000D01*
Y90000D01*
X781800Y102800D02*
X794600Y90000D01*
X781800Y102800D02*
Y126000D01*
X783900Y128100D01*
X814900D01*
X816600Y126400D01*
X639646Y185000D02*
X645200Y186000D01*
Y194104D01*
X653896Y202800D01*
X659600D01*
X662200Y200200D01*
X719600D01*
X725100Y205700D01*
X761970D01*
X764270Y208000D01*
X785972D01*
X787672Y206300D01*
X809800D01*
X816000Y200100D01*
X826928D01*
X828900Y202072D01*
X824700Y112000D02*
X831000D01*
X820900Y108200D02*
X824700Y112000D01*
X820900Y101500D02*
Y108200D01*
X795069Y75669D02*
X820900Y101500D01*
X795069Y64000D02*
Y75669D01*
X792586Y61517D02*
X795069Y64000D01*
X744021Y61517D02*
X792586D01*
X742038Y63500D02*
X744021Y61517D01*
X727786Y63500D02*
X742038D01*
X725886Y61600D02*
X727786Y63500D01*
X718699Y61600D02*
X725886D01*
X701299Y44200D02*
X718699Y61600D01*
X649317Y44200D02*
X701299D01*
X643700Y49817D02*
X649317Y44200D01*
X643700Y49817D02*
Y70400D01*
X632600Y81500D02*
X643700Y70400D01*
X632600Y81500D02*
Y172000D01*
X635600Y175000D01*
X639646D01*
X799100Y120500D02*
X816102D01*
X795900Y123700D02*
X799100Y120500D01*
X788100Y123700D02*
X795900D01*
X785500Y121100D02*
X788100Y123700D01*
X785500Y116000D02*
Y121100D01*
Y116000D02*
X788100Y113400D01*
X817200D01*
X818600Y112000D01*
Y101915D02*
Y112000D01*
X793269Y76584D02*
X818600Y101915D01*
X793269Y65117D02*
Y76584D01*
X791469Y63317D02*
X793269Y65117D01*
X745000Y63317D02*
X791469D01*
X742917Y65400D02*
X745000Y63317D01*
X726086Y65400D02*
X742917D01*
X724086Y63400D02*
X726086Y65400D01*
X713000Y63400D02*
X724086D01*
X700100Y50500D02*
X713000Y63400D01*
X645900Y50500D02*
X700100D01*
X645569Y50831D02*
X645900Y50500D01*
X645569Y50831D02*
Y125200D01*
X634400Y136369D02*
X645569Y125200D01*
X634400Y136369D02*
Y157600D01*
X639646Y162846D01*
Y165000D01*
X814300Y102000D02*
Y110200D01*
X794117Y81817D02*
X814300Y102000D01*
X692464Y81817D02*
X794117D01*
X662947Y52300D02*
X692464Y81817D01*
X651900Y52300D02*
X662947D01*
X647369Y56831D02*
X651900Y52300D01*
X647369Y56831D02*
Y133157D01*
X644700Y135826D02*
X647369Y133157D01*
X643900Y155000D02*
X644700Y135826D01*
X639646Y155000D02*
X643900D01*
X940000Y460354D02*
Y463400D01*
X863536Y288436D02*
X891500Y316400D01*
X818550Y288436D02*
X863536D01*
X817286Y289700D02*
X818550Y288436D01*
X802671Y289700D02*
X817286D01*
X796471Y295900D02*
X802671Y289700D01*
X794000Y295900D02*
X796471D01*
X890000Y460354D02*
Y473300D01*
X882279Y481021D02*
X890000Y473300D01*
X875081Y481021D02*
X882279D01*
X873360Y479300D02*
X875081Y481021D01*
X648142Y479300D02*
X873360D01*
X627000Y458158D02*
X648142Y479300D01*
X627000Y437200D02*
Y458158D01*
Y437200D02*
X628700Y435500D01*
X635200D01*
X706800Y363900D01*
X719200D01*
X779900Y303200D01*
X820000Y460354D02*
Y466000D01*
X821400Y467400D01*
X864000D01*
X866600Y464800D01*
Y455200D02*
Y464800D01*
Y455200D02*
X878600Y443200D01*
X884400D01*
X876900Y373800D02*
X898064Y394964D01*
X869000Y373800D02*
X876900D01*
X820954Y472800D02*
X871100D01*
X814800Y466646D02*
X820954Y472800D01*
X814800Y455900D02*
Y466646D01*
X812100Y453200D02*
X814800Y455900D01*
X792100Y453200D02*
X812100D01*
X790000Y455300D02*
X792100Y453200D01*
X790000Y455300D02*
Y460354D01*
X780000Y457400D02*
Y460354D01*
X775917Y453317D02*
X780000Y457400D01*
X754900Y453317D02*
X775917D01*
X753100Y455117D02*
X754900Y453317D01*
X746100Y455117D02*
X753100D01*
X742617Y458600D02*
X746100Y455117D01*
X660200Y458600D02*
X742617D01*
X651000Y449400D02*
X660200Y458600D01*
X642600Y449400D02*
X651000D01*
X641100Y447900D02*
X642600Y449400D01*
X641100Y441800D02*
Y447900D01*
Y441800D02*
X644000Y438900D01*
Y435200D02*
Y438900D01*
Y435200D02*
X644100Y435100D01*
X770000Y456117D02*
Y460354D01*
X769000Y455117D02*
X770000Y456117D01*
X756731Y455117D02*
X769000D01*
X756731D02*
Y462000D01*
X753131Y465600D02*
X756731Y462000D01*
X746700Y465600D02*
X753131D01*
X743400Y462300D02*
X746700Y465600D01*
X651000Y462300D02*
X743400D01*
X641800Y453100D02*
X651000Y462300D01*
X637500Y453100D02*
X641800D01*
X633500Y449100D02*
X637500Y453100D01*
X633500Y444200D02*
Y449100D01*
X760000Y427700D02*
Y429646D01*
X754908Y422608D02*
X760000Y427700D01*
X744931Y422608D02*
X754908D01*
X734440Y433100D02*
X744931Y422608D01*
X646832Y433100D02*
X734440D01*
X645932Y432200D02*
X646832Y433100D01*
X641285Y432200D02*
X645932D01*
X635185Y438300D02*
X641285Y432200D01*
X630000Y438300D02*
X635185D01*
X770000Y425400D02*
Y429646D01*
X765408Y420808D02*
X770000Y425400D01*
X743131Y420808D02*
X765408D01*
X732640Y431300D02*
X743131Y420808D01*
X664600Y431300D02*
X732640D01*
X662500Y429200D02*
X664600Y431300D01*
X800000Y422350D02*
Y429646D01*
X796100Y418450D02*
X800000Y422350D01*
X796100Y411200D02*
Y418450D01*
X787200Y402300D02*
X796100Y411200D01*
X778300Y402300D02*
X787200D01*
X809000Y434900D02*
X810000Y429646D01*
X797400Y434900D02*
X809000D01*
X793400Y430900D02*
X797400Y434900D01*
X793400Y413000D02*
Y430900D01*
X793300Y412900D02*
X793400Y413000D01*
X789600Y382400D02*
X804400Y367600D01*
X808400D01*
X781400Y394900D02*
X782800D01*
X809100Y421200D01*
X816000D01*
X820000Y425200D01*
Y429646D01*
X781600Y410200D02*
Y423300D01*
X783269Y424969D01*
Y435069D01*
X787900Y439700D01*
X828084D01*
X830984Y436800D01*
X839900D01*
X841790Y434910D01*
X843300D01*
Y424400D02*
Y434910D01*
X831000Y424400D02*
X843300D01*
X830000Y425400D02*
X831000Y424400D01*
X830000Y425400D02*
Y429646D01*
X880000D02*
Y434000D01*
X882000Y436000D01*
X890951D01*
X893179Y438229D01*
Y441779D01*
X895000Y443600D01*
X1026502D01*
X1033402Y436700D01*
X991900Y421200D02*
X998300Y427600D01*
X892000Y421200D02*
X991900D01*
X890000Y423200D02*
X892000Y421200D01*
X890000Y423200D02*
Y429646D01*
X900000D02*
Y434200D01*
X902500Y436700D01*
X995700D01*
X996700Y437700D01*
X1001300D01*
X1003900Y435100D01*
X1013304D01*
X940000Y429600D02*
Y429646D01*
X962200Y430700D02*
X971700D01*
X550000Y70000D02*
X593100Y26900D01*
X761500D02*
X769500Y18900D01*
X828400D01*
X831800Y15500D01*
X848200D01*
X851600Y18900D01*
X878900D01*
X889100Y29100D01*
X915900D01*
X920000Y33200D01*
Y39646D01*
X682800Y129900D02*
Y148700D01*
Y129900D02*
X689300Y123400D01*
X612300Y28800D02*
X687100D01*
X571100Y70000D02*
X612300Y28800D01*
X550000Y70000D02*
X571100D01*
X130291Y140000D02*
X188000D01*
X190000Y142000D01*
X1066100Y245000D02*
X1069100Y248000D01*
X1060354Y245000D02*
X1066100D01*
X940000Y70354D02*
Y72400D01*
X955800D02*
X966700Y83300D01*
X992200D01*
X1028600Y119700D01*
X1042600D01*
X1044700Y121800D01*
Y168083D01*
X1055017Y178400D01*
X1072500D01*
X1085100Y191000D01*
Y197438D01*
X1073238Y209300D02*
X1085100Y197438D01*
X1043000Y209300D02*
X1073238D01*
X1040300Y212000D02*
X1043000Y209300D01*
X1040300Y212000D02*
Y230200D01*
X1043065Y232965D01*
Y244300D01*
X1036900Y245000D02*
X1037600Y244300D01*
X940000Y59300D02*
Y70354D01*
Y59300D02*
X941100Y58200D01*
Y55000D02*
Y58200D01*
X940000Y53900D02*
X941100Y55000D01*
X940000Y39646D02*
Y53900D01*
X901239Y199039D02*
X905239D01*
X912500Y206300D01*
X875800Y197800D02*
X900000D01*
X726900Y197500D02*
X731026Y193374D01*
X768274D01*
X770400Y195500D01*
X846000Y201800D02*
X871800D01*
X839100Y194900D02*
X846000Y201800D01*
X801700Y194900D02*
X839100D01*
X795900Y200700D02*
X801700Y194900D01*
X771500Y200700D02*
X795900D01*
X770964Y201236D02*
X771500Y200700D01*
X1032102Y28602D02*
Y65398D01*
X1026000Y71500D02*
X1032102Y65398D01*
X677000Y422700D02*
X706916D01*
X673600Y426100D02*
X677000Y422700D01*
X673300Y428500D02*
X673600D01*
X1026000Y27000D02*
Y71500D01*
X937300Y27000D02*
X1026000D01*
X923400Y136400D02*
X923957Y136957D01*
X918078Y136400D02*
X923400D01*
X908478Y126800D02*
X918078Y136400D01*
X897865Y126800D02*
X908478D01*
X895267Y124202D02*
X897865Y126800D01*
X887498Y124202D02*
X895267D01*
X886100Y125600D02*
X887498Y124202D01*
X879757Y125600D02*
X886100D01*
X864200Y110043D02*
X879757Y125600D01*
X859043Y115200D02*
X864200Y110043D01*
X791143Y115200D02*
X859043D01*
X788300Y118043D02*
X791143Y115200D01*
X882100Y397500D02*
X890300Y405700D01*
X1004200Y352700D02*
X1060200Y408700D01*
X879800Y147100D02*
X918200D01*
X871834Y139134D02*
X879800Y147100D01*
X861000Y139134D02*
X871834D01*
X859234Y140900D02*
X861000Y139134D01*
X772500Y140900D02*
X859234D01*
X996457Y101561D02*
Y106300D01*
X988296Y93400D02*
X996457Y101561D01*
X946700Y93400D02*
X988296D01*
X927800Y112300D02*
X946700Y93400D01*
X673000Y417400D02*
X677300Y413100D01*
Y410900D02*
X709300Y378900D01*
X729100D01*
X739000Y357900D02*
Y372900D01*
Y357900D02*
X757200Y339700D01*
X811800D01*
X837900Y313600D01*
Y304100D02*
Y313600D01*
X776300Y295900D02*
X780800D01*
X677300Y410900D02*
Y413100D01*
X944100Y238900D02*
X952700D01*
X936200Y246800D02*
X944100Y238900D01*
X741843Y163300D02*
X776043D01*
X703543Y125000D02*
X741843Y163300D01*
X824900Y15200D02*
X828200Y11900D01*
X914300D02*
X918400Y16000D01*
X915800Y59800D02*
X925000D01*
X913700Y61900D02*
X915800Y59800D01*
X940703Y11900D02*
X943903Y15100D01*
X604402Y15200D02*
X824900D01*
X1004400Y416500D02*
Y426200D01*
X347600Y251900D02*
Y278100D01*
X1029646Y275000D02*
X1033800D01*
X1035800Y277000D01*
X1039900D01*
X1042000Y274900D01*
Y270100D02*
Y274900D01*
X1040200Y268300D02*
X1042000Y270100D01*
X1021900Y268300D02*
X1040200D01*
X1020500Y266900D02*
X1021900Y268300D01*
X981900Y266900D02*
X1020500D01*
X978200Y263200D02*
X981900Y266900D01*
X966800Y263200D02*
X978200D01*
X966700Y263100D02*
X966800Y263200D01*
X1067700Y191600D02*
X1068200Y192100D01*
X1043400Y191600D02*
X1067700D01*
X1041600Y189800D02*
X1043400Y191600D01*
X1041600Y178000D02*
Y189800D01*
X1038600Y175000D02*
X1041600Y178000D01*
X1029646Y175000D02*
X1038600D01*
X658500D02*
X664600Y181100D01*
X677500D01*
X687900Y191500D01*
X798574Y191200D01*
X981800D01*
X995600Y205000D01*
X1029646D01*
X758300Y351200D02*
X827000D01*
X846900Y331300D01*
X911460D01*
X916097Y335937D01*
Y340597D01*
X954539Y379039D01*
X963336D01*
X1017375Y325000D01*
X1029646D01*
X781300Y362400D02*
X786700Y357000D01*
X825700D01*
X848400Y334300D01*
X908000D01*
X910700Y337000D01*
Y353700D01*
X938800Y381800D01*
X964200D01*
X1011000Y335000D01*
X1029646D01*
X982800Y265000D02*
X1029646D01*
X978100Y260300D02*
X982800Y265000D01*
X954400Y59700D02*
X1000100D01*
X950900Y56200D02*
X954400Y59700D01*
X1011484Y285000D02*
X1029646D01*
X1003284Y276800D02*
X1011484Y285000D01*
X978600Y276800D02*
X1003284D01*
X976600Y278800D02*
X978600Y276800D01*
X952300Y278800D02*
X976600D01*
X949863Y276363D02*
X952300Y278800D01*
X1025400Y185000D02*
X1029646D01*
X1024300Y186100D02*
X1025400Y185000D01*
X1024300Y186100D02*
Y198200D01*
X1024500Y198400D01*
X1035900D01*
X1038300Y196000D01*
Y192700D02*
Y196000D01*
X1004500Y345000D02*
X1029646D01*
X949500Y400000D02*
X1004500Y345000D01*
X933000Y400000D02*
X949500D01*
X918300Y385300D02*
X933000Y400000D01*
X875500Y477400D02*
X876200Y478100D01*
X776900Y477400D02*
X875500D01*
X768700Y469200D02*
X776900Y477400D01*
X1056000Y175000D02*
X1060354D01*
X1046900Y165900D02*
X1056000Y175000D01*
X1046900Y120000D02*
Y165900D01*
X1044800Y117900D02*
X1046900Y120000D01*
X1030100Y117900D02*
X1044800D01*
X990500Y78300D02*
X1030100Y117900D01*
X966900Y78300D02*
X990500D01*
X945000Y56400D02*
X966900Y78300D01*
X957900Y324300D02*
X967200Y315000D01*
X909500Y325000D02*
X957900Y324300D01*
X907800Y326700D02*
X909500Y325000D01*
X765000Y365100D02*
X765200Y365300D01*
X791500D02*
X794000Y362800D01*
X788700Y360600D02*
X863000D01*
X784000Y365300D02*
X788700Y360600D01*
X727000Y106200D02*
Y119678D01*
X762522Y155200D01*
X791800D01*
X796516Y159916D01*
X675500Y74400D02*
X697100Y96000D01*
X727700D01*
X974300Y379200D02*
X998400Y403300D01*
X1047200D01*
X1057400Y413500D01*
X1062000D01*
X1063100Y414600D01*
Y419600D01*
X1062140Y420560D02*
X1063100Y419600D01*
X1056500Y420560D02*
X1062140D01*
X1055540Y419600D02*
X1056500Y420560D01*
X1034884Y419600D02*
X1055540D01*
X1027600Y426884D02*
X1034884Y419600D01*
X812800Y294900D02*
X856121D01*
X886221Y325000D01*
X940091D02*
X970100Y355009D01*
X964200Y374500D02*
X970100Y368600D01*
X958100Y374500D02*
X964200D01*
X962700Y315000D02*
X967200D01*
X251701Y286401D02*
X257300Y292000D01*
X163971Y286401D02*
X251701D01*
X143569Y266000D02*
X163971Y286401D01*
X109800Y266000D02*
X143569D01*
X103800Y260000D02*
X109800Y266000D01*
X99583Y260000D02*
X103800D01*
X889650Y297550D02*
X895631Y303531D01*
X990804D01*
X992273Y305000D01*
X1029646D01*
Y155000D02*
X1038300D01*
X690100Y185000D02*
X694500Y189400D01*
X933400D01*
X957800Y165000D01*
X1029646D01*
Y195000D02*
X1035100Y194000D01*
Y181700D02*
Y194000D01*
X1028100Y181700D02*
X1035100D01*
X1024400Y178000D02*
X1028100Y181700D01*
X1024400Y172000D02*
Y178000D01*
Y172000D02*
X1026400Y170000D01*
X1032900D01*
X1034900Y168000D01*
Y162000D02*
Y168000D01*
X1033400Y160500D02*
X1034900Y162000D01*
X1025400Y160500D02*
X1033400D01*
X1001600Y136700D02*
X1025400Y160500D01*
X957746Y136700D02*
X1001600D01*
X936146Y115100D02*
X957746Y136700D01*
X925900Y115100D02*
X936146D01*
X921000Y110200D02*
X925900Y115100D01*
X921000Y108700D02*
Y110200D01*
X887400Y280300D02*
X904178D01*
X920678Y296800D01*
X998671D01*
X1000471Y295000D01*
X1029646D01*
X130291Y210000D02*
X138100D01*
X138300Y209800D01*
X122600Y340000D02*
X130291D01*
X117600Y345000D02*
X122600Y340000D01*
X49300Y399600D02*
X95200D01*
X44900Y404000D02*
X49300Y399600D01*
X44900Y404000D02*
Y420100D01*
X20000Y445000D02*
X44900Y420100D01*
X99583Y340000D02*
X111987D01*
X113187Y341200D01*
X117526D01*
X118726Y340000D01*
X88300Y353900D02*
Y362800D01*
Y353900D02*
X92200Y350000D01*
X99583D01*
X84700Y310000D02*
X99583D01*
X65200Y329500D02*
X84700Y310000D01*
X40000Y329500D02*
X65200D01*
X35600Y333900D02*
X40000Y329500D01*
X35600Y333900D02*
Y352300D01*
X125400Y320000D02*
X130291D01*
X117000Y328400D02*
X125400Y320000D01*
X106500Y330000D02*
X114800Y338300D01*
X41200Y339400D02*
X64400D01*
X83800Y320000D01*
X99583D01*
X116000Y296400D02*
X116200Y296200D01*
X237700D01*
X244900Y303400D01*
X292000D01*
X294600Y306000D01*
Y323300D01*
X288000D02*
X294600D01*
X284000Y327300D02*
X288000Y323300D01*
X284000Y327300D02*
Y343300D01*
X309300D01*
X316000Y350000D01*
X320000D01*
X9900Y367300D02*
X12000Y369400D01*
X78900Y369200D01*
X320100D01*
X325300Y364000D01*
Y357000D02*
Y364000D01*
X324100Y355800D02*
X325300Y357000D01*
X303314Y355800D02*
X324100D01*
X297514Y350000D02*
X303314Y355800D01*
X289291Y350000D02*
X297514D01*
X50000Y415000D02*
X107000D01*
X233000Y258900D02*
X241900Y250000D01*
X289291D01*
X315700Y340000D02*
X320000D01*
X314700Y339000D02*
X315700Y340000D01*
X314700Y316000D02*
Y339000D01*
Y316000D02*
X315700Y315000D01*
X324100D01*
X327100Y312000D01*
Y294963D02*
Y312000D01*
X326937Y294800D02*
X327100Y294963D01*
X313926Y294800D02*
X326937D01*
X295526Y276400D02*
X313926Y294800D01*
X238520Y276400D02*
X295526D01*
X236400Y274280D02*
X238520Y276400D01*
X181580Y274280D02*
X236400D01*
X170600Y263300D02*
X181580Y274280D01*
X120000Y263300D02*
X170600D01*
X110000Y253300D02*
X120000Y263300D01*
X94000Y253300D02*
X110000D01*
X91200Y250500D02*
X94000Y253300D01*
X289291Y340000D02*
X296600D01*
X300800Y335800D01*
Y312000D02*
Y335800D01*
Y312000D02*
X307800Y305000D01*
X325300Y304000D01*
Y296700D02*
Y304000D01*
X306600Y296700D02*
X325300D01*
X296300Y286400D02*
X306600Y296700D01*
X281300Y286400D02*
X296300D01*
X277200Y282300D02*
X281300Y286400D01*
X172100Y282300D02*
X277200D01*
X162300Y272500D02*
X172100Y282300D01*
X50000Y125000D02*
X162300D01*
X304700Y250000D02*
X320000D01*
X299100Y255600D02*
X304700Y250000D01*
X240800Y255600D02*
X299100D01*
X234700Y261700D02*
X240800Y255600D01*
X230200Y261700D02*
X234700D01*
X221000Y252500D02*
X230200Y261700D01*
X208800Y252500D02*
X221000D01*
X50000Y405000D02*
X105100D01*
X271700Y240000D02*
X289291D01*
X268500Y243200D02*
X271700Y240000D01*
X185100Y243200D02*
X268500D01*
X304700Y230000D02*
X320000D01*
X300700Y234000D02*
X304700Y230000D01*
X244500Y234000D02*
X300700D01*
X242400Y236100D02*
X244500Y234000D01*
X114200Y236100D02*
X242400D01*
X104831Y226731D02*
X114200Y236100D01*
X83969Y226731D02*
X104831D01*
X78200Y232500D02*
X83969Y226731D01*
X18400Y232500D02*
X78200D01*
X13800Y227900D02*
X18400Y232500D01*
X13800Y191200D02*
Y227900D01*
Y191200D02*
X20000Y185000D01*
Y205000D02*
X34253Y219253D01*
X52000D01*
X57653Y213600D01*
X311494D01*
X313894Y216000D01*
X324300D01*
X325400Y217100D01*
Y223500D01*
X325300Y223600D02*
X325400Y223500D01*
X298400Y223600D02*
X325300D01*
X294800Y220000D02*
X298400Y223600D01*
X289291Y220000D02*
X294800D01*
X20000Y175000D02*
X36800Y191800D01*
Y206800D01*
X40000Y210000D01*
X91000D01*
X94400Y206600D01*
X298300D01*
X301700Y210000D01*
X320000D01*
X138000Y184000D02*
X150000Y196000D01*
X300700D01*
X304700Y200000D01*
X320000D01*
X138200Y176000D02*
X155600Y193400D01*
X301300D01*
X304700Y190000D01*
X320000D01*
X20000Y105000D02*
X25600Y110600D01*
X60200D01*
X67200Y117600D01*
X199700D01*
X262100Y180000D01*
X289291D01*
X21400Y15600D02*
X84200D01*
X99100Y30500D01*
X298600D01*
X344100Y76000D01*
X387900D01*
X389900Y78000D01*
Y117300D01*
X337200Y170000D02*
X389900Y117300D01*
X320000Y170000D02*
X337200D01*
X69400Y37400D02*
X250500D01*
X329900Y116800D01*
Y156000D01*
X325900Y160000D02*
X329900Y156000D01*
X320000Y160000D02*
X325900D01*
X274500Y150000D02*
X289291D01*
X220900Y96400D02*
X274500Y150000D01*
X169507Y96400D02*
X220900D01*
X152407Y79300D02*
X169507Y96400D01*
X36000Y79300D02*
X152407D01*
X29000Y72300D02*
X36000Y79300D01*
X29000Y54000D02*
Y72300D01*
X20000Y45000D02*
X29000Y54000D01*
X20000Y25000D02*
X42000D01*
X47700Y30700D01*
X52000D01*
X69000Y47700D01*
X239800D01*
X328000Y135900D01*
Y142100D01*
X326800Y143300D02*
X328000Y142100D01*
X314031Y143300D02*
X326800D01*
X312731Y142000D02*
X314031Y143300D01*
X291300Y142000D02*
X312731D01*
X289291Y140000D02*
X291300D01*
X128300Y270000D02*
X130291D01*
X121700Y276600D02*
X128300Y270000D01*
X84412Y276600D02*
X121700D01*
X60512Y300500D02*
X84412Y276600D01*
X47700Y300500D02*
X60512D01*
X40200Y308000D02*
X47700Y300500D01*
X40200Y308000D02*
Y322000D01*
X27900Y334300D02*
X40200Y322000D01*
X27900Y334300D02*
Y341100D01*
X24000Y345000D02*
X27900Y341100D01*
X20000Y345000D02*
X24000D01*
X88425Y270000D02*
X99583D01*
X68100Y290325D02*
X88425Y270000D01*
X46075Y290325D02*
X68100D01*
X28000Y308400D02*
X46075Y290325D01*
X28000Y308400D02*
Y330800D01*
X24800Y334000D02*
X28000Y330800D01*
X24800Y334000D02*
Y338000D01*
X22800Y340000D02*
X24800Y338000D01*
X17700Y340000D02*
X22800D01*
X15600Y342100D02*
X17700Y340000D01*
X15600Y342100D02*
Y350600D01*
X20000Y355000D01*
X50000Y95000D02*
X53700Y98700D01*
X160000D01*
X206300Y309600D02*
X216700Y320000D01*
X289291D01*
X10000Y389500D02*
X315800D01*
X327200Y378100D01*
Y322000D02*
Y378100D01*
X325200Y320000D02*
X327200Y322000D01*
X320000Y320000D02*
X325200D01*
X210200Y265300D02*
X296000D01*
X300000Y269300D01*
Y273500D01*
X306500Y280000D01*
X320000D01*
X50000Y385000D02*
X313500D01*
X341400Y253400D02*
Y273200D01*
Y253400D02*
X346800Y248000D01*
X357800D01*
X358000Y247800D01*
Y242100D02*
Y247800D01*
X355900Y240000D02*
X358000Y242100D01*
X320000Y240000D02*
X355900D01*
X281100Y290000D02*
X289291D01*
X341100Y183500D02*
Y225000D01*
X332000Y174400D02*
X341100Y183500D01*
X316000Y174400D02*
X332000D01*
X314700Y173100D02*
X316000Y174400D01*
X314700Y157000D02*
Y173100D01*
Y157000D02*
X316000Y155700D01*
X324000D01*
X326400Y153300D01*
Y147900D02*
Y153300D01*
X325000Y146500D02*
X326400Y147900D01*
X284800Y146500D02*
X325000D01*
X231600Y93300D02*
X284800Y146500D01*
X172200Y93300D02*
X231600D01*
X149500Y70600D02*
X172200Y93300D01*
X81000Y70600D02*
X149500D01*
X61000Y50600D02*
X81000Y70600D01*
X33753Y50600D02*
X61000D01*
X23900Y40747D02*
X33753Y50600D01*
X18000Y40747D02*
X23900D01*
X15600Y38347D02*
X18000Y40747D01*
X15600Y33100D02*
Y38347D01*
Y33100D02*
X18100Y30600D01*
X42200D01*
X46600Y35000D01*
X50000D01*
X179300Y276100D02*
X234620D01*
X238520Y280000D01*
X289291D01*
X121200Y200000D02*
X130291D01*
X117800Y203400D02*
X121200Y200000D01*
X87300Y203400D02*
X117800D01*
X300100Y140000D02*
X320000D01*
X226400Y66300D02*
X300100Y140000D01*
X81297Y66300D02*
X226400D01*
X54297Y39300D02*
X81297Y66300D01*
X31429Y39300D02*
X54297D01*
X31076Y38947D02*
X31429Y39300D01*
X23947Y38947D02*
X31076D01*
X20000Y35000D02*
X23947Y38947D01*
X86200Y190000D02*
X99583D01*
X71647Y184700D02*
X102100D01*
X107400Y190000D01*
X130291D01*
X120200Y180000D02*
X130291D01*
X116800Y176600D02*
X120200Y180000D01*
X94400Y176600D02*
X116800D01*
X93900Y177100D02*
X94400Y176600D01*
X54200Y177100D02*
X93900D01*
X51900Y179400D02*
X54200Y177100D01*
X48089Y179400D02*
X51900D01*
X43700Y175011D02*
X48089Y179400D01*
X43700Y172000D02*
Y175011D01*
X87204Y180000D02*
X99583D01*
X50000Y175000D02*
X93500D01*
X94800Y173700D01*
X113000D01*
X116700Y170000D01*
X130291D01*
X360500Y299700D02*
X369200Y291000D01*
X101600Y247600D02*
Y250000D01*
X1058400Y282600D02*
Y285000D01*
Y301600D02*
Y305000D01*
X1061699Y345041D02*
X1061700Y345000D01*
X1061600Y348300D02*
X1061699Y345041D01*
X725100Y37600D02*
X750000D01*
X850000Y44000D02*
X852200D01*
X698800Y70300D02*
X750000D01*
X639600Y232500D02*
Y235000D01*
X940000Y463400D02*
X948100D01*
X930000Y458400D02*
X933400D01*
X840000Y462300D02*
X842200D01*
X940000Y429600D02*
X940002Y429600D01*
X962200Y430700D01*
X288800Y360000D02*
Y366100D01*
X593100Y26900D02*
X761500D01*
X940000Y72400D02*
X955800D01*
X1037600Y244300D02*
X1043065D01*
X1046000D01*
X673600Y426100D02*
Y428500D01*
X900000Y197800D02*
X901239Y199039D01*
X908500Y206300D01*
X912500D01*
X989700D01*
X868000Y397500D02*
X882100D01*
X685500Y178600D02*
X693600D01*
X738525Y389800D02*
X838113D01*
X828200Y11900D02*
X914300D01*
X940703D01*
X835300Y301500D02*
X837900Y304100D01*
X863300Y329500D01*
X838113Y389800D02*
X838600Y390287D01*
X839913Y391600D01*
X765200Y365300D02*
X784000D01*
X791500D01*
X958100Y374500D02*
X970100Y362500D01*
X1017600Y315000D01*
X967200D02*
X1017600D01*
X1029646D01*
X886221Y325000D02*
X909500D01*
X940091D01*
X970100Y355009D02*
Y362500D01*
Y368600D01*
X118726Y340000D02*
X122600D01*
X99583Y330000D02*
X106500D01*
X114223D01*
X291300Y140000D02*
Y142000D01*
X0Y0D02*
Y500000D01*
X1100000D01*
Y0D02*
Y500000D01*
X0Y0D02*
X1100000D01*
D22*
X75000Y25000D02*
D03*
Y475000D02*
D03*
D23*
X210000Y25000D02*
D03*
D24*
X190000D02*
D03*
D25*
X350000Y70000D02*
D03*
X460000D02*
D03*
X350000Y370000D02*
D03*
X460000D02*
D03*
X450000Y400000D02*
D03*
X430000Y40000D02*
D03*
D26*
X360000Y70000D02*
D03*
X380000D02*
D03*
X390000D02*
D03*
X400000D02*
D03*
X410000D02*
D03*
X420000D02*
D03*
X430000D02*
D03*
X440000D02*
D03*
X370000D02*
D03*
X470000D02*
D03*
X490000D02*
D03*
X500000D02*
D03*
X510000D02*
D03*
X520000D02*
D03*
X530000D02*
D03*
X540000D02*
D03*
X550000D02*
D03*
X480000D02*
D03*
X360000Y370000D02*
D03*
X380000D02*
D03*
X390000D02*
D03*
X400000D02*
D03*
X410000D02*
D03*
X420000D02*
D03*
X430000D02*
D03*
X440000D02*
D03*
X370000D02*
D03*
X470000D02*
D03*
X490000D02*
D03*
X500000D02*
D03*
X510000D02*
D03*
X520000D02*
D03*
X530000D02*
D03*
X540000D02*
D03*
X550000D02*
D03*
X480000D02*
D03*
X430000Y400000D02*
D03*
X440000D02*
D03*
X20000Y475000D02*
D03*
Y465000D02*
D03*
Y455000D02*
D03*
Y445000D02*
D03*
Y435000D02*
D03*
Y425000D02*
D03*
Y415000D02*
D03*
Y405000D02*
D03*
Y395000D02*
D03*
Y385000D02*
D03*
Y375000D02*
D03*
Y365000D02*
D03*
Y355000D02*
D03*
Y345000D02*
D03*
Y335000D02*
D03*
Y325000D02*
D03*
Y315000D02*
D03*
Y305000D02*
D03*
Y295000D02*
D03*
X50000Y475000D02*
D03*
Y465000D02*
D03*
Y455000D02*
D03*
Y445000D02*
D03*
Y435000D02*
D03*
Y425000D02*
D03*
Y415000D02*
D03*
Y405000D02*
D03*
Y395000D02*
D03*
Y385000D02*
D03*
Y375000D02*
D03*
Y365000D02*
D03*
Y355000D02*
D03*
Y345000D02*
D03*
Y335000D02*
D03*
Y325000D02*
D03*
Y315000D02*
D03*
Y305000D02*
D03*
Y295000D02*
D03*
Y215000D02*
D03*
Y205000D02*
D03*
Y195000D02*
D03*
Y185000D02*
D03*
Y175000D02*
D03*
Y165000D02*
D03*
Y155000D02*
D03*
Y145000D02*
D03*
Y135000D02*
D03*
Y125000D02*
D03*
Y115000D02*
D03*
Y105000D02*
D03*
Y95000D02*
D03*
Y85000D02*
D03*
Y75000D02*
D03*
Y65000D02*
D03*
Y55000D02*
D03*
Y45000D02*
D03*
Y35000D02*
D03*
X20000Y215000D02*
D03*
Y205000D02*
D03*
Y195000D02*
D03*
Y185000D02*
D03*
Y175000D02*
D03*
Y165000D02*
D03*
Y155000D02*
D03*
Y145000D02*
D03*
Y135000D02*
D03*
Y125000D02*
D03*
Y115000D02*
D03*
Y105000D02*
D03*
Y95000D02*
D03*
Y85000D02*
D03*
Y75000D02*
D03*
Y65000D02*
D03*
Y55000D02*
D03*
Y45000D02*
D03*
Y35000D02*
D03*
X450000Y40000D02*
D03*
X440000D02*
D03*
D27*
X535000Y164409D02*
D03*
Y304409D02*
D03*
Y94409D02*
D03*
Y234409D02*
D03*
D28*
Y205591D02*
D03*
Y345591D02*
D03*
Y135591D02*
D03*
Y275591D02*
D03*
D29*
X20000Y285000D02*
D03*
X50000D02*
D03*
Y25000D02*
D03*
X20000D02*
D03*
D30*
X382283Y475315D02*
D03*
Y457598D02*
D03*
X532283Y475315D02*
D03*
Y457598D02*
D03*
X307283Y475315D02*
D03*
Y457598D02*
D03*
X457283Y475315D02*
D03*
Y457598D02*
D03*
D31*
X248200Y291600D02*
D03*
X350400Y233300D02*
D03*
X990300Y284000D02*
D03*
X928500Y280700D02*
D03*
X995000Y290300D02*
D03*
X918600Y281000D02*
D03*
X921100Y275500D02*
D03*
X982500Y287900D02*
D03*
X977200Y104500D02*
D03*
X1075700Y192400D02*
D03*
X1043700Y199600D02*
D03*
X983800Y98500D02*
D03*
X992038Y74500D02*
D03*
X1046300Y114400D02*
D03*
X763100Y301600D02*
D03*
X686400Y359900D02*
D03*
X741200Y224000D02*
D03*
X784700Y230000D02*
D03*
X769500Y282100D02*
D03*
X687600Y283000D02*
D03*
X711500Y280000D02*
D03*
X768700Y272900D02*
D03*
X680600Y358800D02*
D03*
X629900Y331800D02*
D03*
X650000Y367800D02*
D03*
X682000Y376000D02*
D03*
X758700Y125800D02*
D03*
X880600Y160700D02*
D03*
X773000Y93800D02*
D03*
X861100Y165000D02*
D03*
X832262Y94900D02*
D03*
X867400Y99600D02*
D03*
X906400Y196100D02*
D03*
X861000Y194700D02*
D03*
X861500Y125600D02*
D03*
X906600Y144200D02*
D03*
X895000Y87400D02*
D03*
X911800Y104200D02*
D03*
X887300Y140000D02*
D03*
X778900Y130800D02*
D03*
X803100Y144300D02*
D03*
X856500D02*
D03*
X756000Y58200D02*
D03*
X775000D02*
D03*
X761900Y107800D02*
D03*
X761500Y144400D02*
D03*
X945000Y396400D02*
D03*
X914643Y366043D02*
D03*
X843800Y437700D02*
D03*
X688661Y440900D02*
D03*
X774900Y467700D02*
D03*
X672500Y468600D02*
D03*
X1043800Y426000D02*
D03*
X896600Y439600D02*
D03*
X398600Y134200D02*
D03*
X442100Y138100D02*
D03*
X379900Y200300D02*
D03*
X427700Y112600D02*
D03*
X408100D02*
D03*
X431500Y266300D02*
D03*
X364100Y257700D02*
D03*
X1058620Y51720D02*
D03*
X1041500Y249000D02*
D03*
X1071100Y265000D02*
D03*
X957300Y250600D02*
D03*
X972400Y274100D02*
D03*
X974000Y294000D02*
D03*
X1056700Y353800D02*
D03*
X837200Y29700D02*
D03*
X971100Y96300D02*
D03*
Y131700D02*
D03*
X986220Y145780D02*
D03*
X860523Y29177D02*
D03*
X785000Y26200D02*
D03*
X741600Y196200D02*
D03*
X786280Y195900D02*
D03*
X841800Y92900D02*
D03*
X844900Y194700D02*
D03*
X779800Y197900D02*
D03*
X840700Y104900D02*
D03*
X840100Y181200D02*
D03*
X781500D02*
D03*
X824400Y107500D02*
D03*
X773200Y181500D02*
D03*
X717700Y51700D02*
D03*
X719300Y58000D02*
D03*
X718100Y77900D02*
D03*
X712700Y79000D02*
D03*
X713500Y67200D02*
D03*
X692700Y76400D02*
D03*
X677100Y86400D02*
D03*
X679900Y91900D02*
D03*
X665100Y79400D02*
D03*
X631800Y201000D02*
D03*
X629000Y215100D02*
D03*
X662400Y245000D02*
D03*
X692600Y303700D02*
D03*
X893700Y254100D02*
D03*
X656900Y335000D02*
D03*
X661400Y269500D02*
D03*
X887700Y257100D02*
D03*
X939400Y252600D02*
D03*
X930500Y243900D02*
D03*
X918839Y222300D02*
D03*
X933700Y225300D02*
D03*
X914703Y231100D02*
D03*
X823100Y223600D02*
D03*
X826000Y211100D02*
D03*
X793400Y268000D02*
D03*
X1073500Y271600D02*
D03*
X1066800Y444600D02*
D03*
X809200Y274700D02*
D03*
X789000Y281500D02*
D03*
X801200D02*
D03*
Y271900D02*
D03*
X789820Y275900D02*
D03*
X782700Y278700D02*
D03*
X770500Y300300D02*
D03*
X874000Y443100D02*
D03*
X869100Y367600D02*
D03*
X875700Y437200D02*
D03*
X881600Y469200D02*
D03*
X869000Y380700D02*
D03*
X882000Y475300D02*
D03*
X898500Y402100D02*
D03*
X883400Y384500D02*
D03*
X638500Y440700D02*
D03*
X638000Y449500D02*
D03*
X644000Y446600D02*
D03*
X659700Y435900D02*
D03*
X787800Y411000D02*
D03*
X784900Y405200D02*
D03*
X796300Y402600D02*
D03*
X803900Y395100D02*
D03*
X1013800Y428200D02*
D03*
X998500Y434900D02*
D03*
X1005000Y438300D02*
D03*
X1033100Y431000D02*
D03*
X430000Y340000D02*
D03*
X288800Y366100D02*
D03*
X1069100Y248000D02*
D03*
X1052500Y423200D02*
D03*
X1063200D02*
D03*
X653800Y71400D02*
D03*
X712500Y125000D02*
D03*
X553600Y420200D02*
D03*
X845000Y387000D02*
D03*
X702100Y379000D02*
D03*
X1060200Y417100D02*
D03*
X661700Y299100D02*
D03*
X760700Y286000D02*
D03*
X658300Y47700D02*
D03*
X690100D02*
D03*
X1009100Y115600D02*
D03*
X669300Y421500D02*
D03*
X1041700Y453400D02*
D03*
X1068000Y464800D02*
D03*
X738525Y389800D02*
D03*
X795800Y390287D02*
D03*
X867600Y387800D02*
D03*
X923957Y328700D02*
D03*
X776300Y295900D02*
D03*
X594300Y15100D02*
D03*
X663300Y169900D02*
D03*
X804300Y166900D02*
D03*
X774043Y170500D02*
D03*
X386500Y427500D02*
D03*
X626700D02*
D03*
X984900Y240700D02*
D03*
X656300Y188800D02*
D03*
X956800Y221800D02*
D03*
X962900Y235700D02*
D03*
X863000Y360600D02*
D03*
X896900Y337277D02*
D03*
X765000Y365100D02*
D03*
X741800Y359900D02*
D03*
X735700D02*
D03*
X659400Y423284D02*
D03*
X722300Y9100D02*
D03*
X1052300Y77800D02*
D03*
X295500Y419800D02*
D03*
X230800Y223400D02*
D03*
X60000Y376000D02*
D03*
X69500Y300000D02*
D03*
X309800Y273400D02*
D03*
X248500Y425000D02*
D03*
X331800Y279800D02*
D03*
X256800Y445000D02*
D03*
X194800Y260200D02*
D03*
X40500Y99400D02*
D03*
X79500Y113600D02*
D03*
X271400Y289800D02*
D03*
X258900Y285300D02*
D03*
X159400Y277400D02*
D03*
Y105000D02*
D03*
X412600Y286000D02*
D03*
X385100Y78900D02*
D03*
X148600Y75000D02*
D03*
X119800Y314900D02*
D03*
X156000Y269600D02*
D03*
X231800Y279000D02*
D03*
X308800Y310000D02*
D03*
X140000Y275200D02*
D03*
X145200Y285500D02*
D03*
X201700Y261500D02*
D03*
X138300Y291500D02*
D03*
X42700Y200000D02*
D03*
X306500Y350100D02*
D03*
X333000Y298000D02*
D03*
X406300Y286400D02*
D03*
X233600Y233300D02*
D03*
X267700Y296400D02*
D03*
X185100Y260000D02*
D03*
X355100Y245100D02*
D03*
X221900Y299000D02*
D03*
X907200Y278600D02*
D03*
X963800Y293300D02*
D03*
Y275600D02*
D03*
X1013500Y279000D02*
D03*
X908602Y296000D02*
D03*
X1042400Y298600D02*
D03*
X919500Y263000D02*
D03*
X1038800Y274100D02*
D03*
X915700Y270900D02*
D03*
X1002300Y281107D02*
D03*
X925700Y259100D02*
D03*
X1039900Y235000D02*
D03*
X1052400Y93300D02*
D03*
X997700Y51500D02*
D03*
X1045200Y104000D02*
D03*
X997000Y64300D02*
D03*
X967900Y67765D02*
D03*
X1041100Y108900D02*
D03*
X990600Y102600D02*
D03*
X1041200Y123700D02*
D03*
X1034500Y111600D02*
D03*
X974700Y70900D02*
D03*
X780900Y266400D02*
D03*
X693000Y281700D02*
D03*
X789100Y218500D02*
D03*
X754500Y213800D02*
D03*
Y287500D02*
D03*
X687000Y301000D02*
D03*
X705700Y270500D02*
D03*
X773300Y264800D02*
D03*
X782100Y222500D02*
D03*
X735100Y215700D02*
D03*
X734300Y290600D02*
D03*
X687000Y291400D02*
D03*
X658300Y63400D02*
D03*
X655300Y200000D02*
D03*
X640800Y57300D02*
D03*
X626200Y71900D02*
D03*
X630700Y305400D02*
D03*
X684900Y370400D02*
D03*
X673600Y364300D02*
D03*
X629900Y324300D02*
D03*
X871000Y143584D02*
D03*
X762700Y134600D02*
D03*
X781000Y93200D02*
D03*
X864400Y143100D02*
D03*
X795000Y95000D02*
D03*
X879600Y142500D02*
D03*
X883400Y122700D02*
D03*
X806400Y62700D02*
D03*
X843500Y159900D02*
D03*
X900043Y170043D02*
D03*
X827300Y92300D02*
D03*
X905900Y180100D02*
D03*
X907700Y111000D02*
D03*
X880300Y87300D02*
D03*
X906300Y103500D02*
D03*
X883900Y62500D02*
D03*
X808400Y133600D02*
D03*
X866100Y122200D02*
D03*
X788800Y56300D02*
D03*
X859000Y58400D02*
D03*
X794000Y120800D02*
D03*
X851700Y129500D02*
D03*
X787720Y296700D02*
D03*
X847200Y298800D02*
D03*
X844595Y87095D02*
D03*
X818300Y62200D02*
D03*
X889000Y396600D02*
D03*
X875200Y391800D02*
D03*
X855000Y409900D02*
D03*
X678121Y425700D02*
D03*
X849452Y439048D02*
D03*
X692500Y454000D02*
D03*
X666020Y446280D02*
D03*
X838900Y443000D02*
D03*
X814600Y412900D02*
D03*
X689000Y448839D02*
D03*
X662500Y451400D02*
D03*
X792900Y470300D02*
D03*
X1049300Y428000D02*
D03*
X889700Y440800D02*
D03*
X416260Y310200D02*
D03*
X541900Y291000D02*
D03*
X380400Y213600D02*
D03*
X438500Y273100D02*
D03*
X379300Y265000D02*
D03*
X1082300Y192700D02*
D03*
X1056000Y58700D02*
D03*
X1042600Y72100D02*
D03*
X1043100Y216500D02*
D03*
X1043900Y229839D02*
D03*
X982100Y375900D02*
D03*
X1021300Y390900D02*
D03*
X1060900Y361300D02*
D03*
X1068300Y316900D02*
D03*
X1068200Y331700D02*
D03*
X1061600Y351000D02*
D03*
X725100Y37600D02*
D03*
X729100Y6100D02*
D03*
X1001014Y249600D02*
D03*
X985000Y308200D02*
D03*
X899700Y318500D02*
D03*
X906700Y320300D02*
D03*
X740200Y312700D02*
D03*
X729700Y45600D02*
D03*
X906300Y338400D02*
D03*
X709200Y411000D02*
D03*
X613400Y72600D02*
D03*
X732100Y34300D02*
D03*
X754300Y12100D02*
D03*
X1059900Y35100D02*
D03*
X1052200Y365400D02*
D03*
X913720Y318500D02*
D03*
X780100Y30950D02*
D03*
X747100Y200400D02*
D03*
X803600Y198600D02*
D03*
X808000Y284800D02*
D03*
X918800Y321300D02*
D03*
X800000Y31700D02*
D03*
X738200Y48483D02*
D03*
Y173300D02*
D03*
X842600Y170100D02*
D03*
X845300Y291500D02*
D03*
X891400Y322100D02*
D03*
X934100Y259000D02*
D03*
X730200Y278600D02*
D03*
X735300Y57100D02*
D03*
X840000Y23700D02*
D03*
X966300Y100000D02*
D03*
Y120200D02*
D03*
X975061Y149400D02*
D03*
X938245Y56500D02*
D03*
X992898Y125100D02*
D03*
X998200Y144100D02*
D03*
X908400Y56200D02*
D03*
X732500Y208700D02*
D03*
X801600Y209800D02*
D03*
X916000Y98100D02*
D03*
X914200Y168400D02*
D03*
X790700Y172300D02*
D03*
X789600Y181500D02*
D03*
X928700Y178900D02*
D03*
X936100Y123200D02*
D03*
X810000Y57900D02*
D03*
X791600Y88700D02*
D03*
X719100Y105700D02*
D03*
X705700Y76300D02*
D03*
X670400Y84000D02*
D03*
X662300Y95000D02*
D03*
X662000Y215000D02*
D03*
X662400Y235400D02*
D03*
X662000Y255400D02*
D03*
X631700Y338900D02*
D03*
X710800Y349900D02*
D03*
X689765Y268200D02*
D03*
X707900Y337500D02*
D03*
X701000Y289000D02*
D03*
X701400Y307100D02*
D03*
X899300Y247400D02*
D03*
X745300Y250100D02*
D03*
X743300Y294750D02*
D03*
X908500Y122100D02*
D03*
X738100Y184800D02*
D03*
X737700Y307500D02*
D03*
X907100Y130100D02*
D03*
X744400Y181000D02*
D03*
X748800Y317600D02*
D03*
X749900Y312000D02*
D03*
Y176900D02*
D03*
X890800Y127400D02*
D03*
Y107768D02*
D03*
X616200Y64200D02*
D03*
Y309200D02*
D03*
X619400Y329900D02*
D03*
X626800Y31600D02*
D03*
X900604Y100204D02*
D03*
X901300Y224100D02*
D03*
X842400Y226300D02*
D03*
X835000Y305900D02*
D03*
X943300Y258500D02*
D03*
X911161Y240400D02*
D03*
X742500Y243500D02*
D03*
X740800Y270600D02*
D03*
X662000Y289300D02*
D03*
Y329800D02*
D03*
X817200Y202900D02*
D03*
X816600Y126400D02*
D03*
X828900Y202072D02*
D03*
X831000Y112000D02*
D03*
X816102Y120500D02*
D03*
X814300Y110200D02*
D03*
X948100Y463400D02*
D03*
X891500Y316400D02*
D03*
X794000Y295900D02*
D03*
X779900Y303200D02*
D03*
X884400Y443200D02*
D03*
X898064Y394964D02*
D03*
X869000Y373800D02*
D03*
X871100Y472800D02*
D03*
X644100Y435100D02*
D03*
X633500Y444200D02*
D03*
X630000Y438300D02*
D03*
X662500Y429200D02*
D03*
X778300Y402300D02*
D03*
X793300Y412900D02*
D03*
X789600Y382400D02*
D03*
X808400Y367600D02*
D03*
X781400Y394900D02*
D03*
X781600Y410200D02*
D03*
X1033402Y436700D02*
D03*
X998300Y427600D02*
D03*
X1013304Y435100D02*
D03*
X971700Y430700D02*
D03*
X682800Y148700D02*
D03*
X689300Y123400D02*
D03*
X687100Y28800D02*
D03*
X190000Y142000D02*
D03*
X900000Y197800D02*
D03*
X875800D02*
D03*
X726900Y197500D02*
D03*
X770400Y195500D02*
D03*
X871800Y201800D02*
D03*
X770964Y201236D02*
D03*
X989700Y206300D02*
D03*
X1032102Y28602D02*
D03*
X1026000Y71500D02*
D03*
X706916Y422700D02*
D03*
X673300Y428500D02*
D03*
X937300Y27000D02*
D03*
X923957Y136957D02*
D03*
X864200Y110043D02*
D03*
X788300Y118043D02*
D03*
X857500Y397500D02*
D03*
X890300Y405700D02*
D03*
X1060200Y408700D02*
D03*
X1004200Y352700D02*
D03*
X918200Y147100D02*
D03*
X772500Y140900D02*
D03*
X996457Y106300D02*
D03*
X927800Y112300D02*
D03*
X673000Y417400D02*
D03*
X729100Y378900D02*
D03*
X739000Y372900D02*
D03*
X952700Y238900D02*
D03*
X936200Y246800D02*
D03*
X776043Y163300D02*
D03*
X703543Y125000D02*
D03*
X604402Y15200D02*
D03*
X918400Y16000D02*
D03*
X925000Y59800D02*
D03*
X913700Y61900D02*
D03*
X943903Y15100D02*
D03*
X1004400Y416500D02*
D03*
Y426200D02*
D03*
X347600Y251900D02*
D03*
Y278100D02*
D03*
X966700Y263100D02*
D03*
X1068200Y192100D02*
D03*
X658500Y175000D02*
D03*
X758300Y351200D02*
D03*
X781300Y362400D02*
D03*
X978100Y260300D02*
D03*
X1000100Y59700D02*
D03*
X950900Y56200D02*
D03*
X949863Y276363D02*
D03*
X1038300Y192700D02*
D03*
X918300Y385300D02*
D03*
X876200Y478100D02*
D03*
X768700Y469200D02*
D03*
X945000Y56400D02*
D03*
X907800Y326700D02*
D03*
X794000Y362800D02*
D03*
X727000Y106200D02*
D03*
X796516Y159916D02*
D03*
X675500Y74400D02*
D03*
X727700Y96000D02*
D03*
X974300Y379200D02*
D03*
X1027600Y426884D02*
D03*
X812800Y294900D02*
D03*
X958100Y374500D02*
D03*
X962700Y315000D02*
D03*
X257300Y292000D02*
D03*
X889650Y297550D02*
D03*
X1038300Y155000D02*
D03*
X690100Y185000D02*
D03*
X921000Y108700D02*
D03*
X887400Y280300D02*
D03*
X138300Y209800D02*
D03*
X117600Y345000D02*
D03*
X95200Y399600D02*
D03*
X88300Y362800D02*
D03*
X35600Y352300D02*
D03*
X117000Y328400D02*
D03*
X114800Y338300D02*
D03*
X41200Y339400D02*
D03*
X116000Y296400D02*
D03*
X9900Y367300D02*
D03*
X107000Y415000D02*
D03*
X233000Y258900D02*
D03*
X91200Y250500D02*
D03*
X162300Y272500D02*
D03*
Y125000D02*
D03*
X208800Y252500D02*
D03*
X105100Y405000D02*
D03*
X185100Y243200D02*
D03*
X138000Y184000D02*
D03*
X138200Y176000D02*
D03*
X21400Y15600D02*
D03*
X69400Y37400D02*
D03*
X160000Y98700D02*
D03*
X206300Y309600D02*
D03*
X10000Y389500D02*
D03*
X210200Y265300D02*
D03*
X313500Y385000D02*
D03*
X341400Y273200D02*
D03*
X281100Y290000D02*
D03*
X341100Y225000D02*
D03*
X179300Y276100D02*
D03*
X87300Y203400D02*
D03*
X86200Y190000D02*
D03*
X71647Y184700D02*
D03*
X43700Y172000D02*
D03*
X87204Y180000D02*
D03*
X369200Y291000D02*
D03*
X360500Y299700D02*
D03*
M02*
