M48
;Layer_Color=9474304
;FILE_FORMAT=2:5
INCH,LZ
;TYPE=PLATED
T1F00S00C0.01500
T2F00S00C0.03543
T3F00S00C0.04331
T4F00S00C0.04724
;TYPE=NON_PLATED
T5F00S00C0.07087
T6F00S00C0.14000
%
T01
X07543Y00121
X07291Y00061
X07223Y00091
X00694Y00374
X00214Y00156
X00405Y00994
X00795Y01136
X01594Y0105
X016Y00987
X01623Y0125
X019Y0142
X01486Y0075
X03851Y00789
X04081Y01126
X03986Y01342
X04421Y01381
X04277Y01126
X06134Y00726
X06162Y00642
X06262Y00719
X06538Y00714
X06583Y00634
Y00477
X06408Y00573
X06268Y00316
X0604402Y00152
X05943Y00151
X06871Y00288
X06901Y00477
X06927Y00764
X07057Y00763
X07127Y0079
X07181Y00779
X07135Y00672
X07193Y0058
X07177Y00517
X07297Y00456
X07251Y00376
X07321Y00343
X07353Y00571
X07277Y0096
X0727Y01062
X07191Y01057
X07125Y0125
X0703543
X06893Y01234
X06828Y01487
X06799Y00919
X06771Y00864
X06704Y0084
X06651Y00794
X06755Y00744
X06623Y0095
X0773Y00938
X0781Y00932
X07916Y00887
X0795Y0095
X0794Y01208
X07883Y0118043
X07789Y01308
X07725Y01409
X07615Y01444
X07627Y01346
X07587Y01258
X07619Y01078
X08143Y01102
X0816102Y01205
X08166Y01264
X08084Y01336
X08031Y01443
X0796516Y0159916
X08043Y01669
X0776043Y01633
X08435Y01599
X08611Y0165
X08806Y01607
X08796Y01425
X0871Y0143584
X08644Y01431
X08565Y01443
X08517Y01295
X08615Y01256
X08661Y01222
X08642Y0110043
X08674Y00996
X08803Y00873
X08839Y00625
X0859Y00584
X0860523Y0029177
X08372Y00297
X084Y00237
X08Y00317
X0785Y00262
X07801Y003095
X0775Y00582
X07888Y00563
X081Y00579
X08064Y00627
X08183Y00622
X08273Y00923
X0832262Y00949
X08418Y00929
X0844595Y0087095
X08407Y01049
X0831Y0112
X08244Y01075
X08908Y0107768
Y01274
X08834Y01227
X08873Y014
X0756Y00582
X07382Y0048483
X09084Y00562
X09137Y00619
X0925Y00598
X0938245Y00565
X0945Y00564
X09509Y00562
X09679Y0067765
X09747Y00709
X0992038Y00745
X0997Y00643
X10001Y00597
X09977Y00515
X1026Y00715
X10426Y00721
X10452Y0104
X10411Y01089
X10345Y01116
X10463Y01144
X10412Y01237
X10383Y0155
X09982Y01441
X098622Y014578
X0975061Y01494
X09711Y01317
X09663Y01202
Y01
X09711Y00963
X09772Y01045
X09838Y00985
X09906Y01026
X0996457Y01063
X10091Y01156
X0992898Y01251
X09361Y01232
X09278Y01123
X0921Y01087
X09118Y01042
X09063Y01035
X09077Y0111
X09085Y01221
X09071Y01301
X09066Y01442
X09182Y01471
X0923957Y0136957
X09142Y01684
X0916Y00981
X0900604Y0100204
X0895Y00874
X09184Y0016
X0943903Y00151
X09373Y0027
X1032102Y0028602
X10599Y00351
X105862Y005172
X1056Y00587
X10523Y00778
X10524Y00933
X10682Y01921
X10757Y01924
X10823Y01927
X10691Y0248
X10711Y0265
X10735Y02716
X10683Y03169
X10424Y02986
X10388Y02741
X10415Y0249
X10399Y0235
X10439Y0229839
X10431Y02165
X10437Y01996
X10383Y01927
X09897Y02063
X09849Y02407
X1001014Y02496
X10023Y0281107
X10135Y0279
X09903Y0284
X0995Y02903
X09825Y02879
X0974Y0294
X09638Y02933
Y02756
X09724Y02741
X09667Y02631
X09781Y02603
X09573Y02506
X09527Y02389
X09629Y02357
X09568Y02218
X09337Y02253
X0918839Y02223
X0914703Y02311
X0911161Y02404
X08993Y02474
X09013Y02241
X09Y01978
X09064Y01961
X09059Y01801
X0900043Y0170043
X09287Y01789
X09305Y02439
X09362Y02468
X09394Y02526
X09433Y02585
X09341Y0259
X09257Y02591
X09195Y0263
X09157Y02709
X09211Y02755
X09186Y0281
X09285Y02807
X09072Y02786
X0908602Y0296
X09067Y03203
X08997Y03185
X091372
X09188Y03213
X09627Y0315
X0985Y03082
X0949863Y0276363
X08874Y02803
X088965Y029755
X08915Y03164
X08914Y03221
X08472Y02988
X08453Y02915
X0835Y03059
X08128Y02949
X0808Y02848
X08012Y02815
Y02719
X08092Y02747
X078982Y02759
X0789Y02815
X07827Y02787
X07809Y02664
X07733Y02648
X07687Y02729
X07695Y02821
X07607Y0286
X07545Y02875
X07433Y029475
X07377Y03075
X07402Y03127
X07499Y0312
X07488Y03176
X07631Y03016
X07705Y03003
X07763Y02959
X07799Y03032
X078772Y02967
X0794Y02959
X07934Y0268
X07847Y023
X07821Y02225
X07891Y02185
X08016Y02098
X08036Y01986
X08172Y02029
X08289Y0202072
X0826Y02111
X08231Y02236
X08424Y02263
X08449Y01947
X0861
X08758Y01978
X08718Y02018
X08401Y01812
X08426Y01701
X07907Y01723
X07896Y01815
X07815Y01812
X07732Y01815
X0774043Y01705
X07704Y01955
X0770964Y0201236
X07798Y01979
X078628Y01959
X07471Y02004
X07416Y01962
X07381Y01848
X07444Y0181
X07499Y01769
X07382Y01733
X07412Y0224
X07425Y02435
X07453Y02501
X07408Y02706
X07545Y02138
X08877Y02571
X08937Y02541
X07302Y02786
X07343Y02906
X07115Y028
X07057Y02705
X0689765Y02682
X0693Y02817
X06876Y0283
X0687Y02914
Y0301
X06926Y03037
X07014Y03071
X0701Y0289
X0662Y02893
X06617Y02991
X06614Y02695
X0662Y02554
X06624Y0245
Y02354
X0662Y0215
X06553Y02
X06563Y01888
X06585Y0175
X06633Y01699
X06901Y0185
X07269Y01975
X07325Y02087
X07351Y02157
X0629Y02151
X06318Y0201
X06307Y03054
X06162Y03092
X06299Y03243
X05419Y0291
X04385Y02731
X04315Y02663
X04126Y0286
X04063Y02864
X041626Y03102
X03692Y0291
X03605Y02997
X0333Y0298
X03318Y02798
X03414Y02732
X03476Y02781
Y02519
X03551Y02451
X03504Y02333
X03411Y0225
X03804Y02136
X03799Y02003
X03793Y0265
X03641Y02577
X03098Y02734
X03088Y031
X02811Y029
X02714Y02898
X02677Y02964
X02573Y0292
X02589Y02853
X02482Y02916
X02318Y0279
X0233Y02589
X02336Y02333
X02308Y02234
X02088Y02525
X02102Y02653
X02017Y02615
X01948Y02602
X01851Y026
Y02432
X01793Y02761
X01623Y02725
X01594Y02774
X0156Y02696
X014Y02752
X01452Y02855
X01383Y02915
X0116Y02964
X01198Y03149
X02063Y03096
X02219Y0299
X01383Y02098
X0138Y0184
X01382Y0176
X0087204Y018
X00862Y019
X00873Y02034
X0071647Y01847
X00437Y0172
X00427Y02
X00912Y02505
X00695Y03
X00412Y03394
X00356Y03523
X00099Y03673
X001Y03895
X006Y0376
X00883Y03628
X00952Y03996
X01051Y0405
X0107Y0415
X01176Y0345
X01148Y03383
X0117Y03284
X02485Y0425
X02568Y0445
X02955Y04198
X03135Y0385
X03065Y03501
X02888Y03661
X03865Y04275
X043Y034
X05536Y04202
X06267Y04275
X063Y04383
X06335Y04442
X06385Y04407
X0638Y04495
X0644Y04466
X06441Y04351
X06597Y04359
X06625Y04292
X06594Y0423284
X06693Y04215
X0673Y04174
X06733Y04285
X0678121Y04257
X0688661Y04409
X0689Y0448839
X06925Y0454
X06625Y04514
X066602Y044628
X06725Y04686
X0706916Y04227
X07092Y0411
X07021Y0379
X0682Y0376
X06849Y03704
X06864Y03599
X06806Y03588
X06736Y03643
X065Y03678
X06569Y0335
X0662Y03298
X06299Y03318
X06317Y03389
X06194Y03299
X07079Y03375
X07108Y03499
X07357Y03599
X07291Y03789
X0739Y03729
X07418Y03599
X07583Y03512
X0765Y03651
X07813Y03624
X0794Y03628
X08084Y03676
X08039Y03951
X07958Y0390287
X07963Y04026
X07933Y04129
X07878Y0411
X07816Y04102
X07849Y04052
X07783Y04023
X07814Y03949
X07896Y03824
X08146Y04129
X0855Y04099
X08575Y03975
X08676Y03878
X0869Y03807
Y03738
X08691Y03676
X0863Y03606
X08752Y03918
X08834Y03845
X0889Y03966
X08903Y04057
X08897Y04408
X08844Y04432
X0874Y04431
X08757Y04372
X0849452Y0439048
X08438Y04377
X08389Y0443
X08711Y04728
X08762Y04781
X0882Y04753
X08816Y04692
X07929Y04703
X07749Y04677
X07687Y04692
X0738525Y03898
X0845Y0387
X0898064Y0394964
X08985Y04021
X09183Y03853
X0914643Y0366043
X09063Y03384
X08969Y0337277
X09078Y03267
X0923957Y03287
X09581Y03745
X09743Y03792
X09821Y03759
X10042Y03527
X10213Y03909
X10276Y0426884
X10331Y0431
X1033402Y04367
X10438Y0426
X10493Y0428
X10417Y04534
X1013304Y04351
X10138Y04282
X10044Y04262
X09983Y04276
X09985Y04349
X1005Y04383
X10044Y04165
X09717Y04307
X09481Y04634
X0945Y03964
X08966Y04396
X10525Y04232
X10632
X10602Y04171
Y04087
X10668Y04446
X1068Y04648
X10609Y03613
X10616Y0351
X10567Y03538
X10522Y03654
X10682Y03317
T02
X002Y0025
Y0035
Y0045
Y0055
Y0065
Y0075
Y0085
Y0095
Y0105
Y0115
Y0125
Y0135
Y0145
Y0155
Y0165
X005
Y0155
Y0145
Y0135
Y0125
Y0115
Y0105
Y0095
Y0085
Y0075
Y0065
Y0055
Y0045
Y0035
Y0025
X035Y007
X036
X037
X038
X039
X04
X041
X042
X043
X044
X046
X047
X048
X049
X05
X051
X052
X053
X054
X055
X045Y004
X044
X043
X005Y0175
Y0185
Y0195
Y0205
Y0215
X002
Y0205
Y0195
Y0185
Y0175
Y0285
Y0295
Y0305
Y0315
X005
Y0305
Y0295
Y0285
Y0325
Y0335
Y0345
Y0355
Y0365
Y0375
Y0385
Y0395
Y0405
Y0415
Y0425
Y0435
Y0445
Y0455
Y0465
Y0475
X002
Y0465
Y0455
Y0445
Y0435
Y0425
Y0415
Y0405
Y0395
Y0385
Y0375
Y0365
Y0355
Y0345
Y0335
Y0325
X035Y037
X036
X037
X038
X039
X04
X041
X042
X043
X044
X046
X047
X048
X049
X05
X051
X052
X053
X054
X055
X045Y04
X044
X043
T03
X019Y0025
X021
T04
X0535Y0094409
Y0135591
Y0164409
Y0205591
Y0234409
Y0275591
Y0304409
Y0345591
T05
X0307283Y0457598
Y0475315
X0382283
Y0457598
X0457283
Y0475315
X0532283
Y0457598
T06
X0075Y0025
Y0475
M30
