G04 Layer_Color=8388736*
%FSLAX25Y25*%
%MOIN*%
G70*
G01*
G75*
%ADD22C,0.01000*%
%ADD39R,0.05800X0.05800*%
%ADD40R,0.04737X0.10249*%
%ADD41R,0.13398X0.10249*%
%ADD42O,0.03162X0.06902*%
%ADD43R,0.05800X0.05800*%
%ADD44O,0.06902X0.03162*%
%ADD45R,0.04737X0.08674*%
%ADD46R,0.08674X0.04737*%
%ADD47R,0.11824X0.10249*%
%ADD48O,0.07099X0.02572*%
%ADD49O,0.02572X0.07099*%
%ADD50O,0.06902X0.02572*%
%ADD51R,0.08674X0.08674*%
%ADD52C,0.08674*%
%ADD53R,0.08674X0.08674*%
%ADD54C,0.08083*%
%ADD55R,0.08083X0.08083*%
%ADD56C,0.16800*%
%ADD57C,0.06706*%
%ADD58R,0.06706X0.06706*%
%ADD59R,0.06706X0.06706*%
%ADD60C,0.09900*%
%ADD61C,0.03800*%
D22*
X0Y0D02*
Y500000D01*
X1100000D01*
Y0D02*
Y500000D01*
X0Y0D02*
X1100000D01*
D39*
X880000Y273500D02*
D03*
Y266500D02*
D03*
X860000Y273500D02*
D03*
Y266500D02*
D03*
X900000Y273500D02*
D03*
Y266500D02*
D03*
X820000Y273500D02*
D03*
Y266500D02*
D03*
X840000Y273500D02*
D03*
Y266500D02*
D03*
X920000Y273500D02*
D03*
Y266500D02*
D03*
X800000Y273500D02*
D03*
Y266500D02*
D03*
X301700Y323400D02*
D03*
Y316400D02*
D03*
X380100Y176600D02*
D03*
Y183600D02*
D03*
X560000Y173500D02*
D03*
Y166500D02*
D03*
Y147500D02*
D03*
Y140500D02*
D03*
X320000Y166500D02*
D03*
Y173500D02*
D03*
X459500Y266500D02*
D03*
Y273500D02*
D03*
X550000Y312400D02*
D03*
Y305400D02*
D03*
Y331000D02*
D03*
Y324000D02*
D03*
X523500D02*
D03*
Y331000D02*
D03*
Y305400D02*
D03*
Y312400D02*
D03*
X380000Y333500D02*
D03*
Y326500D02*
D03*
X320000Y323500D02*
D03*
Y316500D02*
D03*
X380000Y156500D02*
D03*
Y163500D02*
D03*
X780000Y273500D02*
D03*
Y266500D02*
D03*
X523500Y166500D02*
D03*
Y173500D02*
D03*
Y140500D02*
D03*
Y147500D02*
D03*
D40*
X400945Y158583D02*
D03*
X410000D02*
D03*
X419055D02*
D03*
Y331417D02*
D03*
X410000D02*
D03*
X400945D02*
D03*
D41*
X410000Y181417D02*
D03*
Y308583D02*
D03*
D42*
X496260Y140571D02*
D03*
X503740D02*
D03*
X496260Y149429D02*
D03*
X500000D02*
D03*
X503740D02*
D03*
X496260Y315571D02*
D03*
X503740D02*
D03*
X496260Y324429D02*
D03*
X500000D02*
D03*
X503740D02*
D03*
D43*
X497600Y190600D02*
D03*
X504600D02*
D03*
X496500Y120000D02*
D03*
X503500D02*
D03*
X489800Y100000D02*
D03*
X496800D02*
D03*
X347300Y120000D02*
D03*
X354300D02*
D03*
X347300Y130000D02*
D03*
X354300D02*
D03*
X412900Y262200D02*
D03*
X405900D02*
D03*
X345500Y270000D02*
D03*
X352500D02*
D03*
X345500Y280000D02*
D03*
X352500D02*
D03*
X489300Y340600D02*
D03*
X496300D02*
D03*
X153500Y25000D02*
D03*
X146500D02*
D03*
D44*
X495571Y173740D02*
D03*
Y166260D02*
D03*
X504429Y173740D02*
D03*
Y170000D02*
D03*
Y166260D02*
D03*
X495571Y293740D02*
D03*
Y286260D02*
D03*
X504429Y293740D02*
D03*
Y290000D02*
D03*
Y286260D02*
D03*
D45*
X795000Y79104D02*
D03*
X775000D02*
D03*
X765000D02*
D03*
X755000D02*
D03*
X785000D02*
D03*
X835000D02*
D03*
X805000D02*
D03*
X815000D02*
D03*
X825000D02*
D03*
X845000D02*
D03*
X885000D02*
D03*
X855000D02*
D03*
X865000D02*
D03*
X875000D02*
D03*
X895000D02*
D03*
X935000D02*
D03*
X905000D02*
D03*
X915000D02*
D03*
X925000D02*
D03*
X945000D02*
D03*
Y48396D02*
D03*
X925000D02*
D03*
X915000D02*
D03*
X905000D02*
D03*
X935000D02*
D03*
X895000D02*
D03*
X875000D02*
D03*
X865000D02*
D03*
X855000D02*
D03*
X885000D02*
D03*
X845000D02*
D03*
X825000D02*
D03*
X815000D02*
D03*
X805000D02*
D03*
X835000D02*
D03*
X785000D02*
D03*
X755000D02*
D03*
X765000D02*
D03*
X775000D02*
D03*
X795000D02*
D03*
X905000Y420896D02*
D03*
X925000D02*
D03*
X935000D02*
D03*
X945000D02*
D03*
X915000D02*
D03*
X865000D02*
D03*
X895000D02*
D03*
X885000D02*
D03*
X875000D02*
D03*
X855000D02*
D03*
X815000D02*
D03*
X845000D02*
D03*
X835000D02*
D03*
X825000D02*
D03*
X805000D02*
D03*
X765000D02*
D03*
X795000D02*
D03*
X785000D02*
D03*
X775000D02*
D03*
X755000D02*
D03*
Y451604D02*
D03*
X775000D02*
D03*
X785000D02*
D03*
X795000D02*
D03*
X765000D02*
D03*
X805000D02*
D03*
X825000D02*
D03*
X835000D02*
D03*
X845000D02*
D03*
X815000D02*
D03*
X855000D02*
D03*
X875000D02*
D03*
X885000D02*
D03*
X895000D02*
D03*
X865000D02*
D03*
X915000D02*
D03*
X945000D02*
D03*
X935000D02*
D03*
X925000D02*
D03*
X905000D02*
D03*
D46*
X679104Y305000D02*
D03*
Y325000D02*
D03*
Y335000D02*
D03*
Y345000D02*
D03*
Y315000D02*
D03*
Y265000D02*
D03*
Y295000D02*
D03*
Y285000D02*
D03*
Y275000D02*
D03*
Y255000D02*
D03*
Y215000D02*
D03*
Y245000D02*
D03*
Y235000D02*
D03*
Y225000D02*
D03*
Y205000D02*
D03*
Y165000D02*
D03*
Y195000D02*
D03*
Y185000D02*
D03*
Y175000D02*
D03*
Y155000D02*
D03*
X648396D02*
D03*
Y175000D02*
D03*
Y185000D02*
D03*
Y195000D02*
D03*
Y165000D02*
D03*
Y205000D02*
D03*
Y225000D02*
D03*
Y235000D02*
D03*
Y245000D02*
D03*
Y215000D02*
D03*
Y255000D02*
D03*
Y275000D02*
D03*
Y285000D02*
D03*
Y295000D02*
D03*
Y265000D02*
D03*
Y315000D02*
D03*
Y345000D02*
D03*
Y335000D02*
D03*
Y325000D02*
D03*
Y305000D02*
D03*
X1020896Y195000D02*
D03*
Y175000D02*
D03*
Y165000D02*
D03*
Y155000D02*
D03*
Y185000D02*
D03*
Y235000D02*
D03*
Y205000D02*
D03*
Y215000D02*
D03*
Y225000D02*
D03*
Y245000D02*
D03*
Y285000D02*
D03*
Y255000D02*
D03*
Y265000D02*
D03*
Y275000D02*
D03*
Y295000D02*
D03*
Y335000D02*
D03*
Y305000D02*
D03*
Y315000D02*
D03*
Y325000D02*
D03*
Y345000D02*
D03*
X1051604D02*
D03*
Y325000D02*
D03*
Y315000D02*
D03*
Y305000D02*
D03*
Y335000D02*
D03*
Y295000D02*
D03*
Y275000D02*
D03*
Y265000D02*
D03*
Y255000D02*
D03*
Y285000D02*
D03*
Y245000D02*
D03*
Y225000D02*
D03*
Y215000D02*
D03*
Y205000D02*
D03*
Y235000D02*
D03*
Y185000D02*
D03*
Y155000D02*
D03*
Y165000D02*
D03*
Y175000D02*
D03*
Y195000D02*
D03*
D47*
X473700Y451000D02*
D03*
Y475500D02*
D03*
X425200Y451000D02*
D03*
Y475500D02*
D03*
X401200Y451000D02*
D03*
Y475500D02*
D03*
X352700Y451000D02*
D03*
Y475500D02*
D03*
X549700Y451000D02*
D03*
Y475500D02*
D03*
X501200Y451000D02*
D03*
Y475500D02*
D03*
D48*
X988681Y467766D02*
D03*
Y465207D02*
D03*
Y462648D02*
D03*
Y460089D02*
D03*
Y457530D02*
D03*
Y454970D02*
D03*
Y452411D02*
D03*
Y449852D02*
D03*
Y447293D02*
D03*
Y444734D02*
D03*
X1011319Y467766D02*
D03*
Y465207D02*
D03*
Y462648D02*
D03*
Y460089D02*
D03*
Y457530D02*
D03*
Y454970D02*
D03*
Y452411D02*
D03*
Y449852D02*
D03*
Y447293D02*
D03*
Y444734D02*
D03*
X701319Y42234D02*
D03*
Y44793D02*
D03*
Y47352D02*
D03*
Y49911D02*
D03*
Y52470D02*
D03*
Y55030D02*
D03*
Y57589D02*
D03*
Y60148D02*
D03*
Y62707D02*
D03*
Y65266D02*
D03*
X678681Y42234D02*
D03*
Y44793D02*
D03*
Y47352D02*
D03*
Y49911D02*
D03*
Y52470D02*
D03*
Y55030D02*
D03*
Y57589D02*
D03*
Y60148D02*
D03*
Y62707D02*
D03*
Y65266D02*
D03*
X721681Y329016D02*
D03*
Y326457D02*
D03*
Y323898D02*
D03*
Y321339D02*
D03*
Y318780D02*
D03*
Y316220D02*
D03*
Y313661D02*
D03*
Y311102D02*
D03*
Y308543D02*
D03*
Y305984D02*
D03*
X744319Y329016D02*
D03*
Y326457D02*
D03*
Y323898D02*
D03*
Y321339D02*
D03*
Y318780D02*
D03*
Y316220D02*
D03*
Y313661D02*
D03*
Y311102D02*
D03*
Y308543D02*
D03*
Y305984D02*
D03*
X980319Y174484D02*
D03*
Y177043D02*
D03*
Y179602D02*
D03*
Y182161D02*
D03*
Y184720D02*
D03*
Y187280D02*
D03*
Y189839D02*
D03*
Y192398D02*
D03*
Y194957D02*
D03*
Y197516D02*
D03*
X957681Y174484D02*
D03*
Y177043D02*
D03*
Y179602D02*
D03*
Y182161D02*
D03*
Y184720D02*
D03*
Y187280D02*
D03*
Y189839D02*
D03*
Y192398D02*
D03*
Y194957D02*
D03*
Y197516D02*
D03*
X678681Y467766D02*
D03*
Y465207D02*
D03*
Y462648D02*
D03*
Y460089D02*
D03*
Y457530D02*
D03*
Y454970D02*
D03*
Y452411D02*
D03*
Y449852D02*
D03*
Y447293D02*
D03*
Y444734D02*
D03*
X701319Y467766D02*
D03*
Y465207D02*
D03*
Y462648D02*
D03*
Y460089D02*
D03*
Y457530D02*
D03*
Y454970D02*
D03*
Y452411D02*
D03*
Y449852D02*
D03*
Y447293D02*
D03*
Y444734D02*
D03*
X1011319Y42234D02*
D03*
Y44793D02*
D03*
Y47352D02*
D03*
Y49911D02*
D03*
Y52470D02*
D03*
Y55030D02*
D03*
Y57589D02*
D03*
Y60148D02*
D03*
Y62707D02*
D03*
Y65266D02*
D03*
X988681Y42234D02*
D03*
Y44793D02*
D03*
Y47352D02*
D03*
Y49911D02*
D03*
Y52470D02*
D03*
Y55030D02*
D03*
Y57589D02*
D03*
Y60148D02*
D03*
Y62707D02*
D03*
Y65266D02*
D03*
X721681Y241516D02*
D03*
Y238957D02*
D03*
Y236398D02*
D03*
Y233839D02*
D03*
Y231280D02*
D03*
Y228720D02*
D03*
Y226161D02*
D03*
Y223602D02*
D03*
Y221043D02*
D03*
Y218484D02*
D03*
X744319Y241516D02*
D03*
Y238957D02*
D03*
Y236398D02*
D03*
Y233839D02*
D03*
Y231280D02*
D03*
Y228720D02*
D03*
Y226161D02*
D03*
Y223602D02*
D03*
Y221043D02*
D03*
Y218484D02*
D03*
X980319Y254484D02*
D03*
Y257043D02*
D03*
Y259602D02*
D03*
Y262161D02*
D03*
Y264720D02*
D03*
Y267280D02*
D03*
Y269839D02*
D03*
Y272398D02*
D03*
Y274957D02*
D03*
Y277516D02*
D03*
X957681Y254484D02*
D03*
Y257043D02*
D03*
Y259602D02*
D03*
Y262161D02*
D03*
Y264720D02*
D03*
Y267280D02*
D03*
Y269839D02*
D03*
Y272398D02*
D03*
Y274957D02*
D03*
Y277516D02*
D03*
D49*
X943516Y361319D02*
D03*
X940957D02*
D03*
X938398D02*
D03*
X935839D02*
D03*
X933280D02*
D03*
X930720D02*
D03*
X928161D02*
D03*
X925602D02*
D03*
X923043D02*
D03*
X920484D02*
D03*
X943516Y338681D02*
D03*
X940957D02*
D03*
X938398D02*
D03*
X935839D02*
D03*
X933280D02*
D03*
X930720D02*
D03*
X928161D02*
D03*
X925602D02*
D03*
X923043D02*
D03*
X920484D02*
D03*
X803484Y138681D02*
D03*
X806043D02*
D03*
X808602D02*
D03*
X811161D02*
D03*
X813720D02*
D03*
X816280D02*
D03*
X818839D02*
D03*
X821398D02*
D03*
X823957D02*
D03*
X826516D02*
D03*
X803484Y161319D02*
D03*
X806043D02*
D03*
X808602D02*
D03*
X811161D02*
D03*
X813720D02*
D03*
X816280D02*
D03*
X818839D02*
D03*
X821398D02*
D03*
X823957D02*
D03*
X826516D02*
D03*
X638484Y98681D02*
D03*
X641043D02*
D03*
X643602D02*
D03*
X646161D02*
D03*
X648720D02*
D03*
X651280D02*
D03*
X653839D02*
D03*
X656398D02*
D03*
X658957D02*
D03*
X661516D02*
D03*
X638484Y121319D02*
D03*
X641043D02*
D03*
X643602D02*
D03*
X646161D02*
D03*
X648720D02*
D03*
X651280D02*
D03*
X653839D02*
D03*
X656398D02*
D03*
X658957D02*
D03*
X661516D02*
D03*
X1057766Y421319D02*
D03*
X1055207D02*
D03*
X1052648D02*
D03*
X1050089D02*
D03*
X1047530D02*
D03*
X1044970D02*
D03*
X1042411D02*
D03*
X1039852D02*
D03*
X1037293D02*
D03*
X1034734D02*
D03*
X1057766Y398681D02*
D03*
X1055207D02*
D03*
X1052648D02*
D03*
X1050089D02*
D03*
X1047530D02*
D03*
X1044970D02*
D03*
X1042411D02*
D03*
X1039852D02*
D03*
X1037293D02*
D03*
X1034734D02*
D03*
X856516Y361319D02*
D03*
X853957D02*
D03*
X851398D02*
D03*
X848839D02*
D03*
X846280D02*
D03*
X843720D02*
D03*
X841161D02*
D03*
X838602D02*
D03*
X836043D02*
D03*
X833484D02*
D03*
X856516Y338681D02*
D03*
X853957D02*
D03*
X851398D02*
D03*
X848839D02*
D03*
X846280D02*
D03*
X843720D02*
D03*
X841161D02*
D03*
X838602D02*
D03*
X836043D02*
D03*
X833484D02*
D03*
X883484Y138681D02*
D03*
X886043D02*
D03*
X888602D02*
D03*
X891161D02*
D03*
X893720D02*
D03*
X896280D02*
D03*
X898839D02*
D03*
X901398D02*
D03*
X903957D02*
D03*
X906516D02*
D03*
X883484Y161319D02*
D03*
X886043D02*
D03*
X888602D02*
D03*
X891161D02*
D03*
X893720D02*
D03*
X896280D02*
D03*
X898839D02*
D03*
X901398D02*
D03*
X903957D02*
D03*
X906516D02*
D03*
X640484Y398681D02*
D03*
X643043D02*
D03*
X645602D02*
D03*
X648161D02*
D03*
X650720D02*
D03*
X653280D02*
D03*
X655839D02*
D03*
X658398D02*
D03*
X660957D02*
D03*
X663516D02*
D03*
X640484Y421319D02*
D03*
X643043D02*
D03*
X645602D02*
D03*
X648161D02*
D03*
X650720D02*
D03*
X653280D02*
D03*
X655839D02*
D03*
X658398D02*
D03*
X660957D02*
D03*
X663516D02*
D03*
X1057766Y101319D02*
D03*
X1055207D02*
D03*
X1052648D02*
D03*
X1050089D02*
D03*
X1047530D02*
D03*
X1044970D02*
D03*
X1042411D02*
D03*
X1039852D02*
D03*
X1037293D02*
D03*
X1034734D02*
D03*
X1057766Y78681D02*
D03*
X1055207D02*
D03*
X1052648D02*
D03*
X1050089D02*
D03*
X1047530D02*
D03*
X1044970D02*
D03*
X1042411D02*
D03*
X1039852D02*
D03*
X1037293D02*
D03*
X1034734D02*
D03*
D50*
X338681Y327677D02*
D03*
Y325118D02*
D03*
Y322559D02*
D03*
Y320000D02*
D03*
Y317441D02*
D03*
Y314882D02*
D03*
Y312323D02*
D03*
X361319Y327677D02*
D03*
Y325118D02*
D03*
Y322559D02*
D03*
Y320000D02*
D03*
Y317441D02*
D03*
Y314882D02*
D03*
Y312323D02*
D03*
X338681Y177677D02*
D03*
Y175118D02*
D03*
Y172559D02*
D03*
Y170000D02*
D03*
Y167441D02*
D03*
Y164882D02*
D03*
Y162323D02*
D03*
X361319Y177677D02*
D03*
Y175118D02*
D03*
Y172559D02*
D03*
Y170000D02*
D03*
Y167441D02*
D03*
Y164882D02*
D03*
Y162323D02*
D03*
D51*
X460000Y299409D02*
D03*
Y149409D02*
D03*
D52*
Y340591D02*
D03*
Y190591D02*
D03*
X388909Y240000D02*
D03*
Y100000D02*
D03*
D53*
X430091Y240000D02*
D03*
Y100000D02*
D03*
D54*
X190000Y25000D02*
D03*
D55*
X210000D02*
D03*
D56*
X20000Y20000D02*
D03*
Y480000D02*
D03*
D57*
X42300Y214800D02*
D03*
Y204800D02*
D03*
Y194800D02*
D03*
Y184800D02*
D03*
Y174800D02*
D03*
Y164800D02*
D03*
Y154800D02*
D03*
Y144800D02*
D03*
Y134800D02*
D03*
Y124800D02*
D03*
Y114800D02*
D03*
Y104800D02*
D03*
Y94800D02*
D03*
Y84800D02*
D03*
Y74800D02*
D03*
Y64800D02*
D03*
Y54800D02*
D03*
Y44800D02*
D03*
Y34800D02*
D03*
X62300Y25300D02*
D03*
Y35300D02*
D03*
Y45300D02*
D03*
Y55300D02*
D03*
Y65300D02*
D03*
Y75300D02*
D03*
Y85300D02*
D03*
Y95300D02*
D03*
Y105300D02*
D03*
Y115300D02*
D03*
Y125300D02*
D03*
Y135300D02*
D03*
Y145300D02*
D03*
Y155300D02*
D03*
Y165300D02*
D03*
Y175300D02*
D03*
Y185300D02*
D03*
Y195300D02*
D03*
Y205300D02*
D03*
Y470400D02*
D03*
Y460400D02*
D03*
Y450400D02*
D03*
Y440400D02*
D03*
Y430400D02*
D03*
Y420400D02*
D03*
Y410400D02*
D03*
Y400400D02*
D03*
Y390400D02*
D03*
Y380400D02*
D03*
Y370400D02*
D03*
Y360400D02*
D03*
Y350400D02*
D03*
Y340400D02*
D03*
Y330400D02*
D03*
Y320400D02*
D03*
Y310400D02*
D03*
Y300400D02*
D03*
Y290400D02*
D03*
X42300Y470400D02*
D03*
Y460400D02*
D03*
Y450400D02*
D03*
Y440400D02*
D03*
Y430400D02*
D03*
Y420400D02*
D03*
Y410400D02*
D03*
Y400400D02*
D03*
Y390400D02*
D03*
Y380400D02*
D03*
Y370400D02*
D03*
Y360400D02*
D03*
Y350400D02*
D03*
Y340400D02*
D03*
Y330400D02*
D03*
Y320400D02*
D03*
Y310400D02*
D03*
Y300400D02*
D03*
Y290400D02*
D03*
X360000Y370000D02*
D03*
X380000D02*
D03*
X390000D02*
D03*
X400000D02*
D03*
X410000D02*
D03*
X420000D02*
D03*
X430000D02*
D03*
X440000D02*
D03*
X370000D02*
D03*
X360000Y70000D02*
D03*
X380000D02*
D03*
X390000D02*
D03*
X400000D02*
D03*
X410000D02*
D03*
X420000D02*
D03*
X430000D02*
D03*
X440000D02*
D03*
X370000D02*
D03*
X470000Y370000D02*
D03*
X490000D02*
D03*
X500000D02*
D03*
X510000D02*
D03*
X520000D02*
D03*
X530000D02*
D03*
X540000D02*
D03*
X550000D02*
D03*
X480000D02*
D03*
X470000Y70000D02*
D03*
X490000D02*
D03*
X500000D02*
D03*
X510000D02*
D03*
X520000D02*
D03*
X530000D02*
D03*
X540000D02*
D03*
X550000D02*
D03*
X480000D02*
D03*
D58*
X42300Y24800D02*
D03*
X62300Y215300D02*
D03*
Y280400D02*
D03*
X42300D02*
D03*
D59*
X350000Y370000D02*
D03*
Y70000D02*
D03*
X460000Y370000D02*
D03*
Y70000D02*
D03*
D60*
X449483Y475315D02*
D03*
Y457598D02*
D03*
X376983Y475315D02*
D03*
Y457598D02*
D03*
X525483Y475315D02*
D03*
Y457598D02*
D03*
D61*
X790100Y412900D02*
D03*
X782000Y409700D02*
D03*
X484100Y416800D02*
D03*
X538100Y357800D02*
D03*
X460100Y418800D02*
D03*
X397100Y355800D02*
D03*
X535400Y312400D02*
D03*
X515300Y292300D02*
D03*
X950400Y180200D02*
D03*
X943200Y184700D02*
D03*
X141900Y215900D02*
D03*
X118900Y223600D02*
D03*
X110200Y190000D02*
D03*
X143200Y195300D02*
D03*
X109200Y177400D02*
D03*
X90375Y180000D02*
D03*
X114500Y172200D02*
D03*
X152500Y440400D02*
D03*
X185000Y183500D02*
D03*
X85800Y342600D02*
D03*
X111500Y405400D02*
D03*
X157500Y250000D02*
D03*
X146600Y245900D02*
D03*
X112100Y375700D02*
D03*
X235800Y190000D02*
D03*
X176200Y130400D02*
D03*
X164000Y172400D02*
D03*
Y126200D02*
D03*
X182300Y95300D02*
D03*
X257000Y170000D02*
D03*
X117200Y89600D02*
D03*
X309000Y145700D02*
D03*
X192300Y157800D02*
D03*
X142500Y95900D02*
D03*
X46800Y264500D02*
D03*
X361300Y252400D02*
D03*
Y240000D02*
D03*
X77400Y300300D02*
D03*
X61800Y270200D02*
D03*
X114200Y290000D02*
D03*
X665000Y405900D02*
D03*
X676600Y384000D02*
D03*
X744500Y296507D02*
D03*
X763900Y297500D02*
D03*
X774500Y323000D02*
D03*
X761600D02*
D03*
X723700Y148900D02*
D03*
X662000Y105900D02*
D03*
X706300Y336500D02*
D03*
X759500Y300900D02*
D03*
X965900Y150100D02*
D03*
X117200Y280000D02*
D03*
X307100Y225800D02*
D03*
X354300Y174400D02*
D03*
X332500Y308182D02*
D03*
X361700Y264200D02*
D03*
X258400Y259000D02*
D03*
X359700Y234500D02*
D03*
X312000Y296500D02*
D03*
X661282Y413561D02*
D03*
X627775Y415380D02*
D03*
X700400Y21300D02*
D03*
X773500D02*
D03*
X670500Y60984D02*
D03*
X883983Y59417D02*
D03*
X683900Y11400D02*
D03*
X811946Y9400D02*
D03*
X952200Y27000D02*
D03*
X806400Y26900D02*
D03*
X815400Y482700D02*
D03*
X1024700Y461389D02*
D03*
X819000Y471000D02*
D03*
X998774Y452411D02*
D03*
X1004600Y471700D02*
D03*
X1007200Y435600D02*
D03*
X996900Y413000D02*
D03*
X867000Y443600D02*
D03*
X798000Y412800D02*
D03*
X739700Y426600D02*
D03*
X713118Y451082D02*
D03*
X879000Y441700D02*
D03*
X915000Y436300D02*
D03*
X716300Y424700D02*
D03*
X697300Y438000D02*
D03*
X925000Y439397D02*
D03*
X330000Y170300D02*
D03*
X442540Y173740D02*
D03*
X912500Y358200D02*
D03*
X1055207Y387500D02*
D03*
X836043Y352157D02*
D03*
X1004200Y466200D02*
D03*
X987600Y437800D02*
D03*
X980900Y386736D02*
D03*
X618900Y240000D02*
D03*
X954700Y145100D02*
D03*
X975800Y346000D02*
D03*
X1037500Y251000D02*
D03*
X683000Y85000D02*
D03*
X736600Y262600D02*
D03*
X297700Y360000D02*
D03*
X146500Y78300D02*
D03*
X373400Y170100D02*
D03*
X344300Y136500D02*
D03*
X967600Y268700D02*
D03*
X965600Y258700D02*
D03*
X943563Y292300D02*
D03*
X939882Y286618D02*
D03*
X964600Y282400D02*
D03*
X932450Y309650D02*
D03*
X1091988Y68888D02*
D03*
X1090600Y393100D02*
D03*
X1047400Y428500D02*
D03*
X1086200Y58600D02*
D03*
X1087700Y374000D02*
D03*
X1032600Y412500D02*
D03*
X1094700Y98000D02*
D03*
X816600Y31800D02*
D03*
X835600Y62500D02*
D03*
X1083800Y159900D02*
D03*
X1084700Y385700D02*
D03*
X1067400Y411300D02*
D03*
X1041400Y108400D02*
D03*
X1038800Y93100D02*
D03*
X931500Y86800D02*
D03*
X855900Y31800D02*
D03*
X1037570Y112400D02*
D03*
X1033100Y108600D02*
D03*
X1045049Y93655D02*
D03*
X1050648Y92800D02*
D03*
X1056000Y94200D02*
D03*
X900000Y62400D02*
D03*
X912000Y254800D02*
D03*
X756500Y315300D02*
D03*
X931700Y96700D02*
D03*
X928300Y251600D02*
D03*
X734000Y300600D02*
D03*
X811500Y149000D02*
D03*
X817400Y149100D02*
D03*
X750700Y273700D02*
D03*
X739600Y280300D02*
D03*
X828100Y94500D02*
D03*
X773700Y294800D02*
D03*
X737100Y313661D02*
D03*
X803300Y148400D02*
D03*
X728000Y88300D02*
D03*
X731800Y92600D02*
D03*
X742450Y67050D02*
D03*
X736200Y82300D02*
D03*
X726386Y79000D02*
D03*
X737200Y222400D02*
D03*
X733200Y202200D02*
D03*
X733000Y73100D02*
D03*
X741200Y73700D02*
D03*
X654400Y108200D02*
D03*
X619700Y146300D02*
D03*
X657100Y406300D02*
D03*
X688000Y285000D02*
D03*
X674600Y377200D02*
D03*
X647700Y405900D02*
D03*
X650400Y381300D02*
D03*
X766000Y280600D02*
D03*
X745100Y335500D02*
D03*
X826400Y154100D02*
D03*
X798600Y164500D02*
D03*
X758500Y295200D02*
D03*
X695400Y334000D02*
D03*
X674600Y370900D02*
D03*
X696700Y302400D02*
D03*
X697800Y278700D02*
D03*
X820100Y248900D02*
D03*
X871800Y261000D02*
D03*
X692900Y282000D02*
D03*
X697400Y291700D02*
D03*
X866800Y257500D02*
D03*
X879500Y243500D02*
D03*
X901400Y201600D02*
D03*
X657100Y221100D02*
D03*
Y239000D02*
D03*
X751700Y232600D02*
D03*
X694800Y88000D02*
D03*
X750200Y114700D02*
D03*
X723800Y189731D02*
D03*
X751600Y108600D02*
D03*
X1028800Y60800D02*
D03*
X1077900Y442500D02*
D03*
X1078900Y424422D02*
D03*
X1083000Y415000D02*
D03*
X966100Y458300D02*
D03*
X970247Y467325D02*
D03*
X816200Y363100D02*
D03*
X748500Y450400D02*
D03*
Y400361D02*
D03*
X808833Y375600D02*
D03*
X763000Y412900D02*
D03*
X785000Y436600D02*
D03*
X836200Y398500D02*
D03*
X845800Y378800D02*
D03*
X985100Y397732D02*
D03*
X821500Y406900D02*
D03*
X852000Y371200D02*
D03*
X967300Y353900D02*
D03*
X975100Y392100D02*
D03*
X825900Y381800D02*
D03*
X818500Y413000D02*
D03*
X969300Y397300D02*
D03*
X968800Y432300D02*
D03*
X955800Y401800D02*
D03*
X964800Y465800D02*
D03*
X992000Y475700D02*
D03*
X703000Y409200D02*
D03*
X879200Y385300D02*
D03*
X891000Y412200D02*
D03*
X896700Y410700D02*
D03*
X887600Y375600D02*
D03*
X819600Y370200D02*
D03*
X803800Y360800D02*
D03*
X706100Y368500D02*
D03*
X685900Y453700D02*
D03*
X878000Y395300D02*
D03*
X904900Y411000D02*
D03*
X685200Y374000D02*
D03*
X701700Y420800D02*
D03*
X918500Y391700D02*
D03*
X930000Y413000D02*
D03*
X689300Y459400D02*
D03*
X670300Y419600D02*
D03*
X677600Y359200D02*
D03*
X859900Y168500D02*
D03*
X712500Y242000D02*
D03*
X725600Y373200D02*
D03*
X1002400Y368500D02*
D03*
X944000D02*
D03*
X993800Y350000D02*
D03*
X860000Y344900D02*
D03*
X259200Y266400D02*
D03*
X1068200Y178200D02*
D03*
X1066600Y149687D02*
D03*
X942500Y136600D02*
D03*
X531900Y281100D02*
D03*
X506800D02*
D03*
X985900Y472700D02*
D03*
X1055207Y454600D02*
D03*
X1037900Y228400D02*
D03*
X1027300Y43500D02*
D03*
X1040200Y129300D02*
D03*
X354700Y492700D02*
D03*
X640400Y388200D02*
D03*
X823100Y230500D02*
D03*
X249700Y125200D02*
D03*
X356100Y155300D02*
D03*
X1013000Y198000D02*
D03*
X1012100Y101200D02*
D03*
X915000Y93600D02*
D03*
X690800Y185000D02*
D03*
X787000Y307700D02*
D03*
X925000Y201582D02*
D03*
X811609Y327500D02*
D03*
X655700Y189300D02*
D03*
X1037900Y188000D02*
D03*
X939300Y248200D02*
D03*
X904100Y326900D02*
D03*
X882400Y281100D02*
D03*
X730000Y292700D02*
D03*
X657100Y171500D02*
D03*
X1041700Y330700D02*
D03*
X977000Y283500D02*
D03*
X1029100Y147100D02*
D03*
X85800Y162000D02*
D03*
X78836Y155700D02*
D03*
X122000Y194900D02*
D03*
X70600Y340900D02*
D03*
X50500Y355900D02*
D03*
X80500Y320000D02*
D03*
X329100Y260500D02*
D03*
X184400Y363400D02*
D03*
X301000Y246300D02*
D03*
X151500Y270000D02*
D03*
X53700Y279900D02*
D03*
X73400Y136400D02*
D03*
X274900Y160000D02*
D03*
X190200Y75300D02*
D03*
X52300Y270800D02*
D03*
X72100Y330400D02*
D03*
Y306800D02*
D03*
X151900Y284600D02*
D03*
X110200Y300000D02*
D03*
X306400Y138000D02*
D03*
X309800Y303300D02*
D03*
X1032000Y127900D02*
D03*
X1007400Y70100D02*
D03*
X943516Y315000D02*
D03*
X856516Y324500D02*
D03*
X781006Y161494D02*
D03*
X759000Y329000D02*
D03*
X872600Y164900D02*
D03*
X786550Y170496D02*
D03*
X1042300Y319900D02*
D03*
X1051100Y359800D02*
D03*
X1043700Y280900D02*
D03*
X1070400Y278600D02*
D03*
Y341400D02*
D03*
X1042400Y374400D02*
D03*
X662900Y159000D02*
D03*
X654600Y113900D02*
D03*
X652500Y432000D02*
D03*
X630800Y425900D02*
D03*
X878000Y56300D02*
D03*
X686000Y55817D02*
D03*
X877000Y62500D02*
D03*
X666000Y64600D02*
D03*
X707000Y8000D02*
D03*
X841400Y7400D02*
D03*
X665600Y51800D02*
D03*
X857900Y56400D02*
D03*
X850500Y56300D02*
D03*
X669452Y46600D02*
D03*
X829000Y30900D02*
D03*
X994300Y32500D02*
D03*
X823000Y31700D02*
D03*
X979642Y60148D02*
D03*
X816500Y23800D02*
D03*
X998300Y50200D02*
D03*
X785000Y30600D02*
D03*
X990500Y16400D02*
D03*
X796000Y27100D02*
D03*
X974725Y19000D02*
D03*
X908400Y373100D02*
D03*
X915400Y376100D02*
D03*
X920850Y349950D02*
D03*
X897600Y379976D02*
D03*
X855000Y479700D02*
D03*
X1001100Y482100D02*
D03*
X895500Y467700D02*
D03*
X736300Y465100D02*
D03*
X692300Y435500D02*
D03*
X931000Y439300D02*
D03*
X941700Y439800D02*
D03*
X721600Y465800D02*
D03*
X404100Y340800D02*
D03*
X439500Y158600D02*
D03*
X1064200Y88500D02*
D03*
X964300Y24900D02*
D03*
X626700Y238100D02*
D03*
X974200Y144900D02*
D03*
X786500Y270000D02*
D03*
X706000Y300300D02*
D03*
X1041900Y354300D02*
D03*
X1031400D02*
D03*
X1019700Y81600D02*
D03*
X470000Y290000D02*
D03*
X146500Y150000D02*
D03*
X371700Y290800D02*
D03*
X944000Y197600D02*
D03*
X947500Y221500D02*
D03*
X950500Y192800D02*
D03*
X950400Y257700D02*
D03*
X950500Y270600D02*
D03*
X935300Y331500D02*
D03*
X1044800Y439900D02*
D03*
X747800Y30600D02*
D03*
X1040400Y414200D02*
D03*
X891300Y112000D02*
D03*
X770000Y26400D02*
D03*
X957600Y301600D02*
D03*
X921000Y257000D02*
D03*
X846000Y31900D02*
D03*
X1034100Y134500D02*
D03*
X933300Y130700D02*
D03*
X914000Y261000D02*
D03*
X751500Y321339D02*
D03*
X754600Y91600D02*
D03*
X837100Y89500D02*
D03*
Y210800D02*
D03*
X735200Y236100D02*
D03*
X664000Y112543D02*
D03*
X656739Y89100D02*
D03*
X647000Y114200D02*
D03*
X625700Y176000D02*
D03*
X632379Y109400D02*
D03*
X636600Y105500D02*
D03*
X627700Y229000D02*
D03*
X656900Y333800D02*
D03*
X698000Y265000D02*
D03*
X710000Y289988D02*
D03*
X657600Y383400D02*
D03*
X650100Y412380D02*
D03*
X627296Y405700D02*
D03*
X631800Y289000D02*
D03*
X649602Y390400D02*
D03*
X764409Y269091D02*
D03*
X736948Y332400D02*
D03*
X626200Y336900D02*
D03*
X800200Y119700D02*
D03*
X823400Y148700D02*
D03*
X656300Y250500D02*
D03*
X686400Y180400D02*
D03*
X818839Y185800D02*
D03*
X892500Y246800D02*
D03*
X902100Y250900D02*
D03*
X629700Y257700D02*
D03*
X631200Y271000D02*
D03*
X883000Y252500D02*
D03*
X906516Y207400D02*
D03*
X715700Y199151D02*
D03*
X625500Y182300D02*
D03*
X625300Y57600D02*
D03*
X708400Y51400D02*
D03*
X759000Y143600D02*
D03*
X677700Y101000D02*
D03*
X641500Y146300D02*
D03*
X1084200Y396800D02*
D03*
X1004200Y60800D02*
D03*
X1077400Y90000D02*
D03*
X1068100Y405200D02*
D03*
X792000Y468300D02*
D03*
Y487000D02*
D03*
X1073000D02*
D03*
X1045100Y492000D02*
D03*
X938398Y323100D02*
D03*
X899300D02*
D03*
X857000Y468300D02*
D03*
X924400Y467500D02*
D03*
X950000Y383100D02*
D03*
X956200D02*
D03*
X976000Y471436D02*
D03*
X978600Y459900D02*
D03*
X962900Y358500D02*
D03*
X928161Y348861D02*
D03*
X925500Y329802D02*
D03*
X915500Y336900D02*
D03*
X774000Y468200D02*
D03*
X772500Y374200D02*
D03*
X847500Y351800D02*
D03*
X760000Y444700D02*
D03*
X914000Y404700D02*
D03*
X878000Y404900D02*
D03*
X884600Y412900D02*
D03*
X890000Y388700D02*
D03*
X679000Y430200D02*
D03*
X671500Y451900D02*
D03*
X801400Y473821D02*
D03*
X900000Y438831D02*
D03*
X1020334Y441200D02*
D03*
X1026900Y437300D02*
D03*
X988900Y383600D02*
D03*
X1013600Y375300D02*
D03*
X762000Y138600D02*
D03*
X669300Y96100D02*
D03*
X863800Y220300D02*
D03*
X667400Y77800D02*
D03*
X354300Y166200D02*
D03*
X636600Y91600D02*
D03*
X672400Y80700D02*
D03*
X668893Y458800D02*
D03*
X976800Y329300D02*
D03*
X919000Y330000D02*
D03*
X836043Y331200D02*
D03*
X719900Y212200D02*
D03*
X751400Y303800D02*
D03*
X751500Y220500D02*
D03*
X903400Y231400D02*
D03*
X952900Y231600D02*
D03*
X380400Y170000D02*
D03*
X983400Y169600D02*
D03*
X936500Y235100D02*
D03*
X917000Y247900D02*
D03*
X781800Y312200D02*
D03*
X994300Y295000D02*
D03*
X984057Y327100D02*
D03*
X811900Y339900D02*
D03*
M02*
