G04 Layer_Physical_Order=2*
G04 Layer_Color=16711680*
%FSLAX25Y25*%
%MOIN*%
G70*
G01*
G75*
%ADD19R,0.07874X0.03937*%
%ADD20R,0.03937X0.07874*%
%ADD22C,0.01000*%
%ADD23C,0.09100*%
%ADD24C,0.05906*%
%ADD25R,0.05906X0.05906*%
%ADD26R,0.05906X0.05906*%
%ADD27C,0.07874*%
%ADD28R,0.07874X0.07874*%
%ADD29R,0.07284X0.07284*%
%ADD30C,0.07284*%
%ADD31C,0.16000*%
%ADD32C,0.03000*%
D19*
X130291Y140000D02*
D03*
Y150000D02*
D03*
X99583Y210000D02*
D03*
Y190000D02*
D03*
Y180000D02*
D03*
Y170000D02*
D03*
Y200000D02*
D03*
Y250000D02*
D03*
Y220000D02*
D03*
Y230000D02*
D03*
Y240000D02*
D03*
Y260000D02*
D03*
Y300000D02*
D03*
Y270000D02*
D03*
Y280000D02*
D03*
Y290000D02*
D03*
Y310000D02*
D03*
Y350000D02*
D03*
Y320000D02*
D03*
Y330000D02*
D03*
Y340000D02*
D03*
Y360000D02*
D03*
X130291D02*
D03*
Y340000D02*
D03*
Y330000D02*
D03*
Y320000D02*
D03*
Y350000D02*
D03*
Y310000D02*
D03*
Y290000D02*
D03*
Y280000D02*
D03*
Y270000D02*
D03*
Y300000D02*
D03*
Y260000D02*
D03*
Y240000D02*
D03*
Y230000D02*
D03*
Y220000D02*
D03*
Y250000D02*
D03*
Y200000D02*
D03*
Y170000D02*
D03*
Y180000D02*
D03*
Y190000D02*
D03*
Y210000D02*
D03*
X289291D02*
D03*
Y190000D02*
D03*
Y180000D02*
D03*
Y170000D02*
D03*
Y200000D02*
D03*
Y250000D02*
D03*
Y220000D02*
D03*
Y230000D02*
D03*
Y240000D02*
D03*
Y260000D02*
D03*
Y300000D02*
D03*
Y270000D02*
D03*
Y280000D02*
D03*
Y290000D02*
D03*
Y310000D02*
D03*
Y350000D02*
D03*
Y320000D02*
D03*
Y330000D02*
D03*
Y340000D02*
D03*
Y360000D02*
D03*
X320000D02*
D03*
Y340000D02*
D03*
Y330000D02*
D03*
Y320000D02*
D03*
Y350000D02*
D03*
Y310000D02*
D03*
Y290000D02*
D03*
Y280000D02*
D03*
Y270000D02*
D03*
Y300000D02*
D03*
Y260000D02*
D03*
Y240000D02*
D03*
Y230000D02*
D03*
Y220000D02*
D03*
Y250000D02*
D03*
Y200000D02*
D03*
Y170000D02*
D03*
Y180000D02*
D03*
Y190000D02*
D03*
Y210000D02*
D03*
X130291Y160000D02*
D03*
X99583Y140000D02*
D03*
Y150000D02*
D03*
Y160000D02*
D03*
X320000D02*
D03*
Y150000D02*
D03*
Y140000D02*
D03*
X289291D02*
D03*
Y150000D02*
D03*
Y160000D02*
D03*
X670354Y195000D02*
D03*
Y175000D02*
D03*
Y165000D02*
D03*
Y155000D02*
D03*
Y185000D02*
D03*
Y235000D02*
D03*
Y205000D02*
D03*
Y215000D02*
D03*
Y225000D02*
D03*
Y245000D02*
D03*
Y285000D02*
D03*
Y255000D02*
D03*
Y265000D02*
D03*
Y275000D02*
D03*
Y295000D02*
D03*
Y335000D02*
D03*
Y305000D02*
D03*
Y315000D02*
D03*
Y325000D02*
D03*
Y345000D02*
D03*
X639646D02*
D03*
Y325000D02*
D03*
Y315000D02*
D03*
Y305000D02*
D03*
Y335000D02*
D03*
Y295000D02*
D03*
Y275000D02*
D03*
Y265000D02*
D03*
Y255000D02*
D03*
Y285000D02*
D03*
Y245000D02*
D03*
Y225000D02*
D03*
Y215000D02*
D03*
Y205000D02*
D03*
Y235000D02*
D03*
Y185000D02*
D03*
Y155000D02*
D03*
Y165000D02*
D03*
Y175000D02*
D03*
Y195000D02*
D03*
X1029646Y305000D02*
D03*
Y325000D02*
D03*
Y335000D02*
D03*
Y345000D02*
D03*
Y315000D02*
D03*
Y265000D02*
D03*
Y295000D02*
D03*
Y285000D02*
D03*
Y275000D02*
D03*
Y255000D02*
D03*
Y215000D02*
D03*
Y245000D02*
D03*
Y235000D02*
D03*
Y225000D02*
D03*
Y205000D02*
D03*
Y165000D02*
D03*
Y195000D02*
D03*
Y185000D02*
D03*
Y175000D02*
D03*
Y155000D02*
D03*
X1060354D02*
D03*
Y175000D02*
D03*
Y185000D02*
D03*
Y195000D02*
D03*
Y165000D02*
D03*
Y205000D02*
D03*
Y225000D02*
D03*
Y235000D02*
D03*
Y245000D02*
D03*
Y215000D02*
D03*
Y255000D02*
D03*
Y275000D02*
D03*
Y285000D02*
D03*
Y295000D02*
D03*
Y265000D02*
D03*
Y315000D02*
D03*
Y345000D02*
D03*
Y335000D02*
D03*
Y325000D02*
D03*
Y305000D02*
D03*
D20*
X900000Y429646D02*
D03*
X920000D02*
D03*
X930000D02*
D03*
X940000D02*
D03*
X910000D02*
D03*
X860000D02*
D03*
X890000D02*
D03*
X880000D02*
D03*
X870000D02*
D03*
X850000D02*
D03*
X810000D02*
D03*
X840000D02*
D03*
X830000D02*
D03*
X820000D02*
D03*
X800000D02*
D03*
X760000D02*
D03*
X790000D02*
D03*
X780000D02*
D03*
X770000D02*
D03*
X750000D02*
D03*
Y460354D02*
D03*
X770000D02*
D03*
X780000D02*
D03*
X790000D02*
D03*
X760000D02*
D03*
X800000D02*
D03*
X820000D02*
D03*
X830000D02*
D03*
X840000D02*
D03*
X810000D02*
D03*
X850000D02*
D03*
X870000D02*
D03*
X880000D02*
D03*
X890000D02*
D03*
X860000D02*
D03*
X910000D02*
D03*
X940000D02*
D03*
X930000D02*
D03*
X920000D02*
D03*
X900000D02*
D03*
X790000Y70354D02*
D03*
X770000D02*
D03*
X760000D02*
D03*
X750000D02*
D03*
X780000D02*
D03*
X830000D02*
D03*
X800000D02*
D03*
X810000D02*
D03*
X820000D02*
D03*
X840000D02*
D03*
X880000D02*
D03*
X850000D02*
D03*
X860000D02*
D03*
X870000D02*
D03*
X890000D02*
D03*
X930000D02*
D03*
X900000D02*
D03*
X910000D02*
D03*
X920000D02*
D03*
X940000D02*
D03*
Y39646D02*
D03*
X920000D02*
D03*
X910000D02*
D03*
X900000D02*
D03*
X930000D02*
D03*
X890000D02*
D03*
X870000D02*
D03*
X860000D02*
D03*
X850000D02*
D03*
X880000D02*
D03*
X840000D02*
D03*
X820000D02*
D03*
X810000D02*
D03*
X800000D02*
D03*
X830000D02*
D03*
X780000D02*
D03*
X750000D02*
D03*
X760000D02*
D03*
X770000D02*
D03*
X790000D02*
D03*
D22*
X233700Y416600D02*
X301500D01*
X230300Y413200D02*
X233700Y416600D01*
X116700Y170000D02*
X130291D01*
X112900Y173800D02*
X116700Y170000D01*
X73900Y173800D02*
X112900D01*
X73400Y173300D02*
X73900Y173800D01*
X64400Y173300D02*
X73400D01*
X62700Y175000D02*
X64400Y173300D01*
X50000Y175000D02*
X62700D01*
X75889Y180000D02*
X99583D01*
X108500D02*
X130291D01*
X104900Y176400D02*
X108500Y180000D01*
X72900Y176400D02*
X104900D01*
X71600Y175100D02*
X72900Y176400D01*
X66200Y175100D02*
X71600D01*
X61900Y179400D02*
X66200Y175100D01*
X44500Y179400D02*
X61900D01*
X35400Y170300D02*
X44500Y179400D01*
X35400Y156000D02*
Y170300D01*
X29400Y150000D02*
X35400Y156000D01*
X17700Y150000D02*
X29400D01*
X15600Y152100D02*
X17700Y150000D01*
X15600Y152100D02*
Y166900D01*
X18100Y169400D01*
X24400D01*
X50000Y195000D01*
X86100Y200000D02*
X99583D01*
X68900Y178000D02*
Y182898D01*
X76002Y190000D01*
X99583D01*
X125689Y290000D02*
X130291D01*
X119089Y296600D02*
X125689Y290000D01*
X79100Y296600D02*
X119089D01*
X55700Y320000D02*
X79100Y296600D01*
X47546Y320000D02*
X55700D01*
X24800Y342746D02*
X47546Y320000D01*
X24800Y342746D02*
Y360200D01*
X20000Y365000D02*
X24800Y360200D01*
X169700Y277700D02*
X173000Y281000D01*
X186100D01*
X187100Y280000D01*
X289291D01*
X222200Y310000D02*
X289291D01*
X213200Y301000D02*
X222200Y310000D01*
X213200Y290800D02*
Y301000D01*
Y290800D02*
X216100Y287900D01*
X187767Y73639D02*
X189128Y75000D01*
X79100Y73639D02*
X187767D01*
X77739Y75000D02*
X79100Y73639D01*
X50000Y75000D02*
X77739D01*
X229200Y320000D02*
X289291D01*
X209600Y300400D02*
X229200Y320000D01*
X209600Y296300D02*
Y300400D01*
X20000Y321700D02*
Y325000D01*
Y321700D02*
X24400Y317300D01*
Y282600D02*
Y317300D01*
Y282600D02*
X77000Y230000D01*
X99583D01*
X15600Y350600D02*
X20000Y355000D01*
X15600Y343100D02*
Y350600D01*
Y343100D02*
X18100Y340600D01*
X21200D01*
X24900Y336900D01*
Y321400D02*
Y336900D01*
Y321400D02*
X45700Y300600D01*
X58600D01*
X89200Y270000D01*
X99583D01*
X20000Y215000D02*
X33000Y228000D01*
X49198D01*
X61398Y215800D01*
X308500D01*
X312700Y220000D01*
X320000D01*
X60300Y83700D02*
Y89341D01*
X76100Y105141D01*
X214241D01*
X259100Y150000D01*
X289291D01*
X312000D02*
X320000D01*
X306500Y144500D02*
X312000Y150000D01*
X306500Y47200D02*
Y144500D01*
X300000Y40700D02*
X306500Y47200D01*
X34300Y40700D02*
X300000D01*
X20000Y55000D02*
X34300Y40700D01*
X320000Y160000D02*
X324300D01*
X325300Y161000D01*
Y173000D01*
X324000Y174300D02*
X325300Y173000D01*
X305400Y174300D02*
X324000D01*
X302100Y171000D02*
X305400Y174300D01*
X302100Y155400D02*
Y171000D01*
X300100Y153400D02*
X302100Y155400D01*
X249378Y153400D02*
X300100D01*
X204878Y108900D02*
X249378Y153400D01*
X71100Y108900D02*
X204878D01*
X52200Y90000D02*
X71100Y108900D01*
X35000Y90000D02*
X52200D01*
X20000Y75000D02*
X35000Y90000D01*
X304000Y180000D02*
X320000D01*
X300000Y176000D02*
X304000Y180000D01*
X300000Y159300D02*
Y176000D01*
X295900Y155200D02*
X300000Y159300D01*
X246239Y155200D02*
X295900D01*
X202939Y111900D02*
X246239Y155200D01*
X70246Y111900D02*
X202939D01*
X58346Y100000D02*
X70246Y111900D01*
X17700Y100000D02*
X58346D01*
X15700Y102000D02*
X17700Y100000D01*
X15700Y102000D02*
Y110700D01*
X20000Y115000D01*
X15600Y129400D02*
X20000Y125000D01*
X15600Y129400D02*
Y137900D01*
X17700Y140000D01*
X80800D01*
X94200Y153400D01*
X194200D01*
X225900Y185100D01*
X304700D01*
X309600Y190000D01*
X320000D01*
X194000D02*
X289291D01*
X170700Y166700D02*
X194000Y190000D01*
X80600Y166700D02*
X170700D01*
X77900Y169400D02*
X80600Y166700D01*
X45800Y169400D02*
X77900D01*
X41500Y165100D02*
X45800Y169400D01*
X41500Y150500D02*
Y165100D01*
X36000Y145000D02*
X41500Y150500D01*
X20000Y145000D02*
X36000D01*
X20000Y155000D02*
Y158300D01*
X45700Y184000D01*
Y187000D01*
X48100Y189400D01*
X69100D01*
X74700Y195000D01*
X269100D01*
X274100Y200000D01*
X289291D01*
X191200Y210000D02*
X289291D01*
X40600Y200600D02*
X69100D01*
X71900Y203400D01*
X322500D01*
X327100Y208000D01*
Y229100D01*
X326200Y230000D02*
X327100Y229100D01*
X320000Y230000D02*
X326200D01*
X318000Y270000D02*
X320000D01*
X311500Y276500D02*
X318000Y270000D01*
X185800Y276500D02*
X311500D01*
X183100Y279200D02*
X185800Y276500D01*
X175193Y279200D02*
X183100D01*
X170888Y274895D02*
X175193Y279200D01*
X166943Y274895D02*
X170888D01*
X165138Y276700D02*
X166943Y274895D01*
X125000Y276700D02*
X165138D01*
X125000D02*
Y284000D01*
X118900Y290100D02*
X125000Y284000D01*
X50000Y395000D02*
X303000D01*
X383283Y314717D01*
Y246683D02*
Y314717D01*
X377000Y240400D02*
X383283Y246683D01*
X343137Y240400D02*
X377000D01*
X340269Y243269D02*
X343137Y240400D01*
X311131Y240000D02*
X314400Y243269D01*
X289291Y240000D02*
X311131D01*
X45600Y400600D02*
X50000Y405000D01*
X45600Y393100D02*
Y400600D01*
Y393100D02*
X48100Y390600D01*
X66400D01*
X88600Y368400D01*
X327054D01*
X378700Y316754D01*
Y252000D02*
Y316754D01*
X374600Y247900D02*
X378700Y252000D01*
X370600Y247900D02*
X374600D01*
X368500Y250000D02*
X370600Y247900D01*
X190000Y298000D02*
X232000Y340000D01*
X289291D01*
X88800Y320000D02*
X99583D01*
X130291Y330000D02*
X134700D01*
X141000Y336300D01*
X99583Y330000D02*
X130291D01*
X20000Y395000D02*
X32000Y383000D01*
Y356100D02*
Y383000D01*
Y356100D02*
X38100Y350000D01*
X51800D01*
X91800Y310000D01*
X99583D01*
X20000Y385000D02*
X27900Y377100D01*
Y346800D02*
Y377100D01*
Y346800D02*
X44700Y330000D01*
X62900D01*
X92900Y300000D01*
X99583D01*
Y350000D02*
X130291D01*
X99583Y340000D02*
X130291D01*
X955500Y165000D02*
X1029646D01*
X934500Y144000D02*
X955500Y165000D01*
X934500Y127537D02*
Y144000D01*
X931763Y124800D02*
X934500Y127537D01*
X905473Y124800D02*
X931763D01*
X897973Y132300D02*
X905473Y124800D01*
X781184Y132300D02*
X897973D01*
X771884Y123000D02*
X781184Y132300D01*
X722100Y123000D02*
X771884D01*
X711600Y133500D02*
X722100Y123000D01*
X706800Y133500D02*
X711600D01*
X701700Y128400D02*
X706800Y133500D01*
X1038800Y166000D02*
X1040400Y164400D01*
Y158000D02*
Y164400D01*
X1037400Y155000D02*
X1040400Y158000D01*
X1029646Y155000D02*
X1037400D01*
X109800Y260000D02*
X111900Y262100D01*
X99583Y260000D02*
X109800D01*
X480000Y383000D02*
X490000D01*
X470000D02*
X480000D01*
X490000D02*
X500000D01*
X510000D01*
X530000D02*
X540000D01*
X520000D02*
X530000D01*
X540000D02*
X550000D01*
X510000D02*
X520000D01*
X460000D02*
X470000D01*
X812131Y344623D02*
X940977D01*
X808655Y348100D02*
X812131Y344623D01*
X798900Y348100D02*
X808655D01*
X970600Y344000D02*
Y384100D01*
X879800Y314800D02*
X880000Y315000D01*
X835600Y314800D02*
X879800D01*
X805200Y284400D02*
X835600Y314800D01*
X686000Y408800D02*
X763000D01*
X679900Y414900D02*
X686000Y408800D01*
X679900Y414900D02*
Y429900D01*
X897100Y137400D02*
Y141500D01*
X910000Y129200D02*
X911600Y130800D01*
Y144200D01*
X905300Y129200D02*
X910000D01*
X897100Y137400D02*
X905300Y129200D01*
X970500Y317289D02*
X972789Y315000D01*
X970500Y384000D02*
X970600Y384100D01*
X670000Y103900D02*
X673800Y107700D01*
X729500D01*
X1060354Y175000D02*
X1064600D01*
X1065600Y174000D01*
Y124400D02*
Y174000D01*
X1051400Y110200D02*
X1065600Y124400D01*
X1051400Y99900D02*
Y110200D01*
X1044700Y93200D02*
X1051400Y99900D01*
X1017100Y93200D02*
X1044700D01*
X1014800Y95500D02*
X1017100Y93200D01*
X1008000Y95500D02*
X1014800D01*
X975700Y63200D02*
X1008000Y95500D01*
X945000Y63200D02*
X975700D01*
X130291Y240000D02*
X213000D01*
X217931Y235069D01*
X470669D01*
X524800Y289200D01*
X693300D01*
X695400Y291300D01*
X737617D01*
X739617Y289300D01*
X745585D01*
X767300Y267585D01*
X841285D01*
X846500Y272800D01*
X886200D01*
X892150Y266850D01*
X968150D01*
X1008400Y226600D01*
X1010700D01*
X1022500Y238400D01*
X1043000D01*
X1049900Y231500D01*
Y197100D02*
Y231500D01*
Y197100D02*
X1052000Y195000D01*
X1060354D01*
X925000Y87100D02*
X929900Y82200D01*
X987900D01*
X990500Y84800D01*
Y88300D01*
X1001500Y99300D01*
X1048000D01*
X1049500Y100800D01*
Y111622D01*
X1056842Y118963D01*
Y124442D01*
X1042900Y216000D02*
Y222100D01*
X1040000Y225000D02*
X1042900Y222100D01*
X1029646Y225000D02*
X1040000D01*
X1052000Y185000D02*
X1060354D01*
X1047800Y189200D02*
X1052000Y185000D01*
X1047800Y189200D02*
Y207545D01*
X1043845Y211500D02*
X1047800Y207545D01*
X937800Y211500D02*
X1043845D01*
X916500Y232800D02*
X937800Y211500D01*
X796320Y232800D02*
X916500D01*
X791120Y238000D02*
X796320Y232800D01*
X698100Y238000D02*
X791120D01*
X691600Y231500D02*
X698100Y238000D01*
X651400Y231500D02*
X691600D01*
X648700Y228800D02*
X651400Y231500D01*
X330000Y228800D02*
X648700D01*
X325531Y233269D02*
X330000Y228800D01*
X314200Y233269D02*
X325531D01*
X307531Y226600D02*
X314200Y233269D01*
X124600Y226600D02*
X307531D01*
X123100Y228100D02*
X124600Y226600D01*
X123100Y228100D02*
Y247900D01*
X125200Y250000D01*
X130291D01*
X1037500Y188200D02*
Y191000D01*
X1034300Y185000D02*
X1037500Y188200D01*
X1029646Y185000D02*
X1034300D01*
X937300Y205000D02*
X1029646D01*
X911400Y230900D02*
X937300Y205000D01*
X795675Y230900D02*
X911400D01*
X790375Y236200D02*
X795675Y230900D01*
X713000Y236200D02*
X790375D01*
X705100Y228300D02*
X713000Y236200D01*
X656500Y228300D02*
X705100D01*
X1005900Y175000D02*
X1029646D01*
X410000Y383000D02*
X420000D01*
X430000D01*
X400000D02*
X410000D01*
X390000D02*
X400000D01*
X370000D02*
X380000D01*
X390000D01*
X360000D02*
X370000D01*
X430000D02*
X440000D01*
X350000D02*
X360000D01*
X331000Y231900D02*
X342600D01*
X454100Y365500D02*
X693700D01*
X440000Y379600D02*
X454100Y365500D01*
X440000Y379600D02*
Y383000D01*
X787600Y106500D02*
X790000Y108900D01*
X787600Y102600D02*
Y106500D01*
Y102600D02*
X790200Y100000D01*
X796000D01*
X798900Y97100D01*
X854400D01*
X855300Y98000D01*
X860200D01*
X862000Y96200D01*
X883900D01*
X886900Y93200D01*
X891400D01*
X893500Y95300D01*
Y116400D01*
X891600Y118300D02*
X893500Y116400D01*
X920600Y332800D02*
X923957Y329443D01*
X908800Y332800D02*
X920600D01*
X901900Y339700D02*
X908800Y332800D01*
X868300Y339700D02*
X901900D01*
X806263Y198100D02*
X816863Y208700D01*
X782100Y198100D02*
X806263D01*
X781800Y198400D02*
X782100Y198100D01*
X774800Y220500D02*
X784400Y210900D01*
Y201000D02*
Y210900D01*
X781800Y198400D02*
X784400Y201000D01*
X779500Y200700D02*
X781800Y198400D01*
X773134Y200700D02*
X779500D01*
X770434Y198000D02*
X773134Y200700D01*
X764966Y198000D02*
X770434D01*
X758566Y204400D02*
X764966Y198000D01*
X735100Y204400D02*
X758566D01*
X957900Y176400D02*
X974200D01*
X930300Y204000D02*
X957900Y176400D01*
X925200Y204000D02*
X930300D01*
X978200Y180400D02*
X996400Y198600D01*
X1040366D01*
X1040700Y198266D01*
Y176500D02*
Y198266D01*
Y176500D02*
X1042300Y174900D01*
X794500Y106600D02*
X799800D01*
X792200Y108900D02*
X794500Y106600D01*
X790000Y108900D02*
X792200D01*
X706643Y100800D02*
X781900D01*
X703543Y97700D02*
X706643Y100800D01*
X350000Y370000D02*
X360000D01*
X370000D01*
X380000D02*
X390000D01*
X370000D02*
X380000D01*
X390000D02*
X400000D01*
X410000D01*
X420000D01*
X430000D01*
X573500Y432100D02*
X604400Y463000D01*
X423100Y432100D02*
X573500D01*
X411000Y420000D02*
X423100Y432100D01*
X430000Y370000D02*
X440000D01*
X836400Y372300D02*
X851400Y357300D01*
X884600D02*
X898000Y370700D01*
X808500Y118043D02*
X810743D01*
X813900Y121200D01*
X865400D01*
X866948Y119652D01*
X753800Y381316D02*
X796516Y338600D01*
X845600Y172900D02*
X911900D01*
X797800Y142100D02*
X798500Y141400D01*
X1026200Y75500D02*
X1035300D01*
X446400Y46400D02*
X590400D01*
X440000Y40000D02*
X446400Y46400D01*
X609700Y48500D02*
X618100Y40100D01*
X657200D01*
X658600Y41500D01*
X1043500Y428600D02*
X1049300Y434400D01*
Y460200D01*
X1048000Y461500D02*
X1049300Y460200D01*
X1047400Y461500D02*
X1048000D01*
X400000Y70000D02*
X410000D01*
X390000D02*
X400000D01*
X410000D02*
X420000D01*
X380000D02*
X390000D01*
X370000D02*
X380000D01*
X350000D02*
X360000D01*
X370000D01*
X420000D02*
X430000D01*
X440000D01*
X99583Y150000D02*
X110100D01*
X99583Y360000D02*
X130291D01*
X99583Y140000D02*
Y150000D01*
Y140000D02*
X130291D01*
Y150000D01*
X289291Y360000D02*
X320000D01*
X500000Y370000D02*
X510000D01*
X490000D02*
X500000D01*
X510000D02*
X520000D01*
X480000D02*
X490000D01*
X520000D02*
X530000D01*
X540000D01*
X550000D01*
X460000D02*
X470000D01*
X480000D01*
X520000Y70000D02*
X530000D01*
X510000D02*
X520000D01*
X530000D02*
X540000D01*
X500000D02*
X510000D01*
X540000D02*
X550000D01*
X633400D01*
X652700Y75900D02*
X669500Y59100D01*
Y49000D02*
Y59100D01*
X668200Y47700D02*
X669500Y49000D01*
X655700Y47700D02*
X668200D01*
X633400Y70000D02*
X655700Y47700D01*
X460000Y70000D02*
X470000D01*
X480000D01*
X490000D01*
X500000D01*
X1029646Y245000D02*
X1060354D01*
X1087600D02*
X1093300Y250700D01*
Y383700D01*
X1069500Y407500D02*
X1093300Y383700D01*
X1069500Y407500D02*
Y472800D01*
X1060900Y481400D02*
X1069500Y472800D01*
X859187Y481400D02*
X1060900D01*
X857187Y483400D02*
X859187Y481400D01*
X796962Y483400D02*
X857187D01*
X788362Y474800D02*
X796962Y483400D01*
X778300Y474800D02*
X788362D01*
X910000Y70354D02*
X920000D01*
X930000D01*
X940000D01*
X910000Y39646D02*
X920000D01*
X930000D01*
X940000D01*
X1032500Y459400D02*
X1042100D01*
X1042800Y458700D01*
Y456400D02*
Y458700D01*
Y456400D02*
X1044600Y454600D01*
Y448700D02*
Y454600D01*
X1038800Y442900D02*
X1044600Y448700D01*
X998900Y442900D02*
X1038800D01*
X980600Y424600D02*
X998900Y442900D01*
X941000Y424600D02*
X980600D01*
X940000Y425600D02*
X941000Y424600D01*
X940000Y425600D02*
Y429646D01*
X930000Y420100D02*
Y429646D01*
Y420100D02*
X931900Y418200D01*
X991700D01*
X1012100Y438600D01*
X890000Y429646D02*
Y441300D01*
X1003600Y415800D02*
X1019200Y431400D01*
X888500Y415800D02*
X1003600D01*
X880000Y424300D02*
X888500Y415800D01*
X880000Y424300D02*
Y429646D01*
X808200Y364800D02*
X818400D01*
X843600Y390000D01*
Y404300D01*
X847600Y408300D01*
Y422680D01*
X850000Y425080D01*
Y429646D01*
X810000Y424800D02*
Y429646D01*
X790213Y405013D02*
X810000Y424800D01*
X789413Y405013D02*
X790213D01*
X786400Y402000D02*
X789413Y405013D01*
X786400Y376753D02*
Y402000D01*
Y376753D02*
X790100Y373053D01*
X778300Y409400D02*
X779500Y408200D01*
X790700D01*
X800000Y417500D01*
Y429646D01*
X771800Y412100D02*
X772000Y412300D01*
X781800D01*
X784100Y410000D01*
X786900D01*
X790000Y413100D01*
Y429646D01*
X695450Y420050D02*
X697450Y422050D01*
X768000D01*
X770000Y424050D01*
Y429646D01*
X683700Y417800D02*
X685700Y419800D01*
Y439686D01*
X687000Y440986D01*
X693346D01*
X709932Y424400D01*
X759000D01*
X760000Y425400D01*
Y429646D01*
X682800Y424200D02*
Y440100D01*
X685486Y442786D01*
X696414D01*
X709600Y429600D01*
X750000D02*
Y429646D01*
X653300Y438600D02*
X659400Y432500D01*
X653300Y438600D02*
Y468600D01*
X663900Y479200D01*
X756450D01*
X760350Y475300D01*
X772100D01*
X762300Y468300D02*
X770000Y460600D01*
Y460354D02*
Y460600D01*
X868300Y386800D02*
Y398100D01*
X878300Y408100D01*
X864500Y453200D02*
X876000Y441700D01*
X864500Y453200D02*
Y465400D01*
X858800Y471100D02*
X864500Y465400D01*
X816099Y471100D02*
X858800D01*
X813361Y468362D02*
X816099Y471100D01*
X793362Y468362D02*
X813361D01*
X790000Y465000D02*
X793362Y468362D01*
X790000Y460354D02*
Y465000D01*
X800000Y460354D02*
Y464900D01*
X801000Y465900D01*
X835500D01*
X836600Y464800D01*
Y454400D02*
Y464800D01*
Y454400D02*
X837000Y454000D01*
X843000D01*
X845000Y456000D01*
Y463400D01*
X847600Y466000D01*
X852500D01*
X855300Y463200D01*
Y413169D02*
Y463200D01*
Y413169D02*
X856000Y412469D01*
Y379100D02*
Y412469D01*
Y379100D02*
X866100Y369000D01*
X869800D01*
X870900Y370100D01*
Y375700D01*
X867400Y379200D02*
X870900Y375700D01*
X830000Y454500D02*
Y460354D01*
Y454500D02*
X836000Y448500D01*
X840000D01*
X850600Y437900D01*
X858200Y405431D02*
X860600Y407831D01*
X858200Y382400D02*
Y405431D01*
Y382400D02*
X868000Y372600D01*
X860000Y446400D02*
Y460354D01*
Y446400D02*
X864900Y441500D01*
Y422100D02*
Y441500D01*
Y422100D02*
X875667Y411333D01*
X881043D01*
X883500Y408876D01*
Y375800D02*
Y408876D01*
X781161Y272439D02*
X782300Y271300D01*
X831000D01*
X861000Y301300D01*
X901200D01*
X945100Y436800D02*
X951300Y430600D01*
X915900Y436800D02*
X945100D01*
X905100Y447600D02*
X915900Y436800D01*
X894400Y447600D02*
X905100D01*
X890000Y452000D02*
X894400Y447600D01*
X890000Y452000D02*
Y460354D01*
X900000Y456100D02*
Y460354D01*
Y456100D02*
X901000Y455100D01*
X913700D01*
Y464400D01*
X922200Y472900D01*
X1053800D01*
X1062900Y463800D01*
Y395500D02*
Y463800D01*
X1044000Y376600D02*
X1062900Y395500D01*
X1044000Y312300D02*
Y376600D01*
X1040100Y308400D02*
X1044000Y312300D01*
X865500Y308400D02*
X1040100D01*
X831042Y273942D02*
X865500Y308400D01*
X812658Y273942D02*
X831042D01*
X808700Y277900D02*
X812658Y273942D01*
X789700Y277900D02*
X808700D01*
X788000Y279600D02*
X789700Y277900D01*
X639646Y155000D02*
X645900D01*
X661100Y139800D01*
Y98000D02*
Y139800D01*
Y98000D02*
X663300Y95800D01*
X671900D01*
X678800Y102700D01*
X771500D01*
X784000Y115200D01*
X792252D01*
X796252Y111200D01*
X804600D01*
X807200Y108600D01*
X823700D01*
X823800Y108500D01*
X812700Y113100D02*
X813700Y112100D01*
X797952Y113100D02*
X812700D01*
X793952Y117100D02*
X797952Y113100D01*
X781700Y117100D02*
X793952D01*
X777500Y112900D02*
X781700Y117100D01*
X687400Y112900D02*
X777500D01*
X680200Y120100D02*
X687400Y112900D01*
X680200Y120100D02*
Y153900D01*
X675700Y158400D02*
X680200Y153900D01*
X637740Y158400D02*
X675700D01*
X634408Y161731D02*
X637740Y158400D01*
X634408Y161731D02*
Y174000D01*
X635408Y175000D01*
X639646D01*
Y185000D02*
X654269D01*
X661000Y178269D01*
X682531D01*
X684300Y176500D01*
Y146100D02*
Y176500D01*
Y146100D02*
X684900Y145500D01*
X772200D01*
X776200Y149500D01*
X796034D01*
X806935Y138599D01*
Y136265D02*
Y138599D01*
Y136265D02*
X808100Y135100D01*
X813900D01*
X817600Y138800D01*
Y148900D01*
X797100Y151300D02*
X810300Y138100D01*
X719800Y151300D02*
X797100D01*
X691700Y179400D02*
X719800Y151300D01*
X691700Y179400D02*
Y186900D01*
X679100Y199500D02*
X691700Y186900D01*
X657000Y199500D02*
X679100D01*
X651500Y205000D02*
X657000Y199500D01*
X639646Y205000D02*
X651500D01*
X639646Y215000D02*
X647600D01*
X654200Y208400D01*
X714891D01*
X770191Y153100D01*
X804700D01*
X813200Y144600D01*
X807100Y155000D02*
X809800Y152300D01*
X773379Y155000D02*
X807100D01*
X718079Y210300D02*
X773379Y155000D01*
X713505Y210300D02*
X718079D01*
X705505Y218300D02*
X713505Y210300D01*
X663917Y218300D02*
X705505D01*
X657217Y225000D02*
X663917Y218300D01*
X639646Y225000D02*
X657217D01*
X639646Y305000D02*
X647700D01*
X661000Y291700D01*
X690700D01*
X692200Y293200D01*
X738100D01*
X741000Y296100D01*
X757916D01*
X776043Y277973D01*
Y272000D02*
Y277973D01*
Y272000D02*
X778643Y269400D01*
X832569D01*
X837769Y274600D01*
X888700D01*
X888900Y274400D01*
X694900Y331900D02*
X870600D01*
X678500Y348300D02*
X694900Y331900D01*
X634400Y348300D02*
X678500D01*
X634400Y326000D02*
Y348300D01*
Y326000D02*
X635400Y325000D01*
X639646D01*
X666000Y345000D02*
X670354D01*
X663000Y342000D02*
X666000Y345000D01*
X663000Y320800D02*
Y342000D01*
Y320800D02*
X664200Y319600D01*
X812500D01*
X869300Y318600D02*
X871100Y320400D01*
X822200Y318600D02*
X869300D01*
X819900Y316300D02*
X822200Y318600D01*
X694510Y316300D02*
X819900D01*
X693410Y317400D02*
X694510Y316300D01*
X678054Y317400D02*
X693410D01*
X675654Y315000D02*
X678054Y317400D01*
X670354Y315000D02*
X675654D01*
X696500Y357600D02*
X697600Y356500D01*
X636400Y357600D02*
X696500D01*
X630800Y352000D02*
X636400Y357600D01*
X630800Y294000D02*
Y352000D01*
Y294000D02*
X633100Y291700D01*
X644900D01*
Y298300D01*
X638000D02*
X644900D01*
X634400Y301900D02*
X638000Y298300D01*
X634400Y301900D02*
Y308300D01*
X647200D01*
X660500Y295000D01*
X670354D01*
X705800Y287500D02*
X706800Y288500D01*
X695151Y287500D02*
X705800D01*
X692651Y285000D02*
X695151Y287500D01*
X670354Y285000D02*
X692651D01*
X714400Y276700D02*
X715200Y277500D01*
X701600Y276700D02*
X714400D01*
X699900Y275000D02*
X701600Y276700D01*
X670354Y275000D02*
X699900D01*
X670354Y245000D02*
X734300D01*
X708000Y222500D02*
X737400D01*
X705500Y225000D02*
X708000Y222500D01*
X670354Y225000D02*
X705500D01*
X670354Y205000D02*
X676400D01*
X694600Y186800D01*
Y182800D02*
Y186800D01*
X660700Y165000D02*
X670354D01*
X750000Y67500D02*
Y70354D01*
X738200Y67000D02*
X738700Y67500D01*
X731900Y67000D02*
X738200D01*
X726100Y72800D02*
X731900Y67000D01*
X722501Y72800D02*
X726100D01*
X721301Y71600D02*
X722501Y72800D01*
X701499Y71600D02*
X721301D01*
X714000Y65200D02*
X717582Y61618D01*
X722341D01*
X724041Y63317D01*
X767317D01*
X770000Y66000D01*
Y70354D01*
X715900Y74600D02*
X742400D01*
X745192Y77392D01*
X784800D01*
X785300Y76892D01*
Y73231D02*
Y76892D01*
Y73231D02*
X786231Y72300D01*
X790000Y70354D02*
Y72300D01*
X810000Y70354D02*
Y74300D01*
X803300Y75592D02*
X804592Y74300D01*
X796869Y75592D02*
X803300D01*
X795069Y77392D02*
X796869Y75592D01*
X792000Y77392D02*
X795069D01*
X788400Y80992D02*
X792000Y77392D01*
X720708Y80992D02*
X788400D01*
X820000Y70354D02*
Y74400D01*
X818100Y76300D02*
X820000Y74400D01*
X806160Y76300D02*
X818100D01*
X805069Y77392D02*
X806160Y76300D01*
X798669Y77392D02*
X805069D01*
X796869Y79192D02*
X798669Y77392D01*
X793800Y79192D02*
X796869D01*
X790200Y82792D02*
X793800Y79192D01*
X728508Y82792D02*
X790200D01*
X724200Y87100D02*
X728508Y82792D01*
X840000Y65000D02*
Y70354D01*
X837400Y62400D02*
X840000Y65000D01*
X820400Y161200D02*
X836800D01*
X800500Y181100D02*
X820400Y161200D01*
X776600Y181100D02*
X800500D01*
X776400Y87100D02*
X778908Y84592D01*
X793093D01*
X796693Y80992D01*
X798669D01*
X800469Y79192D01*
X806869D01*
X807860Y78200D01*
X851118D01*
X856000Y73318D01*
Y66100D02*
Y73318D01*
Y66100D02*
X857000Y65100D01*
X869000D01*
X870000Y66100D01*
Y70354D01*
X957408Y33200D02*
X967700D01*
X955408Y35200D02*
X957408Y33200D01*
X947569Y35200D02*
X955408D01*
X944977Y32608D02*
X947569Y35200D01*
X903392Y32608D02*
X944977D01*
X903007Y32993D02*
X903392Y32608D01*
X901615Y32993D02*
X903007D01*
X900000Y34608D02*
X901615Y32993D01*
X900000Y34608D02*
Y39646D01*
X890000Y35200D02*
Y39646D01*
Y35200D02*
X896192Y29008D01*
X958708D01*
X964900Y53300D02*
X970600Y47600D01*
Y32100D02*
Y47600D01*
X964300Y25800D02*
X970600Y32100D01*
X937182Y25800D02*
X964300D01*
X935782Y27200D02*
X937182Y25800D01*
X884100Y27200D02*
X935782D01*
X880000Y31300D02*
X884100Y27200D01*
X880000Y31300D02*
Y39646D01*
X850000Y35400D02*
Y39646D01*
X849000Y34400D02*
X850000Y35400D01*
X826000Y34400D02*
X849000D01*
X823300Y37100D02*
X826000Y34400D01*
X823300Y37100D02*
Y44900D01*
X806700D02*
X823300D01*
X806500Y44700D02*
X806700Y44900D01*
X806500Y26850D02*
Y44700D01*
Y26850D02*
X817000Y16350D01*
X944350D01*
X946900Y18900D01*
X810000Y26300D02*
Y39646D01*
Y26300D02*
X816000Y20300D01*
X935027D01*
X938708Y23982D01*
X1043082D01*
X1082200Y63100D01*
X780000Y26300D02*
Y39646D01*
X770000Y31000D02*
Y39646D01*
Y31000D02*
X790400Y10600D01*
X946300D01*
X949800Y14100D01*
Y21100D01*
X948718Y22182D02*
X949800Y21100D01*
X941882Y22182D02*
X948718D01*
X940300Y20600D02*
X941882Y22182D01*
X750000Y39646D02*
Y40200D01*
X706900Y54700D02*
X721400Y40200D01*
X696100Y54700D02*
X706900D01*
X694000Y52600D02*
X696100Y54700D01*
X694000Y14400D02*
Y52600D01*
Y14400D02*
X700000Y8400D01*
X1073200D01*
X1095200Y30400D01*
Y390100D01*
X1072400Y412900D02*
X1095200Y390100D01*
X1056000Y335000D02*
X1060354D01*
X1048900Y342100D02*
X1056000Y335000D01*
X1048900Y342100D02*
Y376400D01*
X1065700Y350600D02*
X1070900Y355800D01*
X1065700Y326100D02*
Y350600D01*
X1064600Y325000D02*
X1065700Y326100D01*
X1060354Y325000D02*
X1064600D01*
X988286Y394314D02*
Y395500D01*
Y394314D02*
X1038300Y344300D01*
Y320600D02*
Y344300D01*
X1068200Y315000D02*
X1068300Y314900D01*
X1060354Y315000D02*
X1068200D01*
X1060354Y295000D02*
X1064100D01*
X1071200Y302100D01*
Y346400D01*
X1075500Y350700D01*
Y360704D01*
X1069200Y367004D02*
X1075500Y360704D01*
X1069200Y367004D02*
Y384900D01*
X1073400Y389100D01*
Y396200D01*
X1060354Y275000D02*
X1062300D01*
X1065000Y272300D01*
X1083300D01*
X1060354Y255000D02*
X1074000D01*
X1067800Y235000D02*
X1071800Y231000D01*
X1060354Y235000D02*
X1067800D01*
X1056000Y225000D02*
X1060354D01*
X1054900Y223900D02*
X1056000Y225000D01*
X1054900Y202100D02*
Y223900D01*
Y202100D02*
X1056000Y201000D01*
X1066400D01*
X1067500Y199900D01*
Y120871D02*
Y199900D01*
X1053200Y106571D02*
X1067500Y120871D01*
X1053200Y58600D02*
Y106571D01*
Y58600D02*
X1056100Y55700D01*
X1060354Y215000D02*
X1072000D01*
X1078700Y208300D01*
Y85500D02*
Y208300D01*
X1056100Y62900D02*
X1078700Y85500D01*
X1060354Y205000D02*
X1075800D01*
X530891Y209700D02*
X535000Y205591D01*
X395300Y209700D02*
X530891D01*
X1055669Y165000D02*
X1060354D01*
X1050647Y159979D02*
X1055669Y165000D01*
X1050647Y152309D02*
Y159979D01*
X1031550Y133212D02*
X1050647Y152309D01*
X1022589Y133212D02*
X1031550D01*
X1006977Y117600D02*
X1022589Y133212D01*
X1001000Y117600D02*
X1006977D01*
X988600Y105200D02*
X1001000Y117600D01*
X988600Y85700D02*
Y105200D01*
X986900Y84000D02*
X988600Y85700D01*
X951500Y84000D02*
X986900D01*
X945500Y90000D02*
X951500Y84000D01*
X920500Y90000D02*
X945500D01*
X914400Y83900D02*
X920500Y90000D01*
X802369Y83900D02*
X914400D01*
X801669Y84600D02*
X802369Y83900D01*
X800284Y84600D02*
X801669D01*
X796693Y88192D02*
X800284Y84600D01*
X788308Y88192D02*
X796693D01*
X781100Y95400D02*
X788308Y88192D01*
X777000Y95400D02*
X781100D01*
X771600Y90000D02*
X777000Y95400D01*
X751158Y90000D02*
X771600D01*
X749358Y91800D02*
X751158Y90000D01*
X708880Y91800D02*
X749358D01*
X695900Y78820D02*
X708880Y91800D01*
X695900Y65023D02*
Y78820D01*
X666077Y35200D02*
X695900Y65023D01*
X220200Y35200D02*
X666077D01*
X210000Y25000D02*
X220200Y35200D01*
X974900Y465900D02*
X1044100D01*
X958900Y449900D02*
X974900Y465900D01*
X958900Y448700D02*
Y449900D01*
X922600Y447000D02*
X926000Y443600D01*
X920000Y447000D02*
X922600D01*
X917200Y444200D02*
X920000Y447000D01*
X917200Y441700D02*
Y444200D01*
Y441700D02*
X920100Y438800D01*
X991200D01*
X997172Y444772D01*
X1036472D01*
X1041700Y450000D01*
X782000Y416300D02*
X785400Y412900D01*
X694300Y416300D02*
X782000D01*
X691000Y419600D02*
X694300Y416300D01*
X691000Y419600D02*
Y432000D01*
X708600Y436200D02*
X825000D01*
X696500Y448300D02*
X708600Y436200D01*
X694500Y448300D02*
X696500D01*
X666700Y447200D02*
X674200Y454700D01*
X702900D01*
X704283Y453317D01*
X802383D01*
X816700Y439000D01*
X830300D01*
X831700Y437600D01*
X688100Y437700D02*
X688500Y438100D01*
X688100Y416200D02*
Y437700D01*
Y416200D02*
X691800Y412500D01*
X765900D01*
X776400Y402000D01*
X782900D01*
X784600Y400300D01*
Y373700D02*
Y400300D01*
Y373700D02*
X791300Y367000D01*
X791900D01*
X793000Y368100D01*
Y383800D01*
X791000Y385800D02*
X793000Y383800D01*
X791000Y385800D02*
Y391900D01*
X792300Y393200D01*
X824100D01*
X826100Y395200D01*
X826400D01*
X809500Y105700D02*
X881900D01*
X793200Y97200D02*
X795200Y95200D01*
X857400D01*
X808400Y123700D02*
X809588Y124888D01*
X879012D01*
X890900Y113000D01*
Y104100D02*
Y113000D01*
X889200Y102400D02*
X890900Y104100D01*
X876200Y102400D02*
X889200D01*
X790600Y105400D02*
X794100Y101900D01*
X797700D01*
X800700Y98900D01*
X849300D01*
X850300Y99900D01*
X862950D01*
X863850Y99000D01*
X886700D01*
X889700Y96000D01*
X954288Y147082D02*
Y151505D01*
X951306Y144100D02*
X954288Y147082D01*
X946439Y144100D02*
X951306D01*
X942200Y139861D02*
X946439Y144100D01*
X942200Y123900D02*
Y139861D01*
X929900Y111600D02*
X942200Y123900D01*
X920900Y111600D02*
X929900D01*
X917100Y138900D02*
Y195900D01*
X939100Y125600D02*
Y140397D01*
X947103Y148400D01*
X948700D01*
X953409Y142259D02*
X957300Y146150D01*
X949456Y142259D02*
X953409D01*
X944000Y136803D02*
X949456Y142259D01*
X944000Y123000D02*
Y136803D01*
X910300Y89300D02*
X944000Y123000D01*
X880100Y89300D02*
X910300D01*
X878300Y91100D02*
X880100Y89300D01*
X891700Y178100D02*
X909500Y195900D01*
X841200Y178100D02*
X891700D01*
X837000Y169300D02*
X905300D01*
X810700Y89900D02*
X872100D01*
X873400Y88600D01*
X837900Y141500D02*
X882500D01*
X822098Y157302D02*
X837900Y141500D01*
X815898Y157302D02*
X822098D01*
X812500Y160700D02*
X815898Y157302D01*
X778300Y160700D02*
X812500D01*
X775200Y163800D02*
X778300Y160700D01*
X765000Y171440D02*
X807491D01*
X819731Y159200D01*
X823100D01*
X837300Y145000D01*
X874200D01*
X655400Y379600D02*
X675000D01*
X644200Y353600D02*
X646400Y355800D01*
X691294D01*
X693494Y353600D01*
X700000D01*
X702400Y356000D01*
Y371300D01*
X626900Y60000D02*
X633600Y53300D01*
X644000D01*
X713600Y216900D02*
X717600Y212900D01*
X727459D01*
X728059Y212300D01*
X765000D01*
X773200Y204100D01*
X710700Y225400D02*
X771600D01*
X775100Y228900D01*
X783920D01*
X785100Y227720D01*
Y221100D02*
Y227720D01*
X783100Y219100D02*
X785100Y221100D01*
X1006000Y112600D02*
X1008000D01*
X1014800Y119400D01*
X1046200D01*
X1049000Y122200D01*
Y123400D01*
X1002600Y102300D02*
X1044800D01*
X931400Y282800D02*
X933000Y284400D01*
X1020540D01*
X1024408Y288269D01*
X1044131D01*
X1054000Y278400D01*
X1065500D01*
X1068300Y275600D01*
X930457Y250800D02*
X979800D01*
X1010200Y220400D01*
X1039500D01*
X913900Y301600D02*
X1040300D01*
X1010700Y92600D02*
X1014600Y88700D01*
Y55161D02*
Y88700D01*
X257500Y270500D02*
X258300Y269700D01*
X155800Y270500D02*
X257500D01*
X149200Y263900D02*
X155800Y270500D01*
X118300Y263900D02*
X149200D01*
X105900Y276300D02*
X118300Y263900D01*
X94300Y276300D02*
X105900D01*
X94300D02*
Y289000D01*
X95300Y290000D01*
X99583D01*
X130291Y260000D02*
X150100D01*
X158800Y268700D01*
X223700D01*
X227500Y264900D01*
X310700D01*
X130291Y220000D02*
X279700D01*
X99583Y280000D02*
X112000D01*
X125600Y266400D01*
X148900D01*
X155500Y273000D01*
X172500D01*
X176900Y277400D01*
X181100D01*
X184000Y274500D01*
X308200D01*
X314700Y268000D01*
Y262900D02*
Y268000D01*
X311200Y259400D02*
X314700Y262900D01*
X99583Y170000D02*
X106700D01*
X107600Y170900D01*
X79200Y185800D02*
X120200D01*
X124400Y190000D01*
X130291D01*
X312300Y140000D02*
X320000D01*
X308300Y136000D02*
X312300Y140000D01*
X308300Y42300D02*
Y136000D01*
X304000Y38000D02*
X308300Y42300D01*
X72300Y38000D02*
X304000D01*
X64300Y30000D02*
X72300Y38000D01*
X25000Y30000D02*
X64300D01*
X20000Y35000D02*
X25000Y30000D01*
X50000Y155000D02*
X58700Y163700D01*
X113000D01*
X116700Y160000D01*
X130291D01*
X120400Y300000D02*
X130291D01*
X115100Y305300D02*
X120400Y300000D01*
X92300Y305300D02*
X115100D01*
X57600Y340000D02*
X92300Y305300D01*
X38629Y340000D02*
X57600D01*
X29800Y348829D02*
X38629Y340000D01*
X29800Y348829D02*
Y381750D01*
X22150Y389400D02*
X29800Y381750D01*
X18100Y389400D02*
X22150D01*
X15600Y386900D02*
X18100Y389400D01*
X15600Y379400D02*
Y386900D01*
Y379400D02*
X20000Y375000D01*
X265900Y270000D02*
X289291D01*
X263400Y272500D02*
X265900Y270000D01*
X181800Y272500D02*
X263400D01*
X179700Y274600D02*
X181800Y272500D01*
X227600Y300000D02*
X289291D01*
X219700Y292100D02*
X227600Y300000D01*
X221600Y100200D02*
X241700Y120300D01*
X184500Y100200D02*
X221600D01*
X164700Y80400D02*
X184500Y100200D01*
X48000Y80400D02*
X164700D01*
X45600Y78000D02*
X48000Y80400D01*
X45600Y59400D02*
Y78000D01*
Y59400D02*
X50000Y55000D01*
X110700Y200000D02*
X130291D01*
X45600Y160600D02*
X50000Y165000D01*
X45600Y153100D02*
Y160600D01*
Y153100D02*
X48100Y150600D01*
X65200D01*
X74600Y160000D01*
X99583D01*
X50000Y45000D02*
X222000D01*
X309100Y297200D02*
X311900Y300000D01*
X320000D01*
X310700Y310000D02*
X320000D01*
X304700Y304000D02*
X310700Y310000D01*
X304700Y301300D02*
Y304000D01*
X300000Y296600D02*
X304700Y301300D01*
X234800Y296600D02*
X300000D01*
X226200Y288000D02*
X234800Y296600D01*
X50000Y65000D02*
X186300D01*
X304700Y290000D02*
X320000D01*
X240700D02*
X289291D01*
X238600Y287900D02*
X240700Y290000D01*
X340900Y240000D02*
X342400Y238500D01*
X383000D01*
X385498Y240998D01*
Y315202D01*
X293600Y407100D02*
X385498Y315202D01*
X59200Y407100D02*
X293600D01*
X56300Y410000D02*
X59200Y407100D01*
X48000Y410000D02*
X56300D01*
X43800Y405800D02*
X48000Y410000D01*
X43800Y391200D02*
Y405800D01*
Y391200D02*
X50000Y385000D01*
Y465000D02*
X57600Y457400D01*
X279200D01*
X325400Y411200D01*
X230300Y330000D02*
X289291D01*
X197900Y297600D02*
X230300Y330000D01*
X50000Y85000D02*
X71941Y106941D01*
X209241D01*
X211200Y108900D01*
X218000Y299200D02*
X222100Y303300D01*
X292000D01*
X308700Y320000D01*
X320000D01*
X97600Y240000D02*
X99583D01*
X93600Y236000D02*
X97600Y240000D01*
X91700Y236000D02*
X93600D01*
X20000Y345000D02*
X41000Y324000D01*
Y316000D02*
Y324000D01*
Y316000D02*
X47200Y309800D01*
X63000D01*
X79100Y293700D01*
X104222D01*
X127922Y270000D01*
X130291D01*
X81500Y76500D02*
X180700D01*
X201000Y96800D01*
X227600D01*
X270800Y140000D01*
X289291D01*
X59100Y104900D02*
X68000Y113800D01*
X194200D01*
X240400Y160000D01*
X289291D01*
X242512Y170000D02*
X289291D01*
X192512Y120000D02*
X242512Y170000D01*
X17900Y120000D02*
X192512D01*
X13800Y115900D02*
X17900Y120000D01*
X13800Y91200D02*
Y115900D01*
Y91200D02*
X20000Y85000D01*
X310700Y170000D02*
X320000D01*
X304700Y164000D02*
X310700Y170000D01*
X304700Y149700D02*
Y164000D01*
X300000Y145000D02*
X304700Y149700D01*
X259900Y145000D02*
X300000D01*
X218200Y103300D02*
X259900Y145000D01*
X79127Y103300D02*
X218200D01*
X71927Y96100D02*
X79127Y103300D01*
X20000Y105000D02*
X25600Y110600D01*
X54200D01*
X60700Y117100D01*
X193498D01*
X242098Y165700D01*
X293300D01*
X294600Y167000D01*
Y179000D01*
X293600Y180000D02*
X294600Y179000D01*
X289291Y180000D02*
X293600D01*
X320000Y200000D02*
X325300Y199000D01*
Y186000D02*
Y199000D01*
X322569Y183269D02*
X325300Y186000D01*
X246919Y183269D02*
X322569D01*
X192950Y129300D02*
X246919Y183269D01*
X25700Y129300D02*
X192950D01*
X20000Y135000D02*
X25700Y129300D01*
X20000Y175000D02*
X27149Y182149D01*
Y199349D01*
X37800Y210000D01*
X91000D01*
X94400Y206600D01*
X298300D01*
X301700Y210000D01*
X320000D01*
X20000Y205000D02*
X34300Y219300D01*
X51953D01*
X57653Y213600D01*
X322900D01*
X325300Y216000D01*
Y223300D01*
X309200D02*
X325300D01*
X305900Y220000D02*
X309200Y223300D01*
X289291Y220000D02*
X305900D01*
X164400Y230000D02*
X289291D01*
X156700Y260000D02*
X163500Y266800D01*
X220000D01*
X226800Y260000D01*
X289291D01*
X204000Y298000D02*
X231000Y325000D01*
X300000D01*
X304700Y329700D01*
Y336000D01*
X308700Y340000D01*
X320000D01*
X183800Y250000D02*
X289291D01*
X50000Y425000D02*
X64600Y410400D01*
X303700D01*
X333200Y380900D01*
X320000Y260000D02*
X332000D01*
X287300Y350000D02*
X289291D01*
X282327Y354973D02*
X287300Y350000D01*
X84627Y354973D02*
X282327D01*
X84000Y355600D02*
X84627Y354973D01*
X81200Y366300D02*
X323400D01*
X325700Y364000D01*
X324700Y350000D02*
X325700Y364000D01*
X320000Y350000D02*
X324700D01*
X20000Y405000D02*
X43900Y381100D01*
Y363800D02*
Y381100D01*
Y363800D02*
X48300Y359400D01*
X59300D01*
X95300Y323400D01*
X104700D01*
X108100Y320000D01*
X130291D01*
X20000Y465000D02*
X32800Y452200D01*
Y397547D02*
Y452200D01*
Y397547D02*
X45747Y384600D01*
Y372153D02*
Y384600D01*
Y372153D02*
X47900Y370000D01*
X53657D01*
X71757Y351900D01*
X86200D01*
X88100Y350000D01*
X99583D01*
X94100Y340000D02*
X99583D01*
X86000Y348100D02*
X94100Y340000D01*
X108300Y210000D02*
X130291D01*
X1029646Y295000D02*
X1034300Y294000D01*
X1036400Y291900D01*
X1049200D01*
X1053200Y295900D01*
Y316500D01*
X1055100Y318400D01*
X1064100D01*
X1069100Y323400D01*
Y349400D01*
X1073700Y354000D01*
Y357000D01*
X1067400Y363300D02*
X1073700Y357000D01*
X1067400Y363300D02*
Y468000D01*
X1055900Y479500D02*
X1067400Y468000D01*
X866373Y479500D02*
X1055900D01*
X864573Y477700D02*
X866373Y479500D01*
X804300Y477700D02*
X864573D01*
X799600Y473000D02*
X804300Y477700D01*
X926000Y127700D02*
X929400D01*
X932600Y130900D01*
Y155000D01*
X946837Y169237D01*
X993737D01*
X1019500Y195000D01*
X1029646D01*
X781700Y360194D02*
Y399100D01*
Y360194D02*
X789094Y352800D01*
X811300D01*
X814000Y350100D01*
X881500D01*
X892500Y305000D02*
X1029646D01*
X219200Y265000D02*
X229000Y255200D01*
X183200Y265000D02*
X219200D01*
X173400Y255200D02*
X183200Y265000D01*
X96100Y255200D02*
X173400D01*
X88800Y247900D02*
X96100Y255200D01*
X88800Y234400D02*
Y247900D01*
Y234400D02*
X90100Y233100D01*
X94200D01*
X94500Y233400D01*
X104800D01*
X105000Y233200D01*
Y221100D02*
Y233200D01*
X103900Y220000D02*
X105000Y221100D01*
X99583Y220000D02*
X103900D01*
X894200Y138600D02*
X897100Y141500D01*
X832100Y138600D02*
X894200D01*
X815300Y155400D02*
X832100Y138600D01*
X813000Y155400D02*
X815300D01*
X811400Y157000D02*
X813000Y155400D01*
X811400Y157000D02*
Y157800D01*
X1016300Y51500D02*
X1048600Y83800D01*
X1009000Y51500D02*
X1016300D01*
X978400Y91000D02*
X978800Y90600D01*
X978400Y91000D02*
Y115400D01*
X961000Y132800D02*
X978400Y115400D01*
X959400Y132800D02*
X961000D01*
X970600Y409500D02*
X1003800D01*
X1018100Y423800D01*
Y424800D01*
X944800Y112200D02*
X954800Y122200D01*
Y140500D01*
X957600Y143300D01*
X962400D01*
X966300Y140600D01*
X987100Y161400D01*
X1035500D01*
X1037500Y159400D01*
X1031200Y231000D02*
X1037500D01*
X1029646Y232554D02*
X1031200Y231000D01*
X1029646Y232554D02*
Y235000D01*
X1024200Y346000D02*
X1029646Y345000D01*
X1024200Y346000D02*
Y354000D01*
X1054000Y352500D02*
Y382400D01*
X1064800Y393200D01*
Y465900D01*
X1053000Y477700D02*
X1064800Y465900D01*
X867300Y477700D02*
X1053000D01*
X864800Y475200D02*
X867300Y477700D01*
X809500Y475200D02*
X864800D01*
X808800Y474500D02*
X809500Y475200D01*
X1012202Y215000D02*
X1029646D01*
X991702Y235500D02*
X1012202Y215000D01*
X801580Y235500D02*
X991702D01*
X797180Y239900D02*
X801580Y235500D01*
X657400Y239900D02*
X797180D01*
X1029646Y285000D02*
X1043624D01*
X1044912Y283712D01*
Y279488D02*
Y283712D01*
Y279488D02*
X1055800Y268600D01*
X1085300D01*
X1090400Y263500D01*
X1029646Y265000D02*
X1033900D01*
X1034900Y264000D01*
Y252000D02*
Y264000D01*
X1033900Y251000D02*
X1034900Y252000D01*
X1027400Y251000D02*
X1033900D01*
X1024400Y248000D02*
X1027400Y251000D01*
X1024400Y242000D02*
Y248000D01*
Y242000D02*
X1025700Y240700D01*
X1048200D01*
X1052900Y236000D01*
Y201500D02*
Y236000D01*
Y201500D02*
X1056100Y198300D01*
X1065600D01*
Y182000D02*
Y198300D01*
X1063600Y180000D02*
X1065600Y182000D01*
X1052700Y180000D02*
X1063600D01*
X1047100Y174400D02*
X1052700Y180000D01*
X1047100Y154600D02*
Y174400D01*
X1029800Y137300D02*
X1047100Y154600D01*
X1021300Y137300D02*
X1029800D01*
X1014900Y130900D02*
X1021300Y137300D01*
X991100Y130900D02*
X1014900D01*
X984100Y123900D02*
X991100Y130900D01*
X984100Y91500D02*
Y123900D01*
X980300Y87700D02*
X984100Y91500D01*
X951400Y87700D02*
X980300D01*
X946000Y93100D02*
X951400Y87700D01*
X941200Y93100D02*
X946000D01*
X1027700Y335000D02*
X1029646D01*
X1001708Y360992D02*
X1027700Y335000D01*
X1001708Y360992D02*
Y376592D01*
X984300Y394000D02*
X1001708Y376592D01*
X984300Y394000D02*
Y397000D01*
X985600Y398300D01*
X1017900D01*
X1038000Y418400D01*
X1038900D01*
X1073700Y422600D02*
Y476000D01*
X1066500Y483200D02*
X1073700Y476000D01*
X860887Y483200D02*
X1066500D01*
X858887Y485200D02*
X860887Y483200D01*
X788900Y485200D02*
X858887D01*
X784000Y480300D02*
X788900Y485200D01*
X964900Y132900D02*
X969167Y128633D01*
X975774D01*
X986141Y139000D01*
X1004100D01*
X1008439Y231800D02*
Y239439D01*
X1024000Y255000D01*
X1029646D01*
X995900Y325000D02*
X1029646D01*
X975400Y345500D02*
X995900Y325000D01*
X975400Y345500D02*
Y384000D01*
X971300Y388100D02*
X975400Y384000D01*
X920000Y388100D02*
X971300D01*
X1045400Y261600D02*
X1083482D01*
X1044800Y262200D02*
X1045400Y261600D01*
X1041000Y262200D02*
X1044800D01*
X1039700Y263500D02*
X1041000Y262200D01*
X1039700Y263500D02*
Y268000D01*
X1032700Y275000D02*
X1039700Y268000D01*
X1029646Y275000D02*
X1032700D01*
X759400Y365700D02*
X789300Y335800D01*
X799300D01*
X803200Y339700D01*
X868300D01*
X866400Y204700D02*
X870400Y208700D01*
X920500D02*
X925200Y204000D01*
X1006400Y381300D02*
X1052700Y427600D01*
X929500Y192900D02*
X934500D01*
X915500Y206900D02*
X929500Y192900D01*
X905600Y206900D02*
X915500D01*
X898500Y199800D02*
X905600Y206900D01*
X849500Y199800D02*
X898500D01*
X845100Y195400D02*
X849500Y199800D01*
X775100Y195400D02*
X845100D01*
X775100D02*
Y197900D01*
X757800Y196000D02*
X773200D01*
X926500Y400100D02*
X1016102D01*
X1041702Y425700D01*
X1044818D01*
X1059201Y440083D01*
Y448999D01*
X1056700Y451500D02*
X1059201Y448999D01*
X851400Y357300D02*
X883700D01*
X997499Y359601D02*
Y376101D01*
X954100Y173300D02*
X993300D01*
X934500Y192900D02*
X954100Y173300D01*
X973600Y319000D02*
X1031900D01*
X1034900Y322000D01*
Y328000D01*
X1032900Y330000D02*
X1034900Y328000D01*
X1018046Y330000D02*
X1032900D01*
X998500Y349546D02*
X1018046Y330000D01*
X981500Y392100D02*
X997499Y376101D01*
X918500Y392100D02*
X981500D01*
X689800Y128800D02*
X693700Y124900D01*
X709700D01*
X708800Y125800D02*
X709700Y124900D01*
X708800Y125800D02*
X709700Y126700D01*
Y128800D01*
X642000Y43700D02*
X643619Y45319D01*
X668619D01*
X691800Y68500D01*
Y121000D02*
X709700D01*
Y128800D02*
X720900Y117600D01*
X757800D01*
Y180600D02*
X765500Y188300D01*
X770000D01*
X802809Y118043D02*
X808500D01*
X799152Y121700D02*
X802809Y118043D01*
X776700Y121700D02*
X799152D01*
X772600Y117600D02*
X776700Y121700D01*
X757800Y117600D02*
X772600D01*
X770000Y188300D02*
X773100Y191400D01*
Y195900D01*
X985800Y86900D02*
X986000Y87100D01*
Y122600D01*
X987000Y123600D01*
X996457D01*
X440000Y370000D02*
X449400Y360600D01*
X669300D01*
X733000Y400400D02*
X751400D01*
X753800Y383600D02*
X786400Y351000D01*
X808900D01*
X813477Y346423D01*
X885800D01*
X888077Y348700D01*
X907400Y358100D02*
X916800Y348700D01*
X951600D01*
X751400Y400400D02*
X752800Y399000D01*
Y383700D02*
Y399000D01*
X749900Y380800D02*
X752800Y383700D01*
X749900Y366700D02*
Y380800D01*
X721200Y338000D02*
X749900Y366700D01*
X774400Y142100D02*
X779000Y146700D01*
X736500Y142100D02*
X774400D01*
X723500Y129100D02*
X736500Y142100D01*
X956600Y138000D02*
X959100Y140500D01*
X956600Y115300D02*
Y138000D01*
Y115300D02*
X975500Y96400D01*
X70300Y360000D02*
X99583D01*
X55300Y375000D02*
X70300Y360000D01*
X50000Y375000D02*
X55300D01*
X550700Y369300D02*
X688500D01*
X695675Y376475D01*
X710240D01*
X714715Y372000D01*
X745200D01*
X940000Y58000D02*
X941800Y56200D01*
X971600D01*
X979500Y48300D01*
X1062100D01*
X1080500Y66700D01*
Y240500D01*
X1076000Y245000D02*
X1080500Y240500D01*
X1060354Y245000D02*
X1071000D01*
X920000Y429646D02*
X921000Y434900D01*
X942600D01*
X949800Y427700D01*
X975600D01*
X1009100Y457000D02*
X1014900Y451200D01*
X905900Y442800D02*
X910000Y438700D01*
Y429646D02*
Y438700D01*
X900000Y429646D02*
Y440000D01*
X1007343Y405800D02*
X1034443Y432900D01*
X895100Y405800D02*
X1007343D01*
X873200Y427700D02*
X895100Y405800D01*
X870000Y427700D02*
Y429646D01*
X860000D02*
Y434900D01*
X858000Y436900D02*
X860000Y434900D01*
X858000Y436900D02*
Y438900D01*
X858300Y439200D01*
X793931Y390000D02*
X827370D01*
X840000Y402630D01*
Y429646D01*
X830000Y407400D02*
Y429646D01*
X818900Y396300D02*
X830000Y407400D01*
X794100Y396300D02*
X818900D01*
X820000Y415700D02*
Y429646D01*
X816000Y411700D02*
X820000Y415700D01*
X800269Y411700D02*
X816000D01*
X790800Y402231D02*
X800269Y411700D01*
X780000Y423400D02*
Y429646D01*
X775700Y419100D02*
X780000Y423400D01*
X740000Y419100D02*
X775700D01*
X670986Y471892D02*
X739800D01*
X659695Y460600D02*
X670986Y471892D01*
X664800Y455900D02*
X671200Y462300D01*
X750000Y460354D02*
Y462300D01*
X760000Y460354D02*
Y462300D01*
X754550Y467750D02*
X760000Y462300D01*
X709300Y432900D02*
X742800D01*
X697600Y444600D02*
X709300Y432900D01*
X680800Y444600D02*
X697600D01*
X673700Y437500D02*
X680800Y444600D01*
X662000Y437500D02*
X673700D01*
X660800Y438700D02*
X662000Y437500D01*
X660800Y438700D02*
Y440400D01*
X658600Y442600D02*
X660800Y440400D01*
X658300Y442600D02*
X658600D01*
X780000Y460354D02*
Y464600D01*
X779000Y465600D02*
X780000Y464600D01*
X771100Y465600D02*
X779000D01*
X765600Y471100D02*
X771100Y465600D01*
X753800Y471100D02*
X765600D01*
X751700Y469000D02*
X753800Y471100D01*
X673900Y469000D02*
X751700D01*
X657000Y452100D02*
X673900Y469000D01*
X657000Y450000D02*
Y452100D01*
Y450000D02*
X663700Y443300D01*
Y440300D02*
Y443300D01*
X890400Y369970D02*
Y378839D01*
X884530Y364100D02*
X890400Y369970D01*
X861192Y364100D02*
X884530D01*
X850100Y375192D02*
X861192Y364100D01*
X850100Y375192D02*
Y403000D01*
X810000Y454600D02*
X820000Y444600D01*
X810000Y454600D02*
Y460354D01*
X820000Y452500D02*
Y460354D01*
Y452500D02*
X829600Y442900D01*
X840700D01*
X845800Y437800D01*
Y410100D02*
Y437800D01*
X841800Y406100D02*
X845800Y410100D01*
X841800Y394000D02*
Y406100D01*
X821000Y373200D02*
X841800Y394000D01*
X810500Y373200D02*
X821000D01*
X805300Y368000D02*
X810500Y373200D01*
X805300Y357700D02*
Y368000D01*
Y357700D02*
X808000Y355000D01*
X865100D01*
X866900Y353200D01*
X840000Y460354D02*
X840600Y464400D01*
X844400Y468200D01*
X852900Y377500D02*
Y407969D01*
Y377500D02*
X864500Y365900D01*
X880700D01*
X883500Y368700D01*
X850000Y444200D02*
Y460354D01*
Y444200D02*
X853500Y440700D01*
Y419280D02*
Y440700D01*
X849500Y415280D02*
X853500Y419280D01*
X849500Y406600D02*
Y415280D01*
X845400Y402500D02*
X849500Y406600D01*
X845400Y367700D02*
Y402500D01*
Y367700D02*
X852000Y361100D01*
X869000D01*
X756493Y291400D02*
X766293Y281600D01*
X744900Y291400D02*
X756493D01*
X743800Y292500D02*
X744900Y291400D01*
X743800Y292500D02*
Y293300D01*
X753200Y353600D02*
Y371500D01*
X865700Y468500D02*
X867400D01*
X870000Y465900D01*
Y460354D02*
Y465900D01*
X791200Y248800D02*
X854600D01*
X871700Y438100D02*
X878000D01*
X880000Y440100D01*
Y460354D01*
X780539Y306000D02*
X785239Y301300D01*
X710700Y306000D02*
X780539D01*
X705700Y301000D02*
X710700Y306000D01*
X678100Y379900D02*
X684000Y374000D01*
X678100Y379900D02*
Y420283D01*
X662683Y435700D02*
X678100Y420283D01*
X659100Y435700D02*
X662683D01*
X655100Y439700D02*
X659100Y435700D01*
X655100Y439700D02*
Y465190D01*
X667210Y477300D01*
X754750D01*
X759150Y472900D01*
X766400D01*
X769138Y470162D01*
X808761D01*
X811599Y473000D01*
X872184D01*
X875084Y475900D01*
X899000D01*
X910000Y464900D01*
Y460354D02*
Y464900D01*
X920000Y460354D02*
Y464300D01*
X926700Y471000D01*
X1052091D01*
X1061001Y462090D01*
Y398501D02*
Y462090D01*
X1041600Y379100D02*
X1061001Y398501D01*
X1041600Y315700D02*
Y379100D01*
X1036484Y310584D02*
X1041600Y315700D01*
X860796Y310584D02*
X1036484D01*
X828212Y278000D02*
X860796Y310584D01*
X824212Y278000D02*
X828212D01*
X822512Y279700D02*
X824212Y278000D01*
X802500Y279700D02*
X822512D01*
X787000Y295200D02*
X802500Y279700D01*
X787000Y295200D02*
Y295800D01*
X776200Y302300D02*
X780700Y297800D01*
X712400Y302300D02*
X776200D01*
X708300Y350200D02*
X727400D01*
X748000Y370800D01*
Y395600D01*
X750000Y397600D01*
X876587Y471100D02*
X889531D01*
X896631Y464000D01*
Y455200D02*
Y464000D01*
Y455200D02*
X898531Y453300D01*
X928000D01*
X930000Y455300D01*
Y460354D01*
X791300Y262000D02*
X793100Y263800D01*
X856800D01*
X861100Y268100D01*
Y384700D02*
X866000D01*
X878862Y371838D01*
X884138D01*
X886400Y374100D01*
Y397009D01*
X891951Y402560D01*
X1008260D01*
X1046900Y441200D01*
Y455900D01*
X1044700Y458100D02*
X1046900Y455900D01*
X1044700Y458100D02*
Y460400D01*
X1041000Y464100D02*
X1044700Y460400D01*
X1009300Y464100D02*
X1041000D01*
X988500Y443300D02*
X1009300Y464100D01*
X947300Y443300D02*
X988500D01*
X940000Y450600D02*
X947300Y443300D01*
X940000Y450600D02*
Y460354D01*
X639646Y165000D02*
X645700D01*
X649800Y160900D01*
X677300D01*
X682200Y156000D01*
Y123500D02*
Y156000D01*
Y123500D02*
X690900Y114800D01*
X775450D01*
X780350Y119700D01*
X797552D01*
X802227Y115025D01*
X813325D01*
X816600Y118300D01*
X814200Y127700D02*
X892000D01*
X896500Y123200D01*
Y94700D02*
Y123200D01*
X893100Y91300D02*
X896500Y94700D01*
X885200Y91300D02*
X893100D01*
X882500Y94000D02*
X885200Y91300D01*
X875547Y94000D02*
X882500D01*
X873347Y91800D02*
X875547Y94000D01*
X813400Y91800D02*
X873347D01*
X811900Y93300D02*
X813400Y91800D01*
X790765Y93300D02*
X811900D01*
X785065Y99000D02*
X790765Y93300D01*
X729300Y99000D02*
X785065D01*
X724000Y93700D02*
X729300Y99000D01*
X637300Y93700D02*
X724000D01*
X630900Y100100D02*
X637300Y93700D01*
X630900Y100100D02*
Y192100D01*
X633800Y195000D01*
X639646D01*
X926516Y239400D02*
Y240984D01*
X919500Y248000D02*
X926516Y240984D01*
X907700Y248000D02*
X919500D01*
X900000Y240300D02*
X907700Y248000D01*
X886700Y240300D02*
X900000D01*
X875300Y251700D02*
X886700Y240300D01*
X654300Y251700D02*
X875300D01*
X647700Y258300D02*
X654300Y251700D01*
X634408Y258269D02*
X647700Y258300D01*
X634408Y241731D02*
Y258269D01*
Y241731D02*
X637700Y238440D01*
Y235000D02*
X639646D01*
X914319Y237900D02*
X919219Y242800D01*
X814800Y237900D02*
X914319D01*
X811000Y241700D02*
X814800Y237900D01*
X663500Y241700D02*
X811000D01*
X660200Y245000D02*
X663500Y241700D01*
X639646Y245000D02*
X660200D01*
X897700Y194000D02*
X907800Y204100D01*
X862800Y194000D02*
X897700D01*
X753500Y245900D02*
X860700D01*
X750000Y249400D02*
X753500Y245900D01*
X651600Y249400D02*
X750000D01*
X646000Y255000D02*
X651600Y249400D01*
X639646Y255000D02*
X646000D01*
X753700Y253600D02*
X891700D01*
X732200Y275100D02*
X753700Y253600D01*
X728297Y275100D02*
X732200D01*
X711497Y258300D02*
X728297Y275100D01*
X652500Y258300D02*
X711497D01*
X645800Y265000D02*
X652500Y258300D01*
X639646Y265000D02*
X645800D01*
X639646Y275000D02*
X650100D01*
X664900Y260200D01*
X709818D01*
X726883Y277265D01*
X734135D01*
X755200Y256200D01*
X802900D01*
X808000Y261300D01*
X889500D01*
X894800Y256000D01*
Y248500D02*
Y256000D01*
X639646Y285000D02*
X657500D01*
X660800Y281700D01*
X692700D01*
X696600Y285600D01*
X732200D01*
X734000Y287400D01*
X743200D01*
X764815Y265785D01*
X846043D01*
X851158Y270900D01*
X883200D01*
X897800Y256300D01*
Y243394D02*
Y256300D01*
X634300Y295000D02*
X639646D01*
X632600Y296700D02*
X634300Y295000D01*
X632600Y296700D02*
Y350100D01*
X689994D01*
X706194Y333900D01*
X801016D01*
X801816Y334700D01*
X885100D01*
X886100Y333700D01*
Y225000D02*
X890700Y220400D01*
X909058D01*
X639646Y315000D02*
X644000D01*
X657500Y301500D01*
X672200D01*
X677900Y295800D01*
X737100D01*
X739200Y297900D01*
X764658D01*
X788374Y274185D01*
X804515D01*
X812400Y185800D02*
X833228Y164972D01*
X879466D01*
X908100Y136338D01*
Y132000D02*
Y136338D01*
X639646Y335000D02*
X644000D01*
X655200Y323800D01*
X656200Y309000D01*
X679231D01*
X684000Y313769D01*
X689842D01*
X695510Y308100D01*
X782451D01*
X791404Y299147D01*
Y293796D02*
Y299147D01*
Y293796D02*
X803700Y281500D01*
X825900D01*
X697310Y309900D02*
X817400D01*
X691642Y315569D02*
X697310Y309900D01*
X680091Y315569D02*
X691642D01*
X676123Y311600D02*
X680091Y315569D01*
X664100Y311600D02*
X676123D01*
X659900Y315800D02*
X664100Y311600D01*
X659900Y315800D02*
Y335800D01*
X650700Y345000D02*
X659900Y335800D01*
X639646Y345000D02*
X650700D01*
X847000Y323400D02*
X848900Y321500D01*
X810500Y323400D02*
X847000D01*
X808500Y321400D02*
X810500Y323400D01*
X666000Y321400D02*
X808500D01*
X665000Y322400D02*
X666000Y321400D01*
X665000Y322400D02*
Y334100D01*
X665900Y335000D01*
X670354D01*
Y325000D02*
X809300Y325200D01*
X865800D01*
X866500Y324500D01*
X681100Y305000D02*
X687000Y310900D01*
X670354Y305000D02*
X681100D01*
X670354Y265000D02*
X709800D01*
X724000Y279200D01*
X670354Y255000D02*
X714896D01*
X731498Y271602D01*
X706384Y282000D02*
X738600D01*
X702892Y278508D02*
X706384Y282000D01*
X634508Y278508D02*
X702892D01*
X632608Y276608D02*
X634508Y278508D01*
X632608Y234000D02*
Y276608D01*
Y234000D02*
X635008Y231600D01*
X648500D01*
X651900Y235000D01*
X670354D01*
X623400Y93800D02*
X666700Y50500D01*
X623400Y93800D02*
Y214184D01*
X629284Y220069D01*
X654092D01*
X659160Y215000D01*
X670354D01*
X684500Y180200D02*
X687000Y177700D01*
X666900Y180200D02*
X684500D01*
X665100Y182000D02*
X666900Y180200D01*
X665100Y182000D02*
Y194000D01*
X666100Y195000D01*
X670354D01*
X687200Y149000D02*
X689800Y151600D01*
Y183100D01*
X687900Y185000D02*
X689800Y183100D01*
X670354Y185000D02*
X687900D01*
X638300Y82700D02*
X678300D01*
X628900Y92100D02*
X638300Y82700D01*
X628900Y92100D02*
Y195500D01*
X632700Y199300D01*
X643600D01*
X644900Y198000D01*
Y191800D02*
Y198000D01*
X642000Y188900D02*
X644900Y191800D01*
X635000Y188900D02*
X642000D01*
X633700Y187600D02*
X635000Y188900D01*
X633700Y182400D02*
Y187600D01*
Y182400D02*
X636000Y180100D01*
X650300D01*
X655400Y175000D01*
X670354D01*
X668000Y155000D02*
X670354D01*
X663900Y150900D02*
X668000Y155000D01*
X663900Y99600D02*
Y150900D01*
X760000Y65800D02*
Y70354D01*
X759317Y65117D02*
X760000Y65800D01*
X720117Y65117D02*
X759317D01*
X719500Y64500D02*
X720117Y65117D01*
X780000Y66300D02*
Y70354D01*
X769200Y61500D02*
X774000Y66300D01*
X725823Y61500D02*
X769200D01*
X724123Y59800D02*
X725823Y61500D01*
X714959Y59800D02*
X724123D01*
X711100Y63659D02*
X714959Y59800D01*
X711100Y63659D02*
Y67000D01*
X713000Y68900D01*
X721551D01*
X722651Y70000D01*
X724100D01*
X800000Y70354D02*
Y73000D01*
X793300Y74000D02*
X794300Y73000D01*
X793300Y74000D02*
Y75592D01*
X789600D02*
X793300D01*
X786000Y79192D02*
X789600Y75592D01*
X742992Y79192D02*
X786000D01*
X740300Y76500D02*
X742992Y79192D01*
X727600Y76500D02*
X740300D01*
X726100Y78000D02*
X727600Y76500D01*
X830000Y64000D02*
Y70354D01*
X828000Y62000D02*
X830000Y64000D01*
X807800Y62000D02*
X828000D01*
X803200Y57400D02*
X807800Y62000D01*
X797000Y57400D02*
X803200D01*
X795100Y59300D02*
X797000Y57400D01*
X745300Y59300D02*
X795100D01*
X744150Y58150D02*
X745300Y59300D01*
X744300Y193000D02*
X768700D01*
X776000Y62600D02*
X795100D01*
X798200Y59500D01*
X802600D01*
X808200Y65100D01*
X824000D01*
X825000Y66100D01*
Y74600D01*
X826000Y75600D01*
X842600D01*
X847846Y70354D01*
X850000D01*
X770100Y215400D02*
X781500Y204000D01*
X743400Y215400D02*
X770100D01*
X740143Y51100D02*
X931700D01*
X934500Y53900D01*
Y62500D01*
X933900Y63100D02*
X934500Y62500D01*
X897600Y63100D02*
X933900D01*
X894000Y66700D02*
X897600Y63100D01*
X894000Y66700D02*
Y74900D01*
X893000Y75900D02*
X894000Y74900D01*
X887000Y75900D02*
X893000D01*
X885700Y74600D02*
X887000Y75900D01*
X885700Y68000D02*
Y74600D01*
X882500Y64800D02*
X885700Y68000D01*
X876800Y64800D02*
X882500D01*
X875600Y66000D02*
X876800Y64800D01*
X875600Y66000D02*
Y74000D01*
X872900Y76700D02*
X875600Y74000D01*
X862200Y76700D02*
X872900D01*
X860000Y74500D02*
X862200Y76700D01*
X860000Y70354D02*
Y74500D01*
X778600Y92600D02*
X784808Y86392D01*
X794893D01*
X798493Y82792D01*
X800469D01*
X802260Y81000D01*
X877000D01*
X880000Y78000D01*
Y70354D02*
Y78000D01*
X890000Y67800D02*
Y70354D01*
Y67800D02*
X891400Y66400D01*
Y59900D02*
Y66400D01*
X890000Y58500D02*
X891400Y59900D01*
X874100Y58500D02*
X890000D01*
X873500Y59100D02*
X874100Y58500D01*
X869700Y59100D02*
X873500D01*
X863600Y53000D02*
X869700Y59100D01*
X782200Y53000D02*
X863600D01*
X779200Y56000D02*
X782200Y53000D01*
X788500Y134800D02*
X793000Y139300D01*
X754900Y134800D02*
X788500D01*
X731100Y87000D02*
X757800D01*
X728200Y89900D02*
X731100Y87000D01*
X715400Y89900D02*
X728200D01*
X697800Y72300D02*
X715400Y89900D01*
X697800Y67500D02*
Y72300D01*
Y67500D02*
X717400Y47900D01*
X758400D01*
X759700Y49200D01*
X934100D01*
X936400Y51500D01*
Y63900D01*
X935200Y65100D02*
X936400Y63900D01*
X901000Y65100D02*
X935200D01*
X900000Y66100D02*
X901000Y65100D01*
X900000Y66100D02*
Y70354D01*
X954000Y156000D02*
X965200Y144800D01*
X951813Y156000D02*
X954000D01*
X936400Y140587D02*
X951813Y156000D01*
X936400Y126500D02*
Y140587D01*
X928900Y119000D02*
X936400Y126500D01*
X870000Y31700D02*
Y39646D01*
X945892Y37000D02*
X960900D01*
X943300Y34408D02*
X945892Y37000D01*
X906700Y34408D02*
X943300D01*
X906700D02*
Y42500D01*
X902100Y47100D02*
X906700Y42500D01*
X861600Y47100D02*
X902100D01*
X860000Y45500D02*
X861600Y47100D01*
X860000Y39646D02*
Y45500D01*
X840000Y39646D02*
Y44000D01*
X841000Y45000D01*
X853100D01*
X854100Y44000D01*
Y32000D02*
Y44000D01*
Y32000D02*
X862500Y23600D01*
X934200D01*
X971100Y132562D02*
Y141200D01*
X951017Y30808D02*
X952608Y32400D01*
X899092Y30808D02*
X951017D01*
X896600Y33300D02*
X899092Y30808D01*
X896600Y33300D02*
Y44400D01*
X896000Y45000D02*
X896600Y44400D01*
X866800Y45000D02*
X896000D01*
X866500Y44700D02*
X866800Y45000D01*
X866500Y36900D02*
Y44700D01*
X863900Y34300D02*
X866500Y36900D01*
X856800Y34300D02*
X863900D01*
X856100Y35000D02*
X856800Y34300D01*
X856100Y35000D02*
Y45000D01*
X854000Y47100D02*
X856100Y45000D01*
X831800Y47100D02*
X854000D01*
X830000Y45300D02*
X831800Y47100D01*
X830000Y39646D02*
Y45300D01*
X851500Y27500D02*
X854800Y24200D01*
X824000Y27500D02*
X851500D01*
X820000Y31500D02*
X824000Y27500D01*
X820000Y31500D02*
Y39646D01*
X799700Y45000D02*
X800000Y39646D01*
X738700Y45000D02*
X799700D01*
X746600Y328400D02*
X916600D01*
X920000Y325000D01*
X790000Y22600D02*
Y39646D01*
Y22600D02*
X799200Y13400D01*
X944100D01*
X941900Y102800D02*
X951000Y93700D01*
X941900Y102800D02*
Y115300D01*
X951400Y124800D01*
Y132600D01*
X760000Y34600D02*
Y39646D01*
X758000Y32600D02*
X760000Y34600D01*
X719000Y32600D02*
X758000D01*
X699800Y51800D02*
X719000Y32600D01*
X737200Y312800D02*
X826500D01*
X830400Y316700D01*
X872200D01*
X875200Y319700D01*
X911300D01*
X1059300Y345000D02*
X1060354D01*
X1072000Y367500D02*
Y382100D01*
Y367500D02*
X1077300Y362200D01*
Y347400D02*
Y362200D01*
X1073310Y343410D02*
X1077300Y347400D01*
X1073310Y299810D02*
Y343410D01*
X1065231Y291731D02*
X1073310Y299810D01*
X1055100Y291731D02*
X1065231D01*
X1055100D02*
Y299400D01*
X1058400Y302700D01*
Y305000D02*
X1060354D01*
X1076300Y373700D02*
X1079200Y370800D01*
Y287300D02*
Y370800D01*
X1071900Y280000D02*
X1079200Y287300D01*
X1068700Y280000D02*
X1071900D01*
X1063700Y285000D02*
X1068700Y280000D01*
X1060354Y285000D02*
X1063700D01*
X1042500Y265000D02*
X1060354D01*
X427700Y294100D02*
X476300D01*
X396041Y262441D02*
X427700Y294100D01*
X485900Y296491D02*
X535000Y345591D01*
X485900Y278255D02*
Y296491D01*
X392200Y270200D02*
X409100Y287100D01*
X384900Y215000D02*
X431500Y168400D01*
X400600Y131500D02*
X437691Y94409D01*
X535000D01*
X1052017Y450383D02*
X1056401Y445999D01*
X1052017Y450383D02*
Y465283D01*
X1048500Y468800D02*
X1052017Y465283D01*
X974700Y468800D02*
X1048500D01*
X952600Y446700D02*
X974700Y468800D01*
X1030672Y446572D02*
X1040000Y455900D01*
X995372Y446572D02*
X1030672D01*
X989600Y440800D02*
X995372Y446572D01*
X924200Y440800D02*
X989600D01*
X922000Y443000D02*
X924200Y440800D01*
X920000Y443000D02*
X922000D01*
X745700Y443600D02*
X786996D01*
X752700Y378000D02*
X786900Y343800D01*
X681000Y451700D02*
X682200Y452900D01*
X701100D01*
X702500Y451500D01*
X794400D01*
X802200Y443700D01*
X710285Y440800D02*
X810000D01*
X699985Y451100D02*
X710285Y440800D01*
X684400Y451100D02*
X699985D01*
X677600Y444300D02*
X684400Y451100D01*
X665500Y444300D02*
X677600D01*
X661800Y448000D02*
X665500Y444300D01*
X661800Y448000D02*
Y450000D01*
X843000Y412900D02*
X843400Y413300D01*
Y437300D01*
X839800Y440900D02*
X843400Y437300D01*
X818100Y440900D02*
X839800D01*
X803883Y455117D02*
X818100Y440900D01*
X740200Y455117D02*
X803883D01*
X737817Y457500D02*
X740200Y455117D01*
X689800Y457500D02*
X737817D01*
X736000Y484100D02*
X773200D01*
X775200Y482100D01*
Y473000D02*
Y482100D01*
Y473000D02*
X776200Y472000D01*
X788200D01*
X796700Y480500D01*
X854500D01*
X797800Y65100D02*
X800500Y62400D01*
X787000Y65100D02*
X797800D01*
X783400Y68700D02*
X787000Y65100D01*
X783400Y68700D02*
Y75192D01*
X783000Y75592D02*
X783400Y75192D01*
X747104Y75592D02*
X783000D01*
X741312Y69800D02*
X747104Y75592D01*
X737100Y69800D02*
X741312D01*
X805000Y126000D02*
X808400Y129400D01*
X805000Y122750D02*
Y126000D01*
Y122750D02*
X806907Y120843D01*
X810393D01*
X812638Y123088D01*
X870212D01*
X888000Y105300D01*
X871400Y56200D02*
X928035D01*
X931700Y59865D01*
X929700Y132100D02*
Y189400D01*
X917200Y201900D02*
X929700Y189400D01*
X914300Y201900D02*
X917200D01*
X945800Y134261D02*
X950997Y139459D01*
X945800Y121915D02*
Y134261D01*
X909585Y85700D02*
X945800Y121915D01*
X858000Y85700D02*
X909585D01*
X856600Y87100D02*
X858000Y85700D01*
X842900Y61600D02*
X888500D01*
X836800Y55500D02*
X842900Y61600D01*
X793900Y55500D02*
X836800D01*
X793000Y56400D02*
X793900Y55500D01*
X808700Y102000D02*
X845800D01*
X801300Y109400D02*
X808700Y102000D01*
X794246Y109400D02*
X801300D01*
X792546Y111100D02*
X794246Y109400D01*
X784800Y111100D02*
X792546D01*
X800722Y87100D02*
X846000D01*
X797722Y90100D02*
X800722Y87100D01*
X790698Y90100D02*
X797722D01*
X783598Y97200D02*
X790698Y90100D01*
X758700Y97200D02*
X783598D01*
X755000Y93500D02*
X758700Y97200D01*
X661500Y353000D02*
X690700D01*
X692000Y351700D01*
X704300D01*
X706300Y353700D01*
Y372000D01*
X707900Y373600D01*
X708300D01*
X654100Y373000D02*
X679400D01*
X681300Y371100D01*
X686700D01*
X693900Y378300D01*
X713380D01*
X715780Y375900D01*
X724200Y210000D02*
X758600D01*
X767700Y200900D01*
X720000Y233400D02*
X721000Y234400D01*
X787885D01*
X800300Y221985D01*
Y202100D02*
Y221985D01*
X798100Y199900D02*
X800300Y202100D01*
X790824Y199900D02*
X798100D01*
X787320Y203404D02*
X790824Y199900D01*
X776280Y226000D02*
X782280D01*
X768580Y218300D02*
X776280Y226000D01*
X720300Y218300D02*
X768580D01*
X694800Y299900D02*
X696800Y297900D01*
X736300D01*
X738200Y299800D01*
X768900D01*
X786300Y282400D01*
X792457D01*
X794100Y280757D01*
X765612Y259100D02*
X796300D01*
X739112Y285600D02*
X765612Y259100D01*
X737600Y285600D02*
X739112D01*
X735800Y283800D02*
X737600Y285600D01*
X701000Y283800D02*
X735800D01*
X699600Y282400D02*
X701000Y283800D01*
X797400Y204000D02*
Y221033D01*
X785833Y232600D02*
X797400Y221033D01*
X729751Y232600D02*
X785833D01*
X726000Y228849D02*
X729751Y232600D01*
X1017200Y115900D02*
X1047900D01*
X1006000Y104700D02*
Y106700D01*
X990600Y120800D02*
X1004000D01*
X1010200Y127000D01*
X999000Y149300D02*
X1011500Y136800D01*
X980800Y149300D02*
X999000D01*
X971200Y184600D02*
X987500Y200900D01*
X1041000D01*
X1042500Y199400D01*
Y182400D02*
Y199400D01*
Y182400D02*
X1043700Y181200D01*
X1037935Y125335D02*
X1061600Y149000D01*
X1017888Y125335D02*
X1037935D01*
X1008053Y115500D02*
X1017888Y125335D01*
X1004700Y115500D02*
X1008053D01*
X993000Y103800D02*
X1004700Y115500D01*
X1005700Y168500D02*
X1008700Y171500D01*
X1037500D01*
X981300Y106500D02*
Y128000D01*
X987200Y133900D01*
X1013549D01*
X1019137Y139487D01*
X1024687D01*
X1045200Y160000D01*
Y176331D01*
X1047332Y178463D01*
Y185967D01*
X1045287Y188012D02*
X1047332Y185967D01*
X1045287Y188012D02*
Y203113D01*
X1043650Y204750D02*
X1045287Y203113D01*
X1041800Y97400D02*
X1042900Y96300D01*
X1005300Y97400D02*
X1041800D01*
X1001300Y93400D02*
X1005300Y97400D01*
X1064000Y289900D02*
X1068522Y285378D01*
X1053349Y289900D02*
X1064000D01*
X1053180Y290069D02*
X1053349Y289900D01*
X1022608Y290069D02*
X1053180D01*
X1020740Y288200D02*
X1022608Y290069D01*
X927800Y288200D02*
X1020740D01*
X921100Y281500D02*
X927800Y288200D01*
X919100Y281500D02*
X921100D01*
X916300Y275400D02*
X922900Y268800D01*
X1035900D01*
X1037800Y266900D01*
Y262600D02*
Y266900D01*
Y262600D02*
X1040100Y260300D01*
X1042400D01*
X1043700Y259000D01*
X965031Y278269D02*
X1038831D01*
X1042900Y274200D01*
X1040337Y281300D02*
X1041569Y280069D01*
X964000Y281300D02*
X1040337D01*
X960900Y278200D02*
X964000Y281300D01*
X911180Y278200D02*
X960900D01*
X910600Y278780D02*
X911180Y278200D01*
X910600Y278780D02*
Y294300D01*
X912100Y295800D01*
X1033900Y299100D02*
X1038000Y295000D01*
X931100Y299100D02*
X1033900D01*
X913500Y281500D02*
X931100Y299100D01*
X100800Y253300D02*
X325100D01*
X99500Y252000D02*
X100800Y253300D01*
X99500Y250000D02*
X99583D01*
X130291Y280000D02*
X166943D01*
X126000Y230000D02*
X130291D01*
X124900Y231100D02*
X126000Y230000D01*
X124900Y231100D02*
Y244000D01*
X126000Y245100D01*
X130291Y310000D02*
X154200D01*
X329900Y291000D02*
X333100D01*
X373300Y250800D01*
X911600Y339600D02*
X946000D01*
X966200D01*
X970500Y317289D02*
Y343900D01*
Y384000D01*
X966200Y339600D02*
X970500Y343900D01*
X970600Y344000D01*
X940977Y344623D02*
X946000Y339600D01*
X970600Y315000D01*
X880000D02*
X970600D01*
X972789D01*
X1029646D01*
X781900Y100800D02*
X787600Y106500D01*
X816863Y208700D02*
X870400D01*
X920500D01*
X709700Y121000D02*
Y124900D01*
Y126700D01*
X773200Y196000D02*
X775100Y197900D01*
X773100Y195900D02*
X773200Y196000D01*
X929500Y197900D02*
X934500Y192900D01*
X883700Y357300D02*
X884600D01*
X883700D02*
X898000Y371600D01*
X918500Y392100D02*
X926500Y400100D01*
X898000Y370700D02*
Y371600D01*
Y396000D01*
Y371600D02*
X918500Y392100D01*
X998145Y358955D02*
X998500Y349546D01*
X997499Y376101D02*
X998145Y358955D01*
X997499Y359601D02*
X998145Y358955D01*
X1004200Y352900D01*
X774400Y142100D02*
X797800D01*
X753800Y381316D02*
Y383600D01*
Y398000D01*
X752800Y399000D02*
X753800Y398000D01*
X130291Y360000D02*
X236000D01*
X289291D01*
X940000Y39646D02*
Y58000D01*
Y70354D01*
X1071000Y245000D02*
X1076000D01*
X1087600D01*
X870000Y427700D02*
X873200D01*
X709600Y429600D02*
X750000D01*
X671200Y462300D02*
X750000D01*
X637700Y235000D02*
Y238440D01*
X738700Y67500D02*
X750000D01*
X774000Y66300D02*
X780000D01*
X786231Y72300D02*
X790000D01*
X794300Y73000D02*
X800000D01*
X804592Y74300D02*
X810000D01*
X721400Y40200D02*
X750000D01*
X1059300Y345000D02*
Y378000D01*
X1058400Y302700D02*
Y305000D01*
X1006000Y104700D02*
X1017200Y115900D01*
X99500Y250000D02*
Y252000D01*
X430000Y40000D02*
Y42800D01*
X550000Y370000D02*
X550700Y369300D01*
X440000Y383000D02*
X446400Y376600D01*
X560943D01*
X638300Y453957D01*
X301500Y416600D02*
X313100Y405000D01*
X342300D01*
X342700Y405400D01*
X301800Y467000D02*
X351200Y417600D01*
Y401700D02*
Y417600D01*
X338500Y367100D02*
X378200Y327400D01*
X338500Y367100D02*
Y389000D01*
X351200Y401700D01*
X340300Y379700D02*
X350000Y370000D01*
X340300Y379700D02*
Y386300D01*
X355100Y401100D01*
X368800D01*
X430000Y42800D02*
X442700Y55500D01*
X420000Y48800D02*
X433800Y62600D01*
X451000D01*
X452500Y61100D01*
Y58500D02*
Y61100D01*
X374000Y413500D02*
X406600Y446100D01*
X401000Y420000D02*
X423300Y397700D01*
X445300D01*
X460000Y383000D01*
X431100Y405000D02*
Y426600D01*
X428100Y402000D02*
X431100Y405000D01*
X320000Y275200D02*
Y280000D01*
X335000Y281021D02*
X336276Y282297D01*
X332238Y287162D02*
X333100Y286300D01*
X320000Y275200D02*
X321500Y273700D01*
X331500D01*
X320000Y240000D02*
X340900D01*
X325100Y253300D02*
X326600Y251800D01*
X314400Y243269D02*
X340269D01*
X126000Y245100D02*
X346300D01*
X229000Y255200D02*
X328200D01*
X329700Y253700D01*
X335300D01*
X326600Y251800D02*
X335977D01*
X320000Y250000D02*
X368500D01*
X335977Y251800D02*
X341500Y257323D01*
X337600Y260000D02*
X341700Y264100D01*
X337600Y256000D02*
Y260000D01*
X335300Y253700D02*
X337600Y256000D01*
X333100Y275300D02*
Y286300D01*
X331500Y273700D02*
X333100Y275300D01*
X331100Y256500D02*
X338900Y264300D01*
X332000Y260000D02*
X335000Y263000D01*
X338900Y264300D02*
Y265700D01*
X341700Y264100D02*
Y271200D01*
X335000Y263000D02*
Y281021D01*
X329000Y278200D02*
Y279500D01*
X154200Y310000D02*
X177800Y286400D01*
X213640D01*
X166943Y280000D02*
X171443Y284500D01*
X212995D01*
X214940Y285100D02*
X239760D01*
X213640Y286400D02*
X214940Y285100D01*
X241705Y284500D02*
X324000D01*
X329000Y279500D01*
X239760Y285100D02*
X241060Y286400D01*
X325300D01*
X329900Y291000D01*
X212995Y284500D02*
X215095Y282400D01*
X239605D01*
X241705Y284500D01*
X0Y0D02*
X1100000D01*
Y500000D01*
X0D02*
X1100000D01*
X0Y0D02*
Y500000D01*
D23*
X456783Y458098D02*
D03*
Y475815D02*
D03*
D24*
X530000Y383000D02*
D03*
X460000D02*
D03*
X470000D02*
D03*
X480000D02*
D03*
X490000D02*
D03*
X500000D02*
D03*
X510000D02*
D03*
X520000D02*
D03*
X540000D02*
D03*
X420000D02*
D03*
X350000D02*
D03*
X360000D02*
D03*
X370000D02*
D03*
X380000D02*
D03*
X390000D02*
D03*
X400000D02*
D03*
X410000D02*
D03*
X430000D02*
D03*
X440000Y40000D02*
D03*
X450000D02*
D03*
X20000Y35000D02*
D03*
Y45000D02*
D03*
Y55000D02*
D03*
Y65000D02*
D03*
Y75000D02*
D03*
Y85000D02*
D03*
Y95000D02*
D03*
Y105000D02*
D03*
Y115000D02*
D03*
Y125000D02*
D03*
Y135000D02*
D03*
Y145000D02*
D03*
Y155000D02*
D03*
Y165000D02*
D03*
Y175000D02*
D03*
Y185000D02*
D03*
Y195000D02*
D03*
Y205000D02*
D03*
Y215000D02*
D03*
X50000Y35000D02*
D03*
Y45000D02*
D03*
Y55000D02*
D03*
Y65000D02*
D03*
Y75000D02*
D03*
Y85000D02*
D03*
Y95000D02*
D03*
Y105000D02*
D03*
Y115000D02*
D03*
Y125000D02*
D03*
Y135000D02*
D03*
Y145000D02*
D03*
Y155000D02*
D03*
Y165000D02*
D03*
Y175000D02*
D03*
Y185000D02*
D03*
Y195000D02*
D03*
Y205000D02*
D03*
Y215000D02*
D03*
Y295000D02*
D03*
Y305000D02*
D03*
Y315000D02*
D03*
Y325000D02*
D03*
Y335000D02*
D03*
Y345000D02*
D03*
Y355000D02*
D03*
Y365000D02*
D03*
Y375000D02*
D03*
Y385000D02*
D03*
Y395000D02*
D03*
Y405000D02*
D03*
Y415000D02*
D03*
Y425000D02*
D03*
Y435000D02*
D03*
Y445000D02*
D03*
Y455000D02*
D03*
Y465000D02*
D03*
Y475000D02*
D03*
X20000Y295000D02*
D03*
Y305000D02*
D03*
Y315000D02*
D03*
Y325000D02*
D03*
Y335000D02*
D03*
Y345000D02*
D03*
Y355000D02*
D03*
Y365000D02*
D03*
Y375000D02*
D03*
Y385000D02*
D03*
Y395000D02*
D03*
Y405000D02*
D03*
Y415000D02*
D03*
Y425000D02*
D03*
Y435000D02*
D03*
Y445000D02*
D03*
Y455000D02*
D03*
Y465000D02*
D03*
Y475000D02*
D03*
X411000Y420000D02*
D03*
X401000D02*
D03*
X480000Y370000D02*
D03*
X550000D02*
D03*
X540000D02*
D03*
X530000D02*
D03*
X520000D02*
D03*
X510000D02*
D03*
X500000D02*
D03*
X490000D02*
D03*
X470000D02*
D03*
X370000D02*
D03*
X440000D02*
D03*
X430000D02*
D03*
X420000D02*
D03*
X410000D02*
D03*
X400000D02*
D03*
X390000D02*
D03*
X380000D02*
D03*
X360000D02*
D03*
X480000Y70000D02*
D03*
X550000D02*
D03*
X540000D02*
D03*
X530000D02*
D03*
X520000D02*
D03*
X510000D02*
D03*
X500000D02*
D03*
X490000D02*
D03*
X470000D02*
D03*
X370000D02*
D03*
X440000D02*
D03*
X430000D02*
D03*
X420000D02*
D03*
X410000D02*
D03*
X400000D02*
D03*
X390000D02*
D03*
X380000D02*
D03*
X360000D02*
D03*
D25*
X550000Y383000D02*
D03*
X440000D02*
D03*
X430000Y40000D02*
D03*
X421000Y420000D02*
D03*
X460000Y370000D02*
D03*
X350000D02*
D03*
X460000Y70000D02*
D03*
X350000D02*
D03*
D26*
X20000Y25000D02*
D03*
X50000D02*
D03*
Y285000D02*
D03*
X20000D02*
D03*
D27*
X535000Y275591D02*
D03*
Y135591D02*
D03*
Y345591D02*
D03*
Y205591D02*
D03*
D28*
Y234409D02*
D03*
Y94409D02*
D03*
Y304409D02*
D03*
Y164409D02*
D03*
D29*
X190000Y25000D02*
D03*
D30*
X210000D02*
D03*
D31*
X75000Y475000D02*
D03*
Y25000D02*
D03*
D32*
X230300Y413200D02*
D03*
X75889Y180000D02*
D03*
X86100Y200000D02*
D03*
X68900Y178000D02*
D03*
X169700Y277700D02*
D03*
X216100Y287900D02*
D03*
X189128Y75000D02*
D03*
X209600Y296300D02*
D03*
X60300Y83700D02*
D03*
X191200Y210000D02*
D03*
X40600Y200600D02*
D03*
X118900Y290100D02*
D03*
X190000Y298000D02*
D03*
X88800Y320000D02*
D03*
X141000Y336300D02*
D03*
X701700Y128400D02*
D03*
X1038800Y166000D02*
D03*
X111900Y262100D02*
D03*
X798900Y348100D02*
D03*
X911600Y339600D02*
D03*
X805200Y284400D02*
D03*
X763000Y408800D02*
D03*
X679900Y429900D02*
D03*
X911600Y144200D02*
D03*
X970600Y384100D02*
D03*
X670000Y103900D02*
D03*
X729500Y107700D02*
D03*
X945000Y63200D02*
D03*
X925000Y87100D02*
D03*
X1056842Y124442D02*
D03*
X1042900Y216000D02*
D03*
X1037500Y191000D02*
D03*
X656500Y228300D02*
D03*
X1005900Y175000D02*
D03*
X342600Y231900D02*
D03*
X331000D02*
D03*
X693700Y365500D02*
D03*
X799800Y106600D02*
D03*
X891600Y118300D02*
D03*
X923957Y329443D02*
D03*
X774800Y220500D02*
D03*
X781800Y198400D02*
D03*
X735100Y204400D02*
D03*
X974200Y176400D02*
D03*
X925200Y204000D02*
D03*
X978200Y180400D02*
D03*
X1042300Y174900D02*
D03*
X703543Y97700D02*
D03*
X604400Y463000D02*
D03*
X898000Y396000D02*
D03*
X866948Y119652D02*
D03*
X929500Y197900D02*
D03*
X733000Y400400D02*
D03*
X796516Y338600D02*
D03*
X845600Y172900D02*
D03*
X911900D02*
D03*
X723500Y129100D02*
D03*
X798500Y141400D02*
D03*
X1035300Y75500D02*
D03*
X1026200D02*
D03*
X590400Y46400D02*
D03*
X609700Y48500D02*
D03*
X658600Y41500D02*
D03*
X1043500Y428600D02*
D03*
X1047400Y461500D02*
D03*
X110100Y150000D02*
D03*
X236000Y360000D02*
D03*
X652700Y75900D02*
D03*
X778300Y474800D02*
D03*
X1032500Y459400D02*
D03*
X1012100Y438600D02*
D03*
X890000Y441300D02*
D03*
X1019200Y431400D02*
D03*
X808200Y364800D02*
D03*
X790100Y373053D02*
D03*
X778300Y409400D02*
D03*
X771800Y412100D02*
D03*
X695450Y420050D02*
D03*
X683700Y417800D02*
D03*
X682800Y424200D02*
D03*
X659400Y432500D02*
D03*
X772100Y475300D02*
D03*
X762300Y468300D02*
D03*
X868300Y386800D02*
D03*
X878300Y408100D02*
D03*
X876000Y441700D02*
D03*
X867400Y379200D02*
D03*
X850600Y437900D02*
D03*
X860600Y407831D02*
D03*
X868000Y372600D02*
D03*
X883500Y375800D02*
D03*
X781161Y272439D02*
D03*
X901200Y301300D02*
D03*
X951300Y430600D02*
D03*
X788000Y279600D02*
D03*
X823800Y108500D02*
D03*
X813700Y112100D02*
D03*
X817600Y148900D02*
D03*
X810300Y138100D02*
D03*
X813200Y144600D02*
D03*
X809800Y152300D02*
D03*
X888900Y274400D02*
D03*
X870600Y331900D02*
D03*
X812500Y319600D02*
D03*
X871100Y320400D02*
D03*
X697600Y356500D02*
D03*
X706800Y288500D02*
D03*
X715200Y277500D02*
D03*
X734300Y245000D02*
D03*
X737400Y222500D02*
D03*
X694600Y182800D02*
D03*
X660700Y165000D02*
D03*
X701499Y71600D02*
D03*
X714000Y65200D02*
D03*
X715900Y74600D02*
D03*
X720708Y80992D02*
D03*
X724200Y87100D02*
D03*
X837400Y62400D02*
D03*
X836800Y161200D02*
D03*
X776600Y181100D02*
D03*
X776400Y87100D02*
D03*
X967700Y33200D02*
D03*
X958708Y29008D02*
D03*
X964900Y53300D02*
D03*
X946900Y18900D02*
D03*
X1082200Y63100D02*
D03*
X780000Y26300D02*
D03*
X940300Y20600D02*
D03*
X1072400Y412900D02*
D03*
X1048900Y376400D02*
D03*
X1070900Y355800D02*
D03*
X988286Y395500D02*
D03*
X1038300Y320600D02*
D03*
X1068300Y314900D02*
D03*
X1073400Y396200D02*
D03*
X1083300Y272300D02*
D03*
X1074000Y255000D02*
D03*
X1071800Y231000D02*
D03*
X1056100Y55700D02*
D03*
Y62900D02*
D03*
X1075800Y205000D02*
D03*
X395300Y209700D02*
D03*
X1044100Y465900D02*
D03*
X958900Y448700D02*
D03*
X926000Y443600D02*
D03*
X1041700Y450000D02*
D03*
X785400Y412900D02*
D03*
X691000Y432000D02*
D03*
X825000Y436200D02*
D03*
X694500Y448300D02*
D03*
X666700Y447200D02*
D03*
X831700Y437600D02*
D03*
X688500Y438100D02*
D03*
X826400Y395200D02*
D03*
X881900Y105700D02*
D03*
X809500D02*
D03*
X793200Y97200D02*
D03*
X857400Y95200D02*
D03*
X808400Y123700D02*
D03*
X876200Y102400D02*
D03*
X790600Y105400D02*
D03*
X889700Y96000D02*
D03*
X954288Y151505D02*
D03*
X920900Y111600D02*
D03*
X917100Y195900D02*
D03*
Y138900D02*
D03*
X939100Y125600D02*
D03*
X948700Y148400D02*
D03*
X957300Y146150D02*
D03*
X878300Y91100D02*
D03*
X909500Y195900D02*
D03*
X841200Y178100D02*
D03*
X837000Y169300D02*
D03*
X905300D02*
D03*
X810700Y89900D02*
D03*
X873400Y88600D02*
D03*
X882500Y141500D02*
D03*
X775200Y163800D02*
D03*
X765000Y171440D02*
D03*
X874200Y145000D02*
D03*
X655400Y379600D02*
D03*
X675000D02*
D03*
X644200Y353600D02*
D03*
X702400Y371300D02*
D03*
X626900Y60000D02*
D03*
X644000Y53300D02*
D03*
X713600Y216900D02*
D03*
X773200Y204100D02*
D03*
X710700Y225400D02*
D03*
X783100Y219100D02*
D03*
X1006000Y112600D02*
D03*
X1049000Y123400D02*
D03*
X1002600Y102300D02*
D03*
X1044800D02*
D03*
X931400Y282800D02*
D03*
X1068300Y275600D02*
D03*
X930457Y250800D02*
D03*
X1039500Y220400D02*
D03*
X1040300Y301600D02*
D03*
X913900D02*
D03*
X1010700Y92600D02*
D03*
X1014600Y55161D02*
D03*
X258300Y269700D02*
D03*
X310700Y264900D02*
D03*
X279700Y220000D02*
D03*
X311200Y259400D02*
D03*
X378200Y327400D02*
D03*
X301800Y467000D02*
D03*
X107600Y170900D02*
D03*
X79200Y185800D02*
D03*
X179700Y274600D02*
D03*
X219700Y292100D02*
D03*
X241700Y120300D02*
D03*
X110700Y200000D02*
D03*
X222000Y45000D02*
D03*
X309100Y297200D02*
D03*
X226200Y288000D02*
D03*
X186300Y65000D02*
D03*
X304700Y290000D02*
D03*
X238600Y287900D02*
D03*
X325400Y411200D02*
D03*
X332238Y287162D02*
D03*
X197900Y297600D02*
D03*
X211200Y108900D02*
D03*
X218000Y299200D02*
D03*
X91700Y236000D02*
D03*
X81500Y76500D02*
D03*
X59100Y104900D02*
D03*
X71927Y96100D02*
D03*
X164400Y230000D02*
D03*
X156700Y260000D02*
D03*
X204000Y298000D02*
D03*
X183800Y250000D02*
D03*
X333200Y380900D02*
D03*
X84000Y355600D02*
D03*
X81200Y366300D02*
D03*
X86000Y348100D02*
D03*
X108300Y210000D02*
D03*
X799600Y473000D02*
D03*
X926000Y127700D02*
D03*
X781700Y399100D02*
D03*
X881500Y350100D02*
D03*
X892500Y305000D02*
D03*
X880000Y315000D02*
D03*
X897100Y141500D02*
D03*
X811400Y157800D02*
D03*
X1048600Y83800D02*
D03*
X1009000Y51500D02*
D03*
X978800Y90600D02*
D03*
X959400Y132800D02*
D03*
X970600Y409500D02*
D03*
X1018100Y424800D02*
D03*
X944800Y112200D02*
D03*
X1037500Y159400D02*
D03*
Y231000D02*
D03*
X1024200Y354000D02*
D03*
X1054000Y352500D02*
D03*
X808800Y474500D02*
D03*
X657400Y239900D02*
D03*
X1090400Y263500D02*
D03*
X941200Y93100D02*
D03*
X1038900Y418400D02*
D03*
X1073700Y422600D02*
D03*
X784000Y480300D02*
D03*
X964900Y132900D02*
D03*
X1004100Y139000D02*
D03*
X1008439Y231800D02*
D03*
X920000Y388100D02*
D03*
X1083482Y261600D02*
D03*
X638300Y453957D02*
D03*
X866400Y204700D02*
D03*
X759400Y365700D02*
D03*
X868300Y339700D02*
D03*
X1052700Y427600D02*
D03*
X1006400Y381300D02*
D03*
X934500Y192900D02*
D03*
X757800Y196000D02*
D03*
X836400Y372300D02*
D03*
X1056700Y451500D02*
D03*
X1004200Y352900D02*
D03*
X993300Y173300D02*
D03*
X973600Y319000D02*
D03*
X689800Y128800D02*
D03*
X642000Y43700D02*
D03*
X691800Y68500D02*
D03*
Y121000D02*
D03*
X709700Y128800D02*
D03*
X757800Y117600D02*
D03*
Y180600D02*
D03*
X775100Y197900D02*
D03*
X808500Y118043D02*
D03*
X985800Y86900D02*
D03*
X996457Y123600D02*
D03*
X669300Y360600D02*
D03*
X888077Y348700D02*
D03*
X907400Y358100D02*
D03*
X951600Y348700D02*
D03*
X721200Y338000D02*
D03*
X779000Y146700D02*
D03*
X959100Y140500D02*
D03*
X975500Y96400D02*
D03*
X745200Y372000D02*
D03*
X1071000Y245000D02*
D03*
X975600Y427700D02*
D03*
X1014900Y451200D02*
D03*
X1009100Y457000D02*
D03*
X905900Y442800D02*
D03*
X900000Y440000D02*
D03*
X1034443Y432900D02*
D03*
X858300Y439200D02*
D03*
X793931Y390000D02*
D03*
X794100Y396300D02*
D03*
X790800Y402231D02*
D03*
X740000Y419100D02*
D03*
X739800Y471892D02*
D03*
X659695Y460600D02*
D03*
X664800Y455900D02*
D03*
X754550Y467750D02*
D03*
X742800Y432900D02*
D03*
X658300Y442600D02*
D03*
X663700Y440300D02*
D03*
X890400Y378839D02*
D03*
X850100Y403000D02*
D03*
X820000Y444600D02*
D03*
X866900Y353200D02*
D03*
X844400Y468200D02*
D03*
X852900Y407969D02*
D03*
X883500Y368700D02*
D03*
X869000Y361100D02*
D03*
X766293Y281600D02*
D03*
X743800Y293300D02*
D03*
X753200Y353600D02*
D03*
Y371500D02*
D03*
X865700Y468500D02*
D03*
X791200Y248800D02*
D03*
X854600D02*
D03*
X871700Y438100D02*
D03*
X785239Y301300D02*
D03*
X705700Y301000D02*
D03*
X684000Y374000D02*
D03*
X787000Y295800D02*
D03*
X780700Y297800D02*
D03*
X712400Y302300D02*
D03*
X708300Y350200D02*
D03*
X750000Y397600D02*
D03*
X876587Y471100D02*
D03*
X791300Y262000D02*
D03*
X861100Y268100D02*
D03*
Y384700D02*
D03*
X816600Y118300D02*
D03*
X814200Y127700D02*
D03*
X926516Y239400D02*
D03*
X919219Y242800D02*
D03*
X907800Y204100D02*
D03*
X862800Y194000D02*
D03*
X860700Y245900D02*
D03*
X891700Y253600D02*
D03*
X894800Y248500D02*
D03*
X897800Y243394D02*
D03*
X886100Y333700D02*
D03*
Y225000D02*
D03*
X909058Y220400D02*
D03*
X804515Y274185D02*
D03*
X812400Y185800D02*
D03*
X908100Y132000D02*
D03*
X825900Y281500D02*
D03*
X817400Y309900D02*
D03*
X848900Y321500D02*
D03*
X866500Y324500D02*
D03*
X687000Y310900D02*
D03*
X724000Y279200D02*
D03*
X731498Y271602D02*
D03*
X738600Y282000D02*
D03*
X666700Y50500D02*
D03*
X687000Y177700D02*
D03*
X687200Y149000D02*
D03*
X678300Y82700D02*
D03*
X663900Y99600D02*
D03*
X719500Y64500D02*
D03*
X724100Y70000D02*
D03*
X726100Y78000D02*
D03*
X744150Y58150D02*
D03*
X744300Y193000D02*
D03*
X768700D02*
D03*
X776000Y62600D02*
D03*
X781500Y204000D02*
D03*
X743400Y215400D02*
D03*
X740143Y51100D02*
D03*
X778600Y92600D02*
D03*
X779200Y56000D02*
D03*
X793000Y139300D02*
D03*
X754900Y134800D02*
D03*
X757800Y87000D02*
D03*
X965200Y144800D02*
D03*
X928900Y119000D02*
D03*
X870000Y31700D02*
D03*
X960900Y37000D02*
D03*
X934200Y23600D02*
D03*
X971100Y132562D02*
D03*
Y141200D02*
D03*
X952608Y32400D02*
D03*
X854800Y24200D02*
D03*
X738700Y45000D02*
D03*
X746600Y328400D02*
D03*
X920000Y325000D02*
D03*
X944100Y13400D02*
D03*
X951000Y93700D02*
D03*
X951400Y132600D02*
D03*
X699800Y51800D02*
D03*
X737200Y312800D02*
D03*
X911300Y319700D02*
D03*
X1059300Y378000D02*
D03*
X1072000Y382100D02*
D03*
X1076300Y373700D02*
D03*
X1042500Y265000D02*
D03*
X476300Y294100D02*
D03*
X396041Y262441D02*
D03*
X485900Y278255D02*
D03*
X392200Y270200D02*
D03*
X409100Y287100D02*
D03*
X431500Y168400D02*
D03*
X384900Y215000D02*
D03*
X400600Y131500D02*
D03*
X1056401Y445999D02*
D03*
X952600Y446700D02*
D03*
X1040000Y455900D02*
D03*
X920000Y443000D02*
D03*
X786996Y443600D02*
D03*
X745700D02*
D03*
X752700Y378000D02*
D03*
X786900Y343800D02*
D03*
X681000Y451700D02*
D03*
X802200Y443700D02*
D03*
X810000Y440800D02*
D03*
X661800Y450000D02*
D03*
X843000Y412900D02*
D03*
X689800Y457500D02*
D03*
X736000Y484100D02*
D03*
X854500Y480500D02*
D03*
X800500Y62400D02*
D03*
X737100Y69800D02*
D03*
X808400Y129400D02*
D03*
X888000Y105300D02*
D03*
X871400Y56200D02*
D03*
X931700Y59865D02*
D03*
X929700Y132100D02*
D03*
X914300Y201900D02*
D03*
X950997Y139459D02*
D03*
X856600Y87100D02*
D03*
X888500Y61600D02*
D03*
X793000Y56400D02*
D03*
X845800Y102000D02*
D03*
X784800Y111100D02*
D03*
X846000Y87100D02*
D03*
X755000Y93500D02*
D03*
X661500Y353000D02*
D03*
X708300Y373600D02*
D03*
X654100Y373000D02*
D03*
X715780Y375900D02*
D03*
X724200Y210000D02*
D03*
X767700Y200900D02*
D03*
X720000Y233400D02*
D03*
X787320Y203404D02*
D03*
X782280Y226000D02*
D03*
X720300Y218300D02*
D03*
X694800Y299900D02*
D03*
X794100Y280757D02*
D03*
X796300Y259100D02*
D03*
X699600Y282400D02*
D03*
X797400Y204000D02*
D03*
X726000Y228849D02*
D03*
X1047900Y115900D02*
D03*
X1006000Y106700D02*
D03*
X990600Y120800D02*
D03*
X1010200Y127000D02*
D03*
X1011500Y136800D02*
D03*
X980800Y149300D02*
D03*
X971200Y184600D02*
D03*
X1043700Y181200D02*
D03*
X1061600Y149000D02*
D03*
X993000Y103800D02*
D03*
X1005700Y168500D02*
D03*
X1037500Y171500D02*
D03*
X981300Y106500D02*
D03*
X1043650Y204750D02*
D03*
X1042900Y96300D02*
D03*
X1001300Y93400D02*
D03*
X1068522Y285378D02*
D03*
X919100Y281500D02*
D03*
X916300Y275400D02*
D03*
X1043700Y259000D02*
D03*
X965031Y278269D02*
D03*
X1042900Y274200D02*
D03*
X1041569Y280069D02*
D03*
X912100Y295800D02*
D03*
X1038000Y295000D02*
D03*
X913500Y281500D02*
D03*
X346300Y245100D02*
D03*
X373300Y250800D02*
D03*
X368800Y401100D02*
D03*
X342700Y405400D02*
D03*
X420000Y48800D02*
D03*
X442700Y55500D02*
D03*
X452500Y58500D02*
D03*
X406600Y446100D02*
D03*
X374000Y413500D02*
D03*
X428100Y402000D02*
D03*
X431100Y426600D02*
D03*
X336276Y282297D02*
D03*
X331100Y256500D02*
D03*
X341500Y257323D02*
D03*
X338900Y265700D02*
D03*
X341700Y271200D02*
D03*
X329000Y278200D02*
D03*
M02*
