M48
;Layer_Color=9474304
;FILE_FORMAT=2:5
INCH,LZ
;TYPE=PLATED
T1F00S00C0.01500
T2F00S00C0.03543
T3F00S00C0.04331
T4F00S00C0.04724
;TYPE=NON_PLATED
T5F00S00C0.07087
T6F00S00C0.14000
%
T01
X00603Y00837
X00591Y01049
X0071927Y00961
X00815Y00765
X01101Y015
X02112Y01089
X02417Y01203
X0222Y0045
X01863Y0065
X0189128Y0075
X042Y00488
X04006Y01315
X04315Y01684
X04427Y00555
X04525Y00585
X05904Y00464
X06097Y00485
X06269Y006
X0644Y00533
X0642Y00437
X06586Y00415
X06667Y00505
X06998Y00518
X0701499Y00716
X06918Y00685
X0714Y00652
X07195Y00645
X07241Y007
X07261Y0078
X0720708Y0080992
X07242Y00871
X07159Y00746
X07371Y00698
X07295Y01077
X07235Y01291
X07097Y01288
X07017Y01284
X06898Y01288
X06918Y0121
X06872Y0149
X06607Y0165
X06639Y00996
X067Y01039
X06783Y00827
X06527Y00759
X0703543Y00977
X0755Y00935
X07578Y0087
X07764Y00871
X07786Y00926
X07932Y00972
X07906Y01054
X07998Y01066
X08095Y01057
X08137Y01121
X08166Y01183
X08085Y0118043
X08084Y01237
Y01294
X08142Y01277
X08103Y01381
X08132Y01446
X08176Y01489
X08098Y01523
X08114Y01578
X08368Y01612
X08742Y0145
X08825Y01415
X08916Y01183
X0888Y01053
X08819Y01057
X08762Y01024
X08783Y00911
X08734Y00886
X08566Y00871
X08574Y00952
X08458Y0102
X0846Y00871
X08374Y00624
X08005
X0793Y00564
X07792Y0056
X0776Y00626
X074415Y005815
X0740143Y00511
X07387Y0045
X078Y00263
X08548Y00242
X087Y00317
X08714Y00562
X08885Y00616
X08897Y0096
X0866948Y0119652
X08238Y01085
X08107Y00899
X07848Y01111
X07578Y01176
X07549Y01348
X0779Y01467
X07752Y01638
X0793Y01393
X07985Y01414
X08971Y01415
X09116Y01442
X09171Y01389
X09081Y0132
X09297Y01321
X0926Y01277
X09289Y0119
X09209Y01116
X09448Y01122
X09391Y01256
X09514Y01326
X0950997Y0139459
X09591Y01405
X09573Y014615
X0954288Y0151505
X09487Y01484
X09652Y01448
X09711Y01412
Y0132562
X09649Y01329
X09594Y01328
X09808Y01493
X10041Y0139
X10115Y01368
X10102Y0127
X0996457Y01236
X09906Y01208
X0993Y01038
X10026Y01023
X1006Y01067
Y01126
X10013Y00934
X10107Y00926
X09858Y00869
X09788Y00906
X09755Y00964
X09813Y01065
X0951Y00937
X09412Y00931
X0925Y00871
X09317Y0059865
X0945Y00632
X09649Y00533
X09609Y0037
X0958708Y0029008
X0952608Y00324
X09677Y00332
X09469Y00189
X09441Y00134
X09403Y00206
X09342Y00236
X1009Y00515
X10146Y0055161
X10262Y00755
X10353
X10486Y00838
X10429Y00963
X10448Y01023
X10479Y01159
X1049Y01234
X10375Y01594
X10388Y0166
X10057Y01685
X10616Y0149
X1056842Y0124442
X10561Y00629
Y00557
X10822Y00631
X10758Y0205
X10718Y0231
X1071Y0245
X1074Y0255
X1083482Y02616
X10904Y02635
X10833Y02723
X10683Y02756
X1068522Y0285378
X10683Y03149
X10383Y03206
X10403Y03016
X1038Y0295
X1041569Y0280069
X10429Y02742
X10425Y0265
X10437Y0259
X10375Y0231
X10395Y02204
X10429Y0216
X104365Y020475
X10375Y0191
X10437Y01812
X10423Y01749
X10375Y01715
X10059Y0175
X09933Y01733
X09782Y01804
X09742Y01764
X09712Y01846
X09345Y01929
X09295Y01979
X09252Y0204
X09143Y02019
X09078Y02041
X09095Y01959
X09171
X09119Y01729
X09053Y01693
X0909058Y02204
X0919219Y02428
X0926516Y02394
X0930457Y02508
X09314Y02828
X09191Y02815
X09135
X09163Y02754
X09121Y02958
X09139Y03016
X09012Y03013
X09113Y03197
X09736Y0319
X0965031Y0278269
X1008439Y02318
X08978Y0243394
X08948Y02485
X08917Y02536
X08889Y02744
X08611Y02681
X08607Y02459
X08546Y02488
X08861Y0225
X08664Y02047
X08628Y0194
X08412Y01781
X08456Y01729
X0837Y01693
X08124Y01858
X07974Y0204
X078732Y0203404
X07815Y0204
X07818Y01984
X07751Y01979
X07732Y02041
X07677Y02009
X07687Y0193
X07578Y0196
Y01806
X0765Y017144
X07766Y01811
X07748Y02205
X07831Y02191
X078228Y0226
X07912Y02488
X07913Y0262
X07963Y02591
X0804515Y0274185
X08052Y02844
X07941Y0280757
X0788Y02796
X0781161Y0272439
X0766293Y02816
X07386Y0282
X07438Y02933
X07807Y02978
X0785239Y03013
X0787Y02958
X08174Y03099
X08125Y03196
X08489Y03215
X08665Y03245
X08711Y03204
X088Y0315
X08925Y0305
X08259Y02815
X07434Y02154
X07443Y0193
X07351Y02044
X07242Y021
X07203Y02183
X07136Y02169
X07107Y02254
X072Y02334
X0726Y0228849
X07374Y02225
X07343Y0245
X0731498Y0271602
X0724Y02792
X07152Y02775
X07068Y02885
X06996Y02824
X06948Y02999
X07057Y0301
X07124Y03023
X0687Y03109
X07372Y03128
X06574Y02399
X06565Y02283
X0687Y01777
X06946Y01828
X04859Y0278255
X04763Y02941
X04091Y02871
X03922Y02702
X0396041Y0262441
X03733Y02508
X03463Y02451
X03426Y02319
X0331
X03311Y02565
X03415Y0257323
X03389Y02657
X03417Y02712
X0336276Y0282297
X0332238Y0287162
X0329Y02782
X03107Y02649
X03112Y02594
X03047Y029
X03091Y02972
X02797Y022
X03849Y0215
X03953Y02097
X02583Y02697
X02386Y02879
X02262Y0288
X02161Y02879
X02197Y02921
X0218Y02992
X02096Y02963
X0204Y0298
X01979Y02976
X019Y0298
X01797Y02746
X01697Y02777
X01567Y026
X01838Y025
X01644Y023
X01912Y021
X01189Y02901
X01119Y02621
X00917Y0236
X00861Y02
X00792Y01858
X0075889Y018
X00689Y0178
X01076Y01709
X01107Y02
X01083Y021
X00406Y02006
X00888Y032
X0086Y03481
X0084Y03556
X00812Y03663
X0141Y03363
X0236Y036
X02303Y04132
X03254Y04112
X03427Y04054
X03688Y04011
X0374Y04135
X04066Y04461
X03018Y0467
X03332Y03809
X03782Y03274
X04281Y0402
X04311Y04266
X06044Y0463
X06383Y0453957
X06618Y045
X06667Y04472
X06637Y04403
X06583Y04426
X06594Y04325
X06799Y04299
X06828Y04242
X06837Y04178
X069545Y042005
X0691Y0432
X06885Y04381
X06945Y04483
X06898Y04575
X0681Y04517
X06648Y04559
X0659695Y04606
X06554Y03796
X06541Y0373
X06615Y0353
X06693Y03606
X0675Y03796
X0684Y0374
X06937Y03655
X06976Y03565
X07083Y03502
Y03736
X07024Y03713
X071578Y03759
X0733Y04004
X07212Y0338
X06442Y03536
X07532
Y03715
X07527Y0378
X07452Y0372
X07594Y03657
X07901Y0373053
X0793931Y039
X07941Y03963
X07908Y0402231
X07817Y03991
X07783Y04094
X07718Y04121
X0763Y04088
X075Y03976
X074Y04191
X07428Y04329
X07457Y04436
X075455Y046775
X07623Y04683
X07721Y04753
X07783Y04748
X0784Y04803
X07996Y0473
X08088Y04745
X081Y04408
X08022Y04437
X0786996Y04436
X07854Y04129
X0843
X08529Y0407969
X08501Y0403
X08606Y0407831
X08783Y04081
X08683Y03868
X08674Y03792
X0868Y03726
X0869Y03611
X08669Y03532
X08683Y03397
X08706Y03319
X08861Y03337
X0888077Y03487
X08815Y03501
X08835Y03687
Y03758
X08904Y0378839
X08611Y03847
X08364Y03723
X08264Y03952
X0825Y04362
X08317Y04376
X082Y04446
X08506Y04379
X08583Y04392
X08717Y04381
X0876Y04417
X089Y04413
X0876587Y04711
X08657Y04685
X08444Y04682
X08545Y04805
X07398Y0471892
X07466Y03284
X07869Y03438
X0796516Y03386
X07989Y03481
X08082Y03648
X09074Y03581
X09116Y03396
X0923957Y0329443
X092Y0325
X09516Y03487
X09706Y03841
Y04095
X09756Y04277
X09513Y04306
X09526Y04467
X09589Y04487
X0926Y04436
X092Y0443
X09059Y04428
X09Y044
X0898Y0396
X092Y03881
X0988286Y03955
X10064Y03813
X10042Y03529
X10242Y0354
X10489Y03764
X10389Y04184
X10435Y04286
X1034443Y04329
X10192Y04314
X10181Y04248
X10121Y04386
X10149Y04512
X10091Y0457
X10325Y04594
X104Y04559
X10417Y045
X10474Y04615
X10441Y04659
X10567Y04515
X1056401Y0445999
X10527Y04276
X10737Y04226
X10724Y04129
X10734Y03962
X1072Y03821
X10763Y03737
X10593Y0378
X1054Y03525
X10709Y03558
X0736Y04841
T02
X002Y0025
Y0035
Y0045
Y0055
Y0065
Y0075
Y0085
Y0095
Y0105
Y0115
Y0125
Y0135
Y0145
Y0155
Y0165
X005
Y0155
Y0145
Y0135
Y0125
Y0115
Y0105
Y0095
Y0085
Y0075
Y0065
Y0055
Y0045
Y0035
Y0025
X035Y007
X036
X037
X038
X039
X04
X041
X042
X043
X044
X046
X047
X048
X049
X05
X051
X052
X053
X054
X055
X045Y004
X044
X043
X005Y0175
Y0185
Y0195
Y0205
Y0215
X002
Y0205
Y0195
Y0185
Y0175
Y0285
Y0295
Y0305
Y0315
X005
Y0305
Y0295
Y0285
Y0325
Y0335
Y0345
Y0355
Y0365
Y0375
Y0385
Y0395
Y0405
Y0415
Y0425
Y0435
Y0445
Y0455
Y0465
Y0475
X002
Y0465
Y0455
Y0445
Y0435
Y0425
Y0415
Y0405
Y0395
Y0385
Y0375
Y0365
Y0355
Y0345
Y0335
Y0325
X035Y037
X036
X037
X038
X039
X04
X041
X042
Y0383
X041
X04
X039
X038
X037
X036
X035
X0401Y042
X0411
X0421
X043Y0383
X044
Y037
X043
X046
X047
X048
X049
X05
X051
X052
X053
X054
X055
Y0383
X054
X053
X052
X051
X05
X049
X048
X047
X046
T03
X019Y0025
X021
T04
X0535Y0094409
Y0135591
Y0164409
Y0205591
Y0234409
Y0275591
Y0304409
Y0345591
T05
X0456783Y0458098
Y0475815
T06
X0075Y0025
Y0475
M30
