G04 Layer_Physical_Order=2*
G04 Layer_Color=16711680*
%FSLAX25Y25*%
%MOIN*%
G70*
G01*
G75*
%ADD13R,0.03937X0.07874*%
%ADD14R,0.07874X0.03937*%
%ADD22C,0.01000*%
%ADD23C,0.16000*%
%ADD24C,0.07284*%
%ADD25R,0.07284X0.07284*%
%ADD26R,0.05906X0.05906*%
%ADD27C,0.05906*%
%ADD28R,0.07874X0.07874*%
%ADD29C,0.07874*%
%ADD30R,0.05906X0.05906*%
%ADD31C,0.09100*%
%ADD32C,0.03000*%
G36*
X1097961Y2039D02*
X2039D01*
Y497961D01*
X1097961D01*
Y2039D01*
D02*
G37*
%LPC*%
G36*
X736000Y486445D02*
X735103Y486267D01*
X734342Y485758D01*
X733833Y484997D01*
X733655Y484100D01*
X733833Y483203D01*
X734342Y482442D01*
X735103Y481933D01*
X736000Y481755D01*
X736897Y481933D01*
X737658Y482442D01*
X737881Y482774D01*
X772651D01*
X773875Y481551D01*
Y477482D01*
X773375Y477215D01*
X772997Y477467D01*
X772100Y477645D01*
X771203Y477467D01*
X770442Y476958D01*
X770220Y476625D01*
X760899D01*
X757387Y480137D01*
X756957Y480425D01*
X756450Y480525D01*
X663900D01*
X663393Y480425D01*
X662963Y480137D01*
X652363Y469537D01*
X652075Y469107D01*
X651974Y468600D01*
Y438600D01*
X652075Y438093D01*
X652363Y437663D01*
X657133Y432893D01*
X657055Y432500D01*
X657233Y431603D01*
X657742Y430842D01*
X658503Y430333D01*
X659400Y430155D01*
X660297Y430333D01*
X661058Y430842D01*
X661567Y431603D01*
X661745Y432500D01*
X661567Y433397D01*
X661248Y433875D01*
X661515Y434375D01*
X662134D01*
X676775Y419734D01*
Y381782D01*
X676274Y381515D01*
X675897Y381767D01*
X675000Y381945D01*
X674103Y381767D01*
X673342Y381258D01*
X673119Y380925D01*
X657280D01*
X657058Y381258D01*
X656297Y381767D01*
X655400Y381945D01*
X654503Y381767D01*
X653742Y381258D01*
X653233Y380497D01*
X653055Y379600D01*
X653233Y378703D01*
X653742Y377942D01*
X654503Y377433D01*
X655400Y377255D01*
X656297Y377433D01*
X657058Y377942D01*
X657280Y378274D01*
X673119D01*
X673342Y377942D01*
X674103Y377433D01*
X675000Y377255D01*
X675897Y377433D01*
X676658Y377942D01*
X676986Y378432D01*
X677602Y378524D01*
X681733Y374393D01*
X681655Y374000D01*
X681729Y373626D01*
X681332Y373062D01*
X681228Y373046D01*
X680337Y373937D01*
X679907Y374225D01*
X679400Y374325D01*
X655980D01*
X655758Y374658D01*
X654997Y375167D01*
X654100Y375345D01*
X653203Y375167D01*
X652442Y374658D01*
X651933Y373897D01*
X651755Y373000D01*
X651933Y372103D01*
X652442Y371342D01*
X653203Y370833D01*
X654100Y370655D01*
X654997Y370833D01*
X655758Y371342D01*
X655980Y371674D01*
X678851D01*
X680363Y370163D01*
X680793Y369875D01*
X681300Y369775D01*
X686700D01*
X687207Y369875D01*
X687637Y370163D01*
X694449Y376975D01*
X712831D01*
X713513Y376292D01*
X713435Y375900D01*
X713613Y375003D01*
X714121Y374242D01*
X714882Y373733D01*
X715780Y373555D01*
X716677Y373733D01*
X717438Y374242D01*
X717946Y375003D01*
X718125Y375900D01*
X717946Y376797D01*
X717438Y377558D01*
X716677Y378067D01*
X715780Y378245D01*
X715387Y378167D01*
X714317Y379237D01*
X713887Y379525D01*
X713380Y379626D01*
X693900D01*
X693393Y379525D01*
X692963Y379237D01*
X686772Y373046D01*
X686668Y373062D01*
X686271Y373626D01*
X686345Y374000D01*
X686167Y374897D01*
X685658Y375658D01*
X684897Y376167D01*
X684000Y376345D01*
X683607Y376267D01*
X679425Y380449D01*
Y412847D01*
X679887Y413038D01*
X685063Y407863D01*
X685493Y407575D01*
X686000Y407475D01*
X761120D01*
X761342Y407142D01*
X762103Y406633D01*
X763000Y406455D01*
X763897Y406633D01*
X764658Y407142D01*
X765167Y407903D01*
X765345Y408800D01*
X765167Y409697D01*
X764658Y410458D01*
X764334Y410674D01*
X764486Y411174D01*
X765351D01*
X775463Y401063D01*
X775893Y400775D01*
X776400Y400674D01*
X779456D01*
X779691Y400234D01*
X779533Y399997D01*
X779355Y399100D01*
X779533Y398203D01*
X780042Y397442D01*
X780374Y397219D01*
Y360194D01*
X780475Y359687D01*
X780763Y359257D01*
X786828Y353192D01*
X786663Y352649D01*
X786631Y352643D01*
X755126Y384149D01*
Y398000D01*
X755025Y398507D01*
X754737Y398937D01*
X752337Y401337D01*
X751907Y401625D01*
X751400Y401725D01*
X734880D01*
X734658Y402058D01*
X733897Y402567D01*
X733000Y402745D01*
X732103Y402567D01*
X731342Y402058D01*
X730833Y401297D01*
X730655Y400400D01*
X730833Y399503D01*
X731342Y398742D01*
X732103Y398233D01*
X733000Y398055D01*
X733897Y398233D01*
X734658Y398742D01*
X734880Y399075D01*
X747689D01*
X747924Y398634D01*
X747833Y398497D01*
X747655Y397600D01*
X747733Y397207D01*
X747063Y396537D01*
X746775Y396107D01*
X746674Y395600D01*
Y374552D01*
X746234Y374316D01*
X746175Y374355D01*
X745700Y374449D01*
Y372000D01*
X745200D01*
Y371500D01*
X742751D01*
X742845Y371024D01*
X743398Y370198D01*
X744225Y369645D01*
X744327Y369625D01*
X744472Y369146D01*
X726851Y351525D01*
X710181D01*
X709958Y351858D01*
X709197Y352367D01*
X708300Y352545D01*
X707584Y352403D01*
X707425Y352568D01*
X707296Y352851D01*
X707525Y353193D01*
X707625Y353700D01*
Y370995D01*
X708012Y371312D01*
X708300Y371255D01*
X709197Y371433D01*
X709958Y371942D01*
X710467Y372703D01*
X710645Y373600D01*
X710467Y374497D01*
X709958Y375258D01*
X709197Y375767D01*
X708300Y375945D01*
X707403Y375767D01*
X706642Y375258D01*
X706133Y374497D01*
X705955Y373600D01*
X705967Y373541D01*
X705363Y372937D01*
X705075Y372507D01*
X705039Y372322D01*
X704812Y372262D01*
X704518Y372270D01*
X704058Y372958D01*
X703297Y373467D01*
X702400Y373645D01*
X701503Y373467D01*
X700742Y372958D01*
X700233Y372197D01*
X700055Y371300D01*
X700233Y370403D01*
X700742Y369642D01*
X701075Y369420D01*
Y356549D01*
X700313Y355788D01*
X699852Y356034D01*
X699945Y356500D01*
X699767Y357397D01*
X699258Y358158D01*
X698497Y358667D01*
X697600Y358845D01*
X697120Y358750D01*
X697007Y358825D01*
X696500Y358926D01*
X671549D01*
X671281Y359425D01*
X671467Y359703D01*
X671645Y360600D01*
X671467Y361497D01*
X670958Y362258D01*
X670197Y362767D01*
X669300Y362945D01*
X668403Y362767D01*
X667642Y362258D01*
X667419Y361926D01*
X449949D01*
X443421Y368453D01*
X443656Y369020D01*
X443785Y370000D01*
X443656Y370980D01*
X443278Y371893D01*
X442676Y372676D01*
X441893Y373278D01*
X440980Y373656D01*
X440000Y373785D01*
X439020Y373656D01*
X438107Y373278D01*
X437324Y372676D01*
X436722Y371893D01*
X436487Y371325D01*
X433513D01*
X433278Y371893D01*
X432677Y372676D01*
X431893Y373278D01*
X430980Y373656D01*
X430000Y373785D01*
X429020Y373656D01*
X428107Y373278D01*
X427323Y372676D01*
X426722Y371893D01*
X426487Y371325D01*
X423513D01*
X423278Y371893D01*
X422677Y372676D01*
X421893Y373278D01*
X420980Y373656D01*
X420000Y373785D01*
X419020Y373656D01*
X418107Y373278D01*
X417323Y372676D01*
X416722Y371893D01*
X416487Y371325D01*
X413513D01*
X413278Y371893D01*
X412676Y372676D01*
X411893Y373278D01*
X410980Y373656D01*
X410000Y373785D01*
X409020Y373656D01*
X408107Y373278D01*
X407324Y372676D01*
X406722Y371893D01*
X406487Y371325D01*
X403513D01*
X403278Y371893D01*
X402676Y372676D01*
X401893Y373278D01*
X400980Y373656D01*
X400000Y373785D01*
X399020Y373656D01*
X398107Y373278D01*
X397323Y372676D01*
X396722Y371893D01*
X396487Y371325D01*
X393513D01*
X393278Y371893D01*
X392676Y372676D01*
X391893Y373278D01*
X390980Y373656D01*
X390000Y373785D01*
X389020Y373656D01*
X388107Y373278D01*
X387323Y372676D01*
X386722Y371893D01*
X386487Y371325D01*
X383513D01*
X383278Y371893D01*
X382677Y372676D01*
X381893Y373278D01*
X380980Y373656D01*
X380000Y373785D01*
X379020Y373656D01*
X378107Y373278D01*
X377324Y372676D01*
X376722Y371893D01*
X376487Y371325D01*
X373513D01*
X373278Y371893D01*
X372676Y372676D01*
X371893Y373278D01*
X370980Y373656D01*
X370000Y373785D01*
X369020Y373656D01*
X368107Y373278D01*
X367323Y372676D01*
X366722Y371893D01*
X366487Y371325D01*
X363513D01*
X363278Y371893D01*
X362677Y372676D01*
X361893Y373278D01*
X360980Y373656D01*
X360000Y373785D01*
X359020Y373656D01*
X358107Y373278D01*
X357324Y372676D01*
X356722Y371893D01*
X356487Y371325D01*
X353753D01*
Y373753D01*
X348122D01*
X341625Y380249D01*
Y385751D01*
X355649Y399775D01*
X366919D01*
X367142Y399442D01*
X367903Y398933D01*
X368800Y398755D01*
X369697Y398933D01*
X370458Y399442D01*
X370967Y400203D01*
X371145Y401100D01*
X370967Y401997D01*
X370458Y402758D01*
X369697Y403267D01*
X368800Y403445D01*
X367903Y403267D01*
X367142Y402758D01*
X366919Y402425D01*
X355100D01*
X354593Y402325D01*
X354163Y402037D01*
X340689Y388563D01*
X340146Y388728D01*
X340139Y388765D01*
X352137Y400763D01*
X352425Y401193D01*
X352525Y401700D01*
Y417600D01*
X352425Y418107D01*
X352137Y418537D01*
X304067Y466608D01*
X304145Y467000D01*
X303967Y467897D01*
X303458Y468658D01*
X302697Y469167D01*
X301800Y469345D01*
X300903Y469167D01*
X300142Y468658D01*
X299633Y467897D01*
X299455Y467000D01*
X299633Y466103D01*
X300142Y465342D01*
X300903Y464833D01*
X301800Y464655D01*
X302192Y464733D01*
X349874Y417051D01*
Y402249D01*
X337563Y389937D01*
X337275Y389507D01*
X337175Y389000D01*
Y367100D01*
X337275Y366593D01*
X337563Y366163D01*
X375837Y327889D01*
X375783Y327478D01*
X375317Y327257D01*
X294537Y408037D01*
X294107Y408325D01*
X293600Y408426D01*
X59749D01*
X57237Y410937D01*
X56807Y411225D01*
X56300Y411326D01*
X52197D01*
X52027Y411826D01*
X52676Y412324D01*
X53278Y413107D01*
X53656Y414020D01*
X53785Y415000D01*
X53656Y415980D01*
X53278Y416893D01*
X52676Y417676D01*
X51893Y418278D01*
X50980Y418656D01*
X50000Y418785D01*
X49020Y418656D01*
X48107Y418278D01*
X47324Y417676D01*
X46722Y416893D01*
X46344Y415980D01*
X46215Y415000D01*
X46344Y414020D01*
X46722Y413107D01*
X47324Y412324D01*
X47982Y411818D01*
X47987Y411689D01*
X47896Y411337D01*
X47875Y411301D01*
X47493Y411225D01*
X47063Y410937D01*
X42863Y406737D01*
X42575Y406307D01*
X42474Y405800D01*
Y391200D01*
X42575Y390693D01*
X42863Y390263D01*
X46260Y386865D01*
X46214Y386715D01*
X45649Y386573D01*
X34126Y398096D01*
Y452200D01*
X34025Y452707D01*
X33737Y453137D01*
X23421Y463453D01*
X23656Y464020D01*
X23785Y465000D01*
X23656Y465980D01*
X23278Y466893D01*
X22677Y467676D01*
X21893Y468278D01*
X20980Y468656D01*
X20000Y468785D01*
X19020Y468656D01*
X18107Y468278D01*
X17323Y467676D01*
X16722Y466893D01*
X16344Y465980D01*
X16215Y465000D01*
X16344Y464020D01*
X16722Y463107D01*
X17323Y462324D01*
X18107Y461722D01*
X19020Y461344D01*
X20000Y461215D01*
X20980Y461344D01*
X21547Y461579D01*
X31475Y451651D01*
Y397547D01*
X31575Y397040D01*
X31863Y396610D01*
X44422Y384051D01*
Y383106D01*
X43960Y382915D01*
X23421Y403453D01*
X23656Y404020D01*
X23785Y405000D01*
X23656Y405980D01*
X23278Y406893D01*
X22677Y407677D01*
X21893Y408278D01*
X20980Y408656D01*
X20000Y408785D01*
X19020Y408656D01*
X18107Y408278D01*
X17323Y407677D01*
X16722Y406893D01*
X16344Y405980D01*
X16215Y405000D01*
X16344Y404020D01*
X16722Y403107D01*
X17323Y402323D01*
X18107Y401722D01*
X19020Y401344D01*
X20000Y401215D01*
X20980Y401344D01*
X21547Y401579D01*
X42575Y380551D01*
Y363800D01*
X42675Y363293D01*
X42963Y362863D01*
X47291Y358534D01*
X47374Y357967D01*
X47181Y357819D01*
X46547Y356993D01*
X46149Y356032D01*
X46079Y355500D01*
X50000D01*
X53921D01*
X53851Y356032D01*
X53453Y356993D01*
X53007Y357575D01*
X53253Y358074D01*
X58751D01*
X94363Y322463D01*
X94793Y322175D01*
X94846Y322165D01*
Y321325D01*
X90680D01*
X90458Y321658D01*
X89697Y322167D01*
X88800Y322345D01*
X87903Y322167D01*
X87142Y321658D01*
X86633Y320897D01*
X86455Y320000D01*
X86633Y319103D01*
X87142Y318342D01*
X87903Y317833D01*
X88800Y317655D01*
X89697Y317833D01*
X90458Y318342D01*
X90680Y318674D01*
X94846D01*
Y317231D01*
X104320D01*
Y321253D01*
X104781Y321444D01*
X107163Y319063D01*
X107593Y318775D01*
X108100Y318674D01*
X125554D01*
Y317231D01*
X135028D01*
Y322768D01*
X125554D01*
Y321325D01*
X108649D01*
X105637Y324337D01*
X105207Y324625D01*
X104700Y324726D01*
X95849D01*
X60237Y360337D01*
X59807Y360625D01*
X59300Y360725D01*
X51316D01*
X51217Y361226D01*
X51993Y361547D01*
X52819Y362181D01*
X53453Y363007D01*
X53851Y363968D01*
X53921Y364500D01*
X50000D01*
Y365500D01*
X53921D01*
X53851Y366032D01*
X53453Y366993D01*
X52819Y367819D01*
X52356Y368175D01*
X52526Y368674D01*
X53108D01*
X70820Y350963D01*
X71250Y350675D01*
X71757Y350574D01*
X84663D01*
X84815Y350075D01*
X84342Y349758D01*
X83833Y348997D01*
X83655Y348100D01*
X83833Y347203D01*
X84342Y346442D01*
X85103Y345933D01*
X86000Y345755D01*
X86392Y345833D01*
X93163Y339063D01*
X93593Y338775D01*
X94100Y338674D01*
X94846D01*
Y337231D01*
X104320D01*
Y338674D01*
X125554D01*
Y337231D01*
X135028D01*
Y342769D01*
X125554D01*
Y341325D01*
X104320D01*
Y342769D01*
X94846D01*
Y341836D01*
X94346Y341629D01*
X88267Y347708D01*
X88345Y348100D01*
X88308Y348288D01*
X88625Y348675D01*
X94846D01*
Y347232D01*
X104320D01*
Y348675D01*
X125554D01*
Y347232D01*
X135028D01*
Y352768D01*
X125554D01*
Y351325D01*
X104320D01*
Y352768D01*
X94846D01*
Y351325D01*
X88649D01*
X87137Y352837D01*
X86707Y353125D01*
X86593Y353147D01*
X86642Y353647D01*
X281778D01*
X284554Y350871D01*
Y347232D01*
X294028D01*
Y352768D01*
X286406D01*
X283264Y355910D01*
X282834Y356197D01*
X282327Y356298D01*
X86206D01*
X86167Y356497D01*
X85658Y357258D01*
X84897Y357767D01*
X84000Y357945D01*
X83103Y357767D01*
X82342Y357258D01*
X81833Y356497D01*
X81655Y355600D01*
X81833Y354703D01*
X82342Y353942D01*
X82665Y353726D01*
X82514Y353225D01*
X72306D01*
X54594Y370937D01*
X54164Y371225D01*
X53657Y371325D01*
X52526D01*
X52356Y371826D01*
X52819Y372181D01*
X53453Y373007D01*
X53851Y373968D01*
X53921Y374500D01*
X50000D01*
Y375000D01*
X49500D01*
Y378921D01*
X48968Y378851D01*
X48007Y378453D01*
X47573Y378120D01*
X47073Y378366D01*
Y381886D01*
X47573Y382132D01*
X48107Y381722D01*
X49020Y381344D01*
X50000Y381215D01*
X50980Y381344D01*
X51893Y381722D01*
X52676Y382324D01*
X53278Y383107D01*
X53656Y384020D01*
X53785Y385000D01*
X53656Y385980D01*
X53278Y386893D01*
X52676Y387677D01*
X51893Y388278D01*
X50980Y388656D01*
X50081Y388774D01*
X50113Y389275D01*
X65851D01*
X87038Y368087D01*
X86847Y367625D01*
X83081D01*
X82858Y367958D01*
X82097Y368467D01*
X81200Y368645D01*
X80303Y368467D01*
X79542Y367958D01*
X79033Y367197D01*
X78855Y366300D01*
X79033Y365403D01*
X79542Y364642D01*
X80303Y364133D01*
X81200Y363955D01*
X82097Y364133D01*
X82858Y364642D01*
X83081Y364974D01*
X322851D01*
X324335Y363491D01*
X324297Y362968D01*
X320500D01*
Y360000D01*
Y357031D01*
X323506D01*
X323847Y356666D01*
X323569Y352768D01*
X315263D01*
Y347232D01*
X324737D01*
Y348682D01*
X324908Y348716D01*
X325119Y348742D01*
X325160Y348766D01*
X325207Y348775D01*
X325384Y348893D01*
X325568Y348998D01*
X325597Y349036D01*
X325637Y349063D01*
X325755Y349239D01*
X325885Y349407D01*
X325898Y349453D01*
X325925Y349493D01*
X325966Y349701D01*
X326022Y349906D01*
X327022Y363906D01*
X327016Y363953D01*
X327026Y364000D01*
X326984Y364208D01*
X326958Y364419D01*
X326934Y364460D01*
X326925Y364507D01*
X326807Y364684D01*
X326702Y364868D01*
X326664Y364897D01*
X326637Y364937D01*
X324962Y366613D01*
X325153Y367074D01*
X326505D01*
X377375Y316205D01*
Y252549D01*
X376017Y251191D01*
X375538Y251337D01*
X375467Y251697D01*
X374958Y252458D01*
X374197Y252967D01*
X373300Y253145D01*
X372907Y253067D01*
X334037Y291937D01*
X333607Y292225D01*
X333100Y292325D01*
X329900D01*
X329393Y292225D01*
X328963Y291937D01*
X325237Y288211D01*
X324737Y288419D01*
Y292769D01*
X315263D01*
Y291325D01*
X306580D01*
X306358Y291658D01*
X305597Y292167D01*
X304700Y292345D01*
X303803Y292167D01*
X303042Y291658D01*
X302533Y290897D01*
X302355Y290000D01*
X302533Y289103D01*
X303042Y288342D01*
X303216Y288226D01*
X303064Y287725D01*
X294028D01*
Y292769D01*
X284554D01*
Y291325D01*
X240700D01*
X240193Y291225D01*
X239763Y290937D01*
X238993Y290167D01*
X238600Y290245D01*
X237703Y290067D01*
X236942Y289558D01*
X236433Y288797D01*
X236255Y287900D01*
X236433Y287003D01*
X236524Y286866D01*
X236289Y286425D01*
X228445D01*
X228209Y286866D01*
X228367Y287103D01*
X228545Y288000D01*
X228467Y288392D01*
X235349Y295274D01*
X300000D01*
X300507Y295375D01*
X300937Y295663D01*
X305637Y300363D01*
X305925Y300793D01*
X306026Y301300D01*
Y303451D01*
X311249Y308675D01*
X315263D01*
Y307231D01*
X324737D01*
Y312769D01*
X315263D01*
Y311326D01*
X310700D01*
X310193Y311225D01*
X309763Y310937D01*
X303763Y304937D01*
X303475Y304507D01*
X303375Y304000D01*
Y301849D01*
X299451Y297925D01*
X294028D01*
Y302768D01*
X293996D01*
X293805Y303230D01*
X309249Y318674D01*
X315263D01*
Y317231D01*
X324737D01*
Y322768D01*
X315263D01*
Y321325D01*
X308700D01*
X308193Y321225D01*
X307763Y320937D01*
X294528Y307703D01*
X294028Y307910D01*
Y312769D01*
X284554D01*
Y311326D01*
X223053D01*
X222862Y311787D01*
X229749Y318674D01*
X284554D01*
Y317231D01*
X294028D01*
Y322768D01*
X284554D01*
Y321325D01*
X229907D01*
X229700Y321826D01*
X231549Y323675D01*
X300000D01*
X300507Y323775D01*
X300937Y324063D01*
X305637Y328763D01*
X305925Y329193D01*
X306026Y329700D01*
Y335451D01*
X309249Y338674D01*
X315263D01*
Y337231D01*
X324737D01*
Y342769D01*
X315263D01*
Y341325D01*
X308700D01*
X308193Y341225D01*
X307763Y340937D01*
X303763Y336937D01*
X303475Y336507D01*
X303375Y336000D01*
Y330249D01*
X299451Y326325D01*
X231000D01*
X230493Y326225D01*
X230063Y325937D01*
X204393Y300267D01*
X204000Y300345D01*
X203103Y300167D01*
X202939Y300057D01*
X202620Y300445D01*
X230849Y328675D01*
X284554D01*
Y327232D01*
X294028D01*
Y332769D01*
X284554D01*
Y331326D01*
X230300D01*
X229793Y331225D01*
X229363Y330937D01*
X198293Y299867D01*
X197900Y299945D01*
X197003Y299767D01*
X196242Y299258D01*
X195733Y298497D01*
X195555Y297600D01*
X195733Y296703D01*
X196242Y295942D01*
X197003Y295433D01*
X197900Y295255D01*
X198797Y295433D01*
X199558Y295942D01*
X200067Y296703D01*
X200245Y297600D01*
X200167Y297992D01*
X201555Y299380D01*
X201943Y299061D01*
X201833Y298897D01*
X201655Y298000D01*
X201833Y297103D01*
X202342Y296342D01*
X203103Y295833D01*
X204000Y295655D01*
X204897Y295833D01*
X205658Y296342D01*
X206167Y297103D01*
X206345Y298000D01*
X206267Y298393D01*
X207774Y299900D01*
X208275Y299693D01*
Y298181D01*
X207942Y297958D01*
X207433Y297197D01*
X207255Y296300D01*
X207433Y295403D01*
X207942Y294642D01*
X208703Y294133D01*
X209600Y293955D01*
X210497Y294133D01*
X211258Y294642D01*
X211374Y294816D01*
X211875Y294664D01*
Y290800D01*
X211975Y290293D01*
X212263Y289863D01*
X213788Y288337D01*
X213659Y287865D01*
X213280Y287725D01*
X178349D01*
X155137Y310937D01*
X154707Y311225D01*
X154200Y311326D01*
X135028D01*
Y312769D01*
X125554D01*
Y307231D01*
X135028D01*
Y308675D01*
X153651D01*
X176038Y286287D01*
X175847Y285825D01*
X171443D01*
X170936Y285725D01*
X170506Y285437D01*
X166394Y281326D01*
X135028D01*
Y282769D01*
X126326D01*
Y284000D01*
X126225Y284507D01*
X125937Y284937D01*
X121167Y289707D01*
X121245Y290100D01*
X121067Y290997D01*
X120558Y291758D01*
X119797Y292267D01*
X118900Y292445D01*
X118003Y292267D01*
X117242Y291758D01*
X116733Y290997D01*
X116555Y290100D01*
X116733Y289203D01*
X117242Y288442D01*
X118003Y287933D01*
X118900Y287755D01*
X119292Y287833D01*
X123674Y283451D01*
Y276830D01*
X123356Y276642D01*
X123186Y276611D01*
X105160Y294637D01*
X104954Y294775D01*
X105106Y295274D01*
X118540D01*
X124752Y289063D01*
X125182Y288775D01*
X125554Y288701D01*
Y287231D01*
X135028D01*
Y292769D01*
X125554D01*
Y292663D01*
X125092Y292472D01*
X120027Y297537D01*
X119597Y297825D01*
X119089Y297925D01*
X104320D01*
Y302768D01*
X94846D01*
Y301325D01*
X93449D01*
X63837Y330937D01*
X63407Y331225D01*
X62900Y331326D01*
X52526D01*
X52356Y331825D01*
X52819Y332181D01*
X53453Y333007D01*
X53851Y333968D01*
X53921Y334500D01*
X50000D01*
X46079D01*
X46149Y333968D01*
X46547Y333007D01*
X47181Y332181D01*
X47644Y331825D01*
X47474Y331326D01*
X45249D01*
X38355Y338219D01*
X38601Y338680D01*
X38629Y338674D01*
X47474D01*
X47644Y338175D01*
X47181Y337819D01*
X46547Y336993D01*
X46149Y336032D01*
X46079Y335500D01*
X50000D01*
X53921D01*
X53851Y336032D01*
X53453Y336993D01*
X52819Y337819D01*
X52356Y338175D01*
X52526Y338674D01*
X57051D01*
X91363Y304363D01*
X91793Y304075D01*
X92300Y303975D01*
X114551D01*
X119463Y299063D01*
X119893Y298775D01*
X120400Y298675D01*
X125554D01*
Y297232D01*
X135028D01*
Y302768D01*
X125554D01*
Y301325D01*
X120949D01*
X116037Y306237D01*
X115607Y306525D01*
X115100Y306626D01*
X92849D01*
X91178Y308297D01*
X91434Y308747D01*
X91800Y308675D01*
X94846D01*
Y307231D01*
X104320D01*
Y312769D01*
X94846D01*
Y311326D01*
X92349D01*
X52737Y350937D01*
X52354Y351193D01*
X52283Y351453D01*
X52252Y351745D01*
X52819Y352181D01*
X53453Y353007D01*
X53851Y353968D01*
X53921Y354500D01*
X50000D01*
X46079D01*
X46149Y353968D01*
X46547Y353007D01*
X47181Y352181D01*
X47644Y351825D01*
X47474Y351325D01*
X38649D01*
X33325Y356649D01*
Y383000D01*
X33225Y383507D01*
X32937Y383937D01*
X23421Y393453D01*
X23656Y394020D01*
X23785Y395000D01*
X23656Y395980D01*
X23278Y396893D01*
X22677Y397676D01*
X21893Y398278D01*
X20980Y398656D01*
X20000Y398785D01*
X19020Y398656D01*
X18107Y398278D01*
X17323Y397676D01*
X16722Y396893D01*
X16344Y395980D01*
X16215Y395000D01*
X16344Y394020D01*
X16722Y393107D01*
X17323Y392323D01*
X18107Y391722D01*
X19020Y391344D01*
X19488Y391282D01*
X19628Y390998D01*
X19648Y390757D01*
X19612Y390725D01*
X18100D01*
X17593Y390625D01*
X17163Y390337D01*
X14663Y387837D01*
X14375Y387407D01*
X14275Y386900D01*
Y379400D01*
X14375Y378893D01*
X14663Y378463D01*
X16579Y376547D01*
X16344Y375980D01*
X16215Y375000D01*
X16344Y374020D01*
X16722Y373107D01*
X17323Y372323D01*
X18107Y371722D01*
X19020Y371344D01*
X20000Y371215D01*
X20980Y371344D01*
X21893Y371722D01*
X22677Y372323D01*
X23278Y373107D01*
X23656Y374020D01*
X23785Y375000D01*
X23656Y375980D01*
X23278Y376893D01*
X22677Y377677D01*
X21893Y378278D01*
X20980Y378656D01*
X20000Y378785D01*
X19020Y378656D01*
X18453Y378421D01*
X16926Y379949D01*
Y382089D01*
X17425Y382245D01*
X18107Y381722D01*
X19020Y381344D01*
X20000Y381215D01*
X20980Y381344D01*
X21547Y381579D01*
X26575Y376551D01*
Y360505D01*
X26074Y360456D01*
X26025Y360707D01*
X25737Y361137D01*
X23421Y363453D01*
X23656Y364020D01*
X23785Y365000D01*
X23656Y365980D01*
X23278Y366893D01*
X22677Y367676D01*
X21893Y368278D01*
X20980Y368656D01*
X20000Y368785D01*
X19020Y368656D01*
X18107Y368278D01*
X17323Y367676D01*
X16722Y366893D01*
X16344Y365980D01*
X16215Y365000D01*
X16344Y364020D01*
X16722Y363107D01*
X17323Y362323D01*
X18107Y361722D01*
X19020Y361344D01*
X20000Y361215D01*
X20980Y361344D01*
X21547Y361579D01*
X23474Y359651D01*
Y357458D01*
X22975Y357288D01*
X22677Y357677D01*
X21893Y358278D01*
X20980Y358656D01*
X20000Y358785D01*
X19020Y358656D01*
X18107Y358278D01*
X17323Y357677D01*
X16722Y356893D01*
X16344Y355980D01*
X16215Y355000D01*
X16344Y354020D01*
X16579Y353453D01*
X14663Y351537D01*
X14375Y351107D01*
X14275Y350600D01*
Y343100D01*
X14375Y342593D01*
X14663Y342163D01*
X17163Y339663D01*
X17593Y339375D01*
X18100Y339275D01*
X19612D01*
X19648Y339243D01*
X19628Y339002D01*
X19488Y338718D01*
X19020Y338656D01*
X18107Y338278D01*
X17323Y337677D01*
X16722Y336893D01*
X16344Y335980D01*
X16215Y335000D01*
X16344Y334020D01*
X16722Y333107D01*
X17323Y332324D01*
X18107Y331722D01*
X19020Y331344D01*
X20000Y331215D01*
X20980Y331344D01*
X21893Y331722D01*
X22677Y332324D01*
X23075Y332842D01*
X23574Y332673D01*
Y327327D01*
X23075Y327158D01*
X22677Y327677D01*
X21893Y328278D01*
X20980Y328656D01*
X20000Y328785D01*
X19020Y328656D01*
X18107Y328278D01*
X17323Y327677D01*
X16722Y326893D01*
X16344Y325980D01*
X16215Y325000D01*
X16344Y324020D01*
X16722Y323107D01*
X17323Y322323D01*
X18107Y321722D01*
X18721Y321468D01*
X18775Y321193D01*
X19063Y320763D01*
X20617Y319208D01*
X20384Y318735D01*
X20000Y318785D01*
X19020Y318656D01*
X18107Y318278D01*
X17323Y317676D01*
X16722Y316893D01*
X16344Y315980D01*
X16215Y315000D01*
X16344Y314020D01*
X16722Y313107D01*
X17323Y312323D01*
X18107Y311722D01*
X19020Y311344D01*
X20000Y311215D01*
X20980Y311344D01*
X21893Y311722D01*
X22575Y312245D01*
X23075Y312089D01*
Y307911D01*
X22575Y307755D01*
X21893Y308278D01*
X20980Y308656D01*
X20000Y308785D01*
X19020Y308656D01*
X18107Y308278D01*
X17323Y307677D01*
X16722Y306893D01*
X16344Y305980D01*
X16215Y305000D01*
X16344Y304020D01*
X16722Y303107D01*
X17323Y302324D01*
X18107Y301722D01*
X19020Y301344D01*
X20000Y301215D01*
X20980Y301344D01*
X21893Y301722D01*
X22575Y302245D01*
X23075Y302089D01*
Y297911D01*
X22575Y297755D01*
X21893Y298278D01*
X20980Y298656D01*
X20000Y298785D01*
X19020Y298656D01*
X18107Y298278D01*
X17323Y297676D01*
X16722Y296893D01*
X16344Y295980D01*
X16215Y295000D01*
X16344Y294020D01*
X16722Y293107D01*
X17323Y292323D01*
X18107Y291722D01*
X19020Y291344D01*
X20000Y291215D01*
X20980Y291344D01*
X21893Y291722D01*
X22575Y292245D01*
X23075Y292089D01*
Y288753D01*
X16247D01*
Y281247D01*
X23753D01*
X23753Y281247D01*
Y281247D01*
X24136Y280989D01*
X76063Y229063D01*
X76493Y228775D01*
X77000Y228675D01*
X94846D01*
Y227232D01*
X103674D01*
Y222768D01*
X94846D01*
Y217231D01*
X94389Y217126D01*
X61947D01*
X50135Y228937D01*
X49705Y229225D01*
X49198Y229326D01*
X33000D01*
X32493Y229225D01*
X32063Y228937D01*
X21547Y218421D01*
X20980Y218656D01*
X20000Y218785D01*
X19020Y218656D01*
X18107Y218278D01*
X17323Y217676D01*
X16722Y216893D01*
X16344Y215980D01*
X16215Y215000D01*
X16344Y214020D01*
X16722Y213107D01*
X17323Y212323D01*
X18107Y211722D01*
X19020Y211344D01*
X20000Y211215D01*
X20980Y211344D01*
X21893Y211722D01*
X22677Y212323D01*
X23278Y213107D01*
X23656Y214020D01*
X23785Y215000D01*
X23656Y215980D01*
X23421Y216547D01*
X33549Y226675D01*
X48649D01*
X59936Y215387D01*
X59744Y214926D01*
X58202D01*
X52890Y220237D01*
X52460Y220525D01*
X51953Y220625D01*
X34300D01*
X33793Y220525D01*
X33363Y220237D01*
X21547Y208421D01*
X20980Y208656D01*
X20000Y208785D01*
X19020Y208656D01*
X18107Y208278D01*
X17323Y207677D01*
X16722Y206893D01*
X16344Y205980D01*
X16215Y205000D01*
X16344Y204020D01*
X16722Y203107D01*
X17323Y202324D01*
X18107Y201722D01*
X19020Y201344D01*
X20000Y201215D01*
X20980Y201344D01*
X21893Y201722D01*
X22677Y202324D01*
X23278Y203107D01*
X23656Y204020D01*
X23785Y205000D01*
X23656Y205980D01*
X23421Y206547D01*
X34849Y217974D01*
X46922D01*
X47168Y217475D01*
X46722Y216893D01*
X46344Y215980D01*
X46215Y215000D01*
X46344Y214020D01*
X46722Y213107D01*
X47324Y212323D01*
X47973Y211825D01*
X47803Y211326D01*
X37800D01*
X37293Y211225D01*
X36863Y210937D01*
X26212Y200286D01*
X25924Y199856D01*
X25824Y199349D01*
Y182698D01*
X21547Y178421D01*
X20980Y178656D01*
X20000Y178785D01*
X19020Y178656D01*
X18107Y178278D01*
X17323Y177676D01*
X16722Y176893D01*
X16344Y175980D01*
X16215Y175000D01*
X16344Y174020D01*
X16722Y173107D01*
X17323Y172324D01*
X18107Y171722D01*
X19020Y171344D01*
X19488Y171282D01*
X19628Y170998D01*
X19648Y170757D01*
X19612Y170726D01*
X18100D01*
X17593Y170625D01*
X17163Y170337D01*
X14663Y167837D01*
X14375Y167407D01*
X14275Y166900D01*
Y152100D01*
X14375Y151593D01*
X14663Y151163D01*
X16763Y149063D01*
X17193Y148775D01*
X17700Y148674D01*
X17803D01*
X17973Y148175D01*
X17323Y147677D01*
X16722Y146893D01*
X16344Y145980D01*
X16215Y145000D01*
X16344Y144020D01*
X16722Y143107D01*
X17323Y142324D01*
X17973Y141825D01*
X17803Y141325D01*
X17700D01*
X17193Y141225D01*
X16763Y140937D01*
X14663Y138837D01*
X14375Y138407D01*
X14275Y137900D01*
Y129400D01*
X14375Y128893D01*
X14663Y128463D01*
X16579Y126547D01*
X16344Y125980D01*
X16215Y125000D01*
X16344Y124020D01*
X16722Y123107D01*
X17323Y122324D01*
X17973Y121826D01*
X17924Y121491D01*
X17844Y121314D01*
X17393Y121225D01*
X16963Y120937D01*
X12863Y116837D01*
X12575Y116407D01*
X12474Y115900D01*
Y91200D01*
X12575Y90693D01*
X12863Y90263D01*
X16579Y86547D01*
X16344Y85980D01*
X16215Y85000D01*
X16344Y84020D01*
X16722Y83107D01*
X17323Y82323D01*
X18107Y81722D01*
X19020Y81344D01*
X20000Y81215D01*
X20980Y81344D01*
X21893Y81722D01*
X22677Y82323D01*
X23278Y83107D01*
X23656Y84020D01*
X23785Y85000D01*
X23656Y85980D01*
X23278Y86893D01*
X22677Y87677D01*
X21893Y88278D01*
X20980Y88656D01*
X20000Y88785D01*
X19020Y88656D01*
X18453Y88421D01*
X15125Y91749D01*
Y100047D01*
X15587Y100238D01*
X16763Y99063D01*
X17193Y98775D01*
X17700Y98674D01*
X17803D01*
X17973Y98175D01*
X17323Y97676D01*
X16722Y96893D01*
X16344Y95980D01*
X16215Y95000D01*
X16344Y94020D01*
X16722Y93107D01*
X17323Y92323D01*
X18107Y91722D01*
X19020Y91344D01*
X20000Y91215D01*
X20980Y91344D01*
X21893Y91722D01*
X22677Y92323D01*
X23278Y93107D01*
X23656Y94020D01*
X23785Y95000D01*
X23656Y95980D01*
X23278Y96893D01*
X22677Y97676D01*
X22027Y98175D01*
X22197Y98674D01*
X47803D01*
X47973Y98175D01*
X47324Y97676D01*
X46722Y96893D01*
X46344Y95980D01*
X46215Y95000D01*
X46344Y94020D01*
X46722Y93107D01*
X47324Y92323D01*
X47973Y91825D01*
X47803Y91325D01*
X35000D01*
X34493Y91225D01*
X34063Y90937D01*
X21547Y78421D01*
X20980Y78656D01*
X20000Y78785D01*
X19020Y78656D01*
X18107Y78278D01*
X17323Y77676D01*
X16722Y76893D01*
X16344Y75980D01*
X16215Y75000D01*
X16344Y74020D01*
X16722Y73107D01*
X17323Y72324D01*
X18107Y71722D01*
X19020Y71344D01*
X20000Y71215D01*
X20980Y71344D01*
X21893Y71722D01*
X22677Y72324D01*
X23278Y73107D01*
X23656Y74020D01*
X23785Y75000D01*
X23656Y75980D01*
X23421Y76547D01*
X35549Y88674D01*
X47803D01*
X47973Y88174D01*
X47324Y87677D01*
X46722Y86893D01*
X46344Y85980D01*
X46215Y85000D01*
X46344Y84020D01*
X46722Y83107D01*
X47324Y82323D01*
X47554Y82147D01*
X47508Y81756D01*
X47450Y81596D01*
X47063Y81337D01*
X44663Y78937D01*
X44375Y78507D01*
X44275Y78000D01*
Y59400D01*
X44375Y58893D01*
X44663Y58463D01*
X46579Y56547D01*
X46344Y55980D01*
X46215Y55000D01*
X46344Y54020D01*
X46722Y53107D01*
X47324Y52324D01*
X48107Y51722D01*
X49020Y51344D01*
X50000Y51215D01*
X50980Y51344D01*
X51893Y51722D01*
X52676Y52324D01*
X53278Y53107D01*
X53656Y54020D01*
X53785Y55000D01*
X53656Y55980D01*
X53278Y56893D01*
X52676Y57677D01*
X51893Y58278D01*
X50980Y58656D01*
X50000Y58785D01*
X49020Y58656D01*
X48453Y58421D01*
X46926Y59949D01*
Y62089D01*
X47425Y62245D01*
X48107Y61722D01*
X49020Y61344D01*
X50000Y61215D01*
X50980Y61344D01*
X51893Y61722D01*
X52676Y62323D01*
X53278Y63107D01*
X53513Y63674D01*
X184420D01*
X184642Y63342D01*
X185403Y62833D01*
X186300Y62655D01*
X187197Y62833D01*
X187958Y63342D01*
X188467Y64103D01*
X188645Y65000D01*
X188467Y65897D01*
X187958Y66658D01*
X187197Y67167D01*
X186300Y67345D01*
X185403Y67167D01*
X184642Y66658D01*
X184420Y66325D01*
X53513D01*
X53278Y66893D01*
X52676Y67677D01*
X51893Y68278D01*
X50980Y68656D01*
X50000Y68785D01*
X49020Y68656D01*
X48107Y68278D01*
X47425Y67755D01*
X46926Y67911D01*
Y72089D01*
X47425Y72245D01*
X48107Y71722D01*
X49020Y71344D01*
X50000Y71215D01*
X50980Y71344D01*
X51893Y71722D01*
X52676Y72324D01*
X53278Y73107D01*
X53513Y73674D01*
X77190D01*
X78163Y72702D01*
X78593Y72414D01*
X79100Y72313D01*
X187767D01*
X188274Y72414D01*
X188704Y72702D01*
X188736Y72733D01*
X189128Y72655D01*
X190026Y72834D01*
X190786Y73342D01*
X191295Y74103D01*
X191473Y75000D01*
X191295Y75897D01*
X190786Y76658D01*
X190026Y77166D01*
X189128Y77345D01*
X188231Y77166D01*
X187470Y76658D01*
X186962Y75897D01*
X186783Y75000D01*
X186754Y74964D01*
X181641D01*
X181490Y75464D01*
X181637Y75563D01*
X201549Y95474D01*
X227600D01*
X228107Y95575D01*
X228537Y95863D01*
X271349Y138674D01*
X284554D01*
Y137232D01*
X294028D01*
Y142769D01*
X284554D01*
Y141325D01*
X270800D01*
X270293Y141225D01*
X269863Y140937D01*
X227051Y98125D01*
X201000D01*
X200493Y98025D01*
X200063Y97737D01*
X180151Y77825D01*
X83381D01*
X83158Y78158D01*
X82535Y78575D01*
X82687Y79075D01*
X164700D01*
X165207Y79175D01*
X165637Y79463D01*
X185049Y98874D01*
X221600D01*
X222107Y98975D01*
X222537Y99263D01*
X241307Y118033D01*
X241700Y117955D01*
X242597Y118133D01*
X243358Y118642D01*
X243867Y119403D01*
X244045Y120300D01*
X243867Y121197D01*
X243358Y121958D01*
X242597Y122467D01*
X241700Y122645D01*
X240803Y122467D01*
X240042Y121958D01*
X239533Y121197D01*
X239355Y120300D01*
X239433Y119907D01*
X221051Y101525D01*
X218505D01*
X218456Y102025D01*
X218707Y102075D01*
X219137Y102363D01*
X260449Y143675D01*
X300000D01*
X300507Y143775D01*
X300937Y144063D01*
X305637Y148763D01*
X305925Y149193D01*
X306026Y149700D01*
Y163451D01*
X311249Y168675D01*
X315263D01*
Y167232D01*
X323974D01*
Y162768D01*
X315263D01*
Y157231D01*
X324737D01*
Y158762D01*
X324807Y158775D01*
X325237Y159063D01*
X326237Y160063D01*
X326525Y160493D01*
X326625Y161000D01*
Y173000D01*
X326525Y173507D01*
X326237Y173937D01*
X324937Y175237D01*
X324507Y175525D01*
X324000Y175626D01*
X305400D01*
X304893Y175525D01*
X304463Y175237D01*
X301787Y172562D01*
X301325Y172753D01*
Y175451D01*
X304549Y178674D01*
X315263D01*
Y177232D01*
X324737D01*
Y182768D01*
X324596D01*
X324405Y183230D01*
X326237Y185063D01*
X326525Y185493D01*
X326625Y186000D01*
Y199000D01*
X326599Y199134D01*
X326597Y199271D01*
X326549Y199385D01*
X326525Y199507D01*
X326448Y199621D01*
X326395Y199747D01*
X326306Y199834D01*
X326237Y199937D01*
X326123Y200013D01*
X326026Y200109D01*
X325910Y200156D01*
X325807Y200225D01*
X325673Y200251D01*
X325546Y200303D01*
X324737Y200455D01*
Y202768D01*
X324396D01*
X324205Y203230D01*
X328037Y207063D01*
X328325Y207493D01*
X328426Y208000D01*
Y227847D01*
X328887Y228038D01*
X329063Y227863D01*
X329493Y227575D01*
X330000Y227474D01*
X634909D01*
Y222232D01*
X644383D01*
Y223675D01*
X656668D01*
X662980Y217363D01*
X663410Y217075D01*
X663917Y216974D01*
X665617D01*
Y216325D01*
X659709D01*
X655029Y221006D01*
X654599Y221293D01*
X654092Y221394D01*
X629284D01*
X628777Y221293D01*
X628347Y221006D01*
X622463Y215122D01*
X622175Y214691D01*
X622075Y214184D01*
Y93800D01*
X622175Y93293D01*
X622463Y92863D01*
X664433Y50893D01*
X664355Y50500D01*
X664533Y49603D01*
X665042Y48842D01*
X665803Y48333D01*
X666700Y48155D01*
X667597Y48333D01*
X668358Y48842D01*
X668867Y49603D01*
X669045Y50500D01*
X668867Y51397D01*
X668358Y52158D01*
X667597Y52666D01*
X666700Y52845D01*
X666307Y52767D01*
X638187Y80887D01*
X638240Y81117D01*
X638407Y81375D01*
X676419D01*
X676642Y81042D01*
X677403Y80533D01*
X678300Y80355D01*
X679197Y80533D01*
X679958Y81042D01*
X680467Y81803D01*
X680645Y82700D01*
X680467Y83597D01*
X679958Y84358D01*
X679197Y84866D01*
X678300Y85045D01*
X677403Y84866D01*
X676642Y84358D01*
X676419Y84026D01*
X638849D01*
X630226Y92649D01*
Y98247D01*
X630687Y98438D01*
X636363Y92763D01*
X636793Y92475D01*
X637300Y92374D01*
X706927D01*
X707119Y91913D01*
X694963Y79757D01*
X694675Y79327D01*
X694574Y78820D01*
Y68904D01*
X694074Y68855D01*
X693967Y69397D01*
X693458Y70158D01*
X692697Y70666D01*
X691800Y70845D01*
X690903Y70666D01*
X690142Y70158D01*
X689633Y69397D01*
X689455Y68500D01*
X689533Y68107D01*
X668070Y46645D01*
X643619D01*
X643112Y46544D01*
X642682Y46257D01*
X642392Y45967D01*
X642000Y46045D01*
X641103Y45867D01*
X640342Y45358D01*
X639833Y44597D01*
X639655Y43700D01*
X639833Y42803D01*
X640342Y42042D01*
X640516Y41925D01*
X640364Y41425D01*
X618649D01*
X611967Y48107D01*
X612045Y48500D01*
X611867Y49397D01*
X611358Y50158D01*
X610597Y50667D01*
X609700Y50845D01*
X608803Y50667D01*
X608042Y50158D01*
X607533Y49397D01*
X607355Y48500D01*
X607533Y47603D01*
X608042Y46842D01*
X608803Y46333D01*
X609700Y46155D01*
X610092Y46233D01*
X617163Y39163D01*
X617593Y38875D01*
X618100Y38774D01*
X657200D01*
X657707Y38875D01*
X658137Y39163D01*
X658208Y39233D01*
X658600Y39155D01*
X659497Y39333D01*
X660258Y39842D01*
X660767Y40603D01*
X660945Y41500D01*
X660767Y42397D01*
X660258Y43158D01*
X659756Y43494D01*
X659908Y43994D01*
X668619D01*
X669126Y44095D01*
X669557Y44382D01*
X691407Y66233D01*
X691800Y66155D01*
X692697Y66334D01*
X693458Y66842D01*
X693967Y67603D01*
X694074Y68145D01*
X694574Y68096D01*
Y65572D01*
X665528Y36525D01*
X452786D01*
X452617Y37025D01*
X452819Y37181D01*
X453453Y38007D01*
X453851Y38968D01*
X453921Y39500D01*
X446079D01*
X446149Y38968D01*
X446547Y38007D01*
X447181Y37181D01*
X447383Y37025D01*
X447214Y36525D01*
X442458D01*
X442288Y37025D01*
X442676Y37323D01*
X443278Y38107D01*
X443656Y39020D01*
X443785Y40000D01*
X443656Y40980D01*
X443421Y41547D01*
X446949Y45074D01*
X588519D01*
X588742Y44742D01*
X589503Y44233D01*
X590400Y44055D01*
X591297Y44233D01*
X592058Y44742D01*
X592567Y45503D01*
X592745Y46400D01*
X592567Y47297D01*
X592058Y48058D01*
X591297Y48567D01*
X590400Y48745D01*
X589503Y48567D01*
X588742Y48058D01*
X588519Y47725D01*
X446400D01*
X445893Y47625D01*
X445463Y47337D01*
X441547Y43421D01*
X440980Y43656D01*
X440000Y43785D01*
X439020Y43656D01*
X438107Y43278D01*
X437324Y42676D01*
X436722Y41893D01*
X436344Y40980D01*
X436215Y40000D01*
X436344Y39020D01*
X436722Y38107D01*
X437324Y37323D01*
X437712Y37025D01*
X437542Y36525D01*
X433753D01*
Y43753D01*
X433481D01*
X433289Y44215D01*
X442308Y53233D01*
X442700Y53155D01*
X443597Y53333D01*
X444358Y53842D01*
X444867Y54603D01*
X445045Y55500D01*
X444867Y56397D01*
X444358Y57158D01*
X443597Y57666D01*
X442700Y57845D01*
X441803Y57666D01*
X441042Y57158D01*
X440533Y56397D01*
X440355Y55500D01*
X440433Y55107D01*
X429078Y43753D01*
X426247D01*
Y36525D01*
X305033D01*
X304882Y37025D01*
X304937Y37063D01*
X309237Y41363D01*
X309525Y41793D01*
X309626Y42300D01*
Y135451D01*
X312849Y138674D01*
X315263D01*
Y137232D01*
X324737D01*
Y142769D01*
X315263D01*
Y141325D01*
X312300D01*
X311793Y141225D01*
X311363Y140937D01*
X308287Y137862D01*
X307825Y138053D01*
Y143951D01*
X312549Y148674D01*
X315263D01*
Y147231D01*
X324737D01*
Y152769D01*
X315263D01*
Y151326D01*
X312000D01*
X311493Y151225D01*
X311063Y150937D01*
X305563Y145437D01*
X305275Y145007D01*
X305174Y144500D01*
Y47749D01*
X299451Y42026D01*
X53078D01*
X52832Y42526D01*
X53278Y43107D01*
X53513Y43674D01*
X220120D01*
X220342Y43342D01*
X221103Y42833D01*
X222000Y42655D01*
X222897Y42833D01*
X223658Y43342D01*
X224167Y44103D01*
X224345Y45000D01*
X224167Y45897D01*
X223658Y46658D01*
X222897Y47167D01*
X222000Y47345D01*
X221103Y47167D01*
X220342Y46658D01*
X220120Y46325D01*
X53513D01*
X53278Y46893D01*
X52676Y47677D01*
X51893Y48278D01*
X50980Y48656D01*
X50000Y48785D01*
X49020Y48656D01*
X48107Y48278D01*
X47324Y47677D01*
X46722Y46893D01*
X46344Y45980D01*
X46215Y45000D01*
X46344Y44020D01*
X46722Y43107D01*
X47168Y42526D01*
X46922Y42026D01*
X34849D01*
X23421Y53453D01*
X23656Y54020D01*
X23785Y55000D01*
X23656Y55980D01*
X23278Y56893D01*
X22677Y57677D01*
X21893Y58278D01*
X20980Y58656D01*
X20000Y58785D01*
X19020Y58656D01*
X18107Y58278D01*
X17323Y57677D01*
X16722Y56893D01*
X16344Y55980D01*
X16215Y55000D01*
X16344Y54020D01*
X16722Y53107D01*
X17323Y52324D01*
X18107Y51722D01*
X19020Y51344D01*
X20000Y51215D01*
X20980Y51344D01*
X21547Y51579D01*
X33363Y39763D01*
X33793Y39475D01*
X34300Y39375D01*
X71117D01*
X71255Y39129D01*
X71300Y38875D01*
X63751Y31326D01*
X52197D01*
X52027Y31826D01*
X52676Y32324D01*
X53278Y33107D01*
X53656Y34020D01*
X53785Y35000D01*
X53656Y35980D01*
X53278Y36893D01*
X52676Y37677D01*
X51893Y38278D01*
X50980Y38656D01*
X50000Y38785D01*
X49020Y38656D01*
X48107Y38278D01*
X47324Y37677D01*
X46722Y36893D01*
X46344Y35980D01*
X46215Y35000D01*
X46344Y34020D01*
X46722Y33107D01*
X47324Y32324D01*
X47973Y31826D01*
X47803Y31326D01*
X25549D01*
X23421Y33453D01*
X23656Y34020D01*
X23785Y35000D01*
X23656Y35980D01*
X23278Y36893D01*
X22677Y37677D01*
X21893Y38278D01*
X20980Y38656D01*
X20000Y38785D01*
X19020Y38656D01*
X18107Y38278D01*
X17323Y37677D01*
X16722Y36893D01*
X16344Y35980D01*
X16215Y35000D01*
X16344Y34020D01*
X16722Y33107D01*
X17323Y32324D01*
X18107Y31722D01*
X19020Y31344D01*
X20000Y31215D01*
X20980Y31344D01*
X21547Y31579D01*
X23958Y29168D01*
X23666Y28753D01*
X23278Y28753D01*
X16247D01*
Y21247D01*
X23753D01*
Y28261D01*
X23753Y28691D01*
X23763Y28703D01*
X24148Y29006D01*
X24493Y28775D01*
X25000Y28675D01*
X46247D01*
Y21247D01*
X53753D01*
Y28675D01*
X64300D01*
X64807Y28775D01*
X65237Y29063D01*
X72849Y36674D01*
X219167D01*
X219319Y36174D01*
X219263Y36137D01*
X212074Y28949D01*
X211159Y29327D01*
X210000Y29480D01*
X208840Y29327D01*
X207760Y28880D01*
X206832Y28168D01*
X206120Y27240D01*
X205673Y26160D01*
X205520Y25000D01*
X205673Y23841D01*
X206120Y22760D01*
X206832Y21832D01*
X207760Y21120D01*
X208840Y20673D01*
X210000Y20520D01*
X211159Y20673D01*
X212240Y21120D01*
X213168Y21832D01*
X213880Y22760D01*
X214327Y23841D01*
X214480Y25000D01*
X214327Y26160D01*
X213949Y27074D01*
X220749Y33874D01*
X666077D01*
X666584Y33975D01*
X667014Y34263D01*
X696837Y64086D01*
X697125Y64516D01*
X697226Y65023D01*
Y65547D01*
X697687Y65738D01*
X706900Y56525D01*
X706693Y56025D01*
X696100D01*
X695593Y55925D01*
X695163Y55637D01*
X693063Y53537D01*
X692775Y53107D01*
X692674Y52600D01*
Y14400D01*
X692775Y13893D01*
X693063Y13463D01*
X699063Y7463D01*
X699493Y7175D01*
X700000Y7074D01*
X1073200D01*
X1073707Y7175D01*
X1074137Y7463D01*
X1096137Y29463D01*
X1096425Y29893D01*
X1096525Y30400D01*
Y390100D01*
X1096425Y390607D01*
X1096137Y391037D01*
X1074667Y412507D01*
X1074745Y412900D01*
X1074566Y413797D01*
X1074058Y414558D01*
X1073297Y415067D01*
X1072400Y415245D01*
X1071503Y415067D01*
X1070742Y414558D01*
X1070234Y413797D01*
X1070055Y412900D01*
X1070234Y412003D01*
X1070742Y411242D01*
X1071503Y410733D01*
X1072400Y410555D01*
X1072793Y410633D01*
X1093874Y389551D01*
Y30949D01*
X1072651Y9725D01*
X947953D01*
X947762Y10187D01*
X950737Y13163D01*
X951025Y13593D01*
X951126Y14100D01*
Y21100D01*
X951025Y21607D01*
X950737Y22037D01*
X950580Y22194D01*
X950772Y22656D01*
X1043082D01*
X1043589Y22757D01*
X1044019Y23044D01*
X1081808Y60833D01*
X1082200Y60755D01*
X1083097Y60934D01*
X1083858Y61442D01*
X1084367Y62203D01*
X1084545Y63100D01*
X1084367Y63997D01*
X1083858Y64758D01*
X1083097Y65267D01*
X1082200Y65445D01*
X1081303Y65267D01*
X1080542Y64758D01*
X1080033Y63997D01*
X1079855Y63100D01*
X1079933Y62708D01*
X1042533Y25307D01*
X966335D01*
X966144Y25769D01*
X971537Y31163D01*
X971825Y31593D01*
X971926Y32100D01*
Y47600D01*
X971825Y48107D01*
X971537Y48537D01*
X967167Y52908D01*
X967245Y53300D01*
X967066Y54197D01*
X966558Y54958D01*
X965797Y55467D01*
X964900Y55645D01*
X964003Y55467D01*
X963242Y54958D01*
X962733Y54197D01*
X962555Y53300D01*
X962733Y52403D01*
X963242Y51642D01*
X964003Y51133D01*
X964900Y50955D01*
X965292Y51033D01*
X969275Y47051D01*
Y35445D01*
X968834Y35209D01*
X968597Y35367D01*
X967700Y35545D01*
X966803Y35367D01*
X966042Y34858D01*
X965819Y34525D01*
X962236D01*
X962085Y35026D01*
X962558Y35342D01*
X963066Y36103D01*
X963245Y37000D01*
X963066Y37897D01*
X962558Y38658D01*
X961797Y39167D01*
X960900Y39345D01*
X960003Y39167D01*
X959242Y38658D01*
X959019Y38326D01*
X945892D01*
X945384Y38225D01*
X944954Y37937D01*
X943430Y36413D01*
X942968Y36605D01*
Y39146D01*
X940000D01*
X937031D01*
Y35734D01*
X932969D01*
Y39146D01*
X930000D01*
X927032D01*
Y35734D01*
X922968D01*
Y39146D01*
X920000D01*
X917031D01*
Y35734D01*
X912969D01*
Y39146D01*
X910000D01*
Y39646D01*
X909500D01*
Y44583D01*
X907032D01*
Y44583D01*
X906650Y44425D01*
X903662Y47413D01*
X903853Y47875D01*
X934100D01*
X934607Y47975D01*
X935037Y48263D01*
X937337Y50563D01*
X937625Y50993D01*
X937726Y51500D01*
Y63900D01*
X937625Y64407D01*
X937337Y64837D01*
X937257Y64917D01*
X937464Y65417D01*
X939500D01*
Y69854D01*
X937031D01*
Y65850D01*
X936532Y65643D01*
X936137Y66037D01*
X935707Y66325D01*
X935200Y66426D01*
X932969D01*
Y69854D01*
X930000D01*
X927032D01*
Y66426D01*
X922968D01*
Y69854D01*
X920000D01*
X917031D01*
Y66426D01*
X912969D01*
Y69854D01*
X910000D01*
X907032D01*
Y66426D01*
X902769D01*
Y75091D01*
X897231D01*
Y66050D01*
X896731Y65843D01*
X895325Y67249D01*
Y74900D01*
X895225Y75407D01*
X894937Y75837D01*
X893937Y76837D01*
X893507Y77125D01*
X893000Y77226D01*
X887000D01*
X886493Y77125D01*
X886063Y76837D01*
X884763Y75537D01*
X884475Y75107D01*
X884375Y74600D01*
Y68549D01*
X883230Y67405D01*
X882769Y67596D01*
Y75091D01*
X881326D01*
Y78000D01*
X881225Y78507D01*
X880937Y78937D01*
X877937Y81937D01*
X877732Y82074D01*
X877884Y82574D01*
X914400D01*
X914907Y82675D01*
X915337Y82963D01*
X921049Y88674D01*
X922756D01*
X922991Y88234D01*
X922834Y87997D01*
X922655Y87100D01*
X922834Y86203D01*
X923342Y85442D01*
X924103Y84934D01*
X925000Y84755D01*
X925393Y84833D01*
X928963Y81263D01*
X929393Y80975D01*
X929900Y80875D01*
X987900D01*
X988407Y80975D01*
X988837Y81263D01*
X991437Y83863D01*
X991725Y84293D01*
X991825Y84800D01*
X991825Y84800D01*
Y87751D01*
X998855Y94780D01*
X999243Y94461D01*
X999133Y94297D01*
X998955Y93400D01*
X999133Y92503D01*
X999642Y91742D01*
X1000403Y91233D01*
X1001027Y91109D01*
X1001192Y90567D01*
X975151Y64526D01*
X946881D01*
X946658Y64858D01*
X945897Y65367D01*
X945000Y65545D01*
X944103Y65367D01*
X943342Y64858D01*
X942834Y64097D01*
X942655Y63200D01*
X942834Y62303D01*
X943342Y61542D01*
X944103Y61033D01*
X945000Y60855D01*
X945897Y61033D01*
X946658Y61542D01*
X946881Y61875D01*
X975700D01*
X976207Y61975D01*
X976637Y62263D01*
X1007928Y93554D01*
X1008032Y93538D01*
X1008429Y92974D01*
X1008355Y92600D01*
X1008533Y91703D01*
X1009042Y90942D01*
X1009803Y90434D01*
X1010700Y90255D01*
X1011092Y90333D01*
X1013274Y88151D01*
Y57042D01*
X1012942Y56820D01*
X1012434Y56059D01*
X1012255Y55161D01*
X1012434Y54264D01*
X1012942Y53503D01*
X1013208Y53325D01*
X1013056Y52825D01*
X1010880D01*
X1010658Y53158D01*
X1009897Y53667D01*
X1009000Y53845D01*
X1008103Y53667D01*
X1007342Y53158D01*
X1006833Y52397D01*
X1006655Y51500D01*
X1006833Y50603D01*
X1007342Y49842D01*
X1008103Y49333D01*
X1009000Y49155D01*
X1009897Y49333D01*
X1010658Y49842D01*
X1010880Y50174D01*
X1016300D01*
X1016807Y50275D01*
X1017237Y50563D01*
X1048207Y81533D01*
X1048600Y81455D01*
X1049497Y81634D01*
X1050258Y82142D01*
X1050766Y82903D01*
X1050945Y83800D01*
X1050766Y84697D01*
X1050258Y85458D01*
X1049497Y85966D01*
X1048600Y86145D01*
X1047703Y85966D01*
X1046942Y85458D01*
X1046434Y84697D01*
X1046255Y83800D01*
X1046333Y83407D01*
X1038088Y75162D01*
X1037627Y75409D01*
X1037645Y75500D01*
X1037467Y76397D01*
X1036958Y77158D01*
X1036197Y77666D01*
X1035300Y77845D01*
X1034403Y77666D01*
X1033642Y77158D01*
X1033420Y76825D01*
X1028080D01*
X1027858Y77158D01*
X1027097Y77666D01*
X1026200Y77845D01*
X1025303Y77666D01*
X1024542Y77158D01*
X1024034Y76397D01*
X1023855Y75500D01*
X1024034Y74603D01*
X1024542Y73842D01*
X1025303Y73334D01*
X1026200Y73155D01*
X1027097Y73334D01*
X1027858Y73842D01*
X1028080Y74174D01*
X1033420D01*
X1033642Y73842D01*
X1034403Y73334D01*
X1035300Y73155D01*
X1035392Y73173D01*
X1035638Y72712D01*
X1017298Y54372D01*
X1016837Y54619D01*
X1016945Y55161D01*
X1016766Y56059D01*
X1016258Y56820D01*
X1015926Y57042D01*
Y88700D01*
X1015825Y89207D01*
X1015537Y89637D01*
X1012967Y92207D01*
X1013045Y92600D01*
X1012866Y93497D01*
X1012709Y93734D01*
X1012945Y94174D01*
X1014251D01*
X1016163Y92263D01*
X1016593Y91975D01*
X1017100Y91874D01*
X1044700D01*
X1045207Y91975D01*
X1045637Y92263D01*
X1051413Y98038D01*
X1051875Y97847D01*
Y58600D01*
X1051975Y58093D01*
X1052263Y57663D01*
X1053833Y56093D01*
X1053755Y55700D01*
X1053934Y54803D01*
X1054442Y54042D01*
X1055203Y53534D01*
X1056100Y53355D01*
X1056997Y53534D01*
X1057758Y54042D01*
X1058267Y54803D01*
X1058445Y55700D01*
X1058267Y56597D01*
X1057758Y57358D01*
X1056997Y57867D01*
X1056100Y58045D01*
X1055707Y57967D01*
X1054525Y59149D01*
Y60655D01*
X1054966Y60891D01*
X1055203Y60733D01*
X1056100Y60555D01*
X1056997Y60733D01*
X1057758Y61242D01*
X1058267Y62003D01*
X1058445Y62900D01*
X1058367Y63292D01*
X1079637Y84563D01*
X1079925Y84993D01*
X1080025Y85500D01*
Y208300D01*
X1079925Y208807D01*
X1079637Y209237D01*
X1072937Y215937D01*
X1072507Y216225D01*
X1072000Y216325D01*
X1065091D01*
Y217769D01*
X1056225D01*
Y222232D01*
X1065091D01*
Y227768D01*
X1055617D01*
Y226249D01*
X1055493Y226225D01*
X1055063Y225937D01*
X1054687Y225562D01*
X1054226Y225753D01*
Y236000D01*
X1054125Y236507D01*
X1053837Y236937D01*
X1049137Y241637D01*
X1048707Y241925D01*
X1048200Y242025D01*
X1035080D01*
X1034583Y242032D01*
Y244500D01*
X1029646D01*
Y245000D01*
X1029146D01*
Y247969D01*
X1026896D01*
X1026705Y248430D01*
X1027949Y249675D01*
X1033900D01*
X1034407Y249775D01*
X1034837Y250063D01*
X1035837Y251063D01*
X1036125Y251493D01*
X1036226Y252000D01*
Y261717D01*
X1036726Y261868D01*
X1036863Y261663D01*
X1039163Y259363D01*
X1039593Y259075D01*
X1040100Y258975D01*
X1041360D01*
X1041533Y258103D01*
X1042042Y257342D01*
X1042803Y256833D01*
X1043700Y256655D01*
X1044597Y256833D01*
X1045358Y257342D01*
X1045866Y258103D01*
X1046045Y259000D01*
X1045891Y259774D01*
X1046170Y260275D01*
X1081602D01*
X1081824Y259942D01*
X1082585Y259433D01*
X1083482Y259255D01*
X1084379Y259433D01*
X1085140Y259942D01*
X1085649Y260703D01*
X1085827Y261600D01*
X1085649Y262497D01*
X1085140Y263258D01*
X1084379Y263767D01*
X1083482Y263945D01*
X1082585Y263767D01*
X1081824Y263258D01*
X1081602Y262926D01*
X1065091D01*
Y267274D01*
X1084751D01*
X1088133Y263893D01*
X1088055Y263500D01*
X1088233Y262603D01*
X1088742Y261842D01*
X1089503Y261333D01*
X1090400Y261155D01*
X1091297Y261333D01*
X1092058Y261842D01*
X1092566Y262603D01*
X1092745Y263500D01*
X1092566Y264397D01*
X1092058Y265158D01*
X1091297Y265667D01*
X1090400Y265845D01*
X1090007Y265767D01*
X1086237Y269537D01*
X1085807Y269825D01*
X1085300Y269925D01*
X1084786D01*
X1084634Y270426D01*
X1084958Y270642D01*
X1085466Y271403D01*
X1085645Y272300D01*
X1085466Y273197D01*
X1084958Y273958D01*
X1084197Y274467D01*
X1083300Y274645D01*
X1082403Y274467D01*
X1081642Y273958D01*
X1081419Y273625D01*
X1070316D01*
X1070081Y274126D01*
X1070467Y274703D01*
X1070645Y275600D01*
X1070467Y276497D01*
X1069958Y277258D01*
X1069197Y277767D01*
X1068300Y277945D01*
X1067908Y277867D01*
X1066437Y279337D01*
X1066007Y279625D01*
X1065500Y279726D01*
X1054549D01*
X1045993Y288281D01*
X1046185Y288743D01*
X1052740D01*
X1052841Y288675D01*
X1053349Y288575D01*
X1063451D01*
X1063795Y288230D01*
X1063604Y287769D01*
X1055617D01*
Y282231D01*
X1064594D01*
X1067763Y279063D01*
X1068193Y278775D01*
X1068700Y278675D01*
X1071900D01*
X1072407Y278775D01*
X1072837Y279063D01*
X1080137Y286363D01*
X1080425Y286793D01*
X1080525Y287300D01*
Y370800D01*
X1080425Y371307D01*
X1080137Y371737D01*
X1078567Y373307D01*
X1078645Y373700D01*
X1078467Y374597D01*
X1077958Y375358D01*
X1077197Y375867D01*
X1076300Y376045D01*
X1075403Y375867D01*
X1074642Y375358D01*
X1074133Y374597D01*
X1073955Y373700D01*
X1074133Y372803D01*
X1074642Y372042D01*
X1075403Y371533D01*
X1076300Y371355D01*
X1076692Y371433D01*
X1077874Y370251D01*
Y364153D01*
X1077413Y363962D01*
X1073326Y368049D01*
Y380220D01*
X1073658Y380442D01*
X1074166Y381203D01*
X1074345Y382100D01*
X1074166Y382997D01*
X1073658Y383758D01*
X1072897Y384267D01*
X1072000Y384445D01*
X1071626Y384371D01*
X1071062Y384768D01*
X1071046Y384872D01*
X1074337Y388163D01*
X1074625Y388593D01*
X1074726Y389100D01*
Y394320D01*
X1075058Y394542D01*
X1075566Y395303D01*
X1075745Y396200D01*
X1075566Y397097D01*
X1075058Y397858D01*
X1074297Y398367D01*
X1073400Y398545D01*
X1072503Y398367D01*
X1071742Y397858D01*
X1071233Y397097D01*
X1071055Y396200D01*
X1071233Y395303D01*
X1071742Y394542D01*
X1072075Y394320D01*
Y389649D01*
X1069187Y386762D01*
X1068725Y386953D01*
Y468000D01*
X1068625Y468507D01*
X1068337Y468937D01*
X1056837Y480437D01*
X1056407Y480725D01*
X1055900Y480826D01*
X866373D01*
X865866Y480725D01*
X865436Y480437D01*
X864024Y479026D01*
X856811D01*
X856576Y479466D01*
X856666Y479603D01*
X856845Y480500D01*
X856666Y481397D01*
X856158Y482158D01*
X855397Y482667D01*
X854500Y482845D01*
X853603Y482667D01*
X852842Y482158D01*
X852619Y481825D01*
X796700D01*
X796193Y481725D01*
X795763Y481437D01*
X787651Y473325D01*
X780852D01*
X780616Y473766D01*
X780655Y473825D01*
X780750Y474300D01*
X778300D01*
Y474800D01*
X777800D01*
Y477249D01*
X777324Y477155D01*
X776966Y476916D01*
X776525Y477151D01*
Y482100D01*
X776425Y482607D01*
X776137Y483037D01*
X774137Y485037D01*
X773707Y485325D01*
X773200Y485426D01*
X737881D01*
X737658Y485758D01*
X736897Y486267D01*
X736000Y486445D01*
D02*
G37*
G36*
X778800Y477249D02*
Y475300D01*
X780750D01*
X780655Y475775D01*
X780102Y476602D01*
X779276Y477155D01*
X778800Y477249D01*
D02*
G37*
G36*
X50000Y478785D02*
X49020Y478656D01*
X48107Y478278D01*
X47324Y477676D01*
X46722Y476893D01*
X46344Y475980D01*
X46215Y475000D01*
X46344Y474020D01*
X46722Y473107D01*
X47324Y472324D01*
X48107Y471722D01*
X49020Y471344D01*
X50000Y471215D01*
X50980Y471344D01*
X51893Y471722D01*
X52676Y472324D01*
X53278Y473107D01*
X53656Y474020D01*
X53785Y475000D01*
X53656Y475980D01*
X53278Y476893D01*
X52676Y477676D01*
X51893Y478278D01*
X50980Y478656D01*
X50000Y478785D01*
D02*
G37*
G36*
X20000D02*
X19020Y478656D01*
X18107Y478278D01*
X17323Y477676D01*
X16722Y476893D01*
X16344Y475980D01*
X16215Y475000D01*
X16344Y474020D01*
X16722Y473107D01*
X17323Y472324D01*
X18107Y471722D01*
X19020Y471344D01*
X20000Y471215D01*
X20980Y471344D01*
X21893Y471722D01*
X22677Y472324D01*
X23278Y473107D01*
X23656Y474020D01*
X23785Y475000D01*
X23656Y475980D01*
X23278Y476893D01*
X22677Y477676D01*
X21893Y478278D01*
X20980Y478656D01*
X20000Y478785D01*
D02*
G37*
G36*
X456783Y481211D02*
X455387Y481027D01*
X454085Y480488D01*
X452968Y479631D01*
X452110Y478513D01*
X451571Y477212D01*
X451387Y475815D01*
X451571Y474418D01*
X452110Y473117D01*
X452968Y471999D01*
X454085Y471142D01*
X455387Y470603D01*
X456783Y470419D01*
X458180Y470603D01*
X459481Y471142D01*
X460599Y471999D01*
X461457Y473117D01*
X461996Y474418D01*
X462180Y475815D01*
X461996Y477212D01*
X461457Y478513D01*
X460599Y479631D01*
X459481Y480488D01*
X458180Y481027D01*
X456783Y481211D01*
D02*
G37*
G36*
X75000Y483843D02*
X73275Y483673D01*
X71616Y483170D01*
X70087Y482352D01*
X68747Y481253D01*
X67648Y479913D01*
X66830Y478384D01*
X66327Y476725D01*
X66157Y475000D01*
X66327Y473275D01*
X66830Y471616D01*
X67648Y470087D01*
X68747Y468747D01*
X70087Y467648D01*
X71616Y466830D01*
X73275Y466327D01*
X75000Y466157D01*
X76725Y466327D01*
X78384Y466830D01*
X79913Y467648D01*
X81253Y468747D01*
X82352Y470087D01*
X83170Y471616D01*
X83673Y473275D01*
X83843Y475000D01*
X83673Y476725D01*
X83170Y478384D01*
X82352Y479913D01*
X81253Y481253D01*
X79913Y482352D01*
X78384Y483170D01*
X76725Y483673D01*
X75000Y483843D01*
D02*
G37*
G36*
X604400Y465345D02*
X603503Y465167D01*
X602742Y464658D01*
X602233Y463897D01*
X602055Y463000D01*
X602133Y462607D01*
X572951Y433426D01*
X423100D01*
X422593Y433325D01*
X422163Y433037D01*
X412547Y423421D01*
X411980Y423656D01*
X411000Y423785D01*
X410020Y423656D01*
X409107Y423278D01*
X408323Y422677D01*
X407722Y421893D01*
X407344Y420980D01*
X407215Y420000D01*
X407344Y419020D01*
X407722Y418107D01*
X408323Y417323D01*
X409107Y416722D01*
X410020Y416344D01*
X411000Y416215D01*
X411980Y416344D01*
X412893Y416722D01*
X413677Y417323D01*
X414278Y418107D01*
X414656Y419020D01*
X414785Y420000D01*
X414656Y420980D01*
X414421Y421547D01*
X416832Y423958D01*
X417247Y423666D01*
X417247Y423289D01*
Y416247D01*
X424753D01*
Y423753D01*
X417739D01*
X417334Y423753D01*
X417042Y424168D01*
X423649Y430774D01*
X573500D01*
X574007Y430875D01*
X574437Y431163D01*
X604007Y460733D01*
X604400Y460655D01*
X605297Y460833D01*
X606058Y461342D01*
X606567Y462103D01*
X606745Y463000D01*
X606567Y463897D01*
X606058Y464658D01*
X605297Y465167D01*
X604400Y465345D01*
D02*
G37*
G36*
X456783Y463495D02*
X455387Y463311D01*
X454085Y462772D01*
X452968Y461914D01*
X452110Y460796D01*
X451571Y459495D01*
X451387Y458098D01*
X451571Y456702D01*
X452110Y455400D01*
X452968Y454283D01*
X454085Y453425D01*
X455387Y452886D01*
X456783Y452702D01*
X458180Y452886D01*
X459481Y453425D01*
X460599Y454283D01*
X461457Y455400D01*
X461996Y456702D01*
X462180Y458098D01*
X461996Y459495D01*
X461457Y460796D01*
X460599Y461914D01*
X459481Y462772D01*
X458180Y463311D01*
X456783Y463495D01*
D02*
G37*
G36*
X638300Y456302D02*
X637403Y456123D01*
X636642Y455615D01*
X636133Y454854D01*
X635955Y453957D01*
X636033Y453564D01*
X560394Y377925D01*
X446949D01*
X443753Y381122D01*
Y386753D01*
X436247D01*
Y384326D01*
X433513D01*
X433278Y384893D01*
X432677Y385677D01*
X431893Y386278D01*
X430980Y386656D01*
X430000Y386785D01*
X429020Y386656D01*
X428107Y386278D01*
X427323Y385677D01*
X426722Y384893D01*
X426487Y384326D01*
X423513D01*
X423278Y384893D01*
X422677Y385677D01*
X421893Y386278D01*
X420980Y386656D01*
X420000Y386785D01*
X419020Y386656D01*
X418107Y386278D01*
X417323Y385677D01*
X416722Y384893D01*
X416487Y384326D01*
X413513D01*
X413278Y384893D01*
X412676Y385677D01*
X411893Y386278D01*
X410980Y386656D01*
X410000Y386785D01*
X409020Y386656D01*
X408107Y386278D01*
X407324Y385677D01*
X406722Y384893D01*
X406487Y384326D01*
X403513D01*
X403278Y384893D01*
X402676Y385677D01*
X401893Y386278D01*
X400980Y386656D01*
X400000Y386785D01*
X399020Y386656D01*
X398107Y386278D01*
X397323Y385677D01*
X396722Y384893D01*
X396487Y384326D01*
X393513D01*
X393278Y384893D01*
X392676Y385677D01*
X391893Y386278D01*
X390980Y386656D01*
X390000Y386785D01*
X389020Y386656D01*
X388107Y386278D01*
X387323Y385677D01*
X386722Y384893D01*
X386487Y384326D01*
X383513D01*
X383278Y384893D01*
X382677Y385677D01*
X381893Y386278D01*
X380980Y386656D01*
X380000Y386785D01*
X379020Y386656D01*
X378107Y386278D01*
X377324Y385677D01*
X376722Y384893D01*
X376487Y384326D01*
X373513D01*
X373278Y384893D01*
X372676Y385677D01*
X371893Y386278D01*
X370980Y386656D01*
X370000Y386785D01*
X369020Y386656D01*
X368107Y386278D01*
X367323Y385677D01*
X366722Y384893D01*
X366487Y384326D01*
X363513D01*
X363278Y384893D01*
X362677Y385677D01*
X361893Y386278D01*
X360980Y386656D01*
X360000Y386785D01*
X359020Y386656D01*
X358107Y386278D01*
X357324Y385677D01*
X356722Y384893D01*
X356487Y384326D01*
X353513D01*
X353278Y384893D01*
X352677Y385677D01*
X351893Y386278D01*
X350980Y386656D01*
X350000Y386785D01*
X349020Y386656D01*
X348107Y386278D01*
X347323Y385677D01*
X346722Y384893D01*
X346344Y383980D01*
X346215Y383000D01*
X346344Y382020D01*
X346722Y381107D01*
X347323Y380324D01*
X348107Y379722D01*
X349020Y379344D01*
X350000Y379215D01*
X350980Y379344D01*
X351893Y379722D01*
X352677Y380324D01*
X353278Y381107D01*
X353513Y381675D01*
X356487D01*
X356722Y381107D01*
X357324Y380324D01*
X358107Y379722D01*
X359020Y379344D01*
X360000Y379215D01*
X360980Y379344D01*
X361893Y379722D01*
X362677Y380324D01*
X363278Y381107D01*
X363513Y381675D01*
X366487D01*
X366722Y381107D01*
X367323Y380324D01*
X368107Y379722D01*
X369020Y379344D01*
X370000Y379215D01*
X370980Y379344D01*
X371893Y379722D01*
X372676Y380324D01*
X373278Y381107D01*
X373513Y381675D01*
X376487D01*
X376722Y381107D01*
X377324Y380324D01*
X378107Y379722D01*
X379020Y379344D01*
X380000Y379215D01*
X380980Y379344D01*
X381893Y379722D01*
X382677Y380324D01*
X383278Y381107D01*
X383513Y381675D01*
X386487D01*
X386722Y381107D01*
X387323Y380324D01*
X388107Y379722D01*
X389020Y379344D01*
X390000Y379215D01*
X390980Y379344D01*
X391893Y379722D01*
X392676Y380324D01*
X393278Y381107D01*
X393513Y381675D01*
X396487D01*
X396722Y381107D01*
X397323Y380324D01*
X398107Y379722D01*
X399020Y379344D01*
X400000Y379215D01*
X400980Y379344D01*
X401893Y379722D01*
X402676Y380324D01*
X403278Y381107D01*
X403513Y381675D01*
X406487D01*
X406722Y381107D01*
X407324Y380324D01*
X408107Y379722D01*
X409020Y379344D01*
X410000Y379215D01*
X410980Y379344D01*
X411893Y379722D01*
X412676Y380324D01*
X413278Y381107D01*
X413513Y381675D01*
X416487D01*
X416722Y381107D01*
X417323Y380324D01*
X418107Y379722D01*
X419020Y379344D01*
X420000Y379215D01*
X420980Y379344D01*
X421893Y379722D01*
X422677Y380324D01*
X423278Y381107D01*
X423513Y381675D01*
X426487D01*
X426722Y381107D01*
X427323Y380324D01*
X428107Y379722D01*
X429020Y379344D01*
X430000Y379215D01*
X430980Y379344D01*
X431893Y379722D01*
X432677Y380324D01*
X433278Y381107D01*
X433513Y381675D01*
X436247D01*
Y379247D01*
X438745D01*
X438775Y379093D01*
X439063Y378663D01*
X453163Y364563D01*
X453593Y364275D01*
X454100Y364175D01*
X691819D01*
X692042Y363842D01*
X692803Y363333D01*
X693700Y363155D01*
X694597Y363333D01*
X695358Y363842D01*
X695867Y364603D01*
X696045Y365500D01*
X695867Y366397D01*
X695358Y367158D01*
X694597Y367667D01*
X693700Y367845D01*
X692803Y367667D01*
X692042Y367158D01*
X691819Y366826D01*
X553127D01*
X552930Y367325D01*
X553453Y368007D01*
X553851Y368968D01*
X553921Y369500D01*
X546079D01*
X546149Y368968D01*
X546547Y368007D01*
X547070Y367325D01*
X546873Y366826D01*
X543127D01*
X542930Y367325D01*
X543453Y368007D01*
X543851Y368968D01*
X543921Y369500D01*
X536079D01*
X536149Y368968D01*
X536547Y368007D01*
X537070Y367325D01*
X536872Y366826D01*
X533127D01*
X532930Y367325D01*
X533453Y368007D01*
X533851Y368968D01*
X533921Y369500D01*
X526079D01*
X526149Y368968D01*
X526547Y368007D01*
X527070Y367325D01*
X526872Y366826D01*
X523128D01*
X522930Y367325D01*
X523453Y368007D01*
X523851Y368968D01*
X523921Y369500D01*
X516079D01*
X516149Y368968D01*
X516547Y368007D01*
X517070Y367325D01*
X516873Y366826D01*
X513128D01*
X512930Y367325D01*
X513453Y368007D01*
X513851Y368968D01*
X513921Y369500D01*
X506079D01*
X506149Y368968D01*
X506547Y368007D01*
X507070Y367325D01*
X506873Y366826D01*
X503127D01*
X502930Y367325D01*
X503453Y368007D01*
X503851Y368968D01*
X503921Y369500D01*
X496079D01*
X496149Y368968D01*
X496547Y368007D01*
X497070Y367325D01*
X496873Y366826D01*
X493127D01*
X492930Y367325D01*
X493453Y368007D01*
X493851Y368968D01*
X493921Y369500D01*
X486079D01*
X486149Y368968D01*
X486547Y368007D01*
X487070Y367325D01*
X486872Y366826D01*
X483127D01*
X482930Y367325D01*
X483453Y368007D01*
X483851Y368968D01*
X483921Y369500D01*
X476079D01*
X476149Y368968D01*
X476547Y368007D01*
X477070Y367325D01*
X476872Y366826D01*
X473128D01*
X472930Y367325D01*
X473453Y368007D01*
X473851Y368968D01*
X473921Y369500D01*
X466079D01*
X466149Y368968D01*
X466547Y368007D01*
X467070Y367325D01*
X466873Y366826D01*
X463953D01*
Y369500D01*
X456047D01*
Y366826D01*
X454649D01*
X446700Y374775D01*
X446907Y375274D01*
X560943D01*
X561451Y375375D01*
X561881Y375663D01*
X637908Y451690D01*
X638300Y451612D01*
X639197Y451790D01*
X639958Y452298D01*
X640467Y453059D01*
X640645Y453957D01*
X640467Y454854D01*
X639958Y455615D01*
X639197Y456123D01*
X638300Y456302D01*
D02*
G37*
G36*
X50000Y458785D02*
X49020Y458656D01*
X48107Y458278D01*
X47324Y457677D01*
X46722Y456893D01*
X46344Y455980D01*
X46215Y455000D01*
X46344Y454020D01*
X46722Y453107D01*
X47324Y452323D01*
X48107Y451722D01*
X49020Y451344D01*
X50000Y451215D01*
X50980Y451344D01*
X51893Y451722D01*
X52676Y452323D01*
X53278Y453107D01*
X53656Y454020D01*
X53785Y455000D01*
X53656Y455980D01*
X53278Y456893D01*
X52676Y457677D01*
X51893Y458278D01*
X50980Y458656D01*
X50000Y458785D01*
D02*
G37*
G36*
X20000D02*
X19020Y458656D01*
X18107Y458278D01*
X17323Y457677D01*
X16722Y456893D01*
X16344Y455980D01*
X16215Y455000D01*
X16344Y454020D01*
X16722Y453107D01*
X17323Y452323D01*
X18107Y451722D01*
X19020Y451344D01*
X20000Y451215D01*
X20980Y451344D01*
X21893Y451722D01*
X22677Y452323D01*
X23278Y453107D01*
X23656Y454020D01*
X23785Y455000D01*
X23656Y455980D01*
X23278Y456893D01*
X22677Y457677D01*
X21893Y458278D01*
X20980Y458656D01*
X20000Y458785D01*
D02*
G37*
G36*
X407100Y448550D02*
Y446600D01*
X409050D01*
X408955Y447076D01*
X408402Y447902D01*
X407576Y448455D01*
X407100Y448550D01*
D02*
G37*
G36*
X406100D02*
X405624Y448455D01*
X404798Y447902D01*
X404245Y447076D01*
X404150Y446600D01*
X406100D01*
Y448550D01*
D02*
G37*
G36*
X409050Y445600D02*
X407100D01*
Y443650D01*
X407576Y443745D01*
X408402Y444298D01*
X408955Y445124D01*
X409050Y445600D01*
D02*
G37*
G36*
X406100D02*
X404150D01*
X404245Y445124D01*
X404798Y444298D01*
X405624Y443745D01*
X406100Y443650D01*
Y445600D01*
D02*
G37*
G36*
X50000Y448785D02*
X49020Y448656D01*
X48107Y448278D01*
X47324Y447677D01*
X46722Y446893D01*
X46344Y445980D01*
X46215Y445000D01*
X46344Y444020D01*
X46722Y443107D01*
X47324Y442323D01*
X48107Y441722D01*
X49020Y441344D01*
X50000Y441215D01*
X50980Y441344D01*
X51893Y441722D01*
X52676Y442323D01*
X53278Y443107D01*
X53656Y444020D01*
X53785Y445000D01*
X53656Y445980D01*
X53278Y446893D01*
X52676Y447677D01*
X51893Y448278D01*
X50980Y448656D01*
X50000Y448785D01*
D02*
G37*
G36*
X20000D02*
X19020Y448656D01*
X18107Y448278D01*
X17323Y447677D01*
X16722Y446893D01*
X16344Y445980D01*
X16215Y445000D01*
X16344Y444020D01*
X16722Y443107D01*
X17323Y442323D01*
X18107Y441722D01*
X19020Y441344D01*
X20000Y441215D01*
X20980Y441344D01*
X21893Y441722D01*
X22677Y442323D01*
X23278Y443107D01*
X23656Y444020D01*
X23785Y445000D01*
X23656Y445980D01*
X23278Y446893D01*
X22677Y447677D01*
X21893Y448278D01*
X20980Y448656D01*
X20000Y448785D01*
D02*
G37*
G36*
X50000Y438785D02*
X49020Y438656D01*
X48107Y438278D01*
X47324Y437676D01*
X46722Y436893D01*
X46344Y435980D01*
X46215Y435000D01*
X46344Y434020D01*
X46722Y433107D01*
X47324Y432324D01*
X48107Y431722D01*
X49020Y431344D01*
X50000Y431215D01*
X50980Y431344D01*
X51893Y431722D01*
X52676Y432324D01*
X53278Y433107D01*
X53656Y434020D01*
X53785Y435000D01*
X53656Y435980D01*
X53278Y436893D01*
X52676Y437676D01*
X51893Y438278D01*
X50980Y438656D01*
X50000Y438785D01*
D02*
G37*
G36*
X20000D02*
X19020Y438656D01*
X18107Y438278D01*
X17323Y437676D01*
X16722Y436893D01*
X16344Y435980D01*
X16215Y435000D01*
X16344Y434020D01*
X16722Y433107D01*
X17323Y432324D01*
X18107Y431722D01*
X19020Y431344D01*
X20000Y431215D01*
X20980Y431344D01*
X21893Y431722D01*
X22677Y432324D01*
X23278Y433107D01*
X23656Y434020D01*
X23785Y435000D01*
X23656Y435980D01*
X23278Y436893D01*
X22677Y437676D01*
X21893Y438278D01*
X20980Y438656D01*
X20000Y438785D01*
D02*
G37*
G36*
Y428785D02*
X19020Y428656D01*
X18107Y428278D01*
X17323Y427676D01*
X16722Y426893D01*
X16344Y425980D01*
X16215Y425000D01*
X16344Y424020D01*
X16722Y423107D01*
X17323Y422324D01*
X18107Y421722D01*
X19020Y421344D01*
X20000Y421215D01*
X20980Y421344D01*
X21893Y421722D01*
X22677Y422324D01*
X23278Y423107D01*
X23656Y424020D01*
X23785Y425000D01*
X23656Y425980D01*
X23278Y426893D01*
X22677Y427676D01*
X21893Y428278D01*
X20980Y428656D01*
X20000Y428785D01*
D02*
G37*
G36*
X858887Y486525D02*
X788900D01*
X788393Y486425D01*
X787963Y486137D01*
X784392Y482567D01*
X784000Y482645D01*
X783103Y482467D01*
X782342Y481958D01*
X781833Y481197D01*
X781655Y480300D01*
X781833Y479403D01*
X782342Y478642D01*
X783103Y478133D01*
X784000Y477955D01*
X784897Y478133D01*
X785658Y478642D01*
X786167Y479403D01*
X786345Y480300D01*
X786267Y480692D01*
X789449Y483875D01*
X858338D01*
X859950Y482263D01*
X860380Y481975D01*
X860887Y481875D01*
X1065951D01*
X1072375Y475451D01*
Y424480D01*
X1072042Y424258D01*
X1071533Y423497D01*
X1071355Y422600D01*
X1071533Y421703D01*
X1072042Y420942D01*
X1072803Y420433D01*
X1073700Y420255D01*
X1074597Y420433D01*
X1075358Y420942D01*
X1075867Y421703D01*
X1076045Y422600D01*
X1075867Y423497D01*
X1075358Y424258D01*
X1075025Y424480D01*
Y476000D01*
X1074925Y476507D01*
X1074637Y476937D01*
X1067437Y484137D01*
X1067007Y484425D01*
X1066500Y484525D01*
X861436D01*
X859824Y486137D01*
X859394Y486425D01*
X858887Y486525D01*
D02*
G37*
G36*
X374500Y415949D02*
Y414000D01*
X376449D01*
X376355Y414475D01*
X375802Y415302D01*
X374975Y415855D01*
X374500Y415949D01*
D02*
G37*
G36*
X373500D02*
X373025Y415855D01*
X372198Y415302D01*
X371645Y414475D01*
X371550Y414000D01*
X373500D01*
Y415949D01*
D02*
G37*
G36*
X20000Y418785D02*
X19020Y418656D01*
X18107Y418278D01*
X17323Y417676D01*
X16722Y416893D01*
X16344Y415980D01*
X16215Y415000D01*
X16344Y414020D01*
X16722Y413107D01*
X17323Y412324D01*
X18107Y411722D01*
X19020Y411344D01*
X20000Y411215D01*
X20980Y411344D01*
X21893Y411722D01*
X22677Y412324D01*
X23278Y413107D01*
X23656Y414020D01*
X23785Y415000D01*
X23656Y415980D01*
X23278Y416893D01*
X22677Y417676D01*
X21893Y418278D01*
X20980Y418656D01*
X20000Y418785D01*
D02*
G37*
G36*
X376449Y413000D02*
X374500D01*
Y411051D01*
X374975Y411145D01*
X375802Y411698D01*
X376355Y412525D01*
X376449Y413000D01*
D02*
G37*
G36*
X373500D02*
X371550D01*
X371645Y412525D01*
X372198Y411698D01*
X373025Y411145D01*
X373500Y411051D01*
Y413000D01*
D02*
G37*
G36*
X50000Y468785D02*
X49020Y468656D01*
X48107Y468278D01*
X47324Y467676D01*
X46722Y466893D01*
X46344Y465980D01*
X46215Y465000D01*
X46344Y464020D01*
X46722Y463107D01*
X47324Y462324D01*
X48107Y461722D01*
X49020Y461344D01*
X50000Y461215D01*
X50980Y461344D01*
X51547Y461579D01*
X56663Y456463D01*
X57093Y456175D01*
X57600Y456074D01*
X278651D01*
X323133Y411592D01*
X323055Y411200D01*
X323233Y410303D01*
X323742Y409542D01*
X324503Y409033D01*
X325400Y408855D01*
X326297Y409033D01*
X327058Y409542D01*
X327567Y410303D01*
X327745Y411200D01*
X327567Y412097D01*
X327058Y412858D01*
X326297Y413367D01*
X325400Y413545D01*
X325008Y413467D01*
X280137Y458337D01*
X279707Y458625D01*
X279200Y458726D01*
X58149D01*
X53421Y463453D01*
X53656Y464020D01*
X53785Y465000D01*
X53656Y465980D01*
X53278Y466893D01*
X52676Y467676D01*
X51893Y468278D01*
X50980Y468656D01*
X50000Y468785D01*
D02*
G37*
G36*
X431100Y428945D02*
X430203Y428767D01*
X429442Y428258D01*
X428933Y427497D01*
X428755Y426600D01*
X428933Y425703D01*
X429442Y424942D01*
X429775Y424719D01*
Y405549D01*
X428492Y404267D01*
X428100Y404345D01*
X427203Y404167D01*
X426442Y403658D01*
X425933Y402897D01*
X425755Y402000D01*
X425933Y401103D01*
X426442Y400342D01*
X427203Y399833D01*
X428100Y399655D01*
X428997Y399833D01*
X429758Y400342D01*
X430267Y401103D01*
X430445Y402000D01*
X430367Y402392D01*
X432037Y404063D01*
X432325Y404493D01*
X432425Y405000D01*
Y424719D01*
X432758Y424942D01*
X433267Y425703D01*
X433445Y426600D01*
X433267Y427497D01*
X432758Y428258D01*
X431997Y428767D01*
X431100Y428945D01*
D02*
G37*
G36*
X50000Y428785D02*
X49020Y428656D01*
X48107Y428278D01*
X47324Y427676D01*
X46722Y426893D01*
X46344Y425980D01*
X46215Y425000D01*
X46344Y424020D01*
X46722Y423107D01*
X47324Y422324D01*
X48107Y421722D01*
X49020Y421344D01*
X50000Y421215D01*
X50980Y421344D01*
X51547Y421579D01*
X63663Y409463D01*
X64093Y409175D01*
X64600Y409074D01*
X303151D01*
X330933Y381293D01*
X330855Y380900D01*
X331033Y380003D01*
X331542Y379242D01*
X332303Y378733D01*
X333200Y378555D01*
X334097Y378733D01*
X334858Y379242D01*
X335367Y380003D01*
X335545Y380900D01*
X335367Y381797D01*
X334858Y382558D01*
X334097Y383067D01*
X333200Y383245D01*
X332807Y383167D01*
X312738Y403237D01*
X312984Y403698D01*
X313100Y403675D01*
X341143D01*
X341803Y403233D01*
X342700Y403055D01*
X343597Y403233D01*
X344358Y403742D01*
X344867Y404503D01*
X345045Y405400D01*
X344867Y406297D01*
X344358Y407058D01*
X343597Y407567D01*
X342700Y407745D01*
X341803Y407567D01*
X341042Y407058D01*
X340552Y406325D01*
X313649D01*
X302437Y417537D01*
X302007Y417825D01*
X301500Y417926D01*
X233700D01*
X233193Y417825D01*
X232763Y417537D01*
X230693Y415467D01*
X230300Y415545D01*
X229403Y415367D01*
X228642Y414858D01*
X228133Y414097D01*
X227955Y413200D01*
X228133Y412303D01*
X228224Y412166D01*
X227989Y411726D01*
X65149D01*
X53421Y423453D01*
X53656Y424020D01*
X53785Y425000D01*
X53656Y425980D01*
X53278Y426893D01*
X52676Y427676D01*
X51893Y428278D01*
X50980Y428656D01*
X50000Y428785D01*
D02*
G37*
G36*
X401000Y423785D02*
X400020Y423656D01*
X399107Y423278D01*
X398323Y422677D01*
X397722Y421893D01*
X397344Y420980D01*
X397215Y420000D01*
X397344Y419020D01*
X397722Y418107D01*
X398323Y417323D01*
X399107Y416722D01*
X400020Y416344D01*
X401000Y416215D01*
X401980Y416344D01*
X402547Y416579D01*
X422363Y396763D01*
X422793Y396475D01*
X423300Y396375D01*
X444751D01*
X456579Y384547D01*
X456344Y383980D01*
X456215Y383000D01*
X456344Y382020D01*
X456722Y381107D01*
X457324Y380324D01*
X458107Y379722D01*
X459020Y379344D01*
X460000Y379215D01*
X460980Y379344D01*
X461893Y379722D01*
X462676Y380324D01*
X463278Y381107D01*
X463513Y381675D01*
X466487D01*
X466722Y381107D01*
X467323Y380324D01*
X468107Y379722D01*
X469020Y379344D01*
X470000Y379215D01*
X470980Y379344D01*
X471893Y379722D01*
X472677Y380324D01*
X473278Y381107D01*
X473513Y381675D01*
X476487D01*
X476722Y381107D01*
X477323Y380324D01*
X478107Y379722D01*
X479020Y379344D01*
X480000Y379215D01*
X480980Y379344D01*
X481893Y379722D01*
X482677Y380324D01*
X483278Y381107D01*
X483513Y381675D01*
X486487D01*
X486722Y381107D01*
X487324Y380324D01*
X488107Y379722D01*
X489020Y379344D01*
X490000Y379215D01*
X490980Y379344D01*
X491893Y379722D01*
X492676Y380324D01*
X493278Y381107D01*
X493513Y381675D01*
X496487D01*
X496722Y381107D01*
X497324Y380324D01*
X498107Y379722D01*
X499020Y379344D01*
X500000Y379215D01*
X500980Y379344D01*
X501893Y379722D01*
X502676Y380324D01*
X503278Y381107D01*
X503513Y381675D01*
X506487D01*
X506722Y381107D01*
X507324Y380324D01*
X508107Y379722D01*
X509020Y379344D01*
X510000Y379215D01*
X510980Y379344D01*
X511893Y379722D01*
X512676Y380324D01*
X513278Y381107D01*
X513513Y381675D01*
X516487D01*
X516722Y381107D01*
X517323Y380324D01*
X518107Y379722D01*
X519020Y379344D01*
X520000Y379215D01*
X520980Y379344D01*
X521893Y379722D01*
X522677Y380324D01*
X523278Y381107D01*
X523513Y381675D01*
X526487D01*
X526722Y381107D01*
X527323Y380324D01*
X528107Y379722D01*
X529020Y379344D01*
X530000Y379215D01*
X530980Y379344D01*
X531893Y379722D01*
X532677Y380324D01*
X533278Y381107D01*
X533513Y381675D01*
X536487D01*
X536722Y381107D01*
X537324Y380324D01*
X538107Y379722D01*
X539020Y379344D01*
X540000Y379215D01*
X540980Y379344D01*
X541893Y379722D01*
X542676Y380324D01*
X543278Y381107D01*
X543513Y381675D01*
X546247D01*
Y379247D01*
X553753D01*
Y386753D01*
X546247D01*
Y384326D01*
X543513D01*
X543278Y384893D01*
X542676Y385677D01*
X541893Y386278D01*
X540980Y386656D01*
X540000Y386785D01*
X539020Y386656D01*
X538107Y386278D01*
X537324Y385677D01*
X536722Y384893D01*
X536487Y384326D01*
X533513D01*
X533278Y384893D01*
X532677Y385677D01*
X531893Y386278D01*
X530980Y386656D01*
X530000Y386785D01*
X529020Y386656D01*
X528107Y386278D01*
X527323Y385677D01*
X526722Y384893D01*
X526487Y384326D01*
X523513D01*
X523278Y384893D01*
X522677Y385677D01*
X521893Y386278D01*
X520980Y386656D01*
X520000Y386785D01*
X519020Y386656D01*
X518107Y386278D01*
X517323Y385677D01*
X516722Y384893D01*
X516487Y384326D01*
X513513D01*
X513278Y384893D01*
X512676Y385677D01*
X511893Y386278D01*
X510980Y386656D01*
X510000Y386785D01*
X509020Y386656D01*
X508107Y386278D01*
X507324Y385677D01*
X506722Y384893D01*
X506487Y384326D01*
X503513D01*
X503278Y384893D01*
X502676Y385677D01*
X501893Y386278D01*
X500980Y386656D01*
X500000Y386785D01*
X499020Y386656D01*
X498107Y386278D01*
X497324Y385677D01*
X496722Y384893D01*
X496487Y384326D01*
X493513D01*
X493278Y384893D01*
X492676Y385677D01*
X491893Y386278D01*
X490980Y386656D01*
X490000Y386785D01*
X489020Y386656D01*
X488107Y386278D01*
X487324Y385677D01*
X486722Y384893D01*
X486487Y384326D01*
X483513D01*
X483278Y384893D01*
X482677Y385677D01*
X481893Y386278D01*
X480980Y386656D01*
X480000Y386785D01*
X479020Y386656D01*
X478107Y386278D01*
X477323Y385677D01*
X476722Y384893D01*
X476487Y384326D01*
X473513D01*
X473278Y384893D01*
X472677Y385677D01*
X471893Y386278D01*
X470980Y386656D01*
X470000Y386785D01*
X469020Y386656D01*
X468107Y386278D01*
X467323Y385677D01*
X466722Y384893D01*
X466487Y384326D01*
X463513D01*
X463278Y384893D01*
X462676Y385677D01*
X461893Y386278D01*
X460980Y386656D01*
X460000Y386785D01*
X459020Y386656D01*
X458453Y386421D01*
X446237Y398637D01*
X445807Y398925D01*
X445300Y399026D01*
X423849D01*
X404421Y418453D01*
X404656Y419020D01*
X404785Y420000D01*
X404656Y420980D01*
X404278Y421893D01*
X403677Y422677D01*
X402893Y423278D01*
X401980Y423656D01*
X401000Y423785D01*
D02*
G37*
G36*
X50500Y378921D02*
Y375500D01*
X53921D01*
X53851Y376032D01*
X53453Y376993D01*
X52819Y377819D01*
X51993Y378453D01*
X51032Y378851D01*
X50500Y378921D01*
D02*
G37*
G36*
X744700Y374449D02*
X744225Y374355D01*
X743398Y373802D01*
X742845Y372975D01*
X742751Y372500D01*
X744700D01*
Y374449D01*
D02*
G37*
G36*
X550500Y373921D02*
Y370500D01*
X553921D01*
X553851Y371032D01*
X553453Y371993D01*
X552819Y372819D01*
X551993Y373453D01*
X551032Y373851D01*
X550500Y373921D01*
D02*
G37*
G36*
X549500D02*
X548968Y373851D01*
X548007Y373453D01*
X547181Y372819D01*
X546547Y371993D01*
X546149Y371032D01*
X546079Y370500D01*
X549500D01*
Y373921D01*
D02*
G37*
G36*
X540500D02*
Y370500D01*
X543921D01*
X543851Y371032D01*
X543453Y371993D01*
X542819Y372819D01*
X541993Y373453D01*
X541032Y373851D01*
X540500Y373921D01*
D02*
G37*
G36*
X539500D02*
X538968Y373851D01*
X538007Y373453D01*
X537181Y372819D01*
X536547Y371993D01*
X536149Y371032D01*
X536079Y370500D01*
X539500D01*
Y373921D01*
D02*
G37*
G36*
X530500D02*
Y370500D01*
X533921D01*
X533851Y371032D01*
X533453Y371993D01*
X532819Y372819D01*
X531993Y373453D01*
X531032Y373851D01*
X530500Y373921D01*
D02*
G37*
G36*
X529500D02*
X528968Y373851D01*
X528007Y373453D01*
X527181Y372819D01*
X526547Y371993D01*
X526149Y371032D01*
X526079Y370500D01*
X529500D01*
Y373921D01*
D02*
G37*
G36*
X520500D02*
Y370500D01*
X523921D01*
X523851Y371032D01*
X523453Y371993D01*
X522819Y372819D01*
X521993Y373453D01*
X521032Y373851D01*
X520500Y373921D01*
D02*
G37*
G36*
X519500D02*
X518968Y373851D01*
X518007Y373453D01*
X517181Y372819D01*
X516547Y371993D01*
X516149Y371032D01*
X516079Y370500D01*
X519500D01*
Y373921D01*
D02*
G37*
G36*
X510500D02*
Y370500D01*
X513921D01*
X513851Y371032D01*
X513453Y371993D01*
X512819Y372819D01*
X511993Y373453D01*
X511032Y373851D01*
X510500Y373921D01*
D02*
G37*
G36*
X509500D02*
X508968Y373851D01*
X508007Y373453D01*
X507181Y372819D01*
X506547Y371993D01*
X506149Y371032D01*
X506079Y370500D01*
X509500D01*
Y373921D01*
D02*
G37*
G36*
X500500D02*
Y370500D01*
X503921D01*
X503851Y371032D01*
X503453Y371993D01*
X502819Y372819D01*
X501993Y373453D01*
X501032Y373851D01*
X500500Y373921D01*
D02*
G37*
G36*
X499500D02*
X498968Y373851D01*
X498007Y373453D01*
X497181Y372819D01*
X496547Y371993D01*
X496149Y371032D01*
X496079Y370500D01*
X499500D01*
Y373921D01*
D02*
G37*
G36*
X490500D02*
Y370500D01*
X493921D01*
X493851Y371032D01*
X493453Y371993D01*
X492819Y372819D01*
X491993Y373453D01*
X491032Y373851D01*
X490500Y373921D01*
D02*
G37*
G36*
X489500D02*
X488968Y373851D01*
X488007Y373453D01*
X487181Y372819D01*
X486547Y371993D01*
X486149Y371032D01*
X486079Y370500D01*
X489500D01*
Y373921D01*
D02*
G37*
G36*
X480500D02*
Y370500D01*
X483921D01*
X483851Y371032D01*
X483453Y371993D01*
X482819Y372819D01*
X481993Y373453D01*
X481032Y373851D01*
X480500Y373921D01*
D02*
G37*
G36*
X479500D02*
X478968Y373851D01*
X478007Y373453D01*
X477181Y372819D01*
X476547Y371993D01*
X476149Y371032D01*
X476079Y370500D01*
X479500D01*
Y373921D01*
D02*
G37*
G36*
X470500D02*
Y370500D01*
X473921D01*
X473851Y371032D01*
X473453Y371993D01*
X472819Y372819D01*
X471993Y373453D01*
X471032Y373851D01*
X470500Y373921D01*
D02*
G37*
G36*
X469500D02*
X468968Y373851D01*
X468007Y373453D01*
X467181Y372819D01*
X466547Y371993D01*
X466149Y371032D01*
X466079Y370500D01*
X469500D01*
Y373921D01*
D02*
G37*
G36*
X463953Y373953D02*
X460500D01*
Y370500D01*
X463953D01*
Y373953D01*
D02*
G37*
G36*
X459500D02*
X456047D01*
Y370500D01*
X459500D01*
Y373953D01*
D02*
G37*
G36*
X294228Y362968D02*
X289791D01*
Y360500D01*
X294228D01*
Y362968D01*
D02*
G37*
G36*
X135228D02*
X130791D01*
Y360500D01*
X135228D01*
Y362968D01*
D02*
G37*
G36*
X104520D02*
X100083D01*
Y360500D01*
X104520D01*
Y362968D01*
D02*
G37*
G36*
X236500Y362450D02*
Y360500D01*
X238450D01*
X238355Y360976D01*
X237802Y361802D01*
X236976Y362355D01*
X236500Y362450D01*
D02*
G37*
G36*
X235500D02*
X235024Y362355D01*
X234198Y361802D01*
X233645Y360976D01*
X233551Y360500D01*
X235500D01*
Y362450D01*
D02*
G37*
G36*
X319500Y362968D02*
X315063D01*
Y360500D01*
X319500D01*
Y362968D01*
D02*
G37*
G36*
X288791D02*
X284354D01*
Y360500D01*
X288791D01*
Y362968D01*
D02*
G37*
G36*
X129791D02*
X125354D01*
Y360500D01*
X129791D01*
Y362968D01*
D02*
G37*
G36*
X99083D02*
X94646D01*
Y360500D01*
X99083D01*
Y362968D01*
D02*
G37*
G36*
X238450Y359500D02*
X236500D01*
Y357551D01*
X236976Y357645D01*
X237802Y358198D01*
X238355Y359025D01*
X238450Y359500D01*
D02*
G37*
G36*
X235500D02*
X233551D01*
X233645Y359025D01*
X234198Y358198D01*
X235024Y357645D01*
X235500Y357551D01*
Y359500D01*
D02*
G37*
G36*
X319500D02*
X315063D01*
Y357031D01*
X319500D01*
Y359500D01*
D02*
G37*
G36*
X294228D02*
X289791D01*
Y357031D01*
X294228D01*
Y359500D01*
D02*
G37*
G36*
X288791D02*
X284354D01*
Y357031D01*
X288791D01*
Y359500D01*
D02*
G37*
G36*
X135228D02*
X130791D01*
Y357031D01*
X135228D01*
Y359500D01*
D02*
G37*
G36*
X129791D02*
X125354D01*
Y357031D01*
X129791D01*
Y359500D01*
D02*
G37*
G36*
X104520D02*
X100083D01*
Y357031D01*
X104520D01*
Y359500D01*
D02*
G37*
G36*
X99083D02*
X94646D01*
Y357031D01*
X99083D01*
Y359500D01*
D02*
G37*
G36*
X294028Y342769D02*
X284554D01*
Y341325D01*
X232000D01*
X231493Y341225D01*
X231063Y340937D01*
X190392Y300267D01*
X190000Y300345D01*
X189103Y300167D01*
X188342Y299658D01*
X187833Y298897D01*
X187655Y298000D01*
X187833Y297103D01*
X188342Y296342D01*
X189103Y295833D01*
X190000Y295655D01*
X190897Y295833D01*
X191658Y296342D01*
X192167Y297103D01*
X192345Y298000D01*
X192267Y298393D01*
X232549Y338674D01*
X284554D01*
Y337231D01*
X294028D01*
Y342769D01*
D02*
G37*
G36*
X141000Y338645D02*
X140103Y338467D01*
X139342Y337958D01*
X138833Y337197D01*
X138655Y336300D01*
X138733Y335908D01*
X135428Y332603D01*
X135028Y332769D01*
Y332769D01*
X125554D01*
Y331326D01*
X104320D01*
Y332769D01*
X94846D01*
Y327232D01*
X104320D01*
Y328675D01*
X125554D01*
Y327232D01*
X135028D01*
Y328740D01*
X135207Y328775D01*
X135637Y329063D01*
X140608Y334033D01*
X141000Y333955D01*
X141897Y334133D01*
X142658Y334642D01*
X143167Y335403D01*
X143345Y336300D01*
X143167Y337197D01*
X142658Y337958D01*
X141897Y338467D01*
X141000Y338645D01*
D02*
G37*
G36*
X324737Y332769D02*
X315263D01*
Y327232D01*
X324737D01*
Y332769D01*
D02*
G37*
G36*
Y302768D02*
X315263D01*
Y301325D01*
X311900D01*
X311393Y301225D01*
X310963Y300937D01*
X309492Y299467D01*
X309100Y299545D01*
X308203Y299367D01*
X307442Y298858D01*
X306933Y298097D01*
X306755Y297200D01*
X306933Y296303D01*
X307442Y295542D01*
X308203Y295033D01*
X309100Y294855D01*
X309997Y295033D01*
X310758Y295542D01*
X311267Y296303D01*
X311445Y297200D01*
X311367Y297592D01*
X312449Y298675D01*
X315263D01*
Y297232D01*
X324737D01*
Y302768D01*
D02*
G37*
G36*
X1065091Y257769D02*
X1055617D01*
Y252232D01*
X1065091D01*
Y253675D01*
X1072120D01*
X1072342Y253342D01*
X1073103Y252833D01*
X1074000Y252655D01*
X1074897Y252833D01*
X1075658Y253342D01*
X1076167Y254103D01*
X1076345Y255000D01*
X1076167Y255897D01*
X1075658Y256658D01*
X1074897Y257167D01*
X1074000Y257345D01*
X1073103Y257167D01*
X1072342Y256658D01*
X1072120Y256326D01*
X1065091D01*
Y257769D01*
D02*
G37*
G36*
X1065291Y247969D02*
X1060854D01*
Y245500D01*
X1065291D01*
Y247969D01*
D02*
G37*
G36*
X1034583D02*
X1030146D01*
Y245500D01*
X1034583D01*
Y247969D01*
D02*
G37*
G36*
X1071500Y247449D02*
Y245500D01*
X1073450D01*
X1073355Y245975D01*
X1072802Y246802D01*
X1071975Y247355D01*
X1071500Y247449D01*
D02*
G37*
G36*
X1070500D02*
X1070025Y247355D01*
X1069198Y246802D01*
X1068645Y245975D01*
X1068550Y245500D01*
X1070500D01*
Y247449D01*
D02*
G37*
G36*
X1059854Y247969D02*
X1055417D01*
Y245500D01*
X1059854D01*
Y247969D01*
D02*
G37*
G36*
X1073450Y244500D02*
X1071500D01*
Y242550D01*
X1071975Y242645D01*
X1072802Y243198D01*
X1073355Y244024D01*
X1073450Y244500D01*
D02*
G37*
G36*
X1070500D02*
X1068550D01*
X1068645Y244024D01*
X1069198Y243198D01*
X1070025Y242645D01*
X1070500Y242550D01*
Y244500D01*
D02*
G37*
G36*
X1065291D02*
X1060854D01*
Y242032D01*
X1065291D01*
Y244500D01*
D02*
G37*
G36*
X1059854D02*
X1055417D01*
Y242032D01*
X1059854D01*
Y244500D01*
D02*
G37*
G36*
X1065091Y237769D02*
X1055617D01*
Y232231D01*
X1065091D01*
Y233675D01*
X1067251D01*
X1069533Y231393D01*
X1069455Y231000D01*
X1069633Y230103D01*
X1070142Y229342D01*
X1070903Y228833D01*
X1071800Y228655D01*
X1072697Y228833D01*
X1073458Y229342D01*
X1073967Y230103D01*
X1074145Y231000D01*
X1073967Y231897D01*
X1073458Y232658D01*
X1072697Y233167D01*
X1071800Y233345D01*
X1071408Y233267D01*
X1068737Y235937D01*
X1068307Y236225D01*
X1067800Y236326D01*
X1065091D01*
Y237769D01*
D02*
G37*
G36*
X384900Y217345D02*
X384003Y217167D01*
X383242Y216658D01*
X382733Y215897D01*
X382555Y215000D01*
X382733Y214103D01*
X383242Y213342D01*
X384003Y212833D01*
X384900Y212655D01*
X385293Y212733D01*
X429233Y168792D01*
X429155Y168400D01*
X429333Y167503D01*
X429842Y166742D01*
X430603Y166233D01*
X431500Y166055D01*
X432397Y166233D01*
X433158Y166742D01*
X433667Y167503D01*
X433845Y168400D01*
X433667Y169297D01*
X433158Y170058D01*
X432397Y170567D01*
X431500Y170745D01*
X431108Y170667D01*
X394837Y206937D01*
X395084Y207398D01*
X395300Y207355D01*
X396197Y207533D01*
X396958Y208042D01*
X397181Y208375D01*
X530342D01*
X530825Y207891D01*
X530385Y206827D01*
X530222Y205591D01*
X530385Y204354D01*
X530862Y203202D01*
X531622Y202212D01*
X532611Y201453D01*
X533763Y200975D01*
X535000Y200813D01*
X536237Y200975D01*
X537389Y201453D01*
X538378Y202212D01*
X539138Y203202D01*
X539615Y204354D01*
X539778Y205591D01*
X539615Y206827D01*
X539138Y207979D01*
X538378Y208969D01*
X537389Y209728D01*
X536237Y210206D01*
X535000Y210368D01*
X533763Y210206D01*
X532700Y209765D01*
X531828Y210637D01*
X531398Y210925D01*
X530891Y211026D01*
X397181D01*
X396958Y211358D01*
X396197Y211867D01*
X395300Y212045D01*
X394403Y211867D01*
X393642Y211358D01*
X393133Y210597D01*
X392955Y209700D01*
X392998Y209484D01*
X392537Y209237D01*
X387167Y214608D01*
X387245Y215000D01*
X387067Y215897D01*
X386558Y216658D01*
X385797Y217167D01*
X384900Y217345D01*
D02*
G37*
G36*
X20000Y198785D02*
X19020Y198656D01*
X18107Y198278D01*
X17323Y197677D01*
X16722Y196893D01*
X16344Y195980D01*
X16215Y195000D01*
X16344Y194020D01*
X16722Y193107D01*
X17323Y192324D01*
X18107Y191722D01*
X19020Y191344D01*
X20000Y191215D01*
X20980Y191344D01*
X21893Y191722D01*
X22677Y192324D01*
X23278Y193107D01*
X23656Y194020D01*
X23785Y195000D01*
X23656Y195980D01*
X23278Y196893D01*
X22677Y197677D01*
X21893Y198278D01*
X20980Y198656D01*
X20000Y198785D01*
D02*
G37*
G36*
Y188785D02*
X19020Y188656D01*
X18107Y188278D01*
X17323Y187677D01*
X16722Y186893D01*
X16344Y185980D01*
X16215Y185000D01*
X16344Y184020D01*
X16722Y183107D01*
X17323Y182324D01*
X18107Y181722D01*
X19020Y181344D01*
X20000Y181215D01*
X20980Y181344D01*
X21893Y181722D01*
X22677Y182324D01*
X23278Y183107D01*
X23656Y184020D01*
X23785Y185000D01*
X23656Y185980D01*
X23278Y186893D01*
X22677Y187677D01*
X21893Y188278D01*
X20980Y188656D01*
X20000Y188785D01*
D02*
G37*
G36*
X539737Y169146D02*
X530263D01*
Y159672D01*
X539737D01*
Y169146D01*
D02*
G37*
G36*
X535000Y140368D02*
X533763Y140206D01*
X532611Y139728D01*
X531622Y138969D01*
X530862Y137979D01*
X530385Y136827D01*
X530222Y135591D01*
X530385Y134354D01*
X530862Y133202D01*
X531622Y132212D01*
X532611Y131453D01*
X533763Y130975D01*
X535000Y130813D01*
X536237Y130975D01*
X537389Y131453D01*
X538378Y132212D01*
X539138Y133202D01*
X539615Y134354D01*
X539778Y135591D01*
X539615Y136827D01*
X539138Y137979D01*
X538378Y138969D01*
X537389Y139728D01*
X536237Y140206D01*
X535000Y140368D01*
D02*
G37*
G36*
X400600Y133845D02*
X399703Y133667D01*
X398942Y133158D01*
X398433Y132397D01*
X398255Y131500D01*
X398433Y130603D01*
X398942Y129842D01*
X399703Y129333D01*
X400600Y129155D01*
X400992Y129233D01*
X436753Y93472D01*
X437183Y93185D01*
X437691Y93084D01*
X530263D01*
Y89672D01*
X539737D01*
Y99146D01*
X530263D01*
Y95735D01*
X438240D01*
X402867Y131107D01*
X402945Y131500D01*
X402767Y132397D01*
X402258Y133158D01*
X401497Y133667D01*
X400600Y133845D01*
D02*
G37*
G36*
X653200Y78350D02*
Y76400D01*
X655150D01*
X655055Y76876D01*
X654502Y77702D01*
X653676Y78255D01*
X653200Y78350D01*
D02*
G37*
G36*
X652200D02*
X651724Y78255D01*
X650898Y77702D01*
X650345Y76876D01*
X650250Y76400D01*
X652200D01*
Y78350D01*
D02*
G37*
G36*
X655150Y75400D02*
X653200D01*
Y73450D01*
X653676Y73545D01*
X654502Y74098D01*
X655055Y74924D01*
X655150Y75400D01*
D02*
G37*
G36*
X652200D02*
X650250D01*
X650345Y74924D01*
X650898Y74098D01*
X651724Y73545D01*
X652200Y73450D01*
Y75400D01*
D02*
G37*
G36*
X440000Y73785D02*
X439020Y73656D01*
X438107Y73278D01*
X437324Y72676D01*
X436722Y71893D01*
X436487Y71325D01*
X433513D01*
X433278Y71893D01*
X432677Y72676D01*
X431893Y73278D01*
X430980Y73656D01*
X430000Y73785D01*
X429020Y73656D01*
X428107Y73278D01*
X427323Y72676D01*
X426722Y71893D01*
X426487Y71325D01*
X423513D01*
X423278Y71893D01*
X422677Y72676D01*
X421893Y73278D01*
X420980Y73656D01*
X420000Y73785D01*
X419020Y73656D01*
X418107Y73278D01*
X417323Y72676D01*
X416722Y71893D01*
X416487Y71325D01*
X413513D01*
X413278Y71893D01*
X412676Y72676D01*
X411893Y73278D01*
X410980Y73656D01*
X410000Y73785D01*
X409020Y73656D01*
X408107Y73278D01*
X407324Y72676D01*
X406722Y71893D01*
X406487Y71325D01*
X403513D01*
X403278Y71893D01*
X402676Y72676D01*
X401893Y73278D01*
X400980Y73656D01*
X400000Y73785D01*
X399020Y73656D01*
X398107Y73278D01*
X397323Y72676D01*
X396722Y71893D01*
X396487Y71325D01*
X393513D01*
X393278Y71893D01*
X392676Y72676D01*
X391893Y73278D01*
X390980Y73656D01*
X390000Y73785D01*
X389020Y73656D01*
X388107Y73278D01*
X387323Y72676D01*
X386722Y71893D01*
X386487Y71325D01*
X383513D01*
X383278Y71893D01*
X382677Y72676D01*
X381893Y73278D01*
X380980Y73656D01*
X380000Y73785D01*
X379020Y73656D01*
X378107Y73278D01*
X377324Y72676D01*
X376722Y71893D01*
X376487Y71325D01*
X373513D01*
X373278Y71893D01*
X372676Y72676D01*
X371893Y73278D01*
X370980Y73656D01*
X370000Y73785D01*
X369020Y73656D01*
X368107Y73278D01*
X367323Y72676D01*
X366722Y71893D01*
X366487Y71325D01*
X363513D01*
X363278Y71893D01*
X362677Y72676D01*
X361893Y73278D01*
X360980Y73656D01*
X360000Y73785D01*
X359020Y73656D01*
X358107Y73278D01*
X357324Y72676D01*
X356722Y71893D01*
X356487Y71325D01*
X353753D01*
Y73753D01*
X346247D01*
Y66247D01*
X353753D01*
Y68674D01*
X356487D01*
X356722Y68107D01*
X357324Y67323D01*
X358107Y66722D01*
X359020Y66344D01*
X360000Y66215D01*
X360980Y66344D01*
X361893Y66722D01*
X362677Y67323D01*
X363278Y68107D01*
X363513Y68674D01*
X366487D01*
X366722Y68107D01*
X367323Y67323D01*
X368107Y66722D01*
X369020Y66344D01*
X370000Y66215D01*
X370980Y66344D01*
X371893Y66722D01*
X372676Y67323D01*
X373278Y68107D01*
X373513Y68674D01*
X376487D01*
X376722Y68107D01*
X377324Y67323D01*
X378107Y66722D01*
X379020Y66344D01*
X380000Y66215D01*
X380980Y66344D01*
X381893Y66722D01*
X382677Y67323D01*
X383278Y68107D01*
X383513Y68674D01*
X386487D01*
X386722Y68107D01*
X387323Y67323D01*
X388107Y66722D01*
X389020Y66344D01*
X390000Y66215D01*
X390980Y66344D01*
X391893Y66722D01*
X392676Y67323D01*
X393278Y68107D01*
X393513Y68674D01*
X396487D01*
X396722Y68107D01*
X397323Y67323D01*
X398107Y66722D01*
X399020Y66344D01*
X400000Y66215D01*
X400980Y66344D01*
X401893Y66722D01*
X402676Y67323D01*
X403278Y68107D01*
X403513Y68674D01*
X406487D01*
X406722Y68107D01*
X407324Y67323D01*
X408107Y66722D01*
X409020Y66344D01*
X410000Y66215D01*
X410980Y66344D01*
X411893Y66722D01*
X412676Y67323D01*
X413278Y68107D01*
X413513Y68674D01*
X416487D01*
X416722Y68107D01*
X417323Y67323D01*
X418107Y66722D01*
X419020Y66344D01*
X420000Y66215D01*
X420980Y66344D01*
X421893Y66722D01*
X422677Y67323D01*
X423278Y68107D01*
X423513Y68674D01*
X426487D01*
X426722Y68107D01*
X427323Y67323D01*
X428107Y66722D01*
X429020Y66344D01*
X430000Y66215D01*
X430980Y66344D01*
X431893Y66722D01*
X432677Y67323D01*
X433278Y68107D01*
X433513Y68674D01*
X436487D01*
X436722Y68107D01*
X437324Y67323D01*
X438107Y66722D01*
X439020Y66344D01*
X440000Y66215D01*
X440980Y66344D01*
X441893Y66722D01*
X442676Y67323D01*
X443278Y68107D01*
X443656Y69020D01*
X443785Y70000D01*
X443656Y70980D01*
X443278Y71893D01*
X442676Y72676D01*
X441893Y73278D01*
X440980Y73656D01*
X440000Y73785D01*
D02*
G37*
G36*
X942968Y75291D02*
X940500D01*
Y70854D01*
X942968D01*
Y75291D01*
D02*
G37*
G36*
X922968D02*
X920500D01*
Y70854D01*
X922968D01*
Y75291D01*
D02*
G37*
G36*
X912969D02*
X910500D01*
Y70854D01*
X912969D01*
Y75291D01*
D02*
G37*
G36*
X932969D02*
X930500D01*
Y70854D01*
X932969D01*
Y75291D01*
D02*
G37*
G36*
X939500D02*
X937031D01*
Y70854D01*
X939500D01*
Y75291D01*
D02*
G37*
G36*
X919500D02*
X917031D01*
Y70854D01*
X919500D01*
Y75291D01*
D02*
G37*
G36*
X909500D02*
X907032D01*
Y70854D01*
X909500D01*
Y75291D01*
D02*
G37*
G36*
X929500D02*
X927032D01*
Y70854D01*
X929500D01*
Y75291D01*
D02*
G37*
G36*
X550500Y73921D02*
Y70500D01*
X553921D01*
X553851Y71032D01*
X553453Y71993D01*
X552819Y72819D01*
X551993Y73453D01*
X551032Y73851D01*
X550500Y73921D01*
D02*
G37*
G36*
X549500D02*
X548968Y73851D01*
X548007Y73453D01*
X547181Y72819D01*
X546547Y71993D01*
X546149Y71032D01*
X546079Y70500D01*
X549500D01*
Y73921D01*
D02*
G37*
G36*
X540500D02*
Y70500D01*
X543921D01*
X543851Y71032D01*
X543453Y71993D01*
X542819Y72819D01*
X541993Y73453D01*
X541032Y73851D01*
X540500Y73921D01*
D02*
G37*
G36*
X539500D02*
X538968Y73851D01*
X538007Y73453D01*
X537181Y72819D01*
X536547Y71993D01*
X536149Y71032D01*
X536079Y70500D01*
X539500D01*
Y73921D01*
D02*
G37*
G36*
X530500D02*
Y70500D01*
X533921D01*
X533851Y71032D01*
X533453Y71993D01*
X532819Y72819D01*
X531993Y73453D01*
X531032Y73851D01*
X530500Y73921D01*
D02*
G37*
G36*
X529500D02*
X528968Y73851D01*
X528007Y73453D01*
X527181Y72819D01*
X526547Y71993D01*
X526149Y71032D01*
X526079Y70500D01*
X529500D01*
Y73921D01*
D02*
G37*
G36*
X520500D02*
Y70500D01*
X523921D01*
X523851Y71032D01*
X523453Y71993D01*
X522819Y72819D01*
X521993Y73453D01*
X521032Y73851D01*
X520500Y73921D01*
D02*
G37*
G36*
X519500D02*
X518968Y73851D01*
X518007Y73453D01*
X517181Y72819D01*
X516547Y71993D01*
X516149Y71032D01*
X516079Y70500D01*
X519500D01*
Y73921D01*
D02*
G37*
G36*
X510500D02*
Y70500D01*
X513921D01*
X513851Y71032D01*
X513453Y71993D01*
X512819Y72819D01*
X511993Y73453D01*
X511032Y73851D01*
X510500Y73921D01*
D02*
G37*
G36*
X509500D02*
X508968Y73851D01*
X508007Y73453D01*
X507181Y72819D01*
X506547Y71993D01*
X506149Y71032D01*
X506079Y70500D01*
X509500D01*
Y73921D01*
D02*
G37*
G36*
X500500D02*
Y70500D01*
X503921D01*
X503851Y71032D01*
X503453Y71993D01*
X502819Y72819D01*
X501993Y73453D01*
X501032Y73851D01*
X500500Y73921D01*
D02*
G37*
G36*
X499500D02*
X498968Y73851D01*
X498007Y73453D01*
X497181Y72819D01*
X496547Y71993D01*
X496149Y71032D01*
X496079Y70500D01*
X499500D01*
Y73921D01*
D02*
G37*
G36*
X490500D02*
Y70500D01*
X493921D01*
X493851Y71032D01*
X493453Y71993D01*
X492819Y72819D01*
X491993Y73453D01*
X491032Y73851D01*
X490500Y73921D01*
D02*
G37*
G36*
X489500D02*
X488968Y73851D01*
X488007Y73453D01*
X487181Y72819D01*
X486547Y71993D01*
X486149Y71032D01*
X486079Y70500D01*
X489500D01*
Y73921D01*
D02*
G37*
G36*
X480500D02*
Y70500D01*
X483921D01*
X483851Y71032D01*
X483453Y71993D01*
X482819Y72819D01*
X481993Y73453D01*
X481032Y73851D01*
X480500Y73921D01*
D02*
G37*
G36*
X479500D02*
X478968Y73851D01*
X478007Y73453D01*
X477181Y72819D01*
X476547Y71993D01*
X476149Y71032D01*
X476079Y70500D01*
X479500D01*
Y73921D01*
D02*
G37*
G36*
X470500D02*
Y70500D01*
X473921D01*
X473851Y71032D01*
X473453Y71993D01*
X472819Y72819D01*
X471993Y73453D01*
X471032Y73851D01*
X470500Y73921D01*
D02*
G37*
G36*
X469500D02*
X468968Y73851D01*
X468007Y73453D01*
X467181Y72819D01*
X466547Y71993D01*
X466149Y71032D01*
X466079Y70500D01*
X469500D01*
Y73921D01*
D02*
G37*
G36*
X463953Y73953D02*
X460500D01*
Y70500D01*
X463953D01*
Y73953D01*
D02*
G37*
G36*
X459500D02*
X456047D01*
Y70500D01*
X459500D01*
Y73953D01*
D02*
G37*
G36*
X553921Y69500D02*
X550500D01*
Y66079D01*
X551032Y66149D01*
X551993Y66547D01*
X552819Y67181D01*
X553453Y68007D01*
X553851Y68968D01*
X553921Y69500D01*
D02*
G37*
G36*
X549500D02*
X546079D01*
X546149Y68968D01*
X546547Y68007D01*
X547181Y67181D01*
X548007Y66547D01*
X548968Y66149D01*
X549500Y66079D01*
Y69500D01*
D02*
G37*
G36*
X543921D02*
X540500D01*
Y66079D01*
X541032Y66149D01*
X541993Y66547D01*
X542819Y67181D01*
X543453Y68007D01*
X543851Y68968D01*
X543921Y69500D01*
D02*
G37*
G36*
X539500D02*
X536079D01*
X536149Y68968D01*
X536547Y68007D01*
X537181Y67181D01*
X538007Y66547D01*
X538968Y66149D01*
X539500Y66079D01*
Y69500D01*
D02*
G37*
G36*
X533921D02*
X530500D01*
Y66079D01*
X531032Y66149D01*
X531993Y66547D01*
X532819Y67181D01*
X533453Y68007D01*
X533851Y68968D01*
X533921Y69500D01*
D02*
G37*
G36*
X529500D02*
X526079D01*
X526149Y68968D01*
X526547Y68007D01*
X527181Y67181D01*
X528007Y66547D01*
X528968Y66149D01*
X529500Y66079D01*
Y69500D01*
D02*
G37*
G36*
X523921D02*
X520500D01*
Y66079D01*
X521032Y66149D01*
X521993Y66547D01*
X522819Y67181D01*
X523453Y68007D01*
X523851Y68968D01*
X523921Y69500D01*
D02*
G37*
G36*
X519500D02*
X516079D01*
X516149Y68968D01*
X516547Y68007D01*
X517181Y67181D01*
X518007Y66547D01*
X518968Y66149D01*
X519500Y66079D01*
Y69500D01*
D02*
G37*
G36*
X513921D02*
X510500D01*
Y66079D01*
X511032Y66149D01*
X511993Y66547D01*
X512819Y67181D01*
X513453Y68007D01*
X513851Y68968D01*
X513921Y69500D01*
D02*
G37*
G36*
X509500D02*
X506079D01*
X506149Y68968D01*
X506547Y68007D01*
X507181Y67181D01*
X508007Y66547D01*
X508968Y66149D01*
X509500Y66079D01*
Y69500D01*
D02*
G37*
G36*
X503921D02*
X500500D01*
Y66079D01*
X501032Y66149D01*
X501993Y66547D01*
X502819Y67181D01*
X503453Y68007D01*
X503851Y68968D01*
X503921Y69500D01*
D02*
G37*
G36*
X499500D02*
X496079D01*
X496149Y68968D01*
X496547Y68007D01*
X497181Y67181D01*
X498007Y66547D01*
X498968Y66149D01*
X499500Y66079D01*
Y69500D01*
D02*
G37*
G36*
X493921D02*
X490500D01*
Y66079D01*
X491032Y66149D01*
X491993Y66547D01*
X492819Y67181D01*
X493453Y68007D01*
X493851Y68968D01*
X493921Y69500D01*
D02*
G37*
G36*
X489500D02*
X486079D01*
X486149Y68968D01*
X486547Y68007D01*
X487181Y67181D01*
X488007Y66547D01*
X488968Y66149D01*
X489500Y66079D01*
Y69500D01*
D02*
G37*
G36*
X483921D02*
X480500D01*
Y66079D01*
X481032Y66149D01*
X481993Y66547D01*
X482819Y67181D01*
X483453Y68007D01*
X483851Y68968D01*
X483921Y69500D01*
D02*
G37*
G36*
X479500D02*
X476079D01*
X476149Y68968D01*
X476547Y68007D01*
X477181Y67181D01*
X478007Y66547D01*
X478968Y66149D01*
X479500Y66079D01*
Y69500D01*
D02*
G37*
G36*
X473921D02*
X470500D01*
Y66079D01*
X471032Y66149D01*
X471993Y66547D01*
X472819Y67181D01*
X473453Y68007D01*
X473851Y68968D01*
X473921Y69500D01*
D02*
G37*
G36*
X469500D02*
X466079D01*
X466149Y68968D01*
X466547Y68007D01*
X467181Y67181D01*
X468007Y66547D01*
X468968Y66149D01*
X469500Y66079D01*
Y69500D01*
D02*
G37*
G36*
X463953D02*
X460500D01*
Y66047D01*
X463953D01*
Y69500D01*
D02*
G37*
G36*
X459500D02*
X456047D01*
Y66047D01*
X459500D01*
Y69500D01*
D02*
G37*
G36*
X942968Y69854D02*
X940500D01*
Y65417D01*
X942968D01*
Y69854D01*
D02*
G37*
G36*
X20000Y68785D02*
X19020Y68656D01*
X18107Y68278D01*
X17323Y67677D01*
X16722Y66893D01*
X16344Y65980D01*
X16215Y65000D01*
X16344Y64020D01*
X16722Y63107D01*
X17323Y62323D01*
X18107Y61722D01*
X19020Y61344D01*
X20000Y61215D01*
X20980Y61344D01*
X21893Y61722D01*
X22677Y62323D01*
X23278Y63107D01*
X23656Y64020D01*
X23785Y65000D01*
X23656Y65980D01*
X23278Y66893D01*
X22677Y67677D01*
X21893Y68278D01*
X20980Y68656D01*
X20000Y68785D01*
D02*
G37*
G36*
X451000Y63925D02*
X433800D01*
X433293Y63825D01*
X432863Y63537D01*
X420393Y51067D01*
X420000Y51145D01*
X419103Y50967D01*
X418342Y50458D01*
X417833Y49697D01*
X417655Y48800D01*
X417833Y47903D01*
X418342Y47142D01*
X419103Y46633D01*
X420000Y46455D01*
X420897Y46633D01*
X421658Y47142D01*
X422167Y47903D01*
X422345Y48800D01*
X422267Y49193D01*
X434349Y61274D01*
X450451D01*
X450924Y60802D01*
X450870Y60177D01*
X450842Y60158D01*
X450333Y59397D01*
X450155Y58500D01*
X450333Y57603D01*
X450842Y56842D01*
X451603Y56334D01*
X452500Y56155D01*
X453397Y56334D01*
X454158Y56842D01*
X454667Y57603D01*
X454845Y58500D01*
X454667Y59397D01*
X454158Y60158D01*
X453826Y60381D01*
Y61100D01*
X453725Y61607D01*
X453437Y62037D01*
X451937Y63537D01*
X451507Y63825D01*
X451000Y63925D01*
D02*
G37*
G36*
X626900Y62345D02*
X626003Y62167D01*
X625242Y61658D01*
X624733Y60897D01*
X624555Y60000D01*
X624733Y59103D01*
X625242Y58342D01*
X626003Y57833D01*
X626900Y57655D01*
X627292Y57733D01*
X632663Y52363D01*
X633093Y52076D01*
X633600Y51975D01*
X642120D01*
X642342Y51642D01*
X643103Y51134D01*
X644000Y50955D01*
X644897Y51134D01*
X645658Y51642D01*
X646167Y52403D01*
X646345Y53300D01*
X646167Y54198D01*
X645658Y54958D01*
X644897Y55467D01*
X644000Y55645D01*
X643103Y55467D01*
X642342Y54958D01*
X642120Y54626D01*
X634149D01*
X629167Y59607D01*
X629245Y60000D01*
X629067Y60897D01*
X628558Y61658D01*
X627797Y62167D01*
X626900Y62345D01*
D02*
G37*
G36*
X20000Y48785D02*
X19020Y48656D01*
X18107Y48278D01*
X17323Y47677D01*
X16722Y46893D01*
X16344Y45980D01*
X16215Y45000D01*
X16344Y44020D01*
X16722Y43107D01*
X17323Y42323D01*
X18107Y41722D01*
X19020Y41344D01*
X20000Y41215D01*
X20980Y41344D01*
X21893Y41722D01*
X22677Y42323D01*
X23278Y43107D01*
X23656Y44020D01*
X23785Y45000D01*
X23656Y45980D01*
X23278Y46893D01*
X22677Y47677D01*
X21893Y48278D01*
X20980Y48656D01*
X20000Y48785D01*
D02*
G37*
G36*
X450500Y43921D02*
Y40500D01*
X453921D01*
X453851Y41032D01*
X453453Y41993D01*
X452819Y42819D01*
X451993Y43453D01*
X451032Y43851D01*
X450500Y43921D01*
D02*
G37*
G36*
X449500D02*
X448968Y43851D01*
X448007Y43453D01*
X447181Y42819D01*
X446547Y41993D01*
X446149Y41032D01*
X446079Y40500D01*
X449500D01*
Y43921D01*
D02*
G37*
G36*
X942968Y44583D02*
X940500D01*
Y40146D01*
X942968D01*
Y44583D01*
D02*
G37*
G36*
X922968D02*
X920500D01*
Y40146D01*
X922968D01*
Y44583D01*
D02*
G37*
G36*
X912969D02*
X910500D01*
Y40146D01*
X912969D01*
Y44583D01*
D02*
G37*
G36*
X932969D02*
X930500D01*
Y40146D01*
X932969D01*
Y44583D01*
D02*
G37*
G36*
X939500D02*
X937031D01*
Y40146D01*
X939500D01*
Y44583D01*
D02*
G37*
G36*
X919500D02*
X917031D01*
Y40146D01*
X919500D01*
Y44583D01*
D02*
G37*
G36*
X929500D02*
X927032D01*
Y40146D01*
X929500D01*
Y44583D01*
D02*
G37*
G36*
X194442Y29442D02*
X185558D01*
Y20558D01*
X194442D01*
Y29442D01*
D02*
G37*
G36*
X75000Y33843D02*
X73275Y33673D01*
X71616Y33169D01*
X70087Y32352D01*
X68747Y31253D01*
X67648Y29913D01*
X66830Y28384D01*
X66327Y26725D01*
X66157Y25000D01*
X66327Y23275D01*
X66830Y21616D01*
X67648Y20087D01*
X68747Y18747D01*
X70087Y17648D01*
X71616Y16830D01*
X73275Y16327D01*
X75000Y16157D01*
X76725Y16327D01*
X78384Y16830D01*
X79913Y17648D01*
X81253Y18747D01*
X82352Y20087D01*
X83170Y21616D01*
X83673Y23275D01*
X83843Y25000D01*
X83673Y26725D01*
X83170Y28384D01*
X82352Y29913D01*
X81253Y31253D01*
X79913Y32352D01*
X78384Y33169D01*
X76725Y33673D01*
X75000Y33843D01*
D02*
G37*
%LPD*%
G36*
X37163Y349063D02*
X37593Y348775D01*
X38100Y348675D01*
X47474D01*
X47644Y348175D01*
X47181Y347819D01*
X46547Y346993D01*
X46149Y346032D01*
X46079Y345500D01*
X50000D01*
Y344500D01*
X46079D01*
X46149Y343968D01*
X46547Y343007D01*
X47181Y342181D01*
X47644Y341826D01*
X47474Y341325D01*
X39178D01*
X31126Y349378D01*
Y354447D01*
X31587Y354638D01*
X37163Y349063D01*
D02*
G37*
G36*
X46608Y319063D02*
X47038Y318775D01*
X47489Y318686D01*
X47575Y318527D01*
X47644Y318175D01*
X47181Y317819D01*
X46547Y316993D01*
X46149Y316032D01*
X46079Y315500D01*
X50000D01*
X53921D01*
X53851Y316032D01*
X53453Y316993D01*
X52819Y317819D01*
X52356Y318175D01*
X52526Y318674D01*
X55151D01*
X62238Y311587D01*
X62047Y311125D01*
X52225D01*
X52190Y311189D01*
X52095Y311626D01*
X52819Y312181D01*
X53453Y313007D01*
X53851Y313968D01*
X53921Y314500D01*
X50000D01*
X46079D01*
X46149Y313968D01*
X46547Y313007D01*
X46143Y312732D01*
X42325Y316549D01*
Y322692D01*
X42787Y322884D01*
X46608Y319063D01*
D02*
G37*
G36*
X26675Y346293D02*
X26963Y345863D01*
X43763Y329063D01*
X44193Y328775D01*
X44700Y328675D01*
X47474D01*
X47644Y328174D01*
X47181Y327819D01*
X46547Y326993D01*
X46149Y326032D01*
X46079Y325500D01*
X50000D01*
X53921D01*
X53851Y326032D01*
X53453Y326993D01*
X52819Y327819D01*
X52356Y328174D01*
X52526Y328675D01*
X62351D01*
X91963Y299063D01*
X92393Y298775D01*
X92900Y298675D01*
X94846D01*
Y297925D01*
X79649D01*
X56637Y320937D01*
X56207Y321225D01*
X55700Y321325D01*
X52526D01*
X52356Y321826D01*
X52819Y322181D01*
X53453Y323007D01*
X53851Y323968D01*
X53921Y324500D01*
X50000D01*
X46079D01*
X46148Y323980D01*
X46129Y323956D01*
X45718Y323702D01*
X26125Y343295D01*
Y346495D01*
X26625Y346544D01*
X26675Y346293D01*
D02*
G37*
G36*
X39674Y323451D02*
Y316000D01*
X39775Y315493D01*
X40063Y315063D01*
X46263Y308863D01*
X46693Y308575D01*
X47200Y308474D01*
X47214D01*
X47383Y307975D01*
X47181Y307819D01*
X46547Y306993D01*
X46149Y306032D01*
X46079Y305500D01*
X50000D01*
X53921D01*
X53851Y306032D01*
X53453Y306993D01*
X52819Y307819D01*
X52617Y307975D01*
X52786Y308474D01*
X62451D01*
X78163Y292763D01*
X78593Y292475D01*
X79100Y292374D01*
X94846D01*
Y291235D01*
X94793Y291225D01*
X94363Y290937D01*
X93363Y289937D01*
X93075Y289507D01*
X92975Y289000D01*
Y276300D01*
X93075Y275793D01*
X93363Y275363D01*
X93793Y275075D01*
X94300Y274974D01*
X105351D01*
X117363Y262963D01*
X117793Y262675D01*
X118300Y262575D01*
X125554D01*
Y257231D01*
X135028D01*
Y258675D01*
X150100D01*
X150607Y258775D01*
X151037Y259063D01*
X159349Y267374D01*
X161547D01*
X161738Y266913D01*
X157092Y262267D01*
X156700Y262345D01*
X155803Y262167D01*
X155042Y261658D01*
X154533Y260897D01*
X154355Y260000D01*
X154533Y259103D01*
X155042Y258342D01*
X155803Y257833D01*
X156700Y257655D01*
X157597Y257833D01*
X158358Y258342D01*
X158867Y259103D01*
X159045Y260000D01*
X158967Y260392D01*
X164049Y265475D01*
X181147D01*
X181338Y265013D01*
X172851Y256525D01*
X96100D01*
X95593Y256425D01*
X95163Y256137D01*
X87863Y248837D01*
X87575Y248407D01*
X87475Y247900D01*
Y234400D01*
X87575Y233893D01*
X87863Y233463D01*
X89163Y232163D01*
X89593Y231875D01*
X89844Y231825D01*
X89795Y231326D01*
X77549D01*
X25725Y283149D01*
Y317300D01*
X25625Y317807D01*
X25337Y318237D01*
X22227Y321348D01*
X22270Y322012D01*
X22677Y322323D01*
X23075Y322842D01*
X23574Y322673D01*
Y321400D01*
X23675Y320893D01*
X23963Y320463D01*
X44763Y299663D01*
X45193Y299375D01*
X45700Y299274D01*
X48684D01*
X48783Y298775D01*
X48007Y298453D01*
X47181Y297819D01*
X46547Y296993D01*
X46149Y296032D01*
X46079Y295500D01*
X50000D01*
X53921D01*
X53851Y296032D01*
X53453Y296993D01*
X52819Y297819D01*
X51993Y298453D01*
X51217Y298775D01*
X51316Y299274D01*
X58051D01*
X88263Y269063D01*
X88693Y268775D01*
X89200Y268674D01*
X89200Y268674D01*
X94846D01*
Y267231D01*
X104320D01*
Y272768D01*
X94846D01*
Y271325D01*
X89749D01*
X59537Y301537D01*
X59107Y301825D01*
X58600Y301925D01*
X53253D01*
X53007Y302426D01*
X53453Y303007D01*
X53851Y303968D01*
X53921Y304500D01*
X50000D01*
X46079D01*
X46149Y303968D01*
X46547Y303007D01*
X46993Y302426D01*
X46747Y301925D01*
X46249D01*
X26226Y321949D01*
Y336193D01*
X26726Y336400D01*
X39674Y323451D01*
D02*
G37*
G36*
X245088Y183313D02*
X192401Y130625D01*
X26249D01*
X23421Y133453D01*
X23656Y134020D01*
X23785Y135000D01*
X23656Y135980D01*
X23278Y136893D01*
X22677Y137677D01*
X22027Y138174D01*
X22197Y138674D01*
X47803D01*
X47973Y138174D01*
X47324Y137677D01*
X46722Y136893D01*
X46344Y135980D01*
X46215Y135000D01*
X46344Y134020D01*
X46722Y133107D01*
X47324Y132324D01*
X48107Y131722D01*
X49020Y131344D01*
X50000Y131215D01*
X50980Y131344D01*
X51893Y131722D01*
X52676Y132324D01*
X53278Y133107D01*
X53656Y134020D01*
X53785Y135000D01*
X53656Y135980D01*
X53278Y136893D01*
X52676Y137677D01*
X52027Y138174D01*
X52197Y138674D01*
X80800D01*
X81307Y138775D01*
X81737Y139063D01*
X94184Y151509D01*
X94646Y151318D01*
Y150500D01*
X99583D01*
X104520D01*
Y152075D01*
X107878D01*
X108145Y151575D01*
X107745Y150976D01*
X107650Y150500D01*
X112549D01*
X112455Y150976D01*
X112055Y151575D01*
X112322Y152075D01*
X125354D01*
Y150500D01*
X130291D01*
X135228D01*
Y152075D01*
X194200D01*
X194707Y152175D01*
X195137Y152463D01*
X226449Y183774D01*
X244897D01*
X245088Y183313D01*
D02*
G37*
%LPC*%
G36*
X53921Y294500D02*
X50500D01*
Y291079D01*
X51032Y291149D01*
X51993Y291547D01*
X52819Y292181D01*
X53453Y293007D01*
X53851Y293968D01*
X53921Y294500D01*
D02*
G37*
G36*
X49500D02*
X46079D01*
X46149Y293968D01*
X46547Y293007D01*
X47181Y292181D01*
X48007Y291547D01*
X48968Y291149D01*
X49500Y291079D01*
Y294500D01*
D02*
G37*
G36*
X53953Y288953D02*
X50500D01*
Y285500D01*
X53953D01*
Y288953D01*
D02*
G37*
G36*
X49500D02*
X46047D01*
Y285500D01*
X49500D01*
Y288953D01*
D02*
G37*
G36*
X53953Y284500D02*
X50500D01*
Y281047D01*
X53953D01*
Y284500D01*
D02*
G37*
G36*
X49500D02*
X46047D01*
Y281047D01*
X49500D01*
Y284500D01*
D02*
G37*
G36*
X111900Y264445D02*
X111003Y264267D01*
X110242Y263758D01*
X109733Y262997D01*
X109555Y262100D01*
X109633Y261707D01*
X109251Y261326D01*
X104320D01*
Y262769D01*
X94846D01*
Y257231D01*
X104320D01*
Y258675D01*
X109800D01*
X110307Y258775D01*
X110737Y259063D01*
X111507Y259833D01*
X111900Y259755D01*
X112797Y259933D01*
X113558Y260442D01*
X114067Y261203D01*
X114245Y262100D01*
X114067Y262997D01*
X113558Y263758D01*
X112797Y264267D01*
X111900Y264445D01*
D02*
G37*
G36*
X112549Y149500D02*
X110600D01*
Y147550D01*
X111075Y147645D01*
X111902Y148198D01*
X112455Y149024D01*
X112549Y149500D01*
D02*
G37*
G36*
X109600D02*
X107650D01*
X107745Y149024D01*
X108298Y148198D01*
X109125Y147645D01*
X109600Y147550D01*
Y149500D01*
D02*
G37*
G36*
X135228D02*
X130791D01*
Y147031D01*
X135228D01*
Y149500D01*
D02*
G37*
G36*
X129791D02*
X125354D01*
Y147031D01*
X129791D01*
Y149500D01*
D02*
G37*
G36*
X104520D02*
X100083D01*
Y147031D01*
X104520D01*
Y149500D01*
D02*
G37*
G36*
X99083D02*
X94646D01*
Y147031D01*
X99083D01*
Y149500D01*
D02*
G37*
G36*
X135228Y142968D02*
X130791D01*
Y140500D01*
X135228D01*
Y142968D01*
D02*
G37*
G36*
X104520D02*
X100083D01*
Y140500D01*
X104520D01*
Y142968D01*
D02*
G37*
G36*
X129791D02*
X125354D01*
Y140500D01*
X129791D01*
Y142968D01*
D02*
G37*
G36*
X99083D02*
X94646D01*
Y140500D01*
X99083D01*
Y142968D01*
D02*
G37*
G36*
X135228Y139500D02*
X130791D01*
Y137031D01*
X135228D01*
Y139500D01*
D02*
G37*
G36*
X129791D02*
X125354D01*
Y137031D01*
X129791D01*
Y139500D01*
D02*
G37*
G36*
X104520D02*
X100083D01*
Y137031D01*
X104520D01*
Y139500D01*
D02*
G37*
G36*
X99083D02*
X94646D01*
Y137031D01*
X99083D01*
Y139500D01*
D02*
G37*
%LPD*%
D13*
X790000Y39646D02*
D03*
X770000D02*
D03*
X760000D02*
D03*
X750000D02*
D03*
X780000D02*
D03*
X830000D02*
D03*
X800000D02*
D03*
X810000D02*
D03*
X820000D02*
D03*
X840000D02*
D03*
X880000D02*
D03*
X850000D02*
D03*
X860000D02*
D03*
X870000D02*
D03*
X890000D02*
D03*
X930000D02*
D03*
X900000D02*
D03*
X910000D02*
D03*
X920000D02*
D03*
X940000D02*
D03*
Y70354D02*
D03*
X920000D02*
D03*
X910000D02*
D03*
X900000D02*
D03*
X930000D02*
D03*
X890000D02*
D03*
X870000D02*
D03*
X860000D02*
D03*
X850000D02*
D03*
X880000D02*
D03*
X840000D02*
D03*
X820000D02*
D03*
X810000D02*
D03*
X800000D02*
D03*
X830000D02*
D03*
X780000D02*
D03*
X750000D02*
D03*
X760000D02*
D03*
X770000D02*
D03*
X790000D02*
D03*
X900000Y460354D02*
D03*
X920000D02*
D03*
X930000D02*
D03*
X940000D02*
D03*
X910000D02*
D03*
X860000D02*
D03*
X890000D02*
D03*
X880000D02*
D03*
X870000D02*
D03*
X850000D02*
D03*
X810000D02*
D03*
X840000D02*
D03*
X830000D02*
D03*
X820000D02*
D03*
X800000D02*
D03*
X760000D02*
D03*
X790000D02*
D03*
X780000D02*
D03*
X770000D02*
D03*
X750000D02*
D03*
Y429646D02*
D03*
X770000D02*
D03*
X780000D02*
D03*
X790000D02*
D03*
X760000D02*
D03*
X800000D02*
D03*
X820000D02*
D03*
X830000D02*
D03*
X840000D02*
D03*
X810000D02*
D03*
X850000D02*
D03*
X870000D02*
D03*
X880000D02*
D03*
X890000D02*
D03*
X860000D02*
D03*
X910000D02*
D03*
X940000D02*
D03*
X930000D02*
D03*
X920000D02*
D03*
X900000D02*
D03*
D14*
X1060354Y305000D02*
D03*
Y325000D02*
D03*
Y335000D02*
D03*
Y345000D02*
D03*
Y315000D02*
D03*
Y265000D02*
D03*
Y295000D02*
D03*
Y285000D02*
D03*
Y275000D02*
D03*
Y255000D02*
D03*
Y215000D02*
D03*
Y245000D02*
D03*
Y235000D02*
D03*
Y225000D02*
D03*
Y205000D02*
D03*
Y165000D02*
D03*
Y195000D02*
D03*
Y185000D02*
D03*
Y175000D02*
D03*
Y155000D02*
D03*
X1029646D02*
D03*
Y175000D02*
D03*
Y185000D02*
D03*
Y195000D02*
D03*
Y165000D02*
D03*
Y205000D02*
D03*
Y225000D02*
D03*
Y235000D02*
D03*
Y245000D02*
D03*
Y215000D02*
D03*
Y255000D02*
D03*
Y275000D02*
D03*
Y285000D02*
D03*
Y295000D02*
D03*
Y265000D02*
D03*
Y315000D02*
D03*
Y345000D02*
D03*
Y335000D02*
D03*
Y325000D02*
D03*
Y305000D02*
D03*
X639646Y195000D02*
D03*
Y175000D02*
D03*
Y165000D02*
D03*
Y155000D02*
D03*
Y185000D02*
D03*
Y235000D02*
D03*
Y205000D02*
D03*
Y215000D02*
D03*
Y225000D02*
D03*
Y245000D02*
D03*
Y285000D02*
D03*
Y255000D02*
D03*
Y265000D02*
D03*
Y275000D02*
D03*
Y295000D02*
D03*
Y335000D02*
D03*
Y305000D02*
D03*
Y315000D02*
D03*
Y325000D02*
D03*
Y345000D02*
D03*
X670354D02*
D03*
Y325000D02*
D03*
Y315000D02*
D03*
Y305000D02*
D03*
Y335000D02*
D03*
Y295000D02*
D03*
Y275000D02*
D03*
Y265000D02*
D03*
Y255000D02*
D03*
Y285000D02*
D03*
Y245000D02*
D03*
Y225000D02*
D03*
Y215000D02*
D03*
Y205000D02*
D03*
Y235000D02*
D03*
Y185000D02*
D03*
Y155000D02*
D03*
Y165000D02*
D03*
Y175000D02*
D03*
Y195000D02*
D03*
X289291Y160000D02*
D03*
Y150000D02*
D03*
Y140000D02*
D03*
X320000D02*
D03*
Y150000D02*
D03*
Y160000D02*
D03*
X99583D02*
D03*
Y150000D02*
D03*
Y140000D02*
D03*
X130291Y160000D02*
D03*
X320000Y210000D02*
D03*
Y190000D02*
D03*
Y180000D02*
D03*
Y170000D02*
D03*
Y200000D02*
D03*
Y250000D02*
D03*
Y220000D02*
D03*
Y230000D02*
D03*
Y240000D02*
D03*
Y260000D02*
D03*
Y300000D02*
D03*
Y270000D02*
D03*
Y280000D02*
D03*
Y290000D02*
D03*
Y310000D02*
D03*
Y350000D02*
D03*
Y320000D02*
D03*
Y330000D02*
D03*
Y340000D02*
D03*
Y360000D02*
D03*
X289291D02*
D03*
Y340000D02*
D03*
Y330000D02*
D03*
Y320000D02*
D03*
Y350000D02*
D03*
Y310000D02*
D03*
Y290000D02*
D03*
Y280000D02*
D03*
Y270000D02*
D03*
Y300000D02*
D03*
Y260000D02*
D03*
Y240000D02*
D03*
Y230000D02*
D03*
Y220000D02*
D03*
Y250000D02*
D03*
Y200000D02*
D03*
Y170000D02*
D03*
Y180000D02*
D03*
Y190000D02*
D03*
Y210000D02*
D03*
X130291D02*
D03*
Y190000D02*
D03*
Y180000D02*
D03*
Y170000D02*
D03*
Y200000D02*
D03*
Y250000D02*
D03*
Y220000D02*
D03*
Y230000D02*
D03*
Y240000D02*
D03*
Y260000D02*
D03*
Y300000D02*
D03*
Y270000D02*
D03*
Y280000D02*
D03*
Y290000D02*
D03*
Y310000D02*
D03*
Y350000D02*
D03*
Y320000D02*
D03*
Y330000D02*
D03*
Y340000D02*
D03*
Y360000D02*
D03*
X99583D02*
D03*
Y340000D02*
D03*
Y330000D02*
D03*
Y320000D02*
D03*
Y350000D02*
D03*
Y310000D02*
D03*
Y290000D02*
D03*
Y280000D02*
D03*
Y270000D02*
D03*
Y300000D02*
D03*
Y260000D02*
D03*
Y240000D02*
D03*
Y230000D02*
D03*
Y220000D02*
D03*
Y250000D02*
D03*
Y200000D02*
D03*
Y170000D02*
D03*
Y180000D02*
D03*
Y190000D02*
D03*
Y210000D02*
D03*
X130291Y150000D02*
D03*
Y140000D02*
D03*
D22*
X239605Y282400D02*
X241705Y284500D01*
X215095Y282400D02*
X239605D01*
X212995Y284500D02*
X215095Y282400D01*
X325300Y286400D02*
X329900Y291000D01*
X241060Y286400D02*
X325300D01*
X239760Y285100D02*
X241060Y286400D01*
X324000Y284500D02*
X329000Y279500D01*
X241705Y284500D02*
X324000D01*
X213640Y286400D02*
X214940Y285100D01*
X239760D01*
X171443Y284500D02*
X212995D01*
X166943Y280000D02*
X171443Y284500D01*
X177800Y286400D02*
X213640D01*
X154200Y310000D02*
X177800Y286400D01*
X329000Y278200D02*
Y279500D01*
X335000Y263000D02*
Y281021D01*
X341700Y264100D02*
Y271200D01*
X338900Y264300D02*
Y265700D01*
X332000Y260000D02*
X335000Y263000D01*
X331100Y256500D02*
X338900Y264300D01*
X331500Y273700D02*
X333100Y275300D01*
Y286300D01*
X335300Y253700D02*
X337600Y256000D01*
Y260000D01*
X341700Y264100D01*
X335977Y251800D02*
X341500Y257323D01*
X320000Y250000D02*
X368500D01*
X326600Y251800D02*
X335977D01*
X329700Y253700D02*
X335300D01*
X328200Y255200D02*
X329700Y253700D01*
X229000Y255200D02*
X328200D01*
X126000Y245100D02*
X346300D01*
X314400Y243269D02*
X340269D01*
X325100Y253300D02*
X326600Y251800D01*
X320000Y240000D02*
X340900D01*
X321500Y273700D02*
X331500D01*
X320000Y275200D02*
X321500Y273700D01*
X332238Y287162D02*
X333100Y286300D01*
X335000Y281021D02*
X336276Y282297D01*
X320000Y275200D02*
Y280000D01*
X428100Y402000D02*
X431100Y405000D01*
Y426600D01*
X445300Y397700D02*
X460000Y383000D01*
X423300Y397700D02*
X445300D01*
X401000Y420000D02*
X423300Y397700D01*
X374000Y413500D02*
X406600Y446100D01*
X452500Y58500D02*
Y61100D01*
X451000Y62600D02*
X452500Y61100D01*
X433800Y62600D02*
X451000D01*
X420000Y48800D02*
X433800Y62600D01*
X430000Y42800D02*
X442700Y55500D01*
X355100Y401100D02*
X368800D01*
X340300Y386300D02*
X355100Y401100D01*
X340300Y379700D02*
Y386300D01*
Y379700D02*
X350000Y370000D01*
X338500Y389000D02*
X351200Y401700D01*
X338500Y367100D02*
Y389000D01*
Y367100D02*
X378200Y327400D01*
X351200Y401700D02*
Y417600D01*
X301800Y467000D02*
X351200Y417600D01*
X342300Y405000D02*
X342700Y405400D01*
X313100Y405000D02*
X342300D01*
X301500Y416600D02*
X313100Y405000D01*
X560943Y376600D02*
X638300Y453957D01*
X446400Y376600D02*
X560943D01*
X440000Y383000D02*
X446400Y376600D01*
X550000Y370000D02*
X550700Y369300D01*
X430000Y40000D02*
Y42800D01*
X99500Y250000D02*
Y252000D01*
X1006000Y104700D02*
X1017200Y115900D01*
X1058400Y302700D02*
Y305000D01*
X1059300Y345000D02*
Y378000D01*
X721400Y40200D02*
X750000D01*
X804592Y74300D02*
X810000D01*
X794300Y73000D02*
X800000D01*
X786231Y72300D02*
X790000D01*
X774000Y66300D02*
X780000D01*
X738700Y67500D02*
X750000D01*
X637700Y235000D02*
Y238440D01*
X671200Y462300D02*
X750000D01*
X709600Y429600D02*
X750000D01*
X870000Y427700D02*
X873200D01*
X1076000Y245000D02*
X1087600D01*
X1071000D02*
X1076000D01*
X940000Y58000D02*
Y70354D01*
Y39646D02*
Y58000D01*
X236000Y360000D02*
X289291D01*
X130291D02*
X236000D01*
X752800Y399000D02*
X753800Y398000D01*
Y383600D02*
Y398000D01*
Y381316D02*
Y383600D01*
X774400Y142100D02*
X797800D01*
X998145Y358955D02*
X1004200Y352900D01*
X997499Y359601D02*
X998145Y358955D01*
X997499Y376101D02*
X998145Y358955D01*
X998500Y349546D01*
X898000Y371600D02*
X918500Y392100D01*
X898000Y371600D02*
Y396000D01*
Y370700D02*
Y371600D01*
X918500Y392100D02*
X926500Y400100D01*
X883700Y357300D02*
X898000Y371600D01*
X883700Y357300D02*
X884600D01*
X929500Y197900D02*
X934500Y192900D01*
X773100Y195900D02*
X773200Y196000D01*
X775100Y197900D01*
X709700Y124900D02*
Y126700D01*
Y121000D02*
Y124900D01*
X870400Y208700D02*
X920500D01*
X816863D02*
X870400D01*
X781900Y100800D02*
X787600Y106500D01*
X972789Y315000D02*
X1029646D01*
X970600D02*
X972789D01*
X880000D02*
X970600D01*
X946000Y339600D02*
X970600Y315000D01*
X940977Y344623D02*
X946000Y339600D01*
X970500Y343900D02*
X970600Y344000D01*
X966200Y339600D02*
X970500Y343900D01*
Y384000D01*
Y317289D02*
Y343900D01*
X946000Y339600D02*
X966200D01*
X911600D02*
X946000D01*
X333100Y291000D02*
X373300Y250800D01*
X329900Y291000D02*
X333100D01*
X130291Y310000D02*
X154200D01*
X124900Y244000D02*
X126000Y245100D01*
X124900Y231100D02*
Y244000D01*
Y231100D02*
X126000Y230000D01*
X130291D01*
Y280000D02*
X166943D01*
X99500Y250000D02*
X99583D01*
X99500Y252000D02*
X100800Y253300D01*
X325100D01*
X913500Y281500D02*
X931100Y299100D01*
X1033900D01*
X1038000Y295000D01*
X910600Y294300D02*
X912100Y295800D01*
X910600Y278780D02*
Y294300D01*
Y278780D02*
X911180Y278200D01*
X960900D01*
X964000Y281300D01*
X1040337D01*
X1041569Y280069D01*
X1038831Y278269D02*
X1042900Y274200D01*
X965031Y278269D02*
X1038831D01*
X1042400Y260300D02*
X1043700Y259000D01*
X1040100Y260300D02*
X1042400D01*
X1037800Y262600D02*
X1040100Y260300D01*
X1037800Y262600D02*
Y266900D01*
X1035900Y268800D02*
X1037800Y266900D01*
X922900Y268800D02*
X1035900D01*
X916300Y275400D02*
X922900Y268800D01*
X919100Y281500D02*
X921100D01*
X927800Y288200D01*
X1020740D01*
X1022608Y290069D01*
X1053180D01*
X1053349Y289900D01*
X1064000D01*
X1068522Y285378D01*
X1001300Y93400D02*
X1005300Y97400D01*
X1041800D01*
X1042900Y96300D01*
X1043650Y204750D02*
X1045287Y203113D01*
Y188012D02*
Y203113D01*
Y188012D02*
X1047332Y185967D01*
Y178463D02*
Y185967D01*
X1045200Y176331D02*
X1047332Y178463D01*
X1045200Y160000D02*
Y176331D01*
X1024687Y139487D02*
X1045200Y160000D01*
X1019137Y139487D02*
X1024687D01*
X1013549Y133900D02*
X1019137Y139487D01*
X987200Y133900D02*
X1013549D01*
X981300Y128000D02*
X987200Y133900D01*
X981300Y106500D02*
Y128000D01*
X1008700Y171500D02*
X1037500D01*
X1005700Y168500D02*
X1008700Y171500D01*
X993000Y103800D02*
X1004700Y115500D01*
X1008053D01*
X1017888Y125335D01*
X1037935D01*
X1061600Y149000D01*
X1042500Y182400D02*
X1043700Y181200D01*
X1042500Y182400D02*
Y199400D01*
X1041000Y200900D02*
X1042500Y199400D01*
X987500Y200900D02*
X1041000D01*
X971200Y184600D02*
X987500Y200900D01*
X980800Y149300D02*
X999000D01*
X1011500Y136800D01*
X1004000Y120800D02*
X1010200Y127000D01*
X990600Y120800D02*
X1004000D01*
X1006000Y104700D02*
Y106700D01*
X1017200Y115900D02*
X1047900D01*
X726000Y228849D02*
X729751Y232600D01*
X785833D01*
X797400Y221033D01*
Y204000D02*
Y221033D01*
X699600Y282400D02*
X701000Y283800D01*
X735800D01*
X737600Y285600D01*
X739112D01*
X765612Y259100D01*
X796300D01*
X792457Y282400D02*
X794100Y280757D01*
X786300Y282400D02*
X792457D01*
X768900Y299800D02*
X786300Y282400D01*
X738200Y299800D02*
X768900D01*
X736300Y297900D02*
X738200Y299800D01*
X696800Y297900D02*
X736300D01*
X694800Y299900D02*
X696800Y297900D01*
X720300Y218300D02*
X768580D01*
X776280Y226000D01*
X782280D01*
X787320Y203404D02*
X790824Y199900D01*
X798100D01*
X800300Y202100D01*
Y221985D01*
X787885Y234400D02*
X800300Y221985D01*
X721000Y234400D02*
X787885D01*
X720000Y233400D02*
X721000Y234400D01*
X758600Y210000D02*
X767700Y200900D01*
X724200Y210000D02*
X758600D01*
X713380Y378300D02*
X715780Y375900D01*
X693900Y378300D02*
X713380D01*
X686700Y371100D02*
X693900Y378300D01*
X681300Y371100D02*
X686700D01*
X679400Y373000D02*
X681300Y371100D01*
X654100Y373000D02*
X679400D01*
X707900Y373600D02*
X708300D01*
X706300Y372000D02*
X707900Y373600D01*
X706300Y353700D02*
Y372000D01*
X704300Y351700D02*
X706300Y353700D01*
X692000Y351700D02*
X704300D01*
X690700Y353000D02*
X692000Y351700D01*
X661500Y353000D02*
X690700D01*
X755000Y93500D02*
X758700Y97200D01*
X783598D01*
X790698Y90100D01*
X797722D01*
X800722Y87100D01*
X846000D01*
X784800Y111100D02*
X792546D01*
X794246Y109400D01*
X801300D01*
X808700Y102000D01*
X845800D01*
X793000Y56400D02*
X793900Y55500D01*
X836800D01*
X842900Y61600D01*
X888500D01*
X856600Y87100D02*
X858000Y85700D01*
X909585D01*
X945800Y121915D01*
Y134261D01*
X950997Y139459D01*
X914300Y201900D02*
X917200D01*
X929700Y189400D01*
Y132100D02*
Y189400D01*
X928035Y56200D02*
X931700Y59865D01*
X871400Y56200D02*
X928035D01*
X870212Y123088D02*
X888000Y105300D01*
X812638Y123088D02*
X870212D01*
X810393Y120843D02*
X812638Y123088D01*
X806907Y120843D02*
X810393D01*
X805000Y122750D02*
X806907Y120843D01*
X805000Y122750D02*
Y126000D01*
X808400Y129400D01*
X737100Y69800D02*
X741312D01*
X747104Y75592D01*
X783000D01*
X783400Y75192D01*
Y68700D02*
Y75192D01*
Y68700D02*
X787000Y65100D01*
X797800D01*
X800500Y62400D01*
X796700Y480500D02*
X854500D01*
X788200Y472000D02*
X796700Y480500D01*
X776200Y472000D02*
X788200D01*
X775200Y473000D02*
X776200Y472000D01*
X775200Y473000D02*
Y482100D01*
X773200Y484100D02*
X775200Y482100D01*
X736000Y484100D02*
X773200D01*
X689800Y457500D02*
X737817D01*
X740200Y455117D01*
X803883D01*
X818100Y440900D01*
X839800D01*
X843400Y437300D01*
Y413300D02*
Y437300D01*
X843000Y412900D02*
X843400Y413300D01*
X661800Y448000D02*
Y450000D01*
Y448000D02*
X665500Y444300D01*
X677600D01*
X684400Y451100D01*
X699985D01*
X710285Y440800D01*
X810000D01*
X794400Y451500D02*
X802200Y443700D01*
X702500Y451500D02*
X794400D01*
X701100Y452900D02*
X702500Y451500D01*
X682200Y452900D02*
X701100D01*
X681000Y451700D02*
X682200Y452900D01*
X752700Y378000D02*
X786900Y343800D01*
X745700Y443600D02*
X786996D01*
X920000Y443000D02*
X922000D01*
X924200Y440800D01*
X989600D01*
X995372Y446572D01*
X1030672D01*
X1040000Y455900D01*
X952600Y446700D02*
X974700Y468800D01*
X1048500D01*
X1052017Y465283D01*
Y450383D02*
Y465283D01*
Y450383D02*
X1056401Y445999D01*
X437691Y94409D02*
X535000D01*
X400600Y131500D02*
X437691Y94409D01*
X384900Y215000D02*
X431500Y168400D01*
X392200Y270200D02*
X409100Y287100D01*
X485900Y278255D02*
Y296491D01*
X535000Y345591D01*
X396041Y262441D02*
X427700Y294100D01*
X476300D01*
X1042500Y265000D02*
X1060354D01*
Y285000D02*
X1063700D01*
X1068700Y280000D01*
X1071900D01*
X1079200Y287300D01*
Y370800D01*
X1076300Y373700D02*
X1079200Y370800D01*
X1058400Y305000D02*
X1060354D01*
X1055100Y299400D02*
X1058400Y302700D01*
X1055100Y291731D02*
Y299400D01*
Y291731D02*
X1065231D01*
X1073310Y299810D01*
Y343410D01*
X1077300Y347400D01*
Y362200D01*
X1072000Y367500D02*
X1077300Y362200D01*
X1072000Y367500D02*
Y382100D01*
X1059300Y345000D02*
X1060354D01*
X875200Y319700D02*
X911300D01*
X872200Y316700D02*
X875200Y319700D01*
X830400Y316700D02*
X872200D01*
X826500Y312800D02*
X830400Y316700D01*
X737200Y312800D02*
X826500D01*
X699800Y51800D02*
X719000Y32600D01*
X758000D01*
X760000Y34600D01*
Y39646D01*
X951400Y124800D02*
Y132600D01*
X941900Y115300D02*
X951400Y124800D01*
X941900Y102800D02*
Y115300D01*
Y102800D02*
X951000Y93700D01*
X799200Y13400D02*
X944100D01*
X790000Y22600D02*
X799200Y13400D01*
X790000Y22600D02*
Y39646D01*
X916600Y328400D02*
X920000Y325000D01*
X746600Y328400D02*
X916600D01*
X738700Y45000D02*
X799700D01*
X800000Y39646D01*
X820000Y31500D02*
Y39646D01*
Y31500D02*
X824000Y27500D01*
X851500D01*
X854800Y24200D01*
X830000Y39646D02*
Y45300D01*
X831800Y47100D01*
X854000D01*
X856100Y45000D01*
Y35000D02*
Y45000D01*
Y35000D02*
X856800Y34300D01*
X863900D01*
X866500Y36900D01*
Y44700D01*
X866800Y45000D01*
X896000D01*
X896600Y44400D01*
Y33300D02*
Y44400D01*
Y33300D02*
X899092Y30808D01*
X951017D01*
X952608Y32400D01*
X971100Y132562D02*
Y141200D01*
X862500Y23600D02*
X934200D01*
X854100Y32000D02*
X862500Y23600D01*
X854100Y32000D02*
Y44000D01*
X853100Y45000D02*
X854100Y44000D01*
X841000Y45000D02*
X853100D01*
X840000Y44000D02*
X841000Y45000D01*
X840000Y39646D02*
Y44000D01*
X860000Y39646D02*
Y45500D01*
X861600Y47100D01*
X902100D01*
X906700Y42500D01*
Y34408D02*
Y42500D01*
Y34408D02*
X943300D01*
X945892Y37000D01*
X960900D01*
X870000Y31700D02*
Y39646D01*
X928900Y119000D02*
X936400Y126500D01*
Y140587D01*
X951813Y156000D01*
X954000D01*
X965200Y144800D01*
X900000Y66100D02*
Y70354D01*
Y66100D02*
X901000Y65100D01*
X935200D01*
X936400Y63900D01*
Y51500D02*
Y63900D01*
X934100Y49200D02*
X936400Y51500D01*
X759700Y49200D02*
X934100D01*
X758400Y47900D02*
X759700Y49200D01*
X717400Y47900D02*
X758400D01*
X697800Y67500D02*
X717400Y47900D01*
X697800Y67500D02*
Y72300D01*
X715400Y89900D01*
X728200D01*
X731100Y87000D01*
X757800D01*
X754900Y134800D02*
X788500D01*
X793000Y139300D01*
X779200Y56000D02*
X782200Y53000D01*
X863600D01*
X869700Y59100D01*
X873500D01*
X874100Y58500D01*
X890000D01*
X891400Y59900D01*
Y66400D01*
X890000Y67800D02*
X891400Y66400D01*
X890000Y67800D02*
Y70354D01*
X880000D02*
Y78000D01*
X877000Y81000D02*
X880000Y78000D01*
X802260Y81000D02*
X877000D01*
X800469Y82792D02*
X802260Y81000D01*
X798493Y82792D02*
X800469D01*
X794893Y86392D02*
X798493Y82792D01*
X784808Y86392D02*
X794893D01*
X778600Y92600D02*
X784808Y86392D01*
X860000Y70354D02*
Y74500D01*
X862200Y76700D01*
X872900D01*
X875600Y74000D01*
Y66000D02*
Y74000D01*
Y66000D02*
X876800Y64800D01*
X882500D01*
X885700Y68000D01*
Y74600D01*
X887000Y75900D01*
X893000D01*
X894000Y74900D01*
Y66700D02*
Y74900D01*
Y66700D02*
X897600Y63100D01*
X933900D01*
X934500Y62500D01*
Y53900D02*
Y62500D01*
X931700Y51100D02*
X934500Y53900D01*
X740143Y51100D02*
X931700D01*
X743400Y215400D02*
X770100D01*
X781500Y204000D01*
X847846Y70354D02*
X850000D01*
X842600Y75600D02*
X847846Y70354D01*
X826000Y75600D02*
X842600D01*
X825000Y74600D02*
X826000Y75600D01*
X825000Y66100D02*
Y74600D01*
X824000Y65100D02*
X825000Y66100D01*
X808200Y65100D02*
X824000D01*
X802600Y59500D02*
X808200Y65100D01*
X798200Y59500D02*
X802600D01*
X795100Y62600D02*
X798200Y59500D01*
X776000Y62600D02*
X795100D01*
X744300Y193000D02*
X768700D01*
X744150Y58150D02*
X745300Y59300D01*
X795100D01*
X797000Y57400D01*
X803200D01*
X807800Y62000D01*
X828000D01*
X830000Y64000D01*
Y70354D01*
X726100Y78000D02*
X727600Y76500D01*
X740300D01*
X742992Y79192D01*
X786000D01*
X789600Y75592D01*
X793300D01*
Y74000D02*
Y75592D01*
Y74000D02*
X794300Y73000D01*
X800000Y70354D02*
Y73000D01*
X722651Y70000D02*
X724100D01*
X721551Y68900D02*
X722651Y70000D01*
X713000Y68900D02*
X721551D01*
X711100Y67000D02*
X713000Y68900D01*
X711100Y63659D02*
Y67000D01*
Y63659D02*
X714959Y59800D01*
X724123D01*
X725823Y61500D01*
X769200D01*
X774000Y66300D01*
X780000D02*
Y70354D01*
X719500Y64500D02*
X720117Y65117D01*
X759317D01*
X760000Y65800D01*
Y70354D01*
X663900Y99600D02*
Y150900D01*
X668000Y155000D01*
X670354D01*
X655400Y175000D02*
X670354D01*
X650300Y180100D02*
X655400Y175000D01*
X636000Y180100D02*
X650300D01*
X633700Y182400D02*
X636000Y180100D01*
X633700Y182400D02*
Y187600D01*
X635000Y188900D01*
X642000D01*
X644900Y191800D01*
Y198000D01*
X643600Y199300D02*
X644900Y198000D01*
X632700Y199300D02*
X643600D01*
X628900Y195500D02*
X632700Y199300D01*
X628900Y92100D02*
Y195500D01*
Y92100D02*
X638300Y82700D01*
X678300D01*
X670354Y185000D02*
X687900D01*
X689800Y183100D01*
Y151600D02*
Y183100D01*
X687200Y149000D02*
X689800Y151600D01*
X666100Y195000D02*
X670354D01*
X665100Y194000D02*
X666100Y195000D01*
X665100Y182000D02*
Y194000D01*
Y182000D02*
X666900Y180200D01*
X684500D01*
X687000Y177700D01*
X659160Y215000D02*
X670354D01*
X654092Y220069D02*
X659160Y215000D01*
X629284Y220069D02*
X654092D01*
X623400Y214184D02*
X629284Y220069D01*
X623400Y93800D02*
Y214184D01*
Y93800D02*
X666700Y50500D01*
X651900Y235000D02*
X670354D01*
X648500Y231600D02*
X651900Y235000D01*
X635008Y231600D02*
X648500D01*
X632608Y234000D02*
X635008Y231600D01*
X632608Y234000D02*
Y276608D01*
X634508Y278508D01*
X702892D01*
X706384Y282000D01*
X738600D01*
X714896Y255000D02*
X731498Y271602D01*
X670354Y255000D02*
X714896D01*
X709800Y265000D02*
X724000Y279200D01*
X670354Y265000D02*
X709800D01*
X670354Y305000D02*
X681100D01*
X687000Y310900D01*
X865800Y325200D02*
X866500Y324500D01*
X809300Y325200D02*
X865800D01*
X670354Y325000D02*
X809300Y325200D01*
X665900Y335000D02*
X670354D01*
X665000Y334100D02*
X665900Y335000D01*
X665000Y322400D02*
Y334100D01*
Y322400D02*
X666000Y321400D01*
X808500D01*
X810500Y323400D01*
X847000D01*
X848900Y321500D01*
X639646Y345000D02*
X650700D01*
X659900Y335800D01*
Y315800D02*
Y335800D01*
Y315800D02*
X664100Y311600D01*
X676123D01*
X680091Y315569D01*
X691642D01*
X697310Y309900D01*
X817400D01*
X803700Y281500D02*
X825900D01*
X791404Y293796D02*
X803700Y281500D01*
X791404Y293796D02*
Y299147D01*
X782451Y308100D02*
X791404Y299147D01*
X695510Y308100D02*
X782451D01*
X689842Y313769D02*
X695510Y308100D01*
X684000Y313769D02*
X689842D01*
X679231Y309000D02*
X684000Y313769D01*
X656200Y309000D02*
X679231D01*
X655200Y323800D02*
X656200Y309000D01*
X644000Y335000D02*
X655200Y323800D01*
X639646Y335000D02*
X644000D01*
X908100Y132000D02*
Y136338D01*
X879466Y164972D02*
X908100Y136338D01*
X833228Y164972D02*
X879466D01*
X812400Y185800D02*
X833228Y164972D01*
X788374Y274185D02*
X804515D01*
X764658Y297900D02*
X788374Y274185D01*
X739200Y297900D02*
X764658D01*
X737100Y295800D02*
X739200Y297900D01*
X677900Y295800D02*
X737100D01*
X672200Y301500D02*
X677900Y295800D01*
X657500Y301500D02*
X672200D01*
X644000Y315000D02*
X657500Y301500D01*
X639646Y315000D02*
X644000D01*
X890700Y220400D02*
X909058D01*
X886100Y225000D02*
X890700Y220400D01*
X885100Y334700D02*
X886100Y333700D01*
X801816Y334700D02*
X885100D01*
X801016Y333900D02*
X801816Y334700D01*
X706194Y333900D02*
X801016D01*
X689994Y350100D02*
X706194Y333900D01*
X632600Y350100D02*
X689994D01*
X632600Y296700D02*
Y350100D01*
Y296700D02*
X634300Y295000D01*
X639646D01*
X897800Y243394D02*
Y256300D01*
X883200Y270900D02*
X897800Y256300D01*
X851158Y270900D02*
X883200D01*
X846043Y265785D02*
X851158Y270900D01*
X764815Y265785D02*
X846043D01*
X743200Y287400D02*
X764815Y265785D01*
X734000Y287400D02*
X743200D01*
X732200Y285600D02*
X734000Y287400D01*
X696600Y285600D02*
X732200D01*
X692700Y281700D02*
X696600Y285600D01*
X660800Y281700D02*
X692700D01*
X657500Y285000D02*
X660800Y281700D01*
X639646Y285000D02*
X657500D01*
X894800Y248500D02*
Y256000D01*
X889500Y261300D02*
X894800Y256000D01*
X808000Y261300D02*
X889500D01*
X802900Y256200D02*
X808000Y261300D01*
X755200Y256200D02*
X802900D01*
X734135Y277265D02*
X755200Y256200D01*
X726883Y277265D02*
X734135D01*
X709818Y260200D02*
X726883Y277265D01*
X664900Y260200D02*
X709818D01*
X650100Y275000D02*
X664900Y260200D01*
X639646Y275000D02*
X650100D01*
X639646Y265000D02*
X645800D01*
X652500Y258300D01*
X711497D01*
X728297Y275100D01*
X732200D01*
X753700Y253600D01*
X891700D01*
X639646Y255000D02*
X646000D01*
X651600Y249400D01*
X750000D01*
X753500Y245900D01*
X860700D01*
X862800Y194000D02*
X897700D01*
X907800Y204100D01*
X639646Y245000D02*
X660200D01*
X663500Y241700D01*
X811000D01*
X814800Y237900D01*
X914319D01*
X919219Y242800D01*
X637700Y235000D02*
X639646D01*
X634408Y241731D02*
X637700Y238440D01*
X634408Y241731D02*
Y258269D01*
X647700Y258300D01*
X654300Y251700D01*
X875300D01*
X886700Y240300D01*
X900000D01*
X907700Y248000D01*
X919500D01*
X926516Y240984D01*
Y239400D02*
Y240984D01*
X633800Y195000D02*
X639646D01*
X630900Y192100D02*
X633800Y195000D01*
X630900Y100100D02*
Y192100D01*
Y100100D02*
X637300Y93700D01*
X724000D01*
X729300Y99000D01*
X785065D01*
X790765Y93300D01*
X811900D01*
X813400Y91800D01*
X873347D01*
X875547Y94000D01*
X882500D01*
X885200Y91300D01*
X893100D01*
X896500Y94700D01*
Y123200D01*
X892000Y127700D02*
X896500Y123200D01*
X814200Y127700D02*
X892000D01*
X813325Y115025D02*
X816600Y118300D01*
X802227Y115025D02*
X813325D01*
X797552Y119700D02*
X802227Y115025D01*
X780350Y119700D02*
X797552D01*
X775450Y114800D02*
X780350Y119700D01*
X690900Y114800D02*
X775450D01*
X682200Y123500D02*
X690900Y114800D01*
X682200Y123500D02*
Y156000D01*
X677300Y160900D02*
X682200Y156000D01*
X649800Y160900D02*
X677300D01*
X645700Y165000D02*
X649800Y160900D01*
X639646Y165000D02*
X645700D01*
X940000Y450600D02*
Y460354D01*
Y450600D02*
X947300Y443300D01*
X988500D01*
X1009300Y464100D01*
X1041000D01*
X1044700Y460400D01*
Y458100D02*
Y460400D01*
Y458100D02*
X1046900Y455900D01*
Y441200D02*
Y455900D01*
X1008260Y402560D02*
X1046900Y441200D01*
X891951Y402560D02*
X1008260D01*
X886400Y397009D02*
X891951Y402560D01*
X886400Y374100D02*
Y397009D01*
X884138Y371838D02*
X886400Y374100D01*
X878862Y371838D02*
X884138D01*
X866000Y384700D02*
X878862Y371838D01*
X861100Y384700D02*
X866000D01*
X856800Y263800D02*
X861100Y268100D01*
X793100Y263800D02*
X856800D01*
X791300Y262000D02*
X793100Y263800D01*
X930000Y455300D02*
Y460354D01*
X928000Y453300D02*
X930000Y455300D01*
X898531Y453300D02*
X928000D01*
X896631Y455200D02*
X898531Y453300D01*
X896631Y455200D02*
Y464000D01*
X889531Y471100D02*
X896631Y464000D01*
X876587Y471100D02*
X889531D01*
X748000Y395600D02*
X750000Y397600D01*
X748000Y370800D02*
Y395600D01*
X727400Y350200D02*
X748000Y370800D01*
X708300Y350200D02*
X727400D01*
X712400Y302300D02*
X776200D01*
X780700Y297800D01*
X787000Y295200D02*
Y295800D01*
Y295200D02*
X802500Y279700D01*
X822512D01*
X824212Y278000D01*
X828212D01*
X860796Y310584D01*
X1036484D01*
X1041600Y315700D01*
Y379100D01*
X1061001Y398501D01*
Y462090D01*
X1052091Y471000D02*
X1061001Y462090D01*
X926700Y471000D02*
X1052091D01*
X920000Y464300D02*
X926700Y471000D01*
X920000Y460354D02*
Y464300D01*
X910000Y460354D02*
Y464900D01*
X899000Y475900D02*
X910000Y464900D01*
X875084Y475900D02*
X899000D01*
X872184Y473000D02*
X875084Y475900D01*
X811599Y473000D02*
X872184D01*
X808761Y470162D02*
X811599Y473000D01*
X769138Y470162D02*
X808761D01*
X766400Y472900D02*
X769138Y470162D01*
X759150Y472900D02*
X766400D01*
X754750Y477300D02*
X759150Y472900D01*
X667210Y477300D02*
X754750D01*
X655100Y465190D02*
X667210Y477300D01*
X655100Y439700D02*
Y465190D01*
Y439700D02*
X659100Y435700D01*
X662683D01*
X678100Y420283D01*
Y379900D02*
Y420283D01*
Y379900D02*
X684000Y374000D01*
X705700Y301000D02*
X710700Y306000D01*
X780539D01*
X785239Y301300D01*
X880000Y440100D02*
Y460354D01*
X878000Y438100D02*
X880000Y440100D01*
X871700Y438100D02*
X878000D01*
X791200Y248800D02*
X854600D01*
X870000Y460354D02*
Y465900D01*
X867400Y468500D02*
X870000Y465900D01*
X865700Y468500D02*
X867400D01*
X753200Y353600D02*
Y371500D01*
X743800Y292500D02*
Y293300D01*
Y292500D02*
X744900Y291400D01*
X756493D01*
X766293Y281600D01*
X852000Y361100D02*
X869000D01*
X845400Y367700D02*
X852000Y361100D01*
X845400Y367700D02*
Y402500D01*
X849500Y406600D01*
Y415280D01*
X853500Y419280D01*
Y440700D01*
X850000Y444200D02*
X853500Y440700D01*
X850000Y444200D02*
Y460354D01*
X880700Y365900D02*
X883500Y368700D01*
X864500Y365900D02*
X880700D01*
X852900Y377500D02*
X864500Y365900D01*
X852900Y377500D02*
Y407969D01*
X840600Y464400D02*
X844400Y468200D01*
X840000Y460354D02*
X840600Y464400D01*
X865100Y355000D02*
X866900Y353200D01*
X808000Y355000D02*
X865100D01*
X805300Y357700D02*
X808000Y355000D01*
X805300Y357700D02*
Y368000D01*
X810500Y373200D01*
X821000D01*
X841800Y394000D01*
Y406100D01*
X845800Y410100D01*
Y437800D01*
X840700Y442900D02*
X845800Y437800D01*
X829600Y442900D02*
X840700D01*
X820000Y452500D02*
X829600Y442900D01*
X820000Y452500D02*
Y460354D01*
X810000Y454600D02*
Y460354D01*
Y454600D02*
X820000Y444600D01*
X850100Y375192D02*
Y403000D01*
Y375192D02*
X861192Y364100D01*
X884530D01*
X890400Y369970D01*
Y378839D01*
X663700Y440300D02*
Y443300D01*
X657000Y450000D02*
X663700Y443300D01*
X657000Y450000D02*
Y452100D01*
X673900Y469000D01*
X751700D01*
X753800Y471100D01*
X765600D01*
X771100Y465600D01*
X779000D01*
X780000Y464600D01*
Y460354D02*
Y464600D01*
X658300Y442600D02*
X658600D01*
X660800Y440400D01*
Y438700D02*
Y440400D01*
Y438700D02*
X662000Y437500D01*
X673700D01*
X680800Y444600D01*
X697600D01*
X709300Y432900D01*
X742800D01*
X754550Y467750D02*
X760000Y462300D01*
Y460354D02*
Y462300D01*
X750000Y460354D02*
Y462300D01*
X664800Y455900D02*
X671200Y462300D01*
X659695Y460600D02*
X670986Y471892D01*
X739800D01*
X740000Y419100D02*
X775700D01*
X780000Y423400D01*
Y429646D01*
X790800Y402231D02*
X800269Y411700D01*
X816000D01*
X820000Y415700D01*
Y429646D01*
X794100Y396300D02*
X818900D01*
X830000Y407400D01*
Y429646D01*
X840000Y402630D02*
Y429646D01*
X827370Y390000D02*
X840000Y402630D01*
X793931Y390000D02*
X827370D01*
X858000Y438900D02*
X858300Y439200D01*
X858000Y436900D02*
Y438900D01*
Y436900D02*
X860000Y434900D01*
Y429646D02*
Y434900D01*
X870000Y427700D02*
Y429646D01*
X873200Y427700D02*
X895100Y405800D01*
X1007343D01*
X1034443Y432900D01*
X900000Y429646D02*
Y440000D01*
X910000Y429646D02*
Y438700D01*
X905900Y442800D02*
X910000Y438700D01*
X1009100Y457000D02*
X1014900Y451200D01*
X949800Y427700D02*
X975600D01*
X942600Y434900D02*
X949800Y427700D01*
X921000Y434900D02*
X942600D01*
X920000Y429646D02*
X921000Y434900D01*
X1060354Y245000D02*
X1071000D01*
X1076000D02*
X1080500Y240500D01*
Y66700D02*
Y240500D01*
X1062100Y48300D02*
X1080500Y66700D01*
X979500Y48300D02*
X1062100D01*
X971600Y56200D02*
X979500Y48300D01*
X941800Y56200D02*
X971600D01*
X940000Y58000D02*
X941800Y56200D01*
X714715Y372000D02*
X745200D01*
X710240Y376475D02*
X714715Y372000D01*
X695675Y376475D02*
X710240D01*
X688500Y369300D02*
X695675Y376475D01*
X550700Y369300D02*
X688500D01*
X50000Y375000D02*
X55300D01*
X70300Y360000D01*
X99583D01*
X956600Y115300D02*
X975500Y96400D01*
X956600Y115300D02*
Y138000D01*
X959100Y140500D01*
X723500Y129100D02*
X736500Y142100D01*
X774400D01*
X779000Y146700D01*
X721200Y338000D02*
X749900Y366700D01*
Y380800D01*
X752800Y383700D01*
Y399000D01*
X751400Y400400D02*
X752800Y399000D01*
X916800Y348700D02*
X951600D01*
X907400Y358100D02*
X916800Y348700D01*
X885800Y346423D02*
X888077Y348700D01*
X813477Y346423D02*
X885800D01*
X808900Y351000D02*
X813477Y346423D01*
X786400Y351000D02*
X808900D01*
X753800Y383600D02*
X786400Y351000D01*
X733000Y400400D02*
X751400D01*
X449400Y360600D02*
X669300D01*
X440000Y370000D02*
X449400Y360600D01*
X987000Y123600D02*
X996457D01*
X986000Y122600D02*
X987000Y123600D01*
X986000Y87100D02*
Y122600D01*
X985800Y86900D02*
X986000Y87100D01*
X773100Y191400D02*
Y195900D01*
X770000Y188300D02*
X773100Y191400D01*
X757800Y117600D02*
X772600D01*
X776700Y121700D01*
X799152D01*
X802809Y118043D01*
X808500D01*
X765500Y188300D02*
X770000D01*
X757800Y180600D02*
X765500Y188300D01*
X720900Y117600D02*
X757800D01*
X709700Y128800D02*
X720900Y117600D01*
X691800Y121000D02*
X709700D01*
X668619Y45319D02*
X691800Y68500D01*
X643619Y45319D02*
X668619D01*
X642000Y43700D02*
X643619Y45319D01*
X709700Y126700D02*
Y128800D01*
X708800Y125800D02*
X709700Y126700D01*
X708800Y125800D02*
X709700Y124900D01*
X693700D02*
X709700D01*
X689800Y128800D02*
X693700Y124900D01*
X918500Y392100D02*
X981500D01*
X997499Y376101D01*
X998500Y349546D02*
X1018046Y330000D01*
X1032900D01*
X1034900Y328000D01*
Y322000D02*
Y328000D01*
X1031900Y319000D02*
X1034900Y322000D01*
X973600Y319000D02*
X1031900D01*
X934500Y192900D02*
X954100Y173300D01*
X993300D01*
X997499Y359601D02*
Y376101D01*
X851400Y357300D02*
X883700D01*
X1056700Y451500D02*
X1059201Y448999D01*
Y440083D02*
Y448999D01*
X1044818Y425700D02*
X1059201Y440083D01*
X1041702Y425700D02*
X1044818D01*
X1016102Y400100D02*
X1041702Y425700D01*
X926500Y400100D02*
X1016102D01*
X757800Y196000D02*
X773200D01*
X775100Y195400D02*
Y197900D01*
Y195400D02*
X845100D01*
X849500Y199800D01*
X898500D01*
X905600Y206900D01*
X915500D01*
X929500Y192900D01*
X934500D01*
X1006400Y381300D02*
X1052700Y427600D01*
X920500Y208700D02*
X925200Y204000D01*
X866400Y204700D02*
X870400Y208700D01*
X803200Y339700D02*
X868300D01*
X799300Y335800D02*
X803200Y339700D01*
X789300Y335800D02*
X799300D01*
X759400Y365700D02*
X789300Y335800D01*
X1029646Y275000D02*
X1032700D01*
X1039700Y268000D01*
Y263500D02*
Y268000D01*
Y263500D02*
X1041000Y262200D01*
X1044800D01*
X1045400Y261600D01*
X1083482D01*
X920000Y388100D02*
X971300D01*
X975400Y384000D01*
Y345500D02*
Y384000D01*
Y345500D02*
X995900Y325000D01*
X1029646D01*
X1024000Y255000D02*
X1029646D01*
X1008439Y239439D02*
X1024000Y255000D01*
X1008439Y231800D02*
Y239439D01*
X986141Y139000D02*
X1004100D01*
X975774Y128633D02*
X986141Y139000D01*
X969167Y128633D02*
X975774D01*
X964900Y132900D02*
X969167Y128633D01*
X784000Y480300D02*
X788900Y485200D01*
X858887D01*
X860887Y483200D01*
X1066500D01*
X1073700Y476000D01*
Y422600D02*
Y476000D01*
X1038000Y418400D02*
X1038900D01*
X1017900Y398300D02*
X1038000Y418400D01*
X985600Y398300D02*
X1017900D01*
X984300Y397000D02*
X985600Y398300D01*
X984300Y394000D02*
Y397000D01*
Y394000D02*
X1001708Y376592D01*
Y360992D02*
Y376592D01*
Y360992D02*
X1027700Y335000D01*
X1029646D01*
X941200Y93100D02*
X946000D01*
X951400Y87700D01*
X980300D01*
X984100Y91500D01*
Y123900D01*
X991100Y130900D01*
X1014900D01*
X1021300Y137300D01*
X1029800D01*
X1047100Y154600D01*
Y174400D01*
X1052700Y180000D01*
X1063600D01*
X1065600Y182000D01*
Y198300D01*
X1056100D02*
X1065600D01*
X1052900Y201500D02*
X1056100Y198300D01*
X1052900Y201500D02*
Y236000D01*
X1048200Y240700D02*
X1052900Y236000D01*
X1025700Y240700D02*
X1048200D01*
X1024400Y242000D02*
X1025700Y240700D01*
X1024400Y242000D02*
Y248000D01*
X1027400Y251000D01*
X1033900D01*
X1034900Y252000D01*
Y264000D01*
X1033900Y265000D02*
X1034900Y264000D01*
X1029646Y265000D02*
X1033900D01*
X1085300Y268600D02*
X1090400Y263500D01*
X1055800Y268600D02*
X1085300D01*
X1044912Y279488D02*
X1055800Y268600D01*
X1044912Y279488D02*
Y283712D01*
X1043624Y285000D02*
X1044912Y283712D01*
X1029646Y285000D02*
X1043624D01*
X657400Y239900D02*
X797180D01*
X801580Y235500D01*
X991702D01*
X1012202Y215000D01*
X1029646D01*
X808800Y474500D02*
X809500Y475200D01*
X864800D01*
X867300Y477700D01*
X1053000D01*
X1064800Y465900D01*
Y393200D02*
Y465900D01*
X1054000Y382400D02*
X1064800Y393200D01*
X1054000Y352500D02*
Y382400D01*
X1024200Y346000D02*
Y354000D01*
Y346000D02*
X1029646Y345000D01*
Y232554D02*
Y235000D01*
Y232554D02*
X1031200Y231000D01*
X1037500D01*
X1035500Y161400D02*
X1037500Y159400D01*
X987100Y161400D02*
X1035500D01*
X966300Y140600D02*
X987100Y161400D01*
X962400Y143300D02*
X966300Y140600D01*
X957600Y143300D02*
X962400D01*
X954800Y140500D02*
X957600Y143300D01*
X954800Y122200D02*
Y140500D01*
X944800Y112200D02*
X954800Y122200D01*
X1018100Y423800D02*
Y424800D01*
X1003800Y409500D02*
X1018100Y423800D01*
X970600Y409500D02*
X1003800D01*
X959400Y132800D02*
X961000D01*
X978400Y115400D01*
Y91000D02*
Y115400D01*
Y91000D02*
X978800Y90600D01*
X1009000Y51500D02*
X1016300D01*
X1048600Y83800D01*
X811400Y157000D02*
Y157800D01*
Y157000D02*
X813000Y155400D01*
X815300D01*
X832100Y138600D01*
X894200D01*
X897100Y141500D01*
X99583Y220000D02*
X103900D01*
X105000Y221100D01*
Y233200D01*
X104800Y233400D02*
X105000Y233200D01*
X94500Y233400D02*
X104800D01*
X94200Y233100D02*
X94500Y233400D01*
X90100Y233100D02*
X94200D01*
X88800Y234400D02*
X90100Y233100D01*
X88800Y234400D02*
Y247900D01*
X96100Y255200D01*
X173400D01*
X183200Y265000D01*
X219200D01*
X229000Y255200D01*
X892500Y305000D02*
X1029646D01*
X814000Y350100D02*
X881500D01*
X811300Y352800D02*
X814000Y350100D01*
X789094Y352800D02*
X811300D01*
X781700Y360194D02*
X789094Y352800D01*
X781700Y360194D02*
Y399100D01*
X1019500Y195000D02*
X1029646D01*
X993737Y169237D02*
X1019500Y195000D01*
X946837Y169237D02*
X993737D01*
X932600Y155000D02*
X946837Y169237D01*
X932600Y130900D02*
Y155000D01*
X929400Y127700D02*
X932600Y130900D01*
X926000Y127700D02*
X929400D01*
X799600Y473000D02*
X804300Y477700D01*
X864573D01*
X866373Y479500D01*
X1055900D01*
X1067400Y468000D01*
Y363300D02*
Y468000D01*
Y363300D02*
X1073700Y357000D01*
Y354000D02*
Y357000D01*
X1069100Y349400D02*
X1073700Y354000D01*
X1069100Y323400D02*
Y349400D01*
X1064100Y318400D02*
X1069100Y323400D01*
X1055100Y318400D02*
X1064100D01*
X1053200Y316500D02*
X1055100Y318400D01*
X1053200Y295900D02*
Y316500D01*
X1049200Y291900D02*
X1053200Y295900D01*
X1036400Y291900D02*
X1049200D01*
X1034300Y294000D02*
X1036400Y291900D01*
X1029646Y295000D02*
X1034300Y294000D01*
X108300Y210000D02*
X130291D01*
X86000Y348100D02*
X94100Y340000D01*
X99583D01*
X88100Y350000D02*
X99583D01*
X86200Y351900D02*
X88100Y350000D01*
X71757Y351900D02*
X86200D01*
X53657Y370000D02*
X71757Y351900D01*
X47900Y370000D02*
X53657D01*
X45747Y372153D02*
X47900Y370000D01*
X45747Y372153D02*
Y384600D01*
X32800Y397547D02*
X45747Y384600D01*
X32800Y397547D02*
Y452200D01*
X20000Y465000D02*
X32800Y452200D01*
X108100Y320000D02*
X130291D01*
X104700Y323400D02*
X108100Y320000D01*
X95300Y323400D02*
X104700D01*
X59300Y359400D02*
X95300Y323400D01*
X48300Y359400D02*
X59300D01*
X43900Y363800D02*
X48300Y359400D01*
X43900Y363800D02*
Y381100D01*
X20000Y405000D02*
X43900Y381100D01*
X320000Y350000D02*
X324700D01*
X325700Y364000D01*
X323400Y366300D02*
X325700Y364000D01*
X81200Y366300D02*
X323400D01*
X84000Y355600D02*
X84627Y354973D01*
X282327D01*
X287300Y350000D01*
X289291D01*
X320000Y260000D02*
X332000D01*
X303700Y410400D02*
X333200Y380900D01*
X64600Y410400D02*
X303700D01*
X50000Y425000D02*
X64600Y410400D01*
X183800Y250000D02*
X289291D01*
X308700Y340000D02*
X320000D01*
X304700Y336000D02*
X308700Y340000D01*
X304700Y329700D02*
Y336000D01*
X300000Y325000D02*
X304700Y329700D01*
X231000Y325000D02*
X300000D01*
X204000Y298000D02*
X231000Y325000D01*
X226800Y260000D02*
X289291D01*
X220000Y266800D02*
X226800Y260000D01*
X163500Y266800D02*
X220000D01*
X156700Y260000D02*
X163500Y266800D01*
X164400Y230000D02*
X289291D01*
Y220000D02*
X305900D01*
X309200Y223300D01*
X325300D01*
Y216000D02*
Y223300D01*
X322900Y213600D02*
X325300Y216000D01*
X57653Y213600D02*
X322900D01*
X51953Y219300D02*
X57653Y213600D01*
X34300Y219300D02*
X51953D01*
X20000Y205000D02*
X34300Y219300D01*
X301700Y210000D02*
X320000D01*
X298300Y206600D02*
X301700Y210000D01*
X94400Y206600D02*
X298300D01*
X91000Y210000D02*
X94400Y206600D01*
X37800Y210000D02*
X91000D01*
X27149Y199349D02*
X37800Y210000D01*
X27149Y182149D02*
Y199349D01*
X20000Y175000D02*
X27149Y182149D01*
X20000Y135000D02*
X25700Y129300D01*
X192950D01*
X246919Y183269D01*
X322569D01*
X325300Y186000D01*
Y199000D01*
X320000Y200000D02*
X325300Y199000D01*
X289291Y180000D02*
X293600D01*
X294600Y179000D01*
Y167000D02*
Y179000D01*
X293300Y165700D02*
X294600Y167000D01*
X242098Y165700D02*
X293300D01*
X193498Y117100D02*
X242098Y165700D01*
X60700Y117100D02*
X193498D01*
X54200Y110600D02*
X60700Y117100D01*
X25600Y110600D02*
X54200D01*
X20000Y105000D02*
X25600Y110600D01*
X71927Y96100D02*
X79127Y103300D01*
X218200D01*
X259900Y145000D01*
X300000D01*
X304700Y149700D01*
Y164000D01*
X310700Y170000D01*
X320000D01*
X13800Y91200D02*
X20000Y85000D01*
X13800Y91200D02*
Y115900D01*
X17900Y120000D01*
X192512D01*
X242512Y170000D01*
X289291D01*
X240400Y160000D02*
X289291D01*
X194200Y113800D02*
X240400Y160000D01*
X68000Y113800D02*
X194200D01*
X59100Y104900D02*
X68000Y113800D01*
X270800Y140000D02*
X289291D01*
X227600Y96800D02*
X270800Y140000D01*
X201000Y96800D02*
X227600D01*
X180700Y76500D02*
X201000Y96800D01*
X81500Y76500D02*
X180700D01*
X127922Y270000D02*
X130291D01*
X104222Y293700D02*
X127922Y270000D01*
X79100Y293700D02*
X104222D01*
X63000Y309800D02*
X79100Y293700D01*
X47200Y309800D02*
X63000D01*
X41000Y316000D02*
X47200Y309800D01*
X41000Y316000D02*
Y324000D01*
X20000Y345000D02*
X41000Y324000D01*
X91700Y236000D02*
X93600D01*
X97600Y240000D01*
X99583D01*
X308700Y320000D02*
X320000D01*
X292000Y303300D02*
X308700Y320000D01*
X222100Y303300D02*
X292000D01*
X218000Y299200D02*
X222100Y303300D01*
X209241Y106941D02*
X211200Y108900D01*
X71941Y106941D02*
X209241D01*
X50000Y85000D02*
X71941Y106941D01*
X197900Y297600D02*
X230300Y330000D01*
X289291D01*
X279200Y457400D02*
X325400Y411200D01*
X57600Y457400D02*
X279200D01*
X50000Y465000D02*
X57600Y457400D01*
X43800Y391200D02*
X50000Y385000D01*
X43800Y391200D02*
Y405800D01*
X48000Y410000D01*
X56300D01*
X59200Y407100D01*
X293600D01*
X385498Y315202D01*
Y240998D02*
Y315202D01*
X383000Y238500D02*
X385498Y240998D01*
X342400Y238500D02*
X383000D01*
X340900Y240000D02*
X342400Y238500D01*
X238600Y287900D02*
X240700Y290000D01*
X289291D01*
X304700D02*
X320000D01*
X50000Y65000D02*
X186300D01*
X226200Y288000D02*
X234800Y296600D01*
X300000D01*
X304700Y301300D01*
Y304000D01*
X310700Y310000D01*
X320000D01*
X311900Y300000D02*
X320000D01*
X309100Y297200D02*
X311900Y300000D01*
X50000Y45000D02*
X222000D01*
X74600Y160000D02*
X99583D01*
X65200Y150600D02*
X74600Y160000D01*
X48100Y150600D02*
X65200D01*
X45600Y153100D02*
X48100Y150600D01*
X45600Y153100D02*
Y160600D01*
X50000Y165000D01*
X110700Y200000D02*
X130291D01*
X45600Y59400D02*
X50000Y55000D01*
X45600Y59400D02*
Y78000D01*
X48000Y80400D01*
X164700D01*
X184500Y100200D01*
X221600D01*
X241700Y120300D01*
X219700Y292100D02*
X227600Y300000D01*
X289291D01*
X179700Y274600D02*
X181800Y272500D01*
X263400D01*
X265900Y270000D01*
X289291D01*
X15600Y379400D02*
X20000Y375000D01*
X15600Y379400D02*
Y386900D01*
X18100Y389400D01*
X22150D01*
X29800Y381750D01*
Y348829D02*
Y381750D01*
Y348829D02*
X38629Y340000D01*
X57600D01*
X92300Y305300D01*
X115100D01*
X120400Y300000D01*
X130291D01*
X116700Y160000D02*
X130291D01*
X113000Y163700D02*
X116700Y160000D01*
X58700Y163700D02*
X113000D01*
X50000Y155000D02*
X58700Y163700D01*
X20000Y35000D02*
X25000Y30000D01*
X64300D01*
X72300Y38000D01*
X304000D01*
X308300Y42300D01*
Y136000D01*
X312300Y140000D01*
X320000D01*
X124400Y190000D02*
X130291D01*
X120200Y185800D02*
X124400Y190000D01*
X79200Y185800D02*
X120200D01*
X106700Y170000D02*
X107600Y170900D01*
X99583Y170000D02*
X106700D01*
X311200Y259400D02*
X314700Y262900D01*
Y268000D01*
X308200Y274500D02*
X314700Y268000D01*
X184000Y274500D02*
X308200D01*
X181100Y277400D02*
X184000Y274500D01*
X176900Y277400D02*
X181100D01*
X172500Y273000D02*
X176900Y277400D01*
X155500Y273000D02*
X172500D01*
X148900Y266400D02*
X155500Y273000D01*
X125600Y266400D02*
X148900D01*
X112000Y280000D02*
X125600Y266400D01*
X99583Y280000D02*
X112000D01*
X130291Y220000D02*
X279700D01*
X227500Y264900D02*
X310700D01*
X223700Y268700D02*
X227500Y264900D01*
X158800Y268700D02*
X223700D01*
X150100Y260000D02*
X158800Y268700D01*
X130291Y260000D02*
X150100D01*
X95300Y290000D02*
X99583D01*
X94300Y289000D02*
X95300Y290000D01*
X94300Y276300D02*
Y289000D01*
Y276300D02*
X105900D01*
X118300Y263900D01*
X149200D01*
X155800Y270500D01*
X257500D01*
X258300Y269700D01*
X1014600Y55161D02*
Y88700D01*
X1010700Y92600D02*
X1014600Y88700D01*
X913900Y301600D02*
X1040300D01*
X1010200Y220400D02*
X1039500D01*
X979800Y250800D02*
X1010200Y220400D01*
X930457Y250800D02*
X979800D01*
X1065500Y278400D02*
X1068300Y275600D01*
X1054000Y278400D02*
X1065500D01*
X1044131Y288269D02*
X1054000Y278400D01*
X1024408Y288269D02*
X1044131D01*
X1020540Y284400D02*
X1024408Y288269D01*
X933000Y284400D02*
X1020540D01*
X931400Y282800D02*
X933000Y284400D01*
X1002600Y102300D02*
X1044800D01*
X1049000Y122200D02*
Y123400D01*
X1046200Y119400D02*
X1049000Y122200D01*
X1014800Y119400D02*
X1046200D01*
X1008000Y112600D02*
X1014800Y119400D01*
X1006000Y112600D02*
X1008000D01*
X783100Y219100D02*
X785100Y221100D01*
Y227720D01*
X783920Y228900D02*
X785100Y227720D01*
X775100Y228900D02*
X783920D01*
X771600Y225400D02*
X775100Y228900D01*
X710700Y225400D02*
X771600D01*
X765000Y212300D02*
X773200Y204100D01*
X728059Y212300D02*
X765000D01*
X727459Y212900D02*
X728059Y212300D01*
X717600Y212900D02*
X727459D01*
X713600Y216900D02*
X717600Y212900D01*
X633600Y53300D02*
X644000D01*
X626900Y60000D02*
X633600Y53300D01*
X702400Y356000D02*
Y371300D01*
X700000Y353600D02*
X702400Y356000D01*
X693494Y353600D02*
X700000D01*
X691294Y355800D02*
X693494Y353600D01*
X646400Y355800D02*
X691294D01*
X644200Y353600D02*
X646400Y355800D01*
X655400Y379600D02*
X675000D01*
X837300Y145000D02*
X874200D01*
X823100Y159200D02*
X837300Y145000D01*
X819731Y159200D02*
X823100D01*
X807491Y171440D02*
X819731Y159200D01*
X765000Y171440D02*
X807491D01*
X775200Y163800D02*
X778300Y160700D01*
X812500D01*
X815898Y157302D01*
X822098D01*
X837900Y141500D01*
X882500D01*
X872100Y89900D02*
X873400Y88600D01*
X810700Y89900D02*
X872100D01*
X837000Y169300D02*
X905300D01*
X841200Y178100D02*
X891700D01*
X909500Y195900D01*
X878300Y91100D02*
X880100Y89300D01*
X910300D01*
X944000Y123000D01*
Y136803D01*
X949456Y142259D01*
X953409D01*
X957300Y146150D01*
X947103Y148400D02*
X948700D01*
X939100Y140397D02*
X947103Y148400D01*
X939100Y125600D02*
Y140397D01*
X917100Y138900D02*
Y195900D01*
X920900Y111600D02*
X929900D01*
X942200Y123900D01*
Y139861D01*
X946439Y144100D01*
X951306D01*
X954288Y147082D01*
Y151505D01*
X886700Y99000D02*
X889700Y96000D01*
X863850Y99000D02*
X886700D01*
X862950Y99900D02*
X863850Y99000D01*
X850300Y99900D02*
X862950D01*
X849300Y98900D02*
X850300Y99900D01*
X800700Y98900D02*
X849300D01*
X797700Y101900D02*
X800700Y98900D01*
X794100Y101900D02*
X797700D01*
X790600Y105400D02*
X794100Y101900D01*
X876200Y102400D02*
X889200D01*
X890900Y104100D01*
Y113000D01*
X879012Y124888D02*
X890900Y113000D01*
X809588Y124888D02*
X879012D01*
X808400Y123700D02*
X809588Y124888D01*
X795200Y95200D02*
X857400D01*
X793200Y97200D02*
X795200Y95200D01*
X809500Y105700D02*
X881900D01*
X826100Y395200D02*
X826400D01*
X824100Y393200D02*
X826100Y395200D01*
X792300Y393200D02*
X824100D01*
X791000Y391900D02*
X792300Y393200D01*
X791000Y385800D02*
Y391900D01*
Y385800D02*
X793000Y383800D01*
Y368100D02*
Y383800D01*
X791900Y367000D02*
X793000Y368100D01*
X791300Y367000D02*
X791900D01*
X784600Y373700D02*
X791300Y367000D01*
X784600Y373700D02*
Y400300D01*
X782900Y402000D02*
X784600Y400300D01*
X776400Y402000D02*
X782900D01*
X765900Y412500D02*
X776400Y402000D01*
X691800Y412500D02*
X765900D01*
X688100Y416200D02*
X691800Y412500D01*
X688100Y416200D02*
Y437700D01*
X688500Y438100D01*
X830300Y439000D02*
X831700Y437600D01*
X816700Y439000D02*
X830300D01*
X802383Y453317D02*
X816700Y439000D01*
X704283Y453317D02*
X802383D01*
X702900Y454700D02*
X704283Y453317D01*
X674200Y454700D02*
X702900D01*
X666700Y447200D02*
X674200Y454700D01*
X694500Y448300D02*
X696500D01*
X708600Y436200D01*
X825000D01*
X691000Y419600D02*
Y432000D01*
Y419600D02*
X694300Y416300D01*
X782000D01*
X785400Y412900D01*
X1036472Y444772D02*
X1041700Y450000D01*
X997172Y444772D02*
X1036472D01*
X991200Y438800D02*
X997172Y444772D01*
X920100Y438800D02*
X991200D01*
X917200Y441700D02*
X920100Y438800D01*
X917200Y441700D02*
Y444200D01*
X920000Y447000D01*
X922600D01*
X926000Y443600D01*
X958900Y448700D02*
Y449900D01*
X974900Y465900D01*
X1044100D01*
X210000Y25000D02*
X220200Y35200D01*
X666077D01*
X695900Y65023D01*
Y78820D01*
X708880Y91800D01*
X749358D01*
X751158Y90000D01*
X771600D01*
X777000Y95400D01*
X781100D01*
X788308Y88192D01*
X796693D01*
X800284Y84600D01*
X801669D01*
X802369Y83900D01*
X914400D01*
X920500Y90000D01*
X945500D01*
X951500Y84000D01*
X986900D01*
X988600Y85700D01*
Y105200D01*
X1001000Y117600D01*
X1006977D01*
X1022589Y133212D01*
X1031550D01*
X1050647Y152309D01*
Y159979D01*
X1055669Y165000D01*
X1060354D01*
X395300Y209700D02*
X530891D01*
X535000Y205591D01*
X1060354Y205000D02*
X1075800D01*
X1056100Y62900D02*
X1078700Y85500D01*
Y208300D01*
X1072000Y215000D02*
X1078700Y208300D01*
X1060354Y215000D02*
X1072000D01*
X1053200Y58600D02*
X1056100Y55700D01*
X1053200Y58600D02*
Y106571D01*
X1067500Y120871D01*
Y199900D01*
X1066400Y201000D02*
X1067500Y199900D01*
X1056000Y201000D02*
X1066400D01*
X1054900Y202100D02*
X1056000Y201000D01*
X1054900Y202100D02*
Y223900D01*
X1056000Y225000D01*
X1060354D01*
Y235000D02*
X1067800D01*
X1071800Y231000D01*
X1060354Y255000D02*
X1074000D01*
X1065000Y272300D02*
X1083300D01*
X1062300Y275000D02*
X1065000Y272300D01*
X1060354Y275000D02*
X1062300D01*
X1073400Y389100D02*
Y396200D01*
X1069200Y384900D02*
X1073400Y389100D01*
X1069200Y367004D02*
Y384900D01*
Y367004D02*
X1075500Y360704D01*
Y350700D02*
Y360704D01*
X1071200Y346400D02*
X1075500Y350700D01*
X1071200Y302100D02*
Y346400D01*
X1064100Y295000D02*
X1071200Y302100D01*
X1060354Y295000D02*
X1064100D01*
X1060354Y315000D02*
X1068200D01*
X1068300Y314900D01*
X1038300Y320600D02*
Y344300D01*
X988286Y394314D02*
X1038300Y344300D01*
X988286Y394314D02*
Y395500D01*
X1060354Y325000D02*
X1064600D01*
X1065700Y326100D01*
Y350600D01*
X1070900Y355800D01*
X1048900Y342100D02*
Y376400D01*
Y342100D02*
X1056000Y335000D01*
X1060354D01*
X1072400Y412900D02*
X1095200Y390100D01*
Y30400D02*
Y390100D01*
X1073200Y8400D02*
X1095200Y30400D01*
X700000Y8400D02*
X1073200D01*
X694000Y14400D02*
X700000Y8400D01*
X694000Y14400D02*
Y52600D01*
X696100Y54700D01*
X706900D01*
X721400Y40200D01*
X750000Y39646D02*
Y40200D01*
X940300Y20600D02*
X941882Y22182D01*
X948718D01*
X949800Y21100D01*
Y14100D02*
Y21100D01*
X946300Y10600D02*
X949800Y14100D01*
X790400Y10600D02*
X946300D01*
X770000Y31000D02*
X790400Y10600D01*
X770000Y31000D02*
Y39646D01*
X780000Y26300D02*
Y39646D01*
X1043082Y23982D02*
X1082200Y63100D01*
X938708Y23982D02*
X1043082D01*
X935027Y20300D02*
X938708Y23982D01*
X816000Y20300D02*
X935027D01*
X810000Y26300D02*
X816000Y20300D01*
X810000Y26300D02*
Y39646D01*
X944350Y16350D02*
X946900Y18900D01*
X817000Y16350D02*
X944350D01*
X806500Y26850D02*
X817000Y16350D01*
X806500Y26850D02*
Y44700D01*
X806700Y44900D01*
X823300D01*
Y37100D02*
Y44900D01*
Y37100D02*
X826000Y34400D01*
X849000D01*
X850000Y35400D01*
Y39646D01*
X880000Y31300D02*
Y39646D01*
Y31300D02*
X884100Y27200D01*
X935782D01*
X937182Y25800D01*
X964300D01*
X970600Y32100D01*
Y47600D01*
X964900Y53300D02*
X970600Y47600D01*
X896192Y29008D02*
X958708D01*
X890000Y35200D02*
X896192Y29008D01*
X890000Y35200D02*
Y39646D01*
X900000Y34608D02*
Y39646D01*
Y34608D02*
X901615Y32993D01*
X903007D01*
X903392Y32608D01*
X944977D01*
X947569Y35200D01*
X955408D01*
X957408Y33200D01*
X967700D01*
X870000Y66100D02*
Y70354D01*
X869000Y65100D02*
X870000Y66100D01*
X857000Y65100D02*
X869000D01*
X856000Y66100D02*
X857000Y65100D01*
X856000Y66100D02*
Y73318D01*
X851118Y78200D02*
X856000Y73318D01*
X807860Y78200D02*
X851118D01*
X806869Y79192D02*
X807860Y78200D01*
X800469Y79192D02*
X806869D01*
X798669Y80992D02*
X800469Y79192D01*
X796693Y80992D02*
X798669D01*
X793093Y84592D02*
X796693Y80992D01*
X778908Y84592D02*
X793093D01*
X776400Y87100D02*
X778908Y84592D01*
X776600Y181100D02*
X800500D01*
X820400Y161200D01*
X836800D01*
X837400Y62400D02*
X840000Y65000D01*
Y70354D01*
X724200Y87100D02*
X728508Y82792D01*
X790200D01*
X793800Y79192D01*
X796869D01*
X798669Y77392D01*
X805069D01*
X806160Y76300D01*
X818100D01*
X820000Y74400D01*
Y70354D02*
Y74400D01*
X720708Y80992D02*
X788400D01*
X792000Y77392D01*
X795069D01*
X796869Y75592D01*
X803300D01*
X804592Y74300D01*
X810000Y70354D02*
Y74300D01*
X790000Y70354D02*
Y72300D01*
X785300Y73231D02*
X786231Y72300D01*
X785300Y73231D02*
Y76892D01*
X784800Y77392D02*
X785300Y76892D01*
X745192Y77392D02*
X784800D01*
X742400Y74600D02*
X745192Y77392D01*
X715900Y74600D02*
X742400D01*
X770000Y66000D02*
Y70354D01*
X767317Y63317D02*
X770000Y66000D01*
X724041Y63317D02*
X767317D01*
X722341Y61618D02*
X724041Y63317D01*
X717582Y61618D02*
X722341D01*
X714000Y65200D02*
X717582Y61618D01*
X701499Y71600D02*
X721301D01*
X722501Y72800D01*
X726100D01*
X731900Y67000D01*
X738200D01*
X738700Y67500D01*
X750000D02*
Y70354D01*
X660700Y165000D02*
X670354D01*
X694600Y182800D02*
Y186800D01*
X676400Y205000D02*
X694600Y186800D01*
X670354Y205000D02*
X676400D01*
X670354Y225000D02*
X705500D01*
X708000Y222500D01*
X737400D01*
X670354Y245000D02*
X734300D01*
X670354Y275000D02*
X699900D01*
X701600Y276700D01*
X714400D01*
X715200Y277500D01*
X670354Y285000D02*
X692651D01*
X695151Y287500D01*
X705800D01*
X706800Y288500D01*
X660500Y295000D02*
X670354D01*
X647200Y308300D02*
X660500Y295000D01*
X634400Y308300D02*
X647200D01*
X634400Y301900D02*
Y308300D01*
Y301900D02*
X638000Y298300D01*
X644900D01*
Y291700D02*
Y298300D01*
X633100Y291700D02*
X644900D01*
X630800Y294000D02*
X633100Y291700D01*
X630800Y294000D02*
Y352000D01*
X636400Y357600D01*
X696500D01*
X697600Y356500D01*
X670354Y315000D02*
X675654D01*
X678054Y317400D01*
X693410D01*
X694510Y316300D01*
X819900D01*
X822200Y318600D01*
X869300D01*
X871100Y320400D01*
X664200Y319600D02*
X812500D01*
X663000Y320800D02*
X664200Y319600D01*
X663000Y320800D02*
Y342000D01*
X666000Y345000D01*
X670354D01*
X635400Y325000D02*
X639646D01*
X634400Y326000D02*
X635400Y325000D01*
X634400Y326000D02*
Y348300D01*
X678500D01*
X694900Y331900D01*
X870600D01*
X888700Y274600D02*
X888900Y274400D01*
X837769Y274600D02*
X888700D01*
X832569Y269400D02*
X837769Y274600D01*
X778643Y269400D02*
X832569D01*
X776043Y272000D02*
X778643Y269400D01*
X776043Y272000D02*
Y277973D01*
X757916Y296100D02*
X776043Y277973D01*
X741000Y296100D02*
X757916D01*
X738100Y293200D02*
X741000Y296100D01*
X692200Y293200D02*
X738100D01*
X690700Y291700D02*
X692200Y293200D01*
X661000Y291700D02*
X690700D01*
X647700Y305000D02*
X661000Y291700D01*
X639646Y305000D02*
X647700D01*
X639646Y225000D02*
X657217D01*
X663917Y218300D01*
X705505D01*
X713505Y210300D01*
X718079D01*
X773379Y155000D01*
X807100D01*
X809800Y152300D01*
X804700Y153100D02*
X813200Y144600D01*
X770191Y153100D02*
X804700D01*
X714891Y208400D02*
X770191Y153100D01*
X654200Y208400D02*
X714891D01*
X647600Y215000D02*
X654200Y208400D01*
X639646Y215000D02*
X647600D01*
X639646Y205000D02*
X651500D01*
X657000Y199500D01*
X679100D01*
X691700Y186900D01*
Y179400D02*
Y186900D01*
Y179400D02*
X719800Y151300D01*
X797100D01*
X810300Y138100D01*
X817600Y138800D02*
Y148900D01*
X813900Y135100D02*
X817600Y138800D01*
X808100Y135100D02*
X813900D01*
X806935Y136265D02*
X808100Y135100D01*
X806935Y136265D02*
Y138599D01*
X796034Y149500D02*
X806935Y138599D01*
X776200Y149500D02*
X796034D01*
X772200Y145500D02*
X776200Y149500D01*
X684900Y145500D02*
X772200D01*
X684300Y146100D02*
X684900Y145500D01*
X684300Y146100D02*
Y176500D01*
X682531Y178269D02*
X684300Y176500D01*
X661000Y178269D02*
X682531D01*
X654269Y185000D02*
X661000Y178269D01*
X639646Y185000D02*
X654269D01*
X635408Y175000D02*
X639646D01*
X634408Y174000D02*
X635408Y175000D01*
X634408Y161731D02*
Y174000D01*
Y161731D02*
X637740Y158400D01*
X675700D01*
X680200Y153900D01*
Y120100D02*
Y153900D01*
Y120100D02*
X687400Y112900D01*
X777500D01*
X781700Y117100D01*
X793952D01*
X797952Y113100D01*
X812700D01*
X813700Y112100D01*
X823700Y108600D02*
X823800Y108500D01*
X807200Y108600D02*
X823700D01*
X804600Y111200D02*
X807200Y108600D01*
X796252Y111200D02*
X804600D01*
X792252Y115200D02*
X796252Y111200D01*
X784000Y115200D02*
X792252D01*
X771500Y102700D02*
X784000Y115200D01*
X678800Y102700D02*
X771500D01*
X671900Y95800D02*
X678800Y102700D01*
X663300Y95800D02*
X671900D01*
X661100Y98000D02*
X663300Y95800D01*
X661100Y98000D02*
Y139800D01*
X645900Y155000D02*
X661100Y139800D01*
X639646Y155000D02*
X645900D01*
X788000Y279600D02*
X789700Y277900D01*
X808700D01*
X812658Y273942D01*
X831042D01*
X865500Y308400D01*
X1040100D01*
X1044000Y312300D01*
Y376600D01*
X1062900Y395500D01*
Y463800D01*
X1053800Y472900D02*
X1062900Y463800D01*
X922200Y472900D02*
X1053800D01*
X913700Y464400D02*
X922200Y472900D01*
X913700Y455100D02*
Y464400D01*
X901000Y455100D02*
X913700D01*
X900000Y456100D02*
X901000Y455100D01*
X900000Y456100D02*
Y460354D01*
X890000Y452000D02*
Y460354D01*
Y452000D02*
X894400Y447600D01*
X905100D01*
X915900Y436800D01*
X945100D01*
X951300Y430600D01*
X861000Y301300D02*
X901200D01*
X831000Y271300D02*
X861000Y301300D01*
X782300Y271300D02*
X831000D01*
X781161Y272439D02*
X782300Y271300D01*
X883500Y375800D02*
Y408876D01*
X881043Y411333D02*
X883500Y408876D01*
X875667Y411333D02*
X881043D01*
X864900Y422100D02*
X875667Y411333D01*
X864900Y422100D02*
Y441500D01*
X860000Y446400D02*
X864900Y441500D01*
X860000Y446400D02*
Y460354D01*
X858200Y382400D02*
X868000Y372600D01*
X858200Y382400D02*
Y405431D01*
X860600Y407831D01*
X840000Y448500D02*
X850600Y437900D01*
X836000Y448500D02*
X840000D01*
X830000Y454500D02*
X836000Y448500D01*
X830000Y454500D02*
Y460354D01*
X867400Y379200D02*
X870900Y375700D01*
Y370100D02*
Y375700D01*
X869800Y369000D02*
X870900Y370100D01*
X866100Y369000D02*
X869800D01*
X856000Y379100D02*
X866100Y369000D01*
X856000Y379100D02*
Y412469D01*
X855300Y413169D02*
X856000Y412469D01*
X855300Y413169D02*
Y463200D01*
X852500Y466000D02*
X855300Y463200D01*
X847600Y466000D02*
X852500D01*
X845000Y463400D02*
X847600Y466000D01*
X845000Y456000D02*
Y463400D01*
X843000Y454000D02*
X845000Y456000D01*
X837000Y454000D02*
X843000D01*
X836600Y454400D02*
X837000Y454000D01*
X836600Y454400D02*
Y464800D01*
X835500Y465900D02*
X836600Y464800D01*
X801000Y465900D02*
X835500D01*
X800000Y464900D02*
X801000Y465900D01*
X800000Y460354D02*
Y464900D01*
X790000Y460354D02*
Y465000D01*
X793362Y468362D01*
X813361D01*
X816099Y471100D01*
X858800D01*
X864500Y465400D01*
Y453200D02*
Y465400D01*
Y453200D02*
X876000Y441700D01*
X868300Y398100D02*
X878300Y408100D01*
X868300Y386800D02*
Y398100D01*
X770000Y460354D02*
Y460600D01*
X762300Y468300D02*
X770000Y460600D01*
X760350Y475300D02*
X772100D01*
X756450Y479200D02*
X760350Y475300D01*
X663900Y479200D02*
X756450D01*
X653300Y468600D02*
X663900Y479200D01*
X653300Y438600D02*
Y468600D01*
Y438600D02*
X659400Y432500D01*
X750000Y429600D02*
Y429646D01*
X696414Y442786D02*
X709600Y429600D01*
X685486Y442786D02*
X696414D01*
X682800Y440100D02*
X685486Y442786D01*
X682800Y424200D02*
Y440100D01*
X760000Y425400D02*
Y429646D01*
X759000Y424400D02*
X760000Y425400D01*
X709932Y424400D02*
X759000D01*
X693346Y440986D02*
X709932Y424400D01*
X687000Y440986D02*
X693346D01*
X685700Y439686D02*
X687000Y440986D01*
X685700Y419800D02*
Y439686D01*
X683700Y417800D02*
X685700Y419800D01*
X770000Y424050D02*
Y429646D01*
X768000Y422050D02*
X770000Y424050D01*
X697450Y422050D02*
X768000D01*
X695450Y420050D02*
X697450Y422050D01*
X790000Y413100D02*
Y429646D01*
X786900Y410000D02*
X790000Y413100D01*
X784100Y410000D02*
X786900D01*
X781800Y412300D02*
X784100Y410000D01*
X772000Y412300D02*
X781800D01*
X771800Y412100D02*
X772000Y412300D01*
X800000Y417500D02*
Y429646D01*
X790700Y408200D02*
X800000Y417500D01*
X779500Y408200D02*
X790700D01*
X778300Y409400D02*
X779500Y408200D01*
X786400Y376753D02*
X790100Y373053D01*
X786400Y376753D02*
Y402000D01*
X789413Y405013D01*
X790213D01*
X810000Y424800D01*
Y429646D01*
X850000Y425080D02*
Y429646D01*
X847600Y422680D02*
X850000Y425080D01*
X847600Y408300D02*
Y422680D01*
X843600Y404300D02*
X847600Y408300D01*
X843600Y390000D02*
Y404300D01*
X818400Y364800D02*
X843600Y390000D01*
X808200Y364800D02*
X818400D01*
X880000Y424300D02*
Y429646D01*
Y424300D02*
X888500Y415800D01*
X1003600D01*
X1019200Y431400D01*
X890000Y429646D02*
Y441300D01*
X991700Y418200D02*
X1012100Y438600D01*
X931900Y418200D02*
X991700D01*
X930000Y420100D02*
X931900Y418200D01*
X930000Y420100D02*
Y429646D01*
X940000Y425600D02*
Y429646D01*
Y425600D02*
X941000Y424600D01*
X980600D01*
X998900Y442900D01*
X1038800D01*
X1044600Y448700D01*
Y454600D01*
X1042800Y456400D02*
X1044600Y454600D01*
X1042800Y456400D02*
Y458700D01*
X1042100Y459400D02*
X1042800Y458700D01*
X1032500Y459400D02*
X1042100D01*
X930000Y39646D02*
X940000D01*
X920000D02*
X930000D01*
X910000D02*
X920000D01*
X930000Y70354D02*
X940000D01*
X920000D02*
X930000D01*
X910000D02*
X920000D01*
X778300Y474800D02*
X788362D01*
X796962Y483400D01*
X857187D01*
X859187Y481400D01*
X1060900D01*
X1069500Y472800D01*
Y407500D02*
Y472800D01*
Y407500D02*
X1093300Y383700D01*
Y250700D02*
Y383700D01*
X1087600Y245000D02*
X1093300Y250700D01*
X1029646Y245000D02*
X1060354D01*
X490000Y70000D02*
X500000D01*
X480000D02*
X490000D01*
X470000D02*
X480000D01*
X460000D02*
X470000D01*
X633400D02*
X655700Y47700D01*
X668200D01*
X669500Y49000D01*
Y59100D01*
X652700Y75900D02*
X669500Y59100D01*
X550000Y70000D02*
X633400D01*
X540000D02*
X550000D01*
X500000D02*
X510000D01*
X530000D02*
X540000D01*
X510000D02*
X520000D01*
X530000D01*
X470000Y370000D02*
X480000D01*
X460000D02*
X470000D01*
X540000D02*
X550000D01*
X530000D02*
X540000D01*
X520000D02*
X530000D01*
X480000D02*
X490000D01*
X510000D02*
X520000D01*
X490000D02*
X500000D01*
X510000D01*
X289291Y360000D02*
X320000D01*
X130291Y140000D02*
Y150000D01*
X99583Y140000D02*
X130291D01*
X99583D02*
Y150000D01*
Y360000D02*
X130291D01*
X99583Y150000D02*
X110100D01*
X430000Y70000D02*
X440000D01*
X420000D02*
X430000D01*
X360000D02*
X370000D01*
X350000D02*
X360000D01*
X370000D02*
X380000D01*
X390000D01*
X410000D02*
X420000D01*
X390000D02*
X400000D01*
X410000D01*
X1047400Y461500D02*
X1048000D01*
X1049300Y460200D01*
Y434400D02*
Y460200D01*
X1043500Y428600D02*
X1049300Y434400D01*
X657200Y40100D02*
X658600Y41500D01*
X618100Y40100D02*
X657200D01*
X609700Y48500D02*
X618100Y40100D01*
X440000Y40000D02*
X446400Y46400D01*
X590400D01*
X1026200Y75500D02*
X1035300D01*
X797800Y142100D02*
X798500Y141400D01*
X845600Y172900D02*
X911900D01*
X753800Y381316D02*
X796516Y338600D01*
X865400Y121200D02*
X866948Y119652D01*
X813900Y121200D02*
X865400D01*
X810743Y118043D02*
X813900Y121200D01*
X808500Y118043D02*
X810743D01*
X884600Y357300D02*
X898000Y370700D01*
X836400Y372300D02*
X851400Y357300D01*
X430000Y370000D02*
X440000D01*
X411000Y420000D02*
X423100Y432100D01*
X573500D01*
X604400Y463000D01*
X420000Y370000D02*
X430000D01*
X410000D02*
X420000D01*
X400000D02*
X410000D01*
X390000D02*
X400000D01*
X370000D02*
X380000D01*
X390000D01*
X360000D02*
X370000D01*
X350000D02*
X360000D01*
X703543Y97700D02*
X706643Y100800D01*
X781900D01*
X790000Y108900D02*
X792200D01*
X794500Y106600D01*
X799800D01*
X1040700Y176500D02*
X1042300Y174900D01*
X1040700Y176500D02*
Y198266D01*
X1040366Y198600D02*
X1040700Y198266D01*
X996400Y198600D02*
X1040366D01*
X978200Y180400D02*
X996400Y198600D01*
X925200Y204000D02*
X930300D01*
X957900Y176400D01*
X974200D01*
X735100Y204400D02*
X758566D01*
X764966Y198000D01*
X770434D01*
X773134Y200700D01*
X779500D01*
X781800Y198400D01*
X784400Y201000D01*
Y210900D01*
X774800Y220500D02*
X784400Y210900D01*
X781800Y198400D02*
X782100Y198100D01*
X806263D01*
X816863Y208700D01*
X868300Y339700D02*
X901900D01*
X908800Y332800D01*
X920600D01*
X923957Y329443D01*
X891600Y118300D02*
X893500Y116400D01*
Y95300D02*
Y116400D01*
X891400Y93200D02*
X893500Y95300D01*
X886900Y93200D02*
X891400D01*
X883900Y96200D02*
X886900Y93200D01*
X862000Y96200D02*
X883900D01*
X860200Y98000D02*
X862000Y96200D01*
X855300Y98000D02*
X860200D01*
X854400Y97100D02*
X855300Y98000D01*
X798900Y97100D02*
X854400D01*
X796000Y100000D02*
X798900Y97100D01*
X790200Y100000D02*
X796000D01*
X787600Y102600D02*
X790200Y100000D01*
X787600Y102600D02*
Y106500D01*
X790000Y108900D01*
X440000Y379600D02*
Y383000D01*
Y379600D02*
X454100Y365500D01*
X693700D01*
X331000Y231900D02*
X342600D01*
X350000Y383000D02*
X360000D01*
X430000D02*
X440000D01*
X360000D02*
X370000D01*
X380000D02*
X390000D01*
X370000D02*
X380000D01*
X390000D02*
X400000D01*
X410000D01*
X420000D02*
X430000D01*
X410000D02*
X420000D01*
X1005900Y175000D02*
X1029646D01*
X656500Y228300D02*
X705100D01*
X713000Y236200D01*
X790375D01*
X795675Y230900D01*
X911400D01*
X937300Y205000D01*
X1029646D01*
Y185000D02*
X1034300D01*
X1037500Y188200D01*
Y191000D01*
X125200Y250000D02*
X130291D01*
X123100Y247900D02*
X125200Y250000D01*
X123100Y228100D02*
Y247900D01*
Y228100D02*
X124600Y226600D01*
X307531D01*
X314200Y233269D01*
X325531D01*
X330000Y228800D01*
X648700D01*
X651400Y231500D01*
X691600D01*
X698100Y238000D01*
X791120D01*
X796320Y232800D01*
X916500D01*
X937800Y211500D01*
X1043845D01*
X1047800Y207545D01*
Y189200D02*
Y207545D01*
Y189200D02*
X1052000Y185000D01*
X1060354D01*
X1029646Y225000D02*
X1040000D01*
X1042900Y222100D01*
Y216000D02*
Y222100D01*
X1056842Y118963D02*
Y124442D01*
X1049500Y111622D02*
X1056842Y118963D01*
X1049500Y100800D02*
Y111622D01*
X1048000Y99300D02*
X1049500Y100800D01*
X1001500Y99300D02*
X1048000D01*
X990500Y88300D02*
X1001500Y99300D01*
X990500Y84800D02*
Y88300D01*
X987900Y82200D02*
X990500Y84800D01*
X929900Y82200D02*
X987900D01*
X925000Y87100D02*
X929900Y82200D01*
X1052000Y195000D02*
X1060354D01*
X1049900Y197100D02*
X1052000Y195000D01*
X1049900Y197100D02*
Y231500D01*
X1043000Y238400D02*
X1049900Y231500D01*
X1022500Y238400D02*
X1043000D01*
X1010700Y226600D02*
X1022500Y238400D01*
X1008400Y226600D02*
X1010700D01*
X968150Y266850D02*
X1008400Y226600D01*
X892150Y266850D02*
X968150D01*
X886200Y272800D02*
X892150Y266850D01*
X846500Y272800D02*
X886200D01*
X841285Y267585D02*
X846500Y272800D01*
X767300Y267585D02*
X841285D01*
X745585Y289300D02*
X767300Y267585D01*
X739617Y289300D02*
X745585D01*
X737617Y291300D02*
X739617Y289300D01*
X695400Y291300D02*
X737617D01*
X693300Y289200D02*
X695400Y291300D01*
X524800Y289200D02*
X693300D01*
X470669Y235069D02*
X524800Y289200D01*
X217931Y235069D02*
X470669D01*
X213000Y240000D02*
X217931Y235069D01*
X130291Y240000D02*
X213000D01*
X945000Y63200D02*
X975700D01*
X1008000Y95500D01*
X1014800D01*
X1017100Y93200D01*
X1044700D01*
X1051400Y99900D01*
Y110200D01*
X1065600Y124400D01*
Y174000D01*
X1064600Y175000D02*
X1065600Y174000D01*
X1060354Y175000D02*
X1064600D01*
X673800Y107700D02*
X729500D01*
X670000Y103900D02*
X673800Y107700D01*
X970500Y384000D02*
X970600Y384100D01*
X970500Y317289D02*
X972789Y315000D01*
X897100Y137400D02*
X905300Y129200D01*
X910000D01*
X911600Y130800D02*
Y144200D01*
X910000Y129200D02*
X911600Y130800D01*
X897100Y137400D02*
Y141500D01*
X679900Y414900D02*
Y429900D01*
Y414900D02*
X686000Y408800D01*
X763000D01*
X805200Y284400D02*
X835600Y314800D01*
X879800D01*
X880000Y315000D01*
X970600Y344000D02*
Y384100D01*
X798900Y348100D02*
X808655D01*
X812131Y344623D01*
X940977D01*
X460000Y383000D02*
X470000D01*
X510000D02*
X520000D01*
X540000D02*
X550000D01*
X520000D02*
X530000D01*
X540000D01*
X500000D02*
X510000D01*
X490000D02*
X500000D01*
X470000D02*
X480000D01*
X490000D01*
X99583Y260000D02*
X109800D01*
X111900Y262100D01*
X1029646Y155000D02*
X1037400D01*
X1040400Y158000D01*
Y164400D01*
X1038800Y166000D02*
X1040400Y164400D01*
X701700Y128400D02*
X706800Y133500D01*
X711600D01*
X722100Y123000D01*
X771884D01*
X781184Y132300D01*
X897973D01*
X905473Y124800D01*
X931763D01*
X934500Y127537D01*
Y144000D01*
X955500Y165000D01*
X1029646D01*
X99583Y340000D02*
X130291D01*
X99583Y350000D02*
X130291D01*
X92900Y300000D02*
X99583D01*
X62900Y330000D02*
X92900Y300000D01*
X44700Y330000D02*
X62900D01*
X27900Y346800D02*
X44700Y330000D01*
X27900Y346800D02*
Y377100D01*
X20000Y385000D02*
X27900Y377100D01*
X91800Y310000D02*
X99583D01*
X51800Y350000D02*
X91800Y310000D01*
X38100Y350000D02*
X51800D01*
X32000Y356100D02*
X38100Y350000D01*
X32000Y356100D02*
Y383000D01*
X20000Y395000D02*
X32000Y383000D01*
X99583Y330000D02*
X130291D01*
X134700D02*
X141000Y336300D01*
X130291Y330000D02*
X134700D01*
X88800Y320000D02*
X99583D01*
X232000Y340000D02*
X289291D01*
X190000Y298000D02*
X232000Y340000D01*
X368500Y250000D02*
X370600Y247900D01*
X374600D01*
X378700Y252000D01*
Y316754D01*
X327054Y368400D02*
X378700Y316754D01*
X88600Y368400D02*
X327054D01*
X66400Y390600D02*
X88600Y368400D01*
X48100Y390600D02*
X66400D01*
X45600Y393100D02*
X48100Y390600D01*
X45600Y393100D02*
Y400600D01*
X50000Y405000D01*
X289291Y240000D02*
X311131D01*
X314400Y243269D01*
X340269D02*
X343137Y240400D01*
X377000D01*
X383283Y246683D01*
Y314717D01*
X303000Y395000D02*
X383283Y314717D01*
X50000Y395000D02*
X303000D01*
X118900Y290100D02*
X125000Y284000D01*
Y276700D02*
Y284000D01*
Y276700D02*
X165138D01*
X166943Y274895D01*
X170888D01*
X175193Y279200D01*
X183100D01*
X185800Y276500D01*
X311500D01*
X318000Y270000D01*
X320000D01*
Y230000D02*
X326200D01*
X327100Y229100D01*
Y208000D02*
Y229100D01*
X322500Y203400D02*
X327100Y208000D01*
X71900Y203400D02*
X322500D01*
X69100Y200600D02*
X71900Y203400D01*
X40600Y200600D02*
X69100D01*
X191200Y210000D02*
X289291D01*
X274100Y200000D02*
X289291D01*
X269100Y195000D02*
X274100Y200000D01*
X74700Y195000D02*
X269100D01*
X69100Y189400D02*
X74700Y195000D01*
X48100Y189400D02*
X69100D01*
X45700Y187000D02*
X48100Y189400D01*
X45700Y184000D02*
Y187000D01*
X20000Y158300D02*
X45700Y184000D01*
X20000Y155000D02*
Y158300D01*
Y145000D02*
X36000D01*
X41500Y150500D01*
Y165100D01*
X45800Y169400D01*
X77900D01*
X80600Y166700D01*
X170700D01*
X194000Y190000D01*
X289291D01*
X309600D02*
X320000D01*
X304700Y185100D02*
X309600Y190000D01*
X225900Y185100D02*
X304700D01*
X194200Y153400D02*
X225900Y185100D01*
X94200Y153400D02*
X194200D01*
X80800Y140000D02*
X94200Y153400D01*
X17700Y140000D02*
X80800D01*
X15600Y137900D02*
X17700Y140000D01*
X15600Y129400D02*
Y137900D01*
Y129400D02*
X20000Y125000D01*
X15700Y110700D02*
X20000Y115000D01*
X15700Y102000D02*
Y110700D01*
Y102000D02*
X17700Y100000D01*
X58346D01*
X70246Y111900D01*
X202939D01*
X246239Y155200D01*
X295900D01*
X300000Y159300D01*
Y176000D01*
X304000Y180000D01*
X320000D01*
X20000Y75000D02*
X35000Y90000D01*
X52200D01*
X71100Y108900D01*
X204878D01*
X249378Y153400D01*
X300100D01*
X302100Y155400D01*
Y171000D01*
X305400Y174300D01*
X324000D01*
X325300Y173000D01*
Y161000D02*
Y173000D01*
X324300Y160000D02*
X325300Y161000D01*
X320000Y160000D02*
X324300D01*
X20000Y55000D02*
X34300Y40700D01*
X300000D01*
X306500Y47200D01*
Y144500D01*
X312000Y150000D01*
X320000D01*
X259100D02*
X289291D01*
X214241Y105141D02*
X259100Y150000D01*
X76100Y105141D02*
X214241D01*
X60300Y89341D02*
X76100Y105141D01*
X60300Y83700D02*
Y89341D01*
X312700Y220000D02*
X320000D01*
X308500Y215800D02*
X312700Y220000D01*
X61398Y215800D02*
X308500D01*
X49198Y228000D02*
X61398Y215800D01*
X33000Y228000D02*
X49198D01*
X20000Y215000D02*
X33000Y228000D01*
X89200Y270000D02*
X99583D01*
X58600Y300600D02*
X89200Y270000D01*
X45700Y300600D02*
X58600D01*
X24900Y321400D02*
X45700Y300600D01*
X24900Y321400D02*
Y336900D01*
X21200Y340600D02*
X24900Y336900D01*
X18100Y340600D02*
X21200D01*
X15600Y343100D02*
X18100Y340600D01*
X15600Y343100D02*
Y350600D01*
X20000Y355000D01*
X77000Y230000D02*
X99583D01*
X24400Y282600D02*
X77000Y230000D01*
X24400Y282600D02*
Y317300D01*
X20000Y321700D02*
X24400Y317300D01*
X20000Y321700D02*
Y325000D01*
X209600Y296300D02*
Y300400D01*
X229200Y320000D01*
X289291D01*
X50000Y75000D02*
X77739D01*
X79100Y73639D01*
X187767D01*
X189128Y75000D01*
X213200Y290800D02*
X216100Y287900D01*
X213200Y290800D02*
Y301000D01*
X222200Y310000D01*
X289291D01*
X187100Y280000D02*
X289291D01*
X186100Y281000D02*
X187100Y280000D01*
X173000Y281000D02*
X186100D01*
X169700Y277700D02*
X173000Y281000D01*
X20000Y365000D02*
X24800Y360200D01*
Y342746D02*
Y360200D01*
Y342746D02*
X47546Y320000D01*
X55700D01*
X79100Y296600D01*
X119089D01*
X125689Y290000D01*
X130291D01*
X76002Y190000D02*
X99583D01*
X68900Y182898D02*
X76002Y190000D01*
X68900Y178000D02*
Y182898D01*
X86100Y200000D02*
X99583D01*
X24400Y169400D02*
X50000Y195000D01*
X18100Y169400D02*
X24400D01*
X15600Y166900D02*
X18100Y169400D01*
X15600Y152100D02*
Y166900D01*
Y152100D02*
X17700Y150000D01*
X29400D01*
X35400Y156000D01*
Y170300D01*
X44500Y179400D01*
X61900D01*
X66200Y175100D01*
X71600D01*
X72900Y176400D01*
X104900D01*
X108500Y180000D01*
X130291D01*
X75889D02*
X99583D01*
X50000Y175000D02*
X62700D01*
X64400Y173300D01*
X73400D01*
X73900Y173800D01*
X112900D01*
X116700Y170000D01*
X130291D01*
X230300Y413200D02*
X233700Y416600D01*
X301500D01*
X0Y0D02*
Y500000D01*
X1100000D01*
Y0D02*
Y500000D01*
X0Y0D02*
X1100000D01*
D23*
X75000Y25000D02*
D03*
Y475000D02*
D03*
D24*
X210000Y25000D02*
D03*
D25*
X190000D02*
D03*
D26*
X350000Y70000D02*
D03*
X460000D02*
D03*
X350000Y370000D02*
D03*
X460000D02*
D03*
X421000Y420000D02*
D03*
X430000Y40000D02*
D03*
X440000Y383000D02*
D03*
X550000D02*
D03*
D27*
X360000Y70000D02*
D03*
X380000D02*
D03*
X390000D02*
D03*
X400000D02*
D03*
X410000D02*
D03*
X420000D02*
D03*
X430000D02*
D03*
X440000D02*
D03*
X370000D02*
D03*
X470000D02*
D03*
X490000D02*
D03*
X500000D02*
D03*
X510000D02*
D03*
X520000D02*
D03*
X530000D02*
D03*
X540000D02*
D03*
X550000D02*
D03*
X480000D02*
D03*
X360000Y370000D02*
D03*
X380000D02*
D03*
X390000D02*
D03*
X400000D02*
D03*
X410000D02*
D03*
X420000D02*
D03*
X430000D02*
D03*
X440000D02*
D03*
X370000D02*
D03*
X470000D02*
D03*
X490000D02*
D03*
X500000D02*
D03*
X510000D02*
D03*
X520000D02*
D03*
X530000D02*
D03*
X540000D02*
D03*
X550000D02*
D03*
X480000D02*
D03*
X401000Y420000D02*
D03*
X411000D02*
D03*
X20000Y475000D02*
D03*
Y465000D02*
D03*
Y455000D02*
D03*
Y445000D02*
D03*
Y435000D02*
D03*
Y425000D02*
D03*
Y415000D02*
D03*
Y405000D02*
D03*
Y395000D02*
D03*
Y385000D02*
D03*
Y375000D02*
D03*
Y365000D02*
D03*
Y355000D02*
D03*
Y345000D02*
D03*
Y335000D02*
D03*
Y325000D02*
D03*
Y315000D02*
D03*
Y305000D02*
D03*
Y295000D02*
D03*
X50000Y475000D02*
D03*
Y465000D02*
D03*
Y455000D02*
D03*
Y445000D02*
D03*
Y435000D02*
D03*
Y425000D02*
D03*
Y415000D02*
D03*
Y405000D02*
D03*
Y395000D02*
D03*
Y385000D02*
D03*
Y375000D02*
D03*
Y365000D02*
D03*
Y355000D02*
D03*
Y345000D02*
D03*
Y335000D02*
D03*
Y325000D02*
D03*
Y315000D02*
D03*
Y305000D02*
D03*
Y295000D02*
D03*
Y215000D02*
D03*
Y205000D02*
D03*
Y195000D02*
D03*
Y185000D02*
D03*
Y175000D02*
D03*
Y165000D02*
D03*
Y155000D02*
D03*
Y145000D02*
D03*
Y135000D02*
D03*
Y125000D02*
D03*
Y115000D02*
D03*
Y105000D02*
D03*
Y95000D02*
D03*
Y85000D02*
D03*
Y75000D02*
D03*
Y65000D02*
D03*
Y55000D02*
D03*
Y45000D02*
D03*
Y35000D02*
D03*
X20000Y215000D02*
D03*
Y205000D02*
D03*
Y195000D02*
D03*
Y185000D02*
D03*
Y175000D02*
D03*
Y165000D02*
D03*
Y155000D02*
D03*
Y145000D02*
D03*
Y135000D02*
D03*
Y125000D02*
D03*
Y115000D02*
D03*
Y105000D02*
D03*
Y95000D02*
D03*
Y85000D02*
D03*
Y75000D02*
D03*
Y65000D02*
D03*
Y55000D02*
D03*
Y45000D02*
D03*
Y35000D02*
D03*
X450000Y40000D02*
D03*
X440000D02*
D03*
X430000Y383000D02*
D03*
X410000D02*
D03*
X400000D02*
D03*
X390000D02*
D03*
X380000D02*
D03*
X370000D02*
D03*
X360000D02*
D03*
X350000D02*
D03*
X420000D02*
D03*
X540000D02*
D03*
X520000D02*
D03*
X510000D02*
D03*
X500000D02*
D03*
X490000D02*
D03*
X480000D02*
D03*
X470000D02*
D03*
X460000D02*
D03*
X530000D02*
D03*
D28*
X535000Y164409D02*
D03*
Y304409D02*
D03*
Y94409D02*
D03*
Y234409D02*
D03*
D29*
Y205591D02*
D03*
Y345591D02*
D03*
Y135591D02*
D03*
Y275591D02*
D03*
D30*
X20000Y285000D02*
D03*
X50000D02*
D03*
Y25000D02*
D03*
X20000D02*
D03*
D31*
X456783Y475815D02*
D03*
Y458098D02*
D03*
D32*
X329000Y278200D02*
D03*
X341700Y271200D02*
D03*
X338900Y265700D02*
D03*
X341500Y257323D02*
D03*
X331100Y256500D02*
D03*
X336276Y282297D02*
D03*
X431100Y426600D02*
D03*
X428100Y402000D02*
D03*
X374000Y413500D02*
D03*
X406600Y446100D02*
D03*
X452500Y58500D02*
D03*
X442700Y55500D02*
D03*
X420000Y48800D02*
D03*
X342700Y405400D02*
D03*
X368800Y401100D02*
D03*
X373300Y250800D02*
D03*
X346300Y245100D02*
D03*
X913500Y281500D02*
D03*
X1038000Y295000D02*
D03*
X912100Y295800D02*
D03*
X1041569Y280069D02*
D03*
X1042900Y274200D02*
D03*
X965031Y278269D02*
D03*
X1043700Y259000D02*
D03*
X916300Y275400D02*
D03*
X919100Y281500D02*
D03*
X1068522Y285378D02*
D03*
X1001300Y93400D02*
D03*
X1042900Y96300D02*
D03*
X1043650Y204750D02*
D03*
X981300Y106500D02*
D03*
X1037500Y171500D02*
D03*
X1005700Y168500D02*
D03*
X993000Y103800D02*
D03*
X1061600Y149000D02*
D03*
X1043700Y181200D02*
D03*
X971200Y184600D02*
D03*
X980800Y149300D02*
D03*
X1011500Y136800D02*
D03*
X1010200Y127000D02*
D03*
X990600Y120800D02*
D03*
X1006000Y106700D02*
D03*
X1047900Y115900D02*
D03*
X726000Y228849D02*
D03*
X797400Y204000D02*
D03*
X699600Y282400D02*
D03*
X796300Y259100D02*
D03*
X794100Y280757D02*
D03*
X694800Y299900D02*
D03*
X720300Y218300D02*
D03*
X782280Y226000D02*
D03*
X787320Y203404D02*
D03*
X720000Y233400D02*
D03*
X767700Y200900D02*
D03*
X724200Y210000D02*
D03*
X715780Y375900D02*
D03*
X654100Y373000D02*
D03*
X708300Y373600D02*
D03*
X661500Y353000D02*
D03*
X755000Y93500D02*
D03*
X846000Y87100D02*
D03*
X784800Y111100D02*
D03*
X845800Y102000D02*
D03*
X793000Y56400D02*
D03*
X888500Y61600D02*
D03*
X856600Y87100D02*
D03*
X950997Y139459D02*
D03*
X914300Y201900D02*
D03*
X929700Y132100D02*
D03*
X931700Y59865D02*
D03*
X871400Y56200D02*
D03*
X888000Y105300D02*
D03*
X808400Y129400D02*
D03*
X737100Y69800D02*
D03*
X800500Y62400D02*
D03*
X854500Y480500D02*
D03*
X736000Y484100D02*
D03*
X689800Y457500D02*
D03*
X843000Y412900D02*
D03*
X661800Y450000D02*
D03*
X810000Y440800D02*
D03*
X802200Y443700D02*
D03*
X681000Y451700D02*
D03*
X786900Y343800D02*
D03*
X752700Y378000D02*
D03*
X745700Y443600D02*
D03*
X786996D02*
D03*
X920000Y443000D02*
D03*
X1040000Y455900D02*
D03*
X952600Y446700D02*
D03*
X1056401Y445999D02*
D03*
X400600Y131500D02*
D03*
X384900Y215000D02*
D03*
X431500Y168400D02*
D03*
X409100Y287100D02*
D03*
X392200Y270200D02*
D03*
X485900Y278255D02*
D03*
X396041Y262441D02*
D03*
X476300Y294100D02*
D03*
X1042500Y265000D02*
D03*
X1076300Y373700D02*
D03*
X1072000Y382100D02*
D03*
X1059300Y378000D02*
D03*
X911300Y319700D02*
D03*
X737200Y312800D02*
D03*
X699800Y51800D02*
D03*
X951400Y132600D02*
D03*
X951000Y93700D02*
D03*
X944100Y13400D02*
D03*
X920000Y325000D02*
D03*
X746600Y328400D02*
D03*
X738700Y45000D02*
D03*
X854800Y24200D02*
D03*
X952608Y32400D02*
D03*
X971100Y141200D02*
D03*
Y132562D02*
D03*
X934200Y23600D02*
D03*
X960900Y37000D02*
D03*
X870000Y31700D02*
D03*
X928900Y119000D02*
D03*
X965200Y144800D02*
D03*
X757800Y87000D02*
D03*
X754900Y134800D02*
D03*
X793000Y139300D02*
D03*
X779200Y56000D02*
D03*
X778600Y92600D02*
D03*
X740143Y51100D02*
D03*
X743400Y215400D02*
D03*
X781500Y204000D02*
D03*
X776000Y62600D02*
D03*
X768700Y193000D02*
D03*
X744300D02*
D03*
X744150Y58150D02*
D03*
X726100Y78000D02*
D03*
X724100Y70000D02*
D03*
X719500Y64500D02*
D03*
X663900Y99600D02*
D03*
X678300Y82700D02*
D03*
X687200Y149000D02*
D03*
X687000Y177700D02*
D03*
X666700Y50500D02*
D03*
X738600Y282000D02*
D03*
X731498Y271602D02*
D03*
X724000Y279200D02*
D03*
X687000Y310900D02*
D03*
X866500Y324500D02*
D03*
X848900Y321500D02*
D03*
X817400Y309900D02*
D03*
X825900Y281500D02*
D03*
X908100Y132000D02*
D03*
X812400Y185800D02*
D03*
X804515Y274185D02*
D03*
X909058Y220400D02*
D03*
X886100Y225000D02*
D03*
Y333700D02*
D03*
X897800Y243394D02*
D03*
X894800Y248500D02*
D03*
X891700Y253600D02*
D03*
X860700Y245900D02*
D03*
X862800Y194000D02*
D03*
X907800Y204100D02*
D03*
X919219Y242800D02*
D03*
X926516Y239400D02*
D03*
X814200Y127700D02*
D03*
X816600Y118300D02*
D03*
X861100Y384700D02*
D03*
Y268100D02*
D03*
X791300Y262000D02*
D03*
X876587Y471100D02*
D03*
X750000Y397600D02*
D03*
X708300Y350200D02*
D03*
X712400Y302300D02*
D03*
X780700Y297800D02*
D03*
X787000Y295800D02*
D03*
X684000Y374000D02*
D03*
X705700Y301000D02*
D03*
X785239Y301300D02*
D03*
X871700Y438100D02*
D03*
X854600Y248800D02*
D03*
X791200D02*
D03*
X865700Y468500D02*
D03*
X753200Y371500D02*
D03*
Y353600D02*
D03*
X743800Y293300D02*
D03*
X766293Y281600D02*
D03*
X869000Y361100D02*
D03*
X883500Y368700D02*
D03*
X852900Y407969D02*
D03*
X844400Y468200D02*
D03*
X866900Y353200D02*
D03*
X820000Y444600D02*
D03*
X850100Y403000D02*
D03*
X890400Y378839D02*
D03*
X663700Y440300D02*
D03*
X658300Y442600D02*
D03*
X742800Y432900D02*
D03*
X754550Y467750D02*
D03*
X664800Y455900D02*
D03*
X659695Y460600D02*
D03*
X739800Y471892D02*
D03*
X740000Y419100D02*
D03*
X790800Y402231D02*
D03*
X794100Y396300D02*
D03*
X793931Y390000D02*
D03*
X858300Y439200D02*
D03*
X1034443Y432900D02*
D03*
X900000Y440000D02*
D03*
X905900Y442800D02*
D03*
X1009100Y457000D02*
D03*
X1014900Y451200D02*
D03*
X975600Y427700D02*
D03*
X1071000Y245000D02*
D03*
X745200Y372000D02*
D03*
X975500Y96400D02*
D03*
X959100Y140500D02*
D03*
X779000Y146700D02*
D03*
X721200Y338000D02*
D03*
X951600Y348700D02*
D03*
X907400Y358100D02*
D03*
X888077Y348700D02*
D03*
X669300Y360600D02*
D03*
X996457Y123600D02*
D03*
X985800Y86900D02*
D03*
X808500Y118043D02*
D03*
X775100Y197900D02*
D03*
X757800Y180600D02*
D03*
Y117600D02*
D03*
X709700Y128800D02*
D03*
X691800Y121000D02*
D03*
Y68500D02*
D03*
X642000Y43700D02*
D03*
X689800Y128800D02*
D03*
X973600Y319000D02*
D03*
X993300Y173300D02*
D03*
X1004200Y352900D02*
D03*
X1056700Y451500D02*
D03*
X836400Y372300D02*
D03*
X757800Y196000D02*
D03*
X934500Y192900D02*
D03*
X1006400Y381300D02*
D03*
X1052700Y427600D02*
D03*
X868300Y339700D02*
D03*
X759400Y365700D02*
D03*
X866400Y204700D02*
D03*
X638300Y453957D02*
D03*
X1083482Y261600D02*
D03*
X920000Y388100D02*
D03*
X1008439Y231800D02*
D03*
X1004100Y139000D02*
D03*
X964900Y132900D02*
D03*
X784000Y480300D02*
D03*
X1073700Y422600D02*
D03*
X1038900Y418400D02*
D03*
X941200Y93100D02*
D03*
X1090400Y263500D02*
D03*
X657400Y239900D02*
D03*
X808800Y474500D02*
D03*
X1054000Y352500D02*
D03*
X1024200Y354000D02*
D03*
X1037500Y231000D02*
D03*
Y159400D02*
D03*
X944800Y112200D02*
D03*
X1018100Y424800D02*
D03*
X970600Y409500D02*
D03*
X959400Y132800D02*
D03*
X978800Y90600D02*
D03*
X1009000Y51500D02*
D03*
X1048600Y83800D02*
D03*
X811400Y157800D02*
D03*
X897100Y141500D02*
D03*
X880000Y315000D02*
D03*
X892500Y305000D02*
D03*
X881500Y350100D02*
D03*
X781700Y399100D02*
D03*
X926000Y127700D02*
D03*
X799600Y473000D02*
D03*
X108300Y210000D02*
D03*
X86000Y348100D02*
D03*
X81200Y366300D02*
D03*
X84000Y355600D02*
D03*
X333200Y380900D02*
D03*
X183800Y250000D02*
D03*
X204000Y298000D02*
D03*
X156700Y260000D02*
D03*
X164400Y230000D02*
D03*
X71927Y96100D02*
D03*
X59100Y104900D02*
D03*
X81500Y76500D02*
D03*
X91700Y236000D02*
D03*
X218000Y299200D02*
D03*
X211200Y108900D02*
D03*
X197900Y297600D02*
D03*
X332238Y287162D02*
D03*
X325400Y411200D02*
D03*
X238600Y287900D02*
D03*
X304700Y290000D02*
D03*
X186300Y65000D02*
D03*
X226200Y288000D02*
D03*
X309100Y297200D02*
D03*
X222000Y45000D02*
D03*
X110700Y200000D02*
D03*
X241700Y120300D02*
D03*
X219700Y292100D02*
D03*
X179700Y274600D02*
D03*
X79200Y185800D02*
D03*
X107600Y170900D02*
D03*
X301800Y467000D02*
D03*
X378200Y327400D02*
D03*
X311200Y259400D02*
D03*
X279700Y220000D02*
D03*
X310700Y264900D02*
D03*
X258300Y269700D02*
D03*
X1014600Y55161D02*
D03*
X1010700Y92600D02*
D03*
X913900Y301600D02*
D03*
X1040300D02*
D03*
X1039500Y220400D02*
D03*
X930457Y250800D02*
D03*
X1068300Y275600D02*
D03*
X931400Y282800D02*
D03*
X1044800Y102300D02*
D03*
X1002600D02*
D03*
X1049000Y123400D02*
D03*
X1006000Y112600D02*
D03*
X783100Y219100D02*
D03*
X710700Y225400D02*
D03*
X773200Y204100D02*
D03*
X713600Y216900D02*
D03*
X644000Y53300D02*
D03*
X626900Y60000D02*
D03*
X702400Y371300D02*
D03*
X644200Y353600D02*
D03*
X675000Y379600D02*
D03*
X655400D02*
D03*
X874200Y145000D02*
D03*
X765000Y171440D02*
D03*
X775200Y163800D02*
D03*
X882500Y141500D02*
D03*
X873400Y88600D02*
D03*
X810700Y89900D02*
D03*
X905300Y169300D02*
D03*
X837000D02*
D03*
X841200Y178100D02*
D03*
X909500Y195900D02*
D03*
X878300Y91100D02*
D03*
X957300Y146150D02*
D03*
X948700Y148400D02*
D03*
X939100Y125600D02*
D03*
X917100Y138900D02*
D03*
Y195900D02*
D03*
X920900Y111600D02*
D03*
X954288Y151505D02*
D03*
X889700Y96000D02*
D03*
X790600Y105400D02*
D03*
X876200Y102400D02*
D03*
X808400Y123700D02*
D03*
X857400Y95200D02*
D03*
X793200Y97200D02*
D03*
X809500Y105700D02*
D03*
X881900D02*
D03*
X826400Y395200D02*
D03*
X688500Y438100D02*
D03*
X831700Y437600D02*
D03*
X666700Y447200D02*
D03*
X694500Y448300D02*
D03*
X825000Y436200D02*
D03*
X691000Y432000D02*
D03*
X785400Y412900D02*
D03*
X1041700Y450000D02*
D03*
X926000Y443600D02*
D03*
X958900Y448700D02*
D03*
X1044100Y465900D02*
D03*
X395300Y209700D02*
D03*
X1075800Y205000D02*
D03*
X1056100Y62900D02*
D03*
Y55700D02*
D03*
X1071800Y231000D02*
D03*
X1074000Y255000D02*
D03*
X1083300Y272300D02*
D03*
X1073400Y396200D02*
D03*
X1068300Y314900D02*
D03*
X1038300Y320600D02*
D03*
X988286Y395500D02*
D03*
X1070900Y355800D02*
D03*
X1048900Y376400D02*
D03*
X1072400Y412900D02*
D03*
X940300Y20600D02*
D03*
X780000Y26300D02*
D03*
X1082200Y63100D02*
D03*
X946900Y18900D02*
D03*
X964900Y53300D02*
D03*
X958708Y29008D02*
D03*
X967700Y33200D02*
D03*
X776400Y87100D02*
D03*
X776600Y181100D02*
D03*
X836800Y161200D02*
D03*
X837400Y62400D02*
D03*
X724200Y87100D02*
D03*
X720708Y80992D02*
D03*
X715900Y74600D02*
D03*
X714000Y65200D02*
D03*
X701499Y71600D02*
D03*
X660700Y165000D02*
D03*
X694600Y182800D02*
D03*
X737400Y222500D02*
D03*
X734300Y245000D02*
D03*
X715200Y277500D02*
D03*
X706800Y288500D02*
D03*
X697600Y356500D02*
D03*
X871100Y320400D02*
D03*
X812500Y319600D02*
D03*
X870600Y331900D02*
D03*
X888900Y274400D02*
D03*
X809800Y152300D02*
D03*
X813200Y144600D02*
D03*
X810300Y138100D02*
D03*
X817600Y148900D02*
D03*
X813700Y112100D02*
D03*
X823800Y108500D02*
D03*
X788000Y279600D02*
D03*
X951300Y430600D02*
D03*
X901200Y301300D02*
D03*
X781161Y272439D02*
D03*
X883500Y375800D02*
D03*
X868000Y372600D02*
D03*
X860600Y407831D02*
D03*
X850600Y437900D02*
D03*
X867400Y379200D02*
D03*
X876000Y441700D02*
D03*
X878300Y408100D02*
D03*
X868300Y386800D02*
D03*
X762300Y468300D02*
D03*
X772100Y475300D02*
D03*
X659400Y432500D02*
D03*
X682800Y424200D02*
D03*
X683700Y417800D02*
D03*
X695450Y420050D02*
D03*
X771800Y412100D02*
D03*
X778300Y409400D02*
D03*
X790100Y373053D02*
D03*
X808200Y364800D02*
D03*
X1019200Y431400D02*
D03*
X890000Y441300D02*
D03*
X1012100Y438600D02*
D03*
X1032500Y459400D02*
D03*
X778300Y474800D02*
D03*
X652700Y75900D02*
D03*
X236000Y360000D02*
D03*
X110100Y150000D02*
D03*
X1047400Y461500D02*
D03*
X1043500Y428600D02*
D03*
X658600Y41500D02*
D03*
X609700Y48500D02*
D03*
X590400Y46400D02*
D03*
X1026200Y75500D02*
D03*
X1035300D02*
D03*
X798500Y141400D02*
D03*
X723500Y129100D02*
D03*
X911900Y172900D02*
D03*
X845600D02*
D03*
X796516Y338600D02*
D03*
X733000Y400400D02*
D03*
X929500Y197900D02*
D03*
X866948Y119652D02*
D03*
X898000Y396000D02*
D03*
X604400Y463000D02*
D03*
X703543Y97700D02*
D03*
X1042300Y174900D02*
D03*
X978200Y180400D02*
D03*
X925200Y204000D02*
D03*
X974200Y176400D02*
D03*
X735100Y204400D02*
D03*
X781800Y198400D02*
D03*
X774800Y220500D02*
D03*
X923957Y329443D02*
D03*
X891600Y118300D02*
D03*
X799800Y106600D02*
D03*
X693700Y365500D02*
D03*
X331000Y231900D02*
D03*
X342600D02*
D03*
X1005900Y175000D02*
D03*
X656500Y228300D02*
D03*
X1037500Y191000D02*
D03*
X1042900Y216000D02*
D03*
X1056842Y124442D02*
D03*
X925000Y87100D02*
D03*
X945000Y63200D02*
D03*
X729500Y107700D02*
D03*
X670000Y103900D02*
D03*
X970600Y384100D02*
D03*
X911600Y144200D02*
D03*
X679900Y429900D02*
D03*
X763000Y408800D02*
D03*
X805200Y284400D02*
D03*
X911600Y339600D02*
D03*
X798900Y348100D02*
D03*
X111900Y262100D02*
D03*
X1038800Y166000D02*
D03*
X701700Y128400D02*
D03*
X141000Y336300D02*
D03*
X88800Y320000D02*
D03*
X190000Y298000D02*
D03*
X118900Y290100D02*
D03*
X40600Y200600D02*
D03*
X191200Y210000D02*
D03*
X60300Y83700D02*
D03*
X209600Y296300D02*
D03*
X189128Y75000D02*
D03*
X216100Y287900D02*
D03*
X169700Y277700D02*
D03*
X68900Y178000D02*
D03*
X86100Y200000D02*
D03*
X75889Y180000D02*
D03*
X230300Y413200D02*
D03*
M02*
