G04 Layer_Color=8421504*
%FSLAX25Y25*%
%MOIN*%
G70*
G01*
G75*
%ADD10R,0.09449X0.12598*%
%ADD11R,0.09449X0.03937*%
%ADD12O,0.06102X0.02362*%
%ADD13R,0.03937X0.07874*%
%ADD14R,0.07874X0.03937*%
%ADD15O,0.06102X0.01772*%
%ADD16O,0.06299X0.01772*%
%ADD17O,0.01772X0.06299*%
%ADD18R,0.05000X0.05000*%
%ADD19R,0.05000X0.05000*%
%ADD20R,0.11024X0.09449*%
%ADD21O,0.05709X0.02362*%
%ADD22C,0.01000*%
D10*
X496417Y142500D02*
D03*
X494917Y269200D02*
D03*
X244417Y416000D02*
D03*
Y463000D02*
D03*
D11*
X473583Y133445D02*
D03*
Y142500D02*
D03*
Y151555D02*
D03*
X472083Y278255D02*
D03*
Y269200D02*
D03*
Y260145D02*
D03*
X221583Y425055D02*
D03*
Y416000D02*
D03*
Y406945D02*
D03*
Y472055D02*
D03*
Y463000D02*
D03*
Y453945D02*
D03*
D12*
X404429Y158760D02*
D03*
Y166240D02*
D03*
X395571Y158760D02*
D03*
Y162500D02*
D03*
Y166240D02*
D03*
Y343740D02*
D03*
Y340000D02*
D03*
Y336260D02*
D03*
X404429Y343740D02*
D03*
Y336260D02*
D03*
Y118760D02*
D03*
Y126240D02*
D03*
X395571Y118760D02*
D03*
Y122500D02*
D03*
Y126240D02*
D03*
Y303740D02*
D03*
Y300000D02*
D03*
Y296260D02*
D03*
X404429Y303740D02*
D03*
Y296260D02*
D03*
D13*
X905000Y451604D02*
D03*
X925000D02*
D03*
X935000D02*
D03*
X945000D02*
D03*
X915000D02*
D03*
X865000D02*
D03*
X895000D02*
D03*
X885000D02*
D03*
X875000D02*
D03*
X855000D02*
D03*
X815000D02*
D03*
X845000D02*
D03*
X835000D02*
D03*
X825000D02*
D03*
X805000D02*
D03*
X765000D02*
D03*
X795000D02*
D03*
X785000D02*
D03*
X775000D02*
D03*
X755000D02*
D03*
Y420896D02*
D03*
X775000D02*
D03*
X785000D02*
D03*
X795000D02*
D03*
X765000D02*
D03*
X805000D02*
D03*
X825000D02*
D03*
X835000D02*
D03*
X845000D02*
D03*
X815000D02*
D03*
X855000D02*
D03*
X875000D02*
D03*
X885000D02*
D03*
X895000D02*
D03*
X865000D02*
D03*
X915000D02*
D03*
X945000D02*
D03*
X935000D02*
D03*
X925000D02*
D03*
X905000D02*
D03*
X795000Y79104D02*
D03*
X775000D02*
D03*
X765000D02*
D03*
X755000D02*
D03*
X785000D02*
D03*
X835000D02*
D03*
X805000D02*
D03*
X815000D02*
D03*
X825000D02*
D03*
X845000D02*
D03*
X885000D02*
D03*
X855000D02*
D03*
X865000D02*
D03*
X875000D02*
D03*
X895000D02*
D03*
X935000D02*
D03*
X905000D02*
D03*
X915000D02*
D03*
X925000D02*
D03*
X945000D02*
D03*
Y48396D02*
D03*
X925000D02*
D03*
X915000D02*
D03*
X905000D02*
D03*
X935000D02*
D03*
X895000D02*
D03*
X875000D02*
D03*
X865000D02*
D03*
X855000D02*
D03*
X885000D02*
D03*
X845000D02*
D03*
X825000D02*
D03*
X815000D02*
D03*
X805000D02*
D03*
X835000D02*
D03*
X785000D02*
D03*
X755000D02*
D03*
X765000D02*
D03*
X775000D02*
D03*
X795000D02*
D03*
D14*
X648396Y305000D02*
D03*
Y325000D02*
D03*
Y335000D02*
D03*
Y345000D02*
D03*
Y315000D02*
D03*
Y265000D02*
D03*
Y295000D02*
D03*
Y285000D02*
D03*
Y275000D02*
D03*
Y255000D02*
D03*
Y215000D02*
D03*
Y245000D02*
D03*
Y235000D02*
D03*
Y225000D02*
D03*
Y205000D02*
D03*
Y165000D02*
D03*
Y195000D02*
D03*
Y185000D02*
D03*
Y175000D02*
D03*
Y155000D02*
D03*
X679104D02*
D03*
Y175000D02*
D03*
Y185000D02*
D03*
Y195000D02*
D03*
Y165000D02*
D03*
Y205000D02*
D03*
Y225000D02*
D03*
Y235000D02*
D03*
Y245000D02*
D03*
Y215000D02*
D03*
Y255000D02*
D03*
Y275000D02*
D03*
Y285000D02*
D03*
Y295000D02*
D03*
Y265000D02*
D03*
Y315000D02*
D03*
Y345000D02*
D03*
Y335000D02*
D03*
Y325000D02*
D03*
Y305000D02*
D03*
X1020896Y195000D02*
D03*
Y175000D02*
D03*
Y165000D02*
D03*
Y155000D02*
D03*
Y185000D02*
D03*
Y235000D02*
D03*
Y205000D02*
D03*
Y215000D02*
D03*
Y225000D02*
D03*
Y245000D02*
D03*
Y285000D02*
D03*
Y255000D02*
D03*
Y265000D02*
D03*
Y275000D02*
D03*
Y295000D02*
D03*
Y335000D02*
D03*
Y305000D02*
D03*
Y315000D02*
D03*
Y325000D02*
D03*
Y345000D02*
D03*
X1051604D02*
D03*
Y325000D02*
D03*
Y315000D02*
D03*
Y305000D02*
D03*
Y335000D02*
D03*
Y295000D02*
D03*
Y275000D02*
D03*
Y265000D02*
D03*
Y255000D02*
D03*
Y285000D02*
D03*
Y245000D02*
D03*
Y225000D02*
D03*
Y215000D02*
D03*
Y205000D02*
D03*
Y235000D02*
D03*
Y185000D02*
D03*
Y155000D02*
D03*
Y165000D02*
D03*
Y175000D02*
D03*
Y195000D02*
D03*
D15*
X348681Y222677D02*
D03*
Y220118D02*
D03*
Y217559D02*
D03*
Y215000D02*
D03*
Y212441D02*
D03*
Y209882D02*
D03*
Y207323D02*
D03*
X371319Y222677D02*
D03*
Y220118D02*
D03*
Y217559D02*
D03*
Y215000D02*
D03*
Y212441D02*
D03*
Y209882D02*
D03*
Y207323D02*
D03*
Y257323D02*
D03*
Y259882D02*
D03*
Y262441D02*
D03*
Y265000D02*
D03*
Y267559D02*
D03*
Y270118D02*
D03*
Y272677D02*
D03*
X348681Y257323D02*
D03*
Y259882D02*
D03*
Y262441D02*
D03*
Y265000D02*
D03*
Y267559D02*
D03*
Y270118D02*
D03*
Y272677D02*
D03*
D16*
X823819Y363484D02*
D03*
Y366043D02*
D03*
Y368602D02*
D03*
Y371161D02*
D03*
Y373720D02*
D03*
Y376280D02*
D03*
Y378839D02*
D03*
Y381398D02*
D03*
Y383957D02*
D03*
Y386516D02*
D03*
X801181Y363484D02*
D03*
Y366043D02*
D03*
Y368602D02*
D03*
Y371161D02*
D03*
Y373720D02*
D03*
Y376280D02*
D03*
Y378839D02*
D03*
Y381398D02*
D03*
Y383957D02*
D03*
Y386516D02*
D03*
X876181D02*
D03*
Y383957D02*
D03*
Y381398D02*
D03*
Y378839D02*
D03*
Y376280D02*
D03*
Y373720D02*
D03*
Y371161D02*
D03*
Y368602D02*
D03*
Y366043D02*
D03*
Y363484D02*
D03*
X898819Y386516D02*
D03*
Y383957D02*
D03*
Y381398D02*
D03*
Y378839D02*
D03*
Y376280D02*
D03*
Y373720D02*
D03*
Y371161D02*
D03*
Y368602D02*
D03*
Y366043D02*
D03*
Y363484D02*
D03*
X801181Y136516D02*
D03*
Y133957D02*
D03*
Y131398D02*
D03*
Y128839D02*
D03*
Y126280D02*
D03*
Y123720D02*
D03*
Y121161D02*
D03*
Y118602D02*
D03*
Y116043D02*
D03*
Y113484D02*
D03*
X823819Y136516D02*
D03*
Y133957D02*
D03*
Y131398D02*
D03*
Y128839D02*
D03*
Y126280D02*
D03*
Y123720D02*
D03*
Y121161D02*
D03*
Y118602D02*
D03*
Y116043D02*
D03*
Y113484D02*
D03*
X898819D02*
D03*
Y116043D02*
D03*
Y118602D02*
D03*
Y121161D02*
D03*
Y123720D02*
D03*
Y126280D02*
D03*
Y128839D02*
D03*
Y131398D02*
D03*
Y133957D02*
D03*
Y136516D02*
D03*
X876181Y113484D02*
D03*
Y116043D02*
D03*
Y118602D02*
D03*
Y121161D02*
D03*
Y123720D02*
D03*
Y126280D02*
D03*
Y128839D02*
D03*
Y131398D02*
D03*
Y133957D02*
D03*
Y136516D02*
D03*
X651181Y66516D02*
D03*
Y63957D02*
D03*
Y61398D02*
D03*
Y58839D02*
D03*
Y56280D02*
D03*
Y53720D02*
D03*
Y51161D02*
D03*
Y48602D02*
D03*
Y46043D02*
D03*
Y43484D02*
D03*
X673819Y66516D02*
D03*
Y63957D02*
D03*
Y61398D02*
D03*
Y58839D02*
D03*
Y56280D02*
D03*
Y53720D02*
D03*
Y51161D02*
D03*
Y48602D02*
D03*
Y46043D02*
D03*
Y43484D02*
D03*
X1048819D02*
D03*
Y46043D02*
D03*
Y48602D02*
D03*
Y51161D02*
D03*
Y53720D02*
D03*
Y56280D02*
D03*
Y58839D02*
D03*
Y61398D02*
D03*
Y63957D02*
D03*
Y66516D02*
D03*
X1026181Y43484D02*
D03*
Y46043D02*
D03*
Y48602D02*
D03*
Y51161D02*
D03*
Y53720D02*
D03*
Y56280D02*
D03*
Y58839D02*
D03*
Y61398D02*
D03*
Y63957D02*
D03*
Y66516D02*
D03*
X1048819Y433484D02*
D03*
Y436043D02*
D03*
Y438602D02*
D03*
Y441161D02*
D03*
Y443720D02*
D03*
Y446280D02*
D03*
Y448839D02*
D03*
Y451398D02*
D03*
Y453957D02*
D03*
Y456516D02*
D03*
X1026181Y433484D02*
D03*
Y436043D02*
D03*
Y438602D02*
D03*
Y441161D02*
D03*
Y443720D02*
D03*
Y446280D02*
D03*
Y448839D02*
D03*
Y451398D02*
D03*
Y453957D02*
D03*
Y456516D02*
D03*
X651181D02*
D03*
Y453957D02*
D03*
Y451398D02*
D03*
Y448839D02*
D03*
Y446280D02*
D03*
Y443720D02*
D03*
Y441161D02*
D03*
Y438602D02*
D03*
Y436043D02*
D03*
Y433484D02*
D03*
X673819Y456516D02*
D03*
Y453957D02*
D03*
Y451398D02*
D03*
Y448839D02*
D03*
Y446280D02*
D03*
Y443720D02*
D03*
Y441161D02*
D03*
Y438602D02*
D03*
Y436043D02*
D03*
Y433484D02*
D03*
D17*
X773484Y188681D02*
D03*
X776043D02*
D03*
X778602D02*
D03*
X781161D02*
D03*
X783720D02*
D03*
X786280D02*
D03*
X788839D02*
D03*
X791398D02*
D03*
X793957D02*
D03*
X796516D02*
D03*
X773484Y211319D02*
D03*
X776043D02*
D03*
X778602D02*
D03*
X781161D02*
D03*
X783720D02*
D03*
X786280D02*
D03*
X788839D02*
D03*
X791398D02*
D03*
X793957D02*
D03*
X796516D02*
D03*
X903484Y288681D02*
D03*
X906043D02*
D03*
X908602D02*
D03*
X911161D02*
D03*
X913720D02*
D03*
X916280D02*
D03*
X918839D02*
D03*
X921398D02*
D03*
X923957D02*
D03*
X926516D02*
D03*
X903484Y311319D02*
D03*
X906043D02*
D03*
X908602D02*
D03*
X911161D02*
D03*
X913720D02*
D03*
X916280D02*
D03*
X918839D02*
D03*
X921398D02*
D03*
X923957D02*
D03*
X926516D02*
D03*
X796516D02*
D03*
X793957D02*
D03*
X791398D02*
D03*
X788839D02*
D03*
X786280D02*
D03*
X783720D02*
D03*
X781161D02*
D03*
X778602D02*
D03*
X776043D02*
D03*
X773484D02*
D03*
X796516Y288681D02*
D03*
X793957D02*
D03*
X791398D02*
D03*
X788839D02*
D03*
X786280D02*
D03*
X783720D02*
D03*
X781161D02*
D03*
X778602D02*
D03*
X776043D02*
D03*
X773484D02*
D03*
X926516Y211319D02*
D03*
X923957D02*
D03*
X921398D02*
D03*
X918839D02*
D03*
X916280D02*
D03*
X913720D02*
D03*
X911161D02*
D03*
X908602D02*
D03*
X906043D02*
D03*
X903484D02*
D03*
X926516Y188681D02*
D03*
X923957D02*
D03*
X921398D02*
D03*
X918839D02*
D03*
X916280D02*
D03*
X913720D02*
D03*
X911161D02*
D03*
X908602D02*
D03*
X906043D02*
D03*
X903484D02*
D03*
X724016Y386319D02*
D03*
X721457D02*
D03*
X718898D02*
D03*
X716339D02*
D03*
X713780D02*
D03*
X711220D02*
D03*
X708661D02*
D03*
X706102D02*
D03*
X703543D02*
D03*
X700984D02*
D03*
X724016Y363681D02*
D03*
X721457D02*
D03*
X718898D02*
D03*
X716339D02*
D03*
X713780D02*
D03*
X711220D02*
D03*
X708661D02*
D03*
X706102D02*
D03*
X703543D02*
D03*
X700984D02*
D03*
Y113681D02*
D03*
X703543D02*
D03*
X706102D02*
D03*
X708661D02*
D03*
X711220D02*
D03*
X713780D02*
D03*
X716339D02*
D03*
X718898D02*
D03*
X721457D02*
D03*
X724016D02*
D03*
X700984Y136319D02*
D03*
X703543D02*
D03*
X706102D02*
D03*
X708661D02*
D03*
X711220D02*
D03*
X713780D02*
D03*
X716339D02*
D03*
X718898D02*
D03*
X721457D02*
D03*
X724016D02*
D03*
X975984Y113681D02*
D03*
X978543D02*
D03*
X981102D02*
D03*
X983661D02*
D03*
X986220D02*
D03*
X988780D02*
D03*
X991339D02*
D03*
X993898D02*
D03*
X996457D02*
D03*
X999016D02*
D03*
X975984Y136319D02*
D03*
X978543D02*
D03*
X981102D02*
D03*
X983661D02*
D03*
X986220D02*
D03*
X988780D02*
D03*
X991339D02*
D03*
X993898D02*
D03*
X996457D02*
D03*
X999016D02*
D03*
Y386319D02*
D03*
X996457D02*
D03*
X993898D02*
D03*
X991339D02*
D03*
X988780D02*
D03*
X986220D02*
D03*
X983661D02*
D03*
X981102D02*
D03*
X978543D02*
D03*
X975984D02*
D03*
X999016Y363681D02*
D03*
X996457D02*
D03*
X993898D02*
D03*
X991339D02*
D03*
X988780D02*
D03*
X986220D02*
D03*
X983661D02*
D03*
X981102D02*
D03*
X978543D02*
D03*
X975984D02*
D03*
D18*
X278500Y25000D02*
D03*
X271500D02*
D03*
X523500Y470000D02*
D03*
X530500D02*
D03*
Y440000D02*
D03*
X523500D02*
D03*
X346500Y166100D02*
D03*
X353500D02*
D03*
Y343700D02*
D03*
X346500D02*
D03*
Y126000D02*
D03*
X353500D02*
D03*
Y303700D02*
D03*
X346500D02*
D03*
X523500Y460000D02*
D03*
X530500D02*
D03*
Y450000D02*
D03*
X523500D02*
D03*
X438500Y155000D02*
D03*
X431500D02*
D03*
Y280000D02*
D03*
X438500D02*
D03*
Y127500D02*
D03*
X431500D02*
D03*
Y252500D02*
D03*
X438500D02*
D03*
X300000Y486500D02*
D03*
X307000D02*
D03*
D19*
X317500Y416000D02*
D03*
Y409000D02*
D03*
X287500D02*
D03*
Y416000D02*
D03*
X570000Y186900D02*
D03*
Y193900D02*
D03*
Y328500D02*
D03*
Y321500D02*
D03*
X375000Y166100D02*
D03*
Y159100D02*
D03*
Y336700D02*
D03*
Y343700D02*
D03*
X297500Y416000D02*
D03*
Y409000D02*
D03*
X307500D02*
D03*
Y416000D02*
D03*
X400000Y226000D02*
D03*
Y219000D02*
D03*
Y271500D02*
D03*
Y278500D02*
D03*
X375000Y126000D02*
D03*
Y119000D02*
D03*
Y296700D02*
D03*
Y303700D02*
D03*
X1084000Y471500D02*
D03*
Y478500D02*
D03*
X598000Y458398D02*
D03*
Y451398D02*
D03*
X618000Y41500D02*
D03*
Y48500D02*
D03*
X1084000Y28500D02*
D03*
Y21500D02*
D03*
Y41500D02*
D03*
Y48500D02*
D03*
X328000Y212500D02*
D03*
Y219500D02*
D03*
X160000Y400000D02*
D03*
Y407000D02*
D03*
X196000Y400000D02*
D03*
Y407000D02*
D03*
Y461000D02*
D03*
Y454000D02*
D03*
X160000Y460500D02*
D03*
Y453500D02*
D03*
X328000Y263000D02*
D03*
Y270000D02*
D03*
X338000Y458500D02*
D03*
Y465500D02*
D03*
X598000Y477500D02*
D03*
Y470500D02*
D03*
X1064000Y28500D02*
D03*
Y21500D02*
D03*
X598000Y48500D02*
D03*
Y41500D02*
D03*
X1064000Y48500D02*
D03*
Y41500D02*
D03*
Y471500D02*
D03*
Y478500D02*
D03*
X1084000Y458500D02*
D03*
Y451500D02*
D03*
X1064000Y458500D02*
D03*
Y451500D02*
D03*
X618000D02*
D03*
Y458500D02*
D03*
Y477500D02*
D03*
Y470500D02*
D03*
Y21500D02*
D03*
Y28500D02*
D03*
X598000D02*
D03*
Y21500D02*
D03*
D20*
X481000Y451500D02*
D03*
Y476000D02*
D03*
X432500Y451500D02*
D03*
Y476000D02*
D03*
D21*
X292772Y467000D02*
D03*
Y462000D02*
D03*
Y457000D02*
D03*
Y452000D02*
D03*
X314228Y467000D02*
D03*
Y462000D02*
D03*
Y457000D02*
D03*
Y452000D02*
D03*
D22*
X0Y0D02*
Y500000D01*
X1100000D01*
Y0D02*
Y500000D01*
X0Y0D02*
X1100000D01*
M02*
